<svg width="29" height="33" viewBox="0 0 29 33" fill="none" xmlns="http://www.w3.org/2000/svg">
<path fill-rule="evenodd" clip-rule="evenodd" d="M23.7813 25.1106C21.7866 26.3223 19.4523 27.0191 16.9473 27.0191C9.62791 27.0191 3.68729 21.0617 3.68729 13.7596C3.68729 6.44043 9.62791 0.5 16.9303 0.5C21.4718 0.5 25.4775 2.79406 27.8678 6.26941L28.2661 6.73417L22.967 11.2759L22.6392 10.8934L22.6326 10.9C22.6069 10.8647 22.5809 10.8296 22.5546 10.7948L22.3024 10.5005L22.3135 10.4909C20.8892 8.7844 18.7534 7.7 16.3685 7.7C12.0961 7.7 8.60659 11.1723 8.60659 15.4617H7.46613C7.46613 10.5596 11.4663 6.55957 16.3685 6.55957C19.0922 6.55957 21.5413 7.79554 23.181 9.74736L26.7679 6.67314C24.5644 3.61723 20.9697 1.6234 16.9303 1.6234C10.2407 1.6234 4.81073 7.05319 4.81073 13.7426C4.81073 20.4319 10.2407 25.8617 16.9303 25.8617C19.2722 25.8617 21.4703 25.1906 23.3233 24.0342L23.8309 23.5991L27.7702 28.1957C27.7712 28.195 27.7722 28.1943 27.7732 28.1936L28.5902 29.0106C25.6284 31.2064 21.9517 32.5 17.9856 32.5C9.11725 32.5 1.7468 26.0149 0.333984 17.5383H1.49147C2.88726 25.3851 9.74706 31.3596 17.9856 31.3596C21.2604 31.3596 24.3288 30.4104 26.9188 28.7716L23.7813 25.1106Z" fill="#0B3EE3"/>
</svg>
