<svg width="50" height="25" viewBox="0 0 50 25" fill="none" xmlns="http://www.w3.org/2000/svg">
<path d="M46.4007 0.5V5.88038C45.9903 5.79115 45.5737 5.71231 45.1574 5.65096C43.9183 5.46827 42.711 5.39673 41.4902 5.75519C38.1643 6.73135 37.8386 10.3119 37.9506 13.2106C38.0056 14.636 38.2009 16.3123 38.9978 17.5431C40.3262 19.5946 43.6181 19.645 45.6825 18.7698L46.4401 18.4475V19.0048H50.0005V0.5H46.4007ZM46.3986 15.7262L46.3686 15.7544C46.0782 15.7804 45.8066 15.8815 45.525 15.944C44.9122 16.0802 44.1024 16.1635 43.4754 16.1229C41.9479 16.0237 41.7225 14.5112 41.6282 13.3065C41.5327 12.0871 41.5366 10.079 42.3902 9.09885C43.137 8.24115 44.2956 8.54327 45.2944 8.61L46.3998 8.78288L46.3986 15.7262Z" fill="#0066CC"/>
<path d="M20.4322 5.49539C19.2858 5.44442 18.322 5.78577 17.337 6.31865C17.2466 6.3675 17.1039 6.47442 17.0194 6.50615C16.9988 6.51385 16.9814 6.51712 16.9593 6.51442V5.80346H13.4185V24.5H16.9593V19.091C16.9593 19.0815 16.9781 19.0683 16.9984 19.0708C17.1233 19.0856 17.2695 19.1362 17.4006 19.1571C19.0126 19.4148 21.0978 19.3942 22.6129 18.726C24.6954 17.8073 25.1492 15.7167 25.2922 13.6715C25.4057 12.0485 25.3457 10.0165 24.7995 8.46923C24.0953 6.47462 22.5301 5.58885 20.4322 5.49539ZM21.6536 12.9413C21.6205 13.6502 21.5481 14.4419 21.2473 15.0979C20.5555 16.6067 18.6828 16.3277 17.3202 16.1615C17.2008 16.1469 17.0793 16.1425 16.9595 16.1219L16.9616 9.21654C16.9699 9.18962 17.1869 9.09885 17.2333 9.07981C18.073 8.73269 19.3784 8.44827 20.24 8.81673C21.6849 9.43442 21.7142 11.6406 21.6536 12.9413Z" fill="#0066CC"/>
<path d="M7.4956 11.1313C6.47952 10.8937 5.42176 10.7817 4.41507 10.5063C3.86985 10.3571 3.5444 10.159 3.59743 9.54039C3.65321 8.88962 4.29589 8.75385 4.83955 8.70442C6.14644 8.58577 7.66429 8.79096 8.96883 8.93481C9.12383 8.95192 9.28098 8.9625 9.43636 8.97519L10.347 9.08962C10.3513 8.88808 10.3415 8.68538 10.3464 8.48365C10.3603 7.90481 10.3734 7.31538 10.3871 6.73654C10.3888 6.66096 10.3953 6.21231 10.3775 6.18692L10.3542 6.17135C9.87708 6.08923 9.40407 5.98423 8.92715 5.90135C6.7582 5.525 4.02034 5.10308 2.00717 6.19115C0.321793 7.10192 -0.144758 8.61654 0.036657 10.4258C0.142923 11.4865 0.443715 12.3331 1.4005 12.9098C2.79545 13.7506 4.47633 13.7912 6.02823 14.1673C6.56856 14.2983 7.26702 14.4829 7.2177 15.1717C7.15743 16.0113 6.24585 16.0658 5.58301 16.1023C3.94833 16.1923 2.23849 15.924 0.613779 15.7388C0.530019 15.7292 0.435495 15.7265 0.350561 15.7187L0.254276 18.6573C0.951167 18.7994 1.65256 18.9358 2.35689 19.0419C5.07458 19.4512 9.63931 19.8469 10.6157 16.5112C10.9507 15.3667 10.8822 13.5 10.1405 12.511C9.57746 11.7604 8.39211 11.341 7.4956 11.1313Z" fill="#0066CC"/>
<path d="M31.9744 5.86019L31.9138 5.84308L31.2936 5.84673C29.1493 5.9775 27.7133 7.69538 27.8172 9.77096C27.9078 11.5796 29.0368 13.1125 30.9188 13.4113C32.6506 13.6863 34.3555 12.92 35.0448 11.2994C36.0262 8.99173 34.6839 6.00154 31.9744 5.86019Z" fill="#0066CC"/>
<path d="M30.8045 15.0894C29.3607 15.3354 28.2058 16.4671 27.8998 17.8663C27.8373 18.1519 27.8213 18.4371 27.796 18.7254C27.7941 18.7477 27.7978 18.771 27.7966 18.7933L35.3477 18.8702C35.3685 17.9887 35.0969 17.1144 34.5542 16.4117C33.6455 15.2348 32.2674 14.8402 30.8045 15.0894Z" fill="#0066CC"/>
</svg>
