<svg viewBox="0 0 240 240" fill="none" xmlns="http://www.w3.org/2000/svg"><path fill-rule="evenodd" clip-rule="evenodd" d="M118.373 48.416c-1.925 -0.96 -4.276 -0.203 -5.251 1.693l-3.5 6.799 -0.053 0.121c-8.031 18.679 -12.457 33.252 -14.88 43.209 -1.211 4.979 -1.92 8.801 -2.331 11.405 -0.204 1.303 -0.333 2.3 -0.413 2.984a40 40 0 0 0 -0.103 1.007l-0.005 0.064 -0.001 0.021v0.007l-0.001 0.004s0 0.003 3.896 0.287l-3.896 -0.284 -0.005 0.065 -0.003 0.067c-0.268 6.657 3.584 11.48 7.889 14.44 4.229 2.908 9.444 4.441 13.387 4.441 2.157 0 3.907 -1.723 3.907 -3.848s-1.749 -3.848 -3.907 -3.848c-2.232 0 -5.901 -0.984 -8.913 -3.053 -2.915 -2.004 -4.656 -4.597 -4.557 -7.753a24 24 0 0 1 0.077 -0.747c0.067 -0.581 0.183 -1.476 0.372 -2.676 0.376 -2.4 1.045 -6.016 2.207 -10.789 2.317 -9.523 6.595 -23.652 14.425 -41.88l3.379 -6.564a3.82 3.82 0 0 0 -1.72 -5.172" fill="white"/><path fill-rule="evenodd" clip-rule="evenodd" d="M151.184 153.164a3.813 3.813 0 0 1 0.888 5.371l-3.171 -2.248a330.667 330.667 0 0 1 3.168 2.252l-0.012 0.016 -0.024 0.032 -0.077 0.104 -0.273 0.355a45.333 45.333 0 0 1 -1.004 1.223 54.667 54.667 0 0 1 -3.749 3.956c-3.217 3.076 -7.952 6.873 -13.881 9.5 -5.969 2.644 -13.221 4.129 -21.285 2.413 -8.056 -1.715 -16.504 -6.535 -25.04 -15.765a3.807 3.807 0 0 1 0.259 -5.435 3.947 3.947 0 0 1 5.52 0.253c7.715 8.344 14.803 12.124 20.912 13.425 6.099 1.297 11.639 0.212 16.429 -1.909 4.829 -2.14 8.824 -5.308 11.644 -8.004a46.667 46.667 0 0 0 3.208 -3.384c0.363 -0.425 0.633 -0.761 0.808 -0.984q0.132 -0.167 0.189 -0.244l0.039 -0.051 0.003 -0.004m5.451 -0.872c-1.751 -1.24 -4.189 -0.851 -5.451 0.872z" fill="white"/></svg>