<svg viewBox="0 0 240 240" fill="none" xmlns="http://www.w3.org/2000/svg"><g clip-path="url(#clip0_11084_62631)"><g clip-path="url(#clip1_11084_62631)"><path d="M157.67 65.62C155.7 65.62 153.74 65.22 151.88 64.41C148.32 62.86 145.57 60.02 144.15 56.41C141.21 48.95 144.89 40.49 152.35 37.55C158.86 34.99 166.28 37.42 169.99 43.34C170.42 44.03 170.21 44.94 169.52 45.37C168.83 45.8 167.92 45.59 167.49 44.9C164.53 40.18 158.61 38.24 153.42 40.29C147.47 42.63 144.54 49.38 146.88 55.33C148.02 58.21 150.21 60.48 153.05 61.71C155.89 62.94 159.04 63 161.92 61.86C162.68 61.56 163.53 61.93 163.83 62.69C164.13 63.45 163.76 64.3 163 64.6C161.27 65.28 159.47 65.62 157.67 65.62Z" fill="#00C5CA"/><path d="M168.04 45.83C167.96 45.83 167.88 45.83 167.8 45.82L157.51 44.78C156.7 44.7 156.11 43.98 156.19 43.17C156.27 42.36 157 41.77 157.8 41.85L167.61 42.84L168.18 33.38C168.23 32.57 168.92 31.95 169.74 32C170.55 32.05 171.17 32.75 171.12 33.56L170.52 43.5C170.48 44.17 170.16 44.8 169.65 45.24C169.2 45.62 168.62 45.83 168.04 45.83Z" fill="#00C5CA"/><path d="M160.44 76.81C143.83 76.81 130.36 63.34 130.36 46.73C130.36 44.63 130.58 42.59 130.98 40.61H58.59C53.29 40.6 49 44.89 49 50.19V197.53C49 202.82 53.29 207.12 58.59 207.12H152.52C157.81 207.12 162.11 202.83 162.11 197.53V163.9L160.23 162.95L155.61 157.04L156.33 152.4L154.02 149.31C154.02 149.31 150.09 143.46 150.2 143.01C150.31 142.57 151.76 136.57 151.76 136.57L148.21 132.32L138.82 131.22L129.54 126.34L127.38 119.82C127.38 119.82 133 117.04 133.96 116.97C134.92 116.9 147.1 116.25 147.1 116.25L162.11 116.87V76.77C161.56 76.8 161.01 76.82 160.45 76.82L160.44 76.81Z" fill="#AAEEEF"/><path d="M104.69 108.53C94.1002 108.53 85.4902 99.92 85.4902 89.33C85.4902 78.74 94.1002 70.13 104.69 70.13C115.28 70.13 123.89 78.74 123.89 89.33C123.89 99.92 115.28 108.53 104.69 108.53ZM104.69 72.82C95.5902 72.82 88.1802 80.23 88.1802 89.33C88.1802 98.43 95.5902 105.84 104.69 105.84C113.79 105.84 121.2 98.43 121.2 89.33C121.2 80.23 113.79 72.82 104.69 72.82Z" fill="#00C5CA"/><path d="M77.5502 135.67C76.8102 135.67 76.2002 135.07 76.2002 134.32C76.2002 118.61 88.9802 105.83 104.69 105.83C115.04 105.83 123.85 110.72 128.86 119.24C129.24 119.88 129.02 120.71 128.38 121.08C127.74 121.46 126.91 121.24 126.54 120.6C122.03 112.92 114.07 108.52 104.7 108.52C90.4702 108.52 78.9002 120.09 78.9002 134.32C78.9002 135.06 78.3002 135.67 77.5502 135.67Z" fill="#00C5CA"/><path d="M142.55 160.62H68.5598C67.7498 160.62 67.0898 159.96 67.0898 159.15C67.0898 158.34 67.7498 157.68 68.5598 157.68H142.55C143.36 157.68 144.02 158.34 144.02 159.15C144.02 159.96 143.36 160.62 142.55 160.62Z" fill="#00C5CA"/><path d="M142.55 171.77H68.5598C67.7498 171.77 67.0898 171.11 67.0898 170.3C67.0898 169.49 67.7498 168.83 68.5598 168.83H142.55C143.36 168.83 144.02 169.49 144.02 170.3C144.02 171.11 143.36 171.77 142.55 171.77Z" fill="#00C5CA"/><path d="M172.69 155.28H172.6C158.83 155.2 150.93 152.43 148.45 146.8C146.67 142.76 148.35 138.42 150.06 135.5C134.66 135.45 126.04 129.69 125.41 123.54C125.07 120.24 127.28 115.99 134.62 114.9C146.12 113.2 169.12 115.18 178.62 116.13C174.73 108.5 172.58 95.05 175.59 88.17C177 84.96 179.48 83.19 182.6 83.19C190.43 83.19 197.53 99.9 202.1 113.91C202.64 115.57 203.77 116.93 205.29 117.76C211.34 121.05 224.12 125.66 241.73 119.58L243.04 123.36C223.98 129.94 210.02 124.88 203.39 121.27C200.97 119.96 199.17 117.78 198.31 115.15C192.85 98.43 186.53 87.19 182.61 87.18C181.66 87.18 180.28 87.45 179.27 89.76C176.27 96.6 179.68 112.42 184.09 117.19C184.66 117.8 184.78 118.71 184.4 119.45C184.02 120.2 183.21 120.63 182.39 120.53C182.06 120.49 149.09 116.78 135.22 118.84C131.47 119.39 129.19 121.07 129.4 123.11C129.8 126.99 137.87 132.3 153.91 131.37C154.73 131.33 155.48 131.77 155.83 132.5C156.18 133.23 156.06 134.1 155.51 134.7C154.02 136.37 150.5 141.5 152.13 145.16C153.84 149.02 161.13 151.18 172.65 151.24C172.68 151.24 172.72 151.24 172.75 151.24C176.09 151.24 181.81 150.32 183.36 148.85C184.45 147.82 185.06 145.93 183.52 143.73C182.12 141.73 181.67 141.74 178.71 141.84C178.36 141.85 177.99 141.87 177.59 141.88L177.49 137.88C177.87 137.88 178.23 137.86 178.57 137.85C181.81 137.74 184.15 137.65 186.8 141.44C189.61 145.46 188.48 149.52 186.12 151.76C183.11 154.62 175.34 155.24 172.72 155.24L172.69 155.28Z" fill="#0B3EE3"/><path d="M175.65 169.45C171.54 169.45 168.04 168.92 166.9 168.53C159.99 166.16 155.88 162.81 154.67 158.57C153.23 153.48 156.64 149.25 156.78 149.07L159.88 151.6C159.88 151.6 157.64 154.44 158.53 157.5C159.36 160.35 162.7 162.86 168.2 164.74C169.66 165.24 178.88 166.29 184.93 164.14C186.68 163.52 187.96 162.08 188.34 160.29C188.72 158.51 188.19 156.76 186.86 155.49C185.86 154.53 184.36 153.41 182.88 153.53L182.55 149.54C184.94 149.34 187.31 150.37 189.63 152.6C191.94 154.82 192.92 158.01 192.24 161.13C191.56 164.29 189.32 166.82 186.26 167.91C182.99 169.07 179.1 169.45 175.64 169.45H175.65Z" fill="#0B3EE3"/><path d="M215.95 173.69C196.88 173.69 186 167.87 185.36 167.52L187.28 164.01C187.49 164.13 209.01 175.52 244.52 165.52L245.6 169.37C234.25 172.56 224.31 173.68 215.94 173.68L215.95 173.69Z" fill="#0B3EE3"/><path d="M155.19 135.41C154.41 135.41 153.99 135.39 153.92 135.39L154.09 131.39C154.17 131.39 162.24 131.69 179.63 129.23L180.19 133.19C166.13 135.18 158.11 135.41 155.19 135.41Z" fill="#0B3EE3"/></g></g><defs><clipPath id="clip0_11084_62631"><rect width="240" height="240" fill="white"/></clipPath><clipPath id="clip1_11084_62631"><rect width="196.61" height="175.11" fill="white" transform="translate(49 32)"/></clipPath></defs></svg>