<svg fill="none" xmlns="http://www.w3.org/2000/svg" viewBox="0 0 240 240">
  <path
    d="m103.73 117.06 28.39-19.69c2.3-1.59 3.66-4.33 3.69-7.4l.52-56.85c.04-4.28-2.51-8.39-6.31-10.16L101.94 9.88001c-1.84-.86-3.8205-1.09-5.6705-.68L68.0095 15.53c-3.83.86-6.45 4.34-6.49 8.62l-.52 56.85c-.03 3.07 1.28 6.13 3.55 8.27l27.96 26.45c3.29 3.11 7.8905 3.66 11.2305 1.35l-.01-.01Z"
    fill="#AAEEEF"
  />
  <path
    d="m178.139 174.16-71.27-26.27c-4.97-1.83-9.8996-2.7-14.6396-2.57-9.17.24-15.28 3.56-18.15 9.87-2.07 4.56-1.33 7.86 2.27 10.08 5.54 3.41 14.62 2.48 16.23.48.88-1.09 2.26-3.77 1.9-6.91-.32-2.75-1.94-5.27-4.79-7.5l2.46-3.16c3.74 2.91 5.86 6.33 6.31 10.19.49 4.16-1.18 7.92-2.75 9.88-3.35 4.17-14.98 4.4-21.45.42-5.31-3.27-6.7-8.79-3.81-15.14 3.5-7.71 11-11.93 21.68-12.21 5.26-.14 10.6796.81 16.1196 2.82l71.27 26.27-1.38 3.75Z"
    fill="#0B3EE3"
  />
  <path
    d="m98.0496 159.45-2.24-3.32c.24-.17 6.0604-4.03 11.8304-3.77l-.19 4c-3.68-.17-8.0404 2.17-9.4004 3.09ZM76.8195 188.97c-4.15-2.1-6.77-5.1-7.8-8.92-1.97-7.36 2.92-14.96 3.12-15.28l3.35 2.19-1.67-1.09 1.68 1.09c-.04.06-4.12 6.45-2.61 12.08.72 2.66 2.65 4.8 5.73 6.37l-1.81 3.57.01-.01ZM110.499 194.72c-6.57-3.8-8.86-8.6-9.62-11.96-.83-3.65-.1-6.37-.02-6.67l3.84 1.11-1.92-.55 1.93.54c-.09.34-2.13 8.33 7.79 14.08l-2 3.46v-.01ZM91.8493 187.44l-3.33-2.22c2.4-3.6 3.28-6.79 2.61-9.46-.79-3.13-3.53-4.63-3.56-4.65l1.85-3.55c.18.09 4.31 2.28 5.57 7.15.99 3.83-.07 8.12-3.14 12.73Z"
    fill="#0B3EE3"
  />
  <path
    d="M88.4899 203.83c-1.1 0-2.18-.17-3.2-.52-3.02-1.02-8.54-3.95-11.62-12.07-.5-1.34-.35-2.8.44-4 .78-1.2 2.08-1.96 3.5-2.05l18.64-1.12h.09c1.88.06 3.64.94 4.8301 2.4 1.22 1.5 1.73 3.46 1.4 5.38-1.01 5.86-5.0201 9.99-11.2701 11.61-.94.24-1.88.37-2.81.37Zm7.8-15.75-18.44 1.11c-.21.01-.33.15-.38.23-.06.09-.12.24-.05.42 2.36 6.25 6.28 8.72 9.15 9.69 1.14.38 2.42.41 3.73.07 4.78-1.24 7.58-4.08 8.34-8.43.13-.78-.07-1.57-.56-2.17-.45-.55-1.08-.88-1.78-.92h-.01Z"
    fill="#0B3EE3"
  />
  <path
    d="M163.569 230.77c-32.54-15.25-72.9395-27.2-73.3395-27.32l1.13-3.84c.41.12 41.0895 12.15 73.9095 27.54l-1.7 3.62Z"
    fill="#0B3EE3"
  />
  <path
    d="m103.61 152.81-5.6396 2.54-4.36-6.07v-38.51h9.9996v42.04Z"
    fill="#AAEEEF"
  />
  <path
    d="M112.48 82.09c-.47 0-.93-.23-1.2-.66L82.0199 35.24c-.42-.66-.22-1.53.44-1.95.66-.42 1.53-.22 1.95.44L113.67 79.92c.42.66.22 1.53-.44 1.95-.24.15-.5.22-.76.22h.01Z"
    fill="#00C5CA"
  />
  <path
    d="M83.2101 82.09c-.26 0-.52-.07-.76-.22-.66-.42-.86-1.29-.44-1.95L111.27 33.73c.42-.66 1.29-.85 1.95-.44.66.42.86 1.29.44 1.95L84.4001 81.43c-.27.42-.73.66-1.2.66h.01Z"
    fill="#00C5CA"
  />
  <path
    d="M99.0798 111.48c-2.38 0-4.81-.96-6.77-2.81l-24.45-23.13c-2.28-2.16-3.57-5.17-3.54-8.27l.46-49.72c.04-4.43 2.76-8.01 6.78-8.91l24.72-5.54c1.93-.43 3.9602-.19 5.8602.69l24.56 11.45c3.83 1.78 6.38 5.87 6.34 10.18l-.46 49.72c-.03 3.13-1.46 5.97-3.84 7.62l-24.83 17.22c-1.45 1-3.12 1.49-4.8302 1.49v.01Zm-.92-95.75c-.43 0-.86.05-1.28.14l-24.72 5.54c-2.7.61-4.54 3.09-4.57 6.17l-.46 49.72c-.02 2.28.97 4.59 2.66 6.19l24.45 23.13c2.3801 2.25 5.69 2.68 8.0402 1.04l24.83-17.22c1.62-1.12 2.6-3.11 2.62-5.32l.46-49.72c.03-3.21-1.86-6.26-4.7-7.59l-24.56-11.45c-.91-.42-1.8502-.64-2.7702-.64v.01Z"
    fill="#00C5CA"
  />
  <path
    d="M98.3496 224.75c-2.76 0-5-2.24-5-5v-16.83l.72-.32c4.25-1.87 7.3704-5.63 8.4304-10.15l.84-1.22v28.53c0 2.76-2.24 5-5.0004 5l.01-.01Z"
    fill="#AAEEEF"
  />
</svg>
