<svg fill="none" xmlns="http://www.w3.org/2000/svg" viewBox="0 0 240 240">
  <path
    d="M76.1996 43.73 189.8 73.56c3.22.83 6.51-1.11 7.34-4.33l5.65-21.86c.83-3.22-1.11-6.51-4.33-7.34L84.8596 10.19c-3.22-.83-6.51 1.11-7.34 4.33l-5.65 21.86c-.83 3.22 1.11 6.51 4.33 7.34v.01ZM179.55 157.73v-72.6c0-2.56-2.08-4.64-4.64-4.64H65.8197c-2.56 0-4.64 2.08-4.64 4.64v71.44c0 2.56 2.08 4.64 4.64 4.64H129.69l-.55-4.65 4.67-6.35 6.64-4.86 9.01-2.33 15.19 3.55"
    fill="#AAEEEF"
  />
  <path
    d="M188.171 70.34c-.13 0-.26-.02-.39-.05L80.9709 41.46c-1.65-.44-3.03-1.49-3.88-2.97-.85-1.48-1.08-3.2-.64-4.85l2.95-10.93c.22-.8 1.03-1.27 1.84-1.06.8.22 1.27 1.04 1.06 1.84l-2.95 10.93c-.24.87-.12 1.78.34 2.57.45.78 1.18 1.34 2.06 1.57L188.561 67.38c.8.22 1.27 1.04 1.06 1.84-.18.67-.79 1.11-1.45 1.11v.01ZM131.44 155.34H71.6796c-3.08 0-5.58-2.5-5.58-5.58V89.99c0-.83.67-1.5 1.5-1.5s1.5.67 1.5 1.5v59.77c0 1.42 1.16 2.58 2.58 2.58H131.44c.83 0 1.5.67 1.5 1.5s-.67 1.5-1.5 1.5ZM64.44 56.92c-.36 0-.73-.13-1.01-.39l-23.4-21.46c-.61-.56-.65-1.51-.09-2.12.56-.61 1.51-.65 2.12-.09l23.39 21.46c.61.56.65 1.51.09 2.12-.3.32-.7.49-1.11.49l.01-.01ZM60.7404 68.7c-.07 0-.15 0-.22-.02l-33.24-4.92c-.82-.12-1.39-.88-1.26-1.7.12-.82.89-1.39 1.7-1.26l33.24 4.92c.82.12 1.39.88 1.26 1.7-.11.75-.75 1.28-1.48 1.28Z"
    fill="#00C5CA"
  />
  <path
    d="M174.141 230.45c-14.96-4.85-23.75-15.74-32.24-26.27-12.08-14.98-23.49-29.12-51.7505-29.39-.14 0-.28-.02-.42-.05-3.46-.78-9.81-4.65-9.03-13.7l3.99.34c-.62 7.24 4.68 9.11 5.75 9.41 29.9805.37 42.4905 15.88 54.5805 30.88 8.5 10.54 16.53 20.5 30.36 24.98l-1.231 3.81-.009-.01Z"
    fill="#0B3EE3"
  />
  <path
    d="M98.4708 174.84c-8.32-6.55-8.42-13.34-8.42-13.63h4-2l2-.02c0 .21.2 5.24 6.8902 10.51l-2.4702 3.14ZM211.62 193.75l-41.86-40.14c-5.14-4.93-11.67-7.68-18.4-7.76h-.32c-8.7 0-15.49 4.21-20.17 12.52-1.55 2.75-1.65 5.99-.26 8.47.89 1.58 2.13 2.54 3.81 2.92 2.99.68 8.89-.15 20.02-7.99l2.3 3.27c-10.04 7.07-17.63 9.88-23.21 8.62-2.77-.63-4.99-2.31-6.42-4.87-2.07-3.69-1.96-8.44.27-12.39 6.87-12.18 16.82-14.61 24.02-14.56 7.74.09 15.24 3.24 21.12 8.87l41.86 40.14-2.77 2.89.01.01Z"
    fill="#0B3EE3"
  />
</svg>
