<svg viewBox="0 0 240 240" fill="none" xmlns="http://www.w3.org/2000/svg"><g clip-path="url(#clip0_4934_10108)"><path d="M98.64 164.14L100.21 154.73L101.27 151.36C101.27 151.36 102.54 146.25 102.71 145.34C102.88 144.43 103.95 139.54 103.94 139.17C103.93 138.79 106.85 136.31 106.85 136.31L109.75 135.32L114.61 136.08L118.32 137.89L120.53 134.63L123.45 129.48L127.49 128.22L130.55 130.71C130.55 130.71 132.29 133.52 132.63 132.26C132.97 131 135.69 130.76 135.93 130.71C136.17 130.66 138.59 131.52 138.59 131.52L140.67 133.36L141.99 138.06L142.06 141.87L140.33 153.72L133.72 173.05H182.77C185.19 173.05 187.22 171.23 187.49 168.83L186.21 13.29C186.52 10.47 184.32 8.00999 181.49 8.00999H56.72C54.3 7.99999 52.27 9.81999 52 12.22L53.28 167.76C52.97 170.58 55.17 173.04 58 173.04H95.9L97.19 169.07L98.64 164.15V164.14Z" fill="#AAEEEF"/><g clip-path="url(#clip1_4934_10108)"><path d="M113.42 110.05C113.04 110.05 112.65 109.9 112.36 109.61C111.77 109.02 111.77 108.07 112.36 107.49L154.05 65.8C160.86 58.99 160.86 47.91 154.05 41.1C150.75 37.8 146.37 35.99 141.7 35.99C137.03 35.99 132.65 37.81 129.35 41.1L83.26 87.19C81.16 89.29 80 92.09 80 95.07C80 98.05 81.16 100.84 83.26 102.95C87.6 107.29 94.67 107.29 99.02 102.95L144.52 57.45C146.24 55.73 146.24 52.94 144.52 51.22C142.8 49.5 140.01 49.5 138.29 51.22L98.94 90.56C98.35 91.15 97.4 91.15 96.82 90.56C96.23 89.97 96.23 89.02 96.82 88.44L136.17 49.1C139.06 46.21 143.76 46.21 146.64 49.1C149.53 51.99 149.53 56.69 146.64 59.57L101.14 105.07C95.63 110.58 86.65 110.58 81.14 105.07C78.47 102.4 77 98.85 77 95.07C77 91.29 78.47 87.74 81.14 85.07L127.23 38.98C135.21 31 148.19 31 156.17 38.98C164.15 46.96 164.15 59.94 156.17 67.92L114.48 109.61C114.19 109.9 113.8 110.05 113.42 110.05Z" fill="#00C5CA"/></g><path d="M130.032 231.33L126.352 229.77C126.542 229.32 145.342 184.84 145.342 173.04H149.342C149.342 185.64 130.822 229.47 130.032 231.33Z" fill="#0B3EE3"/><path d="M135.391 173.79L131.681 172.29C136.411 160.63 142.561 140.04 138.971 134.44C138.971 134.44 137.521 132.38 136.201 132.69C135.351 132.89 130.951 135.05 127.921 158.14L123.951 157.62C126.371 139.16 129.991 129.99 135.321 128.78C138.581 128.04 141.261 130.62 142.331 132.26C148.231 141.45 136.721 170.51 135.391 173.79Z" fill="#0B3EE3"/><path d="M114.65 158.29L110.74 157.47C116.45 130.3 122.09 126.64 125.84 126.25C130.89 125.72 133.79 132 134.11 132.72L130.45 134.34C129.82 132.92 127.97 130.06 126.25 130.24C124.88 130.39 120 132.84 114.65 158.31V158.29Z" fill="#0B3EE3"/><path d="M77.4707 218.92L73.9707 216.98C85.1507 196.8 97.8107 168.05 99.8407 147.87C100.671 139.6 103.141 134.64 107.191 133.11C112.631 131.05 118.321 136.24 118.561 136.46L115.841 139.4C114.701 138.36 111.181 135.87 108.591 136.85C106.161 137.78 104.461 141.83 103.821 148.27C101.731 169.05 88.8307 198.39 77.4707 218.92Z" fill="#0B3EE3"/></g><defs><clipPath id="clip0_4934_10108"><rect width="135.48" height="223.33" fill="white" transform="translate(52 8)"/></clipPath><clipPath id="clip1_4934_10108"><rect width="85.15" height="77.05" fill="white" transform="translate(77 33)"/></clipPath></defs></svg>