<svg viewBox="0 0 240 240" fill="none" xmlns="http://www.w3.org/2000/svg"><g clip-path="url(#clip0_11084_65573)"><g clip-path="url(#clip1_11084_65573)"><path d="M146.44 118.44L166.6 90.39C168.23 88.12 168.6 85.09 167.6 82.18L149.06 28.43C147.66 24.38 143.89 21.37 139.71 20.97L108.86 18.04C106.84 17.85 104.9 18.29 103.29 19.3L78.7799 34.73C75.4599 36.82 74.1599 40.98 75.5499 45.02L94.0899 98.77C95.0899 101.67 97.3499 104.11 100.2 105.37L135.4 120.93C139.54 122.76 144.06 121.74 146.43 118.44H146.44Z" fill="#AAEEEF"/><path d="M139.44 177.28C138.23 177.28 137.05 177.17 135.95 176.93C129.85 175.63 126.7 170.9 127.29 163.94C128.01 155.51 133.66 149.02 143.63 145.17C148.53 143.28 153.96 142.36 159.77 142.42L240.2 143.36L240.15 147.36L159.72 146.42C154.42 146.35 149.49 147.19 145.07 148.9C136.51 152.2 131.86 157.37 131.28 164.27C130.85 169.26 132.66 172.12 136.79 173C143.14 174.36 151.4 170.44 152.24 168.02C152.7 166.7 153.11 163.71 151.71 160.88C150.48 158.4 148.12 156.56 144.68 155.42L145.94 151.62C150.43 153.11 153.58 155.63 155.3 159.11C157.15 162.86 156.84 166.97 156.01 169.34C154.51 173.65 146.4 177.26 139.44 177.26V177.28Z" fill="#0B3EE3"/><path d="M155.27 160.29L152.05 157.91C152.23 157.67 156.41 152.07 161.93 150.39L163.09 154.22C158.85 155.51 155.3 160.24 155.26 160.29H155.27Z" fill="#0B3EE3"/><path d="M145.16 195.21C140.55 194.62 137.07 192.67 134.83 189.42C130.51 183.14 132.57 174.35 132.66 173.97L136.55 174.91C136.53 174.98 134.83 182.37 138.14 187.16C139.71 189.43 142.24 190.8 145.68 191.24L145.17 195.21H145.16Z" fill="#0B3EE3"/><path d="M178.81 189.35C171.35 187.97 167.59 184.21 165.74 181.3C163.73 178.14 163.51 175.33 163.49 175.02L167.48 174.77L165.48 174.89L167.48 174.75C167.51 175.1 168.26 183.31 179.54 185.41L178.81 189.34V189.35Z" fill="#0B3EE3"/><path d="M158.8 188.73L154.92 187.75C155.98 183.55 155.74 180.26 154.21 177.96C152.42 175.27 149.33 174.78 149.3 174.77L149.85 170.81C150.05 170.84 154.68 171.51 157.49 175.68C159.71 178.96 160.15 183.35 158.79 188.73H158.8Z" fill="#0B3EE3"/><path d="M157.69 205.89C154.44 205.89 148.42 204.87 142.94 198.41C142.02 197.32 141.68 195.89 142.01 194.49C142.34 193.1 143.32 191.94 144.62 191.39L161.9 184.06C163.69 183.49 165.64 183.72 167.25 184.7C168.9 185.7 170.04 187.38 170.37 189.3C171.38 195.16 168.99 200.39 163.64 204.02C161.88 205.21 159.9 205.86 157.92 205.89C157.84 205.89 157.76 205.89 157.68 205.89H157.69ZM163.2 187.85L146.19 195.07C146 195.15 145.93 195.32 145.91 195.42C145.88 195.53 145.88 195.69 146 195.83C150.32 200.93 154.82 201.93 157.87 201.9C159.07 201.88 160.29 201.47 161.4 200.72C165.49 197.95 167.18 194.34 166.44 189.99C166.31 189.21 165.85 188.54 165.19 188.13C164.58 187.76 163.88 187.67 163.21 187.86L163.2 187.85Z" fill="#0B3EE3"/><path d="M239.97 204.57C204.23 201.09 163.09 204.32 162.68 204.35L162.36 200.36C162.78 200.33 204.26 197.07 240.36 200.58L239.97 204.56V204.57Z" fill="#0B3EE3"/><path d="M158.28 152.17L153.82 156.45L147.68 152.19L134.78 115.9L144.21 112.55L158.28 152.17Z" fill="#AAEEEF"/><path d="M142.49 82.64C142.19 82.64 141.88 82.54 141.62 82.34L98.5803 48.61C97.9703 48.13 97.8603 47.24 98.3403 46.63C98.8203 46.02 99.7103 45.91 100.32 46.39L143.36 80.12C143.97 80.6 144.08 81.49 143.6 82.1C143.32 82.46 142.91 82.64 142.49 82.64Z" fill="#00C5CA"/><path d="M114.92 92.44C114.82 92.44 114.71 92.43 114.61 92.4C113.85 92.23 113.37 91.47 113.54 90.71L125.65 37.39C125.82 36.63 126.58 36.15 127.34 36.32C128.1 36.49 128.58 37.25 128.41 38.01L116.3 91.33C116.15 91.99 115.57 92.43 114.92 92.43V92.44Z" fill="#00C5CA"/><path d="M137.06 115.27C135.67 115.27 134.24 114.98 132.86 114.36L102.07 100.75C99.1996 99.48 96.9696 97.07 95.9596 94.14L79.7496 47.14C78.2996 42.95 79.6696 38.67 83.1496 36.48L104.59 22.99C106.27 21.93 108.26 21.48 110.35 21.68L137.33 24.24C141.54 24.64 145.3 27.64 146.71 31.71L162.92 78.71C163.94 81.66 163.54 84.83 161.86 87.17L144.23 111.7C142.57 114.01 139.92 115.25 137.07 115.25L137.06 115.27ZM109.4 24.46C108.19 24.46 107.06 24.77 106.1 25.38L84.6596 38.87C82.3196 40.35 81.4196 43.3 82.4196 46.22L98.6296 93.22C99.3796 95.38 101.09 97.22 103.21 98.16L134 111.77C137 113.09 140.25 112.39 141.93 110.06L159.56 85.53C160.71 83.93 160.97 81.73 160.25 79.64L144.04 32.64C142.99 29.6 140.19 27.36 137.07 27.06L110.09 24.5C109.86 24.48 109.63 24.47 109.41 24.47L109.4 24.46Z" fill="#00C5CA"/><path d="M177.42 221.71C174.82 222.63 171.96 221.27 171.03 218.67L165.39 202.81L165.96 202.27C169.34 199.08 171.02 194.49 170.51 189.88L170.9 188.45L180.45 215.33C181.37 217.93 180.01 220.79 177.41 221.72L177.42 221.71Z" fill="#AAEEEF"/></g></g><defs><clipPath id="clip0_11084_65573"><rect width="240" height="240" fill="white"/></clipPath><clipPath id="clip1_11084_65573"><rect width="165.36" height="204" fill="white" transform="translate(75 18)"/></clipPath></defs></svg>