<svg viewBox="0 0 240 240" fill="none" xmlns="http://www.w3.org/2000/svg"><g clip-path="url(#clip0_11084_65514)"><g clip-path="url(#clip1_11084_65514)"><path d="M198.06 119.75L198.89 126.26L196.56 131.24L192.25 133.5L183.14 132.23L176.33 125.74L174.41 118.15C174.41 118.15 169.22 115.94 168.85 115.97C168.48 116.01 167.51 111.35 167.51 111.35C167.51 111.35 167.33 105.88 167.07 105.62C166.81 105.36 161.15 110.35 161.15 110.35L151.83 116.48L141.98 119.3L137.51 115.88L137.66 111.07L143.13 105L154.24 96.62L165.73 89.37L162.7 84.89L162.04 81.66H92.0805C92.0805 94.01 82.0705 104.03 69.7105 104.03C65.8205 104.03 62.1705 103.04 58.9805 101.29V178.55C58.9805 182.98 62.5705 186.58 67.0105 186.58H208.15C212.58 186.58 216.18 182.99 216.18 178.55V118.82L198.06 119.75Z" fill="#AAEEEF"/><path d="M69.0998 90.38C68.6998 90.38 68.3098 90.22 68.0298 89.93L49.4298 70.95C48.8498 70.36 48.8598 69.41 49.4498 68.83C50.0398 68.25 50.9898 68.26 51.5698 68.85L69.0698 86.7L100.02 53.48C100.59 52.87 101.53 52.84 102.14 53.4C102.75 53.96 102.78 54.91 102.22 55.52L70.1998 89.9C69.9198 90.2 69.5298 90.37 69.1198 90.38H69.0998Z" fill="#00C5CA"/><path d="M104.41 147.86C96.0502 147.86 89.2402 141.06 89.2402 132.69C89.2402 124.32 96.0402 117.52 104.41 117.52C112.78 117.52 119.58 124.32 119.58 132.69C119.58 141.06 112.78 147.86 104.41 147.86ZM104.41 120.53C97.7002 120.53 92.2402 125.99 92.2402 132.7C92.2402 139.41 97.7002 144.87 104.41 144.87C111.12 144.87 116.58 139.41 116.58 132.7C116.58 125.99 111.12 120.53 104.41 120.53Z" fill="#00C5CA"/><path d="M124.25 167.79C123.42 167.79 122.75 167.12 122.75 166.29C122.75 156.18 114.52 147.95 104.41 147.95C94.3003 147.95 86.0703 156.18 86.0703 166.29C86.0703 167.12 85.4003 167.79 84.5703 167.79C83.7403 167.79 83.0703 167.12 83.0703 166.29C83.0703 154.52 92.6403 144.95 104.41 144.95C116.18 144.95 125.75 154.52 125.75 166.29C125.75 167.12 125.08 167.79 124.25 167.79Z" fill="#00C5CA"/><path d="M175.44 126.27H132.91C132.08 126.27 131.41 125.6 131.41 124.77C131.41 123.94 132.08 123.27 132.91 123.27H175.44C176.27 123.27 176.94 123.94 176.94 124.77C176.94 125.6 176.27 126.27 175.44 126.27Z" fill="#00C5CA"/><path d="M181.63 138.29H132.92C132.09 138.29 131.42 137.62 131.42 136.79C131.42 135.96 132.09 135.29 132.92 135.29H181.63C182.46 135.29 183.13 135.96 183.13 136.79C183.13 137.62 182.46 138.29 181.63 138.29Z" fill="#00C5CA"/><path d="M142.39 121.02C139.9 121.02 137.58 119.78 136.2 117.6C134.5 114.94 134.66 111.59 136.6 109.08C148.1 94.15 178.69 81.41 179.99 80.88L180.26 80.79C222.46 70.09 241.85 59.21 242.04 59.1L244.02 62.57C243.23 63.02 224.1 73.79 181.38 84.63C179.2 85.55 150.25 97.91 139.76 111.52C138.67 112.93 138.95 114.48 139.57 115.45C140.19 116.42 141.46 117.31 143.18 116.93C152.16 114.93 165.18 108.98 176.2 91.98L179.56 94.15C167.81 112.28 153.77 118.67 144.06 120.83C143.5 120.95 142.95 121.01 142.4 121.01L142.39 121.02Z" fill="#0B3EE3"/><path d="M172.6 120.11C169.72 119.54 167.61 118.12 166.35 115.89C163.78 111.37 165.91 105.21 166.01 104.95L169.78 106.29L167.9 105.62L169.79 106.28C169.33 107.58 168.46 111.49 169.85 113.92C170.52 115.1 171.68 115.84 173.4 116.18L172.62 120.1L172.6 120.11Z" fill="#0B3EE3"/><path d="M190.521 136.08C186.271 136.08 181.291 134.05 176.631 129.19C172.961 125.36 171.471 121.36 172.191 117.28C173.661 109 183.981 103.86 184.421 103.65L186.181 107.24C186.091 107.28 177.241 111.71 176.131 117.99C175.651 120.73 176.791 123.57 179.521 126.42C185.541 132.7 192.091 133.21 195.201 130.49C197.751 128.26 197.401 124.29 194.281 120.39L197.411 117.9C202.601 124.4 201.361 130.42 197.831 133.51C195.961 135.14 193.411 136.09 190.521 136.09V136.08Z" fill="#0B3EE3"/><path d="M198.18 121.76C192.14 121.76 188.18 121.31 187.66 121.25L188.13 117.28C188.55 117.33 230.7 122.02 257.11 98.74L259.75 101.74C240.05 119.11 212.92 121.76 198.17 121.76H198.18Z" fill="#0B3EE3"/><path d="M165.651 90.76C165.001 90.3 159.331 86.14 159.631 81.22C159.781 78.72 161.351 76.65 164.301 75.06C173.731 69.98 204.281 73.21 205.571 73.35L205.141 77.33C196.661 76.41 173.121 74.85 166.201 78.58C164.551 79.47 163.691 80.44 163.621 81.46C163.491 83.61 166.491 86.45 167.961 87.49L165.651 90.76Z" fill="#0B3EE3"/></g></g><defs><clipPath id="clip0_11084_65514"><rect width="240" height="240" fill="white"/></clipPath><clipPath id="clip1_11084_65514"><rect width="210.76" height="133.58" fill="white" transform="translate(49 53)"/></clipPath></defs></svg>