<svg viewBox="0 0 240 240" fill="none" xmlns="http://www.w3.org/2000/svg"><g clip-path="url(#clip0_11084_62773)"><g clip-path="url(#clip1_11084_62773)"><path d="M240.651 198.833C239.26 198.948 206.075 201.433 172.158 181.75C160.009 174.701 152.983 165.878 151.29 155.54C149.763 146.246 153.193 141.652 156.329 139.438C163.25 134.562 172.252 134.551 178.212 139.407C183.23 143.49 184.516 149.849 181.652 156.427L177.815 154.767C179.916 149.932 179.101 145.515 175.577 142.644C171.761 139.542 164.756 138.624 158.744 142.853C155.597 145.077 154.479 149.118 155.419 154.861C156.904 163.914 163.25 171.746 174.27 178.137C207.068 197.173 239.992 194.698 240.316 194.667L240.661 198.833H240.651Z" fill="#0B3EE3"/><path d="M178.274 167.047C175.054 167.872 170.192 167.809 164.17 163.685L166.533 160.239C170.642 163.048 174.406 163.935 177.751 162.849C178.86 162.494 179.654 161.617 179.926 160.437C180.229 159.142 179.832 157.764 178.891 156.845C173.088 151.175 168.122 148.815 164.578 150.016C159.789 151.634 157.635 159.56 157.207 162.473L153.066 161.878C153.14 161.346 155.032 148.836 163.229 146.058C168.446 144.294 174.709 146.904 181.818 153.848C183.805 155.79 184.641 158.672 184.004 161.387C183.397 163.988 181.536 166.013 179.037 166.817C178.797 166.89 178.546 166.974 178.284 167.037L178.274 167.047Z" fill="#0B3EE3"/><path d="M239.207 150.862C218.809 156.093 195.285 141.025 193.581 140.378C192.608 140.002 192.065 138.968 192.295 137.955C194.229 129.685 191.772 121.321 190.141 117.061C189.597 115.651 188.102 114.815 186.586 115.077C185.405 115.275 184.432 116.11 184.066 117.228C182.383 122.47 180.188 132.807 180.167 132.912C179.958 133.883 179.1 134.572 178.107 134.572C174.092 134.541 157.322 127.973 143.96 122.459C141.827 121.582 139.517 121.373 137.258 121.853C135.272 122.282 133.86 123.973 133.787 125.978C133.735 127.273 134.247 128.516 135.188 129.372C140.907 134.603 155.691 141.861 155.837 141.934L153.997 145.682C153.37 145.38 138.523 138.091 132.365 132.442C130.525 130.75 129.521 128.338 129.615 125.811C129.762 121.885 132.564 118.575 136.401 117.76C139.485 117.102 142.653 117.395 145.57 118.596C163.093 125.822 172.67 129.184 176.518 130.113C177.25 126.803 178.797 120.037 180.104 115.954C180.94 113.343 183.178 111.422 185.896 110.952C189.378 110.357 192.807 112.288 194.062 115.557C195.745 119.953 198.212 128.359 196.738 137.078C204.893 140.023 228.209 153.441 242.898 144.952L244.989 148.564C243.275 149.556 241.319 150.308 239.197 150.851L239.207 150.862Z" fill="#0B3EE3"/><path d="M90.6694 45.3334L98.4586 61.1011C99.5878 63.3879 101.783 64.9855 104.314 65.351L121.732 67.878C128.11 68.8074 130.661 76.6285 126.04 81.1186L113.441 93.3882C111.611 95.1738 110.775 97.7425 111.204 100.259L114.183 117.583C115.271 123.921 108.611 128.766 102.902 125.769L87.3237 117.593C85.0549 116.403 82.3575 116.403 80.0887 117.593L64.5104 125.769C58.8018 128.766 52.1418 123.931 53.2291 117.583L56.2089 100.259C56.6375 97.7425 55.8011 95.1738 53.9715 93.3882L41.3729 81.1186C36.7621 76.6285 39.3027 68.7969 45.6804 67.878L63.0989 65.351C65.6291 64.9855 67.8247 63.3983 68.9538 61.1011L76.743 45.3334C79.5973 39.5589 87.836 39.5589 90.6903 45.3334H90.6694Z" fill="#AAEEEF"/><path d="M60.0147 93.0645C59.6906 93.0645 59.356 92.9392 59.1051 92.699L49.0994 82.9565C47.0501 80.962 46.3183 78.0278 47.207 75.3024C48.0957 72.577 50.4063 70.6348 53.2397 70.2171L67.072 68.2122C68.6612 67.9825 70.0308 66.9905 70.7418 65.5494L76.9208 53.0398C78.1859 50.471 80.7579 48.8734 83.6227 48.8734C86.4874 48.8734 89.0594 50.471 90.3245 53.0398L96.5035 65.5494C96.8172 66.1969 96.5558 66.9696 95.918 67.2933C95.2698 67.6065 94.4961 67.3455 94.172 66.6981L87.9929 54.1884C87.1565 52.4863 85.5255 51.4734 83.6227 51.4734C81.7302 51.4734 80.0992 52.4863 79.2523 54.1884L73.0733 66.6981C71.9859 68.9014 69.8844 70.4259 67.4484 70.781L53.6161 72.7859C51.7446 73.0573 50.2704 74.3 49.6849 76.096C49.0994 77.8921 49.5594 79.7612 50.9186 81.0873L60.9243 90.8299C61.4366 91.3311 61.447 92.156 60.9452 92.6677C60.6943 92.9287 60.3492 93.0645 60.0147 93.0645Z" fill="#00C5CA"/></g></g><defs><clipPath id="clip0_11084_62773"><rect width="240" height="240" fill="white"/></clipPath><clipPath id="clip1_11084_62773"><rect width="206" height="158" fill="white" transform="translate(39 41)"/></clipPath></defs></svg>