<svg viewBox="0 0 240 240" fill="none" xmlns="http://www.w3.org/2000/svg"><g clip-path="url(#clip0_26536_26459)"><path d="M104.134 38C103.734 40.2291 104.261 43.1719 105.723 43.5C112.204 44.9563 118.691 46.1097 123.804 49.9268C131.057 55.3429 133.915 64.3293 135.885 73.2539C136.268 74.992 140.622 75.4244 143 74.5566V105C143 109.971 138.971 114 134 114H35C30.0294 114 26 109.971 26 105V47C26 42.0294 30.0294 38 35 38H104.134Z" fill="#AAEEEF"/><path d="M220.459 181.2C220.349 181.07 209.479 167.99 196.869 154.52C176.029 132.26 166.679 126.09 162.509 124.83C157.209 123.24 153.259 124.12 151.369 127.34C149.409 130.69 150.239 135.41 152.289 137.4C152.949 138.03 153.089 139.03 152.639 139.82C152.189 140.61 151.259 141 150.379 140.76C150.199 140.71 131.839 135.79 121.369 135.13C120.319 135.06 119.309 135.42 118.519 136.12C117.709 136.84 117.239 137.84 117.199 138.93C117.109 141 118.589 142.76 120.629 143.04C130.469 144.37 143.089 146.49 147.379 149.07L145.319 152.5C142.479 150.79 133.289 148.79 120.099 147.01C115.989 146.46 113.019 142.91 113.199 138.76C113.299 136.59 114.239 134.6 115.849 133.15C117.439 131.72 119.489 131.01 121.619 131.14C129.289 131.62 140.589 134.19 146.849 135.73C145.829 132.36 146.129 128.36 147.919 125.31C149.279 123 153.529 117.94 163.659 121C179.529 125.78 221.749 176.48 223.539 178.64L220.459 181.19V181.2Z" fill="#0B3EE3"/><path d="M140.22 166.97C137.92 165.24 129.32 163.98 117.23 163.6C111.39 163.42 106.76 158.51 106.91 152.66C107.02 148.18 109.95 144.22 114.19 142.79L116.3 142.08L117.57 145.87L115.46 146.58C112.8 147.47 110.97 149.95 110.91 152.75C110.82 156.41 113.71 159.48 117.36 159.6C131.01 160.03 139.52 161.43 142.63 163.77L140.23 166.97H140.22Z" fill="#0B3EE3"/><path d="M180.31 226.14C163.32 201.02 141.31 185.01 114.89 178.54L114.39 178.42C111.54 177.72 109.24 175.65 108.24 172.89C107.2 170.03 107.74 166.77 109.64 164.39L112.93 160.29L116.05 162.79L112.76 166.89C111.72 168.19 111.43 169.96 112 171.53C112.55 173.04 113.8 174.16 115.35 174.55L115.85 174.67C143.26 181.38 166.07 197.95 183.63 223.92L180.32 226.16L180.31 226.14Z" fill="#0B3EE3"/><path d="M160.153 143.719L157.568 146.772L165.589 153.564L168.174 150.512L160.153 143.719Z" fill="#0B3EE3"/><path d="M168.409 172.4C162.399 161.98 166.229 144.81 166.399 144.08L170.299 144.97C170.259 145.13 166.649 161.34 171.879 170.39L168.419 172.39L168.409 172.4Z" fill="#0B3EE3"/><path d="M147.883 144.507L135.309 171.734L138.94 173.411L151.515 146.184L147.883 144.507Z" fill="#0B3EE3"/><path d="M104 41C104.016 41.7607 104.28 42.5114 104.79 43H36C33.2386 43 31 45.2386 31 48V104C31 106.761 33.2386 109 36 109H133C135.761 109 138 106.761 138 104V74.7471C138.612 74.897 139.303 74.9762 140 74.9883V104L139.991 104.36C139.804 108.059 136.745 111 133 111H36C32.2549 111 29.1963 108.059 29.0088 104.36L29 104V48C29 44.2549 31.9411 41.1963 35.6396 41.0088L36 41H104Z" fill="#00C5CA"/><path d="M169.4 37.9992C171.544 38.4829 171.529 41.5904 169.379 42.0487C153.28 45.9487 146.718 50.5311 142.312 67.1603C142.027 68.2332 141.765 69.3133 141.517 70.3961C141.027 72.5435 138.014 72.5308 137.54 70.3806C135.715 62.1027 133.068 53.767 126.348 48.7432C121.611 45.2028 115.601 43.3924 109.596 42.0416C107.47 41.5636 107.467 38.4815 109.592 37.9992C116.004 36.5442 122.433 34.6012 127.339 30.5264C133.29 25.5845 135.793 17.5166 137.543 9.62217C138.022 7.4621 141.052 7.45787 141.526 9.61794C143.383 18.0989 146.138 26.6067 153.201 31.6332C157.841 34.934 163.613 36.6936 169.401 37.9978L169.4 37.9992Z" fill="#00C5CA"/><path d="M187.162 74.4684C188.285 74.7177 188.277 76.3201 187.151 76.5564C178.718 78.5673 175.281 80.9301 172.973 89.5045C172.824 90.0578 172.686 90.6147 172.557 91.173C172.3 92.2803 170.721 92.2737 170.473 91.165C169.517 86.8967 168.131 82.5986 164.611 80.0082C162.129 78.1827 158.982 77.2492 155.836 76.5527C154.722 76.3063 154.721 74.717 155.834 74.4684C159.193 73.7181 162.56 72.7163 165.13 70.6152C168.247 68.067 169.558 63.907 170.475 59.8364C170.726 58.7226 172.313 58.7205 172.561 59.8343C173.534 64.2073 174.977 68.5941 178.677 71.1859C181.107 72.8878 184.131 73.7951 187.163 74.4676L187.162 74.4684Z" fill="#00C5CA"/><path d="M49.6851 90.5326C44.7159 90.5326 40.668 86.4906 40.668 81.5154C40.668 76.5403 44.7099 72.4983 49.6851 72.4983C54.6603 72.4983 58.7023 76.5403 58.7023 81.5154C58.7023 86.4906 54.6603 90.5326 49.6851 90.5326ZM49.6851 74.2875C45.6966 74.2875 42.4512 77.5329 42.4512 81.5214C42.4512 85.5098 45.6966 88.7553 49.6851 88.7553C53.6736 88.7553 56.919 85.5098 56.919 81.5214C56.919 77.5329 53.6736 74.2875 49.6851 74.2875Z" fill="#00C5CA"/><path d="M61.4776 102.379C60.9843 102.379 60.586 101.981 60.586 101.487C60.586 95.478 55.6941 90.5861 49.6846 90.5861C43.6752 90.5861 38.7832 95.478 38.7832 101.487C38.7832 101.981 38.385 102.379 37.8916 102.379C37.3983 102.379 37 101.981 37 101.487C37 94.4913 42.6885 88.8029 49.6846 88.8029C56.6808 88.8029 62.3693 94.4913 62.3693 101.487C62.3693 101.981 61.971 102.379 61.4776 102.379Z" fill="#00C5CA"/><path d="M85.9195 54.1608H41.5589C40.4117 54.1608 39.4785 53.2276 39.4785 52.0804C39.4785 50.9332 40.4117 50 41.5589 50H85.9195C87.0667 50 87.9999 50.9332 87.9999 52.0804C87.9999 53.2276 87.0667 54.1608 85.9195 54.1608Z" fill="#00C5CA"/><path d="M66.3338 61.1571H41.5589C40.4117 61.1571 39.4785 60.2238 39.4785 59.0766C39.4785 57.9294 40.4117 56.9962 41.5589 56.9962H66.3278C67.475 56.9962 68.4083 57.9294 68.4083 59.0766C68.4083 60.2238 67.475 61.1571 66.3278 61.1571H66.3338Z" fill="#00C5CA"/></g><defs><clipPath id="clip0_26536_26459"><rect width="240" height="240" fill="white"/></clipPath></defs></svg>