<svg fill="none" xmlns="http://www.w3.org/2000/svg" viewBox="0 0 240 240">
  <path
    d="m141.77 150.53-6.78-5.15-5.25-8.14-4.4-2.54-2.43-3.7.41-5.76 1.29-4.15-10.77 8.77-12.07 5.45-6.83.88-2.61-4.45 3.59-7.1 10.84-8.99 13.26-8.03-2.57-6.63 3.1-7.02 14.34-2.62h10.44V38.46c0-3.02-2.44-5.46-5.46-5.46H26.46C23.44 33 21 35.44 21 38.46V201c0 3.02 2.44 5.46 5.46 5.46h113.42c3.02 0 5.46-2.44 5.46-5.46v-50.47h-3.57Z"
    fill="#AAEEEF"
  />
  <path
    d="M83.1695 98.1c-11.8 0-21.4-9.6-21.4-21.4 0-11.8 9.6-21.4 21.4-21.4 11.8 0 21.4005 9.6 21.4005 21.4 0 11.8-9.6005 21.4-21.4005 21.4Zm0-39.79c-10.14 0-18.4 8.25-18.4 18.4 0 10.15 8.25 18.4 18.4 18.4 10.15 0 18.4005-8.25 18.4005-18.4 0-10.15-8.2505-18.4-18.4005-18.4Z"
    fill="#00C5CA"
  />
  <path
    d="M52.9199 128.34c-.83 0-1.5-.67-1.5-1.5 0-17.5 14.24-31.75 31.75-31.75 11.53 0 21.3501 5.44 26.9301 14.94.42.71.18 1.63-.53 2.05-.72.42-1.63.18-2.05-.53-5.02-8.55-13.9001-13.46-24.3401-13.46-15.85 0-28.75 12.9-28.75 28.75 0 .83-.67 1.5-1.5 1.5h-.01Z"
    fill="#00C5CA"
  />
  <path
    d="M97.6999 138.17c-2.49 0-4.81-1.24-6.19-3.42-1.69-2.66-1.54-6.01.4-8.52C103.41 111.3 134 98.56 135.3 98.03l.27-.09c42.2-10.7 61.59-21.58 61.78-21.69l1.98 3.47c-.79.45-19.92 11.22-62.63 22.06-2.18.92-31.13 13.28-41.6201 26.89-1.09 1.41-.81 2.96-.19 3.93.61.96 1.88 1.86 3.61 1.48 8.9801-2 22.0001-7.96 33.0201-24.95l3.36 2.17c-11.75 18.13-25.79 24.51-35.5001 26.68-.56.12-1.11.18-1.66.18l-.02.01Z"
    fill="#0B3EE3"
  />
  <path
    d="M127.91 137.26c-2.88-.57-4.99-1.99-6.25-4.22-2.57-4.52-.44-10.68-.34-10.94l3.77 1.34-1.88-.67 1.89.66c-.46 1.3-1.33 5.21.06 7.64.68 1.18 1.84 1.92 3.55 2.26l-.78 3.92-.02.01Z"
    fill="#0B3EE3"
  />
  <path
    d="M145.83 153.23c-4.25 0-9.23-2.03-13.89-6.89-3.67-3.83-5.16-7.83-4.44-11.91 1.47-8.28 11.79-13.42 12.23-13.63l1.76 3.59c-.09.04-8.94 4.47-10.05 10.75-.48 2.74.66 5.58 3.39 8.43 6.02 6.28 12.57 6.79 15.68 4.07 2.55-2.23 2.19-6.2-.92-10.1l3.13-2.49c5.19 6.5 3.95 12.52.42 15.61-1.87 1.64-4.42 2.58-7.31 2.58v-.01Z"
    fill="#0B3EE3"
  />
  <path
    d="M154.04 138.88c-6.55 0-10.76-.44-11.05-.48l.43-3.98c.47.05 46.78 4.75 73.2-18.54l2.65 3c-8.03 7.08-23.01 16.14-48.75 19.07-6.27.71-11.94.93-16.48.93Zm-33.08-30.97c-.65-.46-6.32-4.62-6.02-9.54.15-2.5 1.72-4.57 4.67-6.16 9.43-5.08 39.97-1.85 41.27-1.71l-.43 3.98c-8.48-.92-32.02-2.48-38.94 1.25-1.64.89-2.51 1.86-2.57 2.88-.14 2.3 3.17 5.21 4.34 6.04l-2.31 3.26h-.01Z"
    fill="#0B3EE3"
  />
  <path
    d="M125.35 156.14H42.9095c-.91 0-1.64-.73-1.64-1.64 0-.91.73-1.64 1.64-1.64H125.35c.91 0 1.64.73 1.64 1.64 0 .91-.73 1.64-1.64 1.64Zm0 12.43H42.9095c-.91 0-1.64-.73-1.64-1.64 0-.91.73-1.64 1.64-1.64H125.35c.91 0 1.64.73 1.64 1.64 0 .91-.73 1.64-1.64 1.64Z"
    fill="#00C5CA"
  />
</svg>
