<svg fill="none" xmlns="http://www.w3.org/2000/svg" viewBox="0 0 240 240">
  <path
    d="M39 154.112v12.835c0 4.999 4.0756 9.053 9.1017 9.053H178.898c5.026 0 9.102-4.054 9.102-9.053v-7.18c0-.332-9.795-15.126-15.695-15.867-5.899-.741-13.622-3.015-13.622-3.015-8.836-3.322-.36-10.774-.36-10.774l2.329-.366c-9.512-.707-10.411-9.761-10.411-9.761l4.435-2.512-1.207-2.445-.574-2.41-.06-2.018 1.181-.835s3.545-1.082 4.102-1.133c.556-.051 5.154.579 5.154.579l6.619.835s9.761 2.785 9.958 2.845c.197.059 8.134 4.011 8.134 4.011V81.0535c0-4.9995-4.076-9.0535-9.102-9.0535H48.1017C43.0756 72 39 76.054 39 81.0535v73.0585Z"
    fill="#AAEEEF"
  />
  <path
    d="M230.222 149.517c-12.478-16.788-34.916-43.426-42.044-43.426v-3.438c11.193 0 41.406 40.228 44.815 44.818l-2.771 2.046ZM174.87 124.477c-15.931-2.08-23.844-5.192-24.888-9.773-.639-2.802 1.588-5.106 3.003-6.026 7.939-5.063 33.009 4.822 35.84 5.966l-1.295 3.189c-10.062-4.066-27.831-9.361-32.664-6.267 0 0-1.778 1.238-1.51 2.381.172.731 2.037 4.513 21.971 7.118l-.448 3.412h-.009Z"
    fill="#0B3EE3"
  />
  <path
    d="M174.74 135.841c-23.447-4.908-26.606-9.756-26.942-12.98-.449-4.332 4.962-6.833 5.583-7.109l1.398 3.147c-1.225.541-3.702 2.14-3.538 3.61.13 1.177 2.244 5.372 24.224 9.971l-.707 3.361h-.018Z"
    fill="#0B3EE3"
  />
  <path
    d="M206.084 185c-2.097-2.888-4.151-5.905-6.326-9.103-9.82-14.432-19.978-29.363-33.293-30.695-7.137-.714-11.418-2.837-12.738-6.318-1.778-4.676 2.701-9.567 2.891-9.774l2.537 2.338-1.269-1.169 1.269 1.161c-.897.98-3.046 4.005-2.201 6.232.803 2.088 4.298 3.55 9.856 4.1 14.921 1.496 25.535 17.097 35.805 32.191 2.157 3.172 4.194 6.172 6.265 9.017l-2.796 2.011V185Z"
    fill="#0B3EE3"
  />
  <path
    fill-rule="evenodd"
    clip-rule="evenodd"
    d="M41.5 84c0-5.2467 4.2533-9.5 9.5-9.5h125c5.247 0 9.5 4.2533 9.5 9.5v30.241h-3V84c0-3.5899-2.91-6.5-6.5-6.5H51c-3.5898 0-6.5 2.9102-6.5 6.5v80c0 3.59 2.9101 6.5 6.5 6.5h125c3.59 0 6.5-2.91 6.5-6.5v-10.324h3V164c0 5.247-4.253 9.5-9.5 9.5H51c-5.2467 0-9.5-4.253-9.5-9.5V84Z"
    fill="#00C5CA"
  />
  <path
    fill-rule="evenodd"
    clip-rule="evenodd"
    d="M108.556 120.967 44.1992 80.2678l1.6035-2.5356 64.3563 40.6998c2.82 1.783 6.422 1.752 9.211-.08l61.807-40.6057 1.648 2.5074-61.808 40.6053c-3.773 2.478-8.646 2.521-12.461.108Z"
    fill="#00C5CA"
  />
  <circle cx="47" cy="75" r="22" fill="#00C5CA" />
  <path
    d="M45.9432 83.432V65.256l1.184.896-4.416 2.336-.928-3.008 5.984-3.2h1.664v21.152h-3.488ZM42.3912 85v-3.328h10.688V85h-10.688Z"
    fill="#AAEEEF"
  />
</svg>
