<svg fill="none" xmlns="http://www.w3.org/2000/svg" viewBox="0 0 240 240">
  <path
    d="M93.3604 126.53c-.71 0-1.44-.15-2.13-.48-2.5-1.18-3.57-4.16-2.39-6.66L132.94 25.87c1.18-2.5 4.16-3.57 6.66-2.39 2.5 1.18 3.57 4.16 2.39 6.66l-44.1096 93.53c-.85 1.81-2.65 2.87-4.53 2.87l.01-.01Z"
    fill="#AAEEEF"
  />
  <path
    d="M152.65 156.79c-25.22 0-35.15-10.21-35.61-10.69l-.13-.16c-4.39-5.74-17.89-20.46-27.39-19.73-3.14.24-5.64 2.15-7.64 5.84-1.94 3.21-6.54 12.31-5.19 16.82.28.92.79 1.53 1.61 1.92 1.13.53 2.25.58 3.45.15 3.94-1.44 7.5-7.62 8.53-9.89l3.64 1.66c-.18.39-4.47 9.67-10.8 11.98-2.22.81-4.42.71-6.54-.29-1.84-.87-3.13-2.39-3.73-4.38-2.11-7.01 4.76-18.66 5.55-19.96 2.62-4.82 6.27-7.48 10.8-7.83 13.3-1.02 29.36 19.33 30.8 21.18.87.84 12.71 11.65 41.86 8.94l.37 3.98c-3.41.32-6.61.46-9.59.46h.01Z"
    fill="#0B3EE3"
  />
  <path
    d="M51.0402 169.86c-2.64-1.44-4.26-3.52-4.82-6.19-1.32-6.3 4.17-13.51 4.41-13.81l.17-.22.23-.17c1.66-1.21 16.43-11.7 24.64-6.62l-2.11 3.4c-4.92-3.04-16.06 3.5-19.94 6.27-1.37 1.87-4.25 6.76-3.49 10.33.31 1.48 1.24 2.62 2.82 3.49l-1.92 3.51.01.01Z"
    fill="#0B3EE3"
  />
  <path
    d="M141.66 216.45c-35.07 0-68.7497-16.76-70.2397-17.51-15.93-7.18-26.49-12.51-27.32-20.6-.56-5.48 1.2-8.61 6.51-11.57 4.69-2.61 12.31-5.49 22.03-4.4 7.05.79 12.88 5.23 14.85 11.32 1.31 4.05.24 6.65-.89 8.12-2.49 3.24-7.79 4.6-16.2 4.15l.21-3.99c9.04.48 11.91-1.41 12.81-2.59.29-.38 1.19-1.55.26-4.45-1.49-4.6-5.99-7.96-11.49-8.58-8.67-.97-15.47 1.6-19.64 3.92-4.22 2.35-4.84 4.05-4.47 7.66.61 5.94 11.23 11.17 25.06 17.4.45.23 37.7897 18.8 73.6097 16.99l.2 4c-1.76.09-3.53.13-5.29.13Z"
    fill="#0B3EE3"
  />
  <path
    d="m86.3804 174.4-2.69-2.96c4.44-4.04 6.07-8.61 4.86-13.61-.95-3.89-3.31-6.65-3.34-6.68l3.01-2.64c.12.13 11.68 13.59-1.84 25.88v.01Z"
    fill="#0B3EE3"
  />
  <path
    d="M100.11 171.22c-5.84 0-10.85-4.39-11.11-4.63l2.66-2.98c.06.05 6.12 5.33 11.25 3.02l1.64 3.65c-1.49.67-3 .94-4.45.94h.01ZM54.1802 151.43l-3.94-.71c2.06-11.46 6.62-19.24 13.54-23.12 9.05-5.08 18.66-1.46 19.06-1.3l-1.44 3.73c-.08-.03-8.31-3.09-15.7 1.08-5.81 3.28-9.68 10.11-11.52 20.32Z"
    fill="#0B3EE3"
  />
  <path
    d="M52.4304 217.61c-.71 0-1.44-.15-2.12-.48-2.5-1.17-3.57-4.15-2.4-6.65l14.51-30.9c1.17-2.5 4.15-3.57 6.65-2.4s3.57 4.15 2.4 6.65l-14.51 30.9c-.85 1.81-2.65 2.88-4.53 2.88ZM134.58 37.11l58.03 60.29c5.47 5.68 1.2 15.12-6.67 14.78l-85.01-3.72 33.65-71.35Z"
    fill="#AAEEEF"
  />
  <path
    d="M184.82 100.66c-.39 0-.79-.15-1.08-.46l-49.57-51.59c-.57-.6-.55-1.55.04-2.12.6-.57 1.54-.56 2.12.04l49.57 51.59c.57.6.55 1.55-.04 2.12-.29.28-.67.42-1.04.42Z"
    fill="#00C5CA"
  />
</svg>
