<svg width="240" height="240" viewBox="0 0 240 240" fill="none" xmlns="http://www.w3.org/2000/svg">
<g clip-path="url(#clip0_26069_3554)">
<path d="M61.8705 155.41L61.8691 182.37C61.8691 188.24 66.6291 193 72.4991 193L181.389 193C187.259 193 192.019 188.24 192.019 182.37L192.021 162.05C192.021 150.5 193 151.974 187.5 150.5C180.6 149.63 157.77 139.88 157.77 139.88C147.45 135.98 157.35 127.23 157.35 127.23L160.07 126.8C148.96 125.97 147.31 116.43 147.31 116.43L153.1 112.4L151.69 109.53L149.86 107.05L150.95 104.34L152.33 103.36C152.33 103.36 156.47 102.09 157.12 102.03C157.77 101.97 163.14 102.71 163.14 102.71L170.87 103.69C170.87 103.69 182.27 106.96 182.5 107.03C182.73 107.1 192.001 111.74 192.001 111.74V22C192.001 16.13 187.24 11.37 181.37 11.37L72.5005 11.37C66.6305 11.37 61.8705 16.13 61.8705 22V122.9V155.4V155.41Z" fill="#AAEEEF"/>
<g clip-path="url(#clip1_26069_3554)">
<path d="M120.42 134.05C120.04 134.05 119.65 133.9 119.36 133.61C118.77 133.02 118.77 132.07 119.36 131.49L161.05 89.8C167.86 82.99 167.86 71.91 161.05 65.1C157.75 61.8 153.37 59.99 148.7 59.99C144.03 59.99 139.65 61.81 136.35 65.1L90.26 111.19C88.16 113.29 87 116.09 87 119.07C87 122.05 88.16 124.84 90.26 126.95C94.6 131.29 101.67 131.29 106.02 126.95L151.52 81.45C153.24 79.73 153.24 76.94 151.52 75.22C149.8 73.5 147.01 73.5 145.29 75.22L105.94 114.56C105.35 115.15 104.4 115.15 103.82 114.56C103.23 113.97 103.23 113.02 103.82 112.44L143.17 73.1C146.06 70.21 150.76 70.21 153.64 73.1C156.53 75.99 156.53 80.69 153.64 83.57L108.14 129.07C102.63 134.58 93.65 134.58 88.14 129.07C85.47 126.4 84 122.85 84 119.07C84 115.29 85.47 111.74 88.14 109.07L134.23 62.98C142.21 55 155.19 55 163.17 62.98C171.15 70.96 171.15 83.94 163.17 91.92L121.48 133.61C121.19 133.9 120.8 134.05 120.42 134.05Z" fill="#00C5CA"/>
</g>
<path d="M240.379 121.8C230.679 115.23 203.299 98.17 193.199 98.17V93.97C206.639 93.97 241.269 117.33 242.729 118.32L240.369 121.8H240.379Z" fill="#0B3EE3"/>
<path d="M177.009 120.62C157.629 118.08 148.009 114.28 146.739 108.68C145.959 105.25 148.669 102.44 150.399 101.32C160.049 95.1299 190.549 107.21 193.989 108.61L192.409 112.5C180.169 107.54 158.559 101.07 152.669 104.85C152.669 104.85 150.509 106.36 150.829 107.76C151.039 108.65 153.299 113.27 177.549 116.45L176.999 120.61L177.009 120.62Z" fill="#0B3EE3"/>
<path d="M176.85 134.5C148.33 128.51 144.48 122.58 144.07 118.65C143.52 113.36 150.11 110.3 150.86 109.97L152.55 113.81C151.06 114.47 148.05 116.42 148.24 118.22C148.39 119.66 150.97 124.78 177.7 130.39L176.84 134.5H176.85Z" fill="#0B3EE3"/>
<path d="M240.689 174.22C201.699 156.54 187.489 152.63 169.499 147.68L166.949 146.98C157.929 144.49 152.759 140.84 151.569 136.13C150.209 130.73 154.689 126.38 154.879 126.19L157.789 129.22C157.789 129.22 154.869 132.1 155.649 135.12C156.429 138.16 160.839 140.93 168.069 142.93L170.609 143.63C188.779 148.63 203.129 152.58 242.419 170.39L240.689 174.21V174.22Z" fill="#0B3EE3"/>
</g>
<defs>
<clipPath id="clip0_26069_3554">
<rect width="240" height="240" fill="white"/>
</clipPath>
<clipPath id="clip1_26069_3554">
<rect width="85.15" height="77.05" fill="white" transform="translate(84 57)"/>
</clipPath>
</defs>
</svg>
