<svg viewBox="0 0 240 240" fill="none" xmlns="http://www.w3.org/2000/svg"><g clip-path="url(#clip0_11084_62326)"><g clip-path="url(#clip1_11084_62326)"><path d="M173.77 150.53L166.99 145.38L161.74 137.24L157.34 134.7L154.91 131L155.32 125.24L156.61 121.09L145.84 129.86L133.77 135.31L126.94 136.19L124.33 131.74L127.92 124.64L138.76 115.65L152.02 107.62L149.45 100.99L152.55 93.97L166.89 91.35H177.33V38.46C177.33 35.44 174.89 33 171.87 33H58.46C55.44 33 53 35.44 53 38.46V201C53 204.02 55.44 206.46 58.46 206.46H171.88C174.9 206.46 177.34 204.02 177.34 201V150.53H173.78H173.77Z" fill="#AAEEEF"/><path d="M115.17 98.1C103.37 98.1 93.7695 88.5 93.7695 76.7C93.7695 64.9 103.37 55.3 115.17 55.3C126.97 55.3 136.57 64.9 136.57 76.7C136.57 88.5 126.97 98.1 115.17 98.1ZM115.17 58.31C105.03 58.31 96.7695 66.56 96.7695 76.71C96.7695 86.86 105.02 95.11 115.17 95.11C125.32 95.11 133.57 86.86 133.57 76.71C133.57 66.56 125.32 58.31 115.17 58.31Z" fill="#00C5CA"/><path d="M84.9199 128.34C84.0899 128.34 83.4199 127.67 83.4199 126.84C83.4199 109.34 97.6599 95.09 115.17 95.09C126.7 95.09 136.52 100.53 142.1 110.03C142.52 110.74 142.28 111.66 141.57 112.08C140.86 112.5 139.94 112.26 139.52 111.55C134.5 103 125.62 98.09 115.18 98.09C99.3299 98.09 86.4299 110.99 86.4299 126.84C86.4299 127.67 85.7599 128.34 84.9299 128.34H84.9199Z" fill="#00C5CA"/><path d="M157.35 156.14H74.9095C73.9995 156.14 73.2695 155.41 73.2695 154.5C73.2695 153.59 73.9995 152.86 74.9095 152.86H157.35C158.26 152.86 158.99 153.59 158.99 154.5C158.99 155.41 158.26 156.14 157.35 156.14Z" fill="#00C5CA"/><path d="M157.35 168.57H74.9095C73.9995 168.57 73.2695 167.84 73.2695 166.93C73.2695 166.02 73.9995 165.29 74.9095 165.29H157.35C158.26 165.29 158.99 166.02 158.99 166.93C158.99 167.84 158.26 168.57 157.35 168.57Z" fill="#00C5CA"/><path d="M129.49 138.5C127 138.5 124.68 137.26 123.3 135.08C121.61 132.42 121.76 129.07 123.7 126.56C135.2 111.63 165.79 98.89 167.09 98.36L167.36 98.27C209.7 87.54 241.01 71.99 241.32 71.84L243.11 75.42C242.8 75.58 211.17 91.28 168.48 102.11C166.3 103.03 137.35 115.39 126.86 129C125.77 130.41 126.05 131.96 126.67 132.93C127.28 133.9 128.56 134.79 130.28 134.41C139.26 132.41 152.28 126.45 163.3 109.46L166.66 111.63C154.91 129.76 140.87 136.14 131.16 138.31C130.6 138.43 130.05 138.49 129.5 138.49L129.49 138.5Z" fill="#0B3EE3"/><path d="M159.71 137.6C156.83 137.03 154.72 135.61 153.46 133.38C150.89 128.86 153.02 122.7 153.12 122.44L156.89 123.78L155.01 123.11L156.9 123.77C156.44 125.07 155.57 128.98 156.96 131.41C157.64 132.59 158.8 133.33 160.51 133.67L159.73 137.59L159.71 137.6Z" fill="#0B3EE3"/><path d="M177.63 153.56C173.38 153.56 168.39 151.53 163.74 146.67C160.07 142.84 158.58 138.84 159.3 134.76C160.77 126.48 171.09 121.34 171.53 121.13L173.29 124.72C173.2 124.76 164.35 129.19 163.24 135.47C162.76 138.21 163.9 141.05 166.63 143.9C172.65 150.18 179.2 150.69 182.31 147.97C184.86 145.74 184.5 141.77 181.39 137.87L184.52 135.38C189.71 141.88 188.47 147.9 184.94 150.99C183.07 152.63 180.52 153.57 177.63 153.57V153.56Z" fill="#0B3EE3"/><path d="M175.519 138.75C175.239 138.75 175.059 138.75 174.979 138.75L175.029 134.75C175.409 134.76 212.839 135.03 241.249 119.13L243.199 122.62C215.399 138.18 180.479 138.75 175.519 138.75Z" fill="#0B3EE3"/><path d="M152.75 108.24C152.1 107.78 146.43 103.62 146.73 98.7C146.88 96.2 148.45 94.13 151.4 92.54C160.83 87.45 191.37 90.69 192.67 90.83L192.24 94.81C183.76 93.89 160.22 92.33 153.3 96.06C151.66 96.95 150.79 97.92 150.73 98.94C150.59 101.25 153.9 104.15 155.07 104.98L152.76 108.24H152.75Z" fill="#0B3EE3"/></g></g><defs><clipPath id="clip0_11084_62326"><rect width="240" height="240" fill="white"/></clipPath><clipPath id="clip1_11084_62326"><rect width="190.2" height="173.45" fill="white" transform="translate(53 33)"/></clipPath></defs></svg>