<svg viewBox="0 0 240 240" fill="none" xmlns="http://www.w3.org/2000/svg"><g clip-path="url(#clip0_14929_5176)"><path d="M150.86 148.54C148.86 146.11 148.17 143.57 148.81 140.99C150 136.21 155.59 131.98 166.92 127.29C170.12 125.96 173.06 125.69 175.69 126.45C180.61 117.11 183.4 106.48 183.4 95.2C183.4 58.09 153.32 28 116.2 28C79.08 28 49 58.09 49 95.2C49 129.67 74.96 158.06 108.39 161.93L110.64 162.17C112.53 163.28 113.68 162.01 115.35 162.38C115.63 162.38 115.92 162.4 116.2 162.4C130.17 162.4 143.14 158.14 153.88 150.84C152.57 150.26 151.58 149.42 150.85 148.54H150.86Z" fill="#AAEEEF"/><path d="M116.28 156.77C97.6699 156.77 79.2999 148.29 67.3799 132.23C57.6899 119.19 53.6699 103.15 56.0399 87.08C58.4099 71.01 66.8999 56.83 79.9499 47.14C80.8399 46.48 82.0899 46.67 82.7499 47.55C83.4099 48.43 83.2199 49.69 82.3399 50.35C70.1599 59.4 62.2199 72.65 60.0099 87.66C57.7899 102.67 61.5499 117.65 70.5999 129.84C79.6499 142.02 92.8999 149.96 107.91 152.17C122.92 154.39 137.9 150.63 150.09 141.58C150.98 140.92 152.23 141.11 152.89 141.99C153.55 142.87 153.36 144.13 152.48 144.79C141.61 152.86 128.9 156.76 116.3 156.76L116.28 156.77Z" fill="#00C5CA"/><path d="M116.14 156.79H116.05C114.95 156.79 114.05 155.89 114.05 154.79C114.05 153.69 114.95 152.79 116.05 152.79C117.15 152.79 118.1 153.69 118.1 154.79C118.1 155.89 117.25 156.79 116.15 156.79H116.14ZM134.24 153.97C133.38 153.97 132.59 153.41 132.32 152.54C132 151.48 132.6 150.37 133.66 150.05C134.7 149.74 135.85 150.31 136.18 151.35C136.51 152.39 135.99 153.49 134.95 153.84C134.93 153.84 134.82 153.88 134.8 153.89C134.61 153.95 134.42 153.97 134.22 153.97H134.24ZM97.9499 153.9C97.7399 153.9 97.5299 153.87 97.3199 153.8L97.9499 151.9L97.2799 153.79C96.2299 153.46 95.6299 152.34 95.9599 151.29C96.2799 150.24 97.3899 149.65 98.4399 149.96C98.4599 149.96 98.5699 150 98.5899 150.01C99.6399 150.36 100.2 151.49 99.8499 152.54C99.5699 153.38 98.7899 153.91 97.9499 153.91V153.9ZM150.67 145.63C150.05 145.63 149.45 145.35 149.05 144.81C148.4 143.92 148.59 142.67 149.49 142.02L149.57 141.96C150.47 141.31 151.72 141.52 152.36 142.41C153 143.3 152.8 144.56 151.91 145.2L150.74 143.58L151.85 145.25C151.49 145.51 151.08 145.63 150.67 145.63ZM81.5499 145.5C81.1299 145.5 80.6999 145.37 80.3399 145.09L81.5499 143.5L80.3199 145.08C79.4399 144.43 79.2299 143.18 79.8699 142.29C80.5099 141.4 81.7199 141.18 82.6199 141.8C82.6399 141.82 82.7399 141.89 82.7699 141.91C83.6499 142.58 83.8199 143.83 83.1499 144.71C82.7599 145.23 82.1599 145.5 81.5599 145.5H81.5499ZM163.72 132.61C163.32 132.61 162.92 132.49 162.57 132.24C161.68 131.6 161.46 130.39 162.08 129.49C162.1 129.47 162.17 129.37 162.19 129.34C162.86 128.46 164.11 128.29 164.99 128.96C165.87 129.63 166.04 130.88 165.37 131.76L163.78 130.55L165.36 131.78C164.96 132.31 164.35 132.6 163.73 132.6L163.72 132.61ZM68.5499 132.45C67.9299 132.45 67.3199 132.16 66.9299 131.62L68.5499 130.45L66.8799 131.56C66.2299 130.67 66.4199 129.42 67.3199 128.77C68.2099 128.12 69.4599 128.31 70.1099 129.21L70.1699 129.29C70.8199 130.19 70.6099 131.44 69.7199 132.08C69.3699 132.33 68.9599 132.46 68.5499 132.46V132.45ZM172.12 116.23C171.93 116.23 171.73 116.2 171.54 116.14C170.49 115.82 169.89 114.72 170.21 113.66C170.21 113.64 170.25 113.53 170.26 113.51C170.61 112.46 171.74 111.89 172.79 112.25C173.84 112.6 174.4 113.73 174.05 114.78L172.15 114.15L174.04 114.82C173.77 115.68 172.98 116.23 172.12 116.23ZM60.1699 115.99C59.3499 115.99 58.5899 115.49 58.3099 114.66C58.3099 114.64 58.2699 114.53 58.2599 114.51C57.9399 113.45 58.5399 112.34 59.5999 112.02C60.6599 111.71 61.7699 112.3 62.0899 113.36C62.3999 114.41 61.8299 115.56 60.7899 115.88C60.5799 115.95 60.3699 115.98 60.1599 115.98L60.1699 115.99ZM175.02 98.05C173.92 98.05 173.02 97.15 173.02 96.05C173.02 94.95 173.92 94 175.02 94C176.12 94 177.02 94.85 177.02 95.95V96.04C177.02 97.14 176.12 98.04 175.02 98.04V98.05ZM57.3799 97.79C56.2799 97.79 55.3799 96.94 55.3799 95.84V95.75C55.3799 94.65 56.2799 93.75 57.3799 93.75C58.4799 93.75 59.3799 94.65 59.3799 95.75C59.3799 96.85 58.4799 97.8 57.3799 97.8V97.79ZM172.25 80.1C171.39 80.1 170.6 79.54 170.33 78.67C170.02 77.62 170.59 76.47 171.63 76.15C172.67 75.82 173.77 76.34 174.12 77.38C174.12 77.4 174.16 77.51 174.17 77.53C174.49 78.59 173.89 79.7 172.83 80.02C172.64 80.08 172.45 80.1 172.25 80.1ZM60.2799 79.65C60.0699 79.65 59.8599 79.62 59.6499 79.55C58.5999 79.2 58.0399 78.07 58.3899 77.02L60.2899 77.65L58.3999 76.98C58.7299 75.93 59.8499 75.33 60.8999 75.66C61.9499 75.98 62.5499 77.08 62.2299 78.14C62.2299 78.16 62.1899 78.27 62.1799 78.29C61.8999 79.13 61.1199 79.66 60.2799 79.66V79.65ZM163.97 63.65C163.35 63.65 162.75 63.37 162.35 62.83L162.29 62.75C161.64 61.85 161.85 60.6 162.74 59.96C163.64 59.31 164.89 59.52 165.53 60.41L163.91 61.58L165.58 60.47C166.23 61.36 166.04 62.61 165.14 63.26C164.78 63.52 164.37 63.64 163.96 63.64L163.97 63.65ZM68.6899 63.27C68.2699 63.27 67.8399 63.14 67.4799 62.86C66.5999 62.19 66.4299 60.94 67.0999 60.06L68.6899 61.27L67.1099 60.04C67.7599 59.16 69.0099 58.95 69.8999 59.59C70.7899 60.23 71.0099 61.44 70.3899 62.34C70.3699 62.36 70.2999 62.46 70.2799 62.49C69.8899 63.01 69.2899 63.28 68.6899 63.28V63.27ZM150.99 50.56C150.6 50.56 150.21 50.45 149.87 50.21C149.85 50.19 149.75 50.12 149.72 50.1C148.84 49.43 148.67 48.18 149.34 47.3C150.01 46.42 151.26 46.25 152.14 46.92L150.93 48.51L152.16 46.93C153.04 47.58 153.25 48.83 152.61 49.72C152.22 50.27 151.61 50.56 150.98 50.56H150.99ZM81.7499 50.28C81.1299 50.28 80.5199 49.99 80.1299 49.45C79.4799 48.55 79.6899 47.3 80.5799 46.66L81.7499 48.28L80.6399 46.61C81.5299 45.96 82.7799 46.15 83.4299 47.05C84.0799 47.94 83.8899 49.19 82.9899 49.84L82.9099 49.9C82.5599 50.15 82.1499 50.28 81.7399 50.28H81.7499ZM134.65 42.11C134.44 42.11 134.23 42.08 134.02 42.01C132.97 41.66 132.36 40.51 132.71 39.47C133.06 38.43 134.15 37.84 135.2 38.19L135.29 38.22C136.34 38.57 136.9 39.7 136.55 40.75C136.27 41.59 135.49 42.12 134.65 42.12V42.11ZM98.2499 41.93C97.3899 41.93 96.5799 41.39 96.3099 40.55C95.9799 39.51 96.4999 38.41 97.5399 38.06C97.5599 38.06 97.6699 38.02 97.6899 38.01C98.7499 37.7 99.8599 38.29 100.18 39.35C100.5 40.41 99.8999 41.52 98.8399 41.84C98.6499 41.9 98.4499 41.93 98.2499 41.93ZM116.47 39.15C115.37 39.15 114.42 38.25 114.42 37.15C114.42 36.05 115.27 35.15 116.37 35.15H116.46C117.56 35.15 118.46 36.05 118.46 37.15C118.46 38.25 117.56 39.15 116.46 39.15H116.47Z" fill="#00C5CA"/><path d="M140.36 123.65C139.96 123.65 139.56 123.49 139.27 123.18L115.37 97.66C114.8 97.06 114.83 96.11 115.44 95.54C116.04 94.97 116.99 95 117.56 95.61L141.46 121.13C142.03 121.73 142 122.68 141.39 123.25C141.1 123.52 140.73 123.66 140.36 123.66V123.65Z" fill="#00C5CA"/><path d="M116.46 98.13C116.27 98.13 116.07 98.09 115.88 98.01C115.12 97.69 114.76 96.81 115.07 96.05L132.17 55.13C132.49 54.37 133.37 54.01 134.13 54.32C134.89 54.64 135.25 55.52 134.94 56.28L117.84 97.2C117.6 97.78 117.04 98.12 116.46 98.12V98.13Z" fill="#00C5CA"/><path d="M176.42 156.34C176.86 154.89 178.14 153.44 179.49 151.9C182.6 148.37 186.85 143.53 183.74 134.83C183.52 134.11 181.85 129.24 177.32 127.06C176.79 126.81 176.24 126.62 175.69 126.46C173.06 125.7 170.12 125.97 166.92 127.3C155.59 132 150 136.22 148.81 141C148.17 143.58 148.86 146.12 150.86 148.55C151.59 149.44 152.58 150.27 153.89 150.85C156.57 152.03 160.63 152.12 166.73 149.18C171.62 146.83 175.67 143.59 175.84 143.45L173.08 140.02C170.42 142.16 163.74 146.61 158.81 147.17C156.93 147.38 155.3 147.03 154.25 145.75C152.81 144 152.89 142.81 153.07 142.06C153.86 138.9 159.08 135.3 168.6 131.36C170.37 130.63 171.97 130.34 173.39 130.48C174.1 130.55 174.77 130.72 175.38 131.01C178.38 132.44 179.52 136.1 179.53 136.13C179.54 136.17 179.56 136.22 179.57 136.26C181.83 142.55 179.21 145.53 176.17 148.98C174.57 150.8 172.91 152.69 172.2 155.05C169.46 164.09 175.29 180.79 189.48 192.03L192.21 188.58C178.93 178.07 174.44 162.84 176.41 156.33L176.42 156.34Z" fill="#0B3EE3"/><path d="M162.101 157.76C161.981 157.83 161.321 158.27 160.351 159.01L159.801 154.52L155.431 155.05L156.351 162.59C152.801 166.3 149.061 171.91 149.871 178.62L154.241 178.09C153.131 168.85 164.351 161.54 164.471 161.46L163.291 159.61L162.111 157.75L162.101 157.76Z" fill="#0B3EE3"/><path d="M115.35 162.38C114.76 161.93 115.18 162.6 110.28 162.14L108.39 161.94L107.95 162.7C117.3 168.17 122.14 175.38 128.27 184.52C133.75 192.69 139.97 201.96 151.02 212.89L154.11 209.76C143.37 199.14 137.29 190.07 131.92 182.07C126.67 174.24 122.36 167.7 115.35 162.39V162.38Z" fill="#0B3EE3"/></g><defs><clipPath id="clip0_14929_5176"><rect width="143.22" height="184.88" fill="white" transform="translate(49 28)"/></clipPath></defs></svg>