<svg fill="none" xmlns="http://www.w3.org/2000/svg" viewBox="0 0 240 240">
  <path
    d="M19 155.41v15.07c0 5.87 4.76 10.63 10.63 10.63h152.76c5.87 0 10.63-4.76 10.63-10.63v-17.77c0-.39-11.26-4.36-18.16-5.23-6.9-.87-16.08-7.6-16.08-7.6-10.32-3.9-.42-12.65-.42-12.65l2.72-.43c-11.11-.83-15.11-10.96-15.11-10.96l8.14-3.44-1.41-2.87-3.59-2.58 2.86-2.61 1.38-.98s4.14-1.27 4.79-1.33c.65-.06 6.02.68 6.02.68l7.73.98s11.4 3.27 11.63 3.34c.23.07 9.5 2.47 9.5 2.47V69.63c0-5.87-4.76-10.63-10.63-10.63H29.63C23.76 59 19 63.76 19 69.63V155.41Z"
    fill="#AAEEEF"
  />
  <path
    d="M180.31 177.12H30.9201c-4.6 0-8.34-3.74-8.34-8.34V70.42c0-4.6 3.74-8.34 8.34-8.34H181.51c4.6 0 8.34 3.74 8.34 8.34v37.71c0 .75-.61 1.35-1.35 1.35-.74 0-1.35-.61-1.35-1.35V70.42c0-3.1-2.53-5.63-5.63-5.63H30.9201c-3.1 0-5.63 2.53-5.63 5.63v98.37c0 3.1 2.53 5.63 5.63 5.63H180.31c3.1 0 5.63-2.53 5.63-5.63V152.5c0-.75.61-1.35 1.35-1.35.74 0 1.35.61 1.35 1.35v16.29c0 4.6-3.74 8.34-8.34 8.34l.01-.01Z"
    fill="#00C5CA"
  />
  <path
    d="M240.209 121.41c-9.7-6.57-37.08-23.63-47.18-23.63v-4.2c13.44 0 48.07 23.36 49.53 24.35l-2.36 3.48h.01ZM176.839 120.23c-19.38-2.54-29-6.34-30.27-11.94-.78-3.43 1.93-6.24 3.66-7.36 9.65-6.19 40.15 5.89 43.59 7.29l-1.58 3.89c-12.24-4.96-33.86-11.43-39.74-7.65 0 0-2.16 1.51-1.84 2.91.21.89 2.47 5.51 26.72 8.69l-.55 4.16.01.01Z"
    fill="#0B3EE3"
  />
  <path
    d="M176.68 134.11c-28.52-5.99-32.37-11.92-32.78-15.85-.55-5.29 6.04-8.35 6.79-8.68l1.69 3.84c-1.49.66-4.5 2.61-4.31 4.41.15 1.44 2.73 6.56 29.46 12.17l-.86 4.11h.01Z"
    fill="#0B3EE3"
  />
  <path
    d="M240.52 173.83c-38.99-17.68-53.2-21.59-71.19-26.54l-2.55-.7c-9.02-2.49-14.19-6.14-15.37-10.85-1.36-5.4 3.12-9.76 3.31-9.94l2.9 3.04-1.45-1.52 1.46 1.51s-2.92 2.88-2.14 5.9c.78 3.04 5.19 5.81 12.41 7.81l2.55.7c18.17 5 32.52 8.95 71.81 26.76l-1.73 3.82-.01.01Z"
    fill="#0B3EE3"
  />
  <path
    d="M54.21 143.18c-8.36 0-15.17-6.8-15.17-15.17 0-8.37 6.8-15.17 15.17-15.17 8.37 0 15.17 6.8 15.17 15.17 0 8.37-6.8 15.17-15.17 15.17Zm0-27.33c-6.71 0-12.17 5.46-12.17 12.17s5.46 12.17 12.17 12.17 12.17-5.46 12.17-12.17-5.46-12.17-12.17-12.17Z"
    fill="#00C5CA"
  />
  <path
    d="M74.0501 163.12c-.83 0-1.5-.67-1.5-1.5 0-10.11-8.23-18.34-18.34-18.34s-18.34 8.23-18.34 18.34c0 .83-.67 1.5-1.5 1.5s-1.5-.67-1.5-1.5c0-11.77 9.57-21.34 21.34-21.34s21.34 9.57 21.34 21.34c0 .83-.67 1.5-1.5 1.5ZM128.57 144.21H86.04c-.83 0-1.5-.67-1.5-1.5s.67-1.5 1.5-1.5h42.53c.83 0 1.5.67 1.5 1.5s-.67 1.5-1.5 1.5ZM115.18 82H40.5498c-1.93 0-3.5-1.57-3.5-3.5s1.57-3.5 3.5-3.5H115.18c1.93 0 3.5 1.57 3.5 3.5s-1.57 3.5-3.5 3.5ZM82.2198 93.76h-41.67c-1.93 0-3.5-1.57-3.5-3.5s1.57-3.5 3.5-3.5h41.67c1.93 0 3.5 1.57 3.5 3.5s-1.57 3.5-3.5 3.5ZM117.74 158.72H86.0498c-.83 0-1.5-.67-1.5-1.5s.67-1.5 1.5-1.5H117.74c.83 0 1.5.67 1.5 1.5s-.67 1.5-1.5 1.5ZM134.76 151.66H86.0498c-.83 0-1.5-.67-1.5-1.5s.67-1.5 1.5-1.5H134.76c.83 0 1.5.67 1.5 1.5s-.67 1.5-1.5 1.5Z"
    fill="#00C5CA"
  />
</svg>
