<svg viewBox="0 0 240 240" fill="none" xmlns="http://www.w3.org/2000/svg"><g clip-path="url(#clip0_20905_5835)"><path d="M105.75 119.22C114.33 113.72 140.05 123.06 148.19 126.24L148.55 108.4C148.63 104.24 146.54 100.33 143.01 98.12C137.87 94.91 129.09 90.22 116.17 85.86L108.88 93.54C108.22 94.23 107.3 94.63 106.34 94.63C105.44 94.63 104.58 94.29 103.93 93.67C102.53 92.34 102.47 90.12 103.8 88.72L108.73 83.53C105.86 82.7 102.81 81.89 99.59 81.13L99.42 83.02C99.26 84.84 97.76 86.21 95.94 86.21C95.84 86.21 95.74 86.21 95.63 86.2C93.7 86.03 92.28 84.32 92.45 82.4L92.7 79.61C89.48 78.95 86.1 78.34 82.56 77.78L84.54 85.01C84.79 85.91 84.67 86.85 84.21 87.67C83.75 88.49 83 89.07 82.09 89.31C81.8 89.39 81.48 89.43 81.16 89.43C79.59 89.43 78.2 88.37 77.79 86.86L75.01 76.7C66.96 75.67 58.19 74.92 48.64 74.58C44.46 74.43 41 77.8 41 81.98V142.72C41 146.91 43.73 150.61 47.74 151.84L134.96 178.68C140.22 180.3 145.55 177.15 146.95 172.15C138.92 169.47 132.21 167.62 124.86 165.6L122.31 164.9C113.29 162.41 108.12 158.76 106.94 154.05C106.04 150.47 107.7 147.36 108.98 145.61C101.24 142.14 99.69 138.98 99.43 136.57C99.09 133.28 101.5 130.85 103.56 129.41C102.81 128.53 102.32 127.6 102.09 126.61C101.31 123.18 104.02 120.37 105.75 119.25V119.22Z" fill="#AAEEEF"/><path d="M77.661 67.43C77.441 66.63 76.621 66.16 75.821 66.38C75.021 66.6 74.551 67.42 74.771 68.22L79.731 86.31C79.911 86.98 80.521 87.41 81.181 87.41C81.311 87.41 81.441 87.39 81.581 87.36C82.381 87.14 82.851 86.32 82.631 85.52L77.671 67.43H77.661Z" fill="#00C5CA"/><path d="M99.141 47C98.311 46.92 97.591 47.53 97.511 48.36L94.441 82.56C94.371 83.39 94.981 84.11 95.801 84.19C95.851 84.19 95.891 84.19 95.941 84.19C96.711 84.19 97.361 83.6 97.431 82.82L100.501 48.64C100.571 47.81 99.961 47.09 99.141 47.01V47Z" fill="#00C5CA"/><path d="M121.972 74.67C121.372 74.1 120.422 74.12 119.852 74.72L105.262 90.08C104.692 90.68 104.712 91.63 105.312 92.2C105.602 92.48 105.972 92.61 106.342 92.61C106.742 92.61 107.132 92.45 107.432 92.14L122.022 76.78C122.592 76.18 122.572 75.23 121.972 74.66V74.67Z" fill="#00C5CA"/><path d="M198.089 136.21C196.619 135.22 161.999 111.86 148.559 111.86V116.06C158.649 116.06 186.039 133.12 195.739 139.69L198.099 136.21H198.089Z" fill="#0B3EE3"/><path d="M125.969 161.52L123.419 160.82C116.199 158.83 111.789 156.05 111.009 153.01C110.319 150.31 112.549 147.75 113.049 147.21C117.699 148.9 123.899 150.64 132.209 152.38L133.069 148.27C106.339 142.65 103.759 137.53 103.609 136.1C103.469 134.78 105.069 133.37 106.519 132.46C106.709 132.34 106.909 132.22 107.089 132.12C107.389 132.29 107.689 132.45 108.019 132.61C112.949 135.08 120.969 137.01 132.379 138.51L132.929 134.35C129.479 133.9 126.489 133.41 123.869 132.92C118.849 131.97 115.259 130.97 112.679 130.02C107.159 127.98 106.329 126.18 106.209 125.66C105.879 124.26 108.049 122.75 108.049 122.75C109.459 121.84 111.809 121.55 114.749 121.7C115.809 121.75 116.949 121.86 118.139 122.02C127.189 123.23 139.619 127.28 148.129 130.72C148.359 130.81 148.589 130.9 148.809 130.99L150.409 127.11C150.009 126.95 149.249 126.64 148.229 126.24C142.119 123.85 126.069 117.98 114.839 117.55C111.859 117.43 109.229 117.71 107.199 118.52C106.689 118.72 106.209 118.95 105.789 119.22C104.069 120.34 101.359 123.15 102.129 126.58C102.319 127.44 102.729 128.25 103.329 129.03C103.419 129.15 103.499 129.27 103.599 129.39C102.719 130.01 101.779 130.81 101.009 131.77C99.9793 133.06 99.2693 134.66 99.4693 136.55C99.7193 138.96 101.279 142.13 109.019 145.59C107.739 147.34 106.079 150.45 106.979 154.03C108.169 158.74 113.339 162.39 122.349 164.88L124.899 165.58C132.239 167.6 138.959 169.45 146.989 172.13C158.629 176.02 173.019 181.66 196.089 192.12L197.819 188.3C173.949 177.48 159.289 171.78 147.389 167.84C139.699 165.3 133.149 163.5 126.019 161.53L125.969 161.52Z" fill="#0B3EE3"/><path d="M118.809 107.71C114.739 107.71 110.309 107.57 105.679 107.19C87.5594 105.72 62.6494 100.27 46.8094 82.72C46.2594 82.1 46.2994 81.16 46.9194 80.6C47.5294 80.05 48.4794 80.09 49.0394 80.71C78.1694 113.01 140.299 103.34 140.929 103.24C141.749 103.11 142.519 103.66 142.649 104.48C142.779 105.3 142.229 106.07 141.409 106.2C141.289 106.22 131.909 107.71 118.809 107.71Z" fill="#00C5CA"/></g><defs><clipPath id="clip0_20905_5835"><rect width="157.09" height="145.11" fill="white" transform="translate(41 47)"/></clipPath></defs></svg>