<svg viewBox="0 0 240 240" fill="none" xmlns="http://www.w3.org/2000/svg"><g clip-path="url(#clip0_4862_9728)"><path d="M144.48 140.45L145.64 135.04L147.68 132.44L151.01 131.61C151.17 131.15 151.32 130.69 151.45 130.22L148.34 130.69L141.54 129.73H132.3C132.3 129.73 128.95 128.8 126.95 127.98C124.95 127.16 125.17 126.63 124.59 125.97C124.02 125.31 123.16 125.15 123.16 125.15L123.18 122.14L122.32 120.35L125.57 115.61L127.74 113.92L130.58 112.87L134.61 112.17L148.33 110.69L151.48 110.58C147.25 96.05 133.85 85.43 117.96 85.43H42.91C23.63 85.43 8 101.07 8 120.35C8 139.63 23.63 155.26 42.91 155.26H117.96C128.82 155.26 138.52 150.3 144.92 142.53L144.47 140.45H144.48Z" fill="#AAEEEF"/><path d="M231.619 188.04L227.619 188.01C227.769 165.26 213.199 140.49 204.499 127.75C200.829 122.37 195.769 118.36 189.849 116.13C167.319 107.64 141.189 111.23 130.999 113.16C127.319 113.86 124.739 117.07 124.989 120.63C125.069 121.82 125.329 125.44 132.729 126.64C147.979 129.1 161.489 126.33 161.629 126.3L162.449 130.22C161.869 130.34 148.069 133.17 132.089 130.6C123.379 129.2 121.249 124.56 120.989 120.92C120.599 115.34 124.579 110.31 130.249 109.24C140.769 107.24 167.779 103.55 191.249 112.39C197.939 114.91 203.659 119.44 207.789 125.5C216.749 138.63 231.769 164.21 231.609 188.04H231.619Z" fill="#0B3EE3"/><path d="M166.999 152.52C166.749 152.52 166.499 152.51 166.259 152.48C163.399 152.2 161.439 150.29 160.899 147.25C160.149 143.01 162.199 137.16 167.009 129.89C170.449 124.68 174.039 120.65 174.189 120.48L177.169 123.15C173.339 127.43 163.669 139.99 164.839 146.56C165.119 148.15 165.879 148.44 166.649 148.51C170.659 148.9 179.189 142.85 181.519 136.89L185.239 138.35C182.469 145.42 173.189 152.53 166.989 152.53L166.999 152.52Z" fill="#0B3EE3"/><path d="M187.429 153.3C186.669 149.35 180.929 146.14 178.779 145.23L180.329 141.54C180.729 141.71 190.039 145.68 191.359 152.54L187.429 153.29V153.3Z" fill="#0B3EE3"/><path d="M153.259 150.76C150.059 150.76 146.889 149.98 145.019 147.47C142.609 144.23 141.799 139.29 143.019 135.16C144.009 131.81 146.189 129.35 149.149 128.25C149.889 127.97 150.679 127.78 151.499 127.68L151.999 131.65C151.479 131.71 150.989 131.83 150.539 132C148.289 132.84 147.289 134.8 146.849 136.29C145.989 139.22 146.549 142.83 148.219 145.07C150.639 148.32 159.329 146.06 162.179 145.01L163.559 148.76C162.719 149.07 157.949 150.75 153.249 150.75L153.259 150.76Z" fill="#0B3EE3"/><path d="M166.859 165.4C164.589 165.4 162.399 164.89 160.309 163.88C152.129 159.91 148.629 149.53 148.479 149.09L152.279 147.84C152.309 147.93 155.419 157.07 162.069 160.29C164.979 161.7 168.099 161.77 171.579 160.5C175.079 159.23 177.149 157.71 177.259 156.33C177.399 154.43 174.109 151.71 171.839 150.48L173.739 146.96C174.549 147.4 181.629 151.38 181.249 156.62C181.019 159.77 178.229 162.34 172.949 164.26C170.869 165.02 168.829 165.4 166.859 165.4Z" fill="#0B3EE3"/><path d="M187.93 204.91C174.99 187.36 172.28 162.84 172.17 161.81L176.15 161.39C176.18 161.63 178.86 185.87 191.15 202.54L187.93 204.91Z" fill="#0B3EE3"/><path d="M43.1305 146.75C57.7108 146.75 69.5305 134.93 69.5305 120.35C69.5305 105.77 57.7108 93.95 43.1305 93.95C28.5502 93.95 16.7305 105.77 16.7305 120.35C16.7305 134.93 28.5502 146.75 43.1305 146.75Z" fill="#00C5CA"/><path d="M132.6 76.11C132.34 76.11 132.07 76.04 131.83 75.9C131.12 75.47 130.89 74.55 131.32 73.84L154.18 35.73C154.61 35.02 155.53 34.79 156.24 35.22C156.95 35.65 157.18 36.57 156.75 37.28L133.88 75.39C133.6 75.86 133.1 76.12 132.59 76.12L132.6 76.11Z" fill="#00C5CA"/><path d="M144.04 86.94C143.41 86.94 142.82 86.53 142.61 85.9C142.36 85.11 142.79 84.27 143.58 84.01L188.81 69.54C189.6 69.29 190.44 69.72 190.7 70.51C190.95 71.3 190.52 72.14 189.73 72.4L144.5 86.87C144.35 86.92 144.19 86.94 144.04 86.94Z" fill="#00C5CA"/></g><defs><clipPath id="clip0_4862_9728"><rect width="223.62" height="169.91" fill="white" transform="translate(8 35)"/></clipPath></defs></svg>