<svg viewBox="0 0 240 240" fill="none" xmlns="http://www.w3.org/2000/svg"><g clip-path="url(#clip0_11084_61585)"><path d="M141.32 106.98C140.13 106.98 139.02 106.74 138.04 106.4C132.67 104.52 129.58 98.78 130.86 93.05C133.24 82.39 140.7 55.61 158.47 37.2C163.53 31.96 170.08 28.44 177.42 27.02C187.18 25.13 198.42 26.23 212.65 27.63C220.64 28.42 229.69 29.31 239.66 29.74L239.49 33.74C229.42 33.3 220.3 32.41 212.26 31.62C198.36 30.25 187.38 29.17 178.19 30.95C171.66 32.22 165.84 35.34 161.36 39.99C144.29 57.67 137.08 83.61 134.78 93.94C133.94 97.69 135.92 101.43 139.38 102.64C140.54 103.05 144.06 104.28 148.19 97.8C156.64 84.53 159.53 70.71 159.56 70.57L163.48 71.37C163.36 71.96 160.43 86.03 151.56 99.95C148.08 105.41 144.42 107 141.33 107L141.32 106.98Z" fill="#0B3EE3"/><path d="M180.67 79.88C180.09 79.88 179.48 79.81 178.85 79.66C174.58 78.65 169.94 74.37 165.08 66.93C161.59 61.6 159.27 56.61 159.17 56.4L162.8 54.72C165.27 60.04 173.13 74.19 179.77 75.76C181.4 76.15 181.98 75.54 182.38 74.83C184.38 71.22 182.15 60.76 177.5 56.15L180.31 53.31C186.02 58.97 188.94 71.25 185.88 76.77C184.76 78.79 182.91 79.87 180.68 79.87L180.67 79.88Z" fill="#0B3EE3"/><path d="M184.15 62.1L181.38 59.22C181.69 58.92 189.16 51.81 196.11 53.35L195.24 57.26C191.23 56.37 185.87 60.46 184.15 62.11V62.1Z" fill="#0B3EE3"/><path d="M169.75 94.96C165.92 94.96 161.88 93.33 159.23 90.54C156.57 87.75 155.69 84.22 156.74 80.61L160.58 81.72C159.77 84.53 160.97 86.56 162.13 87.78C164.45 90.21 168.55 91.48 171.68 90.74C175.72 89.78 177.13 80.7 177.3 77.6L181.29 77.82C181.21 79.35 180.25 92.81 172.6 94.63C171.68 94.85 170.72 94.96 169.74 94.96H169.75Z" fill="#0B3EE3"/><path d="M177.58 92.1C176.41 92.1 175.66 92.04 175.54 92.03L175.89 88.05C175.99 88.05 185.82 88.84 191.54 83.9C194.05 81.73 195.37 78.84 195.6 75.05C195.82 71.23 195.23 68.66 193.96 68C192.03 66.99 187.86 69.45 186.25 70.72L183.77 67.58C184.51 67 191.08 61.99 195.81 64.46C198.65 65.94 199.93 69.59 199.59 75.29C199.3 80.15 197.47 84.07 194.14 86.94C188.84 91.51 181.2 92.1 177.57 92.1H177.58Z" fill="#0B3EE3"/><path d="M226.81 78.03C208.06 78.03 197.62 75.16 197.1 75.01L198.18 71.16C198.33 71.2 213.38 75.32 239.44 73.61L239.7 77.6C235.05 77.91 230.74 78.03 226.81 78.03Z" fill="#0B3EE3"/><path d="M88.37 213.85C120.607 213.85 146.74 187.717 146.74 155.48C146.74 123.243 120.607 97.11 88.37 97.11C56.1331 97.11 30 123.243 30 155.48C30 187.717 56.1331 213.85 88.37 213.85Z" fill="#AAEEEF"/><path d="M119.08 173.53C118.84 173.53 118.6 173.47 118.37 173.35L87.6601 156.8C87.1701 156.54 86.8701 156.03 86.8701 155.48V121.59C86.8701 120.76 87.5401 120.09 88.3701 120.09C89.2001 120.09 89.8701 120.76 89.8701 121.59V154.59L119.79 170.72C120.52 171.11 120.79 172.02 120.4 172.75C120.13 173.25 119.61 173.54 119.08 173.54V173.53Z" fill="#00C5CA"/></g><defs><clipPath id="clip0_11084_61585"><rect width="209.71" height="187.85" fill="white" transform="translate(30 26)"/></clipPath></defs></svg>