<svg viewBox="0 0 240 240" fill="none" xmlns="http://www.w3.org/2000/svg"><path d="M84.112 141.587H75.08a5.821 5.821 0 0 1 -5.821 -5.821V28.785a5.821 5.821 0 0 1 5.821 -5.821h157.832a5.82 5.82 0 0 1 5.82 5.821v105.511a5.82 5.82 0 0 1 -5.82 5.821H131.904l-3.093 -5.619 -7.291 -6.521 -8.288 -2.096 -8.067 0.22 -10.384 5.415 -10.661 10.053z" fill="#3C65E9"/><path d="m56.485 164.693 -3.625 3.48a0.48 0.48 0 0 0 -0.152 0.355 0.533 0.533 0 0 0 0.144 0.364l2.763 2.881a0.533 0.533 0 0 0 0.363 0.152c0.127 0 0.253 -0.051 0.356 -0.144l42.115 -40.392c1.333 -0.641 10.501 -4.807 19.017 -1.841 5.28 1.833 9.469 6.083 12.453 12.631 -0.06 1.267 -0.449 4.891 -2.957 6.235 -3.347 1.791 -10.207 -0.659 -18.807 -6.708a0.493 0.493 0 0 0 -0.38 -0.084 0.52 0.52 0 0 0 -0.329 0.211l-2.289 3.261a0.507 0.507 0 0 0 -0.085 0.38c0.027 0.135 0.101 0.253 0.212 0.329 10.831 7.62 18.704 9.919 24.069 7.012 5.761 -3.117 5.584 -10.899 5.576 -11.228a2.533 2.533 0 0 0 -0.212 -0.912c-3.573 -8.161 -8.837 -13.493 -15.637 -15.84 -11.38 -3.937 -22.785 2.053 -23.267 2.307a2.667 2.667 0 0 0 -0.549 0.396l-35.145 33.7 -18.324 -16.804a0.507 0.507 0 0 0 -0.719 0.035l-2.695 2.94a0.511 0.511 0 0 0 0.025 0.717l18.088 16.584z" fill="white"/><path d="M172.657 139.923a0.507 0.507 0 0 0 -0.464 -0.304l-4.191 0.041a0.507 0.507 0 0 0 -0.423 0.229 0.52 0.52 0 0 0 -0.041 0.481c0.971 2.239 1.985 6.048 1.165 7.527 -0.727 1.319 -2.383 1.767 -2.821 1.859h-0.304c-0.863 0 -1.699 0.025 -2.544 0.051 1.783 -3.835 0.929 -7.755 -0.515 -9.917a0.573 0.573 0 0 0 -0.44 -0.229l-4.131 0.119a0.493 0.493 0 0 0 -0.448 0.339 0.547 0.547 0 0 0 0.144 0.557c0.271 0.253 1.267 2.297 1.14 4.713 -0.101 1.969 -0.904 3.616 -2.373 4.9 -30.127 3.532 -50.184 24.019 -66.591 40.781 -9.267 9.469 -17.267 17.648 -25.049 20.697 -11.168 4.368 -26.891 -7.197 -38.127 -17.665 -12.621 -11.768 -22.447 -24.804 -22.54 -24.939a0.493 0.493 0 0 0 -0.339 -0.195 0.533 0.533 0 0 0 -0.38 0.093l-3.185 2.391a0.507 0.507 0 0 0 -0.101 0.709c1.395 1.859 34.411 45.528 59.503 45.528 2.475 0 4.824 -0.431 6.987 -1.276 8.777 -3.439 17.124 -11.971 26.807 -21.864 17.352 -17.733 38.947 -39.808 72.173 -39.808h0.491c0.16 0 0.244 0 0.363 -0.025 0.187 -0.025 4.512 -0.643 6.607 -4.368 1.555 -2.763 1.42 -6.277 -0.397 -10.443z" fill="white"/><path d="M210.591 65.864a4.093 4.093 0 0 1 -3.184 -1.512l-14.929 -18.248c-2.069 -2.535 -2.331 -6.083 -0.649 -8.829a10.76 10.76 0 0 1 9.225 -5.169 10.8 10.8 0 0 1 9.537 5.736c1.825 -3.413 5.416 -5.736 9.539 -5.736a10.76 10.76 0 0 1 9.225 5.169c1.681 2.747 1.42 6.295 -0.651 8.829l-14.928 18.248a4.107 4.107 0 0 1 -3.185 1.512M201.053 34.64a8.213 8.213 0 0 0 -7.063 3.961c-1.124 1.825 -0.939 4.2 0.447 5.897l14.929 18.248c0.599 0.735 1.849 0.744 2.449 0l14.928 -18.248c1.395 -1.699 1.572 -4.072 0.448 -5.897a8.24 8.24 0 0 0 -7.063 -3.961 8.28 8.28 0 0 0 -8.271 8.271h-2.535a8.28 8.28 0 0 0 -8.271 -8.271" fill="#AAEEEF"/><path d="M238.732 109.619H69.251a1.267 1.267 0 0 1 -1.267 -1.267 1.267 1.267 0 0 1 1.267 -1.268h169.481a1.267 1.267 0 1 1 0 2.533" fill="#AAEEEF"/><path d="M85.023 61.876h55.573a3.364 3.364 0 0 1 3.364 3.364v2.204a3.364 3.364 0 0 1 -3.364 3.364h-55.573a3.364 3.364 0 0 1 -3.364 -3.364V65.24a3.364 3.364 0 0 1 3.364 -3.364Z" stroke="#AAEEEF" stroke-width="2.6666666666666665"/><path d="M85.023 80.436h92.104a3.364 3.364 0 0 1 3.364 3.364v2.205a3.364 3.364 0 0 1 -3.364 3.364H85.023a3.364 3.364 0 0 1 -3.364 -3.364V83.8a3.364 3.364 0 0 1 3.364 -3.364Z" stroke="#AAEEEF" stroke-width="2.6666666666666665"/></svg>