<svg fill="none" xmlns="http://www.w3.org/2000/svg" viewBox="0 0 240 240">
  <path
    d="M221.881 180.37c-.11-.13-10.98-13.21-23.59-26.68-20.84-22.26-30.19-28.43-34.36-29.69-5.3-1.6-9.25-.7-11.14 2.51-1.96 3.35-1.13 8.07.92 10.06.66.63.8 1.63.35 2.42-.45.79-1.38 1.18-2.26.94-.18-.05-18.54-4.97-29.01-5.63-1.04-.06-2.06.29-2.85.99-.8.72-1.27 1.72-1.32 2.8-.09 2.07 1.38 3.83 3.43 4.11 9.84 1.33 22.46 3.45 26.75 6.03l-2.06 3.43c-2.84-1.71-12.03-3.71-25.22-5.49-4.11-.56-7.08-4.1-6.89-8.25.1-2.17 1.04-4.16 2.65-5.6 1.59-1.43 3.64-2.14 5.77-2.01 7.67.48 18.97 3.05 25.23 4.59-1.02-3.37-.72-7.38 1.07-10.42 1.36-2.31 5.61-7.36 15.74-4.31 15.87 4.78 58.09 55.48 59.88 57.64l-3.08 2.55-.01.01Z"
    fill="#0B3EE3"
  />
  <path
    d="M141.65 166.14c-2.31-1.73-10.9-2.99-22.99-3.37-5.84-.18-10.47-5.09-10.32-10.94.11-4.48 3.04-8.44 7.28-9.87l2.11-.71 1.27 3.79-2.11.71c-2.66.89-4.49 3.37-4.56 6.17-.09 3.66 2.8 6.73 6.45 6.85 13.65.43 22.16 1.83 25.27 4.17l-2.4 3.2Z"
    fill="#0B3EE3"
  />
  <path
    d="M181.73 225.31c-16.99-25.12-39-41.13-65.42-47.6l-.51-.12c-2.85-.7-5.15-2.77-6.15-5.53-1.04-2.87-.5-6.13 1.4-8.5l3.28-4.1 3.12 2.5-3.29 4.1c-1.04 1.3-1.33 3.07-.77 4.64.55 1.51 1.8 2.63 3.35 3.01l.5.12c27.41 6.71 50.22 23.28 67.78 49.25l-3.31 2.24.02-.01ZM161.573 142.908l-2.586 3.052 8.02 6.793 2.585-3.052-8.019-6.793Z"
    fill="#0B3EE3"
  />
  <path
    d="M169.83 171.57c-6.01-10.42-2.18-27.59-2.01-28.32l3.9.89c-.04.16-3.65 16.37 1.58 25.42l-3.46 2-.01.01ZM149.299 143.674 136.725 170.9l3.631 1.677 12.575-27.226-3.632-1.677Z"
    fill="#0B3EE3"
  />
  <path
    d="M134.75 27.82c-4.15-4.68-9.41-8.27-15.31-10.44-5.9-2.18-12.26-2.88-18.51-2.03-3.7799.51-7.4499 1.58-10.8899 3.15-4.49 2.05-7.86 5.81-10.65 9.88l-3.1 4.53c-3.74-2.62-7.92-4.57-12.35-5.72-4.86-1.26-9.92-1.56-14.89-.88-4.97.68-9.77 2.33-14.1 4.86-4.33 2.52-8.13 5.87-11.16 9.85-3.04 3.98-5.25 8.52-6.53 13.35-1.28 4.83-1.59 9.87-.91 14.81.68 4.95 2.34 9.71 4.87 14.02 2.53 4.31 5.9 8.08 9.89 11.09L104.6 133.21l26.72-45.64 10.54-20.04c1.85-4.42 3.76-12.92 1.34-23.34-1.41-6.07-4.32-11.7-8.47-16.38l.02.01Z"
    fill="#AAEEEF"
  />
  <path
    d="M26.2295 69.79c-.79 0-1.45-.62-1.5-1.42-1.37-25.26 18.17-33.75 28.7-34.71.83-.08 1.55.53 1.63 1.36.08.83-.53 1.55-1.35 1.63-1.12.11-27.54 2.92-25.98 31.56.04.83-.59 1.53-1.42 1.58h-.08Z"
    fill="#00C5CA"
  />
</svg>
