<svg fill="none" xmlns="http://www.w3.org/2000/svg" viewBox="0 0 240 240">
  <path
    d="M130.67 65.62c-1.97 0-3.93-.4-5.79-1.21-3.56-1.55-6.31-4.39-7.73-8-2.94-7.46.74-15.92 8.2-18.86 6.51-2.56 13.93-.13 17.64 5.79.43.69.22 1.6-.47 2.03-.69.43-1.6.22-2.03-.47-2.96-4.72-8.88-6.66-14.07-4.61-5.95 2.34-8.88 9.09-6.54 15.04 1.14 2.88 3.33 5.15 6.17 6.38 2.84 1.23 5.99 1.29 8.87.15.76-.3 1.61.07 1.91.83.3.76-.07 1.61-.83 1.91-1.73.68-3.53 1.02-5.33 1.02Z"
    fill="#00C5CA"
  />
  <path
    d="M141.04 45.83c-.08 0-.16 0-.24-.01l-10.29-1.04c-.81-.08-1.4-.8-1.32-1.61.08-.81.81-1.4 1.61-1.32l9.81.99.57-9.46c.05-.81.74-1.43 1.56-1.38.81.05 1.43.75 1.38 1.56l-.6 9.94c-.04.67-.36 1.3-.87 1.74-.45.38-1.03.59-1.61.59Z"
    fill="#00C5CA"
  />
  <path
    d="M133.44 76.81c-16.61 0-30.08-13.47-30.08-30.08 0-2.1.22-4.14.62-6.12H31.59c-5.3-.01-9.59 4.28-9.59 9.58v147.34c0 5.29 4.29 9.59 9.59 9.59h93.93c5.29 0 9.59-4.29 9.59-9.59V163.9l-1.88-.95-4.62-5.91.72-4.64-2.31-3.09s-3.93-5.85-3.82-6.3c.11-.44 1.56-6.44 1.56-6.44l-3.55-4.25-9.39-1.1-9.28-4.88-2.16-6.52s5.62-2.78 6.58-2.85c.96-.07 13.14-.72 13.14-.72l15.01.62v-40.1c-.55.03-1.1.05-1.66.05l-.01-.01Z"
    fill="#AAEEEF"
  />
  <path
    d="M77.6902 108.53c-10.59 0-19.2-8.61-19.2-19.2s8.61-19.2 19.2-19.2 19.2 8.61 19.2 19.2-8.61 19.2-19.2 19.2Zm0-35.71c-9.1 0-16.51 7.41-16.51 16.51 0 9.1 7.41 16.51 16.51 16.51 9.1 0 16.51-7.41 16.51-16.51 0-9.1-7.41-16.51-16.51-16.51Z"
    fill="#00C5CA"
  />
  <path
    d="M50.5502 135.67c-.74 0-1.35-.6-1.35-1.35 0-15.71 12.78-28.49 28.49-28.49 10.35 0 19.16 4.89 24.1698 13.41.38.64.16 1.47-.48 1.84-.64.38-1.4698.16-1.8398-.48-4.51-7.68-12.47-12.08-21.84-12.08-14.23 0-25.8 11.57-25.8 25.8 0 .74-.6 1.35-1.35 1.35ZM115.55 160.62H41.5598c-.81 0-1.47-.66-1.47-1.47 0-.81.66-1.47 1.47-1.47H115.55c.81 0 1.47.66 1.47 1.47 0 .81-.66 1.47-1.47 1.47ZM115.55 171.77H41.5598c-.81 0-1.47-.66-1.47-1.47 0-.81.66-1.47 1.47-1.47H115.55c.81 0 1.47.66 1.47 1.47 0 .81-.66 1.47-1.47 1.47Z"
    fill="#00C5CA"
  />
  <path
    d="M145.69 155.28h-.09c-13.77-.08-21.67-2.85-24.15-8.48-1.78-4.04-.1-8.38 1.61-11.3-15.4-.05-24.0198-5.81-24.6498-11.96-.34-3.3 1.8698-7.55 9.2098-8.64 11.5-1.7 34.5.28 44 1.23-3.89-7.63-6.04-21.08-3.03-27.96 1.41-3.21 3.89-4.98 7.01-4.98 7.83 0 14.93 16.71 19.5 30.72.54 1.66 1.67 3.02 3.19 3.85 6.05 3.29 18.83 7.9 36.44 1.82l1.31 3.78c-19.06 6.58-33.02 1.52-39.65-2.09-2.42-1.31-4.22-3.49-5.08-6.12-5.46-16.72-11.78-27.96-15.7-27.97-.95 0-2.33.27-3.34 2.58-3 6.84.41 22.66 4.82 27.43.57.61.69 1.52.31 2.26-.38.75-1.19 1.18-2.01 1.08-.33-.04-33.3-3.75-47.17-1.69-3.75.55-6.03 2.23-5.82 4.27.4 3.88 8.47 9.19 24.51 8.26.82-.04 1.57.4 1.92 1.13.35.73.23 1.6-.32 2.2-1.49 1.67-5.01 6.8-3.38 10.46 1.71 3.86 9 6.02 20.52 6.08h.1c3.34 0 9.06-.92 10.61-2.39 1.09-1.03 1.7-2.92.16-5.12-1.4-2-1.85-1.99-4.81-1.89-.35.01-.72.03-1.12.04l-.1-4c.38 0 .74-.02 1.08-.03 3.24-.11 5.58-.2 8.23 3.59 2.81 4.02 1.68 8.08-.68 10.32-3.01 2.86-10.78 3.48-13.4 3.48l-.03.04Z"
    fill="#0B3EE3"
  />
  <path
    d="M148.65 169.45c-4.11 0-7.61-.53-8.75-.92-6.91-2.37-11.02-5.72-12.23-9.96-1.44-5.09 1.97-9.32 2.11-9.5l3.1 2.53s-2.24 2.84-1.35 5.9c.83 2.85 4.17 5.36 9.67 7.24 1.46.5 10.68 1.55 16.73-.6 1.75-.62 3.03-2.06 3.41-3.85.38-1.78-.15-3.53-1.48-4.8-1-.96-2.5-2.08-3.98-1.96l-.33-3.99c2.39-.2 4.76.83 7.08 3.06 2.31 2.22 3.29 5.41 2.61 8.53-.68 3.16-2.92 5.69-5.98 6.78-3.27 1.16-7.16 1.54-10.62 1.54h.01Z"
    fill="#0B3EE3"
  />
  <path
    d="M188.95 173.69c-19.07 0-29.95-5.82-30.59-6.17l1.92-3.51c.21.12 21.73 11.51 57.24 1.51l1.08 3.85c-11.35 3.19-21.29 4.31-29.66 4.31l.01.01ZM128.19 135.41c-.78 0-1.2-.02-1.27-.02l.17-4c.08 0 8.15.3 25.54-2.16l.56 3.96c-14.06 1.99-22.08 2.22-25 2.22Z"
    fill="#0B3EE3"
  />
</svg>
