<svg viewBox="0 0 240 240" fill="none" xmlns="http://www.w3.org/2000/svg"><path d="M191.363 186.548L142.458 72.3504C141.322 69.5959 138.811 67.6788 135.882 67.3257L116.86 65.0453L115.554 61.1708C115.016 59.5665 113.103 58.1035 111.29 57.8916L105.471 57.2257C106.756 55.6012 107.035 53.4218 106.248 51.0809C104.743 46.601 99.6316 42.6457 94.6196 42.0706C91.8096 41.7477 89.3983 42.565 88.0133 44.3207C86.7279 45.9451 86.4489 48.1246 87.236 50.4654C87.8538 52.3119 89.0994 54.0675 90.6837 55.5306L85.8211 54.9756C84.0076 54.7637 82.9713 55.8938 83.5094 57.4981L84.7549 61.2011L65.1652 58.8602C58.9774 58.1237 54.2842 64.3895 56.6557 70.2215L80.7991 125.756L96.6722 126.432L109.436 129.288L117.238 132.466L120.148 134.403L122.739 135.987L123.277 138.52L123.645 141.053L122.091 145.422C122.091 145.422 121.573 146.148 121.374 146.39C121.174 146.632 122.739 148.438 122.739 148.438L126.376 151.445L127.153 153.009L127.402 155.471C127.402 155.471 128.179 156.995 127.402 157.307C126.625 157.62 125.479 159.366 125.479 159.366L123.675 160.819V161.697C123.675 161.697 121.374 161.888 120.836 162.05C120.297 162.211 119.839 162.978 119.839 162.978L121.962 167.781L122.001 170.384L119.261 173.048L117.488 175.278C117.488 175.278 114.06 175.974 112.665 176.529C111.27 177.084 109.058 177.82 109.058 177.82L105.451 179.142L107.663 185.519C108.709 188.546 111.399 190.685 114.548 191.008L183.003 197.96C189.151 198.585 193.734 192.329 191.353 186.548H191.363ZM90.8132 46.601C91.3114 45.9754 92.2381 45.6424 93.4139 45.6424C93.673 45.6424 93.932 45.6626 94.211 45.6929C97.8281 46.1066 101.784 49.1134 102.84 52.2614C103.059 52.9072 103.328 54.118 102.661 54.9453C102.063 55.7021 100.827 56.0351 99.2629 55.8534C95.6459 55.4397 91.6901 52.433 90.6339 49.2849C90.4146 48.6392 90.1456 47.4284 90.8132 46.601Z" fill="#AAEEEF"/><path d="M99.2923 181.321C81.3866 181.321 69.1704 167.377 69.0109 167.185C52.4304 148.015 45.1565 130.085 47.3985 113.911C49.8895 95.981 63.2018 87.0918 63.7697 86.7285L65.932 90.1188L64.8558 88.4236L65.9419 90.1188C65.8224 90.1995 53.5464 98.4429 51.3443 114.546C49.3016 129.49 56.2567 146.309 72.0202 164.542C72.8472 165.5 92.4469 187.739 118.205 171.342C118.234 171.322 118.264 171.302 118.294 171.292C118.932 170.919 120.646 169.607 120.745 168.104C120.845 166.61 119.33 165.097 118.045 164.088L120.486 160.899C123.496 163.25 124.92 165.783 124.721 168.416C124.442 172.21 120.905 174.43 120.287 174.783C112.764 179.566 105.669 181.331 99.3023 181.331L99.2923 181.321Z" fill="#0B3EE3"/><path d="M110.472 165.47C102.261 165.47 94.1007 163.826 92.5762 163.503L93.3932 159.557C93.453 159.568 99.8302 160.91 106.895 161.303C115.534 161.787 121.552 160.667 123.874 158.135C124.143 157.671 125.289 155.501 124.133 153.393C122.728 150.85 117.138 146.693 95.3861 147.329L95.2665 143.293C113.531 142.748 124.412 145.512 127.64 151.486C130.072 155.996 127.232 160.314 127.112 160.486C127.062 160.556 127.013 160.617 126.963 160.677C123.744 164.391 117.088 165.46 110.462 165.46L110.472 165.47Z" fill="#0B3EE3"/><path d="M121.821 148.852L119.051 145.946L120.436 147.399L119.041 145.956C119.161 145.835 122.001 142.949 120.815 139.66C119.48 135.937 112.256 129.288 78.9551 126.563L79.2739 122.538C106.417 124.757 121.652 130.065 124.571 138.318C126.604 144.069 122.001 148.65 121.811 148.842L121.821 148.852Z" fill="#0B3EE3"/><path d="M184.886 192.874C184.836 192.874 184.786 192.874 184.736 192.874L116.969 185.832C116.152 185.751 115.554 185.004 115.634 184.167C115.714 183.329 116.451 182.744 117.278 182.815L182.514 189.585L134.945 77.8293C134.616 77.0624 134.965 76.1745 135.722 75.8416C136.479 75.5086 137.356 75.8617 137.685 76.6286L186.261 190.755C186.47 191.25 186.41 191.815 186.091 192.249C185.812 192.642 185.364 192.864 184.886 192.864V192.874Z" fill="#00C5CA"/></svg>