<svg xmlns="http://www.w3.org/2000/svg" fill="none" viewBox="0 0 240 240"><path fill="#0B3EE3" d="M165.32 150.77c-.65.75-.65 1.88 0 2.62 1.25 1.43 30.49 34.53 50.61 34.53.25 0 .5 0 .75-.02l-.17-4c-7.42.31-18.05-5.25-30.75-16.1-7.6-6.49-13.85-13.12-16.31-15.8 5.13-6.74 6.77-14.97 7.29-19.44.39-3.33-1.66-6.49-4.87-7.53-2.53-.82-5.26-.18-7.13 1.67-2.93 2.88-7.24 7.93-9.33 10.42-2.84-2.5-9.46-9.6-21.1-23.5a14.817 14.817 0 0 0-7.4-4.78 8.181 8.181 0 0 0-9.33 3.82c-1.2 2.1-1.43 4.59-.61 6.84 2.17 6.02 8.57 15.39 11.25 19.17-2.08 1.72-4.06 4.47-5.5 8.81-.66 2-1.08 4.05-1.29 6.14 0 0-.02.02-.02.03h.02c-.76 7.87 1.68 16.36 7.32 25.33 19.99 31.76 49.2 44.38 50.44 44.9l1.56-3.68c-.29-.12-29.31-12.69-48.61-43.35-4.89-7.76-7.16-15.04-6.82-21.71 2.15-2.61 6.85-7.12 11.12-6.44 3.55.56 6.69 4.76 9.09 12.14.39 1.2.11 2.55-.72 3.51-.76.88-1.82 1.26-2.92 1.08-3.3-.57-6.11-2.99-8.34-7.2l-3.53 1.88c3.54 6.67 8.04 8.72 11.2 9.26.4.07.81.1 1.21.1 2.05 0 4.01-.89 5.41-2.51a7.676 7.676 0 0 0 1.69-6.59c4.17-4.16 5.37-9.51 3.18-14.63-2.9-6.77-10.53-10.76-18.56-9.69-.77.1-1.6.3-2.45.61-2.44-3.44-8.93-12.86-10.97-18.52a4.22 4.22 0 0 1 .32-3.5 4.201 4.201 0 0 1 4.78-1.96c2.12.59 3.99 1.8 5.41 3.49 8.87 10.61 20.16 23.63 23.55 25.43.84.45 1.88.24 2.48-.49.06-.08 6.52-7.87 10.27-11.57a3.07 3.07 0 0 1 3.09-.71c1.4.45 2.3 1.82 2.13 3.26-.51 4.33-2.15 12.52-7.47 18.67l.03.01Zm-30.62-10.75c6.97-.92 12.5 2.97 14.36 7.3 1.28 2.99.89 6.03-1.02 8.7-2.81-6.78-6.49-10.58-10.96-11.28-3.89-.61-7.55 1.28-10.35 3.48 1.76-4.97 4.44-7.73 7.97-8.2Z"/><path fill="#AAEEEF" d="M50.32 102.11c-.5 0-1.16.12-1.81.36-3.62 1.29-7.25 2.58-10.87 3.87-1.25.45-2.42.15-3.31-.84a48.867 48.867 0 0 1-6.99-10.01 46.621 46.621 0 0 1-3.17-7.54c-.37-1.16-.11-2.21.81-3.01 1.83-1.6 3.7-3.15 5.56-4.72 1.22-1.04 2.47-2.05 3.66-3.12 2.43-2.18 2.46-6.13.03-8.33-1.42-1.28-2.91-2.49-4.37-3.72-1.63-1.38-3.28-2.74-4.88-4.15-.92-.81-1.18-1.86-.8-3.03a47.58 47.58 0 0 1 3.42-7.98 48.18 48.18 0 0 1 6.79-9.6c.86-.95 1.94-1.23 3.14-.81 2.92 1.02 5.83 2.07 8.75 3.1.84.3 1.67.62 2.52.88 3.35 1.04 6.76-1.02 7.41-4.46.56-2.98 1.09-5.96 1.64-8.94.15-.84.3-1.67.46-2.5.25-1.27 1.13-2.11 2.4-2.37 2.6-.52 5.21-.86 7.86-.98 2.65-.12 5.29-.05 7.91.29 1.44.19 2.87.43 4.3.69 1.47.27 2.26 1.11 2.53 2.57.64 3.54 1.29 7.07 1.95 10.6.12.64.24 1.29.5 1.88.97 2.16 2.67 3.32 5.04 3.48.79.05 1.55-.09 2.29-.36 3.62-1.29 7.23-2.58 10.85-3.86 1.25-.44 2.41-.14 3.3.85 3 3.33 5.5 7 7.49 11.01 1.05 2.11 1.94 4.28 2.66 6.52.37 1.16.12 2.21-.8 3.01-1.84 1.6-3.71 3.16-5.57 4.73-1.22 1.04-2.47 2.05-3.66 3.12-2.42 2.18-2.44 6.13-.03 8.32 1.42 1.28 2.91 2.49 4.37 3.72 1.63 1.39 3.29 2.75 4.9 4.16.91.8 1.18 1.84.8 2.99-1.73 5.31-4.29 10.19-7.71 14.6a65.1 65.1 0 0 1-2.5 3c-.85.96-1.93 1.24-3.13.83-2.53-.87-5.04-1.79-7.56-2.68-1.26-.45-2.5-.92-3.77-1.32-2.92-.94-6.19.71-7.12 3.64-.29.92-.43 1.89-.6 2.84-.59 3.16-1.16 6.32-1.74 9.48-.22 1.19-1.11 2.07-2.34 2.32-2.57.52-5.16.86-7.79.99-2.84.13-5.67.04-8.48-.34-1.34-.18-2.67-.41-3.99-.65-1.25-.23-2.12-1.1-2.35-2.35-.57-3.05-1.12-6.1-1.68-9.15-.15-.84-.29-1.69-.47-2.53-.58-2.64-2.92-4.5-5.82-4.5h-.03Zm6.21-29.21c0 7.84 6.35 14.25 14.15 14.26 7.93.01 14.31-6.33 14.32-14.23.01-7.83-6.37-14.23-14.2-14.23-7.88 0-14.27 6.35-14.27 14.21v-.01Z"/><path fill="#00C5CA" d="M79.58 28.58c-.31-.17-7.83-4.04-16.97-.77-.97.35-1.69 1.16-1.93 2.17l-2.74 11.46-.33 1.29a5.385 5.385 0 0 1-2.52 3.34c-1.26.74-2.73.94-4.15.57l-14.09-3.73-.66.44c-.3.2-7.26 4.99-8.68 14.6a3.04 3.04 0 0 0 1 2.73l8.88 7.88a6.571 6.571 0 0 1 2.37 5.34 6.54 6.54 0 0 1-2.79 5.13l-6.55 4.63c-2.44 1.73-3.43 4.88-2.39 7.67 1.5 4.03 4.11 9.46 7.99 12.38a1.752 1.752 0 0 0 2.45-.35c.58-.77.43-1.87-.34-2.45-2.5-1.89-4.92-5.73-6.82-10.81-.49-1.3-.02-2.78 1.13-3.6l6.55-4.63c2.58-1.83 4.14-4.69 4.26-7.85.13-3.16-1.2-6.14-3.59-8.13l-8.67-7.69c1.03-6.37 5.03-10.24 6.55-11.51l12.49 3.3c2.32.61 4.74.28 6.81-.93a8.874 8.874 0 0 0 4.14-5.49l3.03-12.59c7.52-2.58 13.82.6 13.93.66.85.45 1.91.12 2.36-.73.45-.85.13-1.91-.73-2.36l.01.03ZM143.919 20.14c.77-.59.92-1.68.33-2.45-.58-.77-1.68-.92-2.45-.33l-21.46 16.38c-.77.59-.92 1.68-.33 2.45.34.45.86.69 1.39.69.37 0 .74-.12 1.06-.36l21.46-16.38ZM150.22 40.65a1.748 1.748 0 0 0-2.03-1.41l-24.85 4.52a1.748 1.748 0 0 0 .31 3.47c.1 0 .21 0 .31-.03l24.85-4.52c.95-.17 1.58-1.08 1.41-2.03Z"/></svg>