<svg viewBox="0 0 240 240" fill="none" xmlns="http://www.w3.org/2000/svg"><g clip-path="url(#clip0_4934_9856)"><path d="M53 79.67V176.89C53 179.31 54.82 181.34 57.22 181.61L130.76 189.83C133.58 190.14 136.04 187.94 136.04 185.11V157.64L132.52 153.43L126.87 148.28L117.74 142.9L114.37 141.84C114.37 141.84 109.26 140.57 108.35 140.4C107.44 140.23 102.55 139.16 102.18 139.17C101.8 139.18 99.32 136.26 99.32 136.26L98.33 133.36L99.09 128.5L100.9 124.79L97.64 122.58L92.49 119.66L91.23 115.62L93.72 112.56C93.72 112.56 96.53 110.82 95.27 110.48C94.01 110.14 93.77 107.42 93.72 107.18C93.67 106.94 94.53 104.52 94.53 104.52L96.37 102.44L101.07 101.12L104.88 101.05L116.73 102.78L136.06 109.39V60.36C136.06 57.94 134.24 55.91 131.84 55.64L81.72 50.03C80.07 49.85 78.43 50.45 77.29 51.66L54.42 76.07C53.51 77.05 53 78.33 53 79.67Z" fill="#AAEEEF"/><path d="M184.761 148.98C170.311 129.45 144.301 98.46 136.051 98.46V94.46C149.021 94.46 184.031 141.26 187.981 146.6L184.771 148.98H184.761Z" fill="#0B3EE3"/><path d="M120.621 119.85C102.161 117.43 92.9907 113.81 91.7807 108.48C91.0407 105.21 93.6207 102.54 95.2607 101.47C104.451 95.57 133.511 107.08 136.791 108.41L135.291 112.12C123.631 107.39 103.041 101.23 97.4407 104.83C97.4407 104.83 95.3807 106.27 95.6907 107.6C95.8907 108.45 98.0507 112.85 121.151 115.88L120.631 119.85H120.621Z" fill="#0B3EE3"/><path d="M120.47 133.07C93.3003 127.36 89.6403 121.72 89.2503 117.97C88.7303 112.93 95.0003 110.02 95.7203 109.7L97.3403 113.36C95.9203 113.99 93.0503 115.85 93.2403 117.56C93.3903 118.93 95.8403 123.81 121.31 129.16L120.49 133.07H120.47Z" fill="#0B3EE3"/><path d="M156.79 190.27C154.36 186.91 151.98 183.4 149.46 179.68C138.08 162.89 126.31 145.52 110.88 143.97C102.61 143.14 97.6501 140.67 96.1201 136.62C94.0601 131.18 99.2501 125.49 99.4701 125.25L102.41 127.97L100.94 126.61L102.41 127.96C101.37 129.1 98.8801 132.62 99.8601 135.21C100.79 137.64 104.84 139.34 111.28 139.98C128.57 141.72 140.87 159.87 152.77 177.43C155.27 181.12 157.63 184.61 160.03 187.92L156.79 190.26V190.27Z" fill="#0B3EE3"/><path d="M120.58 78.59C120.58 78.59 120.49 78.59 120.44 78.59L75.7097 74.37C74.8797 74.29 74.2797 73.56 74.3597 72.74C74.4397 71.91 75.1797 71.3 75.9897 71.39L120.72 75.61C121.55 75.69 122.15 76.42 122.07 77.24C122 78.02 121.34 78.6 120.58 78.6V78.59Z" fill="#00C5CA"/><path d="M119.41 91.05C119.41 91.05 119.32 91.05 119.27 91.05L74.5398 86.83C73.7098 86.75 73.1098 86.02 73.1898 85.2C73.2698 84.37 74.0098 83.77 74.8198 83.85L119.55 88.07C120.38 88.15 120.98 88.88 120.9 89.7C120.83 90.48 120.17 91.06 119.41 91.06V91.05Z" fill="#00C5CA"/></g><defs><clipPath id="clip0_4934_9856"><rect width="134.98" height="140.27" fill="white" transform="translate(53 50)"/></clipPath></defs></svg>