<svg viewBox="0 0 240 240" fill="none" xmlns="http://www.w3.org/2000/svg"><g clip-path="url(#clip0_5163_16266)"><path d="M101.3 114.67H122.27V94.4L134.69 69.25C143.4 51.61 137.19 29.6 119.75 20.51C114.23 17.63 107.96 16 101.3 16C94.6397 16 88.3697 17.63 82.8497 20.5C65.4097 29.6 59.1997 51.61 67.9097 69.25L80.3297 94.4V114.67H101.3Z" fill="#AAEEEF"/><path d="M121.35 132.98H81.2502C78.6002 132.98 76.4502 130.83 76.4502 128.18C76.4502 125.53 78.6002 123.38 81.2502 123.38H121.35C124 123.38 126.15 125.53 126.15 128.18C126.15 130.83 124 132.98 121.35 132.98Z" fill="#AAEEEF"/><path d="M117.19 138.24C116.6 137.98 115.94 137.83 115.25 137.83H87.3498C84.6998 137.83 82.5498 139.98 82.5498 142.63C82.5498 145.28 84.6998 147.43 87.3498 147.43H112.72L117.18 138.25L117.19 138.24Z" fill="#AAEEEF"/><path d="M121.76 224.32C121.09 223.16 105.45 195.45 108.71 158.07C109.88 144.68 114.67 135.01 122.95 129.33C130.39 124.22 135.76 125.32 138.96 127.14C146 131.14 149.67 138.93 147.89 146.07C146.39 152.07 141.4 155.78 134.53 155.98L134.41 151.98C139.46 151.83 142.95 149.33 144 145.11C145.14 140.54 143.09 134.1 136.97 130.62C133.77 128.8 129.81 129.47 125.21 132.63C117.97 137.6 113.76 146.28 112.7 158.42C109.55 194.5 125.07 222.06 125.23 222.33L121.76 224.32Z" fill="#0B3EE3"/><path d="M129.64 160.19C127.68 160.19 125.81 159.4 124.45 157.94C122.27 155.6 119.92 151.25 121.13 143.79L125.08 144.43C124.32 149.13 125.08 152.75 127.38 155.2C128.14 156.01 129.22 156.34 130.35 156.1C131.6 155.84 132.63 154.93 133.05 153.74C135.6 146.41 135.63 141.16 133.15 138.57C129.8 135.08 122.05 136.44 119.35 137.26L118.18 133.43C118.67 133.28 130.28 129.82 136.02 135.78C139.68 139.58 139.95 146.06 136.82 155.04C135.95 157.55 133.78 159.45 131.17 160C130.66 160.11 130.14 160.16 129.63 160.16L129.64 160.19Z" fill="#0B3EE3"/><path d="M173.361 218.31C156.801 206.82 153.441 161.69 153.301 159.77C153.231 158.78 153.901 157.88 154.881 157.67C162.831 155.98 169.091 150.45 172.111 147.3C173.111 146.26 173.231 144.63 172.381 143.42C171.721 142.47 170.611 141.97 169.491 142.12C164.261 142.8 154.411 145.11 154.311 145.13C153.391 145.35 152.431 144.88 152.041 144.02C150.431 140.53 149.311 123.34 148.651 109.53C148.551 107.33 147.791 105.24 146.451 103.48C145.291 101.95 143.231 101.4 141.461 102.15C140.321 102.63 139.451 103.58 139.091 104.74C136.881 111.82 136.601 127.57 136.601 127.73L132.601 127.67C132.611 127 132.891 111.18 135.281 103.55C135.991 101.27 137.681 99.41 139.911 98.47C143.371 97 147.381 98.07 149.651 101.06C151.471 103.46 152.511 106.33 152.661 109.34C153.521 127.45 154.501 137.11 155.261 140.82C158.431 140.1 164.921 138.69 168.991 138.16C171.591 137.82 174.161 138.96 175.681 141.14C177.611 143.91 177.331 147.67 175.011 150.09C171.891 153.34 165.611 158.9 157.451 161.17C158.221 169.43 162.331 205.78 175.661 215.03L173.381 218.32L173.361 218.31Z" fill="#0B3EE3"/><path d="M115.93 111.15C115.1 111.15 114.43 110.48 114.43 109.65V88.94C114.43 88.62 114.53 88.3 114.73 88.05C133.61 62.61 130.25 47.31 130.22 47.16C122.64 19.67 96.9402 24.1 95.8502 24.3C95.0402 24.45 94.2502 23.91 94.1002 23.1C93.9502 22.29 94.4902 21.5 95.3002 21.35C95.5902 21.3 124.81 16.26 133.11 46.4C133.28 47.1 136.92 62.96 117.42 89.44V109.66C117.42 110.49 116.75 111.16 115.92 111.16L115.93 111.15Z" fill="#00C5CA"/></g><defs><clipPath id="clip0_5163_16266"><rect width="112.94" height="208.32" fill="white" transform="translate(64 16)"/></clipPath></defs></svg>