<svg width="343" height="192" viewBox="0 0 343 192" fill="none" xmlns="http://www.w3.org/2000/svg">
<path fill-rule="evenodd" clip-rule="evenodd" d="M223 0C223 4.97056 226.806 9 231.5 9C236.194 9 240 4.97056 240 0H335C339.418 0 343 3.58173 343 8V184C343 188.418 339.418 192 335 192H239.948C239.982 191.672 240 191.338 240 191C240 186.029 236.194 182 231.5 182C226.806 182 223 186.029 223 191C223 191.338 223.018 191.672 223.052 192H8C3.58173 192 0 188.418 0 184V8C0 3.58172 3.58173 0 8 0H223Z" fill="#E6E9F2"/>
<mask id="mask0_983_23551" style="mask-type:alpha" maskUnits="userSpaceOnUse" x="0" y="0" width="343" height="192">
<path fill-rule="evenodd" clip-rule="evenodd" d="M223 0C223 4.97056 226.806 9 231.5 9C236.194 9 240 4.97056 240 0H335C339.418 0 343 3.58173 343 8V184C343 188.418 339.418 192 335 192H239.948C239.982 191.672 240 191.338 240 191C240 186.029 236.194 182 231.5 182C226.806 182 223 186.029 223 191C223 191.338 223.018 191.672 223.052 192H8C3.58173 192 0 188.418 0 184V8C0 3.58172 3.58173 0 8 0H223Z" fill="white"/>
</mask>
<g mask="url(#mask0_983_23551)">
<rect x="-7.34375" y="-5.23828" width="356.636" height="198" fill="#2746A3"/>
</g>
</svg>
