<svg width="120" height="120" viewBox="0 0 120 120" fill="none" xmlns="http://www.w3.org/2000/svg">
<mask id="mask0_3796_16388" style="mask-type:alpha" maskUnits="userSpaceOnUse" x="0" y="0" width="120" height="120">
<path fill-rule="evenodd" clip-rule="evenodd" d="M103.784 6H117.755C118.857 6 119.751 6.89551 119.751 8V16C119.751 17.1055 118.857 18 117.755 18H103.784V20C103.784 21.1055 102.89 22 101.788 22H97.7963V116H101.348C99.9441 114.464 99.4452 112.302 100.034 110.303C100.621 108.305 102.211 106.76 104.223 106.232C103.209 103.726 103.992 100.85 106.138 99.208C108.283 97.5664 111.259 97.5664 113.404 99.208C115.55 100.85 116.334 103.726 115.319 106.232C117.332 106.76 118.921 108.305 119.509 110.303C120.097 112.302 119.598 114.464 118.194 116H119.751V120H0V116H1.16944L10.5639 106.587C11.3436 105.806 12.6065 105.806 13.3862 106.587L22.7807 116H25.9459V26H29.9376V34H55.8836V38H29.9376V44H41.9127V42H45.9044V44H57.8794V40H61.8711V44H73.8462V36H77.8378V116H85.8212V22H81.8295C80.7273 22 79.8337 21.1055 79.8337 20V18H11.9751V54.3428C13.8559 55 15.2846 56.5566 15.7796 58.4902C16.2757 60.4238 15.7728 62.4785 14.4396 63.9629L19.5589 70.8008L19.5335 70.8203C19.8005 71.1562 19.9496 71.5713 19.9584 72V80C19.9584 80.5312 19.7479 81.0391 19.3737 81.4141L15.382 85.4141C15.0078 85.7891 14.5001 86 13.9709 86H5.98753C5.45835 86 4.95062 85.7891 4.5764 85.4141L0.584719 81.4141C0.210499 81.0391 0 80.5312 0 80V72C0.00877078 71.5713 0.157874 71.1562 0.424896 70.8203L0.399558 70.8008L5.51878 63.9629C4.54035 62.875 3.99753 61.4639 3.99168 60H7.98337C7.98337 61.1055 8.87701 62 9.97921 62C11.0814 62 11.9751 61.1055 11.9751 60C11.9751 58.8955 11.0814 58 9.97921 58C8.87701 58 7.98337 57.1055 7.98337 56V18H1.99584C0.893646 18 0 17.1055 0 16V8C0 6.89551 0.893646 6 1.99584 6H79.8337V2C79.8337 0.895508 80.7273 0 81.8295 0H101.788C102.89 0 103.784 0.895508 103.784 2V6ZM13.9709 70L10.9771 66H8.98129L5.98753 70H13.9709ZM15.9667 79.1729L13.1445 82H6.81393L3.99168 79.1729V74H15.9667V79.1729ZM103.784 13.6006L109.173 10H103.784V13.6006ZM83.8254 4H91.8087V12H83.8254V4ZM35.3268 14L29.9376 10.4004L24.5485 14H35.3268ZM17.9626 13.6006L12.5734 10H23.3517L17.9626 13.6006ZM41.9127 13.6006L47.3018 10H36.5235L41.9127 13.6006ZM53.8877 10.4004L59.2769 14H48.4986L53.8877 10.4004ZM65.8628 13.6006L71.2519 10H60.4736L65.8628 13.6006ZM3.99168 10H5.38916L11.3767 14H3.99168V10ZM78.4362 10L72.4487 14H79.8337V10H78.4362ZM93.8046 109.4L90.2124 104L93.8046 98.6006V109.4ZM90.2124 56L93.8046 61.4004V50.6006L90.2124 56ZM89.8129 62.6006L93.405 68L89.8129 73.4004V62.6006ZM89.8129 38.6006V49.4004L93.405 44L89.8129 38.6006ZM89.8129 86.6006L93.405 92L89.8129 97.4004V86.6006ZM90.2124 80L93.8046 85.3887V74.6006L90.2124 80ZM90.2124 32L93.8046 26.6006V37.4004L90.2124 32ZM89.8129 22V25.4004L92.0719 22H89.8129ZM73.8462 48V68H61.8711V48H73.8462ZM57.8794 65.2002V48H45.9044V60.0762H51.8919C52.4152 60.0781 52.9171 60.2861 53.2894 60.6543L57.8794 65.2002ZM41.9127 48V51.334H29.9376V48H41.9127ZM17.1362 116L11.9751 110.828L6.81393 116H17.1362ZM29.9376 116V55.334H41.9127V62.084C41.9127 63.1895 42.8063 64.084 43.9085 64.084H51.0713L58.4778 71.4229C58.8501 71.791 59.3519 71.999 59.8753 72H73.8462V116H29.9376ZM93.405 116L89.8129 110.601V116H93.405ZM113.763 114C112.661 114 111.767 113.105 111.767 112C111.767 110.896 112.661 110 113.763 110C114.865 110 115.759 110.896 115.759 112C115.759 113.105 114.865 114 113.763 114ZM111.767 104C111.767 102.896 110.874 102 109.771 102C108.669 102 107.775 102.896 107.775 104C107.775 105.105 108.669 106 109.771 106C110.874 106 111.767 105.105 111.767 104ZM105.78 110C106.882 110 107.775 110.896 107.775 112C107.775 113.105 106.882 114 105.78 114C104.677 114 103.784 113.105 103.784 112C103.784 110.896 104.677 110 105.78 110ZM83.8254 16V18H99.7921V4H95.8004V14C95.8004 15.1055 94.9068 16 93.8046 16H83.8254ZM110.37 14L115.759 10.4004V14H110.37ZM33.9293 68H37.921V72H33.9293V68ZM33.9293 76H37.921V80H33.9293V76ZM45.9044 80V76H41.9127V80H45.9044ZM41.9127 68H45.9044V72H41.9127V68ZM53.8877 68H49.896V72H53.8877V68ZM49.896 80V76H53.8877V80H49.896ZM61.8711 80V76H57.8794V80H61.8711ZM65.8628 76H69.8545V80H65.8628V76ZM37.921 84H33.9293V88H37.921V84ZM69.8545 84H65.8628V88H69.8545V84ZM33.9293 92H37.921V96H33.9293V92ZM41.9127 84H45.9044V88H41.9127V84ZM53.8877 84H49.896V88H53.8877V84ZM57.8794 84H61.8711V88H57.8794V84ZM45.9044 96V92H41.9127V96H45.9044ZM49.896 96V92H53.8877V96H49.896ZM61.8711 96V92H57.8794V96H61.8711ZM65.8628 92H69.8545V96H65.8628V92ZM37.921 100H33.9293V104H37.921V100ZM41.9127 100H45.9044V104H41.9127V100ZM53.8877 100H49.896V104H53.8877V100ZM57.8794 100H61.8711V104H57.8794V100ZM69.8545 100H65.8628V104H69.8545V100ZM33.9293 108H37.921V112H33.9293V108ZM45.9044 112V108H41.9127V112H45.9044ZM49.896 112V108H53.8877V112H49.896ZM61.8711 112V108H57.8794V112H61.8711ZM65.8628 108H69.8545V112H65.8628V108Z" fill="white"/>
</mask>
<g mask="url(#mask0_3796_16388)">
<rect x="-5.09375" y="-3.46191" width="132" height="130" fill="#00C5CA"/>
</g>
</svg>
