<svg width="236" height="134" viewBox="0 0 236 134" fill="none" xmlns="http://www.w3.org/2000/svg">
<path fill-rule="evenodd" clip-rule="evenodd" d="M6.75195 0C4.54281 0 2.75195 1.7909 2.75195 4V113.372C2.75195 115.581 4.54281 117.372 6.75195 117.372H180.916C180.318 115.019 180 112.554 180 110.015C180 93.567 193.334 80.234 209.781 80.234C212.083 80.234 214.323 80.495 216.474 80.989V4C216.474 1.7909 214.683 0 212.474 0H6.75195Z" fill="#AAEEEF"/>
<path fill-rule="evenodd" clip-rule="evenodd" d="M68 17.5273C68 16.9751 68.4477 16.5273 69 16.5273H199C199.552 16.5273 200 16.9751 200 17.5273C200 18.0796 199.552 18.5273 199 18.5273H69C68.4477 18.5273 68 18.0796 68 17.5273Z" fill="#00C5CA"/>
<path fill-rule="evenodd" clip-rule="evenodd" d="M68 28C68 27.4477 68.4477 27 69 27H148C148.552 27 149 27.4477 149 28C149 28.5523 148.552 29 148 29H69C68.4477 29 68 28.5523 68 28Z" fill="#00C5CA"/>
<path d="M77.0801 56V54.5H78.7751V47H77.0801V45.5001H82.0901V47H80.3951V54.5H82.0901V56H77.0801Z" fill="#00C5CA"/>
<path d="M86.6282 56V47.06H83.6882V45.5001H91.2782V47.06H88.2482V56H86.6282Z" fill="#00C5CA"/>
<path d="M99.265 55.265V46.7451L99.82 47.165L97.7498 48.26L97.3148 46.8501L100.12 45.3501H100.9V55.265H99.265ZM97.5998 56V54.44H102.61V56H97.5998Z" fill="#00C5CA"/>
<path d="M104.905 56L104.41 54.77L107.62 51.155C107.79 50.975 107.965 50.77 108.145 50.54C108.335 50.3 108.515 50.055 108.685 49.805C108.855 49.555 108.99 49.31 109.09 49.07C109.2 48.82 109.255 48.585 109.255 48.365C109.255 48.045 109.19 47.775 109.06 47.555C108.94 47.325 108.76 47.15 108.52 47.03C108.29 46.9101 108.01 46.8501 107.68 46.8501C107.39 46.8501 107.105 46.9351 106.825 47.105C106.545 47.275 106.29 47.515 106.06 47.825C105.83 48.135 105.65 48.495 105.52 48.905L104.275 48.125C104.445 47.545 104.7 47.05 105.04 46.6401C105.39 46.2201 105.805 45.9001 106.285 45.6801C106.775 45.4601 107.305 45.3501 107.875 45.3501C108.465 45.3501 108.99 45.4751 109.45 45.7251C109.91 45.9651 110.27 46.3051 110.53 46.7451C110.79 47.175 110.92 47.675 110.92 48.245C110.92 48.535 110.88 48.835 110.8 49.145C110.72 49.445 110.59 49.76 110.41 50.09C110.24 50.42 110.02 50.77 109.75 51.14C109.48 51.5 109.155 51.885 108.775 52.295L106.39 54.89L106.09 54.44H111.25V56H104.905Z" fill="#00C5CA"/>
<path d="M119.697 56.15C118.957 56.15 118.312 55.98 117.762 55.64C117.222 55.3 116.712 54.73 116.232 53.93L117.492 53.135C117.742 53.505 117.987 53.81 118.227 54.05C118.477 54.28 118.732 54.45 118.992 54.56C119.252 54.67 119.527 54.725 119.817 54.725C120.167 54.725 120.492 54.64 120.792 54.47C121.092 54.29 121.332 54.045 121.512 53.735C121.692 53.425 121.782 53.075 121.782 52.685C121.782 52.295 121.712 51.965 121.572 51.695C121.432 51.415 121.227 51.205 120.957 51.065C120.687 50.915 120.367 50.84 119.997 50.84C119.827 50.84 119.647 50.86 119.457 50.9C119.277 50.93 119.082 50.98 118.872 51.05C118.662 51.11 118.432 51.19 118.182 51.29L117.732 50.105L120.972 46.5351L121.287 47H116.817V45.5001H122.832L123.132 46.1001L119.697 49.91L119.322 49.52C119.402 49.48 119.532 49.445 119.712 49.415C119.902 49.375 120.057 49.355 120.177 49.355C120.617 49.355 121.027 49.44 121.407 49.61C121.797 49.77 122.132 50 122.412 50.3C122.702 50.59 122.927 50.935 123.087 51.335C123.257 51.725 123.342 52.145 123.342 52.595C123.342 53.275 123.177 53.885 122.847 54.425C122.527 54.955 122.092 55.375 121.542 55.685C120.992 55.995 120.377 56.15 119.697 56.15Z" fill="#00C5CA"/>
<path d="M133.355 56V47.54L133.73 47.63L130.28 51.845L130.22 51.665H136.745V53.15H129.215L128.525 51.8L133.67 45.5001H134.915V56H133.355Z" fill="#00C5CA"/>
<path d="M141.232 56.105C140.542 56.105 139.917 55.95 139.357 55.64C138.797 55.32 138.332 54.865 137.962 54.275L138.862 53.27C139.332 53.79 139.742 54.145 140.092 54.335C140.442 54.525 140.822 54.62 141.232 54.62C141.642 54.62 142.012 54.53 142.342 54.35C142.672 54.17 142.932 53.925 143.122 53.615C143.322 53.305 143.422 52.96 143.422 52.58C143.422 52.18 143.327 51.825 143.137 51.515C142.957 51.195 142.712 50.945 142.402 50.765C142.092 50.575 141.742 50.48 141.352 50.48C141.162 50.48 140.982 50.495 140.812 50.525C140.642 50.545 140.437 50.6 140.197 50.69C139.957 50.78 139.642 50.92 139.252 51.11L138.397 49.955L139.012 45.5001H144.682V47H140.032L140.347 46.7151L139.852 50.045L139.477 49.61C139.577 49.51 139.747 49.415 139.987 49.325C140.227 49.225 140.492 49.145 140.782 49.085C141.082 49.015 141.367 48.98 141.637 48.98C142.277 48.98 142.847 49.13 143.347 49.43C143.857 49.72 144.257 50.125 144.547 50.645C144.847 51.165 144.997 51.76 144.997 52.43C144.997 53.12 144.832 53.745 144.502 54.305C144.172 54.855 143.722 55.295 143.152 55.625C142.582 55.945 141.942 56.105 141.232 56.105Z" fill="#00C5CA"/>
<path d="M150.147 56C149.627 56 149.142 55.91 148.692 55.73C148.252 55.54 147.867 55.28 147.537 54.95C147.217 54.62 146.962 54.23 146.772 53.78C146.592 53.33 146.502 52.835 146.502 52.295C146.502 51.935 146.567 51.515 146.697 51.035C146.837 50.555 147.037 50.03 147.297 49.46C147.567 48.89 147.897 48.28 148.287 47.63L149.652 45.3201H151.227L151.287 45.4701L149.637 48.245C149.337 48.755 149.067 49.24 148.827 49.7C148.597 50.16 148.402 50.595 148.242 51.005C148.082 51.405 147.962 51.77 147.882 52.1L147.522 50.555C147.772 50.145 148.052 49.8 148.362 49.52C148.672 49.24 149.007 49.03 149.367 48.89C149.727 48.74 150.112 48.665 150.522 48.665C151.102 48.665 151.632 48.825 152.112 49.145C152.602 49.455 152.992 49.87 153.282 50.39C153.582 50.91 153.732 51.48 153.732 52.1C153.732 52.85 153.577 53.52 153.267 54.11C152.967 54.69 152.547 55.15 152.007 55.49C151.467 55.83 150.847 56 150.147 56ZM150.147 54.5C150.537 54.5 150.882 54.41 151.182 54.23C151.492 54.04 151.732 53.78 151.902 53.45C152.082 53.11 152.172 52.725 152.172 52.295C152.172 51.925 152.082 51.58 151.902 51.26C151.722 50.93 151.482 50.665 151.182 50.465C150.882 50.265 150.547 50.165 150.177 50.165C149.767 50.165 149.402 50.26 149.082 50.45C148.762 50.64 148.512 50.895 148.332 51.215C148.152 51.535 148.062 51.89 148.062 52.28C148.062 52.7 148.152 53.08 148.332 53.42C148.512 53.75 148.757 54.015 149.067 54.215C149.377 54.405 149.737 54.5 150.147 54.5Z" fill="#00C5CA"/>
<path d="M155.932 56L160.282 46.5201L160.462 47H155.152V45.5001H161.647L161.857 46.5351L157.672 56H155.932Z" fill="#00C5CA"/>
<path d="M166.424 56.045C165.774 56.045 165.179 55.91 164.639 55.64C164.109 55.36 163.684 54.99 163.364 54.53C163.044 54.07 162.884 53.56 162.884 53C162.884 52.69 162.924 52.4 163.004 52.13C163.094 51.85 163.224 51.595 163.394 51.365C163.574 51.135 163.789 50.925 164.039 50.735C164.289 50.545 164.579 50.375 164.909 50.225L164.819 50.54C164.469 50.41 164.169 50.24 163.919 50.03C163.669 49.81 163.474 49.56 163.334 49.28C163.204 49 163.139 48.695 163.139 48.365C163.139 47.835 163.284 47.355 163.574 46.9251C163.874 46.4951 164.269 46.1501 164.759 45.8901C165.259 45.6301 165.814 45.5001 166.424 45.5001C167.034 45.5001 167.584 45.6301 168.074 45.8901C168.574 46.1501 168.969 46.4951 169.259 46.9251C169.559 47.355 169.709 47.835 169.709 48.365C169.709 48.695 169.644 48.995 169.514 49.265C169.384 49.535 169.194 49.78 168.944 50C168.694 50.21 168.384 50.39 168.014 50.54L167.969 50.285C168.369 50.445 168.719 50.665 169.019 50.945C169.319 51.225 169.554 51.545 169.724 51.905C169.894 52.255 169.979 52.62 169.979 53C169.979 53.57 169.819 54.085 169.499 54.545C169.179 55.005 168.749 55.37 168.209 55.64C167.679 55.91 167.084 56.045 166.424 56.045ZM166.424 54.545C166.794 54.545 167.124 54.475 167.414 54.335C167.714 54.195 167.949 54.005 168.119 53.765C168.289 53.525 168.374 53.25 168.374 52.94C168.374 52.61 168.289 52.32 168.119 52.07C167.949 51.81 167.714 51.605 167.414 51.455C167.124 51.305 166.794 51.23 166.424 51.23C166.054 51.23 165.724 51.305 165.434 51.455C165.144 51.605 164.914 51.81 164.744 52.07C164.574 52.32 164.489 52.61 164.489 52.94C164.489 53.24 164.574 53.51 164.744 53.75C164.914 53.99 165.144 54.185 165.434 54.335C165.724 54.475 166.054 54.545 166.424 54.545ZM166.424 49.79C166.744 49.79 167.029 49.73 167.279 49.61C167.539 49.49 167.739 49.33 167.879 49.13C168.029 48.92 168.104 48.68 168.104 48.41C168.104 48.14 168.029 47.9 167.879 47.69C167.739 47.48 167.539 47.315 167.279 47.195C167.029 47.065 166.744 47 166.424 47C166.104 47 165.814 47.065 165.554 47.195C165.304 47.315 165.104 47.48 164.954 47.69C164.814 47.9 164.744 48.14 164.744 48.41C164.744 48.68 164.814 48.92 164.954 49.13C165.104 49.33 165.304 49.49 165.554 49.61C165.814 49.73 166.104 49.79 166.424 49.79Z" fill="#00C5CA"/>
<path d="M178.4 56L178.34 55.85L181.46 49.22L181.505 50.465C181.275 50.855 181.005 51.195 180.695 51.485C180.385 51.765 180.05 51.98 179.69 52.13C179.33 52.28 178.965 52.355 178.595 52.355C178.025 52.355 177.5 52.205 177.02 51.905C176.54 51.605 176.155 51.205 175.865 50.705C175.575 50.205 175.43 49.66 175.43 49.07C175.43 48.36 175.59 47.725 175.91 47.165C176.23 46.5951 176.665 46.1451 177.215 45.8151C177.775 45.4851 178.4 45.3201 179.09 45.3201C179.59 45.3201 180.06 45.4101 180.5 45.5901C180.94 45.7701 181.325 46.0251 181.655 46.3551C181.985 46.6751 182.245 47.05 182.435 47.48C182.625 47.9 182.72 48.35 182.72 48.83C182.72 49.08 182.695 49.35 182.645 49.64C182.595 49.92 182.51 50.24 182.39 50.6C182.28 50.95 182.13 51.355 181.94 51.815C181.75 52.265 181.515 52.79 181.235 53.39L179.99 56H178.4ZM178.94 50.855C179.33 50.855 179.68 50.77 179.99 50.6C180.3 50.42 180.54 50.185 180.71 49.895C180.89 49.595 180.98 49.26 180.98 48.89C180.98 48.5 180.895 48.15 180.725 47.84C180.555 47.52 180.315 47.27 180.005 47.09C179.705 46.9101 179.36 46.8201 178.97 46.8201C178.61 46.8201 178.29 46.9101 178.01 47.09C177.73 47.26 177.505 47.5 177.335 47.81C177.175 48.11 177.095 48.465 177.095 48.875C177.095 49.225 177.175 49.55 177.335 49.85C177.505 50.15 177.73 50.395 178.01 50.585C178.29 50.765 178.6 50.855 178.94 50.855Z" fill="#00C5CA"/>
<path d="M187.786 56.15C186.986 56.15 186.296 55.93 185.716 55.49C185.146 55.05 184.706 54.43 184.396 53.63C184.086 52.82 183.931 51.86 183.931 50.75C183.931 49.64 184.086 48.685 184.396 47.885C184.706 47.075 185.146 46.4501 185.716 46.0101C186.296 45.5701 186.986 45.3501 187.786 45.3501C188.586 45.3501 189.276 45.5701 189.856 46.0101C190.436 46.4501 190.881 47.075 191.191 47.885C191.501 48.685 191.656 49.64 191.656 50.75C191.656 51.86 191.501 52.82 191.191 53.63C190.881 54.43 190.436 55.05 189.856 55.49C189.276 55.93 188.586 56.15 187.786 56.15ZM187.786 54.68C188.516 54.68 189.081 54.34 189.481 53.66C189.881 52.97 190.081 52 190.081 50.75C190.081 49.5 189.881 48.535 189.481 47.855C189.081 47.165 188.516 46.8201 187.786 46.8201C187.056 46.8201 186.491 47.165 186.091 47.855C185.691 48.535 185.491 49.5 185.491 50.75C185.491 52 185.691 52.97 186.091 53.66C186.491 54.34 187.056 54.68 187.786 54.68Z" fill="#00C5CA"/>
<path d="M194.063 56.165C193.733 56.165 193.478 56.07 193.298 55.88C193.118 55.68 193.028 55.4 193.028 55.04C193.028 54.71 193.123 54.44 193.313 54.23C193.503 54.02 193.753 53.915 194.063 53.915C194.393 53.915 194.648 54.015 194.828 54.215C195.008 54.405 195.098 54.68 195.098 55.04C195.098 55.37 195.003 55.64 194.813 55.85C194.623 56.06 194.373 56.165 194.063 56.165Z" fill="#00C5CA"/>
<path d="M197.476 56.165C197.146 56.165 196.891 56.07 196.711 55.88C196.531 55.68 196.441 55.4 196.441 55.04C196.441 54.71 196.536 54.44 196.726 54.23C196.916 54.02 197.166 53.915 197.476 53.915C197.806 53.915 198.061 54.015 198.241 54.215C198.421 54.405 198.511 54.68 198.511 55.04C198.511 55.37 198.416 55.64 198.226 55.85C198.036 56.06 197.786 56.165 197.476 56.165Z" fill="#00C5CA"/>
<path d="M200.889 56.165C200.559 56.165 200.304 56.07 200.124 55.88C199.944 55.68 199.854 55.4 199.854 55.04C199.854 54.71 199.949 54.44 200.139 54.23C200.329 54.02 200.579 53.915 200.889 53.915C201.219 53.915 201.474 54.015 201.654 54.215C201.834 54.405 201.924 54.68 201.924 55.04C201.924 55.37 201.829 55.64 201.639 55.85C201.449 56.06 201.199 56.165 200.889 56.165Z" fill="#00C5CA"/>
<path d="M187.487 114.917C188.403 118.506 189.905 121.436 192.096 123.977C197.129 129.811 203.549 132.642 211.207 132.077C221.384 131.325 229.018 124.212 231.42 115.342C231.86 113.709 232.149 112.053 232.169 110.348C232.183 109.144 232.4 108.804 232.993 108.766C233.641 108.722 233.844 109.093 233.804 110.457C233.641 115.625 231.966 120.272 228.862 124.375C224.833 129.706 219.434 132.941 212.869 133.768C199.788 135.411 189.373 127.406 186.171 116.421C186.063 116.047 185.91 115.686 185.741 115.213C185.235 115.866 184.811 116.451 184.347 116.996C184.062 117.329 183.658 117.424 183.305 117.105C182.99 116.819 182.882 116.438 183.16 116.05C184.014 114.866 184.869 113.682 185.741 112.508C185.829 112.393 186 112.234 186.273 112.253C186.546 112.272 188.793 113.852 190.054 114.679C190.448 114.938 190.75 115.285 190.455 115.808C190.193 116.275 189.763 116.349 189.162 115.999C188.677 115.717 188.22 115.39 187.491 114.914L187.487 114.917Z" fill="#00C5CA"/>
<path d="M233.257 103.748C233.725 103.098 234.068 102.503 234.536 102.033C234.753 101.816 235.329 101.68 235.54 101.819C235.763 101.965 235.936 102.598 235.804 102.816C235.068 104.01 234.268 105.17 233.417 106.286C233.115 106.681 232.582 106.602 232.175 106.34C231.043 105.612 229.92 104.861 228.801 104.109C228.418 103.854 228.302 103.503 228.563 103.095C228.811 102.71 229.191 102.591 229.588 102.796C230.13 103.078 230.642 103.425 231.344 103.85C231.29 103.411 231.3 103.112 231.209 102.847C228.37 94.392 222.571 89.068 213.923 87.275C202.114 84.829 190.919 92.263 187.805 103.109C187.273 104.959 186.903 106.817 186.869 108.742C186.849 109.865 186.551 110.28 185.933 110.195C185.384 110.12 185.17 109.763 185.228 108.705C185.503 103.503 187.161 98.791 190.356 94.671C194.327 89.544 199.58 86.469 205.943 85.51C217.806 83.72 228.933 90.834 232.538 101.768C232.745 102.401 232.989 103.02 233.254 103.748H233.257Z" fill="#00C5CA"/>
<path d="M223.929 109.518C223.858 117.435 217.597 124.004 209.424 123.987C201.434 123.97 195.01 117.676 195 109.457C194.986 101.367 201.447 94.964 209.485 94.988C217.767 95.015 223.905 101.741 223.932 109.522L223.929 109.518Z" fill="#AAEEEF"/>
<path fill-rule="evenodd" clip-rule="evenodd" d="M210.596 102.673C210.596 102.344 210.329 102.077 209.999 102.077C209.67 102.077 209.403 102.344 209.403 102.673V108.638H203.438C203.109 108.638 202.842 108.905 202.842 109.234C202.842 109.564 203.109 109.831 203.438 109.831H209.403V115.796C209.403 116.126 209.67 116.393 209.999 116.393C210.329 116.393 210.596 116.126 210.596 115.796V109.831H216.56C216.89 109.831 217.157 109.564 217.157 109.234C217.157 108.905 216.89 108.638 216.56 108.638H210.596V102.673Z" fill="#00C5CA"/>
<mask id="mask0_1_33" style="mask-type:alpha" maskUnits="userSpaceOnUse" x="0" y="11" width="50" height="90">
<path fill-rule="evenodd" clip-rule="evenodd" d="M0.201869 11.6594C0.534569 11.2185 1.16164 11.1309 1.60246 11.4636L45.6431 44.7018C47.1748 45.8578 46.3573 48.298 44.4383 48.298H2.75188C2.19959 48.298 1.75188 47.85 1.75188 47.298C1.75188 46.7459 2.19959 46.2982 2.75188 46.2982H44.4383L0.397649 13.06C-0.0431811 12.7273 -0.130831 12.1002 0.201869 11.6594Z" fill="#00C5CA"/>
<path fill-rule="evenodd" clip-rule="evenodd" d="M22.7734 46.2981H37.0362V93.845H22.7734V46.2981ZM24.7734 48.298V91.845H35.0362V48.298H24.7734Z" fill="#00C5CA"/>
<path fill-rule="evenodd" clip-rule="evenodd" d="M1.75195 47.298C1.75195 46.7458 2.19967 46.2981 2.75195 46.2981H9.8833V93.845H2.75195C2.19967 93.845 1.75195 93.398 1.75195 92.845C1.75195 92.293 2.19967 91.845 2.75195 91.845H7.88333V48.298H2.75195C2.19967 48.298 1.75195 47.85 1.75195 47.298Z" fill="#00C5CA"/>
<path fill-rule="evenodd" clip-rule="evenodd" d="M1.75195 92.845C1.75195 92.293 2.19967 91.845 2.75195 91.845H46.2993C47.9562 91.845 49.2993 93.189 49.2993 94.845V97.853C49.2993 99.51 47.9562 100.853 46.2993 100.853H2.75195C2.19967 100.853 1.75195 100.405 1.75195 99.853C1.75195 99.3 2.19967 98.853 2.75195 98.853H46.2993C46.8516 98.853 47.2993 98.405 47.2993 97.853V94.845C47.2993 94.293 46.8516 93.845 46.2993 93.845H2.75195C2.19967 93.845 1.75195 93.398 1.75195 92.845Z" fill="#00C5CA"/>
</mask>
<g mask="url(#mask0_1_33)">
<path d="M2.75189 -0.875H53.5547V107.738H2.75189V-0.875Z" fill="#00C5CA"/>
</g>
</svg>
