<svg width="24" height="24" viewBox="0 0 24 24" fill="none" xmlns="http://www.w3.org/2000/svg">
<path d="M23.0621 10.1876C23.5798 10.1876 23.9995 9.76789 23.9995 9.25013V6.50025C23.9995 6.14589 23.7998 5.82186 23.4832 5.66272L12.4211 0.100399C12.1562 -0.0328153 11.8438 -0.0328153 11.5788 0.100399L0.516708 5.66272C0.200172 5.8219 0.000397655 6.14594 0.000397655 6.50025V9.25013C0.000397655 9.76789 0.420102 10.1876 0.937865 10.1876H1.81285V18.4399C1.41068 18.4667 1.06728 18.7485 0.966785 19.1438L0.0293185 22.8312C-0.121145 23.4229 0.326496 23.9996 0.937865 23.9996H23.0621C23.6727 23.9996 24.1213 23.4237 23.9706 22.8312L23.0332 19.1438C22.9301 18.7384 22.5714 18.4524 22.1558 18.4386V10.1876H23.0621ZM1.87533 7.07816L12 1.98724L22.1246 7.07816V8.31266H1.87533V7.07816ZM8.31259 18.4373V10.1876H15.6561V18.4373H8.31259ZM6.43765 10.1876V18.4373H3.68774V10.1876H6.43765ZM2.14345 22.1247L2.60426 20.3122H21.3956L21.8565 22.1247H2.14345ZM20.2809 18.4373H17.531V10.1876H20.2809V18.4373Z" fill="#0073E6"/>
</svg>
