<svg width="328" height="205" viewBox="0 0 328 205" fill="none" xmlns="http://www.w3.org/2000/svg">
<path fill-rule="evenodd" clip-rule="evenodd" d="M270.6 0.196889C270.6 8.24798 264.073 14.7747 256.022 14.7747C247.971 14.7747 241.444 8.24798 241.444 0.196889C241.444 0.131687 241.445 0.0665858 241.446 0.00158691H14.5778C6.52669 0.00158691 0 6.52828 0 14.5794V190.424C0 198.475 6.52669 205.002 14.5778 205.002H241.462C241.45 204.765 241.444 204.526 241.444 204.286C241.444 196.235 247.971 189.708 256.022 189.708C264.073 189.708 270.6 196.235 270.6 204.286C270.6 204.526 270.594 204.765 270.583 205.002H313.422C321.473 205.002 328 198.475 328 190.424V14.5794C328 6.52829 321.473 0.00158691 313.422 0.00158691H270.599C270.6 0.0665858 270.6 0.131687 270.6 0.196889Z" fill="#DDEBFA"/>
<path d="M256.022 15.2747C264.248 15.2747 270.935 8.68817 271.097 0.501587H313.422C321.197 0.501587 327.5 6.80443 327.5 14.5794V190.424C327.5 198.199 321.197 204.502 313.422 204.502H271.098C271.099 204.43 271.1 204.358 271.1 204.286C271.1 195.959 264.349 189.208 256.022 189.208C247.695 189.208 240.944 195.959 240.944 204.286C240.944 204.358 240.945 204.43 240.946 204.502H14.5778C6.80284 204.502 0.5 198.199 0.5 190.424V14.5794C0.5 6.80442 6.80284 0.501587 14.5778 0.501587H240.947C241.11 8.68817 247.797 15.2747 256.022 15.2747Z" stroke="black" stroke-opacity="0.12" style="mix-blend-mode:multiply"/>
</svg>
