<svg width="328" height="206" viewBox="0 0 328 206" fill="none" xmlns="http://www.w3.org/2000/svg">
  <path d="M14.5781 0.712891H240.947C241.086 9.66255 247.74 16.9502 256.022 16.9502C264.305 16.9501 270.958 9.66246 271.097 0.712891H313.422C321.153 0.712891 327.5 7.61702 327.5 16.2354V189.19C327.5 197.809 321.153 204.713 313.422 204.713H271.097C271.098 204.618 271.1 204.522 271.1 204.426C271.099 195.346 264.393 187.903 256.022 187.903C247.652 187.903 240.945 195.346 240.944 204.426C240.944 204.522 240.947 204.617 240.948 204.713H14.5781C6.8466 204.713 0.5 197.809 0.5 189.19V16.2354C0.5 7.75154 6.64969 0.928677 14.2168 0.717773L14.5781 0.712891Z" fill="#35364C"/>
  <path d="M14.5781 0.712891H240.947C241.086 9.66255 247.74 16.9502 256.022 16.9502C264.305 16.9501 270.958 9.66246 271.097 0.712891H313.422C321.153 0.712891 327.5 7.61702 327.5 16.2354V189.19C327.5 197.809 321.153 204.713 313.422 204.713H271.097C271.098 204.618 271.1 204.522 271.1 204.426C271.099 195.346 264.393 187.903 256.022 187.903C247.652 187.903 240.945 195.346 240.944 204.426C240.944 204.522 240.947 204.617 240.948 204.713H14.5781C6.8466 204.713 0.5 197.809 0.5 189.19V16.2354C0.5 7.75154 6.64969 0.928677 14.2168 0.717773L14.5781 0.712891Z" 
    stroke="#0E0F13" stroke-width="2" style="mix-blend-mode:multiply"/>
</svg>
