<svg fill="none" xmlns="http://www.w3.org/2000/svg" viewBox="0 0 24 24">
  <path
    d="M22.403 0H1.597C.715 0 0 1.15 0 2.567v18.866C0 22.85.715 24 1.597 24h20.806C23.285 24 24 22.85 24 21.433V2.567C24 1.15 23.285 0 22.403 0Z"
    fill="url(#a)"
  />
  <path
    d="M7.147 13.946a1.368 1.368 0 0 1-.57-.65l-.66 2.983H4.8l1.639-7.397c.022-.101.079-.41.17-.924h1.134l-.113.614a9.794 9.794 0 0 0-.078.38c.28-.347.623-.615 1.032-.804.408-.189.83-.283 1.267-.283.756 0 1.303.277 1.64.83.338.554.4 1.314.185 2.28-.217.983-.642 1.765-1.271 2.348-.63.583-1.355.874-2.173.874-.453 0-.814-.083-1.085-.251Zm3.32-4.69c-.196-.37-.566-.555-1.112-.555-.608 0-1.106.207-1.493.62-.388.413-.671 1.021-.849 1.824-.167.753-.147 1.312.058 1.678.205.367.585.55 1.138.55.554 0 1.042-.21 1.44-.632.4-.42.689-1.033.867-1.836.161-.729.145-1.278-.05-1.649ZM17.74 13.139c-.612.608-1.318.912-2.117.912-.737 0-1.243-.26-1.518-.778l-.668 3.017H11.63l1.854-8.367h1.725l-.144.86a2.548 2.548 0 0 1 2.06-.982c.791 0 1.346.278 1.665.835.319.558.38 1.285.18 2.181-.208.94-.618 1.714-1.23 2.322Zm-1.244-.787c.306-.36.526-.842.66-1.447.139-.623.14-1.107.006-1.45-.135-.343-.403-.514-.804-.514s-.776.18-1.112.543c-.335.363-.574.864-.715 1.503-.14.627-.13 1.102.026 1.424.157.321.446.482.867.482.42 0 .767-.18 1.073-.54Z"
    fill="#024FC0"
  />
  <defs>
    <linearGradient
      id="a"
      x1="12"
      y1="0"
      x2="12"
      y2="24"
      gradientUnits="userSpaceOnUse"
    >
      <stop stop-color="#F6E301" />
      <stop offset="1" stop-color="#E9D407" />
    </linearGradient>
  </defs>
</svg>
