<svg fill="none" xmlns="http://www.w3.org/2000/svg" viewBox="0 0 24 24">
  <path fill="#7673C0" d="M8.75415 6.58813h6.48917v11.662H8.75415z" />
  <path
    d="M9.16616 12.4181c-.0018-2.2753 1.04274-4.42514 2.83254-5.82997-3.04065-2.38965-7.4072-2.04157-10.03091.79961-2.62372 2.84116-2.62372 7.22156 0 10.06276 2.62371 2.8412 6.99026 3.1892 10.03091.7996-1.7904-1.4053-2.83497-3.556-2.83254-5.832Z"
    fill="#EB001B"
  />
  <path
    d="M23.2411 17.4813v-.4132h.1534v-.0841h-.3908v.0841h.1535v.4132h.0839Zm.7588 0v-.4981h-.1198l-.1378.3426-.1378-.3426h-.1199v.4981h.0846v-.3758l.1292.324h.0877l.1293-.3248v.3766h.0845ZM23.9986 12.4181c-.0001 2.8395-1.6214 5.4296-4.1754 6.6705-2.554 1.2408-5.5922.9144-7.8244-.8405 1.7891-1.406 2.8336-3.5555 2.8336-5.831 0-2.2754-1.0445-4.42495-2.8336-5.83097 2.2322-1.75494 5.2704-2.0813 7.8244-.84048 2.554 1.24082 4.1753 3.83098 4.1754 6.67045v.002Z"
    fill="#00A1DF"
  />
</svg>
