<svg fill="none" xmlns="http://www.w3.org/2000/svg" viewBox="0 0 48 30">
  <path
    d="M46.272 29.904H1.656c-.888 0-1.584-.72-1.584-1.584V1.632C.072.744.792.048 1.656.048h44.592c.888 0 1.584.72 1.584 1.584V28.32a1.547 1.547 0 0 1-1.56 1.584Z"
    fill="#000"
  />
  <path fill="#000" d="M3.84 2.16h40.397v25.546H3.84z" />
  <path
    fill-rule="evenodd"
    clip-rule="evenodd"
    d="M36.67 24.43v-2.076h-.461v1.2a.91.91 0 0 0-.744-.336 1.206 1.206 0 1 0 0 2.412.91.91 0 0 0 .744-.336v.278h.46V24.43Zm-14.907-1.15h.835l-.002.413h-.835v1.102c0 .23.11.384.35.384a.923.923 0 0 0 .442-.13l.144.408a1.174 1.174 0 0 1-.624.178c-.59 0-.778-.317-.778-.85v-1.087h-.48v-.418h.48v-.696h.468v.696Zm-6.643.852v1.44l-.478.003v-1.323c0-.389-.182-.605-.523-.605a.554.554 0 0 0-.58.61v1.318h-.466v-1.323c0-.389-.187-.605-.519-.605a.552.552 0 0 0-.58.61v1.32h-.466V23.28h.473v.281a.785.785 0 0 1 .691-.336c.308-.013.6.144.758.408a.89.89 0 0 1 .807-.408.838.838 0 0 1 .883.907Zm11.74-.91a.72.72 0 0 0-.623.337v-.279h-.456v2.297h.46v-1.296c0-.38.183-.624.51-.624a.812.812 0 0 1 .311.058l.154-.435a1.067 1.067 0 0 0-.355-.062v.005Zm-7.38 0c.33-.01.654.073.937.24l-.209.382a1.48 1.48 0 0 0-.72-.197c-.274 0-.456.14-.456.284 0 .144.192.21.408.24l.24.033c.497.072.778.238.778.675 0 .436-.368.744-1.03.744a1.714 1.714 0 0 1-.994-.298l.24-.36c.22.165.49.25.764.24.34 0 .542-.115.542-.293 0-.13-.149-.225-.422-.264l-.24-.033c-.514-.072-.773-.298-.773-.672 0-.447.355-.72.936-.72Zm7.897 1.2a1.145 1.145 0 0 0 1.2 1.2 1.2 1.2 0 0 0 .825-.273l-.24-.36a1.01 1.01 0 0 1-.6.206.782.782 0 0 1 0-1.557c.217.002.428.075.6.206l.24-.36a1.2 1.2 0 0 0-.825-.273 1.145 1.145 0 0 0-1.2 1.2v.012Zm-4.366 0c0-.72.463-1.2 1.135-1.2l.008-.002c.645 0 1.082.48 1.082 1.2v.192H23.52c.044.346.345.6.694.588.242-.004.477-.088.667-.24l.24.341a1.397 1.397 0 0 1-.941.322 1.13 1.13 0 0 1-1.169-1.2Zm1.56-.61a.585.585 0 0 0-.421-.162.614.614 0 0 0-.63.58h1.231a.585.585 0 0 0-.18-.417Zm-6.643-.532V25.577h-.46v-.278a.91.91 0 0 1-.745.336 1.206 1.206 0 0 1 0-2.412.91.91 0 0 1 .744.336v-.279h.461Zm-1.86 1.145a.72.72 0 0 1 .72-.778.782.782 0 0 1 0 1.558.72.72 0 0 1-.72-.778v-.002Zm17.11-.864a.72.72 0 0 1 .624-.336v-.005c.12 0 .24.022.355.063l-.154.432a.812.812 0 0 0-.312-.058c-.326 0-.509.245-.509.624v1.296h-.46V23.28h.456v.281Zm4.324 1.685a.24.24 0 0 1 .166.065.223.223 0 0 1-.074.37.227.227 0 0 1-.092.018.24.24 0 0 1-.216-.139.225.225 0 0 1 .05-.25.238.238 0 0 1 .075-.047.237.237 0 0 1 .091-.024v.007Zm.07.391a.172.172 0 0 1-.07.014v-.004a.179.179 0 0 1-.07-.01.18.18 0 0 1-.057-.038.178.178 0 0 1 0-.24.174.174 0 0 1 .058-.039.176.176 0 0 1 .194.039.178.178 0 0 1 0 .24.184.184 0 0 1-.055.038Zm-.055-.271a.096.096 0 0 1 .062.019.06.06 0 0 1 .022.05.058.058 0 0 1-.017.044.085.085 0 0 1-.05.021l.07.08h-.056l-.065-.08h-.021v.08h-.046v-.212l.1-.002Zm-.053.098v-.057l.053.014a.052.052 0 0 1 .029 0 .024.024 0 0 1 0 .022.024.024 0 0 1 0 .021.05.05 0 0 1-.03 0h-.052Zm-5.431-1.034v-1.15h-.461v.279a.91.91 0 0 0-.744-.336 1.206 1.206 0 1 0 0 2.412.91.91 0 0 0 .744-.336v.278h.46V24.43Zm-1.67-.547a.72.72 0 0 0-.19.547v.002a.72.72 0 0 0 .72.778.782.782 0 0 0 0-1.558.72.72 0 0 0-.53.231Zm4.636 0a.72.72 0 0 0-.19.547l-.009-.005a.72.72 0 0 0 .72.775.782.782 0 0 0 .01-1.548.72.72 0 0 0-.531.231Z"
    fill="#fff"
  />
  <path fill="#FF5F00" d="M20.258 5.794h7.56V19.38h-7.56z" />
  <path
    d="M20.738 12.588a8.626 8.626 0 0 1 3.3-6.792 8.64 8.64 0 1 0 0 13.587 8.626 8.626 0 0 1-3.3-6.795Z"
    fill="#EB001B"
  />
  <path
    fill-rule="evenodd"
    clip-rule="evenodd"
    d="M37.265 17.778v.828h-.083v-.828h-.155v-.172h.393v.172h-.155Zm.762-.172v1h-.086v-.757l-.128.65h-.09l-.128-.65v.757h-.083v-1h.12l.138.715.138-.715h.12Z"
    fill="#F79E1B"
  />
  <path
    d="M38.018 12.588a8.64 8.64 0 0 1-13.98 6.792 8.64 8.64 0 0 0 0-13.586 8.64 8.64 0 0 1 13.98 6.792v.002Z"
    fill="#F79E1B"
  />
</svg>
