<svg fill="none" xmlns="http://www.w3.org/2000/svg" viewBox="0 0 48 30">
  <path d="M47.692 0H20v30h27.692V0Z" fill="#1834CB" />
  <path d="M47 19.482H20.695V.692h26.307v18.79Z" fill="#fff" />
  <path
    d="m40.5 4.102-5.162 12.32h-3.37L29.426 6.59c-.153-.604-.288-.826-.755-1.084-.77-.414-2.033-.804-3.147-1.047l.075-.356h5.424c.69 0 1.313.46 1.471 1.255l1.342 7.128 3.317-8.383H40.5Z"
    fill="#1834CB"
  />
  <path
    d="M28.84 22.442h-.926v2.063h.926c.376 0 .664-.076.862-.23.198-.153.297-.42.297-.801 0-.387-.099-.655-.297-.806-.198-.15-.486-.226-.862-.226Zm-1.943 4.925v-5.723h2.094c.411 0 .773.064 1.084.192.311.128.553.326.726.595.174.268.26.611.26 1.027 0 .417-.086.758-.26 1.025a1.541 1.541 0 0 1-.726.591 2.839 2.839 0 0 1-1.084.192h-1.077v2.1h-1.017ZM32.85 25.032h1.679l-.828-2.311h-.015l-.836 2.311Zm-.814 2.335h-.933l2.123-5.723h1.077l2.124 5.723h-1.084l-.558-1.566h-2.191l-.558 1.566ZM38.215 27.367v-2.478l-2.018-3.245h1.122l1.498 2.485h.023l1.484-2.485h.918l-2.018 3.238v2.485h-1.009Z"
    fill="#fff"
  />
</svg>
