<svg width="24" height="24" viewBox="0 0 24 24" fill="none" xmlns="http://www.w3.org/2000/svg">
<rect width="24" height="24" rx="4" fill="url(#paint0_radial_1156:9959)"/>
<g clip-path="url(#clip0_1156:9959)">
<path d="M18.7109 17.2884C18.4425 17.7388 18.1224 18.1642 17.8824 18.6287C17.5877 19.2002 17.2021 19.7147 16.8753 20.2648C16.8488 20.3162 16.8338 20.3725 16.8315 20.4299C16.7774 20.8597 16.7224 21.2894 16.6663 21.7192C16.6617 21.7979 16.6375 21.8743 16.5956 21.9419H15.2587C15.2339 21.7202 15.2876 21.5165 15.3051 21.3133C15.333 20.9985 15.3887 20.6862 15.4326 20.3724C15.4496 20.2503 15.3872 20.1462 15.3474 20.0375C14.9737 19.0192 14.5995 18.0016 14.2247 16.9846C14.2025 16.924 14.1607 16.8655 14.1834 16.7764H15.6561C15.9003 17.427 16.0789 18.1157 16.3612 18.8284C16.7835 18.1277 17.1871 17.4565 17.5975 16.7764H18.9994C18.9576 16.9766 18.81 17.1222 18.7109 17.2884Z" fill="white"/>
<path d="M18.6597 8.58034C18.6125 8.31676 18.4767 8.0757 18.2736 7.89467C17.6325 7.28958 17.0069 6.67048 16.3745 6.05688C15.1047 4.82368 13.8401 3.58547 12.5625 2.36028C12.1671 1.98141 11.6974 1.82075 11.1094 2.29621C10.9283 2.44336 10.7688 2.61452 10.6046 2.77418C10.4668 2.90831 9.63057 3.7191 9.35803 4.00088C8.81758 4.55992 8.24358 5.08944 7.68455 5.63146C6.88756 6.40355 6.09108 7.17597 5.29513 7.94872C5.19688 8.03807 5.11969 8.14693 5.06883 8.26785C5.01796 8.38878 4.99461 8.51893 5.00038 8.64941C4.98696 8.90766 5.12995 9.12637 5.33229 9.32256C5.90629 9.87911 6.46067 10.4562 7.05532 10.9912C7.74649 11.6138 8.36385 12.306 9.0607 12.9241C9.74517 13.5312 10.378 14.1928 11.0372 14.8259C11.1275 14.913 11.192 15.0181 11.3046 15.0922C11.638 15.3154 12.2482 15.1963 12.5548 14.8945C14.1715 13.3029 15.8067 11.7304 17.4369 10.1494C17.7522 9.84307 18.0702 9.53927 18.398 9.24499C18.4942 9.16327 18.5683 9.05999 18.6139 8.94415C18.6595 8.82831 18.6752 8.70342 18.6597 8.58034ZM12.8573 11.4922C12.5671 11.5702 12.2674 11.6094 11.9663 11.6088H9.20833C9.17888 11.6134 9.14876 11.6122 9.11982 11.6051C9.09088 11.5981 9.06374 11.5854 9.04006 11.5678C9.09167 11.2044 9.10716 10.824 9.19491 10.4587C9.30331 10.3941 9.40913 10.4181 9.50927 10.4176C10.2737 10.4146 11.0387 10.4021 11.8032 10.4176C12.3581 10.4296 12.5919 10.2335 12.6492 9.73196C12.6566 9.69944 12.6664 9.66749 12.6787 9.63637H14.2272C14.2726 10.6333 13.6697 11.273 12.8573 11.4922ZM15.3453 9.1524H9.3508C9.40242 8.79455 9.41739 8.45622 9.49069 8.1339C9.59857 8.08085 9.69716 8.10137 9.78698 8.10087C10.5613 8.09687 11.3355 8.09837 12.1098 8.09236C12.2323 8.09352 12.3532 8.06514 12.4616 8.00978C12.5699 7.95441 12.6624 7.8738 12.7307 7.77518C12.799 7.67657 12.8409 7.56305 12.8528 7.44482C12.8646 7.3266 12.8459 7.20738 12.7984 7.09789C12.7752 7.03879 12.7349 6.98743 12.6824 6.94997C12.6298 6.91251 12.5672 6.89054 12.5021 6.88669C12.3908 6.87625 12.279 6.87157 12.1671 6.87267C11.3412 6.87267 10.5179 6.87267 9.6507 6.87267C9.69923 6.45527 9.74413 6.06339 9.78956 5.667C9.99603 5.60344 10.1942 5.63547 10.3878 5.63397C11.0238 5.62896 11.6597 5.64348 12.2951 5.62846C12.7133 5.62528 13.1305 5.66589 13.5397 5.74958C14.0832 5.84968 14.444 6.22054 14.4647 6.8006C14.4793 7.24403 14.3654 7.68254 14.1358 8.06634C15.0196 8.17344 15.4418 8.55782 15.3453 9.1524Z" fill="white"/>
<path d="M9.98021 17.7834C9.90743 17.3329 9.62353 17.0326 9.16515 16.8825C8.922 16.8036 8.66741 16.7629 8.411 16.7619C7.71519 16.7514 7.0173 16.7569 6.32303 16.7574C6.23838 16.7574 6.14908 16.7414 6.07733 16.8074C5.86259 18.5316 5.65096 20.2343 5.43726 21.9489H6.81702C6.92542 21.4369 6.92284 20.9259 7.04414 20.4199C7.43851 20.4315 7.81171 20.4069 8.18801 20.431C8.39449 20.444 8.64381 20.4375 8.8126 20.3269C9.05572 20.1677 9.31072 20.004 9.49345 19.7698C9.95285 19.1752 10.0964 18.5046 9.98021 17.7834ZM8.56225 18.8049C8.4905 19.1132 8.30415 19.2553 7.97689 19.2593C7.72138 19.2638 7.46587 19.2593 7.19642 19.2593C7.18042 19.0161 7.23617 18.8064 7.25423 18.5952C7.2723 18.384 7.31308 18.1838 7.34973 17.9445C7.65324 17.9445 7.9356 17.9325 8.2164 17.948C8.46159 17.9616 8.57773 18.0917 8.60354 18.3339C8.61656 18.492 8.60261 18.6512 8.56225 18.8049Z" fill="white"/>
<path d="M14.1024 21.8254C13.9472 21.0112 13.7914 20.1969 13.6352 19.3825C13.5149 18.7604 13.3911 18.1387 13.2698 17.5166C13.227 17.2694 13.0848 17.0487 12.8744 16.903C12.4712 16.6273 12.0103 16.7184 11.572 16.7249C11.0558 17.8725 10.5551 18.9926 10.0539 20.1142C9.93621 20.3774 9.31369 21.5756 9.26001 21.9975C9.67296 21.9975 10.0761 22.0045 10.4767 21.9935C10.6031 21.9895 10.6831 21.8909 10.7255 21.7723C10.7771 21.6317 10.8168 21.4855 10.9175 21.3584H12.5693C12.6266 21.5586 12.6132 21.7653 12.7066 21.94H14.108C14.1082 21.9017 14.1063 21.8634 14.1024 21.8254V21.8254ZM11.3908 20.1602C11.5911 19.6272 11.8291 19.1332 12.0505 18.6327L12.1145 18.6372C12.2069 19.1377 12.2998 19.6382 12.3958 20.1602H11.3908Z" fill="white"/>
</g>
<defs>
<radialGradient id="paint0_radial_1156:9959" cx="0" cy="0" r="1" gradientUnits="userSpaceOnUse" gradientTransform="translate(3.5 4) rotate(64.0935) scale(19.4551)">
<stop stop-color="#84D9FA"/>
<stop offset="0.478517" stop-color="#41C9F4"/>
<stop offset="1" stop-color="#00ABEA"/>
</radialGradient>
<clipPath id="clip0_1156:9959">
<rect width="14" height="20" fill="white" transform="translate(5 2)"/>
</clipPath>
</defs>
</svg>
