<svg width="24" height="24" viewBox="0 0 24 24" fill="none" xmlns="http://www.w3.org/2000/svg">
<mask id="mask0_406:452" style="mask-type:alpha" maskUnits="userSpaceOnUse" x="0" y="4" width="24" height="17">
<path fill-rule="evenodd" clip-rule="evenodd" d="M2.99109 4C1.34177 4 0 5.29595 0 6.89459V17.5074C0 19.115 1.33916 20.402 2.99109 20.402H21.0089C22.6582 20.402 24 19.1061 24 17.5074V6.89459C24 5.28704 22.6608 4 21.0089 4H2.99109ZM1.5 7.8593V7.30011C1.5 6.30627 2.35307 5.5 3.40059 5.5H20.5994C21.6519 5.5 22.5 6.30032 22.5 7.30011V7.8593H1.5ZM1.5 10.7538V17.1999C1.5 18.1997 2.34807 19 3.40059 19H20.5994C21.6469 19 22.5 18.1937 22.5 17.1999V10.7538H1.5ZM3.88686 12.6834H8.74544V14.1834H3.88686V12.6834Z" fill="white"/>
</mask>
<g mask="url(#mask0_406:452)">
<rect x="-12.3429" y="-5.51999" width="45.2571" height="33.32" fill="#0073E6"/>
</g>
</svg>
