<svg width="24" height="24" viewBox="0 0 24 24" fill="none" xmlns="http://www.w3.org/2000/svg">
<g clip-path="url(#clip0_406:431)">
<path d="M0 4.42105C0 1.97937 1.97937 0 4.42105 0H19.5789C22.0206 0 24 1.97937 24 4.42105V19.5789C24 22.0206 22.0206 24 19.5789 24H4.42105C1.97937 24 0 22.0206 0 19.5789V4.42105Z" fill="#EF373F"/>
<g clip-path="url(#clip1_406:431)">
<path d="M-4 12C-4 6.47717 0.477153 2.00002 6 2.00002H17.6667C23.1895 2.00002 27.6667 6.47717 27.6667 12C27.6667 17.5229 23.1895 22 17.6667 22H5.99999C0.477147 22 -4 17.5229 -4 12Z" fill="white"/>
<path fill-rule="evenodd" clip-rule="evenodd" d="M-4 4.00002C-4 2.89545 -3.10457 2.00002 -2 2.00002H26C27.1046 2.00002 28 2.89545 28 4.00002V20C28 21.1046 27.1046 22 26 22H-2C-3.10457 22 -4 21.1046 -4 20V4.00002Z" fill="#EF373F"/>
<mask id="mask0_406:431" style="mask-type:alpha" maskUnits="userSpaceOnUse" x="-4" y="2" width="32" height="20">
<path fill-rule="evenodd" clip-rule="evenodd" d="M-4 4.00002C-4 2.89545 -3.10457 2.00002 -2 2.00002H26C27.1046 2.00002 28 2.89545 28 4.00002V20C28 21.1046 27.1046 22 26 22H-2C-3.10457 22 -4 21.1046 -4 20V4.00002Z" fill="white"/>
</mask>
<g mask="url(#mask0_406:431)">
<path d="M15.9379 5.72919C16.0705 5.58314 15.9767 5.33335 15.789 5.33335H12.6667L14.4822 7.33335L15.9379 5.72919Z" fill="white"/>
<path d="M11.3333 10.2808L9.23606 8.00001L7.34876 10.0527L5.39137 12.1814C5.314 12.2652 5.314 12.4015 5.39137 12.4853L7.34876 14.6143L9.23606 16.6667L11.3333 14.3859L9.58565 12.4853L9.44576 12.3335L9.58565 12.1814L11.3333 10.2808Z" fill="white"/>
<path d="M14.4826 16.6667L12.6667 18.6667H15.7881C15.9763 18.6667 16.0709 18.4159 15.9377 18.2693L14.4826 16.6667Z" fill="white"/>
<path d="M18.6057 11.8563L16.55 9.79139L14.235 7.46603L12.1726 5.3944C12.1353 5.35697 12.0849 5.33641 12.0324 5.33457C12.0303 5.33457 12.0281 5.33335 12.0257 5.33335H8.20783C8.02303 5.33335 7.93048 5.55794 8.06121 5.68925L9.83009 7.46603L12.0324 9.67848L14.2008 11.8563L14.3474 12.0038L14.2008 12.1511L12.0324 14.3289L9.83009 16.5414L8.06854 18.3108C7.93781 18.4421 8.03036 18.6667 8.21516 18.6667H12.0318H12.0333C12.0883 18.6667 12.1411 18.6446 12.1799 18.6056L14.235 16.5414L16.55 14.2163L18.6057 12.1511C18.687 12.0698 18.687 11.9379 18.6057 11.8563Z" fill="white"/>
</g>
</g>
</g>
<defs>
<clipPath id="clip0_406:431">
<path d="M0 4.42105C0 1.97937 1.97937 0 4.42105 0H19.5789C22.0206 0 24 1.97937 24 4.42105V19.5789C24 22.0206 22.0206 24 19.5789 24H4.42105C1.97937 24 0 22.0206 0 19.5789V4.42105Z" fill="white"/>
</clipPath>
<clipPath id="clip1_406:431">
<path d="M-4 12C-4 6.47717 0.477153 2.00002 6 2.00002H17.6667C23.1895 2.00002 27.6667 6.47717 27.6667 12C27.6667 17.5229 23.1895 22 17.6667 22H5.99999C0.477147 22 -4 17.5229 -4 12Z" fill="white"/>
</clipPath>
</defs>
</svg>
