<svg width="24" height="24" viewBox="0 0 24 24" fill="none" xmlns="http://www.w3.org/2000/svg">
<path fill-rule="evenodd" clip-rule="evenodd"
      d="M1.5 12.082C3.72848 16.2095 7.73195 18.7636 12 18.7636C16.268 18.7636 20.2715 16.2095 22.5 12.082C20.2715 7.95412 16.268 5.4 12 5.4C7.73195 5.4 3.72848 7.95412 1.5 12.082ZM12 4C16.8992 4 21.4769 6.98183 23.9469 11.7816C24.0177 11.919 24.0177 12.081 23.9469 12.2184C21.4769 17.0182 16.8992 20 12 20C7.10079 20 2.52306 17.0182 0.0530941 12.2184C-0.017698 12.081 -0.017698 11.919 0.0530941 11.7816C2.52306 6.98183 7.10079 4 12 4ZM12.0498 15.8C9.98175 15.8 8.3 14.1178 8.3 12.0498C8.3 9.98222 9.98175 8.3 12.0498 8.3C14.1178 8.3 15.8 9.98222 15.8 12.0498C15.8 14.1178 14.1178 15.8 12.0498 15.8ZM11.9998 7C9.24287 7 7 9.24287 7 11.9998C7 14.7571 9.24287 17 11.9998 17C14.7571 17 17 14.7571 17 11.9998C17 9.24287 14.7571 7 11.9998 7ZM11.9998 13.3C11.3105 13.3 10.75 12.739 10.75 12.05C10.75 11.3606 11.3105 10.8 11.9998 10.8C12.6891 10.8 13.25 11.3606 13.25 12.05C13.25 12.739 12.6891 13.3 11.9998 13.3ZM11.9998 9.5C10.6211 9.5 9.5 10.6212 9.5 12C9.5 13.3783 10.6211 14.5 11.9998 14.5C13.3784 14.5 14.5 13.3783 14.5 12C14.5 10.6212 13.3784 9.5 11.9998 9.5Z"
      fill="@fillColor"/>
</svg>
