<svg xmlns="http://www.w3.org/2000/svg" width="103" height="80" viewBox="0 0 103 80">
  <path fill="#E6E9F2" fill-rule="evenodd" d="M279.69986,88.9481304 C279.156067,88.9481304 278.630348,88.6538627 278.360809,88.1398753 C277.974968,87.4022442 278.261009,86.4919762 278.998901,86.1066819 C282.891891,84.0742731 287.283882,83 291.700234,83 L301.666099,83 C302.499863,83 303.174889,83.6748538 303.174889,84.5066504 C303.174889,85.3384471 302.499863,86.0133009 301.666099,86.0133009 L291.700234,86.0133009 C287.712944,86.0133009 283.909538,86.9431867 280.396889,88.7770627 C280.173714,88.8932006 279.934822,88.9481304 279.69986,88.9481304 Z M287.234375,128.559697 C287.235947,128.559697 287.237518,128.559697 287.238304,128.559697 C288.06971,128.559697 288.745522,129.231412 288.747093,130.061639 C288.749451,130.89422 288.075996,131.570644 287.243019,131.572998 L287.206871,131.572998 L287.202942,131.572998 C286.371536,131.572998 285.695724,130.901283 285.694153,130.070271 C285.69101,129.238475 286.36525,128.562051 287.198227,128.559697 L287.234375,128.559697 Z M309.712974,128.559697 C309.714546,128.559697 309.716118,128.559697 309.71769,128.559697 C310.549095,128.559697 311.224121,129.231412 311.226479,130.061639 C311.228836,130.89422 310.554596,131.570644 309.721619,131.572998 L309.68547,131.572998 L309.681541,131.572998 C308.850136,131.572998 308.17511,130.901283 308.172752,130.070271 C308.170395,129.238475 308.843849,128.562051 309.676827,128.559697 L309.712974,128.559697 Z M290.38633,143.909483 C291.208305,143.778436 291.982345,144.337937 292.114365,145.159532 C292.614937,148.292895 295.284393,150.566995 298.459923,150.566995 C301.636238,150.566995 304.304909,148.292895 304.806267,145.159532 C304.9375,144.337937 305.71154,143.778436 306.533516,143.909483 C307.356278,144.040531 307.917358,144.813474 307.785339,145.635069 C307.049019,150.238985 303.127739,153.580296 298.459923,153.580296 C293.792892,153.580296 289.870827,150.238985 289.134506,145.635069 C289.002487,144.813474 289.563568,144.040531 290.38633,143.909483 Z M297.067436,143.652097 C295.986137,143.652097 294.959847,143.184408 294.252602,142.367521 C293.545357,141.551418 293.227882,140.470868 293.383476,139.402087 L294.775963,129.805823 C295.039215,127.99078 296.622658,126.622239 298.459923,126.622239 C300.296402,126.622239 301.880631,127.99078 302.143883,129.805823 L303.536369,139.402087 C303.691177,140.470083 303.374489,141.551418 302.667244,142.367521 C301.959213,143.184408 300.933708,143.652097 299.852409,143.652097 L297.067436,143.652097 Z M296.369621,139.83368 C296.329544,140.111469 296.455277,140.305293 296.534645,140.395535 C296.613228,140.486562 296.786896,140.638796 297.067436,140.638796 L299.852409,140.638796 C300.13295,140.638796 300.306618,140.486562 300.385201,140.395535 C300.464569,140.305293 300.590302,140.111469 300.550224,139.83368 L299.157738,130.2382 C299.107445,129.894495 298.808044,129.63554 298.459923,129.63554 C298.111801,129.63554 297.811615,129.894495 297.762108,130.2382 L296.369621,139.83368 Z M314.993736,127.655707 C314.710052,127.655707 314.423225,127.575666 314.168617,127.409307 C311.369499,125.579354 307.937004,126.468435 307.902428,126.477852 C307.100098,126.703064 306.26712,126.23616 306.042374,125.434967 C305.816841,124.633774 306.284408,123.801977 307.086739,123.576765 C307.279266,123.523404 311.842567,122.28591 315.821213,124.888806 C316.518242,125.34394 316.713913,126.278534 316.257347,126.974575 C315.967377,127.415584 315.484879,127.655707 314.993736,127.655707 Z M282.752014,127.409307 C282.49662,127.575666 282.209793,127.655707 281.926109,127.655707 C281.434181,127.655707 280.952469,127.415584 280.662498,126.973791 C280.205933,126.277749 280.400818,125.34394 281.097847,124.888021 C285.077278,122.28591 289.640579,123.522619 289.833107,123.576765 C290.635437,123.801977 291.103005,124.633774 290.877472,125.434967 C290.652725,126.233806 289.823677,126.70071 289.022919,126.479421 C288.958481,126.462157 285.548775,125.579354 282.752014,127.409307 Z M338.16465,159.986699 C338.997627,159.986699 339.673439,160.661553 339.673439,161.49335 C339.673439,162.325146 338.997627,163 338.16465,163 L323.446884,163 C323.046898,163 322.663414,162.841488 322.380516,162.558206 L316.864006,157.049515 C313.552528,160.300585 309.018303,162.30082 304.040085,162.30082 L292.879761,162.30082 C288.767525,162.30082 284.730728,160.895398 281.511192,158.343509 C280.85817,157.825597 280.74894,156.878448 281.267586,156.226351 C281.785446,155.575038 282.734726,155.465178 283.386963,155.98309 C286.113785,158.144191 289.396187,159.287519 292.879761,159.287519 L304.040085,159.287519 C308.188469,159.287519 311.967514,157.624711 314.73127,154.919802 L311.261841,151.455291 C310.67247,150.86754 310.67247,149.913328 311.261841,149.324793 C311.850426,148.736258 312.805992,148.736258 313.395363,149.324793 L316.675407,152.600188 C318.186554,150.384157 319.133476,147.748303 319.295357,144.891945 L320.652481,120.940911 L314.94973,120.940911 C311.049667,120.940911 307.535446,119.260839 305.09388,116.586534 C302.582375,119.337741 298.999001,120.940911 295.230957,120.940911 L276.267365,120.940911 L277.624489,144.891945 C277.74865,147.078157 278.324661,149.166281 279.337593,151.098246 C279.72422,151.835092 279.438965,152.746145 278.701073,153.13144 C278.477898,153.248362 278.23822,153.304077 278.002472,153.304077 C277.458679,153.304077 276.933746,153.009809 276.664207,152.495821 C275.45089,150.180916 274.760147,147.680033 274.611626,145.062228 L274.364876,140.710205 C273.56176,140.935418 272.730354,141.050771 271.880089,141.050771 C270.261284,141.050771 268.739136,140.630164 267.416588,139.893318 L263.625755,143.678778 C263.342857,143.961274 262.958588,144.120571 262.558601,144.120571 L248.508789,144.120571 C247.675812,144.120571 247,143.445717 247,142.613921 C247,141.78134 247.675812,141.10727 248.508789,141.10727 L261.933868,141.10727 L265.042603,138.002943 C263.575462,136.374661 262.681191,134.222192 262.681191,131.864912 C262.681191,128.733904 264.259132,125.965433 266.661407,124.306548 C265.077965,121.771923 264.246559,118.872405 264.246559,115.846549 L264.246559,110.41476 C264.246559,102.870522 267.409515,95.5813159 272.923668,90.4163299 C273.531899,89.8474125 274.486679,89.8780162 275.056404,90.4845999 C275.626915,91.0911838 275.596268,92.0453957 274.988823,92.6143132 C270.007462,97.2794365 267.264137,103.601091 267.264137,110.41476 L267.264137,115.846549 C267.264137,118.424334 268.009102,120.888335 269.419662,123.015694 C270.203918,122.798329 271.028252,122.679837 271.880089,122.679837 C272.37516,122.679837 272.866302,122.719072 273.350372,122.796759 L273.245072,120.940911 L272.276932,120.940911 C270.697418,120.940911 269.411804,119.657904 269.411804,118.080629 L269.411804,108.601287 C269.411804,107.768706 270.087616,107.094636 270.920593,107.094636 C271.754356,107.094636 272.429382,107.768706 272.429382,108.601287 L272.429382,117.92761 L295.230957,117.92761 C298.363266,117.92761 301.330551,116.494723 303.283333,114.067603 C302.220108,112.156825 301.612663,109.959626 301.612663,107.622749 C301.612663,106.790952 302.287689,106.116098 303.121452,106.116098 C303.95443,106.116098 304.630241,106.790952 304.630241,107.622749 C304.630241,113.304861 309.259552,117.92761 314.94973,117.92761 L324.489677,117.92761 L324.489677,108.601287 C324.489677,107.768706 325.165489,107.094636 325.998466,107.094636 C326.83223,107.094636 327.507256,107.768706 327.507256,108.601287 L327.507256,118.080629 C327.507256,119.657904 326.222427,120.940911 324.642914,120.940911 L323.674774,120.940911 L323.569473,122.798329 C324.053543,122.720642 324.5439,122.679837 325.039757,122.679837 C325.891594,122.679837 326.715927,122.798329 327.499397,123.015694 C328.910744,120.888335 329.654923,118.424334 329.654923,115.846549 L329.654923,110.41476 C329.654923,103.647389 326.85109,97.4379488 322.291718,92.9760662 L318.104042,97.1578058 C317.809357,97.4520736 317.422729,97.5995997 317.036888,97.5995997 C316.651047,97.5995997 316.26442,97.4520736 315.97052,97.1578058 C315.381149,96.5700553 315.381149,95.6158433 315.97052,95.0273081 L320.005745,90.9970181 C316.713913,88.4867187 312.756485,86.7870286 308.415573,86.22125 C307.589668,86.1129596 307.006584,85.3572802 307.115028,84.5317613 C307.222687,83.7070271 307.980225,83.1255542 308.80613,83.2330599 C313.827568,83.8875113 318.391655,85.8932397 322.154198,88.8523952 L325.550545,85.4608624 C325.832657,85.1783654 326.216927,85.0198534 326.616913,85.0198534 L341.02742,85.0198534 C341.860397,85.0198534 342.536209,85.6939223 342.536209,86.5265038 C342.536209,87.3583002 341.860397,88.0331543 341.02742,88.0331543 L327.241646,88.0331543 L324.423668,90.8471378 C329.532333,95.8583198 332.672501,102.824224 332.672501,110.41476 L332.672501,115.846549 C332.672501,118.872405 331.841095,121.771923 330.258438,124.306548 C332.660713,125.965433 334.238655,128.733904 334.238655,131.864912 C334.238655,136.930239 330.111488,141.051556 325.039757,141.051556 C324.198921,141.051556 323.361229,140.931494 322.554184,140.706282 L322.307434,145.062228 C322.102333,148.687605 320.845009,152.017931 318.84272,154.765214 L324.071617,159.986699 L338.16465,159.986699 Z M271.880089,138.038255 C272.680847,138.038255 273.456459,137.886805 274.18885,137.591753 L273.527183,125.919135 C272.992821,125.771609 272.44117,125.693138 271.880089,125.693138 C268.471954,125.693138 265.698769,128.461608 265.698769,131.864912 C265.698769,133.391964 266.257492,134.78954 267.180054,135.867736 L269.854225,133.19814 C270.44281,132.609605 271.398376,132.609605 271.987747,133.19814 C272.577118,133.785891 272.577118,134.740103 271.987747,135.328638 L269.680557,137.632558 C270.364227,137.893867 271.105263,138.038255 271.880089,138.038255 Z M325.039757,125.693138 C324.47789,125.693138 323.926239,125.767685 323.392662,125.914427 L322.730995,137.590968 C323.461815,137.88602 324.235855,138.038255 325.039757,138.038255 C328.447891,138.038255 331.221077,135.269 331.221077,131.865696 C331.221077,128.462393 328.447891,125.693138 325.039757,125.693138 Z M260.991661,152.853651 C261.825424,152.853651 262.50045,153.528505 262.50045,154.360301 C262.50045,155.192098 261.825424,155.866952 260.991661,155.866952 L249.040794,155.866952 C248.207817,155.866952 247.532005,155.192098 247.532005,154.360301 C247.532005,153.528505 248.207817,152.853651 249.040794,152.853651 L260.991661,152.853651 Z M258.27977,157.280221 C259.112747,157.280221 259.788559,157.955075 259.788559,158.786872 C259.788559,159.619453 259.112747,160.293522 258.27977,160.293522 L249.040794,160.293522 C248.207817,160.293522 247.532005,159.619453 247.532005,158.786872 C247.532005,157.955075 248.207817,157.280221 249.040794,157.280221 L258.27977,157.280221 Z M249.040794,150.375525 C248.207031,150.375525 247.532005,149.700671 247.532005,148.868874 L247.532005,148.847687 C247.532005,148.01589 248.207817,147.341037 249.040794,147.341037 C249.873772,147.341037 250.549583,148.01589 250.549583,148.847687 L250.549583,148.868874 C250.549583,149.700671 249.873772,150.375525 249.040794,150.375525 Z M253.557732,150.364539 C252.727898,150.364539 252.053658,149.694393 252.049728,148.864166 L252.049728,148.843763 C252.045799,148.011182 252.717682,147.333974 253.551445,147.330051 C254.385208,147.325342 255.062592,147.997842 255.067306,148.829639 L255.067306,148.850826 C255.07045,149.682622 254.398567,150.359831 253.56559,150.364539 L253.557732,150.364539 Z M344.781057,150.139059 C345.61482,150.139059 346.289846,150.813913 346.289846,151.64571 C346.289846,152.478291 345.61482,153.15236 344.781057,153.15236 L332.83019,153.15236 C331.997213,153.15236 331.321401,152.478291 331.321401,151.64571 C331.321401,150.813913 331.997213,150.139059 332.83019,150.139059 L344.781057,150.139059 Z M342.069165,154.566414 C342.902143,154.566414 343.577955,155.240483 343.577955,156.073065 C343.577955,156.904861 342.902143,157.579715 342.069165,157.579715 L332.83019,157.579715 C331.996427,157.579715 331.321401,156.904861 331.321401,156.073065 C331.321401,155.240483 331.996427,154.566414 332.83019,154.566414 L342.069165,154.566414 Z M332.83019,147.660933 C331.99957,147.660933 331.32533,146.990787 331.321401,146.161345 L331.321401,146.140158 C331.317472,145.308361 331.99014,144.630368 332.823118,144.626445 C332.825475,144.626445 332.827832,144.626445 332.83019,144.626445 C333.660024,144.626445 334.33505,145.29659 334.338979,146.126033 L334.338979,146.14722 C334.342908,146.979017 333.67024,147.657009 332.837262,147.660933 L332.83019,147.660933 Z M337.347127,147.649947 C336.517293,147.649947 335.843053,146.979802 335.839124,146.150359 L335.839124,146.129172 C335.835195,145.297375 336.507078,144.619382 337.340841,144.615459 C338.167531,144.608396 338.852773,145.28325 338.856702,146.115047 L338.856702,146.136234 C338.860631,146.968031 338.187963,147.646023 337.354985,147.649947 L337.347127,147.649947 Z M348.491211,96.1125673 C349.324188,96.1125673 350,96.7874209 350,97.6192177 C350,98.451799 349.324188,99.1258682 348.491211,99.1258682 L336.540344,99.1258682 C335.706581,99.1258682 335.031555,98.451799 335.031555,97.6192177 C335.031555,96.7874209 335.706581,96.1125673 336.540344,96.1125673 L348.491211,96.1125673 Z M345.77932,100.539922 C346.612297,100.539922 347.288109,101.214776 347.288109,102.046573 C347.288109,102.878369 346.612297,103.553223 345.77932,103.553223 L336.540344,103.553223 C335.706581,103.553223 335.031555,102.878369 335.031555,102.046573 C335.031555,101.214776 335.706581,100.539922 336.540344,100.539922 L345.77932,100.539922 Z M335.031555,92.1073882 C335.031555,91.2748067 335.706581,90.6007377 336.540344,90.6007377 C337.373322,90.6007377 338.049133,91.2748067 338.049133,92.1073882 L338.049133,92.1277906 C338.049133,92.9595872 337.373322,93.6344411 336.540344,93.6344411 C335.706581,93.6344411 335.031555,92.9595872 335.031555,92.1277906 L335.031555,92.1073882 Z M341.058067,90.588967 C341.887901,90.588967 342.562141,91.2591124 342.566071,92.0885551 L342.566071,92.1097422 C342.57,92.9415388 341.898117,93.6195315 341.064354,93.623455 L341.057281,93.623455 C340.227448,93.623455 339.552422,92.9533095 339.548492,92.1238671 L339.548492,92.1026798 C339.544563,91.2708832 340.217232,90.5928905 341.050209,90.588967 C341.052567,90.588967 341.054924,90.588967 341.058067,90.588967 Z" transform="translate(-247 -83)"/>
</svg>
