<svg xmlns="http://www.w3.org/2000/svg" width="66" height="80" viewBox="0 0 66 80">
  <path fill="#E6E9F2" d="M32.9612803,50.5668459 L30.9775562,45.1149451 C30.1953905,42.9653063 31.3065142,40.5802484 33.4544495,39.7982252 C35.6023847,39.0162021 37.9861727,40.1288278 38.7683385,42.2784666 L40.5593882,47.2008376 C42.7177384,53.1326663 46.9735265,58.0327673 52.5429941,60.9982192 L60.22198,65.0871032 C60.867158,65.4306556 61.1119524,66.2324068 60.7688957,66.8780812 C60.4259444,67.5235293 59.6248138,67.7682386 58.97947,67.4247466 L51.3004841,63.3358626 C45.1529989,60.0623369 40.4553809,54.6537194 38.0729684,48.1060967 L36.2819186,43.1837257 C35.9990037,42.4061862 35.136797,42.0037538 34.3598737,42.2866171 C33.5829503,42.5694804 33.1810612,43.4321465 33.4639761,44.209686 L35.4477001,49.6615868 C38.1037922,56.9613674 43.3509545,62.972296 50.2228638,66.5873874 L57.6865527,70.5138085 C58.3333117,70.8539673 58.5822655,71.6547678 58.2423745,72.3019197 C58.0830681,72.6054654 57.8226815,72.8210674 57.5243111,72.9296984 C57.186158,73.0528137 56.7994119,73.0382528 56.4558164,72.8574982 L48.9922933,68.9310167 C41.5363079,65.008742 35.8430644,58.4868997 32.9612803,50.5668459 Z M25.6731938,47.0461645 C23.8259474,41.9693473 26.4500841,36.3365654 31.5228779,34.4896558 C36.5956717,32.6427462 42.2254545,35.2704301 44.0727009,40.3472473 L45.8637506,45.2696182 C47.5441576,49.8879077 50.8574905,53.7027686 55.1934662,56.011513 L60.652673,58.9184773 C61.297851,59.2620297 61.5426455,60.0637809 61.1995888,60.7094553 C60.8564717,61.3549637 60.0553861,61.599281 59.410163,61.2561207 L53.9509562,58.3491564 C49.0368575,55.7325644 45.2816342,51.4090212 43.377165,46.1749377 L41.5861152,41.2525667 C40.2381197,37.5478488 36.1299182,35.6303583 32.4281363,36.9781081 C28.7263544,38.3258578 26.8114524,42.4362479 28.159448,46.1409658 L30.143172,51.5928666 C33.2807082,60.2158081 39.4792202,67.3168169 47.5970851,71.5872718 L53.8944912,74.9003367 C54.541416,75.2404351 54.7903698,76.0412356 54.4504788,76.6883875 C54.2911724,76.9919332 54.0307857,77.2075352 53.7324153,77.3161662 C53.3942622,77.4392815 53.0075162,77.4247206 52.6639207,77.243966 L46.3663489,73.9309615 C37.6647394,69.3532026 31.0202669,61.7416118 27.6569179,52.4980653 L25.6731938,47.0461645 Z M20.3688315,48.9773839 C17.4565044,40.9733884 21.5936539,32.0928824 29.5913063,29.1810864 C37.5889587,26.2692904 46.4647362,30.4120323 49.3770633,38.4160279 L51.168113,43.3383988 C52.3705163,46.6429833 54.7414545,49.3727699 57.844104,51.0247464 L62.7596198,53.6421376 C63.4047978,53.98569 63.6495922,54.7874413 63.3065355,55.4331156 C62.9635842,56.0785637 62.1621671,56.3230016 61.5171098,55.979781 L56.601594,53.3623899 C52.9208215,51.4025657 50.1081588,48.1640364 48.6816932,44.2436579 L46.8906434,39.3212869 C44.4775672,32.6893907 37.1233709,29.2568421 30.4967305,31.6694783 C23.87009,34.0821145 20.4421751,41.4402286 22.8552513,48.0721248 L24.8389754,53.5240256 C28.4581369,63.4706257 35.6080435,71.6613227 44.971638,76.5870355 L46.7144744,77.5039262 C47.3612938,77.8442508 47.6101872,78.6448854 47.2702962,79.2920374 C47.1109295,79.5954172 46.8504374,79.8112453 46.5522328,79.9198161 C46.2140797,80.0429313 45.8273336,80.0283704 45.4837381,79.8476158 L43.7410674,78.9306648 C33.7935023,73.6975425 26.1976352,64.9962635 22.3527212,54.4292243 L20.3689972,48.9773235 L20.3688315,48.9773839 Z M54.6814256,36.4848085 C54.9315038,37.1721023 54.5775112,37.9316618 53.8909278,38.181634 C53.2043444,38.4316062 52.4450839,38.0773614 52.1950058,37.3900676 C50.6705733,33.200445 47.6781258,29.7066792 43.7686732,27.5522544 C39.8955976,25.4178383 35.3981854,24.7373303 31.105029,25.6360825 C30.3898546,25.7858092 29.688603,25.3268426 29.5388142,24.6113015 C29.388965,23.8955946 29.8481391,23.1944932 30.5624091,23.0443444 C35.474471,22.0160736 40.6177034,22.7932276 45.044726,25.2330213 C49.5153164,27.6965932 52.9377598,31.6926633 54.6814256,36.4848085 Z M53.9860555,42.3124385 C53.7359774,41.6251447 54.08997,40.8655853 54.7765534,40.615613 C55.4631368,40.3656408 56.2223973,40.7198856 56.4724754,41.4071795 C57.1969355,43.3982248 58.6251924,45.0426656 60.4943499,46.0379347 L64.8667476,48.3662956 C65.5118653,48.7096821 65.7566597,49.5114334 65.413603,50.1571077 C65.2537677,50.4576522 64.9948873,50.6712027 64.698506,50.7791096 C64.3583638,50.9029491 63.9687989,50.8873479 63.6241773,50.7037731 L59.2518399,48.3755781 C56.8047251,47.072401 54.9345779,44.9192779 53.9860555,42.3124385 Z M23.3369616,66.0492415 C23.9384812,65.6341038 24.7620057,65.784221 25.1778637,66.3854194 C26.2754223,67.9732884 27.4811274,69.5101354 28.7620429,70.9529061 C29.2474473,71.4996642 29.1981034,72.3365518 28.651808,72.8219485 C28.5231323,72.936242 28.3785727,73.0208113 28.2260723,73.0763338 C27.7312748,73.2564804 27.1549814,73.1290726 26.7838334,72.7111133 C25.4321352,71.1883428 24.15976,69.566805 23.0015284,67.8911223 C22.5860019,67.2898032 22.7362411,66.4650275 23.3369616,66.0492415 Z M16.2784915,33.7710287 C16.6219401,33.1253995 17.4233121,32.8813537 18.068219,33.2251927 C18.7131259,33.5690317 18.9575888,34.3709037 18.6141852,35.0161407 C16.1544161,39.6375213 15.7669465,45.0999905 17.5510547,50.0032838 L19.5347787,55.4551846 C20.2876691,57.5243654 21.188909,59.5575705 22.2136799,61.498457 C22.5550591,62.145183 22.308064,62.9460068 21.6620496,63.2873548 C21.6074277,63.3162593 21.5516284,63.3408958 21.4951038,63.3614754 C20.883776,63.5840484 20.1865491,63.3265154 19.8741322,62.7346233 C18.793141,60.6872058 17.8423555,58.5425975 17.0482985,56.3602778 L15.0646348,50.9085429 C13.0239448,45.3005974 13.4665093,39.0541924 16.2784915,33.7710287 Z M21.7550459,30.7333154 C21.6124277,30.8784232 21.4447122,30.9834467 21.2655242,31.0486857 C20.8008952,31.2178485 20.259852,31.1181865 19.8839327,30.7479924 C19.3630197,30.2352037 19.3562359,29.3967704 19.8685738,28.8758303 C21.3492302,27.3701632 23.0434839,26.1012226 24.9042516,25.1041861 C25.5495561,24.7593392 26.3502284,25.0019419 26.6952841,25.6463899 C27.0403397,26.290838 26.7980778,27.0933202 26.1540094,27.4384685 C24.5284689,28.3096592 23.0485677,29.4180834 21.7550459,30.7333154 Z M25.7281631,18.5639476 C26.1932894,18.3946038 26.6684282,18.2362684 27.1406953,18.0932567 C27.8400466,17.8814701 28.5787378,18.2772081 28.7905395,18.9769347 C29.0022358,19.6768876 28.608687,20.4185352 27.9077519,20.6275167 C27.4818089,20.7564808 27.0532346,20.8993659 26.6336927,21.0521133 C14.1575008,25.594462 7.70339447,39.4480844 12.2466319,51.9343373 L14.230356,57.3862381 C14.4804341,58.073532 14.1264415,58.8330914 13.4398581,59.0830636 C12.7532747,59.3330358 11.9940143,58.9787911 11.7439361,58.2914972 L9.76027244,52.8397623 C4.71767867,38.9816363 11.8809593,23.6054562 25.7281631,18.5639476 Z M41.7775498,20.365632 C41.5327204,20.4547698 41.258921,20.472544 40.9878545,20.4008368 C38.395727,19.7144399 35.7331113,19.4668311 33.0734546,19.6643346 C32.3447177,19.718489 31.7098472,19.171103 31.6555615,18.4420202 C31.6012758,17.7129375 32.1484383,17.0782447 32.8766022,17.0235475 C35.8303127,16.8040892 38.7867181,17.0790613 41.6637948,17.840753 C42.3703043,18.0278371 42.7916739,18.7525255 42.6048779,19.4592901 C42.4900023,19.8952641 42.1709015,20.22242 41.7775498,20.365632 Z M59.2904179,40.3812192 L57.4993682,35.4588482 C55.3933515,29.6708486 51.1974515,24.9559754 45.6844838,22.1824332 C45.031626,21.8538884 44.7681906,21.0581725 45.0962475,20.4048084 C45.4243045,19.7514444 46.2196845,19.4883509 46.8724819,19.8167298 C52.990881,22.8947526 57.6479828,28.1285612 59.985788,34.5535891 L61.7768378,39.4759601 C62.0232943,40.1533003 62.5091565,40.7126669 63.1447616,41.0510626 L65.2979379,42.1974886 C65.943116,42.541041 66.1879104,43.3427923 65.8447933,43.9883007 C65.6851842,44.2889508 65.426138,44.5025617 65.1297567,44.6104686 C64.7896145,44.734308 64.4002757,44.7188124 64.0554883,44.535298 L61.902312,43.3888719 C60.688463,42.7422968 59.7608763,41.6741876 59.2904179,40.3812192 Z M2.50974419,44.5087269 C2.39769688,39.9568676 3.23160846,35.5041618 4.98830927,31.274209 C5.26883534,30.5990733 6.04301402,30.2792596 6.71777966,30.5601878 C7.3925453,30.8411159 7.71221881,31.6159809 7.43191886,32.2912222 C5.81827372,36.1765785 5.052111,40.2655141 5.15491678,44.444248 C5.16931727,45.0275996 4.80429759,45.5319142 4.28529888,45.7208719 C4.15385015,45.7687299 4.01241484,45.7963645 3.86484956,45.7999291 C3.13449867,45.8176609 2.52769281,45.2395793 2.50974419,44.5087269 Z M14.5646238,18.461818 C15.132966,18.0029624 15.9661992,18.0920568 16.4251026,18.6614264 C16.8839457,19.2306301 16.7948865,20.0641297 16.2261524,20.5229401 C13.826378,22.4598057 11.7474464,24.7568587 10.0472194,27.350762 C9.88460233,27.5987766 9.65307479,27.7740002 9.39448712,27.8681471 C9.01555673,28.0061086 8.57843122,27.9696859 8.21511097,27.7311099 C7.60401421,27.3300606 7.43369538,26.5090846 7.83434151,25.8978645 C9.68584465,23.0737901 11.950171,20.571718 14.5646238,18.461818 Z M46.8502884,16.4925718 C39.794806,13.3784819 31.9290437,13.112544 24.7020157,15.7437701 C23.360012,16.2323686 22.0457399,16.8203984 20.7957406,17.4911738 C20.1517181,17.8379962 19.3497945,17.594534 19.0041812,16.9501011 C18.6585679,16.3056683 18.9003325,15.5033671 19.5442198,15.1577211 C20.905587,14.427236 22.3362342,13.787067 23.7965915,13.2553782 C31.6680995,10.389509 40.2344797,10.6787873 47.9175215,14.0699508 C55.57667,17.4506509 61.5566587,23.5522863 64.7558733,31.2509992 C65.0364812,31.9262383 64.7170097,32.7012218 64.042422,32.9815824 C64.0237217,32.9895181 64.0049456,32.9967299 63.9860488,33.0036098 C63.3251584,33.2442277 62.5854611,32.923628 62.3126235,32.2671647 C59.3758356,25.199398 53.8845306,19.5972987 46.8502884,16.4925718 Z M21.8650199,7.94680877 C24.6451688,6.93460841 27.5328808,6.24846433 30.4478173,5.90748134 C31.1735862,5.82246977 31.8308108,6.34255439 31.9159318,7.06867682 C32.0008871,7.79485961 31.4814216,8.45253339 30.7557582,8.53731871 C28.0445954,8.85483622 25.3579784,9.49312773 22.7704441,10.4352007 C13.6542343,13.7542426 6.4672942,20.4872783 2.53365429,29.3936367 C2.38202221,29.7368468 2.10273461,29.9835653 1.77601904,30.1025164 C1.46621112,30.2153116 1.11401496,30.2131584 0.788672823,30.0691559 C0.120305919,29.7733109 -0.182204104,28.9914455 0.113291123,28.3228834 C2.16286052,23.6823301 5.05586685,19.5654553 8.71192439,16.0871943 C12.4987782,12.4844744 16.9241721,9.74567929 21.8650199,7.94680877 Z M55.4286805,13.2746531 C55.2660844,13.535623 55.0275076,13.7203642 54.7593057,13.8180115 C54.3901553,13.9524123 53.9652404,13.9216889 53.6060563,13.6975759 C48.4149153,10.4583651 42.4577477,8.60403694 36.3785816,8.33465468 C35.6485849,8.30228423 35.0826956,7.68394335 35.1148153,6.95346111 C35.146935,6.22297887 35.7648898,5.65644661 36.4946757,5.68926954 C43.0277045,5.97864801 49.42869,7.97085404 55.005413,11.4504928 C55.6257274,11.8376656 55.815125,12.6543254 55.4286805,13.2746531 Z M39.5089692,2.78639725 C39.3276263,2.85242082 39.1289787,2.87965607 38.9242656,2.85875066 C32.769521,2.23513467 26.6847771,2.99824646 20.8388725,5.12663128 C17.7925109,6.23575471 14.8889174,7.69907242 12.2091744,9.47579168 C11.6002944,9.87895531 10.7791741,9.71274541 10.3754752,9.10317486 C9.97177626,8.49360432 10.1381737,7.67196346 10.7473699,7.2681211 C13.6005813,5.37639329 16.6913226,3.81863687 19.9334483,2.63823937 C26.1567915,0.372436218 32.6355172,-0.439806617 39.1898305,0.224324502 C39.9168315,0.297989664 40.4467437,0.947464605 40.3733564,1.67493617 C40.3207357,2.1973963 39.9711117,2.61813976 39.5089692,2.78639725 Z M7.61407472,13.0193967 C6.51826156,13.9968115 5.46337026,15.0459352 4.47867179,16.1373238 C4.32903967,16.3033964 4.14675617,16.4225537 3.95049476,16.4940088 C3.50492832,16.6562313 2.98665066,16.5727038 2.61015706,16.2324021 C2.06782235,15.7422543 2.02491228,14.9051382 2.5144972,14.362423 C3.56288693,13.2005025 4.68617304,12.0834555 5.85312606,11.0425661 C6.39860705,10.555963 7.2348513,10.6043206 7.72117453,11.1499927 C8.20739236,11.6958911 8.15945031,12.5330198 7.61407472,13.0193967 Z"/>
</svg>
