<svg width="48" height="48" viewBox="0 0 48 48" fill="none" xmlns="http://www.w3.org/2000/svg">
<g clip-path="url(#clip0_19587_80249)">
<rect x="3.18945" y="0.0273438" width="23.7838" height="23.7838" rx="11.8919" fill="#AAEEEF"/>
<path fill-rule="evenodd" clip-rule="evenodd" d="M12.0788 4.71387C10.4206 4.71387 9.07642 6.05809 9.07642 7.71628V16.123C9.07642 17.7812 10.4206 19.1254 12.0788 19.1254H18.0836C19.7418 19.1254 21.086 17.7812 21.086 16.123V7.71628C21.086 6.05809 19.7418 4.71387 18.0836 4.71387H12.0788ZM10.2774 7.71628C10.2774 6.72136 11.0839 5.91483 12.0788 5.91483H18.0836C19.0786 5.91483 19.8851 6.72136 19.8851 7.71628V14.0286C19.6032 14.2229 19.0333 14.3216 18.3415 14.3216H11.8207C11.291 14.3216 10.6187 14.5146 10.2774 14.7458V7.71628ZM10.2774 16.077V16.123C10.2774 17.1179 11.0839 17.9245 12.0788 17.9245H18.0836C19.0786 17.9245 19.8851 17.1179 19.8851 16.123V15.3C19.4482 15.4764 18.919 15.5225 18.3421 15.5225H11.8214C11.1288 15.5225 10.5589 15.786 10.2774 16.077ZM11.4783 8.31676C11.4783 7.98512 11.7472 7.71628 12.0788 7.71628H17.4832C17.8148 7.71628 18.0836 7.98512 18.0836 8.31676C18.0836 8.64839 17.8148 8.91724 17.4832 8.91724H12.0788C11.7472 8.91724 11.4783 8.64839 11.4783 8.31676ZM12.0788 9.51772C11.7472 9.51772 11.4783 9.78656 11.4783 10.1182C11.4783 10.4498 11.7472 10.7187 12.0788 10.7187H15.6817C16.0134 10.7187 16.2822 10.4498 16.2822 10.1182C16.2822 9.78656 16.0134 9.51772 15.6817 9.51772H12.0788Z" fill="#00C5CA"/>
<path d="M30 12.3242C30 7.35366 34.0294 3.32422 39 3.32422C43.9706 3.32422 48 7.35366 48 12.3242C48 17.2948 43.9706 21.3242 39 21.3242C34.0294 21.3242 30 17.2948 30 12.3242Z" fill="#AAEEEF"/>
<path fill-rule="evenodd" clip-rule="evenodd" d="M37.7538 17.3149C38.1493 17.6149 38.632 17.7775 39.1285 17.778C39.6249 17.7775 40.1076 17.6149 40.5032 17.3149C40.8987 17.0149 41.1855 16.5939 41.3198 16.116C43.5157 16.6098 45.0617 13.9228 43.5107 12.3127C45.0449 10.6839 43.543 7.94004 41.313 8.49345C41.1714 8.02431 40.8824 7.61323 40.489 7.32104C40.0956 7.02886 39.6185 6.87109 39.1285 6.87109C38.6384 6.87109 38.1614 7.02886 37.7679 7.32104C37.3745 7.61323 37.0856 8.02431 36.944 8.49345C34.7481 7.92411 33.1966 10.6952 34.744 12.2931C34.41 12.6542 34.2 13.1125 34.1447 13.6012C34.0893 14.0899 34.1914 14.5836 34.4362 15.0102C34.681 15.4368 35.0555 15.7742 35.5054 15.9731C35.9552 16.172 36.4568 16.222 36.9371 16.116C37.0715 16.5939 37.3582 17.0149 37.7538 17.3149ZM37.6299 15.1807C37.5445 15.0953 37.4287 15.0474 37.308 15.0474C37.2271 15.0473 37.1476 15.0689 37.0778 15.1097C35.4712 15.8666 34.1815 13.6548 35.7052 12.6931C35.7762 12.6533 35.8354 12.5953 35.8766 12.525C35.9177 12.4548 35.9394 12.3748 35.9394 12.2933C35.9394 12.2119 35.9177 12.1319 35.8766 12.0616C35.8354 11.9914 35.7762 11.9333 35.7052 11.8935C34.1851 10.9879 35.4876 8.63407 37.0805 9.52608C37.1497 9.56606 37.2283 9.58709 37.3083 9.58705C37.3882 9.58701 37.4668 9.5659 37.536 9.52585C37.6052 9.4858 37.6626 9.42822 37.7025 9.35891C37.7424 9.2896 37.7633 9.21101 37.7632 9.13105C37.7632 8.76894 37.907 8.42167 38.163 8.16563C38.4191 7.90958 38.7664 7.76573 39.1285 7.76573C39.4906 7.76573 39.8379 7.90958 40.0939 8.16563C40.35 8.42167 40.4938 8.76894 40.4938 9.13105C40.4935 9.21121 40.5144 9.29003 40.5543 9.35953C40.5943 9.42904 40.6519 9.48675 40.7213 9.52684C40.7907 9.56693 40.8695 9.58798 40.9497 9.58784C41.0298 9.58771 41.1085 9.5664 41.1778 9.52608C42.7894 8.6318 44.0596 11.0029 42.5518 11.9172C42.4807 11.9569 42.4216 12.0149 42.3804 12.0852C42.3392 12.1554 42.3174 12.2353 42.3174 12.3168C42.3174 12.3982 42.3392 12.4782 42.3804 12.5484C42.4216 12.6186 42.4807 12.6766 42.5518 12.7164C44.0919 13.6616 42.7566 15.872 41.1792 15.1097C41.11 15.0692 41.0314 15.0476 40.9512 15.0472C40.8711 15.0468 40.7922 15.0676 40.7226 15.1074C40.6531 15.1473 40.5953 15.2048 40.5551 15.2742C40.5149 15.3436 40.4938 15.4223 40.4938 15.5025C40.4938 15.8646 40.35 16.2119 40.0939 16.4679C39.8379 16.724 39.4906 16.8678 39.1285 16.8678C38.7664 16.8678 38.4191 16.724 38.163 16.4679C37.907 16.2119 37.7632 15.8646 37.7632 15.5025C37.7632 15.3818 37.7152 15.266 37.6299 15.1807ZM40.0271 12.3246C40.0271 12.8265 39.6201 13.2335 39.1182 13.2335C38.6162 13.2335 38.2092 12.8265 38.2092 12.3246C38.2092 11.8226 38.6162 11.4156 39.1182 11.4156C39.6201 11.4156 40.0271 11.8226 40.0271 12.3246Z" fill="#00C5CA"/>
<path d="M0 30.8103C0 26.1904 3.74513 22.4453 8.36499 22.4453C12.9848 22.4453 16.73 26.1904 16.73 30.8103C16.73 35.4302 12.9848 39.1753 8.36499 39.1753C3.74513 39.1753 0 35.4302 0 30.8103Z" fill="#AAEEEF"/>
<path fill-rule="evenodd" clip-rule="evenodd" d="M9.38723 30.4389C9.38723 31.4853 8.98773 32.4368 8.33125 33.1518C7.67477 32.4368 7.27527 31.4853 7.27527 30.4389C7.27527 29.3926 7.67477 28.441 8.33125 27.726C8.98773 28.441 9.38723 29.3926 9.38723 30.4389ZM9.20766 33.4229C10.0029 33.2898 10.7646 32.9166 11.3782 32.303C12.118 31.5631 12.5084 30.6078 12.5498 29.638C11.7255 29.6732 10.9116 29.9605 10.2316 30.5003C10.218 31.6015 9.8379 32.6145 9.20766 33.4229ZM10.1466 29.5273C9.96215 28.5558 9.48833 27.6867 8.81818 27.0131C8.54825 26.7417 8.11425 26.7417 7.84432 27.0131C7.18274 27.6781 6.7125 28.5336 6.5231 29.4901C5.75628 29.0253 4.88863 28.7918 4.02049 28.7896C3.63776 28.7886 3.33088 29.0955 3.33186 29.4782C3.33506 30.7171 3.8093 31.9551 4.75457 32.9004C5.10917 33.255 5.50494 33.5433 5.92651 33.7653H3.71878C3.4855 33.7653 3.29639 33.9544 3.29639 34.1877C3.29639 34.421 3.4855 34.6101 3.71878 34.6101H13.0114C13.2446 34.6101 13.4338 34.421 13.4338 34.1877C13.4338 33.9544 13.2446 33.7653 13.0114 33.7653H10.8036C11.2251 33.5433 11.6209 33.255 11.9755 32.9004C12.9208 31.9551 13.395 30.7171 13.3982 29.4782C13.3992 29.0955 13.0923 28.7886 12.7096 28.7896C11.8186 28.7919 10.9281 29.0378 10.1466 29.5273ZM6.4305 30.4475C6.43243 31.5628 6.81024 32.5899 7.44402 33.409C6.67722 33.265 5.94528 32.8964 5.35192 32.303C4.61204 31.5631 4.22165 30.6078 4.1803 29.638C4.9773 29.672 5.76457 29.9417 6.4305 30.4475Z" fill="#00C5CA"/>
<path d="M16.8918 35C16.8918 27.8203 22.7121 22 29.8918 22C37.0715 22 42.8918 27.8203 42.8918 35C42.8918 42.1797 37.0715 48 29.8918 48C22.7121 48 16.8918 42.1797 16.8918 35Z" fill="#AAEEEF"/>
<path fill-rule="evenodd" clip-rule="evenodd" d="M27.5944 29.0924C27.5944 28.7298 27.8882 28.4359 28.2508 28.4359H31.533C31.8955 28.4359 32.1894 28.7298 32.1894 29.0924V29.7488H27.5944V29.0924ZM26.2815 29.7488L25.2968 29.7488C23.4841 29.7488 22.0146 31.2183 22.0146 33.031V35.0003V36.3131V39.5953C22.0146 41.408 23.4841 42.8775 25.2968 42.8775H34.4869C36.2996 42.8775 37.7691 41.408 37.7691 39.5953V36.3131V35.0003V33.031C37.7691 31.2183 36.2996 29.7488 34.4869 29.7488L33.5023 29.7488V29.0924C33.5023 28.0047 32.6206 27.123 31.533 27.123H28.2508C27.1632 27.123 26.2815 28.0047 26.2815 29.0924V29.7488ZM23.3275 36.3131L23.3275 39.5953C23.3275 40.6829 24.2092 41.5646 25.2968 41.5646H34.4869C35.5745 41.5646 36.4562 40.6829 36.4562 39.5953V36.3131H30.5483V36.9696C30.5483 37.3321 30.2544 37.626 29.8919 37.626C29.5293 37.626 29.2354 37.3321 29.2354 36.9696V36.3131H23.3275ZM36.4562 35.0003V33.031C36.4562 31.9433 35.5745 31.0617 34.4869 31.0617L25.2968 31.0617C24.2092 31.0617 23.3275 31.9433 23.3275 33.031L23.3275 35.0003H36.4562Z" fill="#00C5CA"/>
</g>
<defs>
<clipPath id="clip0_19587_80249">
<rect width="48" height="48" fill="white"/>
</clipPath>
</defs>
</svg>
