<svg width="48" height="48" viewBox="0 0 48 48" fill="none" xmlns="http://www.w3.org/2000/svg">
<path fill-rule="evenodd" clip-rule="evenodd" d="M47.6348 15.5574C47.8779 15.1283 47.9995 14.6598 47.9995 14.1556C47.9995 13.6192 47.8636 13.1257 47.5954 12.6787C47.3272 12.2316 46.9661 11.9026 46.5155 11.6881C46.6228 11.3984 46.6764 11.0766 46.6764 10.719C46.6764 9.95724 46.4225 9.30639 45.9112 8.76997C45.3998 8.22998 44.7848 7.96177 44.066 7.96177C43.7406 7.96177 43.4366 8.02257 43.147 8.14058C42.9217 7.67926 42.5927 7.30377 42.1708 7.02126C41.7488 6.73875 41.2804 6.5957 40.7762 6.5957C40.272 6.5957 39.8071 6.73875 39.3816 7.02484C38.956 7.31092 38.6306 7.68284 38.4053 8.14416C38.1157 8.02614 37.8082 7.96535 37.4863 7.96535C36.7676 7.96535 36.1489 8.23713 35.634 8.77355C35.1191 9.30997 34.8616 9.96082 34.8616 10.7225C34.8616 11.0444 34.9224 11.3698 35.0404 11.6917C34.5898 11.9062 34.2287 12.2352 33.9605 12.6822C33.6923 13.1292 33.5564 13.6227 33.5564 14.1592C33.5564 14.6634 33.678 15.1319 33.9176 15.561C34.1607 15.9901 34.4861 16.3227 34.8938 16.5587C34.8723 16.7125 34.8616 16.8305 34.8616 16.9128C34.8616 17.6745 35.1191 18.3253 35.634 18.8617C36.1489 19.4017 36.7676 19.6699 37.4863 19.6699C37.8117 19.6699 38.1157 19.6091 38.4053 19.4911C38.6306 19.9668 38.9524 20.3422 39.3744 20.6212C39.7928 20.9037 40.2612 21.0432 40.7762 21.0432C41.2911 21.0432 41.7452 20.9037 42.1708 20.614C42.5963 20.3279 42.9217 19.956 43.147 19.4947C43.4366 19.6127 43.7442 19.6735 44.066 19.6735C44.7848 19.6735 45.3998 19.4053 45.9112 18.8653C46.419 18.3289 46.6764 17.6816 46.6764 16.9163C46.6764 16.7554 46.6693 16.6374 46.6585 16.5623C47.0662 16.3299 47.3916 15.9937 47.6348 15.5646V15.5574ZM44.2126 13.0363C44.4486 12.8002 44.4486 12.4212 44.2126 12.1852C43.9766 11.9491 43.5976 11.9491 43.3616 12.1852L39.5747 15.9722L37.5936 13.9911C37.3576 13.7551 36.9785 13.7551 36.7425 13.9911C36.5065 14.2271 36.5065 14.6062 36.7425 14.8422L38.7236 16.8234C39.192 17.2918 39.9573 17.2918 40.4257 16.8234L44.2126 13.0363Z" fill="#00C5CA"/>
<path d="M4.65689 21.0398H10.2031C10.643 21.0398 10.997 20.6822 10.997 20.2459V17.1455C10.997 16.7056 10.6394 16.3516 10.2031 16.3516H4.65689C4.21705 16.3516 3.86304 16.7092 3.86304 17.1455V20.2459C3.86304 20.6858 4.22063 21.0398 4.65689 21.0398ZM7.4318 17.4995C8.09334 17.4995 8.62615 18.0359 8.62615 18.6939C8.62615 19.3519 8.08977 19.8883 7.4318 19.8883C6.77383 19.8883 6.23744 19.3519 6.23744 18.6939C6.23744 18.0359 6.77383 17.4995 7.4318 17.4995Z" fill="#00C5CA"/>
<path d="M10.5887 22.3877H4.47391C3.98759 22.3877 3.59424 22.7811 3.59424 23.2674V32.8156C3.59424 33.302 3.98759 33.6953 4.47391 33.6953H10.5887C11.075 33.6953 11.4684 33.302 11.4684 32.8156V23.2674C11.4684 22.7811 11.075 22.3877 10.5887 22.3877ZM7.53132 26.2034C8.13565 26.2034 8.62555 26.6933 8.62555 27.2977C8.62555 27.902 8.13565 28.392 7.53132 28.392C6.92699 28.392 6.43709 27.902 6.43709 27.2977C6.43709 26.6933 6.92699 26.2034 7.53132 26.2034ZM7.53132 32.6189H5.09255C5.34644 29.429 7.53132 29.1716 7.53132 29.1716C7.53132 29.1716 9.71978 29.4326 9.97009 32.6189H7.53132Z" fill="#00C5CA"/>
<path d="M7.43093 19.8927C8.09247 19.8927 8.62528 19.3563 8.62528 18.6983C8.62528 18.0403 8.0889 17.5039 7.43093 17.5039C6.77296 17.5039 6.23657 18.0403 6.23657 18.6983C6.23657 19.3563 6.77296 19.8927 7.43093 19.8927Z" fill="#AAEEEF"/>
<path d="M8.98008 35.3311H4.48516C4.2067 35.3311 3.98096 35.5568 3.98096 35.8353C3.98096 36.1138 4.2067 36.3395 4.48516 36.3395H8.98008C9.25855 36.3395 9.48429 36.1138 9.48429 35.8353C9.48429 35.5568 9.25855 35.3311 8.98008 35.3311Z" fill="#00C5CA"/>
<path d="M24.7557 23.1436H13.2698C12.9909 23.1436 12.7656 23.3688 12.7656 23.6478C12.7656 23.9267 12.9909 24.152 13.2698 24.152H24.7557C25.0346 24.152 25.2599 23.9267 25.2599 23.6478C25.2599 23.3688 25.0346 23.1436 24.7557 23.1436Z" fill="#00C5CA"/>
<path d="M22.367 24.8271H13.2698C12.9909 24.8271 12.7656 25.0524 12.7656 25.3314C12.7656 25.6103 12.9909 25.8356 13.2698 25.8356H22.367C22.6459 25.8356 22.8712 25.6103 22.8712 25.3314C22.8712 25.0524 22.6459 24.8271 22.367 24.8271Z" fill="#00C5CA"/>
<path d="M13.2698 27.5192H17.0889C17.3678 27.5192 17.5931 27.2939 17.5931 27.015C17.5931 26.736 17.3678 26.5107 17.0889 26.5107H13.2698C12.9909 26.5107 12.7656 26.736 12.7656 27.015C12.7656 27.2939 12.9909 27.5192 13.2698 27.5192Z" fill="#00C5CA"/>
<path d="M21.6661 28.1924H13.2698C12.9909 28.1924 12.7656 28.4177 12.7656 28.6966C12.7656 28.9755 12.9909 29.2008 13.2698 29.2008H21.6661C21.945 29.2008 22.1703 28.9755 22.1703 28.6966C22.1703 28.4177 21.945 28.1924 21.6661 28.1924Z" fill="#00C5CA"/>
<path d="M18.8053 29.877H13.2698C12.9909 29.877 12.7656 30.1022 12.7656 30.3812C12.7656 30.6601 12.9909 30.8854 13.2698 30.8854H18.8053C19.0843 30.8854 19.3095 30.6601 19.3095 30.3812C19.3095 30.1022 19.0843 29.877 18.8053 29.877Z" fill="#00C5CA"/>
<path d="M25.5821 16.8193H13.6993C13.1808 16.8193 12.7625 17.2377 12.7625 17.7563C12.7625 18.2748 13.1808 18.6932 13.6993 18.6932H25.5821C26.1006 18.6932 26.519 18.2748 26.519 17.7563C26.519 17.2377 26.1006 16.8193 25.5821 16.8193Z" fill="#00C5CA"/>
<path d="M28.3743 17.7579C28.3743 18.2764 28.7927 18.6948 29.3112 18.6948H33.4521C33.3162 18.3372 33.2232 17.9653 33.1731 17.5755C32.9586 17.3466 32.7691 17.0892 32.5974 16.8174H29.3112C28.7927 16.8174 28.3743 17.2358 28.3743 17.7543V17.7579Z" fill="#00C5CA"/>
<path d="M5.09204 32.6192H7.53081V29.1719C7.53081 29.1719 5.34236 29.4329 5.09204 32.6192Z" fill="#AAEEEF"/>
<path d="M7.53125 29.1689V32.6163H9.97002C9.71613 29.4264 7.53125 29.1689 7.53125 29.1689Z" fill="#AAEEEF"/>
<path d="M7.53124 28.3917C8.13557 28.3917 8.62547 27.9018 8.62547 27.2974C8.62547 26.6931 8.13557 26.2031 7.53124 26.2031C6.92691 26.2031 6.43701 26.6931 6.43701 27.2974C6.43701 27.9018 6.92691 28.3917 7.53124 28.3917Z" fill="#AAEEEF"/>
<path d="M32.0298 12.7295C31.9154 13.1229 31.8504 13.5311 31.8325 13.9531H2.69287C1.82408 13.9531 1.11598 14.6605 1.11572 15.5293V38.5312C1.11572 39.4002 1.82392 40.1084 2.69287 40.1084H40.9761C41.845 40.1084 42.5532 39.4002 42.5532 38.5312V22.9766C42.6842 22.934 42.8154 22.889 42.9429 22.8359C43.1968 22.9396 43.4621 23.0219 43.7339 23.0791V39.2891C43.7339 40.4549 42.789 41.4033 41.6196 41.4033H2.11377C0.948022 41.4033 0.000488281 40.4584 0.000488281 39.2891V14.8428C0.000694881 13.6771 0.944574 12.7295 2.11377 12.7295H32.0298Z" fill="#AAEEEF"/>
<path d="M31.8608 14.6719C31.9288 15.3583 32.1261 16.0087 32.4692 16.6201C32.5085 16.6916 32.5582 16.7564 32.6011 16.8242H29.3149C28.7965 16.8243 28.3784 17.2432 28.3784 17.7617C28.3786 18.28 28.7966 18.6982 29.3149 18.6982H33.4556C33.688 19.3098 34.0389 19.8642 34.5073 20.3506C35.4192 21.3018 36.585 21.8093 37.8794 21.8164C38.0975 22.0309 38.3369 22.2278 38.5942 22.3994L38.5913 22.4033C39.3635 22.9252 40.2394 23.1894 41.1938 23.1895C41.412 23.1895 41.6235 23.1683 41.8345 23.1396V38.5381C41.8345 39.0137 41.4478 39.4004 40.9722 39.4004H2.69189C2.21651 39.4001 1.83057 39.0136 1.83057 38.5381V15.5332C1.83069 15.0578 2.21659 14.6721 2.69189 14.6719H31.8608ZM4.48779 35.3311C4.20888 35.3311 3.98292 35.556 3.98291 35.835C3.98291 36.1139 4.20887 36.3389 4.48779 36.3389H8.979C9.25784 36.3388 9.48291 36.1138 9.48291 35.835C9.4829 35.5561 9.25784 35.3312 8.979 35.3311H4.48779ZM4.47314 22.3887C3.98683 22.3887 3.59326 22.7822 3.59326 23.2686V32.8164C3.59326 33.3027 3.98683 33.6963 4.47314 33.6963H10.5884C11.0745 33.6961 11.4673 33.3026 11.4673 32.8164V23.2686C11.4673 22.7823 11.0745 22.3889 10.5884 22.3887H4.47314ZM13.27 29.877C12.9911 29.877 12.7661 30.1029 12.7661 30.3818C12.7663 30.6606 12.9912 30.8857 13.27 30.8857H18.8052C19.084 30.8857 19.3098 30.6606 19.3101 30.3818C19.3101 30.1029 19.0841 29.877 18.8052 29.877H13.27ZM13.27 28.1963C12.9912 28.1963 12.7664 28.4215 12.7661 28.7002C12.7661 28.9791 12.9911 29.2051 13.27 29.2051H21.6665C21.9453 29.2049 22.1704 28.979 22.1704 28.7002C22.1702 28.4216 21.9451 28.1965 21.6665 28.1963H13.27ZM13.2661 26.5117C12.9873 26.5118 12.7622 26.7377 12.7622 27.0166C12.7624 27.2953 12.9874 27.5204 13.2661 27.5205H17.0854C17.3643 27.5205 17.5892 27.2954 17.5894 27.0166C17.5894 26.7377 17.3644 26.5117 17.0854 26.5117H13.2661ZM13.27 24.8281C12.9911 24.8281 12.7661 25.0531 12.7661 25.332C12.7662 25.6109 12.9911 25.8359 13.27 25.8359H22.3667C22.6456 25.8359 22.8715 25.6109 22.8716 25.332C22.8716 25.0531 22.6456 24.8281 22.3667 24.8281H13.27ZM13.27 23.1465C12.9911 23.1465 12.7661 23.3724 12.7661 23.6514C12.7662 23.9302 12.9912 24.1553 13.27 24.1553H24.7554C25.0342 24.1553 25.2602 23.9302 25.2603 23.6514C25.2603 23.3724 25.0343 23.1465 24.7554 23.1465H13.27ZM4.65576 16.3525C4.2195 16.3525 3.86182 16.7066 3.86182 17.1465V20.2471C3.862 20.6832 4.21604 21.041 4.65576 21.041H10.2017C10.6378 21.041 10.9954 20.6868 10.9956 20.2471V17.1465C10.9956 16.7102 10.6415 16.3525 10.2017 16.3525H4.65576ZM13.6987 16.8242C13.1804 16.8244 12.7622 17.2433 12.7622 17.7617C12.7624 18.28 13.1805 18.6981 13.6987 18.6982H25.5815C26.0999 18.6982 26.5188 18.2801 26.519 17.7617C26.519 17.2432 26.1 16.8242 25.5815 16.8242H13.6987Z" fill="#AAEEEF"/>
<path d="M31.833 13.9531C31.8294 14.021 31.8252 14.0893 31.8252 14.1572C31.8252 14.3287 31.8396 14.5001 31.8574 14.668H2.69238C2.21682 14.668 1.83105 15.0547 1.83105 15.5303V38.5352C1.8311 39.0107 2.21685 39.3964 2.69238 39.3965H40.9727C41.4482 39.3965 41.8339 39.0107 41.834 38.5352V23.1367C42.0771 23.1045 42.3174 23.0546 42.5498 22.9795V38.5352C42.5498 39.4041 41.8416 40.1123 40.9727 40.1123H2.69238C1.8235 40.1123 1.11528 39.4041 1.11523 38.5352V15.5303C1.11523 14.6613 1.82347 13.9532 2.69238 13.9531H31.833Z" fill="#00C5CA"/>
</svg>
