<svg width="48" height="48" viewBox="0 0 48 48" fill="none" xmlns="http://www.w3.org/2000/svg">
<g clip-path="url(#clip0_19587_80201)">
<rect y="9" width="25.2188" height="16.8966" rx="1.51313" fill="#AAEEEF"/>
<rect x="0.882686" y="9.88293" width="23.4535" height="15.1313" rx="1.38704" stroke="#00C5CA" stroke-width="0.252188"/>
<path d="M4.53931 15.0527C5.42937 15.0528 6.15251 15.7759 6.15259 16.666C6.15259 17.2883 5.79831 17.8276 5.28149 18.0967C6.1692 18.4049 6.80867 19.2478 6.80884 20.2393C6.80884 20.3274 6.73771 20.3992 6.64966 20.3994C6.56138 20.3994 6.4895 20.3275 6.4895 20.2393C6.48929 19.1643 5.61433 18.2892 4.53931 18.2891C3.46417 18.2891 2.58835 19.1642 2.58813 20.2393C2.58813 20.3275 2.51722 20.3994 2.42896 20.3994C2.34068 20.3994 2.26978 20.3275 2.26978 20.2393C2.26994 19.2479 2.90866 18.4051 3.79614 18.0967C3.27982 17.8274 2.92603 17.288 2.92603 16.666C2.9261 15.7759 3.64915 15.0527 4.53931 15.0527ZM4.53931 15.373C3.82573 15.373 3.24451 15.9534 3.24438 16.667C3.24438 17.3806 3.82565 17.9619 4.53931 17.9619C5.25287 17.9618 5.83325 17.3806 5.83325 16.667C5.83313 15.9535 5.25279 15.3732 4.53931 15.373Z" fill="#00C5CA"/>
<line x1="1.00879" y1="22.4921" x2="24.2101" y2="22.4921" stroke="#00C5CA" stroke-width="0.252188"/>
<rect x="1.76538" y="11.2686" width="10.8441" height="0.756565" rx="0.378282" fill="#00C5CA"/>
<rect x="1.76538" y="12.5303" width="8.07002" height="0.756565" rx="0.378282" fill="#00C5CA"/>
<path d="M21.4037 11.351C21.3834 11.3398 21.3618 11.3348 21.3408 11.335C21.2746 11.3355 21.2139 11.3872 21.2143 11.4593L21.218 12.1192L20.2733 11.6021C20.2529 11.5908 20.2313 11.5858 20.2103 11.586C20.1441 11.5865 20.084 11.6382 20.0838 11.7103L20.0818 13.8852C20.0818 13.9833 20.127 14.0689 20.2239 14.1219L21.0731 14.588C21.0936 14.5992 21.1152 14.6042 21.1361 14.6041C21.2023 14.6036 21.2626 14.5518 21.2626 14.4797V12.2495L21.7116 12.4934C21.8086 12.546 21.8537 12.6319 21.8537 12.73V14.0368L22.6935 14.4966C22.7139 14.5078 22.7355 14.5128 22.7565 14.5127C22.8227 14.5122 22.883 14.4604 22.883 14.3883L22.8839 12.3203C22.8839 12.2222 22.8386 12.1366 22.7418 12.0836L21.4037 11.351Z" fill="#00C5CA"/>
<rect x="4.58521" y="12.4385" width="30.7964" height="20.6336" rx="1.84776" fill="#AAEEEF"/>
<rect x="5.66326" y="13.5163" width="28.6406" height="18.4778" rx="1.69378" stroke="#00C5CA" stroke-width="0.30796"/>
<path d="M10.1279 19.8301C11.215 19.8301 12.0986 20.7137 12.0986 21.8008C12.0986 22.5604 11.6668 23.2191 11.0361 23.5479C12.1198 23.9246 12.9003 24.9535 12.9004 26.1641C12.9004 26.2719 12.8129 26.3594 12.7051 26.3594C12.5974 26.3592 12.5107 26.2717 12.5107 26.1641C12.5107 24.8511 11.4418 23.7824 10.1289 23.7822C8.81587 23.7822 7.74715 24.851 7.74707 26.1641C7.74707 26.2719 7.65956 26.3594 7.55176 26.3594C7.44398 26.3594 7.35742 26.2718 7.35742 26.1641C7.35748 24.9536 8.13725 23.9247 9.2207 23.5479C8.59031 23.219 8.1582 22.5602 8.1582 21.8008C8.1582 20.7138 9.04103 19.8303 10.1279 19.8301ZM10.1279 20.2217C9.25674 20.2219 8.54803 20.9306 8.54785 21.8018C8.54785 22.6731 9.25663 23.3826 10.1279 23.3828C10.9994 23.3828 11.709 22.6733 11.709 21.8018C11.7088 20.9304 10.9993 20.2217 10.1279 20.2217Z" fill="#00C5CA"/>
<line x1="5.81689" y1="28.9144" x2="34.1496" y2="28.9144" stroke="#00C5CA" stroke-width="0.30796"/>
<rect x="6.74097" y="15.2109" width="13.2424" height="0.923892" rx="0.461946" fill="#00C5CA"/>
<rect x="6.74097" y="16.751" width="9.85485" height="0.923892" rx="0.461946" fill="#00C5CA"/>
<path d="M30.7224 15.3097C30.6976 15.296 30.6712 15.2899 30.6456 15.29C30.5648 15.2907 30.4907 15.3538 30.4912 15.4419L30.4957 16.2477L29.342 15.6162C29.3171 15.6025 29.2907 15.5964 29.2651 15.5966C29.1843 15.5972 29.1108 15.6604 29.1107 15.7484L29.1082 18.4043C29.1082 18.5242 29.1634 18.6286 29.2817 18.6933L30.3188 19.2625C30.3437 19.2762 30.3701 19.2823 30.3957 19.2822C30.4765 19.2816 30.5502 19.2184 30.5502 19.1303V16.4068L31.0984 16.7047C31.2169 16.7689 31.2719 16.8738 31.2719 16.9937V18.5895L32.2975 19.1509C32.3225 19.1646 32.3488 19.1707 32.3744 19.1705C32.4552 19.1699 32.5289 19.1067 32.5289 19.0187L32.53 16.4933C32.53 16.3735 32.4747 16.269 32.3565 16.2043L30.7224 15.3097Z" fill="#00C5CA"/>
<rect x="11.4631" y="17.0244" width="36.5369" height="24.4797" rx="2.19225" fill="#AAEEEF"/>
<rect x="12.7427" y="18.3028" width="33.9793" height="21.9221" rx="2.00956" stroke="#00C5CA" stroke-width="0.365375"/>
<path d="M18.04 25.793C19.3297 25.793 20.3777 26.8403 20.3779 28.1299C20.3779 29.0306 19.8657 29.8119 19.1182 30.2021C20.4036 30.6492 21.329 31.8715 21.3291 33.3076C21.3291 33.4355 21.2255 33.539 21.0977 33.5391C20.9698 33.5391 20.8662 33.4355 20.8662 33.3076C20.8661 31.7501 19.5985 30.4817 18.041 30.4814C16.4833 30.4814 15.2149 31.7499 15.2148 33.3076C15.2148 33.4355 15.1113 33.5391 14.9834 33.5391C14.8556 33.5389 14.7529 33.4354 14.7529 33.3076C14.753 31.8723 15.6765 30.6497 16.9609 30.2021C16.2142 29.8117 15.7021 29.0301 15.7021 28.1299C15.7024 26.8403 16.7504 25.793 18.04 25.793ZM18.04 26.2568C17.0061 26.2568 16.165 27.0979 16.165 28.1318C16.1651 29.1658 17.0061 30.0068 18.04 30.0068C19.074 30.0068 19.915 29.1658 19.915 28.1318C19.915 27.0979 19.074 26.2568 18.04 26.2568Z" fill="#00C5CA"/>
<line x1="12.9241" y1="36.5712" x2="46.538" y2="36.5712" stroke="#00C5CA" stroke-width="0.365375"/>
<rect x="14.021" y="20.3115" width="15.7104" height="1.09607" rx="0.548037" fill="#00C5CA"/>
<rect x="14.021" y="22.1387" width="11.6918" height="1.09611" rx="0.548054" fill="#00C5CA"/>
<path d="M42.4728 20.4305C42.4433 20.4143 42.4121 20.407 42.3817 20.4072C42.2858 20.408 42.1979 20.4829 42.1984 20.5873L42.2038 21.5434L40.8351 20.7942C40.8055 20.7779 40.7742 20.7707 40.7438 20.7709C40.648 20.7716 40.5608 20.8466 40.5606 20.951L40.5576 24.102C40.5576 24.2442 40.6231 24.3681 40.7635 24.4449L41.9939 25.1202C42.0235 25.1364 42.0548 25.1437 42.0851 25.1435C42.181 25.1428 42.2684 25.0678 42.2684 24.9634V21.7322L42.9189 22.0855C43.0594 22.1618 43.1247 22.2862 43.1247 22.4284V24.3217L44.3415 24.9878C44.3711 25.004 44.4024 25.0112 44.4327 25.0111C44.5286 25.0103 44.616 24.9354 44.616 24.831L44.6173 21.8348C44.6173 21.6926 44.5517 21.5687 44.4114 21.4919L42.4728 20.4305Z" fill="#00C5CA"/>
</g>
<defs>
<clipPath id="clip0_19587_80201">
<rect width="48" height="48" fill="white"/>
</clipPath>
</defs>
</svg>
