<svg width="48" height="48" viewBox="0 0 48 48" fill="none" xmlns="http://www.w3.org/2000/svg">
<path d="M42.6464 11.2413V29.9502C42.6464 31.0956 42.2266 32.2014 41.4664 33.0582L32.9342 42.6742L28.2709 46.6173C26.0875 48.4609 22.9 48.4609 20.7197 46.6173L8.43837 36.2314C7.11557 35.1112 6.35376 33.4629 6.35376 31.7282V11.2413C6.35376 8.89523 7.74031 6.77644 9.87912 5.84187L22.1605 0.487289C23.649 -0.16243 25.3416 -0.16243 26.8302 0.487289L39.1211 5.84187C41.2599 6.77644 42.6464 8.89843 42.6464 11.2413Z" fill="#AAEEEF"/>
<path d="M17.5877 15.2197C18.6194 15.2197 19.4559 16.006 19.4559 16.9758C19.4559 17.9457 18.6194 18.7319 17.5877 18.7319C16.5559 18.7319 15.7195 17.9457 15.7195 16.9758C15.7195 16.006 16.5559 15.2197 17.5877 15.2197Z" fill="#00C5CA"/>
<path fill-rule="evenodd" clip-rule="evenodd" d="M33.2805 23.649C33.2805 26.7526 30.6039 29.2685 27.5869 29.2685C24.0006 29.2685 21.324 26.7526 21.324 23.649C21.324 20.5454 24.0006 18.0295 27.5869 18.0295C30.6039 18.0295 33.2805 20.5454 33.2805 23.649ZM28.7708 23.0592H29.5667V22.323H28.7766V21.4328H27.912V24.3945C27.912 24.8625 27.9807 25.1821 28.1238 25.3533C28.2612 25.5302 28.5246 25.6158 28.914 25.6158C29.0629 25.6158 29.2862 25.5815 29.5725 25.5188L29.5324 24.834L29.04 24.8454C28.9541 24.8454 28.8911 24.8283 28.851 24.7883C28.8109 24.7484 28.788 24.7027 28.7823 24.6513C28.7766 24.5943 28.7708 24.5087 28.7708 24.3774V23.0592ZM26.1656 22.3287V25.5416H27.0302V22.3287H26.1656ZM24.8679 22.2489C25.019 22.2489 25.1469 22.2967 25.2457 22.3924C25.3445 22.4881 25.391 22.605 25.391 22.7485C25.391 22.8921 25.3445 23.0037 25.2457 23.0994C25.1527 23.1844 25.0306 23.2323 24.8737 23.2323C24.7226 23.2323 24.5947 23.1844 24.4959 23.0887C24.3971 22.9931 24.3448 22.8761 24.3448 22.7379C24.3448 22.5997 24.3971 22.4827 24.4901 22.3871C24.5889 22.2914 24.7168 22.2489 24.8679 22.2489Z" fill="#00C5CA"/>
<path d="M19.0822 21.8929C19.0822 21.117 18.4131 20.488 17.5877 20.488C16.7622 20.488 16.0931 21.117 16.0931 21.8929V27.8636C16.0931 28.6395 16.7622 29.2685 17.5877 29.2685C18.4131 29.2685 19.0822 28.6395 19.0822 27.8636V21.8929Z" fill="#00C5CA"/>
<path d="M22.6589 5.17188C23.8303 4.67708 25.1624 4.67708 26.3337 5.17188L36.2458 9.35059C37.9287 10.0623 39.0172 11.6772 39.0173 13.457V27.625C39.0173 28.7674 38.5891 29.8688 37.8171 30.7109L31.2234 37.9023L27.4666 40.9775C25.7488 42.3809 23.2401 42.381 21.5251 40.9775L11.6208 32.8711C10.581 32.0186 9.98321 30.7652 9.98315 29.4473V13.457C9.98325 11.6747 11.0717 10.0623 12.7546 9.35059L22.6589 5.17188Z" stroke="#00C5CA" stroke-width="0.234146"/>
<path d="M22.4854 3.9707C23.7673 3.4381 25.2249 3.43807 26.5068 3.9707L37.2119 8.41113C39.054 9.17753 40.2461 10.917 40.2461 12.835V27.9805C40.246 29.1505 39.8025 30.2769 39.0049 31.1328L31.8037 38.8594L27.748 42.125C25.8678 43.6366 23.1216 43.6365 21.2441 42.125L10.5479 33.5127C9.40917 32.5946 8.754 31.2444 8.75391 29.8242V12.835C8.75391 10.9144 9.94601 9.17757 11.7881 8.41113L22.4854 3.9707Z" stroke="#00C5CA" stroke-width="0.117073"/>
<path d="M22.9614 6.66992C23.9395 6.2489 25.0526 6.24902 26.0308 6.66992L26.0317 6.6709L35.1509 10.5889V10.5879C36.5562 11.1938 37.4634 12.568 37.4634 14.0801V27.2734C37.4634 28.3065 37.0811 29.3033 36.3901 30.0713L30.4126 36.7148L26.978 39.5801C25.5433 40.7748 23.4471 40.7752 22.0151 39.5811L12.9038 31.9814C12.0355 31.2562 11.5366 30.1905 11.5366 29.0703V14.0801C11.5366 12.5656 12.4443 11.1937 13.8501 10.5879L22.9614 6.66992Z" stroke="#00C5CA"/>
</svg>
