<svg width="24" height="24" viewBox="0 0 24 24" fill="none" xmlns="http://www.w3.org/2000/svg">
  <path d="M20.7776 18.6283V3.02058C20.7776 1.35502 19.4226 0 17.757 0H3.28841C1.62284 0 0.267822 1.35502 0.267822 3.02058V5.3717H4.90274V20.9794C4.90274 22.645 6.25776 24 7.92332 24H20.7116C22.3771 24 23.7321 22.645 23.7321 20.9794V18.6283H20.7776V18.6283ZM4.90274 3.96549H1.67408V3.02058C1.67408 2.13043 2.39825 1.40625 3.28841 1.40625C4.17856 1.40625 4.90274 2.13043 4.90274 3.02058V3.96549V3.96549ZM9.53765 20.9795C9.53765 21.8696 8.81348 22.5938 7.92332 22.5938C7.03316 22.5938 6.30899 21.8696 6.30899 20.9795V3.02058C6.30899 2.42715 6.13626 1.8736 5.83949 1.40625H17.757C18.6471 1.40625 19.3713 2.13043 19.3713 3.02058V18.6283H9.53765V20.9795ZM22.3259 20.9795C22.3259 21.8696 21.6018 22.5938 20.7116 22.5938H10.4754C10.772 22.1265 10.9439 21.5727 10.9439 20.9795V20.0346H22.3259V20.9795Z" fill="#0073E6"/>
  <path d="M17.9649 4.63501H7.71521V6.04127H17.9649V4.63501Z" fill="#0073E6"/>
  <path d="M17.9649 7.82764H7.71521V9.23389H17.9649V7.82764Z" fill="#0073E6"/>
  <path d="M12.8402 11.0205C11.4504 11.0205 10.3197 12.1512 10.3197 13.541C10.3197 14.6868 11.0885 15.6558 12.1371 15.961V17.276H13.5433V15.961C14.5919 15.6558 15.3607 14.6869 15.3607 13.541C15.3607 12.1512 14.23 11.0205 12.8402 11.0205ZM12.8402 14.6553C12.2258 14.6553 11.726 14.1554 11.726 13.541C11.726 12.9265 12.2258 12.4267 12.8402 12.4267C13.4546 12.4267 13.9545 12.9265 13.9545 13.541C13.9545 14.1554 13.4546 14.6553 12.8402 14.6553Z" fill="#0073E6"/>
</svg>
