<svg width="24" height="24" viewBox="0 0 24 24" fill="none" xmlns="http://www.w3.org/2000/svg">
<mask id="mask0_664:6513" style="mask-type:alpha" maskUnits="userSpaceOnUse" x="0" y="0" width="24" height="24">
<path fill-rule="evenodd" clip-rule="evenodd" d="M21.6606 10.2672L22.3854 9.54178C22.6612 9.26592 22.6597 8.82141 22.3857 8.54719C22.1115 8.27306 21.6656 8.27302 21.3913 8.54719L20.6662 9.27286L21.6606 10.2672ZM16.2923 13.6504L17.2867 14.6448L20.6666 11.262L19.6722 10.2676L16.2923 13.6504ZM16.2925 15.6394L15.2981 14.645L14.9183 15.0248L14.4211 16.5164L15.9127 16.0192L16.2925 15.6394ZM16.1718 22.5938C16.5596 22.5938 16.875 22.2783 16.875 21.8906V17.0456L16.7897 17.1309C16.7125 17.2081 16.6184 17.2663 16.5149 17.3008L13.5317 18.2952C13.2794 18.3793 13.0008 18.3139 12.8122 18.1253C12.6239 17.937 12.5581 17.6584 12.6423 17.4058L13.6367 14.4226C13.6712 14.3191 13.7295 14.225 13.8066 14.1478L14.8005 13.1539L16.875 11.0776V5.625H13.3593C12.9711 5.625 12.6562 5.31019 12.6562 4.92188V1.40625H2.10938C1.72167 1.40625 1.40625 1.72167 1.40625 2.10938V21.8906C1.40625 22.2783 1.72167 22.5938 2.10938 22.5938H16.1718ZM14.096 1.40596L14.0625 1.40625V4.21875H16.875L16.8751 4.18861C16.8762 4.03725 16.8778 3.80974 16.6691 3.60094L14.6804 1.61217C14.4694 1.40122 14.2354 1.40419 14.096 1.40596ZM20.3966 7.55302C21.2193 6.73041 22.5576 6.73036 23.38 7.55283C24.2045 8.37727 24.2043 9.71161 23.3799 10.536L18.2812 15.639V21.8906C18.2812 23.0537 17.335 24 16.1718 24H2.10938C0.946266 24 0 23.0537 0 21.8906V2.10938C0 0.946266 0.946266 0 2.10938 0H14.1832C14.7466 0 15.2763 0.219375 15.6747 0.617813L17.6634 2.60658C18.0618 3.00497 18.2812 3.53466 18.2812 4.09809V9.67017L20.3966 7.55302ZM3.70312 6.75H13.5469C13.9352 6.75 14.25 7.0858 14.25 7.5C14.25 7.9142 13.9352 8.25 13.5469 8.25H3.70312C3.3148 8.25 2.99999 7.9142 2.99999 7.5C2.99999 7.0858 3.3148 6.75 3.70312 6.75ZM10.5625 10H3.68749C3.30781 10 2.99999 10.3358 2.99999 10.75C2.99999 11.1642 3.30781 11.5 3.68749 11.5H10.5625C10.9422 11.5 11.25 11.1642 11.25 10.75C11.25 10.3358 10.9422 10 10.5625 10ZM3.68749 13H10.5625C10.9422 13 11.25 13.3358 11.25 13.75C11.25 14.1642 10.9422 14.5 10.5625 14.5H3.68749C3.30781 14.5 2.99999 14.1642 2.99999 13.75C2.99999 13.3358 3.30781 13 3.68749 13ZM10.5625 16H3.68749C3.30781 16 2.99999 16.3358 2.99999 16.75C2.99999 17.1642 3.30781 17.5 3.68749 17.5H10.5625C10.9422 17.5 11.25 17.1642 11.25 16.75C11.25 16.3358 10.9422 16 10.5625 16ZM8.24999 20.25C8.24999 19.8358 8.58579 19.5 8.99999 19.5H13.5C13.9142 19.5 14.25 19.8358 14.25 20.25C14.25 20.6642 13.9142 21 13.5 21H8.99999C8.58579 21 8.24999 20.6642 8.24999 20.25Z" fill="white"/>
</mask>
<g mask="url(#mask0_664:6513)">
<rect x="-4.37103" y="-6" width="32" height="35" fill="#0073E6"/>
</g>
</svg>
