<svg width="24" height="24" viewBox="0 0 24 24" fill="none" xmlns="http://www.w3.org/2000/svg">
<rect width="24" height="24" fill="#F2F2F2"/>
<g clip-path="url(#clip0_0:1)">
<rect width="375" height="812" transform="translate(-24 -548)" fill="white"/>
<rect x="-24" y="-548" width="375" height="812" fill="black" fill-opacity="0.4"/>
<path d="M-24 -130C-24 -138.837 -16.8366 -146 -8 -146H337C345.837 -146 353 -138.837 353 -130V264H-24V-130Z" fill="white"/>
<g clip-path="url(#clip1_0:1)">
<path d="M21.7903 -0.046875C21.7643 -0.046875 21.7385 -0.0457764 21.7125 -0.0435791C21.5593 -0.0309448 18.1322 0.283631 16.8445 2.78266L12.1939 2.31006C11.0669 2.19562 9.96241 2.58948 9.16389 3.38929L1.14036 11.3863C-0.318078 12.8473 -0.317529 15.2236 1.14146 16.6839L7.29547 22.843C8.03467 23.5828 9.0044 23.9532 9.97083 23.9532C10.9239 23.953 11.8739 23.5928 12.5962 22.8712C12.9622 22.5054 12.9626 21.9121 12.5968 21.5461C12.2311 21.1799 11.6376 21.1797 11.2716 21.5453C10.5478 22.2686 9.35871 22.2563 8.62134 21.5182L2.46715 15.3591C1.73765 14.6291 1.73747 13.4409 2.46495 12.7121L10.4887 4.71498C10.8887 4.31434 11.4412 4.11732 12.0044 4.17445L19.1346 4.89918L19.2274 5.81031C17.9286 6.29445 16.6927 6.37172 16.6645 6.37336C16.1483 6.4012 15.752 6.84193 15.7791 7.35829C15.8055 7.85835 16.2191 8.24617 16.7141 8.24617C16.7307 8.24617 16.7474 8.2458 16.7641 8.24489C16.8241 8.24178 18.0233 8.17311 19.4224 7.72542L19.8586 12.0088C19.9159 12.5709 19.72 13.1225 19.3208 13.5225L14.7494 18.027C14.3808 18.3901 14.3764 18.9835 14.7395 19.3521C15.1027 19.7207 15.696 19.7251 16.0646 19.3618L20.6388 14.8548C20.6402 14.8534 20.6417 14.8519 20.6434 14.8502C21.4443 14.0501 21.8379 12.9452 21.7231 11.8189L21.2256 6.93513C21.8559 6.56617 22.3873 6.13148 22.8121 5.636C23.6232 4.68916 24.0343 3.54438 24.0334 2.23371V2.19635C24.0334 0.959475 23.0272 -0.046875 21.7903 -0.046875ZM22.1593 2.23426C22.16 3.28162 21.7808 4.13142 21.0085 4.80342L20.9215 3.94923C20.8764 3.50684 20.5265 3.15693 20.084 3.11188L18.997 3.00147C19.9562 2.08594 21.5409 1.862 21.824 1.82868C22.0117 1.84589 22.1593 2.00428 22.1593 2.19635V2.23426Z" fill="#0073E6"/>
</g>
</g>
<rect x="-4276.5" y="-3383.5" width="16081" height="3794" stroke="#00C5CA" stroke-width="17"/>
<defs>
<clipPath id="clip0_0:1">
<rect width="375" height="812" fill="white" transform="translate(-24 -548)"/>
</clipPath>
<clipPath id="clip1_0:1">
<rect width="24" height="24" fill="white"/>
</clipPath>
</defs>
</svg>
