<svg width="24" height="24" viewBox="0 0 24 24" fill="none" xmlns="http://www.w3.org/2000/svg">
<path d="M23.3593 13.8546L20.2886 16.9292C19.9227 17.2956 19.3291 17.2959 18.9627 16.9301C18.5964 16.5642 18.596 15.9705 18.9619 15.6042L22.0325 12.5296C22.1531 12.4088 22.1355 12.2798 22.0995 12.1929C22.0697 12.1212 21.9927 12.0008 21.8108 12.0008H18.891C18.3732 12.0008 17.9534 11.581 17.9534 11.0632V1.87512H6.28078V11.0632C6.28078 11.581 5.86104 12.0008 5.34322 12.0008H2.18903C2.00696 12.0008 1.92994 12.1213 1.90022 12.1932C1.86417 12.2801 1.84668 12.4091 1.96768 12.53L11.3885 21.8482C11.7587 22.2178 12.3558 22.2178 12.7228 21.8513L15.7315 18.8387C16.0974 18.4723 16.6911 18.4721 17.0574 18.8378C17.4237 19.2038 17.4242 19.7974 17.0583 20.1637L14.0487 23.1772C13.4993 23.7257 12.778 24 12.0569 24C11.3361 24 10.6155 23.726 10.0668 23.1782L0.64595 13.86C0.015066 13.2301 -0.171509 12.2957 0.167513 11.4762C0.506957 10.6558 1.30046 10.1257 2.18903 10.1257H4.40566V0.93756C4.40566 0.419746 4.82541 0 5.34322 0H18.891C19.4088 0 19.8285 0.419746 19.8285 0.93756V10.1257H21.8108C22.6986 10.1257 23.4918 10.6552 23.8316 11.4747C24.171 12.2932 23.9856 13.2273 23.3593 13.8546ZM12.9429 6.56292C13.7117 6.56292 14.2061 7.1901 14.4323 7.56396C14.7005 8.00695 15.2769 8.14885 15.7199 7.88071C16.1629 7.61262 16.3047 7.03616 16.0366 6.59316C15.3039 5.38225 14.1763 4.6878 12.9429 4.6878C11.8446 4.6878 10.7916 5.28165 10.054 6.31709C9.79064 6.68678 9.57373 7.10155 9.40605 7.54736H8.67156C8.15375 7.54736 7.734 7.96711 7.734 8.48492C7.734 9.00274 8.15375 9.42248 8.67156 9.42248H9.0134C9.00486 9.56223 8.99971 9.70281 8.99971 9.84439C8.99971 10.0018 9.00538 10.1581 9.01593 10.3132H8.62468C8.10687 10.3132 7.68712 10.7329 7.68712 11.2507C7.68712 11.7685 8.10687 12.1883 8.62468 12.1883H9.42325C9.5884 12.6164 9.79982 13.0149 10.054 13.3717C10.7916 14.4071 11.8446 15.001 12.9429 15.001C14.1598 15.001 15.2762 14.3269 16.006 13.1517C16.2791 12.7118 16.144 12.1337 15.7041 11.8606C15.2642 11.5875 14.6862 11.7226 14.413 12.1625C14.1896 12.5222 13.7015 13.1258 12.9429 13.1258C12.394 13.1258 11.8871 12.7649 11.5123 12.1883H12.6561C13.174 12.1883 13.5937 11.7685 13.5937 11.2507C13.5937 10.7329 13.174 10.3132 12.6561 10.3132H10.8972C10.8827 10.1596 10.8748 10.0032 10.8748 9.84439C10.8748 9.70169 10.8815 9.56101 10.8933 9.42248H12.6561C13.174 9.42248 13.5937 9.00274 13.5937 8.48492C13.5937 7.96711 13.174 7.54736 12.6561 7.54736H11.482C11.8595 6.94324 12.3791 6.56292 12.9429 6.56292Z" fill="#0073E6"/>
</svg>
