<svg width="20" height="21" viewBox="0 0 20 21" fill="none" xmlns="http://www.w3.org/2000/svg">
<mask id="mask0_1023_3780" style="mask-type:alpha" maskUnits="userSpaceOnUse" x="0" y="0" width="20" height="21">
<path fill-rule="evenodd" clip-rule="evenodd" d="M20 4.25C20 2.17893 18.3211 0.5 16.25 0.5H3.75C1.67893 0.5 0 2.17893 0 4.25V16.75C0 18.8211 1.67893 20.5 3.75 20.5H16.25C18.3211 20.5 20 18.8211 20 16.75V4.25ZM3.75 2.16667H16.25L16.387 2.1711C17.4737 2.24163 18.3333 3.14543 18.3333 4.25V16.75L18.3289 16.887C18.2584 17.9737 17.3546 18.8333 16.25 18.8333H3.75L3.61302 18.8289C2.52628 18.7584 1.66667 17.8546 1.66667 16.75V4.25L1.6711 4.11302C1.74163 3.02628 2.64543 2.16667 3.75 2.16667ZM6.83709 4.83709C7.2032 4.47097 7.7968 4.47097 8.16291 4.83709C8.50288 5.17705 8.52716 5.71316 8.23576 6.08114L8.16291 6.16291L6.6375 7.6875H15.625C16.1082 7.6875 16.5061 8.05313 16.557 8.52285L16.5625 8.625C16.5625 9.10825 16.1969 9.5061 15.7272 9.557L15.625 9.5625H4.375C3.57319 9.5625 3.15562 8.63185 3.64602 8.03488L3.71209 7.96209L6.83709 4.83709ZM11.8352 16.7879C12.2013 17.154 12.7949 17.154 13.161 16.7879L16.286 13.6629L16.3521 13.5901C16.8425 12.9932 16.4249 12.0625 15.6231 12.0625H4.37312L4.27097 12.068C3.80125 12.1189 3.43562 12.5168 3.43562 13L3.44112 13.1022C3.49202 13.5719 3.88987 13.9375 4.37312 13.9375H13.3606L11.8352 15.4621L11.7624 15.5439C11.471 15.9118 11.4952 16.4479 11.8352 16.7879Z" fill="white"/>
</mask>
<g mask="url(#mask0_1023_3780)">
<rect x="-10.8334" y="-8.6665" width="43.3333" height="40" fill="#475A6D"/>
</g>
</svg>
