<svg width="20" height="21" viewBox="0 0 20 21" fill="none" xmlns="http://www.w3.org/2000/svg">
<path fill-rule="evenodd" clip-rule="evenodd" d="M3 3.83331H11.7378C11.9094 4.31881 12.3724 4.66665 12.9167 4.66665C13.4609 4.66665 13.9239 4.31881 14.0955 3.83331H17C18.6569 3.83331 20 5.17646 20 6.83331V14.1666C20 15.8235 18.6569 17.1666 17 17.1666H14.0955C14.1416 17.0363 14.1667 16.8961 14.1667 16.75C14.1667 16.0596 13.607 15.5 12.9167 15.5C12.2263 15.5 11.6667 16.0596 11.6667 16.75C11.6667 16.8961 11.6917 17.0363 11.7378 17.1666H3C1.34315 17.1666 0 15.8235 0 14.1666V6.83331C0 5.17646 1.34315 3.83331 3 3.83331ZM13.125 7.58331C13.4702 7.58331 13.75 7.30349 13.75 6.95831C13.75 6.61313 13.4702 6.33331 13.125 6.33331C12.7798 6.33331 12.5 6.61313 12.5 6.95831C12.5 7.30349 12.7798 7.58331 13.125 7.58331ZM13.75 8.62498C13.75 8.97016 13.4702 9.24998 13.125 9.24998C12.7798 9.24998 12.5 8.97016 12.5 8.62498C12.5 8.2798 12.7798 7.99998 13.125 7.99998C13.4702 7.99998 13.75 8.2798 13.75 8.62498ZM13.125 10.9166C13.4702 10.9166 13.75 10.6368 13.75 10.2916C13.75 9.94647 13.4702 9.66665 13.125 9.66665C12.7798 9.66665 12.5 9.94647 12.5 10.2916C12.5 10.6368 12.7798 10.9166 13.125 10.9166ZM13.75 11.9583C13.75 12.3035 13.4702 12.5833 13.125 12.5833C12.7798 12.5833 12.5 12.3035 12.5 11.9583C12.5 11.6131 12.7798 11.3333 13.125 11.3333C13.4702 11.3333 13.75 11.6131 13.75 11.9583ZM13.125 14.25C13.4702 14.25 13.75 13.9702 13.75 13.625C13.75 13.2798 13.4702 13 13.125 13C12.7798 13 12.5 13.2798 12.5 13.625C12.5 13.9702 12.7798 14.25 13.125 14.25ZM3.33333 6.33331C2.8731 6.33331 2.5 6.70641 2.5 7.16665C2.5 7.62688 2.8731 7.99998 3.33333 7.99998H6.66667C7.1269 7.99998 7.5 7.62688 7.5 7.16665C7.5 6.70641 7.1269 6.33331 6.66667 6.33331H3.33333ZM2.5 9.66665C2.5 9.20641 2.8731 8.83331 3.33333 8.83331H8.33333C8.79357 8.83331 9.16667 9.20641 9.16667 9.66665C9.16667 10.1269 8.79357 10.5 8.33333 10.5H3.33333C2.8731 10.5 2.5 10.1269 2.5 9.66665ZM3.5 12.1666C2.94772 12.1666 2.5 12.6144 2.5 13.1666V13.6666C2.5 14.2189 2.94772 14.6666 3.5 14.6666H6.5C7.05228 14.6666 7.5 14.2189 7.5 13.6666V13.1666C7.5 12.6144 7.05228 12.1666 6.5 12.1666H3.5Z" fill="white"/>
<mask id="mask0_732_8795" style="mask-type:alpha" maskUnits="userSpaceOnUse" x="0" y="3" width="20" height="15">
<path fill-rule="evenodd" clip-rule="evenodd" d="M3 3.83331H11.7378C11.9094 4.31881 12.3724 4.66665 12.9167 4.66665C13.4609 4.66665 13.9239 4.31881 14.0955 3.83331H17C18.6569 3.83331 20 5.17646 20 6.83331V14.1666C20 15.8235 18.6569 17.1666 17 17.1666H14.0955C14.1416 17.0363 14.1667 16.8961 14.1667 16.75C14.1667 16.0596 13.607 15.5 12.9167 15.5C12.2263 15.5 11.6667 16.0596 11.6667 16.75C11.6667 16.8961 11.6917 17.0363 11.7378 17.1666H3C1.34315 17.1666 0 15.8235 0 14.1666V6.83331C0 5.17646 1.34315 3.83331 3 3.83331ZM13.125 7.58331C13.4702 7.58331 13.75 7.30349 13.75 6.95831C13.75 6.61313 13.4702 6.33331 13.125 6.33331C12.7798 6.33331 12.5 6.61313 12.5 6.95831C12.5 7.30349 12.7798 7.58331 13.125 7.58331ZM13.75 8.62498C13.75 8.97016 13.4702 9.24998 13.125 9.24998C12.7798 9.24998 12.5 8.97016 12.5 8.62498C12.5 8.2798 12.7798 7.99998 13.125 7.99998C13.4702 7.99998 13.75 8.2798 13.75 8.62498ZM13.125 10.9166C13.4702 10.9166 13.75 10.6368 13.75 10.2916C13.75 9.94647 13.4702 9.66665 13.125 9.66665C12.7798 9.66665 12.5 9.94647 12.5 10.2916C12.5 10.6368 12.7798 10.9166 13.125 10.9166ZM13.75 11.9583C13.75 12.3035 13.4702 12.5833 13.125 12.5833C12.7798 12.5833 12.5 12.3035 12.5 11.9583C12.5 11.6131 12.7798 11.3333 13.125 11.3333C13.4702 11.3333 13.75 11.6131 13.75 11.9583ZM13.125 14.25C13.4702 14.25 13.75 13.9702 13.75 13.625C13.75 13.2798 13.4702 13 13.125 13C12.7798 13 12.5 13.2798 12.5 13.625C12.5 13.9702 12.7798 14.25 13.125 14.25ZM3.33333 6.33331C2.8731 6.33331 2.5 6.70641 2.5 7.16665C2.5 7.62688 2.8731 7.99998 3.33333 7.99998H6.66667C7.1269 7.99998 7.5 7.62688 7.5 7.16665C7.5 6.70641 7.1269 6.33331 6.66667 6.33331H3.33333ZM2.5 9.66665C2.5 9.20641 2.8731 8.83331 3.33333 8.83331H8.33333C8.79357 8.83331 9.16667 9.20641 9.16667 9.66665C9.16667 10.1269 8.79357 10.5 8.33333 10.5H3.33333C2.8731 10.5 2.5 10.1269 2.5 9.66665ZM3.5 12.1666C2.94772 12.1666 2.5 12.6144 2.5 13.1666V13.6666C2.5 14.2189 2.94772 14.6666 3.5 14.6666H6.5C7.05228 14.6666 7.5 14.2189 7.5 13.6666V13.1666C7.5 12.6144 7.05228 12.1666 6.5 12.1666H3.5Z" fill="white"/>
</mask>
<g mask="url(#mask0_732_8795)">
<rect x="-30" y="-21.9467" width="83.3333" height="83.3333" fill="#475A6D"/>
</g>
</svg>
