<svg width="249" height="270" viewBox="0 0 249 270" fill="none" xmlns="http://www.w3.org/2000/svg">
<path d="M237.194 15.2053L187.231 -13.8201C186.258 -14.3855 185.475 -15.2261 184.979 -16.2373L138.889 -110.213C136.41 -115.267 141.985 -120.467 146.851 -117.639L195.134 -89.5904C197.203 -88.3884 198.868 -86.6016 199.922 -84.4523L245.156 7.77863C247.635 12.8331 242.06 18.0324 237.194 15.2053Z" fill="#0066CC"/>
<path d="M206.512 45.2652L144.596 33.4461C142.839 33.1112 141.341 31.9671 140.553 30.3608L95.2767 -61.9548C93.1899 -66.2096 96.9089 -71.0008 101.546 -70.0313L161.475 -57.4967C164.836 -56.7937 167.684 -54.5797 169.197 -51.4954L212.683 37.169C214.749 41.3829 211.119 46.1445 206.512 45.2638L206.512 45.2652Z" fill="#7AC1FA"/>
<path d="M195.78 80.4466L117.722 83.2327C115.479 83.3126 113.397 82.0662 112.408 80.0495L66.3145 -13.933C64.4801 -17.6731 67.1513 -22.0518 71.3134 -22.1284L149.297 -23.5693C151.95 -23.6178 154.393 -22.127 155.563 -19.7422L200.682 72.2533C202.497 75.9553 199.898 80.2987 195.78 80.4466Z" fill="#0066CC"/>
<path d="M192.853 115.124L110.298 137.154C107.673 137.856 104.919 136.6 103.722 134.16L57.2287 39.3622C55.6316 36.1058 57.4454 32.2071 60.9633 31.3337L143.288 10.8879C146.413 10.1112 149.656 11.6224 151.075 14.5149L196.493 107.121C198.072 110.341 196.319 114.201 192.855 115.125L192.853 115.124Z" fill="#FFB357"/>
<path d="M201.868 147.309L122.491 188.141C119.66 189.598 116.183 188.444 114.78 185.584L68.179 90.5666C66.797 87.7488 67.9556 84.3429 70.7688 82.9561L149.448 44.1684C153.024 42.4056 157.354 43.8826 159.111 47.4647L204.369 139.742C205.734 142.526 204.62 145.891 201.865 147.308L201.868 147.309Z" fill="#7AC1FA"/>
<path d="M225.947 177.22L156.287 231.895C153.442 234.128 149.26 233.171 147.666 229.921L101.794 136.391C100.231 133.204 101.144 129.357 103.971 127.214L173.168 74.7649C176.019 72.6037 180.136 73.5817 181.713 76.7972L227.541 170.238C228.724 172.651 228.06 175.563 225.947 177.222L225.947 177.22Z" fill="#CDD2FC"/>
<path d="M257.786 194.332L205.242 261.131C202.65 264.424 197.508 263.879 195.662 260.115L150.399 167.826C148.93 164.832 149.337 161.258 151.438 158.672L203.49 94.6345C206.109 91.4137 211.184 91.9933 213.013 95.7221L258.421 188.307C259.384 190.272 259.138 192.614 257.785 194.333L257.786 194.332Z" fill="#0066CC"/>
<path d="M299.481 205.329L268.111 275.381C266.142 279.782 259.935 279.886 257.812 275.557L213.524 185.257C212.242 182.642 212.211 179.588 213.438 176.95L244.649 109.899C246.667 105.564 252.807 105.504 254.914 109.798L299.395 200.494C300.14 202.012 300.171 203.783 299.481 205.328L299.481 205.329Z" fill="#FFB357"/>
</svg>
