<svg width="68" height="83" viewBox="0 0 68 83" fill="none" xmlns="http://www.w3.org/2000/svg">
<path d="M68.16 60.669L56.3373 42.6252C56.107 42.2737 55.9844 41.8609 55.9844 41.4381V2.14109C55.9844 0.0275075 58.673 -0.803417 59.8244 0.953967L71.2496 18.391C71.739 19.1382 72 20.0157 72 20.9144V59.4819C72 61.5955 69.3113 62.4264 68.16 60.669Z" fill="#0066CC"/>
<path d="M53.1285 65.7292L34.5579 51.5091C34.0308 51.1057 33.7207 50.4724 33.7207 49.8007V11.1978C33.7207 9.41859 35.7289 8.41841 37.106 9.51177L54.903 23.6446C55.9011 24.4371 56.4843 25.6543 56.4843 26.9441V64.0201C56.4843 65.7822 54.5102 66.7871 53.1285 65.7286V65.7292Z" fill="#7AC1FA"/>
<path d="M43.8669 75.8135L17.5844 63.848C16.8294 63.5042 16.3428 62.7399 16.3428 61.8966V22.5967C16.3428 21.0327 17.9373 19.9983 19.3271 20.6606L45.3665 33.0673C46.2523 33.4895 46.8188 34.3959 46.8188 35.3931V73.8621C46.8188 75.4102 45.2537 76.4445 43.8669 75.8135Z" fill="#FFB357"/>
<path d="M37.2703 87.019L6.37655 80.7968C5.39412 80.5993 4.68652 79.7206 4.68652 78.7004V39.0596C4.68652 37.6979 5.91947 36.6836 7.22532 36.9708L37.7858 43.6889C38.9458 43.9437 39.7738 44.9893 39.7738 46.1988V84.9232C39.7738 86.2695 38.5669 87.2809 37.2709 87.0196L37.2703 87.019Z" fill="#CDD2FC"/>
<path d="M35.03 99.3585L2.13669 99.9995C0.963331 100.023 0 99.0589 0 97.863V58.1302C0 56.9519 0.936138 55.9954 2.09214 55.993L34.423 55.9258C35.8926 55.9228 37.0857 57.1365 37.0857 58.6344V97.2213C37.0857 98.3855 36.1709 99.3355 35.0294 99.3579L35.03 99.3585Z" fill="#0066CC"/>
</svg>
