<svg width="28" height="34" viewBox="0 0 28 34" fill="none" xmlns="http://www.w3.org/2000/svg">
<path d="M13.2091 0.167319C13.0061 0.0506015 12.7903 -0.00127316 12.5809 2.3702e-05C11.9196 0.00521117 11.3131 0.543411 11.3169 1.293L11.354 8.15602L1.91382 2.77791C1.70954 2.66119 1.49378 2.60932 1.28439 2.61062C0.623045 2.6158 0.0217044 3.154 0.0204277 3.90359L0 26.5235C0 27.5442 0.451963 28.4338 1.41973 28.985L9.90616 33.8327C10.1104 33.9494 10.3262 34.0013 10.5356 34C11.1969 33.9948 11.7996 33.4566 11.7996 32.707V9.51124L16.286 12.0479C17.255 12.5952 17.7057 13.4887 17.7057 14.5094V28.1005L26.0977 32.8821C26.3019 32.9988 26.5177 33.0507 26.7271 33.0494C27.3884 33.0442 27.9911 32.506 27.9911 31.7564L28 10.2479C28 9.22723 27.548 8.33758 26.5803 7.78641L13.2091 0.167319Z" fill="#0066CC"/>
</svg>
