<svg width="79" height="16" viewBox="0 0 79 16" fill="none" xmlns="http://www.w3.org/2000/svg">
<path d="M65.5237 11.3431H65.0379C64.7186 11.3431 64.5418 11.1496 64.5418 10.8322V2.86612C64.5418 2.75261 64.4497 2.66717 64.3354 2.66717H62.1457C62.0315 2.66717 61.9455 2.75261 61.9455 2.86612V11.0873C61.9455 12.599 62.7506 13.335 64.4239 13.3344H65.5335C65.6477 13.3344 65.7441 13.2502 65.7441 13.1367V11.5463C65.7441 11.4328 65.6379 11.3431 65.5237 11.3431Z" fill="#C4DCF5"/>
<path d="M69.8311 5.35599C67.3798 5.35599 65.9073 6.87928 65.9073 9.44616C65.9073 12.013 67.4099 13.5473 69.9619 13.5473C71.7592 13.5473 72.9665 12.7979 73.4571 11.5279C73.4989 11.4198 73.5173 11.3545 73.5167 11.2929C73.5161 11.1849 73.4614 11.0872 73.2987 11.0872H71.2526C71.1832 11.0872 71.1108 11.1232 71.0316 11.2459C70.824 11.5681 70.4187 11.7372 69.9115 11.7372C68.8314 11.7372 68.4132 10.9731 68.3469 10.0345H73.4565C73.5707 10.0345 73.6567 9.94782 73.6567 9.8343V9.08182C73.6567 6.8036 72.2216 5.35599 69.8311 5.35599ZM68.3567 8.40317C68.3623 7.52375 68.9468 6.98486 69.8299 6.98486C70.7129 6.98486 71.2606 7.51703 71.2477 8.40317H68.3567Z" fill="#C4DCF5"/>
<path d="M78.7986 7.55938C78.9128 7.55938 79 7.47455 79 7.36043V5.76757C79 5.65406 78.8999 5.56862 78.7851 5.56862H77.4685V3.64803C77.4685 3.53452 77.382 3.44908 77.2677 3.44908H75.1044C74.9902 3.44908 74.8919 3.53818 74.8919 3.65169V5.56801H73.9905C73.8763 5.56801 73.7762 5.65406 73.7762 5.76757V7.35982C73.7762 7.47333 73.8615 7.55938 73.9764 7.55938H74.8926V10.6322C74.8926 12.4277 75.8179 13.3339 77.6699 13.3339H78.7992C78.9134 13.3339 79 13.2485 79 13.135V11.5562C79 11.4427 78.914 11.3426 78.7998 11.3426H77.969C77.6497 11.3426 77.4685 11.1491 77.4685 10.8318V7.55938H78.7986Z" fill="#C4DCF5"/>
<path d="M56.8879 11.3429H56.5876C56.3542 11.3429 56.2148 11.1891 56.2148 10.8724V8.39829C56.2148 6.48259 54.9124 5.35599 52.6601 5.35599C50.8038 5.35599 49.4774 6.13533 48.9677 7.3315C48.9143 7.45722 48.8842 7.55304 48.8854 7.61651C48.8873 7.71782 48.9665 7.78678 49.0868 7.78678H51.2195C51.3392 7.78678 51.4068 7.74162 51.4768 7.61102C51.6364 7.31136 51.976 7.13621 52.4955 7.13621C53.2422 7.13621 53.6941 7.49567 53.6947 8.1438V8.45627L51.785 8.58443C49.7801 8.71869 48.8707 9.48949 48.8707 11.0073C48.8707 12.6123 49.8876 13.5473 51.6051 13.5473C52.517 13.5473 53.3718 13.2837 54.0441 12.7625C54.3414 13.1122 54.8504 13.3349 55.47 13.3349H56.8915C57.0058 13.3349 57.0868 13.2495 57.0868 13.136V11.5443C57.0868 11.4308 57.0015 11.3442 56.8872 11.3442L56.8879 11.3429ZM53.696 11.3149C53.2262 11.6176 52.7687 11.7372 52.3475 11.7372C51.6647 11.7372 51.3306 11.4204 51.3306 10.9023C51.3306 10.4403 51.5965 10.1779 52.3328 10.123L53.6966 10.0211L53.696 11.3149Z" fill="#C4DCF5"/>
<path d="M30.9474 4.64389V2.88076C30.9474 2.76724 30.8614 2.66655 30.7466 2.66655H22.404C22.2898 2.66655 22.2032 2.76602 22.2032 2.87954V4.64328C22.2032 4.75679 22.2885 4.85688 22.4028 4.85688H25.2372V13.1336C25.2372 13.2471 25.3373 13.3344 25.4516 13.3344H27.6984C27.8126 13.3344 27.9133 13.249 27.9133 13.1355V4.85749H30.7466C30.8608 4.85749 30.9474 4.75801 30.9474 4.64389Z" fill="#C4DCF5"/>
<path d="M61.2294 11.3431H60.7437C60.4244 11.3431 60.2414 11.1496 60.2414 10.8322V2.86612C60.2414 2.75261 60.1555 2.66717 60.0406 2.66717H57.8509C57.7367 2.66717 57.6507 2.75261 57.6507 2.86612V11.0873C57.6507 12.599 58.4557 13.335 60.1291 13.3344H61.2387C61.3529 13.3344 61.4431 13.2502 61.4431 13.1367V11.5408C61.4431 11.4273 61.3437 11.3431 61.2294 11.3431Z" fill="#C4DCF5"/>
<path d="M34.325 7.98634L30.2028 7.98512C30.0886 7.98512 30.0033 8.06995 30.0033 8.18407V9.86481C30.0039 9.97832 30.0935 10.0632 30.2084 10.0632H34.3244C34.4386 10.0632 34.5264 9.97772 34.5264 9.8642V8.1859C34.5264 8.07239 34.4398 7.98695 34.3256 7.98695L34.325 7.98634Z" fill="#C4DCF5"/>
<path d="M21.3121 2.66701H19.0371C18.9228 2.66701 18.832 2.75062 18.832 2.86413L18.8363 13.1359C18.8363 13.2494 18.9228 13.3349 19.0371 13.3349H21.3115C21.4257 13.3349 21.5123 13.2494 21.5123 13.1359V2.86352C21.5123 2.75001 21.4264 2.66701 21.3121 2.66701Z" fill="#C4DCF5"/>
<path d="M48.8114 2.66717H46.8519C46.7506 2.66717 46.6696 2.74468 46.653 2.84415L45.4169 10.1078H45.2849L43.7571 2.835C43.7368 2.73979 43.657 2.66778 43.5587 2.66778H40.5695C40.4719 2.66778 40.3834 2.73979 40.3626 2.835L38.8041 10.0938H38.6708L37.4513 2.84354C37.4347 2.74468 37.3481 2.66778 37.2468 2.66778H35.2149C35.0866 2.66778 34.9834 2.7874 35.0055 2.91312L36.8151 13.1672C36.8323 13.2655 36.9171 13.3357 37.0172 13.3357H40.0948C40.1919 13.3357 40.2748 13.2697 40.2956 13.1751L41.9395 5.67956H42.0881L43.7319 13.1751C43.7528 13.2697 43.8338 13.3357 43.9315 13.3357H47.0085C47.1092 13.3357 47.1952 13.2661 47.2124 13.1672L49.022 2.91312C49.0441 2.7874 48.9397 2.66717 48.8114 2.66717Z" fill="#C4DCF5"/>
<path d="M6.35305 0.0787386C6.25542 0.0238125 6.15164 -0.000599136 6.05094 1.11539e-05C5.73286 0.00245231 5.44118 0.255723 5.44302 0.60847L5.46083 3.83813L0.920474 1.30725C0.822225 1.25233 0.718449 1.22791 0.617743 1.22853C0.299661 1.23097 0.010439 1.48424 0.00982494 1.83698L0 12.4817C0 12.962 0.217377 13.3806 0.682834 13.64L4.76448 15.9213C4.86273 15.9762 4.96651 16.0006 5.06721 16C5.3853 15.9975 5.67513 15.7443 5.67513 15.3915V4.47588L7.83294 5.66961C8.29901 5.92715 8.51577 6.34764 8.51577 6.82794V13.2238L12.552 15.4739C12.6502 15.5288 12.754 15.5533 12.8547 15.5526C13.1728 15.5502 13.4626 15.2969 13.4626 14.9442L13.4669 4.82252C13.4669 4.34223 13.2496 3.92357 12.7841 3.66419L6.35305 0.0787386Z" fill="#C4DCF5"/>
</svg>
