<svg width="125" height="26" viewBox="0 0 125 26" fill="none" xmlns="http://www.w3.org/2000/svg">
<g clip-path="url(#clip0_19591_84306)">
<path d="M103.657 18.0561H102.889C102.384 18.0561 102.104 17.7482 102.104 17.243V4.56278C102.104 4.3821 101.958 4.24609 101.777 4.24609H98.3133C98.1326 4.24609 97.9966 4.3821 97.9966 4.56278V17.6491C97.9966 20.0554 99.2701 21.2269 101.917 21.226H103.673C103.853 21.226 104.006 21.0919 104.006 20.9112V18.3796C104.006 18.1989 103.838 18.0561 103.657 18.0561Z" fill="#0066CC"/>
<path d="M110.471 8.52539C106.593 8.52539 104.263 10.9501 104.263 15.036C104.263 19.1219 106.64 21.5641 110.678 21.5641C113.521 21.5641 115.431 20.3712 116.207 18.3496C116.273 18.1777 116.302 18.0737 116.301 17.9756C116.3 17.8037 116.214 17.6482 115.956 17.6482H112.72C112.61 17.6482 112.495 17.7055 112.37 17.9008C112.042 18.4137 111.4 18.6828 110.598 18.6828C108.889 18.6828 108.228 17.4666 108.123 15.9725H116.206C116.387 15.9725 116.523 15.8345 116.523 15.6538V14.4561C116.523 10.8297 114.252 8.52539 110.47 8.52539H110.471ZM108.138 13.3758C108.147 11.976 109.072 11.1182 110.469 11.1182C111.866 11.1182 112.732 11.9653 112.712 13.3758H108.138Z" fill="#0066CC"/>
<path d="M124.658 12.0329C124.839 12.0329 124.976 11.8979 124.976 11.7162V9.18075C124.976 9.00006 124.818 8.86406 124.636 8.86406H122.554V5.80693C122.554 5.62624 122.417 5.49023 122.236 5.49023H118.814C118.633 5.49023 118.478 5.63207 118.478 5.81275V8.86309H117.051C116.871 8.86309 116.712 9.00006 116.712 9.18075V11.7152C116.712 11.8959 116.847 12.0329 117.029 12.0329H118.478V16.9241C118.478 19.7821 119.942 21.2247 122.872 21.2247H124.659C124.839 21.2247 124.976 21.0887 124.976 20.908V18.3949C124.976 18.2142 124.84 18.0549 124.66 18.0549H123.345C122.84 18.0549 122.554 17.7469 122.554 17.2418V12.0329H124.659H124.658Z" fill="#0066CC"/>
<path d="M89.9947 18.0553H89.5197C89.1505 18.0553 88.93 17.8105 88.93 17.3063V13.368C88.93 10.3187 86.8696 8.52539 83.3063 8.52539C80.3696 8.52539 78.2713 9.76592 77.465 11.67C77.3805 11.8701 77.3329 12.0226 77.3348 12.1236C77.3378 12.2849 77.4631 12.3947 77.6535 12.3947H81.0273C81.2167 12.3947 81.3236 12.3228 81.4343 12.1149C81.6869 11.6379 82.2241 11.3591 83.046 11.3591C84.2272 11.3591 84.9422 11.9313 84.9432 12.9629V13.4603L81.922 13.6643C78.7502 13.878 77.3115 15.105 77.3115 17.521C77.3115 20.0759 78.9202 21.5641 81.6374 21.5641C83.08 21.5641 84.4322 21.1444 85.4959 20.3148C85.9661 20.8715 86.7714 21.226 87.7516 21.226H90.0005C90.1812 21.226 90.3094 21.09 90.3094 20.9094V18.3758C90.3094 18.1951 90.1744 18.0572 89.9937 18.0572L89.9947 18.0553ZM84.9451 18.0106C84.202 18.4924 83.4782 18.6828 82.8118 18.6828C81.7316 18.6828 81.2031 18.1786 81.2031 17.3539C81.2031 16.6185 81.6238 16.2008 82.7885 16.1133L84.9461 15.9511V18.0106H84.9451Z" fill="#0066CC"/>
<path d="M48.9579 7.39162V4.58512C48.9579 4.40443 48.8219 4.24414 48.6402 4.24414H35.4422C35.2615 4.24414 35.1245 4.40249 35.1245 4.58317V7.39065C35.1245 7.57134 35.2595 7.73065 35.4402 7.73065H39.9244V20.9054C39.9244 21.0861 40.0828 21.225 40.2634 21.225H43.818C43.9987 21.225 44.158 21.089 44.158 20.9083V7.73162H48.6402C48.8209 7.73162 48.9569 7.57328 48.9569 7.39162H48.9579Z" fill="#0066CC"/>
<path d="M96.8637 18.0561H96.0953C95.5902 18.0561 95.3007 17.7482 95.3007 17.243V4.56278C95.3007 4.3821 95.1647 4.24609 94.983 4.24609H91.5188C91.3382 4.24609 91.2021 4.3821 91.2021 4.56278V17.6491C91.2021 20.0554 92.4757 21.2269 95.1229 21.226H96.8783C97.059 21.226 97.2018 21.0919 97.2018 20.9112V18.3709C97.2018 18.1902 97.0434 18.0561 96.8627 18.0561H96.8637Z" fill="#0066CC"/>
<path d="M54.2999 12.7129L47.7786 12.7109C47.5979 12.7109 47.4629 12.846 47.4629 13.0276V15.703C47.4639 15.8837 47.6057 16.0187 47.7874 16.0187H54.2989C54.4796 16.0187 54.6185 15.8827 54.6185 15.702V13.0305C54.6185 12.8499 54.4816 12.7139 54.3009 12.7139L54.2999 12.7129Z" fill="#0066CC"/>
<path d="M33.7142 4.24511H30.115C29.9343 4.24511 29.7905 4.3782 29.7905 4.55889L29.7973 20.9093C29.7973 21.09 29.9343 21.226 30.115 21.226H33.7132C33.8939 21.226 34.0309 21.09 34.0309 20.9093V4.55792C34.0309 4.37723 33.8949 4.24414 33.7142 4.24414V4.24511Z" fill="#0066CC"/>
<path d="M77.2183 4.24609H74.1184C73.9581 4.24609 73.8299 4.36947 73.8036 4.52781L71.8481 16.0899H71.6393L69.2223 4.51324C69.1903 4.3617 69.064 4.24707 68.9085 4.24707H64.1796C64.0251 4.24707 63.8852 4.3617 63.8522 4.51324L61.3867 16.0676H61.1759L59.2466 4.52684C59.2203 4.36947 59.0834 4.24707 58.9231 4.24707H55.7086C55.5055 4.24707 55.3423 4.43747 55.3773 4.63759L58.2402 20.9598C58.2674 21.1162 58.4014 21.2279 58.5598 21.2279H63.4286C63.5821 21.2279 63.7133 21.123 63.7463 20.9724L66.3468 9.04114H66.5819L69.1825 20.9724C69.2155 21.123 69.3438 21.2279 69.4982 21.2279H74.3661C74.5254 21.2279 74.6614 21.1172 74.6886 20.9598L77.5515 4.63759C77.5865 4.43747 77.4213 4.24707 77.2183 4.24707V4.24609Z" fill="#0066CC"/>
<path d="M10.0496 0.125334C9.89512 0.0379041 9.73095 -0.000953689 9.57163 1.77545e-05C9.06843 0.00390353 8.60699 0.407053 8.6099 0.968547L8.63807 6.10943L1.45522 2.08085C1.29979 1.99342 1.13561 1.95456 0.976296 1.95553C0.473088 1.95942 0.015538 2.36257 0.0145665 2.92406L-0.000976562 19.868C-0.000976562 20.6325 0.342915 21.2989 1.07927 21.7118L7.53646 25.343C7.69189 25.4305 7.85606 25.4693 8.01538 25.4684C8.51859 25.4645 8.97711 25.0613 8.97711 24.4998V7.12459L12.3908 9.02473C13.1281 9.43468 13.471 10.104 13.471 10.8685V21.0493L19.8563 24.631C20.0117 24.7184 20.1759 24.7573 20.3352 24.7563C20.8384 24.7524 21.297 24.3493 21.297 23.7878L21.3038 7.67637C21.3038 6.91184 20.9599 6.24543 20.2235 5.83257L10.0496 0.125334Z" fill="#0066CC"/>
</g>
<defs>
<clipPath id="clip0_19591_84306">
<rect width="124.975" height="25.4683" fill="white"/>
</clipPath>
</defs>
</svg>
