<svg width="92" height="150" viewBox="0 0 92 150" fill="none" xmlns="http://www.w3.org/2000/svg">
<path d="M123.197 66.5797L97.8605 84.483C97.367 84.8317 96.9851 85.3193 96.762 85.885L76.0301 138.46C74.915 141.287 78.0737 143.818 80.5413 142.074L105.026 124.773C106.075 124.031 106.887 122.995 107.361 121.793L127.708 70.1938C128.823 67.3661 125.665 64.836 123.197 66.5797Z" fill="#0066CC"/>
<path d="M105.757 51.8788L73.4092 61.1062C72.4912 61.3678 71.7422 62.0516 71.3878 62.9502L51.0221 114.596C50.0834 116.977 52.2425 119.374 54.6616 118.638L85.928 109.119C87.6814 108.585 89.1039 107.265 89.7843 105.539L109.345 55.9357C110.274 53.5782 108.163 51.1923 105.756 51.8796L105.757 51.8788Z" fill="#7AC1FA"/>
<path d="M98.6857 33.5015L57.2102 35.6441C56.0187 35.7057 54.9645 36.4715 54.5196 37.5998L33.7861 90.1784C32.961 92.2708 34.5486 94.4959 36.7573 94.3431L78.1404 91.4821C79.5483 91.3845 80.7843 90.4707 81.3104 89.1365L101.606 37.6696C102.422 35.5985 100.874 33.3889 98.6857 33.5015Z" fill="#FFB357"/>
<path d="M95.7719 15.0294L51.1571 7.05537C49.7385 6.80138 48.3283 7.60365 47.79 8.96859L26.8767 62.0033C26.1583 63.825 27.2727 65.8326 29.1713 66.1373L73.6019 73.272C75.2883 73.5431 76.9476 72.5811 77.5857 70.9629L98.0156 19.1543C98.7259 17.353 97.6448 15.3632 95.773 15.029L95.7719 15.0294Z" fill="#CDD2FC"/>
<path d="M99.2846 -2.66124L55.6155 -20.8724C54.0578 -21.5222 52.2606 -20.7412 51.6297 -19.1412L30.6678 34.0166C30.0462 35.593 30.794 37.3666 32.3393 37.9796L75.5588 55.1264C77.5234 55.9057 79.7598 54.9113 80.55 52.9073L100.907 1.28256C101.522 -0.274897 100.799 -2.02854 99.2836 -2.66076L99.2846 -2.66124Z" fill="#0066CC"/>
</svg>
