<svg width="47" height="32" viewBox="0 0 47 32" fill="none" xmlns="http://www.w3.org/2000/svg">
<path d="M37.2953 0.00886605C38.4316 0.00369357 39.4174 0.792575 39.6613 1.90241L45.6335 29.0711C45.9642 30.5755 44.8188 32 43.2785 32L8.83103 32C7.69586 32 6.71443 31.2082 6.47434 30.0987L0.628868 3.0863C0.304714 1.58837 1.442 0.172069 2.97459 0.165093L37.2953 0.00886605Z" fill="#0066CC"/>
<path d="M14.188 22.442V20.8867H16.2911V11.5552H14.188V10H20.515V11.5552H18.4119V20.8867H20.515V22.442H14.188Z" fill="white"/>
<path d="M22.6964 22.442V10H26.938C30.5787 10 32.6465 12.2268 32.6465 16.115C32.6465 20.0561 30.5787 22.442 27.0087 22.442H22.6964ZM26.885 20.6747C29.1825 20.6747 30.4373 18.9604 30.4373 16.115C30.4373 13.3756 29.2179 11.7673 26.885 11.7673H24.8172V20.6747H26.885Z" fill="white"/>
</svg>
