<svg width="48" height="48" viewBox="0 0 48 48" fill="none" xmlns="http://www.w3.org/2000/svg">
<rect width="48" height="48" rx="8" fill="white"/>
<path d="M23.435 12.1181C23.29 12.0357 23.1359 11.9991 22.9864 12C22.514 12.0037 22.0808 12.3836 22.0835 12.9127L22.11 17.7572L15.367 13.9609C15.2211 13.8785 15.067 13.8419 14.9174 13.8428C14.445 13.8464 14.0155 14.2264 14.0146 14.7555L14 30.7225C14 31.4429 14.3228 32.0709 15.0141 32.46L21.0758 35.8819C21.2217 35.9643 21.3759 36.0009 21.5254 36C21.9978 35.9963 22.4283 35.6164 22.4283 35.0873V18.7138L25.6328 20.5044C26.325 20.8907 26.6469 21.5215 26.6469 22.2419V31.8357L32.6412 35.2109C32.7871 35.2933 32.9412 35.3299 33.0908 35.329C33.5632 35.3253 33.9936 34.9454 33.9936 34.4163L34 19.2338C34 18.5133 33.6772 17.8853 32.9859 17.4963L23.435 12.1181Z" fill="#0066CC"/>
</svg>
