<svg width="143" height="81" viewBox="0 0 143 81" fill="none" xmlns="http://www.w3.org/2000/svg">
<path d="M66.8082 54.4382L4.43288 69.3291C2.17171 69.8688 0 68.1554 0 65.8312V14.592C0 12.2678 2.17171 10.5544 4.43288 11.0941L66.8082 25.985C68.4278 26.3716 69.57 27.8185 69.57 29.4829V50.9403C69.57 52.6047 68.4278 54.0516 66.8082 54.4382Z" fill="#FFB357"/>
<path d="M66.8763 59.5469L10.0295 74.2895C7.75119 74.8801 5.52863 73.1611 5.52863 70.8082V9.61499C5.52863 7.26202 7.75119 5.54308 10.0295 6.13362L66.8763 20.8763C68.4628 21.288 69.5707 22.719 69.5707 24.3577V56.0655C69.5707 57.7042 68.4628 59.1352 66.8763 59.5469Z" fill="#CDD2FC"/>
<path d="M67.1409 64.3129L25.9551 78.4516C23.6198 79.2534 21.1895 77.5186 21.1895 75.0504V5.37344C21.1895 2.9053 23.6198 1.17044 25.9551 1.97232L67.1409 16.111C68.5945 16.6096 69.57 17.9763 69.57 19.5121V60.9118C69.57 62.4476 68.5939 63.8142 67.1409 64.3129Z" fill="#7AC1FA"/>
<path d="M68.1454 68.528L53.4122 79.687C51.0426 81.4813 47.6422 79.7924 47.6422 76.8207V3.60292C47.6422 0.631225 51.0426 -1.05831 53.4122 0.73659L68.1454 11.8956C69.0431 12.5756 69.5701 13.6366 69.5701 14.7619V65.6611C69.5701 66.787 69.0425 67.848 68.1454 68.5274V68.528Z" fill="#0066CC"/>
<path d="M76.1356 54.4382L138.511 69.3291C140.772 69.8688 142.944 68.1554 142.944 65.8312V14.592C142.944 12.2678 140.772 10.5544 138.511 11.0941L76.1356 25.985C74.516 26.3716 73.3738 27.8185 73.3738 29.4829V50.9403C73.3738 52.6047 74.516 54.0516 76.1356 54.4382Z" fill="#CDD2FC"/>
<path d="M76.0673 59.5469L132.914 74.2895C135.192 74.8801 137.415 73.1611 137.415 70.8082V9.61499C137.415 7.26202 135.192 5.54308 132.914 6.13362L76.0673 20.8763C74.4808 21.288 73.3729 22.719 73.3729 24.3577V56.0655C73.3729 57.7042 74.4808 59.1352 76.0673 59.5469Z" fill="#0066CC"/>
<path d="M75.802 64.3129L116.988 78.4516C119.323 79.2534 121.753 77.5186 121.753 75.0504V5.37344C121.753 2.9053 119.323 1.17044 116.988 1.97232L75.802 16.111C74.3485 16.6096 73.3729 17.9763 73.3729 19.5121V60.9118C73.3729 62.4476 74.3491 63.8142 75.802 64.3129Z" fill="#FFB357"/>
<path d="M74.7985 68.528L89.5317 79.687C91.9014 81.4813 95.3017 79.7924 95.3017 76.8207V3.60292C95.3017 0.631225 91.9014 -1.05831 89.5317 0.73659L74.7985 11.8956C73.9008 12.5756 73.3738 13.6366 73.3738 14.7619V65.6611C73.3738 66.787 73.9014 67.848 74.7985 68.5274V68.528Z" fill="#CDD2FC"/>
</svg>
