<svg width="118" height="24" viewBox="0 0 118 24" fill="none" xmlns="http://www.w3.org/2000/svg">
<g clip-path="url(#clip0_19722_64410)">
<path d="M97.9676 16.9982H97.2414C96.764 16.9982 96.4995 16.7083 96.4995 16.2327V4.29521C96.4995 4.12511 96.3618 3.99707 96.191 3.99707H92.917C92.7463 3.99707 92.6177 4.12511 92.6177 4.29521V16.615C92.6177 18.8804 93.8214 19.9833 96.3233 19.9824H97.9823C98.1531 19.9824 98.2972 19.8562 98.2972 19.6861V17.3028C98.2972 17.1327 98.1384 16.9982 97.9676 16.9982Z" fill="#0066CC"/>
<path d="M104.408 8.02637C100.743 8.02637 98.5411 10.3091 98.5411 14.1556C98.5411 18.0022 100.788 20.3014 104.603 20.3014C107.291 20.3014 109.096 19.1783 109.829 17.2751C109.892 17.1133 109.919 17.0154 109.918 16.923C109.918 16.7612 109.836 16.6148 109.593 16.6148H106.533C106.43 16.6148 106.321 16.6688 106.203 16.8526C105.893 17.3355 105.287 17.5888 104.528 17.5888C102.913 17.5888 102.288 16.4438 102.189 15.0373H109.828C109.999 15.0373 110.128 14.9074 110.128 14.7373V13.6097C110.128 10.1957 107.981 8.02637 104.407 8.02637H104.408ZM102.204 12.5927C102.212 11.2748 103.086 10.4673 104.406 10.4673C105.726 10.4673 106.545 11.2648 106.526 12.5927H102.204Z" fill="#0066CC"/>
<path d="M117.816 11.3284C117.987 11.3284 118.117 11.2013 118.117 11.0303V8.6433C118.117 8.47319 117.967 8.34515 117.796 8.34515H115.827V5.46709C115.827 5.29698 115.698 5.16895 115.527 5.16895H112.292C112.122 5.16895 111.975 5.30247 111.975 5.47257V8.34424H110.627C110.456 8.34424 110.307 8.47319 110.307 8.6433V11.0293C110.307 11.1994 110.434 11.3284 110.606 11.3284H111.976V15.9331C111.976 18.6237 113.359 19.9818 116.128 19.9818H117.817C117.987 19.9818 118.117 19.8538 118.117 19.6837V17.3177C118.117 17.1476 117.988 16.9977 117.818 16.9977H116.575C116.098 16.9977 115.827 16.7077 115.827 16.2322V11.3284H117.817H117.816Z" fill="#0066CC"/>
<path d="M85.0557 16.998H84.6067C84.2578 16.998 84.0494 16.7676 84.0494 16.2929V12.5854C84.0494 9.71461 82.1021 8.02637 78.7344 8.02637C75.9589 8.02637 73.9758 9.19424 73.2138 10.9867C73.1339 11.1751 73.0889 11.3187 73.0907 11.4138C73.0935 11.5656 73.2119 11.669 73.3919 11.669H76.5805C76.7595 11.669 76.8605 11.6013 76.9652 11.4056C77.2039 10.9566 77.7116 10.6941 78.4883 10.6941C79.6048 10.6941 80.2805 11.2328 80.2814 12.204V12.6722L77.4261 12.8643C74.4284 13.0655 73.0687 14.2206 73.0687 16.495C73.0687 18.9003 74.5891 20.3014 77.1571 20.3014C78.5205 20.3014 79.7985 19.9063 80.8038 19.1253C81.2482 19.6493 82.0093 19.9831 82.9357 19.9831H85.0612C85.2319 19.9831 85.3531 19.8551 85.3531 19.685V17.2998C85.3531 17.1297 85.2255 16.9999 85.0547 16.9999L85.0557 16.998ZM80.2833 16.956C79.5809 17.4096 78.8969 17.5888 78.2671 17.5888C77.2461 17.5888 76.7467 17.1142 76.7467 16.3377C76.7467 15.6454 77.1442 15.2522 78.245 15.1699L80.2842 15.0171V16.956H80.2833Z" fill="#0066CC"/>
<path d="M46.2704 6.95921V4.3171C46.2704 4.14699 46.1419 3.99609 45.9702 3.99609H33.4966C33.3258 3.99609 33.1964 4.14516 33.1964 4.31527V6.9583C33.1964 7.12841 33.324 7.27839 33.4948 7.27839H37.7328V19.6814C37.7328 19.8515 37.8825 19.9823 38.0532 19.9823H41.4126C41.5834 19.9823 41.734 19.8543 41.734 19.6842V7.2793H45.9702C46.1409 7.2793 46.2695 7.13023 46.2695 6.95921H46.2704Z" fill="#0066CC"/>
<path d="M91.5471 16.9982H90.8208C90.3434 16.9982 90.0698 16.7083 90.0698 16.2327V4.29521C90.0698 4.12511 89.9413 3.99707 89.7696 3.99707H86.4956C86.3248 3.99707 86.1963 4.12511 86.1963 4.29521V16.615C86.1963 18.8804 87.3999 19.9833 89.9018 19.9824H91.5608C91.7316 19.9824 91.8666 19.8562 91.8666 19.6861V17.2945C91.8666 17.1244 91.7169 16.9982 91.5461 16.9982H91.5471Z" fill="#0066CC"/>
<path d="M51.3205 11.9686L45.1572 11.9668C44.9864 11.9668 44.8588 12.0939 44.8588 12.2649V14.7836C44.8597 14.9537 44.9937 15.0808 45.1654 15.0808H51.3196C51.4903 15.0808 51.6216 14.9528 51.6216 14.7827V12.2677C51.6216 12.0976 51.4922 11.9695 51.3214 11.9695L51.3205 11.9686Z" fill="#0066CC"/>
<path d="M31.8641 3.99701H28.4625C28.2917 3.99701 28.1559 4.1223 28.1559 4.29241L28.1623 19.6851C28.1623 19.8552 28.2917 19.9832 28.4625 19.9832H31.8632C32.034 19.9832 32.1634 19.8552 32.1634 19.6851V4.29149C32.1634 4.12139 32.0349 3.99609 31.8641 3.99609V3.99701Z" fill="#0066CC"/>
<path d="M72.9801 3.99707H70.0503C69.8988 3.99707 69.7777 4.11322 69.7529 4.26229L67.9047 15.1472H67.7073L65.423 4.24857C65.3927 4.1059 65.2734 3.99798 65.1265 3.99798H60.6571C60.5111 3.99798 60.3789 4.1059 60.3476 4.24857L58.0175 15.1261H57.8182L55.9948 4.26137C55.9701 4.11322 55.8406 3.99798 55.6891 3.99798H52.6511C52.4592 3.99798 52.3049 4.17724 52.338 4.36563L55.0437 19.7318C55.0694 19.879 55.1961 19.9842 55.3457 19.9842H59.9474C60.0924 19.9842 60.2164 19.8854 60.2476 19.7437L62.7054 8.51126H62.9276L65.3854 19.7437C65.4166 19.8854 65.5378 19.9842 65.6838 19.9842H70.2845C70.435 19.9842 70.5636 19.8799 70.5893 19.7318L73.295 4.36563C73.328 4.17724 73.1719 3.99798 72.9801 3.99798V3.99707Z" fill="#0066CC"/>
<path d="M9.49782 0.117993C9.35184 0.0356839 9.19668 -0.000897829 9.04611 1.67146e-05C8.57052 0.00367489 8.13442 0.38321 8.13717 0.911816L8.1638 5.75158L1.37522 1.95897C1.22832 1.87666 1.07316 1.84008 0.92259 1.84099C0.447005 1.84465 0.0145704 2.22419 0.0136523 2.75279L-0.0010376 18.7043C-0.0010376 19.424 0.323977 20.0514 1.01991 20.4401L7.12265 23.8586C7.26955 23.9409 7.42471 23.9775 7.57528 23.9766C8.05087 23.9729 8.48422 23.5934 8.48422 23.0648V6.70728L11.7105 8.49612C12.4073 8.88206 12.7314 9.51218 12.7314 10.2319V19.8163L18.7662 23.1883C18.9131 23.2706 19.0683 23.3072 19.2189 23.3062C19.6945 23.3026 20.1278 22.923 20.1278 22.3944L20.1342 7.22674C20.1342 6.50699 19.8092 5.87962 19.1133 5.49093L9.49782 0.117993Z" fill="#0066CC"/>
</g>
<defs>
<clipPath id="clip0_19722_64410">
<rect width="118" height="24" fill="white"/>
</clipPath>
</defs>
</svg>
