<?xml version="1.0" encoding="UTF-8"?>
<svg width="86px" height="120px" viewBox="0 0 86 120" version="1.1" xmlns="http://www.w3.org/2000/svg" xmlns:xlink="http://www.w3.org/1999/xlink">
    <!-- Generator: sketchtool 54.1 (76490) - https://sketchapp.com -->
    <title>48EB48A7-21C7-4C51-A65B-DFBBAAD57D49</title>
    <desc>Created with sketchtool.</desc>
    <g id="--#166155583,-#166327520-layout-elenco-servizi-+-dimensioni-item-list" stroke="none" stroke-width="1" fill="none" fill-rule="evenodd">
        <g id="services-areas-no-results" transform="translate(-117.000000, -197.000000)" fill="#00C5CA" fill-rule="nonzero">
            <g id="icon-no-places" transform="translate(117.000000, 197.000000)">
                <path d="M24.2021858,24.84375 C25.4991248,24.84375 26.5519126,23.7936401 26.5519126,22.5 C26.5519126,21.223755 25.511975,20.15625 24.2021858,20.15625 C22.9052468,20.15625 21.852459,21.2063599 21.852459,22.5 C21.852459,23.8037109 22.9190146,24.84375 24.2021858,24.84375 Z" id="Path"></path>
                <path d="M43,120 C43.7241931,120 44.4080005,119.666748 44.8540813,119.096374 C46.5337687,116.944885 86,66.1450195 86,43.59375 C86,20.7788086 66.8322873,0 43,0 C19.191577,0 0,20.7531738 0,43.59375 C0,66.1450195 39.4662313,116.944885 41.1459187,119.096374 C41.5919995,119.666748 42.2758069,120 43,120 Z M4.69945355,43.59375 C4.69945355,22.8680419 22.5968452,4.6875 43,4.6875 C63.4031548,4.6875 81.3005464,22.8680419 81.3005464,43.59375 C81.3005464,61.0336303 53.5388916,99.8602294 43,113.792725 C32.3849258,99.7622681 4.69945355,60.989685 4.69945355,43.59375 Z" id="Shape"></path>
                <path d="M73.5464481,43.59375 C73.5464481,26.7929077 59.843686,13.125 43,13.125 C38.9898609,13.125 35.2862876,13.8574219 31.3440701,15.430298 C30.1398352,15.9109498 29.5533215,17.2750854 30.035199,18.477173 C30.5179943,19.6783448 31.8846908,20.2633666 33.0898438,19.7827148 C36.5042905,18.4204102 39.5607709,17.8125 43,17.8125 C57.2516437,17.8125 68.8469945,29.3783569 68.8469945,43.59375 C68.8469945,57.8091431 57.2516437,69.375 43,69.375 C28.7483563,69.375 17.1530055,57.8091431 17.1530055,43.59375 C17.1530055,39.1818237 18.2627006,34.9456786 20.4499658,31.0006713 C21.0777835,29.8681641 20.6665813,28.442688 19.531186,27.8155519 C18.3957905,27.1893309 16.9657616,27.5994872 16.337944,28.7319947 C13.7605874,33.3782958 12.4535519,38.3789062 12.4535519,43.59375 C12.4535519,60.3945923 26.156314,74.0625 43,74.0625 C59.843686,74.0625 73.5464481,60.3945923 73.5464481,43.59375 Z" id="Path"></path>
                <path d="M43,55.3125 C41.703061,55.3125 40.6502732,56.3626099 40.6502732,57.65625 C40.6502732,58.9498901 41.703061,60 43,60 C44.296939,60 45.3497268,58.9498901 45.3497268,57.65625 C45.3497268,56.3626099 44.296939,55.3125 43,55.3125 Z" id="Path"></path>
                <path d="M45.6094818,46.4053345 C45.7581753,46.1627198 46.21986,45.8422852 46.8036202,45.4376222 C47.4360271,44.9990845 48.2226348,44.4534302 49.1505933,43.6523438 C51.2148652,41.8688965 52.3989071,39.2843627 52.3989071,36.5625 C52.3989071,31.3934325 48.1822491,27.1875 43,27.1875 C37.8076546,27.1875 33.6010929,31.3824464 33.6010929,36.5625 C33.6010929,37.8570558 34.6529627,38.90625 35.9508197,38.90625 C37.2486767,38.90625 38.3005464,37.8570558 38.3005464,36.5625 C38.3005464,33.9733887 40.4042862,31.875 43,31.875 C45.5911245,31.875 47.6994536,33.9779663 47.6994536,36.5625 C47.6994536,37.9238892 47.1074326,39.2166138 46.0748379,40.1083373 C45.335041,40.7464598 44.6907017,41.1941529 44.1216275,41.588745 C41.961898,43.086548 40.6502732,44.2840575 40.6502732,48.28125 C40.6502732,49.5758058 41.702143,50.625 43,50.625 C44.297857,50.625 45.3497268,49.5758058 45.3497268,48.28125 C45.3497268,47.0819091 45.4910774,46.5994263 45.6094818,46.4053345 Z" id="Path"></path>
            </g>
        </g>
    </g>
</svg>