<?xml version="1.0" encoding="UTF-8"?>
<svg width="120px" height="120px" viewBox="0 0 120 120" version="1.1" xmlns="http://www.w3.org/2000/svg" xmlns:xlink="http://www.w3.org/1999/xlink">
    <!-- Generator: sketchtool 54.1 (76490) - https://sketchapp.com -->
    <title>4C5BA205-E5B9-4E07-BFA8-BD900AA8FC0D</title>
    <desc>Created with sketchtool.</desc>
    <g id="#166155583,-#166327520-layout-elenco-servizi-+-dimensioni-item-list" stroke="none" stroke-width="1" fill="none" fill-rule="evenodd">
        <g id="services-areas-not-set" transform="translate(-100.000000, -342.000000)" fill="#00C5CA" fill-rule="nonzero">
            <path d="M161.961953,379.080022 L161.961953,395.116763 C165.49282,393.073776 169.590869,391.903392 173.957734,391.903392 C180.813421,391.903392 187.006558,394.788025 191.382677,399.405074 C191.181318,390.768575 189.923135,382.220512 187.659471,373.946901 L172.849228,373.946901 L167.695703,382.920234 C167.342031,383.536842 166.68625,383.917895 165.974453,383.921871 C165.968359,383.921871 165.964375,383.921871 165.960391,383.921871 C165.252578,383.921871 164.596797,383.546901 164.237031,382.938246 L161.961953,379.080022 Z M156.664085,369.956257 C156.091336,368.649175 155.805558,367.231635 155.83,365.791813 C155.8665,363.585163 156.616262,361.499057 157.963516,359.795433 L157.963516,346.02586 C152.902479,346.19744 147.896022,347.060039 143.0608,348.595997 C139.078196,355.436787 135.921006,362.601652 133.589231,369.956257 L156.664085,369.956257 Z M161.961953,356.770446 C163.241995,356.237374 164.622114,355.968662 165.994375,355.986667 C167.701797,355.996725 169.411094,356.457544 170.910625,357.321637 C173.221797,358.654503 174.875313,360.80538 175.566953,363.38152 C176.161469,365.593345 175.983815,367.88911 175.074587,369.956257 L186.482895,369.956257 C184.148086,362.57495 181.00132,355.441604 177.080322,348.692895 C175.860121,348.30338 174.621507,347.953383 173.365938,347.643977 C169.583826,346.712525 165.766184,346.178351 161.961953,346.034047 L161.961953,356.770446 Z M133.766511,403.877427 L128.667756,403.877427 C128.833063,412.606745 130.081157,421.320651 132.412038,429.81731 L154.483058,429.81731 C151.641933,425.883045 149.966641,421.057026 149.966641,415.847719 C149.966641,411.490234 151.138843,407.400935 153.185069,403.87742 L150.003423,403.877427 L143.702969,414.846082 C143.349062,415.464795 142.691406,415.845848 141.979609,415.849825 C141.975625,415.847719 141.973516,415.847719 141.969531,415.847719 C141.261719,415.847719 140.605937,415.472749 140.246172,414.864094 L133.766511,403.877427 Z M132.039327,399.886784 C131.894462,399.177926 131.826715,398.451725 131.839141,397.719766 C131.883203,395.055906 132.966719,392.567719 134.886016,390.716023 C136.805312,388.864327 139.346406,387.880702 142.003516,387.91462 C143.710937,387.924678 145.418125,388.385497 146.917656,389.249591 C149.230703,390.582456 150.884219,392.733333 151.575859,395.309474 C151.983163,396.82943 152.026554,398.389027 151.718868,399.886784 L155.964297,399.886784 L155.964297,400.026184 C156.590686,399.317418 157.258356,398.645816 157.963516,398.015162 L157.963516,373.946901 L132.409893,373.946901 C130.079699,382.443636 128.832271,391.15754 128.667609,399.886784 L132.039327,399.886784 Z M114.440537,362.897778 L113.400156,361.138713 C112.456328,359.578246 111.960625,357.790409 111.964609,355.968655 C111.968594,353.304795 113.014141,350.800702 114.905547,348.919064 C116.792734,347.043509 119.297969,346.009825 121.960937,346.009825 C121.998906,346.011696 122.046719,346.007719 122.090781,346.009825 C123.82,346.009825 125.545469,346.470643 127.064922,347.346667 C128.266514,348.0395 129.269613,348.945508 130.054018,349.989482 C133.375599,348.080945 136.831194,346.508569 140.379684,345.278584 C140.391111,345.259561 140.402545,345.240539 140.413984,345.22152 L140.461834,345.250176 C151.27797,341.518674 162.953536,340.966169 174.325469,343.768889 C176.096153,344.205018 177.835383,344.716551 179.539593,345.300859 L179.671563,345.221754 C179.703095,345.274144 179.734581,345.326557 179.766022,345.378993 C192.932541,349.951442 203.991607,358.876692 211.289922,370.935906 C224.166678,392.217715 222.528777,418.959677 207.434941,438.456861 L219.355,450.353684 C220.136641,451.133801 220.136641,452.394854 219.355,453.175205 L211.357891,461.156725 C210.967891,461.545731 210.45625,461.741287 209.944375,461.741287 C209.4325,461.741287 208.920625,461.545731 208.530859,461.156725 L196.61788,449.266968 C191.437818,453.264467 185.740471,456.342006 179.725141,458.443168 C179.705969,458.475027 179.686782,458.506875 179.667578,458.538713 L179.587974,458.490893 C173.345771,460.654169 166.763323,461.767251 160.062813,461.767251 C157.731484,461.767251 155.388438,461.63345 153.039297,461.362105 C148.694743,460.859344 144.474767,459.903893 140.432689,458.525396 L140.413984,458.536608 C140.409546,458.529228 140.405108,458.521848 140.400671,458.514467 C129.649609,454.841165 120.158667,448.17421 112.931875,439.071813 C95.1140752,416.629282 95.9283344,384.428992 114.440537,362.897778 Z M119.260201,363.193869 L119.421719,363.347602 C119.407177,363.362832 119.392645,363.378067 119.378123,363.39331 L122.090547,367.980819 L127.25875,358.983626 C128.91625,356.120468 127.930469,352.452865 125.067812,350.800702 C124.136172,350.26386 123.026641,350.014503 121.998906,350.000468 C121.994922,350.000468 121.990937,350.000468 121.988828,350.000468 C120.363437,350.000468 118.862031,350.621053 117.728359,351.746433 C116.594687,352.873918 115.967031,354.376374 115.964922,355.976608 C115.960937,357.072281 116.260703,358.145731 116.828594,359.083509 C116.832578,359.089591 116.836562,359.095439 116.840547,359.10152 L119.260201,363.193869 Z M116.596653,366.543316 C115.688863,367.653548 114.829876,368.792215 114.019831,369.956257 L118.615202,369.956257 L116.596653,366.543316 Z M125.56536,369.956257 L129.401895,369.956257 C131.398229,363.399972 134.023405,356.982871 137.277423,350.792618 C135.403755,351.625241 133.565146,352.564768 131.769094,353.610062 C132.363258,356.023565 132.063246,358.659933 130.723516,360.97731 L125.56536,369.956257 Z M122.12664,373.946901 L111.489216,373.946901 C106.890256,381.935611 104.407326,390.870695 104.080187,399.886784 L124.666792,399.886784 C124.825381,391.163538 126.026041,382.454574 128.268772,373.946901 L122.148313,373.946901 C122.141173,373.947017 122.134027,373.947095 122.126875,373.947135 Z M185.140411,437.811872 L184.621744,437.294216 C181.407683,438.892561 177.786007,439.792047 173.957734,439.792047 C169.590869,439.792047 165.49282,438.621663 161.961947,436.578672 L161.961953,457.513216 L157.963516,457.513216 L157.963516,433.808187 L158.107689,433.808187 C158.107601,433.808109 158.107512,433.808031 158.107424,433.807953 L157.963516,433.807953 L133.591716,433.807953 C135.926599,441.170349 139.088683,448.342537 143.077967,455.189746 C146.438557,456.24159 149.92366,456.98382 153.499141,457.397427 C161.555956,458.329053 169.546944,457.53311 177.043199,455.13111 C180.255042,449.618788 182.973975,443.802118 185.14041,437.811872 Z M188.253047,440.918439 C186.692465,445.01285 184.882653,449.02202 182.841128,452.90764 C186.676155,451.184822 190.339175,449.016239 193.765555,446.420203 L188.253047,440.91844 Z M204.581976,435.609458 C205.032942,435.01585 205.470679,434.415213 205.895153,433.807953 L202.776953,433.807953 L204.581976,435.609458 Z M198.778516,429.81731 L208.440631,429.81731 C213.079935,421.81611 215.593915,412.897674 215.914924,403.877427 L194.730404,403.877427 C196.776625,407.400935 197.948828,411.490234 197.948828,415.847719 C197.948828,419.668653 197.047527,423.28338 195.445963,426.491254 L198.778516,429.81731 Z M193.3027,429.995209 C191.852112,431.96571 190.106957,433.70744 188.132586,435.155173 L209.944609,456.924678 L215.114688,451.764678 L193.3027,429.995209 Z M159.962734,430.084344 C163.571616,433.618798 168.514076,435.801404 173.957734,435.801404 C184.981562,435.801404 193.950391,426.850292 193.950391,415.847719 C193.950391,404.84538 184.981797,395.894035 173.957734,395.894035 C162.931797,395.894035 153.965078,404.845146 153.965078,415.847719 C153.965078,421.281707 156.152704,426.2153 159.695144,429.81731 L159.962734,429.81731 L159.962734,430.084344 Z M195.391932,399.886784 L215.913797,399.886784 C215.591016,390.959883 213.116529,382.050873 208.425037,373.946901 L191.798767,373.946901 C194.01847,382.387807 195.233003,391.095077 195.391923,399.886784 Z M190.668413,369.956257 L205.888211,369.956257 C200.040543,361.549282 192.115469,355.011687 182.860181,350.892891 C186.062963,357.005946 188.673879,363.389872 190.668413,369.956257 Z M124.666932,403.877427 L104.07621,403.877427 C104.395467,413.184593 107.015613,422.442168 111.980312,430.69984 L111.980312,429.81731 L128.270697,429.81731 C126.027384,421.309585 124.826129,412.600622 124.666932,403.877427 Z M137.310316,453.027724 C134.042282,446.820094 131.406871,440.384018 129.404083,433.807953 L113.993941,433.807953 C114.652013,434.752741 115.342966,435.681842 116.066875,436.593684 C121.80907,443.826175 129.083035,449.411561 137.310315,453.027722 Z M161.961953,415.847719 C161.961953,422.450526 167.344141,427.819883 173.959844,427.820117 L173.959844,431.81076 L173.957734,431.81076 C165.138906,431.81076 157.963516,424.649357 157.963516,415.847719 L161.961953,415.847719 Z M176.240781,400.04655 C184.057891,401.169825 189.951719,407.962105 189.951719,415.847719 L185.953281,415.847719 C185.953281,409.933567 181.532969,404.837427 175.671016,403.995322 L176.240781,400.04655 Z M119.937344,353.993216 L123.935781,353.993216 L123.935781,357.98386 L119.937344,357.98386 L119.937344,353.993216 Z M147.109375,400.888421 C148.766875,398.025263 147.781328,394.355556 144.917969,392.705497 C144.018203,392.186667 142.992578,391.909474 141.955,391.903392 C141.921016,391.901287 141.885156,391.901287 141.849062,391.901287 C140.265625,391.901287 138.790234,392.495906 137.662656,393.583392 C136.510937,394.694971 135.86125,396.187368 135.835234,397.785731 C135.815312,398.915088 136.115312,400.022456 136.701016,400.986199 C136.705,400.992281 136.708984,401.000234 136.712969,401.008187 L141.945156,409.879532 L147.109375,400.888421 Z M139.830156,395.89614 L143.828594,395.89614 L143.828594,399.886784 L139.830156,399.886784 L139.830156,395.89614 Z M171.102578,368.962573 C172.757969,366.099181 171.774531,362.429708 168.909297,360.779649 C168.009766,360.260819 166.986016,359.983626 165.948438,359.977544 C165.914453,359.975439 165.878359,359.975439 165.840391,359.975439 C164.256953,359.975439 162.781563,360.570058 161.653984,361.657544 C160.502266,362.769123 159.852578,364.26152 159.826562,365.859883 C159.806641,366.98924 160.106641,368.096608 160.692344,369.060351 C160.696328,369.066433 160.700312,369.074386 160.704297,369.082339 L165.936484,377.955789 L171.102578,368.962573 Z M163.82125,363.970058 L167.819688,363.970058 L167.819688,367.960702 L163.82125,367.960702 L163.82125,363.970058 Z" id="icon-places"></path>
        </g>
    </g>
</svg>