<?xml version="1.0" encoding="UTF-8"?>
<svg width="120px" height="120px" viewBox="0 0 120 120" version="1.1" xmlns="http://www.w3.org/2000/svg" xmlns:xlink="http://www.w3.org/1999/xlink">
    <!-- Generator: sketchtool 54.1 (76490) - https://sketchapp.com -->
    <title>8856395A-C8DC-4F8A-9466-4B12413D3364</title>
    <desc>Created with sketchtool.</desc>
    <g id="--review-elenco-servizi" stroke="none" stroke-width="1" fill="none" fill-rule="evenodd">
        <g id="service-list-loading" transform="translate(-120.000000, -246.000000)" fill="#00C5CA" fill-rule="nonzero">
            <g id="icon-loading-services" transform="translate(120.000000, 246.000000)">
                <path d="M60,116.129032 L60,120 C86.9070968,120 110.692258,101.905161 117.841935,75.9987097 L114.110323,74.9690323 C107.42129,99.2032258 85.1709677,116.129032 60,116.129032 L60,116.129032 Z" id="Path"></path>
                <path d="M115.006452,71.2277419 L118.8,71.996129 C119.069032,70.676129 119.293548,69.3309677 119.471613,67.9974194 L115.635484,67.4845161 C115.469032,68.7348387 115.256129,69.9929032 115.006452,71.2277419 L115.006452,71.2277419 Z" id="Path"></path>
                <path d="M116.129032,60 C116.129032,61.2580645 116.088387,62.5064516 116.007097,63.7451613 L119.870323,63.9987097 C119.955484,62.6767742 120,61.3316129 120,60 L116.129032,60 Z" id="Path"></path>
                <path d="M60,3.87096774 L60,0 C33.0929032,0 9.30774194,18.0948387 2.15806452,44.0012903 L5.88967742,45.0309677 C12.5787097,20.7967742 34.8290323,3.87096774 60,3.87096774 Z" id="Path"></path>
                <path d="M0.528387097,52.0025806 L4.36451613,52.5154839 C4.53096774,51.2670968 4.74193548,50.0090323 4.99354839,48.7722581 L1.2,48.003871 C0.930967742,49.3219355 0.706451613,50.6690323 0.528387097,52.0025806 Z" id="Path"></path>
                <path d="M0,60 L3.87096774,60 C3.87096774,58.7419355 3.9116129,57.4935484 3.99290323,56.2548387 L0.129677419,56.0012903 C0.044516129,57.3232258 4.29763751e-16,58.6683871 0,60 Z" id="Path"></path>
                <path d="M76.8522581,76.8522581 L89.8335484,63.8709677 L86.1987097,60.236129 C85.5290323,59.5664516 85.1612903,58.6780645 85.1612903,57.7335484 C85.1612903,55.7806452 86.7483871,54.1935484 88.7012903,54.1935484 C89.6458065,54.1935484 90.5341935,54.5612903 91.203871,55.2309677 L94.8387097,58.8658065 L109.188387,44.516129 L97.5754839,32.9032258 L98.4735484,32.0051613 C99.8748387,30.603871 100.645161,28.743871 100.645161,26.7658065 C100.645161,22.6780645 97.3219355,19.3548387 93.2341935,19.3548387 C91.256129,19.3548387 89.3941935,20.1251613 87.9948387,21.5264516 L87.0967742,22.4245161 L75.483871,10.8116129 L61.1341935,25.1612903 L64.7690323,28.796129 C65.4387097,29.4658065 65.8064516,30.3541935 65.8064516,31.2987097 C65.8064516,33.2516129 64.2193548,34.8387097 62.2664516,34.8387097 C61.3219355,34.8387097 60.4335484,34.4709677 59.763871,33.8012903 L56.1290323,30.1664516 L43.1477419,43.1477419 L41.7793548,44.516129 L32.9032258,53.3922581 L32.0051613,52.4941935 C30.603871,51.0929032 28.743871,50.3225806 26.7658065,50.3225806 C22.6780645,50.3225806 19.3548387,53.6458065 19.3548387,57.7335484 C19.3548387,59.7116129 20.1251613,61.5735484 21.5264516,62.9729032 L22.4245161,63.8709677 L10.8116129,75.483871 L44.516129,109.188387 L75.483871,78.2206452 L76.8522581,76.8522581 Z M56.1290323,35.64 L57.0270968,36.5380645 C58.4283871,37.9393548 60.2883871,38.7096774 62.2664516,38.7096774 C66.3541935,38.7096774 69.6774194,35.3864516 69.6774194,31.2987097 C69.6774194,29.3206452 68.9070968,27.4587097 67.5058065,26.0593548 L66.6077419,25.1612903 L75.483871,16.2851613 L87.0967742,27.8980645 L90.7316129,24.2632258 C91.4012903,23.5935484 92.2896774,23.2258065 93.2341935,23.2258065 C95.1870968,23.2258065 96.7741935,24.8129032 96.7741935,26.7658065 C96.7741935,27.7103226 96.4064516,28.5987097 95.7367742,29.2683871 L92.1019355,32.9032258 L103.714839,44.516129 L94.8387097,53.3922581 L93.9406452,52.4941935 C92.5393548,51.0929032 90.6793548,50.3225806 88.7012903,50.3225806 C84.6135484,50.3225806 81.2903226,53.6458065 81.2903226,57.7335484 C81.2903226,59.7116129 82.0606452,61.5735484 83.4619355,62.9729032 L84.36,63.8709677 L75.483871,72.7470968 L63.8709677,61.1341935 L60.236129,64.7690323 C59.5664516,65.4387097 58.6780645,65.8064516 57.7335484,65.8064516 C55.7806452,65.8064516 54.1935484,64.2193548 54.1935484,62.2664516 C54.1935484,61.3219355 54.5612903,60.4335484 55.2309677,59.763871 L58.8658065,56.1290323 L47.2529032,44.516129 L56.1290323,35.64 Z M44.516129,103.714839 L16.2851613,75.483871 L27.8980645,63.8709677 L24.2632258,60.236129 C23.5935484,59.5664516 23.2258065,58.6780645 23.2258065,57.7335484 C23.2258065,55.7806452 24.8129032,54.1935484 26.7658065,54.1935484 C27.7103226,54.1935484 28.5987097,54.5612903 29.2683871,55.2309677 L32.9032258,58.8658065 L44.516129,47.2529032 L53.3922581,56.1290323 L52.4941935,57.0270968 C51.0929032,58.4283871 50.3225806,60.2883871 50.3225806,62.2664516 C50.3225806,66.3541935 53.6458065,69.6774194 57.7335484,69.6774194 C59.7116129,69.6774194 61.5735484,68.9070968 62.9729032,67.5058065 L63.8709677,66.6077419 L72.7470968,75.483871 L44.516129,103.714839 Z" id="Shape"></path>
                <path d="M60,112.258065 C61.3412903,112.258065 62.6941935,112.207742 64.0180645,112.105161 L63.723871,108.245806 C62.4967742,108.340645 61.2445161,108.387097 60,108.387097 L60,112.258065 Z" id="Path"></path>
                <path d="M68.0380645,111.644516 C69.3832258,111.437419 70.736129,111.172258 72.0580645,110.860645 L71.1677419,107.094194 C69.9445161,107.382581 68.6922581,107.626452 67.4458065,107.82 L68.0380645,111.644516 Z" id="Path"></path>
                <path d="M74.8877419,106.052903 L76.0780645,109.736129 C97.7187097,102.745161 112.258065,82.7574194 112.258065,60 L108.387097,60 C108.387097,81.0735484 94.9258065,99.5806452 74.8877419,106.052903 Z" id="Path"></path>
                <path d="M60,11.6129032 L60,7.74193548 C58.6587097,7.74193548 57.3058065,7.79225806 55.9819355,7.89483871 L56.276129,11.7541935 C57.5032258,11.6593548 58.7554839,11.6129032 60,11.6129032 L60,11.6129032 Z" id="Path"></path>
                <path d="M48.8322581,12.9077419 C50.0554839,12.6193548 51.3077419,12.3754839 52.5541935,12.1819355 L51.9619355,8.35548387 C50.6167742,8.56258065 49.263871,8.82774194 47.9419355,9.13935484 L48.8322581,12.9077419 Z" id="Path"></path>
                <path d="M45.1122581,13.9470968 L43.9219355,10.263871 C22.2812903,17.2548387 7.74193548,37.2425806 7.74193548,60 L11.6129032,60 C11.6129032,38.9264516 25.0741935,20.4193548 45.1122581,13.9470968 Z" id="Path"></path>
                <polygon id="Path" transform="translate(51.205161, 90.065621) rotate(-45.000000) translate(-51.205161, -90.065621) " points="49.2699697 88.1304291 53.1403529 88.1304291 53.1403529 92.0008122 49.2699697 92.0008122"></polygon>
                <polygon id="Path" transform="translate(56.680645, 84.591674) rotate(-45.000000) translate(-56.680645, -84.591674) " points="54.7454536 82.656482 58.6158368 82.656482 58.6158368 86.5268651 54.7454536 86.5268651"></polygon>
                <polygon id="Path" transform="translate(45.801290, 95.467339) rotate(-45.000000) translate(-45.801290, -95.467339) " points="43.9628583 93.5321478 47.6397223 93.5321478 47.6397223 97.4025309 43.9628583 97.4025309"></polygon>
            </g>
        </g>
    </g>
</svg>