<svg width="64" height="52" viewBox="0 0 64 52" fill="none" xmlns="http://www.w3.org/2000/svg">
<mask id="mask0_5554_34255" style="mask-type:luminance" maskUnits="userSpaceOnUse" x="0" y="0" width="64" height="52">
<path fill-rule="evenodd" clip-rule="evenodd" d="M6.40312 12.9709C2.8668 12.9709 0 10.0673 0 6.48551C0 2.90371 2.8668 0 6.40312 0C9.93944 0 12.8062 2.90371 12.8062 6.48551C12.8062 10.0673 9.93944 12.9709 6.40312 12.9709ZM6.40312 18.9575C9.39536 18.9575 11.8211 21.3982 11.8211 24.409V45.5803C11.8211 48.5912 9.39536 51.0319 6.40312 51.0319C3.41088 51.0319 0.98512 48.5912 0.98512 45.5803V24.409C0.98512 21.3982 3.41088 18.9575 6.40312 18.9575ZM33.9724 29.9252C33.4411 29.9252 32.9916 29.7351 32.6442 29.3549C32.2969 28.9747 32.113 28.51 32.113 27.9609C32.113 27.4116 32.2969 26.9469 32.6238 26.5668C32.9712 26.1866 33.4207 26.0175 33.9519 26.0175C34.4831 26.0175 34.9327 26.2077 35.28 26.5879C35.6274 26.9681 35.7909 27.4327 35.7909 28.003C35.7909 28.5734 35.6274 29.017 35.28 29.3971C34.9531 29.7351 34.5241 29.9252 33.9724 29.9252ZM50.7271 29.017H47.9074V33.8963C47.9074 34.3821 47.9278 34.699 47.9483 34.9102C47.9687 35.1002 48.0505 35.2693 48.1934 35.4172C48.3365 35.5649 48.5613 35.6284 48.8678 35.6284L50.625 35.586L50.768 38.1208C49.7464 38.3531 48.9495 38.4798 48.4182 38.4798C47.0289 38.4798 46.089 38.163 45.5986 37.5082C45.0878 36.8745 44.8426 35.6917 44.8426 33.9596V22.997H47.9278V26.2921H50.7475V29.017H50.7271ZM38.6106 38.1842V26.3133H41.6959V38.2053H38.6106V38.1842ZM43.9609 52C54.5797 52 64 42.5297 64 30.8475C64 19.1653 54.5797 9.69494 43.9609 9.69494C31.3382 9.69494 21.9178 19.1653 21.9178 30.8475C21.9178 42.5297 31.3382 52 43.9609 52Z" fill="white"/>
</mask>
<g mask="url(#mask0_5554_34255)">
<rect x="-11.8877" y="-13" width="100" height="100" fill="white"/>
</g>
</svg>
