<svg width="48" height="48" viewBox="0 0 48 48" fill="none" xmlns="http://www.w3.org/2000/svg">
  <path d="M33.7042 3.56097C30.0566 3.56097 26.6465 4.93469 24 7.44954C21.3535 4.93469 17.9433 3.56097 14.2958 3.56097C6.41306 3.56097 0 10.1281 0 18.2001C0 22.8799 3.98841 28.7119 11.8546 35.534C17.6058 40.5219 23.4379 44.2549 23.4961 44.2921C23.6498 44.39 23.8249 44.439 24 44.439C24.1751 44.439 24.3503 44.3899 24.504 44.292C24.5622 44.2548 30.3943 40.5218 36.1455 35.5339C44.0116 28.7118 48 22.8798 48 18.2001C48 10.1281 41.5869 3.56097 33.7042 3.56097ZM34.9331 34.1035C30.2564 38.1614 25.5226 41.3754 24 42.3817C22.4798 41.3772 17.7583 38.1721 13.083 34.1174C5.75063 27.7583 1.875 22.2542 1.875 18.2001C1.875 11.1618 7.44703 5.43597 14.2958 5.43597C17.7389 5.43597 20.9406 6.85104 23.3109 9.42044C23.4884 9.61282 23.7382 9.72222 24 9.72222C24.2618 9.72222 24.5116 9.61282 24.6891 9.42044C27.0595 6.85113 30.2611 5.43607 33.7042 5.43607C40.553 5.43597 46.125 11.1618 46.125 18.2001C46.125 22.251 42.2549 27.7503 34.9331 34.1035Z" fill="@fillColor"/>
  <path d="M32.5668 8.74753L32.5315 8.75363C32.0217 8.84419 31.6819 9.33084 31.7724 9.84066C31.8532 10.295 32.2485 10.6143 32.6944 10.6143C32.7489 10.6143 32.8041 10.6095 32.8594 10.5997L32.878 10.5965C33.3886 10.5105 33.7329 10.0269 33.6469 9.51638C33.5609 9.00563 33.0769 8.66184 32.5668 8.74753Z" fill="@fillColor"/>
  <path d="M41.1615 12.3171C40.0104 10.7358 38.3754 9.55802 36.5578 9.00067C36.0627 8.8487 35.5385 9.12714 35.3867 9.62214C35.2349 10.1171 35.5132 10.6415 36.0082 10.7933C39.0043 11.712 41.0968 14.6443 41.0968 17.9242C41.0968 18.442 41.5165 18.8617 42.0343 18.8617C42.5521 18.8617 42.9718 18.442 42.9717 17.9241C42.9717 15.8828 42.3457 13.9439 41.1615 12.3171Z" fill="@fillColor"/>
</svg>
