<svg width="101" height="28" viewBox="0 0 101 28" fill="none" xmlns="http://www.w3.org/2000/svg">
<g clip-path="url(#clip0_5554_34198)">
<path d="M100.169 1.97168V21.2956H97.0141L97.0141 18.776C95.2971 20.3412 93.0136 21.2956 90.5071 21.2956C87.4263 21.2956 84.6823 19.8537 82.9131 17.6078C83.6402 16.5671 84.182 15.388 84.4916 14.1179C85.4675 16.4793 87.7933 18.1407 90.5071 18.1407C94.1008 18.1407 97.0141 15.2274 97.0141 11.6337C97.0141 8.03991 94.1008 5.12661 90.5071 5.12661C87.7933 5.12661 85.4675 6.788 84.4913 9.14919C84.182 7.87932 83.6402 6.70018 82.9139 5.65944C84.6823 3.41364 87.4263 1.97168 90.5071 1.97168C93.0136 1.97168 95.2971 2.92609 97.0141 4.49132L97.0141 1.97168H100.169Z" fill="white"/>
<path d="M3.15489 1.97168L3.15486 4.49132C4.87189 2.92609 7.15541 1.97168 9.66185 1.97168C12.7425 1.97168 15.4864 3.41348 17.2556 5.6591C16.5289 6.69988 15.9871 7.87916 15.6773 9.14938C14.7015 6.788 12.3757 5.12661 9.66185 5.12661C6.06816 5.12661 3.15489 8.03991 3.15489 11.6337C3.15489 15.2274 6.06816 18.1407 9.66185 18.1407C12.3757 18.1407 14.7015 16.4793 15.6777 14.1181C15.9871 15.3881 16.5289 16.5674 17.2554 17.6083C15.4864 19.8538 12.7425 21.2956 9.66185 21.2956C7.15541 21.2956 4.87189 20.3412 3.15486 18.776L3.15489 26.8168H0V1.97168H3.15489Z" fill="white"/>
<path d="M35.4925 1.97168V3.45575C33.7105 4.87561 32.403 6.86567 31.8462 9.14978C30.8706 6.78819 28.5447 5.12661 25.8307 5.12661C22.2371 5.12661 19.3238 8.03991 19.3238 11.6337C19.3238 15.2274 22.2371 18.1407 25.8307 18.1407C28.5447 18.1407 30.8706 16.4791 31.8467 14.1177C32.403 16.4016 33.7105 18.3917 35.4925 19.8116V21.2956H32.3377L32.3377 18.776C30.6207 20.3412 28.3372 21.2956 25.8307 21.2956C20.4947 21.2956 16.1689 16.9698 16.1689 11.6337C16.1689 6.29749 20.4947 1.97168 25.8307 1.97168C28.3372 1.97168 30.6207 2.92609 32.3377 4.49132L32.3377 1.97168H35.4925Z" fill="white"/>
<path d="M67.8312 1.97168L67.8316 4.49096C69.5486 2.92595 71.832 1.97168 74.3382 1.97168C79.6744 1.97168 84.0002 6.29749 84.0002 11.6337C84.0002 16.9698 79.6744 21.2956 74.3382 21.2956C71.832 21.2956 69.5486 20.3414 67.8316 18.7763L67.8312 26.8168H64.6763L64.6766 19.8117C66.4585 18.3919 67.766 16.4019 68.3229 14.1179C69.2985 16.4793 71.6244 18.1407 74.3382 18.1407C77.932 18.1407 80.8453 15.2274 80.8453 11.6337C80.8453 8.03991 77.932 5.12661 74.3382 5.12661C71.6244 5.12661 69.2985 6.788 68.3223 9.14919C67.766 6.86537 66.4585 4.87542 64.6766 3.45564L64.6763 1.97168H67.8312Z" fill="white"/>
<path d="M51.6618 0V4.49146C53.3789 2.92624 55.6624 1.97183 58.1689 1.97183C63.505 1.97183 67.8308 6.29764 67.8308 11.6338C67.8308 16.97 63.505 21.2958 58.1689 21.2958C55.6624 21.2958 53.3789 20.3414 51.6618 18.7761V21.339C51.6618 23.7997 50.6775 26.1127 48.9502 27.8722L48.8225 28L46.6138 25.7426C47.7875 24.5896 48.4625 23.0932 48.5048 21.4987L48.5069 21.339L48.5069 18.8142C46.7899 20.3826 44.5063 21.339 41.9999 21.339C36.6637 21.339 32.3379 17.0044 32.3379 11.6574C32.3379 6.31042 36.6637 1.97583 41.9999 1.97583C44.5063 1.97583 46.7899 2.93218 48.5069 4.50058L48.5069 0H51.6618ZM41.9999 5.13716C38.4061 5.13716 35.4928 8.05637 35.4928 11.6574C35.4928 15.2584 38.4061 18.1776 41.9999 18.1776C45.5936 18.1776 48.5069 15.2584 48.5069 11.6574C48.5069 8.05637 45.5936 5.13716 41.9999 5.13716ZM58.1689 5.12676C54.5752 5.12676 51.6619 8.04006 51.6619 11.6338C51.6619 15.2275 54.5752 18.1408 58.1689 18.1408C61.7626 18.1408 64.6759 15.2275 64.6759 11.6338C64.6759 8.04006 61.7626 5.12676 58.1689 5.12676Z" fill="white"/>
</g>
<defs>
<clipPath id="clip0_5554_34198">
<rect width="100.169" height="28" fill="white"/>
</clipPath>
</defs>
</svg>
