<?xml version="1.0" encoding="UTF-8"?>
<svg width="120px" height="120px" viewBox="0 0 120 120" version="1.1" xmlns="http://www.w3.org/2000/svg" xmlns:xlink="http://www.w3.org/1999/xlink">
    <title>pictograms/deco/glasshour</title>
    <defs>
        <path d="M82.0263757,0 C84.2355147,0 86.0263757,1.790861 86.0263757,4 L86.0263757,6 C86.0263757,8.209139 84.2355147,10 82.0263757,10 L80.0263757,10 L80.0263757,12.6294643 C80.0263757,26.6717925 72.118131,39.5089359 59.5811537,45.8695315 L59.1568105,46.0814732 C56.7811584,47.2489375 55.2437671,49.6159107 55.2437671,52.2522321 L55.2437671,52.2522321 L55.2437671,58.7477679 C55.2437671,61.3840893 56.7846366,63.7510625 59.1568105,64.9185268 C71.9394192,71.2027411 80.0263757,84.1738929 80.0263757,98.3705357 L80.0263757,98.3705357 L80.0263757,101 L82.0263757,101 C84.2355147,101 86.0263757,102.790861 86.0263757,105 L86.0263757,107 C86.0263757,109.209139 84.2355147,111 82.0263757,111 L18.0263757,111 C15.8172368,111 14.0263757,109.209139 14.0263757,107 L14.0263757,105 C14.0263757,102.790861 15.8172368,101 18.0263757,101 L20.0263757,101 L20.0263757,98.3705357 C20.0263757,84.3282075 27.9346205,71.4910641 40.4715978,65.1304685 L40.895941,64.9185268 C43.2681149,63.7510625 44.8089844,61.3840893 44.8089844,58.7477679 L44.8089844,58.7477679 L44.8089844,52.2522321 C44.8089844,49.6159107 43.2681149,47.2489375 40.895941,46.0814732 C28.1133323,39.7972589 20.0263757,26.8261071 20.0263757,12.6294643 L20.0263757,12.6294643 L20.0263757,10 L18.0263757,10 C15.8172368,10 14.0263757,8.209139 14.0263757,6 L14.0263757,4 C14.0263757,1.790861 15.8172368,0 18.0263757,0 L82.0263757,0 Z M82.0263757,104 L18.0263757,104 C17.5135399,104 17.0908686,104.38604 17.0331035,104.883379 L17.0263757,105 L17.0263757,107 C17.0263757,107.512836 17.4124159,107.935507 17.9097546,107.993272 L18.0263757,108 L82.0263757,108 C82.5392116,108 82.9618829,107.61396 83.019648,107.116621 L83.0263757,107 L83.0263757,105 C83.0263757,104.487164 82.6403356,104.064493 82.1429969,104.006728 L82.0263757,104 Z M76.5481149,10.4642857 L23.5046366,10.4642857 L23.5046366,12.6294643 C23.5046366,25.5096786 30.8246366,37.23975 42.4176801,42.9419643 C45.9794192,44.6914286 48.2872453,48.2960179 48.2872453,52.2522321 L48.2872453,52.2522321 L48.2872453,58.7477679 C48.2872453,62.7005179 45.9794192,66.3085714 42.4176801,68.0580357 C30.8246366,73.7637143 23.5046366,85.4903214 23.5046366,98.3705357 L23.5046366,98.3705357 L23.5046366,100.535714 L24.3723206,100.535356 C25.3051661,94.5161103 26.3231439,90.2967846 27.4262539,87.8773791 C32.2287065,77.3443585 40.5185469,72.0778483 50.1820723,72.0778483 C59.8643735,72.0778483 68.1635356,77.3648436 72.965856,87.9388341 C74.0933708,90.421453 75.1297286,94.8011244 76.0749294,101.077848 L75.9923757,100.535 L76.5481149,100.535714 L76.5481149,98.3705357 C76.5481149,85.4903214 69.2281149,73.76025 57.6350714,68.0580357 C54.0733323,66.3120357 51.7655062,62.7039821 51.7655062,58.7477679 L51.7655062,58.7477679 L51.7655062,52.2522321 C51.7655062,48.2960179 54.0768105,44.6914286 57.6350714,42.9419643 C69.2281149,37.2362857 76.5481149,25.5096786 76.5481149,12.6294643 L76.5481149,12.6294643 L76.5481149,10.4642857 Z M95.1692509,92.7348331 C96.2209516,92.7348331 97.0821863,93.5491793 97.1583075,94.5825538 L97.1637768,94.7316044 L97.1637768,96.727462 C97.1637768,97.830484 96.2710326,98.7242335 95.1692509,98.7242335 C94.1184215,98.7242335 93.2572264,97.9098874 93.1811071,96.8765127 L93.1756378,96.727462 L93.1756378,94.7316044 C93.1756378,93.6285826 94.068382,92.7348331 95.1692509,92.7348331 Z M91.1811119,88.7422042 C92.2828934,88.7422042 93.1756378,89.6359535 93.1756378,90.7389756 C93.1756378,91.790988 92.3622074,92.6531527 91.329995,92.7293577 L91.1811119,92.7348331 L89.1874988,92.7348331 C88.0857172,92.7348331 87.1929727,91.8410838 87.1929727,90.7389756 C87.1929727,89.6860909 88.0064031,88.8238866 89.0386158,88.7476797 L89.1874988,88.7422042 L91.1811119,88.7422042 Z M101.151916,88.7422042 C102.252785,88.7422042 103.146442,89.6359535 103.146442,90.7389756 C103.146442,91.790988 102.33218,92.6531527 101.300685,92.7293577 L101.151916,92.7348331 L99.1573899,92.7348331 C98.056521,92.7348331 97.1637768,91.8410838 97.1637768,90.7389756 C97.1637768,89.6860909 97.977207,88.8238866 99.0086258,88.7476797 L99.1573899,88.7422042 L101.151916,88.7422042 Z M95.1692509,82.7528039 C96.2209516,82.7528039 97.0821863,83.56715 97.1583075,84.6005247 L97.1637768,84.7495754 L97.1637768,86.7454329 C97.1637768,87.848455 96.2710326,88.7422042 95.1692509,88.7422042 C94.1184215,88.7422042 93.2572264,87.9278583 93.1811071,86.8944836 L93.1756378,86.7454329 L93.1756378,84.7495754 C93.1756378,83.6465533 94.068382,82.7528039 95.1692509,82.7528039 Z M50.0263757,66 C51.1302819,66 52.0263757,66.8960938 52.0263757,68 C52.0263757,69.1039062 51.1302819,70 50.0263757,70 C48.9224695,70 48.0263757,69.1039062 48.0263757,68 C48.0263757,66.8960938 48.9224695,66 50.0263757,66 Z M8.00265397,52.9820292 C9.05435465,52.9820292 9.91558939,53.7963753 9.99171052,54.8297499 L9.99717985,54.9788005 L9.99717985,56.9746581 C9.99717985,58.0776801 9.10443563,58.9714296 8.00265397,58.9714296 C6.95182457,58.9714296 6.09062943,58.1570835 6.0145101,57.1237087 L6.00904086,56.9746581 L6.00904086,54.9788005 C6.00904086,53.8757787 6.90178507,52.9820292 8.00265397,52.9820292 Z M4.01451498,48.9894003 C5.11629641,48.9894003 6.00904086,49.8831496 6.00904086,50.9861717 C6.00904086,52.0381841 5.19561048,52.9003488 4.163398,52.9765538 L4.01451498,52.9820292 L2.02090186,52.9820292 C0.9191202,52.9820292 0.0263757497,52.0882799 0.0263757497,50.9861717 C0.0263757497,49.933287 0.839806127,49.0710826 1.8720188,48.9948758 L2.02090186,48.9894003 L4.01451498,48.9894003 Z M13.9853188,48.9894003 C15.0861877,48.9894003 15.9798447,49.8831496 15.9798447,50.9861717 C15.9798447,52.0381841 15.1655829,52.9003488 14.1340885,52.9765538 L13.9853188,52.9820292 L11.990793,52.9820292 C10.8899241,52.9820292 9.99717985,52.0882799 9.99717985,50.9861717 C9.99717985,49.933287 10.81061,49.0710826 11.8420288,48.9948758 L11.990793,48.9894003 L13.9853188,48.9894003 Z M8.00265397,43 C9.05435465,43 9.91558939,43.814346 9.99171052,44.8477208 L9.99717985,44.9967715 L9.99717985,46.992629 C9.99717985,48.095651 9.10443563,48.9894003 8.00265397,48.9894003 C6.95182457,48.9894003 6.09062943,48.1750544 6.0145101,47.1416797 L6.00904086,46.992629 L6.00904086,44.9967715 C6.00904086,43.8937494 6.90178507,43 8.00265397,43 Z M72.2194418,16.0447849 C73.1858648,16.0568469 73.9595273,16.8500657 73.9474654,17.8164887 C73.8958243,21.954058 72.3808242,25.9003404 69.6469186,28.8877739 C68.9944255,29.6007758 67.8874731,29.6498279 67.1744712,28.9973347 C66.4614693,28.3448416 66.4124172,27.2378892 67.0649103,26.5248873 C69.2096488,24.1812572 70.4066699,21.0632485 70.447738,17.7728085 C70.4597999,16.8063855 71.2530187,16.032723 72.2194418,16.0447849 Z M97.390605,12.4432378 C98.4423057,12.4432378 99.3035404,13.2566682 99.3796615,14.2888807 L99.3851309,14.4377637 L99.3851309,16.4313768 C99.3851309,17.5331584 98.4923867,18.4259029 97.390605,18.4259029 C96.3397756,18.4259029 95.4785805,17.6124725 95.4024611,16.5802598 L95.3969919,16.4313768 L95.3969919,14.4377637 C95.3969919,13.3359823 96.2897361,12.4432378 97.390605,12.4432378 Z M93.402466,8.45509887 C94.5042474,8.45509887 95.3969919,9.34784307 95.3969919,10.4496247 C95.3969919,11.5004541 94.5835615,12.3616493 93.551349,12.4377686 L93.402466,12.4432378 L91.4088529,12.4432378 C90.3070712,12.4432378 89.4143268,11.5504936 89.4143268,10.4496247 C89.4143268,9.39792406 90.2277571,8.53668933 91.2599698,8.46056819 L91.4088529,8.45509887 L93.402466,8.45509887 Z M103.37327,8.45509887 C104.474139,8.45509887 105.367796,9.34784307 105.367796,10.4496247 C105.367796,11.5004541 104.553534,12.3616493 103.52204,12.4377686 L103.37327,12.4432378 L101.378744,12.4432378 C100.277875,12.4432378 99.3851309,11.5504936 99.3851309,10.4496247 C99.3851309,9.39792406 100.198561,8.53668933 101.22998,8.46056819 L101.378744,8.45509887 L103.37327,8.45509887 Z M97.390605,2.47243392 C98.4423057,2.47243392 99.3035404,3.28586418 99.3796615,4.31807684 L99.3851309,4.4669599 L99.3851309,6.460573 C99.3851309,7.56235466 98.4923867,8.45509887 97.390605,8.45509887 C96.3397756,8.45509887 95.4785805,7.64166871 95.4024611,6.60945606 L95.3969919,6.460573 L95.3969919,4.4669599 C95.3969919,3.36517825 96.2897361,2.47243392 97.390605,2.47243392 Z M82.0263757,3 L18.0263757,3 C17.5135399,3 17.0908686,3.38604019 17.0331035,3.88337887 L17.0263757,4 L17.0263757,6 C17.0263757,6.51283584 17.4124159,6.93550716 17.9097546,6.99327227 L18.0263757,7 L82.0263757,7 C82.5392116,7 82.9618829,6.61395981 83.019648,6.11662113 L83.0263757,6 L83.0263757,4 C83.0263757,3.48716416 82.6403356,3.06449284 82.1429969,3.00672773 L82.0263757,3 Z" id="path-1"></path>
    </defs>
    <g id="pictograms/deco/glasshour" stroke="none" stroke-width="1" fill="none" fill-rule="evenodd">
        <g id="colors/@aqua" transform="translate(9.973624, 4.000000)">
            <mask id="mask-2" fill="white">
                <use xlink:href="#path-1"></use>
            </mask>
            <g id="Mask" fill-rule="nonzero"></g>
            <g mask="url(#mask-2)" fill="#00C5CA" id="Rectangle-Copy-9">
                <g transform="translate(-19.000000, -7.000000)">
                    <rect x="0" y="0" width="143" height="143"></rect>
                </g>
            </g>
        </g>
    </g>
</svg>