<?xml version="1.0" encoding="UTF-8"?>
<svg width="120px" height="120px" viewBox="0 0 120 120" version="1.1" xmlns="http://www.w3.org/2000/svg" xmlns:xlink="http://www.w3.org/1999/xlink">
    <title>686AD73B-1535-427E-9A17-D2F9A04978DB</title>
    <defs>
        <path d="M59.9565571,0.506383725 C92.7663396,0.506383725 119.460689,27.2007334 119.460689,60.010516 C119.460689,92.8202985 92.7663396,119.514648 59.9565571,119.514648 C27.1467745,119.514648 0.452424838,92.8202985 0.452424838,60.010516 C0.452424838,27.2007334 27.1467745,0.506383725 59.9565571,0.506383725 Z M59.9565571,6.45194343 C30.4228993,6.45194343 6.39798454,30.4768582 6.39798454,60.010516 C6.39798454,89.5441738 30.4228993,113.569088 59.9565571,113.569088 C89.4902149,113.569088 113.51513,89.5441738 113.51513,60.010516 C113.51513,30.4768582 89.4902149,6.45194343 59.9565571,6.45194343 Z M75.5363503,45.5227643 C76.7011946,44.35792 78.5697991,44.35792 79.7346434,45.5227643 C80.8752202,46.6876087 80.8752202,48.5562132 79.7103758,49.7210575 L79.7103758,49.7210575 L54.7875603,74.4982676 C54.2051381,75.0806897 53.4528428,75.3719008 52.7005475,75.3719008 C51.9239846,75.3719008 51.1716893,75.0806897 50.5892671,74.4982676 L50.5892671,74.4982676 L40.1784707,64.0146684 C39.0378939,62.8498241 39.0378939,60.956952 40.2027383,59.8163752 C41.3675826,58.6757985 43.2361871,58.6757985 44.4010315,59.8406428 L44.4010315,59.8406428 L52.7248151,68.2129616 Z" id="path-1"></path>
    </defs>
    <g id="Inserimento-Carta" stroke="none" stroke-width="1" fill="none" fill-rule="evenodd">
        <g id="6.-Thankyou-page---Esito---OK" transform="translate(-128.000000, -247.000000)">
            <g id="Group-3" transform="translate(53.000000, 247.000000)">
                <g id="colors/@aqua" transform="translate(75.000000, 0.000000)">
                    <mask id="mask-2" fill="white">
                        <use xlink:href="#path-1"></use>
                    </mask>
                    <g id="Mask" fill-rule="nonzero"></g>
                    <g mask="url(#mask-2)" fill="#00C5CA" id="Rectangle-Copy-9">
                        <g transform="translate(-8.925620, -23.801653)">
                            <rect x="0" y="0" width="144.793388" height="152.727273"></rect>
                        </g>
                    </g>
                </g>
            </g>
        </g>
    </g>
</svg>