<svg width="22" height="21" viewBox="0 0 22 21" fill="none" xmlns="http://www.w3.org/2000/svg">
  <mask id="mask0" style="mask-type:alpha" maskUnits="userSpaceOnUse" x="0" y="0" width="22" height="21">
    <path
      d="M16.3419 0.214071C16.6826 0.39693 16.9381 0.677648 17.071 1.01277L17.1204 1.1596L21.7224 17.5257C21.8355 17.9288 21.7685 18.3486 21.5344 18.7025C21.332 19.0109 21.0244 19.2399 20.658 19.3598L20.4975 19.4044L17.6664 20.0535C17.5277 20.0851 17.3886 20.1012 17.251 20.1012C16.9498 20.1012 16.6566 20.0284 16.3938 19.8872C16.0531 19.7034 15.7979 19.4234 15.6643 19.0886L15.6146 18.9418L12.0402 6.23104L12.041 18.6322C12.041 19.3917 11.4395 20.0194 10.6529 20.1495L10.5033 20.168L10.35 20.1742H7.428C6.91833 20.1742 6.4484 19.9651 6.13333 19.6219L6.0342 19.5027L6.0202 19.482L6.00777 19.5027C5.75694 19.8366 5.37061 20.0694 4.93265 20.1464L4.76616 20.1679L4.613 20.1742H1.692C0.813794 20.1742 0.0851993 19.5608 0.00695488 18.773L0 18.6322V1.74724C0 0.940313 0.679967 0.281261 1.5387 0.210524L1.692 0.204238H4.613C5.12281 0.204238 5.5933 0.413517 5.90858 0.756599L6.00777 0.875812L6.0202 0.895038L6.0342 0.875756C6.28491 0.5418 6.67079 0.309073 7.10849 0.232044L7.27489 0.210563L7.428 0.204238H10.35C10.8133 0.204238 11.2449 0.377065 11.5577 0.668371L11.6693 0.783058L11.7532 0.888038L11.7654 0.88015L11.9156 0.804625L12.0736 0.743412L12.2385 0.69703L15.069 0.0481533C15.5024 -0.0528706 15.9548 0.00629187 16.3419 0.214071ZM5.2242 4.70204H1.0782L1.079 18.6322C1.079 18.8957 1.29919 19.1207 1.59193 19.1631L1.692 19.1702H4.613C4.85872 19.1702 5.06868 19.0423 5.1664 18.861C5.19039 18.8161 5.20765 18.7681 5.21696 18.718L5.2249 18.6315L5.2242 4.70204ZM10.9612 4.70204H6.8162V18.6315L6.82414 18.718L6.84796 18.8005C6.9106 18.9662 7.06295 19.0982 7.25565 19.1484L7.32834 19.1634L7.4282 19.1705L10.35 19.1702C10.6222 19.1702 10.8506 19.0132 10.931 18.8006L10.9543 18.718L10.955 18.702L10.962 18.6322L10.9612 4.70204ZM16.8802 4.27104L13.173 5.122L12.8642 5.19304L16.6593 18.6876C16.6819 18.7696 16.726 18.8448 16.7876 18.908L16.8551 18.9671L16.9334 19.0171C17.0203 19.0636 17.1155 19.0902 17.2123 19.0959L17.3098 19.0944L17.4064 19.079L20.2386 18.429C20.3985 18.3925 20.5314 18.3029 20.6137 18.1778C20.678 18.0801 20.7053 17.9708 20.6942 17.8616L20.6786 17.7798L16.8802 4.27104ZM8.899 10.615L8.8885 10.6155C8.94247 10.6155 8.9959 10.6177 9.04868 10.6221L8.8892 10.6155C8.95032 10.6155 9.01074 10.6184 9.07032 10.6239C9.11417 10.6281 9.15705 10.6336 9.19942 10.6404C9.2249 10.6444 9.25046 10.6491 9.27582 10.6543C9.29824 10.659 9.3202 10.6639 9.34199 10.6691C9.37794 10.6776 9.4138 10.6874 9.44917 10.6982C9.45956 10.7015 9.46981 10.7047 9.48003 10.708C9.50605 10.7163 9.53186 10.7252 9.55738 10.7347C9.58442 10.745 9.61099 10.7556 9.63721 10.7668C9.64478 10.7698 9.65246 10.7732 9.66011 10.7765C9.69542 10.7924 9.72991 10.809 9.7637 10.8265C9.78408 10.8369 9.80382 10.8476 9.82332 10.8587C9.84248 10.8698 9.86178 10.8812 9.88081 10.893C9.9048 10.9076 9.92817 10.9228 9.95111 10.9385C9.96462 10.948 9.97791 10.9574 9.99104 10.9669C10.0174 10.9858 10.0431 11.0056 10.0682 11.0261C10.0822 11.0377 10.0959 11.0493 10.1095 11.061C10.1295 11.0781 10.1492 11.0961 10.1685 11.1144C10.1791 11.1249 10.1895 11.135 10.1997 11.1453C10.2228 11.1682 10.2451 11.1919 10.2666 11.2162C10.2767 11.2278 10.2867 11.2395 10.2966 11.2513C10.3161 11.2743 10.3351 11.2983 10.3534 11.3228C10.365 11.3387 10.3762 11.3543 10.3871 11.3701C10.3999 11.3883 10.4126 11.4074 10.4248 11.4268C10.4411 11.4531 10.4566 11.4794 10.4713 11.5061C10.4803 11.5219 10.489 11.5384 10.4974 11.555C10.5056 11.5719 10.5136 11.5884 10.5213 11.6052C10.5334 11.6309 10.5447 11.6574 10.5552 11.6843C10.558 11.6919 10.5608 11.6992 10.5635 11.7066C10.577 11.7418 10.5891 11.7782 10.5998 11.8151C10.6243 11.9012 10.6414 11.9895 10.6504 12.08C10.6512 12.0826 10.6514 12.0853 10.6517 12.088L10.6582 12.2275V15.9425C10.6582 16.8359 9.86186 17.5555 8.8892 17.5555H8.8885C8.41133 17.5555 7.9765 17.382 7.65748 17.0996C7.36107 16.8379 7.16423 16.4811 7.12673 16.0821L7.1202 15.9425V12.2275C7.1202 11.5878 7.52858 11.0376 8.11776 10.7768C8.35141 10.6733 8.61288 10.6155 8.8885 10.6155L8.899 10.615ZM3.1517 10.6155C4.07354 10.6155 4.8366 11.2606 4.91437 12.088L4.9209 12.2275V15.9425C4.9209 16.6949 4.35618 17.324 3.59701 17.5039L3.45227 17.5323C3.40339 17.5399 3.35385 17.5457 3.30372 17.5496L3.1519 17.5555C2.23086 17.5555 1.46708 16.9094 1.38923 16.082L1.3827 15.9425V12.2275C1.3827 11.3346 2.17952 10.6155 3.1517 10.6155ZM17.821 10.6385C17.8949 10.6781 17.965 10.7221 18.0309 10.77C18.113 10.8299 18.1884 10.8956 18.2567 10.9666C18.3026 11.014 18.3453 11.0642 18.3846 11.1166C18.4482 11.2015 18.5033 11.2926 18.5484 11.3886C18.5611 11.4161 18.5732 11.4441 18.5845 11.4725L18.6361 11.6258L19.6491 15.2258C19.7163 15.4647 19.721 15.7053 19.6723 15.933C19.5598 16.4609 19.1603 16.9171 18.5943 17.1235L18.5153 17.1505L18.3979 17.1833C18.3881 17.1857 18.3782 17.188 18.3683 17.1903C18.2789 17.2112 18.1883 17.2255 18.0977 17.2333C18.0904 17.2334 18.083 17.234 18.0757 17.2345C18.0291 17.2385 17.9826 17.2402 17.9363 17.2402C17.1897 17.2402 16.5194 16.8102 16.2698 16.1685L16.2229 16.0278L15.21 12.4262C15.109 12.0704 15.145 11.7002 15.3083 11.3697C15.337 11.3106 15.3703 11.2524 15.4075 11.1957C15.6513 10.8269 16.0364 10.5667 16.491 10.4623C16.6043 10.4362 16.7188 10.4205 16.8332 10.4151L17.004 10.4147C17.2892 10.4267 17.5687 10.5022 17.821 10.6385ZM3.1521 11.6186C3.09748 11.6186 3.04445 11.6242 2.99365 11.6348C2.97635 11.6383 2.95928 11.6425 2.94248 11.6473L2.99365 11.6348C2.96129 11.6416 2.92983 11.6503 2.89946 11.6609L2.94248 11.6473C2.90796 11.657 2.87464 11.6691 2.84276 11.6834L2.89946 11.6609C2.86869 11.6717 2.83902 11.6843 2.81064 11.6987L2.84276 11.6834C2.8116 11.6973 2.78182 11.7132 2.75362 11.731L2.81064 11.6987C2.77944 11.7145 2.74978 11.7325 2.72192 11.7522L2.75362 11.731C2.7279 11.7472 2.7035 11.7649 2.68057 11.7839L2.72192 11.7522C2.69353 11.7724 2.667 11.7944 2.64256 11.8182L2.68057 11.7839C2.65501 11.8052 2.63129 11.8282 2.60963 11.8526L2.64256 11.8182C2.62125 11.839 2.60154 11.861 2.5836 11.8841L2.60963 11.8526C2.58835 11.8766 2.56907 11.902 2.55199 11.9286L2.5836 11.8841C2.56366 11.9099 2.54589 11.937 2.53054 11.9653L2.55199 11.9286C2.53719 11.9517 2.52405 11.9757 2.5127 12.0005L2.53054 11.9653C2.48727 12.045 2.4631 12.1341 2.4631 12.2276V15.9426C2.4631 16.2752 2.76872 16.5516 3.1521 16.5516L3.1517 16.5515L3.25668 16.5447C3.27236 16.5426 3.28785 16.54 3.30315 16.537C3.3246 16.5325 3.34554 16.5274 3.36603 16.5215L3.30315 16.537C3.33288 16.5311 3.36187 16.5235 3.38999 16.5144L3.36603 16.5215C3.40034 16.5116 3.43344 16.4993 3.46511 16.485L3.38999 16.5144C3.42492 16.503 3.4585 16.4892 3.49047 16.4732L3.46511 16.485C3.49487 16.4715 3.52336 16.4562 3.5504 16.4392L3.49047 16.4732C3.52298 16.457 3.55384 16.4385 3.58278 16.418L3.5504 16.4392C3.57652 16.4228 3.60128 16.4048 3.62451 16.3855L3.58278 16.418C3.61017 16.3986 3.63584 16.3774 3.65957 16.3546L3.62451 16.3855C3.65081 16.3636 3.67515 16.3398 3.69729 16.3146L3.65957 16.3546C3.68163 16.3334 3.70201 16.3108 3.72054 16.2871L3.69729 16.3146C3.72131 16.2872 3.74273 16.258 3.76126 16.2272L3.72054 16.2871C3.73938 16.2629 3.7563 16.2375 3.77111 16.2111L3.76126 16.2272C3.79748 16.1671 3.8226 16.1011 3.83428 16.0316L3.8417 15.9425V12.2275C3.8417 11.926 3.58816 11.6694 3.25414 11.6252L3.1521 11.6186ZM8.8894 11.6186L8.7848 11.6256C8.76758 11.6279 8.75059 11.6308 8.73383 11.6342C8.71509 11.638 8.6965 11.6426 8.67825 11.6478L8.73383 11.6342C8.70497 11.6401 8.67682 11.6476 8.6495 11.6566L8.67825 11.6478C8.64465 11.6574 8.6122 11.6692 8.5811 11.683L8.6495 11.6566C8.61404 11.6682 8.57998 11.6824 8.54759 11.6988L8.5811 11.683C8.54959 11.697 8.51948 11.7131 8.49098 11.731L8.54759 11.6988C8.51743 11.7141 8.48872 11.7313 8.46167 11.7502L8.49098 11.731C8.4613 11.7497 8.43338 11.7704 8.40745 11.7928L8.46167 11.7502C8.43799 11.7668 8.41558 11.7847 8.39458 11.8039L8.40745 11.7928C8.38339 11.8136 8.36105 11.836 8.34063 11.8597L8.39458 11.8039C8.36926 11.8269 8.34599 11.8517 8.32502 11.8781L8.34063 11.8597C8.31958 11.8841 8.30057 11.9099 8.28381 11.9369L8.32502 11.8781C8.3033 11.9053 8.28405 11.9342 8.26755 11.9644L8.28381 11.9369C8.26876 11.9612 8.25552 11.9865 8.24427 12.0126L8.26755 11.9644C8.25267 11.9916 8.24003 12.0199 8.22982 12.0491L8.24427 12.0126C8.22691 12.0528 8.21427 12.095 8.20693 12.1386L8.1995 12.2275V15.9425C8.1995 16.2749 8.50588 16.5515 8.8895 16.5515L8.99296 16.5448C9.01171 16.5423 9.0302 16.5391 9.04841 16.5353C9.06604 16.5316 9.08362 16.5273 9.1009 16.5223L9.04841 16.5353C9.07995 16.5288 9.11063 16.5203 9.14029 16.51L9.1009 16.5223C9.13486 16.5127 9.16765 16.5007 9.19905 16.4867L9.14029 16.51C9.17181 16.4991 9.20218 16.4862 9.23121 16.4715L9.19905 16.4867C9.23021 16.4729 9.25999 16.4569 9.2882 16.4392L9.23121 16.4715C9.26246 16.4557 9.29216 16.4378 9.32008 16.418L9.2882 16.4392C9.31432 16.4228 9.33908 16.4048 9.36231 16.3855L9.32008 16.418C9.34747 16.3986 9.37314 16.3774 9.39687 16.3546L9.36231 16.3855C9.39252 16.3603 9.42015 16.3328 9.44483 16.3032L9.39687 16.3546C9.41893 16.3334 9.43931 16.3108 9.45784 16.2871L9.44483 16.3032C9.46257 16.282 9.47879 16.2597 9.49335 16.2365L9.45784 16.2871C9.47839 16.2607 9.49665 16.2329 9.51237 16.2039L9.49335 16.2365C9.5111 16.2082 9.52637 16.1786 9.53892 16.1479L9.51237 16.2039C9.52675 16.1773 9.53901 16.1497 9.54896 16.1212L9.53892 16.1479C9.54935 16.1223 9.5579 16.096 9.56441 16.0691L9.54896 16.1212C9.56876 16.0646 9.5794 16.0046 9.5794 15.9426V12.2276C9.5794 12.101 9.53492 11.9825 9.45864 11.8842C9.35284 11.7482 9.18597 11.6509 8.99195 11.6252L8.8894 11.6186ZM16.9223 11.4172L16.8365 11.4224L16.7493 11.4376C16.6312 11.4645 16.5255 11.5183 16.4405 11.593C16.3975 11.631 16.3598 11.6742 16.3283 11.7221L16.309 11.7532C16.2687 11.8231 16.2443 11.897 16.2363 11.9721C16.2325 12.0081 16.2324 12.044 16.2361 12.08L16.2534 12.1727L17.2664 15.7737C17.2791 15.8188 17.2973 15.8615 17.3202 15.9015C17.433 16.0973 17.6589 16.2258 17.9067 16.2351L18.0069 16.2325L18.1085 16.2161L18.2114 16.1848C18.2191 16.1818 18.2267 16.1787 18.2342 16.1756C18.2595 16.1649 18.2837 16.153 18.3067 16.1399L18.2342 16.1756C18.2678 16.1613 18.2997 16.1448 18.3296 16.1264L18.3067 16.1399C18.3371 16.1228 18.3657 16.1037 18.3923 16.0829L18.3296 16.1264C18.3626 16.1061 18.3933 16.0834 18.4214 16.0586L18.3923 16.0829C18.4171 16.0635 18.4401 16.0427 18.4613 16.0205L18.4214 16.0586C18.4434 16.0393 18.4638 16.0187 18.4826 15.9971L18.4613 16.0205C18.4847 15.9961 18.5059 15.9701 18.5247 15.9429L18.4826 15.9971C18.5043 15.972 18.5238 15.9456 18.5409 15.9179L18.5247 15.9429C18.5411 15.919 18.5557 15.8941 18.5684 15.8684L18.5409 15.9179C18.5572 15.8916 18.5714 15.8641 18.5832 15.8359L18.5684 15.8684C18.5806 15.8436 18.5909 15.818 18.5993 15.7919L18.5832 15.8359C18.5952 15.807 18.6049 15.7771 18.6119 15.7467L18.5993 15.7919C18.6082 15.7643 18.6149 15.7361 18.6193 15.7075L18.6119 15.7467C18.6204 15.7101 18.6251 15.6726 18.6257 15.6347C18.6256 15.6123 18.6246 15.5902 18.6221 15.568L18.6049 15.4808L17.663 12.133L17.5926 11.8801C17.5656 11.7842 17.5137 11.6973 17.441 11.6249C17.3957 11.5798 17.3422 11.5402 17.2817 11.5076C17.1702 11.4481 17.0475 11.4172 16.9223 11.4172ZM16.5402 3.06104L12.5252 3.98304L12.5922 4.22104L16.6072 3.29904L16.5402 3.06104ZM10.9612 3.45504H6.8162V3.69904H10.9612V3.45504ZM5.2242 3.45404H1.0792V3.69804H5.2242V3.45404ZM15.484 1.00424L15.4584 1.00502L15.4082 1.00887L15.3296 1.02244L12.4972 1.67251C12.3687 1.70173 12.2581 1.76481 12.1771 1.85311L12.1221 1.92344C12.1058 1.94846 12.0919 1.97428 12.0805 2.00082C12.0773 2.00836 12.0743 2.01564 12.0716 2.02299L12.0717 2.02285L12.049 2.10551L12.042 2.2L12.0414 2.20554L12.041 2.22485C12.042 2.23881 12.0436 2.25288 12.0456 2.26672L12.0465 2.27437L12.0574 2.32272L12.2502 3.01104L16.266 2.089L16.077 1.4141C16.0537 1.33131 16.0095 1.25594 15.9477 1.19272L15.8802 1.13373L15.8018 1.08389C15.7039 1.03166 15.5952 1.00454 15.4844 1.00454L15.5826 1.01137C15.5501 1.00663 15.5172 1.00424 15.484 1.00424ZM4.613 1.20824L1.692 1.20854C1.35083 1.20854 1.079 1.4538 1.079 1.74654L1.0782 2.45004H5.2242L5.225 1.74724C5.225 1.48308 5.00503 1.25782 4.71286 1.2154L4.613 1.20824ZM10.3498 1.20854H7.4288C7.32664 1.20854 7.2306 1.23064 7.14622 1.26948L7.06578 1.31353C6.96459 1.3795 6.8873 1.47209 6.84703 1.57861L6.82377 1.66042L6.8158 1.74654L6.8152 2.45004H10.9612L10.961 2.224L10.9601 2.20057L10.962 2.11924V1.74724L10.9594 1.69902C10.9319 1.42782 10.6715 1.20854 10.3498 1.20854Z"
      fill="white"/>
  </mask>
  <g mask="url(#mask0)">
    <path
      d="M16.3419 0.214071C16.6826 0.39693 16.9381 0.677648 17.071 1.01277L17.1204 1.1596L21.7224 17.5257C21.8355 17.9288 21.7685 18.3486 21.5344 18.7025C21.332 19.0109 21.0244 19.2399 20.658 19.3598L20.4975 19.4044L17.6664 20.0535C17.5277 20.0851 17.3886 20.1012 17.251 20.1012C16.9498 20.1012 16.6566 20.0284 16.3938 19.8872C16.0531 19.7034 15.7979 19.4234 15.6643 19.0886L15.6146 18.9418L12.0402 6.23104L12.041 18.6322C12.041 19.3917 11.4395 20.0194 10.6529 20.1495L10.5033 20.168L10.35 20.1742H7.428C6.91833 20.1742 6.4484 19.9651 6.13333 19.6219L6.0342 19.5027L6.0202 19.482L6.00777 19.5027C5.75694 19.8366 5.37061 20.0694 4.93265 20.1464L4.76616 20.1679L4.613 20.1742H1.692C0.813794 20.1742 0.0851993 19.5608 0.00695488 18.773L0 18.6322V1.74724C0 0.940313 0.679967 0.281261 1.5387 0.210524L1.692 0.204238H4.613C5.12281 0.204238 5.5933 0.413517 5.90858 0.756599L6.00777 0.875812L6.0202 0.895038L6.0342 0.875756C6.28491 0.5418 6.67079 0.309073 7.10849 0.232044L7.27489 0.210563L7.428 0.204238H10.35C10.8133 0.204238 11.2449 0.377065 11.5577 0.668371L11.6693 0.783058L11.7532 0.888038L11.7654 0.88015L11.9156 0.804625L12.0736 0.743412L12.2385 0.69703L15.069 0.0481533C15.5024 -0.0528706 15.9548 0.00629187 16.3419 0.214071ZM5.2242 4.70204H1.0782L1.079 18.6322C1.079 18.8957 1.29919 19.1207 1.59193 19.1631L1.692 19.1702H4.613C4.85872 19.1702 5.06868 19.0423 5.1664 18.861C5.19039 18.8161 5.20765 18.7681 5.21696 18.718L5.2249 18.6315L5.2242 4.70204ZM10.9612 4.70204H6.8162V18.6315L6.82414 18.718L6.84796 18.8005C6.9106 18.9662 7.06295 19.0982 7.25565 19.1484L7.32834 19.1634L7.4282 19.1705L10.35 19.1702C10.6222 19.1702 10.8506 19.0132 10.931 18.8006L10.9543 18.718L10.955 18.702L10.962 18.6322L10.9612 4.70204ZM16.8802 4.27104L13.173 5.122L12.8642 5.19304L16.6593 18.6876C16.6819 18.7696 16.726 18.8448 16.7876 18.908L16.8551 18.9671L16.9334 19.0171C17.0203 19.0636 17.1155 19.0902 17.2123 19.0959L17.3098 19.0944L17.4064 19.079L20.2386 18.429C20.3985 18.3925 20.5314 18.3029 20.6137 18.1778C20.678 18.0801 20.7053 17.9708 20.6942 17.8616L20.6786 17.7798L16.8802 4.27104ZM8.899 10.615L8.8885 10.6155C8.94247 10.6155 8.9959 10.6177 9.04868 10.6221L8.8892 10.6155C8.95032 10.6155 9.01074 10.6184 9.07032 10.6239C9.11417 10.6281 9.15705 10.6336 9.19942 10.6404C9.2249 10.6444 9.25046 10.6491 9.27582 10.6543C9.29824 10.659 9.3202 10.6639 9.34199 10.6691C9.37794 10.6776 9.4138 10.6874 9.44917 10.6982C9.45956 10.7015 9.46981 10.7047 9.48003 10.708C9.50605 10.7163 9.53186 10.7252 9.55738 10.7347C9.58442 10.745 9.61099 10.7556 9.63721 10.7668C9.64478 10.7698 9.65246 10.7732 9.66011 10.7765C9.69542 10.7924 9.72991 10.809 9.7637 10.8265C9.78408 10.8369 9.80382 10.8476 9.82332 10.8587C9.84248 10.8698 9.86178 10.8812 9.88081 10.893C9.9048 10.9076 9.92817 10.9228 9.95111 10.9385C9.96462 10.948 9.97791 10.9574 9.99104 10.9669C10.0174 10.9858 10.0431 11.0056 10.0682 11.0261C10.0822 11.0377 10.0959 11.0493 10.1095 11.061C10.1295 11.0781 10.1492 11.0961 10.1685 11.1144C10.1791 11.1249 10.1895 11.135 10.1997 11.1453C10.2228 11.1682 10.2451 11.1919 10.2666 11.2162C10.2767 11.2278 10.2867 11.2395 10.2966 11.2513C10.3161 11.2743 10.3351 11.2983 10.3534 11.3228C10.365 11.3387 10.3762 11.3543 10.3871 11.3701C10.3999 11.3883 10.4126 11.4074 10.4248 11.4268C10.4411 11.4531 10.4566 11.4794 10.4713 11.5061C10.4803 11.5219 10.489 11.5384 10.4974 11.555C10.5056 11.5719 10.5136 11.5884 10.5213 11.6052C10.5334 11.6309 10.5447 11.6574 10.5552 11.6843C10.558 11.6919 10.5608 11.6992 10.5635 11.7066C10.577 11.7418 10.5891 11.7782 10.5998 11.8151C10.6243 11.9012 10.6414 11.9895 10.6504 12.08C10.6512 12.0826 10.6514 12.0853 10.6517 12.088L10.6582 12.2275V15.9425C10.6582 16.8359 9.86186 17.5555 8.8892 17.5555H8.8885C8.41133 17.5555 7.9765 17.382 7.65748 17.0996C7.36107 16.8379 7.16423 16.4811 7.12673 16.0821L7.1202 15.9425V12.2275C7.1202 11.5878 7.52858 11.0376 8.11776 10.7768C8.35141 10.6733 8.61288 10.6155 8.8885 10.6155L8.899 10.615ZM3.1517 10.6155C4.07354 10.6155 4.8366 11.2606 4.91437 12.088L4.9209 12.2275V15.9425C4.9209 16.6949 4.35618 17.324 3.59701 17.5039L3.45227 17.5323C3.40339 17.5399 3.35385 17.5457 3.30372 17.5496L3.1519 17.5555C2.23086 17.5555 1.46708 16.9094 1.38923 16.082L1.3827 15.9425V12.2275C1.3827 11.3346 2.17952 10.6155 3.1517 10.6155ZM17.821 10.6385C17.8949 10.6781 17.965 10.7221 18.0309 10.77C18.113 10.8299 18.1884 10.8956 18.2567 10.9666C18.3026 11.014 18.3453 11.0642 18.3846 11.1166C18.4482 11.2015 18.5033 11.2926 18.5484 11.3886C18.5611 11.4161 18.5732 11.4441 18.5845 11.4725L18.6361 11.6258L19.6491 15.2258C19.7163 15.4647 19.721 15.7053 19.6723 15.933C19.5598 16.4609 19.1603 16.9171 18.5943 17.1235L18.5153 17.1505L18.3979 17.1833C18.3881 17.1857 18.3782 17.188 18.3683 17.1903C18.2789 17.2112 18.1883 17.2255 18.0977 17.2333C18.0904 17.2334 18.083 17.234 18.0757 17.2345C18.0291 17.2385 17.9826 17.2402 17.9363 17.2402C17.1897 17.2402 16.5194 16.8102 16.2698 16.1685L16.2229 16.0278L15.21 12.4262C15.109 12.0704 15.145 11.7002 15.3083 11.3697C15.337 11.3106 15.3703 11.2524 15.4075 11.1957C15.6513 10.8269 16.0364 10.5667 16.491 10.4623C16.6043 10.4362 16.7188 10.4205 16.8332 10.4151L17.004 10.4147C17.2892 10.4267 17.5687 10.5022 17.821 10.6385ZM3.1521 11.6186C3.09748 11.6186 3.04445 11.6242 2.99365 11.6348C2.97635 11.6383 2.95928 11.6425 2.94248 11.6473L2.99365 11.6348C2.96129 11.6416 2.92983 11.6503 2.89946 11.6609L2.94248 11.6473C2.90796 11.657 2.87464 11.6691 2.84276 11.6834L2.89946 11.6609C2.86869 11.6717 2.83902 11.6843 2.81064 11.6987L2.84276 11.6834C2.8116 11.6973 2.78182 11.7132 2.75362 11.731L2.81064 11.6987C2.77944 11.7145 2.74978 11.7325 2.72192 11.7522L2.75362 11.731C2.7279 11.7472 2.7035 11.7649 2.68057 11.7839L2.72192 11.7522C2.69353 11.7724 2.667 11.7944 2.64256 11.8182L2.68057 11.7839C2.65501 11.8052 2.63129 11.8282 2.60963 11.8526L2.64256 11.8182C2.62125 11.839 2.60154 11.861 2.5836 11.8841L2.60963 11.8526C2.58835 11.8766 2.56907 11.902 2.55199 11.9286L2.5836 11.8841C2.56366 11.9099 2.54589 11.937 2.53054 11.9653L2.55199 11.9286C2.53719 11.9517 2.52405 11.9757 2.5127 12.0005L2.53054 11.9653C2.48727 12.045 2.4631 12.1341 2.4631 12.2276V15.9426C2.4631 16.2752 2.76872 16.5516 3.1521 16.5516L3.1517 16.5515L3.25668 16.5447C3.27236 16.5426 3.28785 16.54 3.30315 16.537C3.3246 16.5325 3.34554 16.5274 3.36603 16.5215L3.30315 16.537C3.33288 16.5311 3.36187 16.5235 3.38999 16.5144L3.36603 16.5215C3.40034 16.5116 3.43344 16.4993 3.46511 16.485L3.38999 16.5144C3.42492 16.503 3.4585 16.4892 3.49047 16.4732L3.46511 16.485C3.49487 16.4715 3.52336 16.4562 3.5504 16.4392L3.49047 16.4732C3.52298 16.457 3.55384 16.4385 3.58278 16.418L3.5504 16.4392C3.57652 16.4228 3.60128 16.4048 3.62451 16.3855L3.58278 16.418C3.61017 16.3986 3.63584 16.3774 3.65957 16.3546L3.62451 16.3855C3.65081 16.3636 3.67515 16.3398 3.69729 16.3146L3.65957 16.3546C3.68163 16.3334 3.70201 16.3108 3.72054 16.2871L3.69729 16.3146C3.72131 16.2872 3.74273 16.258 3.76126 16.2272L3.72054 16.2871C3.73938 16.2629 3.7563 16.2375 3.77111 16.2111L3.76126 16.2272C3.79748 16.1671 3.8226 16.1011 3.83428 16.0316L3.8417 15.9425V12.2275C3.8417 11.926 3.58816 11.6694 3.25414 11.6252L3.1521 11.6186ZM8.8894 11.6186L8.7848 11.6256C8.76758 11.6279 8.75059 11.6308 8.73383 11.6342C8.71509 11.638 8.6965 11.6426 8.67825 11.6478L8.73383 11.6342C8.70497 11.6401 8.67682 11.6476 8.6495 11.6566L8.67825 11.6478C8.64465 11.6574 8.6122 11.6692 8.5811 11.683L8.6495 11.6566C8.61404 11.6682 8.57998 11.6824 8.54759 11.6988L8.5811 11.683C8.54959 11.697 8.51948 11.7131 8.49098 11.731L8.54759 11.6988C8.51743 11.7141 8.48872 11.7313 8.46167 11.7502L8.49098 11.731C8.4613 11.7497 8.43338 11.7704 8.40745 11.7928L8.46167 11.7502C8.43799 11.7668 8.41558 11.7847 8.39458 11.8039L8.40745 11.7928C8.38339 11.8136 8.36105 11.836 8.34063 11.8597L8.39458 11.8039C8.36926 11.8269 8.34599 11.8517 8.32502 11.8781L8.34063 11.8597C8.31958 11.8841 8.30057 11.9099 8.28381 11.9369L8.32502 11.8781C8.3033 11.9053 8.28405 11.9342 8.26755 11.9644L8.28381 11.9369C8.26876 11.9612 8.25552 11.9865 8.24427 12.0126L8.26755 11.9644C8.25267 11.9916 8.24003 12.0199 8.22982 12.0491L8.24427 12.0126C8.22691 12.0528 8.21427 12.095 8.20693 12.1386L8.1995 12.2275V15.9425C8.1995 16.2749 8.50588 16.5515 8.8895 16.5515L8.99296 16.5448C9.01171 16.5423 9.0302 16.5391 9.04841 16.5353C9.06604 16.5316 9.08362 16.5273 9.1009 16.5223L9.04841 16.5353C9.07995 16.5288 9.11063 16.5203 9.14029 16.51L9.1009 16.5223C9.13486 16.5127 9.16765 16.5007 9.19905 16.4867L9.14029 16.51C9.17181 16.4991 9.20218 16.4862 9.23121 16.4715L9.19905 16.4867C9.23021 16.4729 9.25999 16.4569 9.2882 16.4392L9.23121 16.4715C9.26246 16.4557 9.29216 16.4378 9.32008 16.418L9.2882 16.4392C9.31432 16.4228 9.33908 16.4048 9.36231 16.3855L9.32008 16.418C9.34747 16.3986 9.37314 16.3774 9.39687 16.3546L9.36231 16.3855C9.39252 16.3603 9.42015 16.3328 9.44483 16.3032L9.39687 16.3546C9.41893 16.3334 9.43931 16.3108 9.45784 16.2871L9.44483 16.3032C9.46257 16.282 9.47879 16.2597 9.49335 16.2365L9.45784 16.2871C9.47839 16.2607 9.49665 16.2329 9.51237 16.2039L9.49335 16.2365C9.5111 16.2082 9.52637 16.1786 9.53892 16.1479L9.51237 16.2039C9.52675 16.1773 9.53901 16.1497 9.54896 16.1212L9.53892 16.1479C9.54935 16.1223 9.5579 16.096 9.56441 16.0691L9.54896 16.1212C9.56876 16.0646 9.5794 16.0046 9.5794 15.9426V12.2276C9.5794 12.101 9.53492 11.9825 9.45864 11.8842C9.35284 11.7482 9.18597 11.6509 8.99195 11.6252L8.8894 11.6186ZM16.9223 11.4172L16.8365 11.4224L16.7493 11.4376C16.6312 11.4645 16.5255 11.5183 16.4405 11.593C16.3975 11.631 16.3598 11.6742 16.3283 11.7221L16.309 11.7532C16.2687 11.8231 16.2443 11.897 16.2363 11.9721C16.2325 12.0081 16.2324 12.044 16.2361 12.08L16.2534 12.1727L17.2664 15.7737C17.2791 15.8188 17.2973 15.8615 17.3202 15.9015C17.433 16.0973 17.6589 16.2258 17.9067 16.2351L18.0069 16.2325L18.1085 16.2161L18.2114 16.1848C18.2191 16.1818 18.2267 16.1787 18.2342 16.1756C18.2595 16.1649 18.2837 16.153 18.3067 16.1399L18.2342 16.1756C18.2678 16.1613 18.2997 16.1448 18.3296 16.1264L18.3067 16.1399C18.3371 16.1228 18.3657 16.1037 18.3923 16.0829L18.3296 16.1264C18.3626 16.1061 18.3933 16.0834 18.4214 16.0586L18.3923 16.0829C18.4171 16.0635 18.4401 16.0427 18.4613 16.0205L18.4214 16.0586C18.4434 16.0393 18.4638 16.0187 18.4826 15.9971L18.4613 16.0205C18.4847 15.9961 18.5059 15.9701 18.5247 15.9429L18.4826 15.9971C18.5043 15.972 18.5238 15.9456 18.5409 15.9179L18.5247 15.9429C18.5411 15.919 18.5557 15.8941 18.5684 15.8684L18.5409 15.9179C18.5572 15.8916 18.5714 15.8641 18.5832 15.8359L18.5684 15.8684C18.5806 15.8436 18.5909 15.818 18.5993 15.7919L18.5832 15.8359C18.5952 15.807 18.6049 15.7771 18.6119 15.7467L18.5993 15.7919C18.6082 15.7643 18.6149 15.7361 18.6193 15.7075L18.6119 15.7467C18.6204 15.7101 18.6251 15.6726 18.6257 15.6347C18.6256 15.6123 18.6246 15.5902 18.6221 15.568L18.6049 15.4808L17.663 12.133L17.5926 11.8801C17.5656 11.7842 17.5137 11.6973 17.441 11.6249C17.3957 11.5798 17.3422 11.5402 17.2817 11.5076C17.1702 11.4481 17.0475 11.4172 16.9223 11.4172ZM16.5402 3.06104L12.5252 3.98304L12.5922 4.22104L16.6072 3.29904L16.5402 3.06104ZM10.9612 3.45504H6.8162V3.69904H10.9612V3.45504ZM5.2242 3.45404H1.0792V3.69804H5.2242V3.45404ZM15.484 1.00424L15.4584 1.00502L15.4082 1.00887L15.3296 1.02244L12.4972 1.67251C12.3687 1.70173 12.2581 1.76481 12.1771 1.85311L12.1221 1.92344C12.1058 1.94846 12.0919 1.97428 12.0805 2.00082C12.0773 2.00836 12.0743 2.01564 12.0716 2.02299L12.0717 2.02285L12.049 2.10551L12.042 2.2L12.0414 2.20554L12.041 2.22485C12.042 2.23881 12.0436 2.25288 12.0456 2.26672L12.0465 2.27437L12.0574 2.32272L12.2502 3.01104L16.266 2.089L16.077 1.4141C16.0537 1.33131 16.0095 1.25594 15.9477 1.19272L15.8802 1.13373L15.8018 1.08389C15.7039 1.03166 15.5952 1.00454 15.4844 1.00454L15.5826 1.01137C15.5501 1.00663 15.5172 1.00424 15.484 1.00424ZM4.613 1.20824L1.692 1.20854C1.35083 1.20854 1.079 1.4538 1.079 1.74654L1.0782 2.45004H5.2242L5.225 1.74724C5.225 1.48308 5.00503 1.25782 4.71286 1.2154L4.613 1.20824ZM10.3498 1.20854H7.4288C7.32664 1.20854 7.2306 1.23064 7.14622 1.26948L7.06578 1.31353C6.96459 1.3795 6.8873 1.47209 6.84703 1.57861L6.82377 1.66042L6.8158 1.74654L6.8152 2.45004H10.9612L10.961 2.224L10.9601 2.20057L10.962 2.11924V1.74724L10.9594 1.69902C10.9319 1.42782 10.6715 1.20854 10.3498 1.20854Z"
      fill="black"/>
    <path d="M68.0002 -39.9131H-31.9998V60.0869H68.0002V-39.9131Z" fill="@fillColor"/>
  </g>
</svg>
