<svg width="24" height="24" viewBox="0 0 24 24" fill="none" xmlns="http://www.w3.org/2000/svg">
  <path fill-rule="evenodd" clip-rule="evenodd"
        d="M23.2969 6.77813H14.9625V0.703125C14.9625 0.314812 14.6477 0 14.2594 0H0.703125C0.314812 0 0 0.314812 0 0.703125V8.94609C0 13.1926 3.18281 16.7486 7.40358 17.2176C7.42936 17.2205 7.45533 17.2219 7.4812 17.2219C7.50708 17.2219 7.53305 17.2205 7.55883 17.2176C8.09756 17.1577 8.61928 17.0473 9.11977 16.8918C9.64102 20.6067 12.6138 23.5704 16.441 23.9957C16.4668 23.9986 16.4928 24 16.5187 24C16.5445 24 16.5705 23.9986 16.5963 23.9957C20.8171 23.5267 24 19.9707 24 15.7242V7.48125C24 7.09289 23.6852 6.77813 23.2969 6.77813ZM7.48125 15.8109C4.01231 15.3864 1.40625 12.449 1.40625 8.94609V1.40625H13.5563V8.94609C13.5563 12.449 10.9502 15.3864 7.48125 15.8109ZM22.5938 15.7242C22.5938 19.2271 19.9877 22.1646 16.5187 22.589C13.2543 22.1895 10.7543 19.5646 10.4708 16.3373C11.8673 15.6144 13.0242 14.5111 13.8141 13.1701C14.4242 13.1882 15.04 12.9644 15.5084 12.4983C15.7836 12.2244 15.7847 11.7793 15.5108 11.504C15.2573 11.2492 14.8573 11.2298 14.5808 11.4454C14.829 10.6549 14.9625 9.81492 14.9625 8.94605V8.18438H22.5938V15.7242ZM20.7828 11.5041C21.0567 11.7794 21.0556 12.2245 20.7803 12.4984C19.879 13.3953 18.432 13.3969 17.5291 12.4984C17.2538 12.2245 17.2526 11.7794 17.5266 11.5041C17.8005 11.2288 18.2457 11.2276 18.5209 11.5016C18.8738 11.8527 19.4351 11.8531 19.7884 11.5016C20.0637 11.2277 20.5089 11.2288 20.7828 11.5041ZM14.0098 18.5154C13.7362 18.7963 13.286 18.799 13.009 18.522C12.7324 18.2454 12.7367 17.8 13.0089 17.5276C13.9319 16.6037 15.2112 16.0739 16.5188 16.0739C17.8264 16.0739 19.1057 16.6037 20.0287 17.5276C20.3012 17.8003 20.3048 18.2455 20.0284 18.5219C19.7495 18.8008 19.296 18.7958 19.0231 18.5109C18.3628 17.8557 17.4509 17.4802 16.5188 17.4802C15.5844 17.4802 14.6705 17.8574 14.0098 18.5154ZM7.48119 11.6088C8.41536 11.6088 9.32914 11.2317 9.98985 10.5739C10.2634 10.2928 10.7138 10.2898 10.991 10.567C11.2687 10.8448 11.262 11.2903 10.9911 11.5613C10.0681 12.4852 8.78882 13.0151 7.48119 13.0151C6.17362 13.0151 4.89435 12.4852 3.97129 11.5613C3.69876 11.2886 3.6952 10.8434 3.97162 10.567C4.25062 10.288 4.7046 10.293 4.97737 10.5786C5.63774 11.2335 6.54937 11.6088 7.48119 11.6088ZM11.7428 5.47655C10.8398 4.57819 9.39296 4.57969 8.4916 5.47659C8.21635 5.75048 8.21522 6.19566 8.48911 6.47095C8.76295 6.74611 9.20817 6.74733 9.48347 6.47344C9.83681 6.12187 10.3979 6.1223 10.751 6.47348C11.0276 6.74864 11.4728 6.74494 11.7454 6.47091C12.0192 6.19561 12.0181 5.75044 11.7428 5.47655ZM6.47346 6.47095C6.20064 6.74517 5.75533 6.74836 5.47909 6.47344C5.12617 6.1223 4.56494 6.12187 4.21159 6.47344C3.93625 6.74733 3.49108 6.74611 3.21723 6.47095C2.94334 6.19565 2.94446 5.75048 3.21972 5.47659C4.12103 4.57973 5.56806 4.57813 6.47097 5.47659C6.74622 5.75048 6.74739 6.19565 6.47346 6.47095Z"
        fill="@fillColor"/>
</svg>
