<svg width="24" height="24" viewBox="0 0 24 24" fill="none" xmlns="http://www.w3.org/2000/svg">
  <path
    d="M16.9321 11.3336C16.0016 10.4031 14.7661 9.89062 13.4531 9.89062H12C11.6117 9.89062 11.2969 10.2054 11.2969 10.5938C11.2969 10.9821 11.6117 11.2969 12 11.2969H13.4531C14.3904 11.2969 15.2728 11.6631 15.9377 12.3279C16.2122 12.6025 16.6574 12.6026 16.9321 12.3279C17.2066 12.0533 17.2066 11.6082 16.9321 11.3336Z"
    fill="@fillColor"/>
  <path
    d="M5.22858 14.1096C5.6169 14.1096 5.9317 13.7948 5.9317 13.4065C5.9317 13.0182 5.6169 12.7034 5.22858 12.7034C4.84025 12.7034 4.52545 13.0182 4.52545 13.4065C4.52545 13.7948 4.84025 14.1096 5.22858 14.1096Z"
    fill="@fillColor"/>
  <path
    d="M20.5 0C18.5651 0 17 1.60091 17 3.52318C17 5.4403 18.5701 7 20.5 7C22.4299 7 24 5.4403 24 3.52318C24 1.60105 22.4351 0 20.5 0ZM20.5 5.60927C19.3421 5.60927 18.4 4.67345 18.4 3.52318C18.4 2.36725 19.3617 1.39073 20.5 1.39073C21.6383 1.39073 22.6 2.36725 22.6 3.52318C22.6 4.67345 21.6579 5.60927 20.5 5.60927Z"
    fill="@fillColor"/>
  <path
    d="M23.2969 9.89062C22.9086 9.89062 22.5938 10.2054 22.5938 10.5938V11.2969C22.5938 12.1679 21.7995 12.8601 20.8862 12.6729C19.9559 9.44555 16.9759 7.07812 13.4531 7.07812H8.75517C8.55975 7.07812 8.37591 6.9968 8.2508 6.85495C7.58761 6.10308 6.63052 5.67188 5.625 5.67188H3.51562C3.29991 5.67188 3.09619 5.77087 2.96288 5.94042C2.82956 6.10997 2.78147 6.33131 2.83237 6.54094L3.54436 9.47344C3.02419 10.0177 2.59041 10.6285 2.24948 11.2969H2.10938C0.946266 11.2969 0 12.2431 0 13.4062V15.9271C0 16.8196 0.565453 17.619 1.40709 17.9161L2.17973 18.189C2.62608 19.1164 3.23119 19.9405 3.94191 20.586C4.04527 20.6799 4.21875 20.8772 4.21875 21.143V23.2969C4.21875 23.6852 4.53356 24 4.92188 24H7.73438C8.12269 24 8.4375 23.6852 8.4375 23.2969V22.5621C8.67098 22.5832 8.90578 22.5938 9.14062 22.5938H13.4531C13.688 22.5938 13.9228 22.5832 14.1562 22.5621V23.2969C14.1562 23.6852 14.4711 24 14.8594 24H17.6719C18.0602 24 18.375 23.6852 18.375 23.2969V21.737C18.375 21.1918 18.5955 20.665 18.996 20.2536C20.2868 18.9274 21.1875 16.9446 21.1875 14.8125C21.1875 14.5754 21.1762 14.341 21.1552 14.1093C21.1672 14.1094 21.1792 14.1102 21.1912 14.1102C22.7354 14.1102 24 12.8535 24 11.2969V10.5938C24 10.2054 23.6852 9.89062 23.2969 9.89062ZM17.9883 19.2727C17.3309 19.9482 16.9688 20.8234 16.9688 21.737V22.5938H15.5625C15.5625 21.8274 15.5625 21.2614 15.5625 20.4844C15.5625 20.0961 15.2477 19.7812 14.8594 19.7812C14.4711 19.7812 14.1562 20.0961 14.1562 20.4844V21.1484C13.9233 21.174 13.6883 21.1875 13.4531 21.1875H9.14062C8.90545 21.1875 8.67047 21.1741 8.4375 21.1484V20.4844C8.4375 20.0961 8.12269 19.7812 7.73438 19.7812C7.34606 19.7812 7.03125 20.0961 7.03125 20.4844C7.03125 21.7273 7.03125 21.802 7.03125 22.5938H5.625V21.143C5.625 20.5446 5.36302 19.9771 4.88737 19.5451C4.251 18.9671 3.7155 18.2058 3.33877 17.3435C3.26081 17.165 3.11227 17.0269 2.92856 16.962L1.87528 16.5901C1.59473 16.491 1.40625 16.2246 1.40625 15.9271V13.4062C1.40625 13.0185 1.72167 12.7031 2.10938 12.7031H2.6783C2.95617 12.7094 3.21994 12.55 3.33745 12.2845L3.3375 12.2845C3.33773 12.284 3.33792 12.2835 3.33816 12.2831C3.33834 12.2826 3.33858 12.2821 3.33881 12.2816C3.67678 11.508 4.16513 10.8055 4.80328 10.2047C4.99111 10.0285 5.06677 9.76256 5.00128 9.51337L4.40991 7.07812H5.625C6.22716 7.07812 6.79983 7.33584 7.1963 7.78528C7.58827 8.22956 8.15644 8.48438 8.75522 8.48438H13.4531C16.9425 8.48438 19.7812 11.3232 19.7812 14.8125C19.7812 16.5793 19.022 18.2107 17.9883 19.2727Z"
    fill="@fillColor"/>
</svg>
