<svg width="24" height="24" viewBox="0 0 24 24" fill="none" xmlns="http://www.w3.org/2000/svg">
  <path fill-rule="evenodd" clip-rule="evenodd"
        d="M22.7969 22.5669H23.2982C23.6858 22.5669 24 22.8811 24 23.2686C24 23.6561 23.6858 23.9703 23.2982 23.9703H0.701754C0.314199 23.9703 0 23.6561 0 23.2686C0 22.881 0.314199 22.5668 0.701754 22.5668H3.25371V19.5052C2.39972 19.2446 1.63743 18.5061 1.06012 17.3611C0.405661 16.0632 0.0452398 14.353 0.0452398 12.5457C0.0452398 8.8428 3.25446 4.45655 3.39106 4.27162C3.52337 4.09258 3.73282 3.98689 3.95546 3.98689C4.1781 3.98689 4.38756 4.09253 4.51986 4.27162C4.58395 4.3584 5.32468 5.37042 6.09286 6.80275V5.27849C6.09286 2.38811 8.44435 0.0366211 11.3347 0.0366211C14.2251 0.0366211 16.5766 2.38811 16.5766 5.27849V8.91054L20.2565 12.175V9.7831C20.2565 9.39555 20.5707 9.08135 20.9583 9.08135C21.3458 9.08135 21.66 9.39555 21.66 9.7831V13.42L23.7172 15.2449C24.0071 15.5021 24.0337 15.9456 23.7765 16.2356C23.6378 16.3919 23.445 16.4716 23.2512 16.4716C23.0901 16.4716 22.9286 16.4159 22.7969 16.3038V22.5669ZM10.6647 22.5669H12.0682V17.354H10.6647V22.5669ZM9.96295 15.9505H12.77C13.1576 15.9505 13.4717 16.2647 13.4717 16.6522V22.5669H21.3934V15.0596L14.6255 9.05595L7.85768 15.0596V22.5669H9.26119V16.6522C9.26119 16.2647 9.57539 15.9505 9.96295 15.9505ZM11.3347 1.44013C9.2182 1.44013 7.49633 3.162 7.49633 5.27849V10.1588C7.65988 10.7336 7.77965 11.3162 7.83354 11.8897C7.95864 12.1529 8.16103 12.4555 8.37282 12.7265L10.5976 10.753V9.91064L9.13263 8.43096C8.85993 8.15555 8.86213 7.71124 9.13754 7.43854C9.41301 7.16584 9.85726 7.16804 10.13 7.44345L10.5976 7.91578V5.77688C10.5976 5.38933 10.9118 5.07513 11.2994 5.07513C11.6869 5.07513 12.0011 5.38933 12.0011 5.77688V9.50788L14.1599 7.59288C14.4255 7.35718 14.8255 7.35718 15.0912 7.59288L15.1731 7.66549V5.27849C15.1731 3.162 13.4512 1.44013 11.3347 1.44013ZM1.44861 12.5457C1.44861 14.1378 1.7557 15.6235 2.31322 16.7293C2.78681 17.6685 3.38536 18.2072 3.95537 18.2072C4.52538 18.2072 5.12393 17.6686 5.59752 16.7293C5.64758 16.6301 5.69488 16.5268 5.74082 16.4216C5.64182 16.3824 5.55008 16.3207 5.47462 16.2356C5.2174 15.9457 5.24398 15.5021 5.53389 15.245L6.28533 14.5784C6.40131 13.9376 6.46208 13.2523 6.46208 12.5458C6.46208 11.8857 6.33609 11.1882 6.13553 10.4953C6.12585 10.4687 6.11752 10.4414 6.11111 10.4134C5.58489 8.64818 4.58582 6.9243 3.9557 5.9409C3.06882 7.32654 1.44861 10.1816 1.44861 12.5457ZM6.45417 18.0411C5.9418 18.8008 5.32781 19.3006 4.65712 19.5053V22.5668H6.45417V18.0411ZM19.2926 20.7452H15.6771C15.2895 20.7452 14.9753 20.431 14.9753 20.0435V16.6522C14.9753 16.2646 15.2895 15.9504 15.6771 15.9504H19.2926C19.6802 15.9504 19.9944 16.2646 19.9944 16.6522V20.0435C19.9944 20.431 19.6802 20.7452 19.2926 20.7452ZM18.5909 17.354H16.3788V19.3417H18.5909V17.354Z"
        fill="@fillColor"/>
</svg>
