<svg width="20" height="20" viewBox="0 0 20 20" fill="none" xmlns="http://www.w3.org/2000/svg">
  <path
    d="M19.4872 4.9094H15.8974V3.25004H16.4957C17.1555 3.25004 17.6923 2.71325 17.6923 2.05346V1.19658C17.6923 0.536795 17.1555 0 16.4957 0H3.50427C2.84449 0 2.30769 0.536795 2.30769 1.19658V2.05346C2.30769 2.71325 2.84449 3.25004 3.50427 3.25004H4.10256V4.9094H0.512821C0.229615 4.9094 0 5.13902 0 5.42222V19.4765C0 19.7597 0.229615 19.9893 0.512821 19.9893H19.4872C19.7704 19.9893 20 19.7597 20 19.4765V5.42222C20 5.13897 19.7704 4.9094 19.4872 4.9094ZM3.50427 2.2244C3.41 2.2244 3.33333 2.14773 3.33333 2.05346V1.19658C3.33333 1.10231 3.41 1.02564 3.50427 1.02564H16.4957C16.59 1.02564 16.6667 1.10231 16.6667 1.19658V2.05346C16.6667 2.14773 16.59 2.2244 16.4957 2.2244H3.50427ZM11.7521 18.9637H8.24786V13.7315H11.7521V18.9637ZM18.9744 7.31581V8.34145V18.9637H12.7778V13.7315H13.1624C13.4456 13.7315 13.6752 13.5019 13.6752 13.2187C13.6752 12.9355 13.4456 12.7059 13.1624 12.7059H10.0214H6.88034C6.59712 12.7059 6.36752 12.9355 6.36752 13.2187C6.36752 13.5019 6.59712 13.7315 6.88034 13.7315H7.22222V18.9637H1.02564V8.34145V7.31581V5.93504H4.10256V17.3001C4.10256 17.5834 4.33216 17.8129 4.61539 17.8129C4.89861 17.8129 5.12821 17.5834 5.12821 17.3001V3.25004H14.8718V17.2588C14.8718 17.542 15.1014 17.7716 15.3846 17.7716C15.6678 17.7716 15.8974 17.542 15.8974 17.2588V5.93504H18.9744V7.31581Z"
    fill="@fillColor"/>
</svg>
