<svg width="24" height="24" viewBox="0 0 24 24" fill="none" xmlns="http://www.w3.org/2000/svg">
  <path
    d="M23.2969 5.67188H16.9219V3.5625C16.9219 2.39939 15.9756 1.45312 14.8125 1.45312H9.1875C8.02439 1.45312 7.07812 2.39939 7.07812 3.5625V5.67188H0.703125C0.314812 5.67188 0 5.98669 0 6.375V21.8438C0 22.2321 0.314812 22.5469 0.703125 22.5469H23.2969C23.6852 22.5469 24 22.2321 24 21.8438V6.375C24 5.98669 23.6852 5.67188 23.2969 5.67188ZM22.5938 13.4062C22.5938 14.5694 21.6475 15.5156 20.4844 15.5156H14.1094C14.1094 12.7398 14.1094 11.1113 14.1094 7.07812H22.5938V13.4062ZM11.2969 16.9219H12.7031V17.625C12.7031 18.0127 12.3877 18.3281 12 18.3281C11.6123 18.3281 11.2969 18.0127 11.2969 17.625V16.9219ZM12.7031 7.07812V15.5156H11.2969V7.07812H12.7031ZM8.48438 3.5625C8.48438 3.1748 8.7998 2.85938 9.1875 2.85938H14.8125C15.2002 2.85938 15.5156 3.1748 15.5156 3.5625V5.67188H8.48438V3.5625ZM1.40625 7.07812H9.89062C9.89062 10.7477 9.89062 12.6147 9.89062 15.5156H3.51562C2.35252 15.5156 1.40625 14.5694 1.40625 13.4062V7.07812ZM1.40625 21.1406V16.2168C1.99425 16.6592 2.7248 16.9219 3.51562 16.9219H9.89062V17.625C9.89062 18.7881 10.8369 19.7344 12 19.7344C13.1631 19.7344 14.1094 18.7881 14.1094 17.625V16.9219H20.4844C21.2752 16.9219 22.0058 16.6592 22.5938 16.2168V21.1406H1.40625Z"
    fill="@fillColor"/>
</svg>
