<svg width="24" height="24" viewBox="0 0 24 24" fill="none" xmlns="http://www.w3.org/2000/svg">
  <path
    d="M23.2969 4.96875H21.1406V4.26562C21.1406 3.87731 20.8258 3.5625 20.4375 3.5625H14.8125C13.7443 3.5625 12.7865 4.04203 12.1412 4.79639C11.3172 3.22833 9.67219 2.15625 7.78125 2.15625H6.375C5.98669 2.15625 5.67188 2.47106 5.67188 2.85938V3.5625H3.5625C3.17419 3.5625 2.85938 3.87731 2.85938 4.26562V4.96875H0.703125C0.314812 4.96875 0 5.28356 0 5.67188V21.1406C0 21.5289 0.314812 21.8438 0.703125 21.8438H23.2969C23.6852 21.8438 24 21.5289 24 21.1406V5.67188C24 5.28356 23.6852 4.96875 23.2969 4.96875ZM14.8125 4.96875H19.7344V17.625H14.8125C14.0432 17.625 13.3039 17.8845 12.7031 18.3404V7.07812C12.7031 5.91502 13.6494 4.96875 14.8125 4.96875ZM7.07812 3.5625H7.78125C9.71977 3.5625 11.2969 5.13961 11.2969 7.07812V16.293C10.4029 15.3799 9.15712 14.8125 7.78125 14.8125H7.07812V3.5625ZM4.26562 4.96875H5.67188V15.5156C5.67188 15.9039 5.98669 16.2188 6.375 16.2188H7.78125C9.11611 16.2188 10.2795 16.9666 10.8747 18.0653C10.3642 17.7818 9.78497 17.625 9.1875 17.625H4.26562V4.96875ZM1.40625 20.4375V6.375H2.85938V18.3281C2.85938 18.7164 3.17419 19.0312 3.5625 19.0312H9.1875C9.93867 19.0312 10.6171 19.4263 11.0022 20.088C11.1281 20.3044 11.1562 20.4375 11.1562 20.4375H1.40625ZM22.5938 20.4375H12.8441C12.8441 20.4375 12.8719 20.3044 12.9978 20.088C13.3829 19.4263 14.0613 19.0312 14.8125 19.0312H20.4375C20.8258 19.0312 21.1406 18.7164 21.1406 18.3281V6.375H22.5938V20.4375Z"
    fill="@fillColor"/>
</svg>
