<svg width="18" height="22" viewBox="0 0 18 22" fill="none" xmlns="http://www.w3.org/2000/svg">
  <path
    d="M17.2882 3.13505C17.2391 3.10554 17.1847 3.08595 17.128 3.07741C17.0713 3.06886 17.0134 3.07153 16.9578 3.08525C16.9021 3.09898 16.8498 3.12349 16.8037 3.15738C16.7576 3.19127 16.7188 3.23387 16.6894 3.28272L13.3407 8.82059C13.2764 8.92872 13.1911 9.02306 13.0897 9.09813C12.9883 9.17321 12.8728 9.2275 12.7501 9.25785C12.6258 9.28792 12.4967 9.2932 12.3704 9.27339C12.2441 9.25359 12.1229 9.20909 12.0141 9.14248L11.8629 9.05018C11.8115 9.01818 11.7537 8.9975 11.6936 8.98954C11.6334 8.98158 11.5722 8.98652 11.5141 9.00403C11.4551 9.02135 11.4004 9.05086 11.3537 9.09063C11.3071 9.1304 11.2694 9.17952 11.2432 9.23478C10.8676 10.0124 10.2316 11.2423 9.50608 12.6002L8.67241 11.1315C9.31888 10.1993 9.86768 9.4286 10.2537 8.88635L10.37 8.71329C10.4045 8.66521 10.4286 8.61056 10.4408 8.55278C10.453 8.49501 10.4531 8.43535 10.4409 8.37756C10.4291 8.31972 10.4055 8.26489 10.3715 8.21647C10.3375 8.16805 10.2938 8.12707 10.2432 8.09605L10.0886 8.00145C9.97821 7.93733 9.88175 7.8521 9.80481 7.7507C9.72787 7.6493 9.67199 7.53375 9.64041 7.41076C9.60883 7.28777 9.60217 7.15977 9.62082 7.03421C9.63948 6.90864 9.68308 6.788 9.74909 6.67928L13.0977 1.14142C13.1517 1.04317 13.1653 0.928031 13.1357 0.820052C13.1062 0.712074 13.0357 0.619608 12.939 0.561974C12.8424 0.504339 12.727 0.485993 12.6171 0.510769C12.5071 0.535545 12.411 0.601525 12.3489 0.694927L9.0003 6.23279C8.77742 6.60685 8.69542 7.0472 8.76886 7.47559C8.84231 7.90398 9.06644 8.29265 9.40143 8.57254C9.07936 9.02595 8.66543 9.61089 8.19104 10.2904L3.19135 1.491C3.09355 1.31703 2.95094 1.17196 2.77812 1.0706C2.60529 0.96925 2.40844 0.915254 2.20769 0.914134H2.19955C2.00173 0.913035 1.80711 0.963636 1.63525 1.06085C1.4634 1.15806 1.32036 1.29846 1.22054 1.46792L0.943811 1.94095C0.697625 2.35785 0.549479 2.82452 0.510421 3.30616C0.471364 3.7878 0.542404 4.27197 0.718243 4.72257L2.90416 10.4173C3.08622 10.8913 3.37844 11.316 3.75706 11.6568C4.13567 11.9976 4.59 12.2449 5.08309 12.3787L5.58771 12.5113C5.73538 12.8182 5.89583 13.1447 6.06443 13.4828C4.86101 15.3287 3.72155 17.2174 2.7623 18.9687C2.55073 19.3558 2.49818 19.8091 2.61563 20.2338C2.73308 20.6584 3.01144 21.0216 3.3925 21.2473C3.65986 21.4132 3.96899 21.5008 4.2843 21.5C4.5696 21.5009 4.85054 21.4305 5.10127 21.2955C5.352 21.1604 5.56446 20.9649 5.7191 20.727C6.43882 19.6471 7.19808 18.4299 7.97827 17.1147C8.64799 18.3146 9.37353 19.5375 10.1374 20.697C10.316 20.9748 10.5709 21.1961 10.8722 21.3346C11.1735 21.4731 11.5084 21.5231 11.8374 21.4787C12.1664 21.4343 12.4758 21.2973 12.7288 21.0839C12.9818 20.8706 13.1679 20.5898 13.2651 20.2747C13.333 20.0631 13.3562 19.8398 13.3332 19.6189C13.3102 19.3979 13.2415 19.1841 13.1314 18.9906L10.0119 13.4966C10.7327 12.1572 11.3874 10.9042 11.8269 10.0193C12.1876 10.1624 12.5844 10.1898 12.9617 10.0978C13.1957 10.0402 13.4159 9.93719 13.6095 9.79459C13.8031 9.652 13.9663 9.4727 14.0895 9.26708L17.4382 3.72922C17.4975 3.63064 17.515 3.51275 17.4869 3.40138C17.4588 3.29 17.3873 3.19423 17.2882 3.13505ZM4.98775 20.2551C4.86914 20.4377 4.68291 20.5667 4.46927 20.6142C4.25563 20.6617 4.03174 20.6239 3.84596 20.5089C3.6566 20.3975 3.51796 20.2178 3.45903 20.0073C3.40009 19.7968 3.42541 19.5718 3.5297 19.3794C4.4029 17.7862 5.43191 16.0729 6.51905 14.385C6.8202 14.9745 7.14576 15.5941 7.48992 16.2309C6.62486 17.7031 5.78421 19.0622 4.98775 20.2551ZM12.4292 20.0186C12.363 20.233 12.2154 20.4134 12.0176 20.5216C11.8243 20.6296 11.5964 20.6591 11.3817 20.6038C11.1671 20.5485 10.9824 20.4127 10.8665 20.2251C9.97233 18.8684 9.12238 17.4135 8.36545 16.0221C8.35653 16.0027 8.34644 15.9838 8.33522 15.9656C7.53294 14.4923 6.83066 13.0917 6.28535 11.9587C6.25759 11.9025 6.21802 11.8528 6.16928 11.813C6.12054 11.7731 6.06378 11.7442 6.0028 11.728L5.30517 11.5457C4.94487 11.448 4.61294 11.2672 4.33651 11.018C4.06007 10.7687 3.84696 10.4582 3.71457 10.1116L1.53331 4.41799C1.40444 4.0882 1.35226 3.73381 1.38064 3.38123C1.40903 3.02865 1.51725 2.68697 1.69725 2.38167L1.97282 1.91095C1.99598 1.87184 2.02915 1.8395 2.06897 1.81722C2.10879 1.79493 2.15384 1.78348 2.19955 1.78404C2.24849 1.78192 2.29701 1.79386 2.33929 1.81841C2.38157 1.84297 2.41581 1.8791 2.43791 1.92249L7.75619 11.2907L12.3722 19.4164C12.4232 19.5073 12.4548 19.6077 12.465 19.7114C12.4752 19.815 12.4638 19.9196 12.4315 20.0186H12.4292ZM11.2618 5.75977L13.7977 1.56253C13.857 1.464 13.9534 1.39291 14.0656 1.36489C14.1778 1.33687 14.2966 1.35422 14.3959 1.41312C14.4952 1.47202 14.5668 1.56765 14.5951 1.67897C14.6233 1.79029 14.6058 1.90818 14.5465 2.00671L12.0106 6.2028C11.9722 6.26737 11.9174 6.32084 11.8517 6.35788C11.7861 6.39492 11.7117 6.41425 11.6362 6.41393C11.5571 6.41357 11.4796 6.39205 11.4118 6.35162C11.313 6.29267 11.2418 6.19732 11.2137 6.08641C11.1856 5.9755 11.2029 5.85806 11.2618 5.75977ZM12.7082 6.61929L15.2441 2.42205C15.2723 2.371 15.3106 2.32611 15.3566 2.29009C15.4027 2.25406 15.4557 2.22763 15.5123 2.21238C15.5689 2.19713 15.628 2.19337 15.6861 2.20134C15.7443 2.2093 15.8002 2.22882 15.8505 2.25872C15.9008 2.28863 15.9446 2.3283 15.9791 2.37537C16.0136 2.42244 16.0382 2.47594 16.0514 2.53266C16.0645 2.58938 16.0661 2.64816 16.0558 2.70548C16.0456 2.76279 16.0238 2.81747 15.9917 2.86623L13.457 7.06232C13.4183 7.1269 13.3634 7.18035 13.2975 7.21738C13.2316 7.25441 13.1571 7.27374 13.0814 7.27345C13.0027 7.27347 12.9254 7.25191 12.8582 7.21115C12.8092 7.18206 12.7664 7.14368 12.7323 7.09819C12.6983 7.05271 12.6736 7.00101 12.6597 6.94605C12.6457 6.89109 12.6428 6.83394 12.6512 6.77787C12.6595 6.72181 12.6789 6.66792 12.7082 6.61929Z"
    fill="@fillColor" stroke="@fillColor" stroke-width="0.2"/>
</svg>
