<svg width="24" height="24" viewBox="0 0 24 24" fill="none" xmlns="http://www.w3.org/2000/svg">
  <path
    d="M18.1741 7.35547H5.82586C5.29882 7.35547 4.86224 7.76453 4.82798 8.29046L4.06938 19.9352C4.03181 20.5118 4.4894 21.0002 5.06726 21.0002H18.9327C19.5106 21.0002 19.9682 20.5118 19.9306 19.9352L19.172 8.29046C19.1378 7.76453 18.7012 7.35547 18.1741 7.35547Z"
    stroke="@fillColor" fill="white" stroke-width="1.2"/>
  <path
    d="M14.9554 10.2973C14.9554 10.6286 15.2241 10.8973 15.5554 10.8973C15.8868 10.8973 16.1554 10.6286 16.1554 10.2973L14.9554 10.2973ZM15.5555 6.08106L16.1555 6.08106V6.08106H15.5555ZM8.44434 6.08106L9.04434 6.08106V6.08106H8.44434ZM7.84434 10.2973C7.84434 10.6286 8.11296 10.8973 8.44434 10.8973C8.77571 10.8973 9.04434 10.6286 9.04434 10.2973L7.84434 10.2973ZM16.1554 10.2973L16.1555 6.08106L14.9555 6.08106L14.9554 10.2973L16.1554 10.2973ZM16.1555 6.08106C16.1555 5.46412 15.8131 4.55865 15.1625 3.81528C14.4881 3.04458 13.4419 2.4 11.9999 2.4V3.6C13.0468 3.6 13.7784 4.0558 14.2595 4.60555C14.7645 5.18263 14.9555 5.8177 14.9555 6.08106H16.1555ZM11.9999 2.4C10.5579 2.4 9.51172 3.04458 8.83727 3.81528C8.18673 4.55865 7.84434 5.46412 7.84434 6.08106H9.04434C9.04434 5.8177 9.23529 5.18263 9.74031 4.60555C10.2214 4.0558 10.953 3.6 11.9999 3.6V2.4ZM7.84434 6.08106L7.84434 10.2973L9.04434 10.2973L9.04434 6.08106L7.84434 6.08106Z"
    fill="@fillColor"/>
</svg>
