<svg width="24" height="24" viewBox="0 0 24 24" fill="none" xmlns="http://www.w3.org/2000/svg">
  <path
    d="M0.703125 5.71875H4.29295L4.3125 4.21402C4.31503 1.88995 6.20658 0 8.53125 0C10.8575 0 12.75 1.89253 12.75 4.21875C12.75 4.2218 12.75 4.22484 12.75 4.22789L12.7306 5.71875H16.3125C16.7008 5.71875 17.0156 6.03356 17.0156 6.42188V11.3438H23.2969C23.6852 11.3438 24 11.6586 24 12.0469V21.8906C24 23.0537 23.0537 24 21.8906 24H10.5469H9.14062H2.10938C0.946266 24 0 23.0537 0 21.8906V6.42188C0 6.03356 0.314812 5.71875 0.703125 5.71875ZM8.53125 1.40625C6.98044 1.40625 5.71875 2.66794 5.71875 4.21875C5.71875 4.2218 5.71875 4.22484 5.7187 4.22789L5.6993 5.71875H11.3242L11.3438 4.21448C11.3415 2.66559 10.0807 1.40625 8.53125 1.40625ZM8.4375 21.8906C8.4375 22.2783 8.75292 22.5938 9.14062 22.5938H10.5469H21.8906C22.2783 22.5938 22.5938 22.2783 22.5938 21.8906V12.75H8.4375V21.8906ZM1.40625 21.8906C1.40625 22.2783 1.72167 22.5938 2.10938 22.5938H7.15219C7.07414 22.3737 7.03125 22.1371 7.03125 21.8906V12.0469C7.03125 11.6586 7.34606 11.3438 7.73438 11.3438H15.6094V7.125H12.7123L12.6999 9.24279C12.695 9.62796 12.3811 9.93677 11.997 9.93677C11.994 9.93677 11.9909 9.93677 11.9877 9.93672C11.5994 9.93166 11.2887 9.61282 11.2938 9.22451L11.306 7.125H5.68106L5.67183 9.23438C5.66686 9.61955 5.35303 9.92836 4.96894 9.92836C4.96584 9.92836 4.96275 9.92836 4.95961 9.92831C4.5713 9.92325 4.26061 9.60441 4.26567 9.21609L4.27472 7.125H1.40625V21.8906Z"
    fill="@fillColor"/>
  <path
    d="M12 14.1562C12.3883 14.1562 12.7031 14.4711 12.7031 14.8594V15.5625C12.7031 17.1133 13.9648 18.375 15.5156 18.375C17.0664 18.375 18.3281 17.1133 18.3281 15.5625V14.8594C18.3281 14.4711 18.6429 14.1562 19.0312 14.1562C19.4196 14.1562 19.7344 14.4711 19.7344 14.8594V15.5625C19.7344 17.8887 17.8418 19.7812 15.5156 19.7812C13.1894 19.7812 11.2969 17.8887 11.2969 15.5625V14.8594C11.2969 14.4711 11.6117 14.1562 12 14.1562Z"
    fill="@fillColor"/>
</svg>
