<svg width="24" height="24" viewBox="0 0 24 24" fill="none" xmlns="http://www.w3.org/2000/svg">
  <path
    d="M23.2313 1.47385C23.2205 1.29036 23.1428 1.1172 23.0129 0.987241C22.8829 0.857278 22.7097 0.779561 22.5263 0.768846C22.0935 0.743346 11.8388 0.208596 6.21975 5.82835C4.72506 7.3211 3.84409 9.31983 3.75065 11.4302C3.65721 13.5406 4.35809 15.6093 5.715 17.2284L0.96975 21.9699C0.898117 22.039 0.840981 22.1218 0.801674 22.2133C0.762367 22.3048 0.741677 22.4032 0.740812 22.5028C0.739947 22.6024 0.758923 22.7011 0.796634 22.7933C0.834344 22.8855 0.890034 22.9692 0.960454 23.0397C1.03087 23.1101 1.11461 23.1658 1.20678 23.2035C1.29896 23.2412 1.39772 23.2602 1.4973 23.2593C1.59689 23.2584 1.6953 23.2377 1.7868 23.1984C1.87831 23.1591 1.96107 23.102 2.03025 23.0304L6.7755 18.2851C8.39427 19.6409 10.4622 20.3412 12.5717 20.2477C14.6812 20.1543 16.6792 19.274 18.1718 17.7804C23.7915 12.1606 23.2568 1.90735 23.2313 1.47385V1.47385ZM17.1113 16.7199C15.8984 17.9296 14.282 18.6496 12.5715 18.7419C10.861 18.8342 9.17646 18.2923 7.8405 17.2201L10.0605 15.0001H14.25C14.4489 15.0001 14.6397 14.9211 14.7803 14.7804C14.921 14.6398 15 14.449 15 14.2501C15 14.0512 14.921 13.8604 14.7803 13.7198C14.6397 13.5791 14.4489 13.5001 14.25 13.5001H11.5605L12.5303 12.5304L17.7803 7.28035C17.9169 7.1389 17.9925 6.94945 17.9908 6.7528C17.9891 6.55615 17.9102 6.36804 17.7711 6.22898C17.6321 6.08993 17.444 6.01105 17.2473 6.00934C17.0507 6.00763 16.8612 6.08323 16.7198 6.21985L12.75 10.1896V7.5001C12.75 7.30119 12.671 7.11042 12.5303 6.96977C12.3897 6.82912 12.1989 6.7501 12 6.7501C11.8011 6.7501 11.6103 6.82912 11.4697 6.96977C11.329 7.11042 11.25 7.30119 11.25 7.5001V11.6896L9.21976 13.7199L6.78 16.1596C5.70776 14.8236 5.16593 13.1392 5.25823 11.4286C5.35053 9.71807 6.07048 8.10167 7.28025 6.88885C11.6295 2.5396 19.395 2.22985 21.75 2.2501C21.7635 4.59685 21.4605 12.3706 17.1113 16.7199V16.7199Z"
    fill="@fillColor"/>
</svg>
