<svg width="24" height="24" viewBox="0 0 24 24" fill="none" xmlns="http://www.w3.org/2000/svg">
<path fill-rule="evenodd" clip-rule="evenodd"
      d="M5.06646 14.2036C4.15821 16.0396 3.79146 18.0496 4.04646 19.9764C4.07196 20.1736 4.17546 20.3521 4.33296 20.4729C7.55346 22.9471 12.445 23.2531 16.6082 20.8486C20.7722 18.4449 22.9532 14.0566 22.4207 10.0299C22.3945 9.83335 22.2917 9.65485 22.1342 9.53335C20.1805 8.0326 17.6117 7.32985 14.9635 7.54585C14.611 4.15135 11.7377 1.50085 8.25021 1.50085C4.52496 1.50085 1.50021 4.5256 1.50021 8.25085C1.50021 10.8256 2.94471 13.0651 5.06646 14.2036V14.2036ZM16.7177 9.0376L20.1422 14.9694C19.2865 16.7844 17.8195 18.4179 15.8582 19.5496C13.8977 20.6821 11.7497 21.1366 9.74946 20.9694L6.32496 15.0376C7.17996 13.2219 8.64771 11.5891 10.6082 10.4566C12.5695 9.32485 14.7175 8.87035 16.7177 9.0376V9.0376ZM5.67621 16.9134L7.80096 20.5936C6.97146 20.3364 6.19446 19.9599 5.49921 19.4694C5.42196 18.6211 5.48421 17.7601 5.67621 16.9134ZM14.8075 13.2286L13.5077 13.9786L13.1327 13.3291C12.9257 12.9706 12.4667 12.8476 12.1082 13.0546C11.7497 13.2616 11.6267 13.7206 11.8337 14.0791L12.2087 14.7286L10.9097 15.4786L10.5347 14.8291C10.3277 14.4706 9.86871 14.3476 9.51021 14.5546C9.15171 14.7616 9.02871 15.2206 9.23571 15.5791L9.61071 16.2286C9.25221 16.4356 9.12921 16.8946 9.33621 17.2531C9.54321 17.6116 10.0022 17.7346 10.3607 17.5276L10.7357 18.1771C10.9427 18.5356 11.4017 18.6586 11.7602 18.4516C12.1187 18.2446 12.2417 17.7856 12.0347 17.4271L11.6597 16.7776L12.9587 16.0276L13.3337 16.6771C13.5407 17.0356 13.9997 17.1586 14.3582 16.9516C14.7167 16.7446 14.8397 16.2856 14.6327 15.9271L14.2577 15.2776L15.5575 14.5276L15.9325 15.1771C16.1387 15.5356 16.5985 15.6586 16.957 15.4516C17.3147 15.2446 17.4385 14.7856 17.2315 14.4271L16.8565 13.7776C17.215 13.5706 17.338 13.1116 17.131 12.7531C16.924 12.3946 16.465 12.2716 16.1065 12.4786L15.7315 11.8291C15.5245 11.4706 15.0647 11.3476 14.707 11.5546C14.3485 11.7616 14.2255 12.2206 14.4325 12.5791L14.8075 13.2286ZM18.6662 9.41335C19.4957 9.66985 20.2727 10.0464 20.968 10.5376H20.9687C21.046 11.3859 20.983 12.2469 20.791 13.0936L18.6662 9.41335ZM11.2847 3.9676C10.4282 3.3586 9.38046 3.00085 8.25021 3.00085C7.11996 3.00085 6.07221 3.3586 5.21571 3.9676C6.17421 5.1331 6.75021 6.62485 6.75021 8.25085C6.75021 9.87685 6.17421 11.3686 5.21571 12.5341C5.40771 12.6706 5.60946 12.7951 5.82021 12.9046C6.79896 11.4466 8.14671 10.1551 9.81396 9.1831C9.77196 8.8786 9.75021 8.56735 9.75021 8.25085C9.75021 6.62485 10.3262 5.1331 11.2847 3.9676V3.9676ZM4.12521 5.00485C3.42096 5.8981 3.00021 7.0261 3.00021 8.25085C3.00021 9.4756 3.42096 10.6036 4.12521 11.4969C4.82946 10.6036 5.25021 9.4756 5.25021 8.25085C5.25021 7.0261 4.82946 5.8981 4.12521 5.00485V5.00485ZM12.3752 5.00485C11.671 5.8981 11.2502 7.0261 11.2502 8.25085C11.2502 8.3221 11.2517 8.3926 11.2547 8.46235C11.986 8.15335 12.7315 7.92085 13.4777 7.76335C13.3825 6.7276 12.985 5.7781 12.3752 5.00485V5.00485Z"
      fill="@fillColor"/>
</svg>
