<svg width="24" height="24" viewBox="0 0 24 24" fill="none" xmlns="http://www.w3.org/2000/svg">
  <mask id="mask0" style="mask-type:alpha" maskUnits="userSpaceOnUse" x="2" y="2" width="20" height="20">
    <path fill-rule="evenodd" clip-rule="evenodd"
          d="M12.125 2.5C17.4299 2.5 21.75 6.82032 21.75 12.125C21.75 17.4297 17.4299 21.75 12.125 21.75C6.82062 21.75 2.5 17.4294 2.5 12.125C2.5 6.82062 6.82062 2.5 12.125 2.5ZM10.6858 15.7015L9.24615 18.1941L10.6071 20.5499L10.8525 20.5952C11.1486 20.6422 11.4593 20.6707 11.7889 20.682L12.125 20.6876C12.5727 20.6876 13.0038 20.6572 13.3997 20.5947L13.6429 20.5499L15.003 18.1941L13.5642 15.7015H10.6858ZM15.9313 18.7253H17.5812L17.5355 18.7648C16.805 19.359 16.004 19.8257 15.16 20.1388L15.1111 20.1545L15.9313 18.7253ZM8.31956 18.7253H6.66881L6.70816 18.7583C7.42162 19.3369 8.22177 19.8001 9.08465 20.1314L9.13628 20.1502L8.31956 18.7253ZM15.9313 12.6561H18.8089L20.1698 15.0111L20.0821 15.2642C19.7889 16.0499 19.3657 16.7851 18.8282 17.4535L18.6523 17.6637H15.9313L14.4908 15.1694L15.9313 12.6561ZM8.31956 12.6561H5.44114L4.06033 15.0111L4.16724 15.2927C4.47249 16.0514 4.88974 16.764 5.40358 17.4078L5.59774 17.6421H8.31956L9.75833 15.1487L8.31956 12.6561ZM13.5642 9.6315H10.6858L9.24615 12.1249L10.6858 14.6183H13.5642L15.003 12.124L13.5642 9.6315ZM3.67073 10.7538L3.67966 10.7008L4.51281 12.1249L3.67966 13.5481L3.67076 13.4963C3.59994 13.0383 3.56243 12.5748 3.56243 12.125C3.56243 11.6748 3.59989 11.2117 3.67073 10.7538ZM20.5703 10.7026L19.7372 12.1249L20.5712 13.5481L20.5807 13.4974C20.6336 13.1548 20.6677 12.808 20.6815 12.4656L20.6884 12.125C20.6884 11.6794 20.6525 11.2332 20.5814 10.7657L20.5703 10.7026ZM15.9313 6.60687H18.6523L18.8474 6.84148C19.3616 7.48554 19.7784 8.19767 20.0836 8.95698L20.1897 9.23785L18.8089 11.5937H15.9313L14.4908 9.10028L15.9313 6.60687ZM8.31956 6.5861H5.59774L5.42255 6.79691C4.8845 7.46645 4.46139 8.2012 4.16861 8.98606L4.08023 9.23785L5.44114 11.5937H8.31956L9.75833 9.07952L8.31956 6.5861ZM12.125 3.56156C11.6702 3.56156 11.2493 3.59153 10.8535 3.65457L10.6071 3.69904L9.24615 6.05489L10.6858 8.54831H13.5642L15.003 6.05489L13.6429 3.69904L13.3978 3.65458C13.1011 3.6073 12.7899 3.57862 12.4605 3.56723L12.125 3.56156ZM15.9313 5.52454L15.1146 4.09961L15.1662 4.11857C16.0291 4.44992 16.8292 4.91306 17.5427 5.49167L17.5812 5.52454H15.9313ZM9.13887 4.09442L9.09091 4.11124C8.24682 4.42431 7.44589 4.89096 6.71533 5.48525L6.66795 5.52454H8.31956L9.13887 4.09442Z"
          fill="white"/>
  </mask>
  <g mask="url(#mask0)">
    <rect x="-30.0654" y="-19" width="100" height="100" fill="@fillColor"/>
  </g>
</svg>
