<svg width="24" height="24" viewBox="0 0 24 24" fill="none" xmlns="http://www.w3.org/2000/svg">
  <g clip-path="url(#clip0_1474_10047)">
    <path
      d="M4.80069 10.3486C5.07175 10.3486 5.33747 10.3715 5.5964 10.4149L6.49235 7.64969C6.49258 7.64898 6.49287 7.64833 6.4931 7.64763C6.49315 7.64749 6.49319 7.6473 6.49324 7.64716L7.18495 5.45473H5.78247C5.05175 5.45473 4.4572 6.04924 4.4572 6.78C4.4572 7.16788 4.14274 7.48234 3.75486 7.48234C3.36698 7.48234 3.05251 7.16788 3.05251 6.78C3.05251 5.27474 4.27716 4.05005 5.78247 4.05005H8.14299C8.36676 4.05005 8.57713 4.15666 8.70946 4.33717C8.84173 4.51762 8.88017 4.75033 8.81279 4.96375L8.06644 7.32933L15.0944 8.79347L15.819 7.55225H15.1009C14.713 7.55225 14.3986 7.23779 14.3986 6.84991C14.3986 6.46203 14.713 6.14757 15.1009 6.14757H19.8032C20.1911 6.14757 20.5056 6.46203 20.5056 6.84991C20.5056 7.23779 20.1911 7.55225 19.8032 7.55225H17.4455L16.275 9.5572L17.1264 10.8196C17.7543 10.5179 18.4574 10.3486 19.1993 10.3486C21.8464 10.3486 24 12.5022 24 15.1493C24 17.7964 21.8464 19.95 19.1993 19.95C16.7907 19.95 14.791 18.167 14.4501 15.8516H11.9979C11.7823 15.8493 11.5425 15.7468 11.4102 15.5373L7.38226 9.46046L6.93244 10.8487C8.51285 11.6353 9.60143 13.2674 9.60143 15.1493C9.60143 17.7964 7.44782 19.95 4.80069 19.95C2.15356 19.95 -3.56756e-06 17.7964 -3.56756e-06 15.1493C-3.56756e-06 12.5022 2.15356 10.3486 4.80069 10.3486V10.3486ZM15.4709 10.877L13.2575 14.447H14.4501C14.6147 13.3292 15.1657 12.3356 15.9629 11.6067L15.4709 10.877ZM16.7605 12.7894C16.3242 13.2402 16.011 13.8109 15.8767 14.447H17.8784L16.7605 12.7894ZM19.1993 18.5453C21.0718 18.5453 22.5953 17.0219 22.5953 15.1493C22.5953 13.2767 21.0718 11.7533 19.1993 11.7533C18.7484 11.7533 18.3182 11.8424 17.9242 12.0026L19.7816 14.7566C19.9268 14.9719 19.9413 15.2498 19.8194 15.4791C19.6975 15.7083 19.459 15.8517 19.1993 15.8517H15.8768C16.2011 17.3883 17.5674 18.5453 19.1993 18.5453V18.5453ZM11.9759 13.8483L14.3202 10.067L8.69232 8.89452L11.9759 13.8483ZM4.80069 18.5453C6.67327 18.5453 8.19675 17.0219 8.19675 15.1493C8.19675 13.8925 7.50995 12.7938 6.49244 12.2066L5.4688 15.3658C5.37254 15.6629 5.09712 15.8519 4.80078 15.8519C4.7291 15.8519 4.65605 15.8408 4.58418 15.8175C4.21512 15.6979 4.01294 15.3019 4.13253 14.9328L5.15664 11.7721C5.03958 11.7598 4.92088 11.7533 4.80064 11.7533C2.92806 11.7533 1.40463 13.2767 1.40463 15.1493C1.40463 17.0219 2.92811 18.5453 4.80069 18.5453Z"
      fill="@fillColor"/>
  </g>
  <defs>
    <clipPath id="clip0_1474_10047">
      <rect width="24" height="24" fill="white"/>
    </clipPath>
  </defs>
</svg>
