<svg width="24" height="24" viewBox="0 0 24 24" fill="none" xmlns="http://www.w3.org/2000/svg">
  <path fill-rule="evenodd" clip-rule="evenodd"
        d="M9.1233 20.0333C9.1233 20.6788 8.5969 21.2052 7.95143 21.2052C7.30596 21.2052 6.77955 20.6788 6.77955 20.0333C6.77955 19.3878 7.30596 18.8614 7.95143 18.8614C8.5969 18.8614 9.1233 19.3878 9.1233 20.0333ZM23.2907 12C23.2907 15.8544 20.155 18.9902 16.3006 18.9902C15.9239 18.9902 15.5543 18.9599 15.1936 18.9022V21.6176C15.1936 22.9312 14.1249 24 12.8113 24H3.09162C1.77799 24 0.70929 22.9312 0.70929 21.6176V2.38238C0.70929 1.06875 1.77799 0 3.09162 0H12.8113C14.1249 0 15.1936 1.06875 15.1936 2.38238V5.0978C15.5543 5.04019 15.9239 5.00981 16.3006 5.00981C20.155 5.00981 23.2907 8.14556 23.2907 12ZM5.27566 1.5L5.50001 2.19047H10.4028L10.6272 1.5H5.27566ZM13.6936 18.4856C11.1267 17.4501 9.31038 14.9333 9.31038 12C9.31038 9.06666 11.1267 6.54994 13.6936 5.51442V2.38238C13.6936 1.89581 13.2978 1.5 12.8113 1.5H12.2044L11.661 3.17227C11.5606 3.48131 11.2727 3.69052 10.9477 3.69052H4.95513C4.63019 3.69052 4.34224 3.48131 4.24183 3.17227L3.69846 1.5H3.09162C2.6051 1.5 2.20929 1.89581 2.20929 2.38238V21.6176C2.20929 22.1042 2.6051 22.5 3.09162 22.5H12.8113C13.2978 22.5 13.6936 22.1042 13.6936 21.6176V18.4856ZM19.5767 12.75H21.7397C21.4056 15.1853 19.4683 17.1167 17.0302 17.4419C17.245 17.2679 17.4493 17.0814 17.642 16.8836L17.635 16.8799C18.6975 15.7874 19.4063 14.3492 19.5767 12.75ZM19.5767 11.25H21.7397C21.4056 8.8148 19.4684 6.88341 17.0305 6.55813C17.2452 6.73207 17.4494 6.91846 17.642 7.1162L17.6348 7.11992C18.6974 8.21245 19.4063 9.65076 19.5767 11.25ZM15.8029 6.53217C13.2566 6.762 11.2061 8.73795 10.8614 11.25H13.2139C13.4168 9.34485 14.384 7.66806 15.8029 6.53217ZM14.7249 11.25C14.8983 9.97793 15.5066 8.84424 16.3952 8.00369C17.2838 8.84422 17.8922 9.97791 18.0657 11.25H14.7249ZM14.7249 12.75H18.0657C17.8922 14.022 17.2839 15.1557 16.3953 15.9962C15.5068 15.1557 14.8984 14.022 14.7249 12.75ZM13.2139 12.75H10.8614C11.2061 15.2622 13.2567 17.2382 15.8033 17.4679C14.3842 16.332 13.4168 14.6552 13.2139 12.75Z"
        fill="@fillColor"/>
</svg>
