<svg width="24" height="24" viewBox="0 0 24 24" fill="none" xmlns="http://www.w3.org/2000/svg">
  <mask id="mask0" style="mask-type:alpha" maskUnits="userSpaceOnUse" x="3" y="2" width="19" height="20">
    <path fill-rule="evenodd" clip-rule="evenodd"
          d="M3.5 19.5083C3.5 20.6074 4.38899 21.5 5.4815 21.5H5.62348H12.3765H12.5185C13.611 21.5 14.5 20.6074 14.5 19.5083V19.329V17.8495V5.09235V4.67101V4.49168C14.5 3.39356 13.611 2.5 12.5185 2.5H12.3765H5.62348H5.4815C4.38899 2.5 3.5 3.39356 3.5 4.49168V4.67101V19.329V19.5083ZM4.67626 5.03043H13.3229V4.67101C13.3229 4.13734 12.8985 3.7035 12.3765 3.7035H5.62348C5.10149 3.7035 4.67626 4.13734 4.67626 4.67101V5.03043ZM4.67626 16.7341H13.3229V6.23393H4.67626V16.7341ZM4.67626 17.9367V19.329C4.67626 19.8627 5.10149 20.2974 5.62348 20.2974H12.3765C12.8985 20.2974 13.3229 19.8627 13.3229 19.329V17.9367H4.67626ZM16.6901 15.3217C16.8215 15.4346 17.0079 15.5 17.2018 15.5C17.3809 15.5 17.5515 15.4465 17.6818 15.348C18.8547 14.4694 19.5 13.2801 19.5 11.9999C19.5 10.7206 18.8547 9.5313 17.6818 8.65183C17.401 8.4396 16.956 8.45149 16.6901 8.6773C16.5619 8.78765 16.4941 8.93112 16.5004 9.08138C16.5068 9.23164 16.5862 9.37086 16.7229 9.47188C17.6087 10.1383 18.0961 11.0356 18.0961 11.9999C18.0961 12.9643 17.6087 13.8616 16.724 14.5271C16.5862 14.629 16.5068 14.7682 16.5004 14.9185C16.4941 15.0688 16.5619 15.2122 16.6901 15.3217ZM9.25036 19.0968C9.33494 19.0968 9.40361 19.1655 9.40361 19.25C9.40361 19.3345 9.33494 19.4032 9.25036 19.4032C9.16506 19.4032 9.09639 19.3345 9.09639 19.25C9.09639 19.1655 9.16506 19.0968 9.25036 19.0968ZM9.25036 20C9.66458 20 10 19.6647 10 19.25C10 18.8367 9.66458 18.5 9.25036 18.5C8.83542 18.5 8.5 18.8367 8.5 19.25C8.5 19.6647 8.83542 20 9.25036 20ZM18.6555 17.3047C18.761 17.4289 18.9099 17.5 19.0639 17.5C19.2094 17.5 19.3481 17.4384 19.4536 17.3256C20.7734 15.9178 21.5 14.0266 21.5 12.0007C21.5 9.97578 20.7734 8.08453 19.4536 6.67676C19.3447 6.56016 19.2052 6.48906 19.052 6.50138C18.9023 6.50517 18.761 6.57438 18.6564 6.69572C18.442 6.94599 18.4488 7.34415 18.6734 7.58399C19.7693 8.75287 20.3726 10.3218 20.3726 12.0007C20.3726 13.6805 19.7693 15.2485 18.6734 16.4174C18.4488 16.6572 18.442 17.0563 18.6555 17.3047Z"
          fill="white"/>
  </mask>
  <g mask="url(#mask0)">
    <rect x="-35" y="-41.1572" width="100" height="100" fill="@fillColor"/>
  </g>
</svg>
