<svg width="24" height="24" viewBox="0 0 24 24" fill="none" xmlns="http://www.w3.org/2000/svg">
  <mask id="mask0" style="mask-type:alpha" maskUnits="userSpaceOnUse" x="1" y="3" width="22" height="18">
    <path fill-rule="evenodd" clip-rule="evenodd"
          d="M14.759 14.6381H17.6379C17.7987 14.6381 17.953 14.575 18.0627 14.4653C18.1779 14.3512 18.2398 14.2892 18.2311 14.1308C18.1605 12.7173 16.947 11.8 15.4684 11.7757C15.6792 10.2591 15.7596 8.36375 15.6889 6.55921C15.6813 6.36535 15.5727 6.19032 15.4 6.08952C15.2337 5.99203 15.0262 5.97985 14.8448 6.06182C13.0501 6.86716 11.2706 7.36233 9.55193 7.53293C9.47588 6.58912 9.45524 5.57108 9.49 4.5032C13.2859 6.30331 17.4283 6.31993 21.8075 4.55637C21.9064 10.9504 20.1681 14.9494 16.5005 16.7783H16.4994C16.0442 17.0076 15.4858 17.0287 15.0056 16.8304C14.6992 16.7052 14.3907 16.5545 14.0626 16.3696C14.3288 15.8489 14.5613 15.2186 14.759 14.6381ZM15.4271 12.7062C16.054 12.7062 16.7775 13.1803 17.0448 13.701H15.0947C15.1427 13.5102 15.1879 13.2582 15.2291 13.028L15.2291 13.028C15.2494 12.9147 15.2687 12.8067 15.287 12.7139C15.3359 12.7084 15.3826 12.7062 15.4271 12.7062ZM14.5243 7.44985C14.6178 13.8427 12.8806 17.8407 9.21841 19.6696H9.21732C8.75995 19.8978 8.19937 19.9177 7.72136 19.7194C3.7745 18.0921 1.97001 14.0599 2.20793 7.39557C5.99834 9.19347 10.1397 9.21119 14.5243 7.44985ZM22.9721 3.66573V3.66462C22.9634 3.46966 22.8548 3.29463 22.6842 3.19604C22.5147 3.09745 22.3094 3.08637 22.1258 3.16835C17.413 5.29082 13.1957 5.26091 9.2347 3.07529C9.05979 2.97892 8.84686 2.97449 8.66217 3.06532C8.48075 3.15838 8.35907 3.34005 8.34712 3.53834C8.2613 4.98729 8.26781 6.35316 8.36776 7.5994H8.25804C6.03637 7.5994 3.91682 7.05105 1.95371 5.96877C1.77881 5.87129 1.5637 5.86796 1.38119 5.9588C1.19867 6.05185 1.07808 6.23352 1.06613 6.43181C0.596813 14.1718 2.62184 18.862 7.2553 20.774C7.61489 20.9214 8.01469 21 8.4123 21C8.88488 21 9.35094 20.8925 9.76377 20.6865C11.2988 19.921 12.5515 18.8066 13.489 17.3743C13.8519 17.577 14.1962 17.7454 14.5395 17.8861C15.3456 18.214 16.2832 18.1807 17.0448 17.7964C21.3219 15.6639 23.26 11.0423 22.9721 3.66573ZM5.52414 10.7258H5.52631C5.83919 10.7258 6.21834 10.8532 6.44214 11.1889C6.12056 11.1468 5.80225 11.1257 5.48828 11.1257C5.19279 11.1257 4.90163 11.1446 4.61591 11.1822C4.83971 10.8499 5.2156 10.7258 5.52414 10.7258ZM3.7066 12.0906C3.78917 12.1504 3.88586 12.1803 3.98363 12.1803C4.02383 12.1803 4.06403 12.1759 4.10314 12.1648C4.99832 11.9366 5.95869 11.9377 6.95926 12.167C7.08745 12.1992 7.24063 12.1704 7.35253 12.0873C7.46226 12.0042 7.52635 11.879 7.52635 11.745C7.52635 10.6981 6.62791 9.84516 5.52414 9.84516C4.42362 9.84516 3.52735 10.6981 3.52735 11.745C3.52735 11.8801 3.59471 12.0086 3.7066 12.0906ZM11.4792 10.7258H11.477C11.1663 10.7258 10.7882 10.8499 10.5644 11.1822C10.8502 11.1446 11.1413 11.1257 11.4357 11.1257C11.7508 11.1257 12.0691 11.1468 12.3907 11.1889C12.1669 10.8532 11.7899 10.7258 11.4792 10.7258ZM10.0517 12.1648C10.0136 12.1759 9.97453 12.1803 9.93434 12.1803C9.83547 12.1803 9.73661 12.1493 9.65513 12.0906C9.54324 12.0086 9.47588 11.8801 9.47588 11.745C9.47588 10.6981 10.3722 9.84516 11.4738 9.84516C12.5764 9.84516 13.4749 10.6981 13.4749 11.745C13.4749 11.879 13.4119 12.0031 13.3011 12.0873C13.1892 12.1704 13.0371 12.1992 12.9078 12.167C11.9083 11.9377 10.9469 11.9377 10.0517 12.1648ZM17.5333 8.17277C17.5822 8.09745 17.6398 8.02766 17.7071 7.96451C17.9168 7.76622 18.2123 7.65323 18.5219 7.65323H18.523C18.8326 7.65323 19.1303 7.76622 19.3367 7.96451C19.4073 8.02987 19.4649 8.10188 19.5149 8.18053C19.1672 8.13289 18.8218 8.10852 18.4806 8.10852C18.1623 8.10852 17.8462 8.12957 17.5333 8.17277ZM20.0233 9.15868C20.0592 9.16644 20.095 9.17087 20.133 9.17087C20.233 9.17087 20.3319 9.13985 20.4144 9.07782C20.5252 8.99473 20.5893 8.87066 20.5893 8.73662C20.5893 8.21154 20.3742 7.71859 19.9853 7.34971C19.5931 6.97639 19.0727 6.77145 18.5198 6.77145C17.9711 6.77145 17.454 6.97639 17.0618 7.34749C16.6718 7.71416 16.4556 8.20711 16.4556 8.73662C16.4556 8.87066 16.5219 9.00027 16.6349 9.08114C16.7479 9.16311 16.9021 9.1897 17.0314 9.15536C17.97 8.9183 18.9771 8.9183 20.0233 9.15868ZM8.35809 16.1792C9.12074 16.1792 9.78452 15.7206 10.0224 15.0471H6.69374C6.93166 15.7206 7.59545 16.1792 8.35809 16.1792ZM5.68883 14.6328C5.68231 14.5154 5.72903 14.398 5.81485 14.3127C5.90068 14.2274 6.02127 14.1775 6.1462 14.1775H10.57C10.6949 14.1775 10.8155 14.2274 10.9024 14.3127C10.9872 14.398 11.0339 14.5154 11.0274 14.6328C10.9578 15.9876 9.78561 17.0488 8.35809 17.0488C6.93058 17.0488 5.75836 15.9876 5.68883 14.6328Z"
          fill="white"/>
  </mask>
  <g mask="url(#mask0)">
    <rect x="-12" y="-3" width="110" height="112" fill="@fillColor"/>
  </g>
</svg>
