<svg width="24" height="24" viewBox="0 0 24 24" fill="none" xmlns="http://www.w3.org/2000/svg">
<path fill-rule="evenodd" clip-rule="evenodd"
      d="M0.457342 12.2527L1.96925 10.1176C3.03354 8.6144 4.76951 7.71693 6.61297 7.71693H7.81067L12.3335 3.67153C12.4624 3.55627 12.6291 3.49252 12.8019 3.49252H16.865C17.4063 3.47531 17.7641 4.13681 17.454 4.58123L15.4111 7.71689H17.0426C17.7943 7.71689 18.4694 7.2697 18.7622 6.57773L19.4847 4.86937C19.8382 4.03298 20.6534 3.49252 21.5615 3.49252H23.2968C23.5093 3.49252 23.7104 3.58875 23.8439 3.75431C23.9774 3.91988 24.029 4.137 23.9842 4.34503L22.231 12.4856C22.007 13.5243 21.428 14.4639 20.6004 15.1313C19.7733 15.7984 18.7323 16.1658 17.6692 16.1658H15.8849L17.9307 19.4292C18.23 19.8746 17.871 20.5244 17.3352 20.5075H12.7077C12.5235 20.5075 12.3466 20.4351 12.2151 20.3058L8.41184 16.567C8.28833 16.4456 8.1845 16.3104 8.10083 16.1658H2.4837C1.55056 16.1658 0.705217 15.651 0.277483 14.8222C-0.148939 13.996 -0.0799866 13.0114 0.457342 12.2527ZM15.5667 4.90064H13.0702L9.92164 7.71689H13.732L15.5667 4.90064ZM9.39711 15.5622L12.9952 19.0993H16.0636L13.3417 14.7576H9.72973C9.28751 14.779 9.09772 15.2372 9.39711 15.5622ZM1.52684 14.1757C1.7149 14.5401 2.07256 14.7576 2.4837 14.7576H7.91023C7.93123 14.677 7.95744 14.597 7.98959 14.5182C8.27951 13.8082 8.96253 13.3495 9.72973 13.3495H13.7306C13.9726 13.3495 14.1975 13.474 14.3262 13.6792L15.0022 14.7576H17.6692C18.4125 14.7576 19.1402 14.5009 19.7182 14.0346C20.2959 13.5688 20.7001 12.9131 20.8563 12.1886L22.4258 4.90064H21.5615C21.2195 4.90064 20.9127 5.10375 20.7798 5.41833L20.0571 7.12701C19.5435 8.34075 18.3602 9.12501 17.0425 9.12501H6.61297C5.39309 9.12501 4.23603 9.64673 3.42973 10.5409L4.91994 10.5495C5.3083 10.5518 5.62128 10.8689 5.61903 11.2577C5.61678 11.6451 5.30243 11.9577 4.91595 11.9577H4.91178L2.40045 11.9432L1.60452 13.0672C1.3692 13.3995 1.34014 13.8139 1.52684 14.1757ZM7.712 11.9413C7.32316 11.9413 7.00794 11.6261 7.00794 11.2373C7.00794 10.8484 7.32316 10.5332 7.712 10.5332C8.10084 10.5332 8.41606 10.8484 8.41606 11.2373C8.41606 11.6261 8.10084 11.9413 7.712 11.9413ZM9.8241 11.2373C9.8241 11.6261 10.1393 11.9413 10.5282 11.9413C10.917 11.9413 11.2322 11.6261 11.2322 11.2373C11.2322 10.8484 10.917 10.5332 10.5282 10.5332C10.1393 10.5332 9.8241 10.8484 9.8241 11.2373ZM13.3443 11.9413C12.9554 11.9413 12.6402 11.6261 12.6402 11.2373C12.6402 10.8484 12.9554 10.5332 13.3443 10.5332C13.7331 10.5332 14.0483 10.8484 14.0483 11.2373C14.0483 11.6261 13.7331 11.9413 13.3443 11.9413ZM15.4607 11.2336C15.4564 11.6225 15.7681 11.9412 16.1569 11.9454C16.5458 11.9497 16.8644 11.638 16.8687 11.2491C16.873 10.8603 16.5613 10.5416 16.1724 10.5373C15.7836 10.533 15.465 10.8448 15.4607 11.2336Z"
      fill="@fillColor"/>
</svg>
