<svg width="24" height="24" viewBox="0 0 24 24" fill="none" xmlns="http://www.w3.org/2000/svg">
  <path fill-rule="evenodd" clip-rule="evenodd"
        d="M7.904 5.693V5.614C7.904 4.408 8.929 3 10.188 3L13.748 3.064C15.007 3.064 16.032 4.473 16.032 5.679V5.693H20.216C21.476 5.693 22.501 6.718 22.501 7.977V18.847C22.501 20.106 21.476 21.131 20.216 21.131H3.784C2.525 21.131 1.5 20.106 1.5 18.847V7.977C1.5 6.718 2.525 5.693 3.784 5.693H7.904ZM8.837 5.693H15.063V5.614C15.063 4.859 14.421 3.927 13.633 3.927H10.267C9.477 3.927 8.837 4.859 8.837 5.614V5.693ZM19.917 6.797H18.397V20.026H19.917C20.678 20.026 21.295 19.408 21.295 18.648V8.176C21.295 7.415 20.678 6.797 19.917 6.797ZM14.997 20.026H8.835V6.797H14.997V20.026ZM2.705 8.176V18.648C2.705 19.408 3.324 20.026 4.084 20.026H5.344V6.797H4.084C3.324 6.797 2.705 7.415 2.705 8.176ZM17.37 19.995H15.952V6.807H17.37V19.995ZM7.821 19.995H6.462V6.807H7.821V19.995Z"
        fill="#D8D8D8"/>
  <mask id="mask0" style="mask-type:alpha" maskUnits="userSpaceOnUse" x="1" y="3" width="22" height="19">
    <path fill-rule="evenodd" clip-rule="evenodd"
          d="M7.904 5.693V5.614C7.904 4.408 8.929 3 10.188 3L13.748 3.064C15.007 3.064 16.032 4.473 16.032 5.679V5.693H20.216C21.476 5.693 22.501 6.718 22.501 7.977V18.847C22.501 20.106 21.476 21.131 20.216 21.131H3.784C2.525 21.131 1.5 20.106 1.5 18.847V7.977C1.5 6.718 2.525 5.693 3.784 5.693H7.904ZM8.837 5.693H15.063V5.614C15.063 4.859 14.421 3.927 13.633 3.927H10.267C9.477 3.927 8.837 4.859 8.837 5.614V5.693ZM19.917 6.797H18.397V20.026H19.917C20.678 20.026 21.295 19.408 21.295 18.648V8.176C21.295 7.415 20.678 6.797 19.917 6.797ZM14.997 20.026H8.835V6.797H14.997V20.026ZM2.705 8.176V18.648C2.705 19.408 3.324 20.026 4.084 20.026H5.344V6.797H4.084C3.324 6.797 2.705 7.415 2.705 8.176ZM17.37 19.995H15.952V6.807H17.37V19.995ZM7.821 19.995H6.462V6.807H7.821V19.995Z"
          fill="white"/>
  </mask>
  <g mask="url(#mask0)">
    <rect x="-35.7273" y="-31" width="100" height="100" fill="@fillColor"/>
  </g>
</svg>
