<svg width="24" height="24" viewBox="0 0 24 24" fill="none" xmlns="http://www.w3.org/2000/svg">
<path fill-rule="evenodd" clip-rule="evenodd"
      d="M19.828 14.5356C21.6014 15.2302 23.0652 16.4521 23.9107 17.9658C24.0783 18.2659 24.0043 18.6431 23.7358 18.8576C21.3235 20.8123 17.6576 20.9332 14.8186 19.5934C14.3247 20.8573 13.4287 21.9198 12.2879 22.6237C12.2013 22.667 12.1035 22.6914 12 22.6914C11.8965 22.6914 11.7987 22.667 11.7121 22.6237C10.5713 21.9198 9.6753 20.8573 9.18136 19.5934C6.34249 20.9331 2.6768 20.8126 0.264201 18.8576C-0.004319 18.6431 -0.0783823 18.2659 0.0892322 17.9658C0.940609 16.4417 2.40426 15.2235 4.18478 14.5305C3.43984 13.2082 2.97929 11.4229 2.74563 10.3158C2.49514 9.02583 1.98677 6.37824 2.69236 5.71317C2.92917 5.47636 3.29813 5.37045 3.92605 5.35892C4.3479 5.35152 4.89323 5.38726 5.50325 5.4632C5.51816 5.46508 5.53317 5.46708 5.5482 5.46909C5.5602 5.47069 5.5722 5.47229 5.58416 5.47383C6.69834 2.63591 7.18287 2.62701 8.80931 3.53474C9.21855 3.77567 9.69179 4.09577 10.1811 4.46098C11.7126 2.52465 12.3027 2.52409 13.8346 4.46098C14.3239 4.09577 14.7971 3.77567 15.2063 3.53474C15.9959 3.06984 16.4754 2.92804 16.8613 3.04534C17.09 3.11486 17.6037 3.27133 18.4321 5.47379C18.4427 5.47241 18.4533 5.471 18.4639 5.46958C18.4801 5.46742 18.4963 5.46526 18.5124 5.46325C19.1224 5.38726 19.6678 5.35105 20.0896 5.35897C20.7175 5.37049 21.0864 5.47641 21.3232 5.71317C21.5454 5.93541 21.74 6.31945 21.6601 7.61404C21.612 8.39224 21.4734 9.35174 21.27 10.3159C21.0361 11.4244 20.5746 13.2128 19.828 14.5356ZM10.4121 18.882C10.7154 19.7747 11.2736 20.5496 12 21.12C12.7264 20.5496 13.2846 19.7747 13.5879 18.882C13.0892 18.5333 12.6346 18.1305 12.2398 17.6763C12.0811 17.6838 11.9193 17.6836 11.7607 17.6757C11.3658 18.1301 10.911 18.5331 10.4121 18.882ZM18.0631 14.5972C19.2804 13.5407 20.4305 8.36601 20.2657 6.77343C19.9782 6.75212 19.393 6.7569 18.4224 6.8927C17.5579 7.01361 16.6375 7.20498 15.7946 7.43607C17.389 10.2624 18.2178 12.9663 16.1302 15.6616C16.8536 15.497 17.5277 15.1327 18.0631 14.5972ZM17.0141 5.70633C16.7591 5.06745 16.5534 4.68045 16.4255 4.47864C16.1153 4.6166 15.5067 4.96452 14.6624 5.59657C14.7925 5.78826 14.9222 5.98558 15.0503 6.18688C15.6749 6.00235 16.3438 5.8389 17.0141 5.70633ZM9.35319 5.59652C8.50926 4.96476 7.90069 4.61688 7.59047 4.47878C7.46324 4.67994 7.25754 5.06698 7.00204 5.70638C7.67212 5.8389 8.34085 6.00235 8.96535 6.18683C9.09343 5.98553 9.22314 5.78826 9.35319 5.59652ZM5.5931 6.8927C4.62269 6.75699 4.03759 6.75217 3.74981 6.77343C3.58515 8.36095 4.73297 13.5376 5.95237 14.5973C6.49208 15.137 7.16488 15.5007 7.88724 15.664C5.79848 12.9706 6.6246 10.2649 8.22092 7.43612C7.37798 7.20498 6.4576 7.01361 5.5931 6.8927ZM1.65346 18.1216C3.04539 18.9914 4.88943 19.2971 6.71422 18.939C8.01035 18.6847 9.19176 18.1201 10.1185 17.3225C9.95014 17.2561 9.78581 17.1811 9.62593 17.0979C7.98979 17.3666 6.292 16.8541 5.07471 15.7032C3.64689 16.174 2.43968 17.0291 1.65346 18.1216ZM9.81008 7.49388C8.69613 9.35731 8.0311 11.0555 8.0311 12.0366C8.25222 17.6617 15.7632 17.6621 15.9846 12.0366C15.9846 11.0555 15.3195 9.35731 14.2056 7.49388C13.8331 6.87064 12.2435 4.73423 12.0078 4.51687C11.7721 4.73423 10.1826 6.87069 9.81008 7.49388ZM13.8865 17.3267C14.8125 18.1221 15.9919 18.6852 17.2857 18.939C19.1106 19.2972 20.9543 18.9915 22.3462 18.1218C21.5633 17.0359 20.357 16.1783 18.9366 15.707C17.7279 16.8449 16.0211 17.3671 14.3911 17.0972C14.2274 17.1824 14.0591 17.2591 13.8865 17.3267Z"
      fill="@fillColor"/>
</svg>
