<svg width="24" height="24" viewBox="0 0 24 24" fill="none" xmlns="http://www.w3.org/2000/svg">
  <mask id="mask0" style="mask-type:alpha" maskUnits="userSpaceOnUse" x="1" y="4" width="22" height="16">
    <path fill-rule="evenodd" clip-rule="evenodd"
          d="M18.1058 17.822C17.0028 18.459 15.7828 18.796 14.5778 18.796C14.0528 18.796 13.5378 18.727 13.0528 18.6C14.3228 17.422 15.2348 15.792 15.6538 13.975C15.7108 13.94 15.7638 13.9 15.8218 13.866C16.9248 13.229 18.1458 12.892 19.3508 12.892C20.0818 12.892 20.7948 13.019 21.4348 13.263C21.1448 15.068 19.9008 16.786 18.1058 17.822ZM9.10977 18.796C7.90477 18.796 6.68477 18.459 5.58177 17.822C3.78677 16.786 2.54277 15.068 2.25277 13.263C2.89377 13.019 3.60577 12.892 4.33677 12.892C5.54277 12.892 6.76177 13.229 7.86477 13.866C7.92377 13.9 7.97777 13.938 8.03377 13.974C8.45277 15.791 9.36377 17.421 10.6348 18.6C10.1488 18.727 9.63577 18.796 9.10977 18.796ZM5.56677 7.927C6.47077 8.063 7.35377 8.413 8.16377 8.932C7.91177 9.815 7.77677 10.749 7.77677 11.702C7.77677 11.965 7.79077 12.225 7.81077 12.484C6.99277 12.099 6.13277 11.85 5.26277 11.746C5.01577 10.424 5.10877 9.092 5.56677 7.927ZM11.8438 5.349C13.6198 6.748 14.7068 9.14 14.7068 11.702C14.7068 14.263 13.6198 16.655 11.8438 18.052C10.0678 16.654 8.98077 14.262 8.98077 11.702C8.98077 9.14 10.0678 6.749 11.8438 5.349ZM18.1218 7.927C18.5788 9.092 18.6778 10.424 18.4308 11.746C17.5588 11.85 16.6968 12.1 15.8778 12.485C15.8978 12.226 15.9118 11.965 15.9118 11.702C15.9118 10.747 15.7758 9.812 15.5238 8.928C16.3338 8.41 17.2178 8.062 18.1218 7.927ZM22.3448 12.344C21.5348 11.956 20.6098 11.743 19.6558 11.704C19.9118 10.069 19.7118 8.424 19.0388 7.018C18.9308 6.794 18.6998 6.662 18.4498 6.678C17.2928 6.766 16.1518 7.152 15.1128 7.771C14.4688 6.266 13.4608 4.979 12.1838 4.105C11.9788 3.965 11.7088 3.965 11.5038 4.105C10.2258 4.98 9.21877 6.268 8.57377 7.775C7.53477 7.155 6.39577 6.766 5.23777 6.678C4.98977 6.659 4.75677 6.794 4.64877 7.019C3.97577 8.424 3.78277 10.069 4.03777 11.703C3.08177 11.742 2.15377 11.956 1.34277 12.344C1.11777 12.452 0.982773 12.686 1.00177 12.933C1.18277 15.28 2.70677 17.552 4.97977 18.864C6.26477 19.607 7.69377 20 9.10977 20C10.0728 20 11.0088 19.804 11.8438 19.449C12.6788 19.804 13.6138 20 14.5778 20C15.9938 20 17.4218 19.607 18.7078 18.864C20.9818 17.552 22.5058 15.279 22.6858 12.933C22.7038 12.685 22.5688 12.452 22.3448 12.344Z"
          fill="white"/>
  </mask>
  <g mask="url(#mask0)">
    <rect x="-34.9971" y="-28" width="100" height="100" fill="@fillColor"/>
  </g>
</svg>
