<?xml version="1.0" encoding="UTF-8"?>
<svg width="120px" height="120px" viewBox="0 0 120 120" version="1.1" xmlns="http://www.w3.org/2000/svg" xmlns:xlink="http://www.w3.org/1999/xlink">
    <!-- Generator: sketchtool 52.6 (67491) - http://www.bohemiancoding.com/sketch -->
    <title>A14060FF-4435-46E0-894B-36B05046628C</title>
    <desc>Created with sketchtool.</desc>
    <g id="--#164773655-I-diversi-errori-degli-avvisi-di-pagamento-devono-essere-associati-ad-un-icona-grafica" stroke="none" stroke-width="1" fill="none" fill-rule="evenodd">
        <g id="#164773655-DOMAIN_UNKNOWN" transform="translate(-128.000000, -143.000000)" fill="#00C5CA">
            <path d="M140,230.920899 L144,230.920899 L144,234.920899 L140,234.920899 L140,230.920899 Z M144,238.920899 L148,238.920899 L148,242.920899 L144,242.920899 L144,238.920899 Z M228,250.920899 L232,250.920899 L232,254.920899 L228,254.920899 L228,250.920899 Z M224,222.920899 L228,222.920899 L228,226.920899 L224,226.920899 L224,222.920899 Z M232,222.920899 L236,222.920899 L236,226.920899 L232,226.920899 L232,222.920899 Z M144,198.920899 C148.417969,198.920899 152,202.501953 152,206.920899 L152,214.920899 L136,214.920899 L136,206.920899 C136,202.501953 139.582031,198.920899 144,198.920899 Z M148,210.920899 L148,206.920899 C148,204.711914 146.208984,202.920899 144,202.920899 C141.791016,202.920899 140,204.711914 140,206.920899 L140,210.920899 L148,210.920899 Z M196,202.920899 L196,210.920899 L180,210.920899 L180,202.920899 C180,198.501953 183.582031,194.920899 188,194.920899 C192.417969,194.920899 196,198.501953 196,202.920899 Z M192,206.920899 L192,202.920899 C192,200.711914 190.208984,198.920899 188,198.920899 C185.791016,198.920899 184,200.711914 184,202.920899 L184,206.920899 L192,206.920899 Z M240,206.920899 L240,214.920899 L224,214.920899 L224,206.920899 C224,202.501953 227.582031,198.920899 232,198.920899 C236.417969,198.920899 240,202.501953 240,206.920899 Z M236,210.920899 L236,206.920899 C236,204.711914 234.208984,202.920899 232,202.920899 C229.791016,202.920899 228,204.711914 228,206.920899 L228,210.920899 L236,210.920899 Z M130,170.920899 C129.286133,170.918945 128.626953,170.53711 128.270508,169.918945 C127.915039,169.300781 127.915039,168.539062 128.272461,167.920899 L142.272461,143.920899 C142.65918,143.344727 143.306641,143 144,143 C144.69336,143 145.34082,143.344727 145.727539,143.920899 L159.727539,167.920899 C160.084961,168.539062 160.084961,169.300781 159.729492,169.918945 C159.373047,170.53711 158.713867,170.918945 158,170.920899 L156,170.920899 L156,186.920899 L160,186.920899 L160,218.920899 L164,218.920899 L164,214.920899 L168,214.920899 L168,188.920899 C168,187.816406 168.895508,186.920899 170,186.920899 L172,186.920899 L172,182.920899 C172,181.816406 172.895508,180.920899 174,180.920899 L176,180.920899 L176,160.920899 C176.00293,160.229492 176.363281,159.588867 176.952149,159.226562 C177.541016,158.864258 178.275391,158.832031 178.893555,159.140625 L190.893555,165.140625 C191.573242,165.478516 192.001953,166.171875 192.001953,166.930664 C192.001953,167.689453 191.573242,168.381836 190.893555,168.720703 L180,174.15625 L180,180.920899 L182,180.920899 C183.104492,180.920899 184,181.816406 184,182.920899 L184,186.920899 L192,186.920899 L192,182.920899 C192,181.816406 192.895508,180.920899 194,180.920899 L196,180.920899 L196,160.920899 C196.00293,160.229492 196.363281,159.588867 196.952149,159.226562 C197.541016,158.864258 198.275391,158.832031 198.893555,159.140625 L210.893555,165.140625 C211.573242,165.478516 212.001953,166.171875 212.001953,166.930664 C212.001953,167.689453 211.573242,168.381836 210.893555,168.720703 L200,174.15625 L200,180.920899 L202,180.920899 C203.104492,180.920899 204,181.816406 204,182.920899 L204,186.920899 L206,186.920899 C207.104492,186.920899 208,187.816406 208,188.920899 L208,214.920899 L212,214.920899 L212,218.920899 L216,218.920899 L216,186.920899 L220,186.920899 L220,170.920899 L218,170.920899 C217.286133,170.918945 216.626953,170.53711 216.270508,169.918945 C215.915039,169.300781 215.915039,168.539062 216.272461,167.920899 L230.272461,143.920899 C230.65918,143.344727 231.306641,143 232,143 C232.69336,143 233.34082,143.344727 233.727539,143.920899 L247.727539,167.920899 C248.084961,168.539062 248.084961,169.300781 247.729492,169.918945 C247.373047,170.53711 246.713867,170.918945 246,170.920899 L244,170.920899 L244,186.920899 L248,186.920899 L248,262.920899 L128,262.920899 L128,186.920899 L132,186.920899 L132,170.920899 L130,170.920899 Z M223.816406,162.920899 L221.482422,166.920899 L242.517578,166.920899 L236.683594,156.920899 L232,156.920899 L232,152.920899 L234.34961,152.920899 L232,148.890625 L226.150391,158.920899 L230,158.920899 L230,162.920899 L223.816406,162.920899 Z M224,186.920899 L228,186.920899 L228,190.920899 L236,190.920899 L236,186.920899 L240,186.920899 L240,170.920899 L224,170.920899 L224,186.920899 Z M220,238.920899 L220,258.920899 L244,258.920899 L244,254.920899 L236,254.920899 L236,250.920899 L244,250.920899 L244,190.920899 L240,190.920899 L240,194.920899 L224,194.920899 L224,190.920899 L220,190.920899 L220,234.920899 L232,234.920899 L232,238.920899 L220,238.920899 Z M200,164.15625 L200,169.68457 L205.52832,166.920898 L200,164.15625 Z M180,164.15625 L180,169.68457 L185.52832,166.920898 L180,164.15625 Z M186,246.920899 L186,238.920899 L184,238.920899 C178.479492,238.927735 174.006836,243.400391 174,248.920899 L174,258.920899 L186,258.920899 L186,250.920899 L182,250.920899 L182,246.920899 L186,246.920899 Z M202,258.920899 L202,248.920899 C201.993164,243.400391 197.520508,238.927735 192,238.920899 L190,238.920899 L190,246.920899 L194,246.920899 L194,250.920899 L190,250.920899 L190,258.920899 L202,258.920899 Z M172,190.920899 L172,214.920899 L176,214.920899 L176,218.920899 L180,218.920899 L180,214.920899 L196,214.920899 L196,218.920899 L200,218.920899 L200,214.920899 L204,214.920899 L204,190.920899 L202,190.920899 C200.895508,190.920899 200,190.025391 200,188.920899 L200,184.920899 L196,184.920899 L196,188.920899 C196,190.025391 195.104492,190.920899 194,190.920899 L182,190.920899 C180.895508,190.920899 180,190.025391 180,188.920899 L180,184.920899 L176,184.920899 L176,188.920899 C176,190.025391 175.104492,190.920899 174,190.920899 L172,190.920899 Z M160,244.920899 L160,258.920899 L170,258.920899 L170,248.920899 C170.008789,241.192383 176.271484,234.929688 184,234.920899 L192,234.920899 C199.728516,234.929688 205.991211,241.192383 206,248.920899 L206,258.920899 L216,258.920899 L216,250.920899 L210,250.920899 L210,246.920899 L216,246.920899 L216,238.920899 L212,238.920899 L212,234.920899 L216,234.920899 L216,230.920899 L188,230.920899 L188,226.920899 L216,226.920899 L216,222.920899 L208,222.920899 L208,218.920899 L204,218.920899 L204,222.920899 L192,222.920899 L192,218.920899 L184,218.920899 L184,222.920899 L172,222.920899 L172,218.920899 L168,218.920899 L168,222.920899 L160,222.920899 L160,226.920899 L176,226.920899 L176,230.920899 L160,230.920899 L160,240.920899 L166,240.920899 L166,244.920899 L160,244.920899 Z M156,230.920899 L156,190.920899 L152,190.920899 L152,194.920899 L136,194.920899 L136,190.920899 L132,190.920899 L132,250.920899 L140,250.920899 L140,254.920899 L132,254.920899 L132,258.920899 L156,258.920899 L156,234.920899 L148,234.920899 L148,230.920899 L156,230.920899 Z M136,186.920899 L140,186.920899 L140,190.920899 L148,190.920899 L148,186.920899 L152,186.920899 L152,170.920899 L136,170.920899 L136,186.920899 Z M135.816406,162.920899 L133.482422,166.920899 L154.517578,166.920899 L148.683594,156.920899 L144,156.920899 L144,152.920899 L146.349609,152.920899 L144,148.890625 L138.150391,158.920899 L142,158.920899 L142,162.920899 L135.816406,162.920899 Z M142,176.920899 L146,176.920899 L146,180.920899 L142,180.920899 L142,176.920899 Z M230,176.920899 L234,176.920899 L234,180.920899 L230,180.920899 L230,176.920899 Z M180,226.920899 L184,226.920899 L184,230.920899 L180,230.920899 L180,226.920899 Z" id="domain-unknown-icon"></path>
        </g>
    </g>
</svg>