<?xml version="1.0" encoding="UTF-8"?>
<svg width="134px" height="120px" viewBox="0 0 134 120" version="1.1" xmlns="http://www.w3.org/2000/svg" xmlns:xlink="http://www.w3.org/1999/xlink">
    <!-- Generator: sketchtool 52.6 (67491) - http://www.bohemiancoding.com/sketch -->
    <title>B0D61543-7372-446E-BDAE-142791D292B2</title>
    <desc>Created with sketchtool.</desc>
    <g id="--#164773655-I-diversi-errori-degli-avvisi-di-pagamento-devono-essere-associati-ad-un-icona-grafica" stroke="none" stroke-width="1" fill="none" fill-rule="evenodd">
        <g id="#164773655-GENERIC_ERROR" transform="translate(-120.000000, -143.000000)" fill="#00C5CA">
            <path d="M128.918033,186.497778 C134.108328,186.497778 138.021115,182.777778 138.021115,177.842222 L138.021115,175.435556 C138.021115,172.051111 135.566426,169.12 132.431738,168.762222 C131.535475,168.662222 130.645902,168.737778 129.776393,168.993333 C126.224787,170.033333 124.187016,173.762222 125.230426,177.302222 C125.57823,178.48 124.902689,179.715556 123.721049,180.06 C122.53941,180.417778 121.299803,179.733333 120.952,178.555556 C119.212984,172.664444 122.608525,166.462222 128.518951,164.731111 C129.965902,164.304444 131.450754,164.173333 132.940066,164.348889 C138.377836,164.968889 142.480131,169.735556 142.480131,175.435556 L142.480131,177.842222 C142.480131,185.188889 136.522885,190.942222 128.918033,190.942222 L122.229508,190.942222 C120.99882,190.942222 120,189.948889 120,188.72 C120,187.491111 120.99882,186.497778 122.229508,186.497778 L128.918033,186.497778 Z M253.184131,219.52 C254.055869,220.388889 254.055869,221.795556 253.184131,222.673333 L250.031607,225.815556 C239.503869,236.308889 225.507016,242.086667 210.618361,242.086667 C196.581377,242.086667 183.340328,236.946667 173.048918,227.564444 C172.961967,227.5 172.85941,227.466667 172.781377,227.388889 L169.992262,230.168889 L169.628852,230.531111 L156.176,243.937778 L159.328525,247.08 L148.292459,258.08 C145.347279,261.013333 141.430033,262.631111 137.256393,262.631111 C133.084984,262.631111 129.163279,261.013333 126.220328,258.08 C122.336525,254.206667 120.775869,248.497778 122.151475,243.177778 C122.76682,240.806667 124.541508,239.004444 126.907016,238.36 C129.243541,237.724444 131.664787,238.362222 133.381508,240.073333 C135.116066,241.802222 135.782689,244.24 135.124984,246.433333 C134.888656,247.222222 135.100459,248.071111 135.682361,248.651111 C136.551869,249.52 137.965377,249.515556 138.834885,248.651111 L149.870951,237.651111 L153.023475,240.793333 L155.480393,238.344444 L153.904131,236.773333 C153.032393,235.904444 153.032393,234.5 153.904131,233.631111 C154.773639,232.762222 156.184918,232.762222 157.056656,233.631111 L158.635148,235.202222 L166.841967,227.022222 L169.631082,224.24 C169.555279,224.164444 169.521836,224.066667 169.45941,223.982222 C160.041967,213.724444 154.882885,200.524444 154.882885,186.528889 C154.882885,171.688889 160.679607,157.74 171.207344,147.246667 L174.362098,144.104444 C175.233836,143.235556 176.642885,143.235556 177.514623,144.104444 C178.386361,144.973333 178.386361,146.377778 177.514623,147.246667 L174.968525,149.782222 C174.723279,154.364444 176.159082,158.466667 179.090885,161.388889 C182.022689,164.308889 186.145049,165.751111 190.733377,165.495556 L193.277246,162.96 C194.148984,162.091111 195.558033,162.091111 196.42977,162.96 C197.301508,163.828889 197.301508,165.233333 196.42977,166.102222 L193.885902,168.637778 C193.640656,173.22 195.076459,177.322222 198.008262,180.244444 C201.10282,183.326667 205.517246,184.777778 210.411016,184.315556 C210.448918,184.311111 210.480131,184.328889 210.518033,184.326667 C210.587148,184.324444 210.651803,184.324444 210.720918,184.326667 C210.75882,184.328889 210.790033,184.311111 210.827934,184.315556 C210.908197,184.322222 210.972852,184.366667 211.050885,184.382222 C211.16682,184.404444 211.282754,184.415556 211.392,184.455556 C211.449967,184.475556 211.501246,184.506667 211.556984,184.533333 C211.655082,184.577778 211.739803,184.635556 211.828984,184.693333 C211.936,184.762222 212.038557,184.826667 212.132197,184.913333 C212.152262,184.931111 212.176787,184.935556 212.196852,184.955556 C212.221377,184.982222 212.230295,185.015556 212.25259,185.04 C212.321705,185.115556 212.375213,185.2 212.43318,185.284444 C212.504525,185.386667 212.573639,185.484444 212.627148,185.6 C212.656131,185.66 212.682885,185.715556 212.70518,185.777778 C212.740852,185.877778 212.74977,185.982222 212.772066,186.088889 C212.789902,186.168889 212.834492,186.235556 212.84118,186.32 C212.84341,186.353333 212.827803,186.384444 212.830033,186.42 C212.834492,186.491111 212.834492,186.56 212.830033,186.631111 C212.827803,186.664444 212.84341,186.695556 212.84118,186.731111 C212.381902,191.62 213.833311,196.011111 216.927869,199.095556 C219.859672,202.015556 223.977574,203.451111 228.570361,203.202222 L231.11423,200.664444 C231.985967,199.795556 233.397246,199.795556 234.268984,200.664444 C235.138492,201.531111 235.138492,202.937778 234.268984,203.806667 L231.722885,206.344444 C231.477639,210.926667 232.913443,215.026667 235.843016,217.948889 C238.77482,220.868889 242.894951,222.311111 247.487738,222.055556 L250.031607,219.52 C250.903344,218.651111 252.312393,218.651111 253.184131,219.52 Z M145.142164,254.928889 L153.021246,247.071111 L149.866492,243.928889 L141.982951,251.786667 C139.376656,254.384444 135.133902,254.386667 132.525377,251.786667 C130.784131,250.048889 130.142033,247.506667 130.853246,245.148889 C131.038295,244.535556 130.79082,243.773333 130.226754,243.208889 C129.707279,242.691111 129.134295,242.56 128.688393,242.56 C128.432,242.56 128.217967,242.602222 128.081967,242.64 C127.281574,242.855556 126.679607,243.471111 126.470033,244.28 C125.48682,248.082222 126.599344,252.162222 129.375082,254.928889 C131.477508,257.022222 134.27777,258.177778 137.258623,258.177778 C140.241705,258.177778 143.039738,257.022222 145.142164,254.928889 Z M213.773115,202.237778 C210.934951,199.408889 209.175869,195.775556 208.560525,191.717778 L176.480131,223.691111 C187.478295,229.295556 207.035541,222.74 224.147016,207.413333 C220.147279,206.777778 216.568918,205.024444 213.773115,202.237778 Z M194.855738,183.38 C192.055475,180.591111 190.307541,177.02 189.669902,173.028889 C174.284066,190.086667 167.707016,209.584444 173.327607,220.548889 L205.403541,188.58 C201.332459,187.966667 197.691672,186.206667 194.855738,183.38 Z M170.781508,154.348889 C163.375082,163.426667 159.341902,174.662222 159.339672,186.52 C159.339672,196.12 162.028459,205.288889 166.962361,213.26 C166.215475,200.724444 173.271869,184.433333 186.655607,169.746667 C182.51541,169.16 178.812197,167.391111 175.936131,164.524444 C173.180459,161.775556 171.443672,158.266667 170.781508,154.348889 Z M183.848656,230.071111 C191.832525,234.964444 201.01141,237.631111 210.62059,237.633333 C222.510557,237.633333 233.778492,233.615556 242.881574,226.242222 C238.95318,225.582222 235.443934,223.835556 232.690492,221.091111 C229.814426,218.224444 228.044197,214.533333 227.453377,210.408889 C213.420852,223.108889 197.910164,230.137778 185.601049,230.137778 C185.00577,230.137778 184.428328,230.104444 183.848656,230.071111 Z M122.229508,208.72 C120.99882,208.72 120,207.726667 120,206.497778 C120,205.268889 120.99882,204.275556 122.229508,204.275556 L140.065574,204.275556 C141.296262,204.275556 142.295082,205.268889 142.295082,206.497778 C142.295082,207.726667 141.296262,208.72 140.065574,208.72 L122.229508,208.72 Z M122.229508,199.88 C120.99882,199.88 120,198.886667 120,197.657778 C120,196.428889 120.99882,195.435556 122.229508,195.435556 L128.868984,195.435556 C137.13823,195.435556 146.754098,188.62 146.754098,179.831111 C146.754098,178.602222 147.752918,177.608889 148.983607,177.608889 C150.214295,177.608889 151.213115,178.602222 151.213115,179.831111 C151.213115,191.306667 139.414557,199.88 128.868984,199.88 L122.229508,199.88 Z M128.868984,217.608889 L122.229508,217.608889 C120.99882,217.608889 120,216.615556 120,215.386667 C120,214.157778 120.99882,213.164444 122.229508,213.164444 L128.868984,213.164444 C130.099672,213.164444 131.098492,214.157778 131.098492,215.386667 C131.098492,216.615556 130.099672,217.608889 128.868984,217.608889 Z" id="generic-error-icon"></path>
        </g>
    </g>
</svg>