<?xml version="1.0" encoding="UTF-8"?>
<svg width="120px" height="120px" viewBox="0 0 120 120" version="1.1" xmlns="http://www.w3.org/2000/svg" xmlns:xlink="http://www.w3.org/1999/xlink">
    <!-- Generator: sketchtool 54.1 (76490) - https://sketchapp.com -->
    <title>56267611-7536-4E1D-B42D-210C092C1A4D</title>
    <desc>Created with sketchtool.</desc>
    <g id="#164773655-I-diversi-errori-degli-avvisi-di-pagamento-devono-essere-associati-ad-un-icona-grafica" stroke="none" stroke-width="1" fill="none" fill-rule="evenodd">
        <g id="#164773655-INVALID_AMOUNT" transform="translate(-128.000000, -143.000000)" fill="#00C5CA" fill-rule="nonzero">
            <path d="M238.425547,243.851094 L237.787344,243.851094 L237.787344,148.744766 C237.787344,145.577188 235.210391,143 232.042578,143 C228.874766,143 226.297812,145.577188 226.297812,148.744766 L226.297812,156.404375 L222.225781,156.404375 C221.373359,153.104375 218.371016,150.659609 214.808516,150.659609 C212.522422,150.659609 210.468594,151.667656 209.06375,153.261172 C207.658906,151.667656 205.605312,150.659609 203.318984,150.659609 C199.756484,150.659609 196.754141,153.104375 195.901719,156.404375 L191.587109,156.404375 C190.734922,153.104375 187.732578,150.659609 184.170078,150.659609 C181.883984,150.659609 179.830156,151.667656 178.425312,153.261172 C177.020469,151.667656 174.966875,150.659609 172.680547,150.659609 C170.394219,150.659609 168.340625,151.667656 166.935781,153.261172 C165.530937,151.667656 163.477109,150.659609 161.191016,150.659609 C157.628516,150.659609 154.626172,153.104375 153.77375,156.404375 L149.702188,156.404375 L149.702188,148.744766 C149.702188,145.577188 147.125234,143 143.957422,143 C140.789609,143 138.212656,145.577188 138.212656,148.744766 L138.212656,243.851094 L137.574453,243.851094 C132.294922,243.851094 128,248.146016 128,253.425547 L128,261.085156 C128,262.142891 128.857344,263 129.914844,263 L246.085156,263 C247.142656,263 248,262.142891 248,261.085156 L248,253.425547 C248,248.146016 243.705078,243.851094 238.425547,243.851094 Z M222.468125,160.234062 L226.297813,160.234062 L226.297813,164.06375 L222.468125,164.06375 L222.468125,160.234062 Z M210.978828,158.319219 C210.978828,156.2075 212.696797,154.489531 214.808516,154.489531 C216.920234,154.489531 218.638203,156.2075 218.638203,158.319219 L218.638203,165.978828 C218.638203,168.090547 216.920234,169.808516 214.808516,169.808516 C212.696797,169.808516 210.978828,168.090547 210.978828,165.978828 L210.978828,158.319219 Z M199.489297,158.319219 C199.489297,156.2075 201.207266,154.489531 203.318984,154.489531 C205.430703,154.489531 207.148672,156.2075 207.148672,158.319219 L207.148672,165.978828 C207.148672,168.090547 205.430703,169.808516 203.318984,169.808516 C201.207266,169.808516 199.489297,168.090547 199.489297,165.978828 L199.489297,158.319219 Z M191.829687,160.234062 L195.659375,160.234062 L195.659375,164.06375 L191.829687,164.06375 L191.829687,160.234062 Z M180.340391,158.319219 C180.340391,156.2075 182.058359,154.489531 184.170078,154.489531 C186.281797,154.489531 187.999766,156.2075 187.999766,158.319219 L187.999766,165.978828 C187.999766,168.090547 186.281797,169.808516 184.170078,169.808516 C182.058359,169.808516 180.340391,168.090547 180.340391,165.978828 L180.340391,158.319219 Z M168.851094,158.319219 C168.851094,156.2075 170.569063,154.489531 172.680781,154.489531 C174.7925,154.489531 176.510469,156.2075 176.510469,158.319219 L176.510469,165.978828 C176.510469,168.090547 174.7925,169.808516 172.680781,169.808516 C170.569063,169.808516 168.851094,168.090547 168.851094,165.978828 L168.851094,158.319219 Z M157.361797,158.319219 C157.361797,156.2075 159.079766,154.489531 161.191484,154.489531 C163.303203,154.489531 165.021172,156.2075 165.021172,158.319219 L165.021172,165.978828 C165.021172,168.090547 163.303203,169.808516 161.191484,169.808516 C159.079766,169.808516 157.361797,168.090547 157.361797,165.978828 L157.361797,158.319219 L157.361797,158.319219 Z M149.702188,160.234062 L153.531875,160.234062 L153.531875,164.06375 L149.702188,164.06375 L149.702188,160.234062 Z M149.702188,167.893672 L153.774219,167.893672 C154.626641,171.193672 157.628984,173.638438 161.191484,173.638438 C163.477578,173.638438 165.531406,172.630391 166.93625,171.037109 C168.341094,172.630625 170.394688,173.638438 172.681016,173.638438 C174.967344,173.638438 177.020938,172.630391 178.425781,171.037109 C179.830625,172.630625 181.884453,173.638438 184.170547,173.638438 C187.733047,173.638438 190.735391,171.193672 191.587813,167.893672 L195.902422,167.893672 C196.754609,171.193672 199.756953,173.638438 203.319453,173.638438 C205.605547,173.638438 207.659375,172.630391 209.064219,171.037109 C210.469063,172.630625 212.522891,173.638438 214.808984,173.638438 C218.371484,173.638438 221.373828,171.193672 222.22625,167.893672 L226.298281,167.893672 L226.298281,185.765938 L222.225781,185.765938 C221.373359,182.465937 218.371016,180.021172 214.808516,180.021172 C212.522422,180.021172 210.468594,181.029219 209.06375,182.6225 C207.658906,181.028984 205.605312,180.021172 203.318984,180.021172 C201.032656,180.021172 198.979062,181.029219 197.574219,182.6225 C196.169375,181.028984 194.115781,180.021172 191.829453,180.021172 C189.543125,180.021172 187.489531,181.029219 186.084687,182.6225 C184.679844,181.028984 182.62625,180.021172 180.339922,180.021172 C176.777422,180.021172 173.775078,182.465937 172.922656,185.765938 L168.608047,185.765938 C167.755859,182.465937 164.753516,180.021172 161.191016,180.021172 C157.628516,180.021172 154.626172,182.465937 153.77375,185.765938 L149.702188,185.765938 L149.702188,167.893672 Z M226.297813,189.595859 L226.297813,193.425547 L222.468125,193.425547 L222.468125,189.595859 L226.297813,189.595859 Z M218.638203,187.680781 L218.638203,195.340391 C218.638203,197.452109 216.920234,199.170078 214.808516,199.170078 C212.696797,199.170078 210.978828,197.452109 210.978828,195.340391 L210.978828,187.680781 C210.978828,185.569063 212.696797,183.851094 214.808516,183.851094 C216.920234,183.851094 218.638203,185.569063 218.638203,187.680781 Z M207.148906,187.680781 L207.148906,195.340391 C207.148906,197.452109 205.430938,199.170078 203.319219,199.170078 C201.2075,199.170078 199.489531,197.452109 199.489531,195.340391 L199.489531,187.680781 C199.489531,185.569063 201.2075,183.851094 203.319219,183.851094 C205.430938,183.851094 207.148906,185.569063 207.148906,187.680781 Z M195.659609,187.680781 L195.659609,195.340391 C195.659609,197.452109 193.941641,199.170078 191.829922,199.170078 C189.718203,199.170078 188.000234,197.452109 188.000234,195.340391 L188.000234,187.680781 C188.000234,185.569063 189.718203,183.851094 191.829922,183.851094 C193.941641,183.851094 195.659609,185.569063 195.659609,187.680781 Z M184.170312,187.680781 L184.170312,195.340391 C184.170312,197.452109 182.452344,199.170078 180.340625,199.170078 C178.228906,199.170078 176.510938,197.452109 176.510938,195.340391 L176.510938,187.680781 C176.510938,185.569063 178.228906,183.851094 180.340625,183.851094 C182.452344,183.851094 184.170312,185.569063 184.170312,187.680781 Z M172.680781,189.595859 L172.680781,193.425547 L168.851094,193.425547 L168.851094,189.595859 L172.680781,189.595859 Z M165.021172,187.680781 L165.021172,195.340391 C165.021172,197.452109 163.303203,199.170078 161.191484,199.170078 C159.079766,199.170078 157.361797,197.452109 157.361797,195.340391 L157.361797,187.680781 C157.361797,185.569063 159.079766,183.851094 161.191484,183.851094 C163.303203,183.851094 165.021172,185.569063 165.021172,187.680781 Z M149.702188,189.595859 L153.531875,189.595859 L153.531875,193.425547 L149.702188,193.425547 L149.702188,189.595859 Z M149.702188,197.255234 L153.774219,197.255234 C154.626641,200.555234 157.628984,203 161.191484,203 C164.753984,203 167.756328,200.555234 168.60875,197.255234 L172.923359,197.255234 C173.775547,200.555234 176.777891,203 180.340391,203 C182.626484,203 184.680312,201.991953 186.085156,200.398672 C187.489766,201.991953 189.543594,203 191.829688,203 C194.115781,203 196.169609,201.991953 197.574453,200.398672 C198.979297,201.992188 201.032891,203 203.319219,203 C205.605547,203 207.659141,201.991953 209.063984,200.398672 C210.468828,201.992188 212.522656,203 214.80875,203 C218.37125,203 221.373594,200.555234 222.226016,197.255234 L226.298047,197.255234 L226.298047,215.1275 L222.225781,215.1275 C221.373359,211.8275 218.371016,209.382734 214.808516,209.382734 C212.522422,209.382734 210.468594,210.390781 209.06375,211.984062 C207.658906,210.390547 205.605312,209.382734 203.318984,209.382734 C201.032656,209.382734 198.979062,210.390781 197.574219,211.984062 C196.169375,210.390547 194.115781,209.382734 191.829453,209.382734 C188.266953,209.382734 185.264609,211.8275 184.412187,215.1275 L180.097578,215.1275 C179.245391,211.8275 176.243047,209.382734 172.680547,209.382734 C170.394453,209.382734 168.340625,210.390781 166.935781,211.984062 C165.530937,210.390547 163.477109,209.382734 161.191016,209.382734 C157.628516,209.382734 154.626172,211.8275 153.77375,215.1275 L149.702188,215.1275 L149.702188,197.255234 Z M226.297813,218.957422 L226.297813,222.787109 L222.468125,222.787109 L222.468125,218.957422 L226.297813,218.957422 Z M218.638203,217.042578 L218.638203,224.702188 C218.638203,226.813906 216.920234,228.531875 214.808516,228.531875 C212.696797,228.531875 210.978828,226.813906 210.978828,224.702188 L210.978828,217.042578 C210.978828,214.930859 212.696797,213.212891 214.808516,213.212891 C216.920234,213.212656 218.638203,214.930859 218.638203,217.042578 Z M207.148906,217.042578 L207.148906,224.702188 C207.148906,226.813906 205.430938,228.531875 203.319219,228.531875 C201.2075,228.531875 199.489531,226.813906 199.489531,224.702188 L199.489531,217.042578 C199.489531,214.930859 201.2075,213.212891 203.319219,213.212891 C205.430938,213.212656 207.148906,214.930859 207.148906,217.042578 Z M195.659609,217.042578 L195.659609,224.702188 C195.659609,226.813906 193.941641,228.531875 191.829922,228.531875 C189.718203,228.531875 188.000234,226.813906 188.000234,224.702188 L188.000234,217.042578 C188.000234,214.930859 189.718203,213.212891 191.829922,213.212891 C193.941641,213.212656 195.659609,214.930859 195.659609,217.042578 Z M184.170312,218.957422 L184.170312,222.787109 L180.340625,222.787109 L180.340625,218.957422 L184.170312,218.957422 Z M176.510703,217.042578 L176.510703,224.702188 C176.510703,226.813906 174.792734,228.531875 172.681016,228.531875 C170.569297,228.531875 168.851328,226.813906 168.851328,224.702188 L168.851328,217.042578 C168.851328,214.930859 170.569297,213.212891 172.681016,213.212891 C174.792734,213.212891 176.510703,214.930859 176.510703,217.042578 Z M165.021172,217.042578 L165.021172,224.702188 C165.021172,226.813906 163.303203,228.531875 161.191484,228.531875 C159.079766,228.531875 157.361797,226.813906 157.361797,224.702188 L157.361797,217.042578 C157.361797,214.930859 159.079766,213.212891 161.191484,213.212891 C163.303203,213.212656 165.021172,214.930859 165.021172,217.042578 Z M149.702188,218.957422 L153.531875,218.957422 L153.531875,222.787109 L149.702188,222.787109 L149.702188,218.957422 Z M142.042578,148.744766 C142.042578,147.688672 142.901563,146.829922 143.957422,146.829922 C145.013516,146.829922 145.872266,147.688906 145.872266,148.744766 L145.872266,238.106563 C145.872266,239.164297 146.729609,240.021406 147.787109,240.021406 C148.844609,240.021406 149.701953,239.164297 149.701953,238.106563 L149.701953,226.617266 L153.773984,226.617266 C154.626406,229.917266 157.62875,232.362031 161.19125,232.362031 C163.477344,232.362031 165.531172,231.353984 166.936016,229.760703 C168.340859,231.354219 170.394453,232.362031 172.680781,232.362031 C176.243281,232.362031 179.245625,229.917266 180.098047,226.617266 L184.412656,226.617266 C185.264844,229.917266 188.267188,232.362031 191.829687,232.362031 C194.115781,232.362031 196.169609,231.353984 197.574453,229.760703 C198.979297,231.354219 201.032891,232.362031 203.319219,232.362031 C205.605547,232.362031 207.659141,231.353984 209.063984,229.760703 C210.468828,231.354219 212.522656,232.362031 214.80875,232.362031 C218.37125,232.362031 221.373594,229.917266 222.226016,226.617266 L226.298047,226.617266 L226.298047,238.106563 C226.298047,239.164297 227.155391,240.021406 228.212891,240.021406 C229.270391,240.021406 230.127734,239.164297 230.127734,238.106563 L230.127734,148.744766 C230.127734,147.688672 230.986719,146.829922 232.042578,146.829922 C233.098672,146.829922 233.957422,147.688906 233.957422,148.744766 L233.957422,243.851094 L142.042578,243.851094 L142.042578,148.744766 Z M244.170312,259.170313 L131.829688,259.170313 L131.829688,253.425547 C131.829688,250.257969 134.406641,247.680781 137.574453,247.680781 L238.425547,247.680781 C241.593359,247.680781 244.170312,250.257969 244.170312,253.425547 L244.170312,259.170313 Z" id="invalid-amount-icon"></path>
        </g>
    </g>
</svg>