<?xml version="1.0" encoding="UTF-8"?>
<svg width="120px" height="120px" viewBox="0 0 120 120" version="1.1" xmlns="http://www.w3.org/2000/svg" xmlns:xlink="http://www.w3.org/1999/xlink">
    <!-- Generator: sketchtool 52.6 (67491) - http://www.bohemiancoding.com/sketch -->
    <title>AE37566F-F38B-4066-8A01-2481839012A3</title>
    <desc>Created with sketchtool.</desc>
    <g id="--#164773655-I-diversi-errori-degli-avvisi-di-pagamento-devono-essere-associati-ad-un-icona-grafica" stroke="none" stroke-width="1" fill="none" fill-rule="evenodd">
        <g id="#164773655-MISSING_PAYMENT_ID" transform="translate(-128.000000, -143.000000)" fill="#00C5CA">
            <path d="M161.929314,211 L165.920998,211 L165.920998,215 L161.929314,215 L161.929314,211 Z M169.912682,211 L173.904366,211 L173.904366,215 L169.912682,215 L169.912682,211 Z M177.89605,211 L181.887734,211 L181.887734,215 L177.89605,215 L177.89605,211 Z M161.929314,219 L165.920998,219 L165.920998,223 L161.929314,223 L161.929314,219 Z M169.912682,219 L173.904366,219 L173.904366,223 L169.912682,223 L169.912682,219 Z M177.89605,219 L181.887734,219 L181.887734,223 L177.89605,223 L177.89605,219 Z M185.879418,219 L189.871102,219 L189.871102,223 L185.879418,223 L185.879418,219 Z M193.862786,219 L197.85447,219 L197.85447,223 L193.862786,223 L193.862786,219 Z M161.929314,227 L165.920998,227 L165.920998,231 L161.929314,231 L161.929314,227 Z M169.912682,227 L173.904366,227 L173.904366,231 L169.912682,231 L169.912682,227 Z M177.89605,227 L181.887734,227 L181.887734,231 L177.89605,231 L177.89605,227 Z M185.879418,227 L189.871102,227 L189.871102,231 L185.879418,231 L185.879418,227 Z M193.862786,227 L197.85447,227 L197.85447,231 L193.862786,231 L193.862786,227 Z M161.929314,235 L165.920998,235 L165.920998,239 L161.929314,239 L161.929314,235 Z M169.912682,235 L173.904366,235 L173.904366,239 L169.912682,239 L169.912682,235 Z M177.89605,235 L181.887734,235 L181.887734,239 L177.89605,239 L177.89605,235 Z M185.879418,235 L189.871102,235 L189.871102,239 L185.879418,239 L185.879418,235 Z M193.862786,235 L197.85447,235 L197.85447,239 L193.862786,239 L193.862786,235 Z M161.929314,243 L165.920998,243 L165.920998,247 L161.929314,247 L161.929314,243 Z M169.912682,243 L173.904366,243 L173.904366,247 L169.912682,247 L169.912682,243 Z M177.89605,243 L181.887734,243 L181.887734,247 L177.89605,247 L177.89605,243 Z M185.879418,243 L189.871102,243 L189.871102,247 L185.879418,247 L185.879418,243 Z M193.862786,243 L197.85447,243 L197.85447,247 L193.862786,247 L193.862786,243 Z M161.929314,251 L165.920998,251 L165.920998,255 L161.929314,255 L161.929314,251 Z M169.912682,251 L173.904366,251 L173.904366,255 L169.912682,255 L169.912682,251 Z M177.89605,251 L181.887734,251 L181.887734,255 L177.89605,255 L177.89605,251 Z M185.879418,251 L189.871102,251 L189.871102,255 L185.879418,255 L185.879418,251 Z M193.862786,251 L197.85447,251 L197.85447,255 L193.862786,255 L193.862786,251 Z M245.754678,149 C246.856874,149 247.75052,149.895508 247.75052,151 L247.75052,159 C247.75052,160.105469 246.856874,161 245.754678,161 L231.783784,161 L231.783784,163 C231.783784,164.105469 230.890138,165 229.787942,165 L225.796258,165 L225.796258,259 L229.348428,259 C227.944127,257.463867 227.445166,255.301758 228.033784,253.302734 C228.621427,251.304688 230.210889,249.759766 232.223298,249.232422 C231.20881,246.725586 231.992334,243.849609 234.138254,242.208008 C236.283199,240.566406 239.259421,240.566406 241.404366,242.208008 C243.550286,243.849609 244.33381,246.725586 243.319322,249.232422 C245.331731,249.759766 246.921193,251.304688 247.508836,253.302734 C248.097453,255.301758 247.598493,257.463867 246.194192,259 L247.75052,259 L247.751504,263 L128,263 L128,259 L129.169439,259 L138.563929,249.586914 C139.343555,248.805664 140.606549,248.805664 141.386175,249.586914 L150.780665,259 L153.945946,259 L153.945946,169 L157.93763,169 L157.93763,177 L183.883576,177 L183.883576,181 L157.93763,181 L157.93763,187 L169.912682,187 L169.912682,185 L173.904366,185 L173.904366,187 L185.879418,187 L185.879418,183 L189.871102,183 L189.871102,187 L201.846154,187 L201.846154,179 L205.837838,179 L205.837838,259 L213.821206,259 L213.821206,165 L209.829522,165 C208.727326,165 207.83368,164.105469 207.83368,163 L207.83368,161 L139.975052,161 L139.975052,197.342773 C141.855899,198 143.284563,199.556641 143.779626,201.490234 C144.275663,203.423828 143.772804,205.478516 142.439644,206.96289 L147.558862,213.800781 L147.533524,213.820312 C147.800546,214.15625 147.949649,214.571289 147.95842,215 L147.95842,223 C147.95842,223.53125 147.747921,224.039062 147.373701,224.414062 L143.382017,228.414062 C143.007796,228.789062 142.500065,229 141.970894,229 L133.987526,229 C133.458355,229 132.950624,228.789062 132.576403,228.414062 L128.584719,224.414062 C128.210499,224.039062 128,223.53125 128,223 L128,215 C128.008771,214.571289 128.157874,214.15625 128.424896,213.820312 L128.399558,213.800781 L133.518776,206.96289 C132.540346,205.875 131.997531,204.463867 131.991684,203 L135.983368,203 C135.983368,204.105469 136.877014,205 137.97921,205 C139.081406,205 139.975052,204.105469 139.975052,203 C139.975052,201.895508 139.081406,201 137.97921,201 C136.877014,201 135.983368,200.105469 135.983368,199 L135.983368,161 L129.995842,161 C128.893646,161 128,160.105469 128,159 L128,151 C128,149.895508 128.893646,149 129.995842,149 L207.83368,149 L207.83368,145 C207.83368,143.895508 208.727326,143 209.829522,143 L229.787942,143 C230.890138,143 231.783784,143.895508 231.783784,145 L231.783784,149 L245.754678,149 Z M138.977131,209 L136.981289,209 L133.987526,213 L141.970894,213 L138.977131,209 Z M143.966736,222.172852 L143.966736,217 L131.991684,217 L131.991684,222.172852 L134.813929,225 L141.144491,225 L143.966736,222.172852 Z M237.172947,153 L231.783784,153 L231.783784,156.600586 L237.172947,153 Z M211.825364,147 L211.825364,155 L219.808732,155 L219.808732,147 L211.825364,147 Z M157.93763,153.400391 L152.548467,157 L163.326793,157 L157.93763,153.400391 Z M145.962578,156.600586 L151.351741,153 L140.573415,153 L145.962578,156.600586 Z M164.523519,153 L169.912682,156.600586 L175.301845,153 L164.523519,153 Z M181.887734,153.400391 L176.498571,157 L187.276897,157 L181.887734,153.400391 Z M188.473623,153 L193.862786,156.600586 L199.251949,153 L188.473623,153 Z M131.991684,153 L131.991684,157 L139.376689,157 L133.389163,153 L131.991684,153 Z M200.448675,157 L207.83368,157 L207.83368,153 L206.436201,153 L200.448675,157 Z M221.804574,252.400391 L221.804574,241.600586 L218.212448,247 L221.804574,252.400391 Z M221.804574,204.400391 L221.804574,193.600586 L218.212448,199 L221.804574,204.400391 Z M217.81289,205.600586 L217.81289,216.400391 L221.405016,211 L217.81289,205.600586 Z M217.81289,192.400391 L221.405016,187 L217.81289,181.600586 L217.81289,192.400391 Z M217.81289,229.600586 L217.81289,240.400391 L221.405016,235 L217.81289,229.600586 Z M221.804574,228.388672 L221.804574,217.600586 L218.212448,223 L221.804574,228.388672 Z M218.212448,175 L221.804574,180.400391 L221.804574,169.600586 L218.212448,175 Z M217.81289,168.400391 L220.071856,165 L217.81289,165 L217.81289,168.400391 Z M201.846154,191 L189.871102,191 L189.871102,211 L201.846154,211 L201.846154,191 Z M185.879418,191 L173.904366,191 L173.904366,203.076172 L179.891892,203.076172 C180.415216,203.078125 180.9171,203.286133 181.289371,203.654297 L185.879418,208.200195 L185.879418,191 Z M169.912682,191 L157.93763,191 L157.93763,194.333985 L169.912682,194.333985 L169.912682,191 Z M139.975052,253.828125 L134.813929,259 L145.136175,259 L139.975052,253.828125 Z M157.93763,259 L201.846154,259 L201.846154,215 L187.87526,215 C187.351936,214.999024 186.850052,214.791016 186.477781,214.422852 L179.071336,207.083985 L171.908524,207.083985 C170.806328,207.083985 169.912682,206.189453 169.912682,205.083985 L169.912682,198.333985 L157.93763,198.333985 L157.93763,259 Z M217.81289,253.600586 L217.81289,259 L221.405016,259 L217.81289,253.600586 Z M241.762994,257 C242.86519,257 243.758836,256.105469 243.758836,255 C243.758836,253.895508 242.86519,253 241.762994,253 C240.660798,253 239.767152,253.895508 239.767152,255 C239.767152,256.105469 240.660798,257 241.762994,257 Z M237.77131,245 C236.669114,245 235.775468,245.895508 235.775468,247 C235.775468,248.105469 236.669114,249 237.77131,249 C238.873506,249 239.767152,248.105469 239.767152,247 C239.767152,245.895508 238.873506,245 237.77131,245 Z M233.779626,253 C232.67743,253 231.783784,253.895508 231.783784,255 C231.783784,256.105469 232.67743,257 233.779626,257 C234.881822,257 235.775468,256.105469 235.775468,255 C235.775468,253.895508 234.881822,253 233.779626,253 Z M227.7921,161 L227.7921,147 L223.800416,147 L223.800416,157 C223.800416,158.105469 222.90677,159 221.804574,159 L211.825364,159 L211.825364,161 L227.7921,161 Z M238.369673,157 L243.758836,157 L243.758836,153.400391 L238.369673,157 Z" id="missing-payment-id-icon"></path>
        </g>
    </g>
</svg>