<?xml version="1.0" encoding="UTF-8"?>
<svg width="120px" height="120px" viewBox="0 0 120 120" version="1.1" xmlns="http://www.w3.org/2000/svg" xmlns:xlink="http://www.w3.org/1999/xlink">
    <!-- Generator: sketchtool 52.6 (67491) - http://www.bohemiancoding.com/sketch -->
    <title>48E36FE0-0865-477B-B31D-3066D01401D9</title>
    <desc>Created with sketchtool.</desc>
    <g id="--#164773655-I-diversi-errori-degli-avvisi-di-pagamento-devono-essere-associati-ad-un-icona-grafica" stroke="none" stroke-width="1" fill="none" fill-rule="evenodd">
        <g id="#164773655-PAYMENT_DUPLICATED" transform="translate(-128.000000, -143.000000)" fill="#00C5CA" fill-rule="nonzero">
            <path d="M206.679064,178.986433 C206.92655,179.748304 206.767018,180.583626 206.256608,181.200702 L199.823626,188.972865 L200.459649,199.041637 C200.510175,199.84117 200.148304,200.61076 199.500117,201.081637 C199.094503,201.376608 198.611696,201.528421 198.124912,201.528421 C197.833918,201.528421 197.541754,201.474386 197.263392,201.363977 L187.883743,197.647719 L178.504094,201.363977 C177.759298,201.658947 176.915556,201.552515 176.267368,201.081637 C175.619181,200.61076 175.25731,199.84117 175.307836,199.041637 L175.94386,188.973099 L169.510877,181.200702 C169.000234,180.583626 168.840702,179.748304 169.088187,178.986433 C169.335673,178.224561 169.955789,177.642339 170.731696,177.443275 L180.504094,174.936608 L185.908304,166.416842 C186.33731,165.740351 187.082573,165.330526 187.883509,165.330526 C188.684444,165.330526 189.429942,165.740351 189.858947,166.416842 L195.26269,174.936608 L205.035556,177.443275 C205.811228,177.642339 206.431579,178.224561 206.679064,178.986433 Z M195.628304,186.703626 L200.300585,181.058713 L193.202339,179.238129 C192.625731,179.090058 192.127018,178.727953 191.808187,178.225263 L187.883509,172.037193 L183.958363,178.225263 C183.639532,178.727953 183.140819,179.090058 182.564211,179.238129 L175.466433,181.058713 L180.138947,186.70386 C180.518596,187.162573 180.709006,187.748538 180.671345,188.342924 L180.209357,195.655906 L187.021754,192.956725 C187.29848,192.847018 187.591111,192.792281 187.883509,192.792281 C188.175906,192.792281 188.468538,192.847018 188.745263,192.956725 L195.557895,195.655906 L195.095906,188.34269 C195.058246,187.748304 195.248655,187.162105 195.628304,186.703626 Z M187.883509,208.188304 C189.175439,208.188304 190.22269,209.235556 190.22269,210.527485 L190.22269,260.427602 C190.22269,261.719532 189.175439,262.766784 187.883509,262.766784 C186.591579,262.766784 185.544327,261.719298 185.544327,260.427602 L185.544327,210.527485 C185.544327,209.235789 186.591579,208.188304 187.883509,208.188304 Z M224.525848,199.574269 C225.375673,200.547135 225.276257,202.024795 224.30386,202.874854 C219.369825,207.186199 211.092865,218.198129 211.092865,243.509942 C211.092865,244.801637 210.045614,245.849123 208.753684,245.849123 C207.461754,245.849123 206.414503,244.801637 206.414503,243.509942 C206.414503,231.826199 208.098012,221.802573 211.418012,213.717661 C213.88117,207.719532 217.180819,202.886082 221.225263,199.352047 C222.197661,198.50152 223.675556,198.60117 224.525848,199.574269 Z M247.453567,186.19883 C247.854035,186.892632 247.871579,187.743158 247.500585,188.452865 L245.255906,192.743626 L246.517895,197.259181 C246.603743,197.50269 246.650292,197.764211 246.650292,198.036959 C246.650292,199.322807 245.612865,200.366316 244.329123,200.37614 C244.19462,200.378947 244.053801,200.366784 243.915789,200.343158 L239.141287,199.534503 L235.108538,202.215439 C234.71883,202.47462 234.267135,202.60655 233.813333,202.60655 C233.490526,202.60655 233.166316,202.539883 232.862222,202.404444 C232.130292,202.078596 231.616374,201.400936 231.499415,200.608421 L230.793216,195.817544 L226.997427,192.81076 C226.369591,192.313216 226.039766,191.529123 226.123509,190.732632 C226.207251,189.935906 226.692865,189.237427 227.410292,188.881637 L231.74807,186.729591 L233.435088,182.190409 C233.713918,181.439532 234.357661,180.883743 235.141287,180.717193 C235.924678,180.549708 236.739181,180.796491 237.299415,181.368889 L240.68655,184.829708 L245.525146,185.031345 C246.32538,185.064561 247.053099,185.505029 247.453567,186.19883 Z M240.500585,193.109942 C240.340117,192.536608 240.404678,191.923743 240.680702,191.395789 L241.64538,189.551813 L239.565614,189.465029 C238.97076,189.440468 238.407719,189.189474 237.991345,188.764211 L236.535439,187.276725 L235.810292,189.227836 C235.603041,189.785965 235.190643,190.243977 234.65731,190.508538 L232.792982,191.43345 L234.424561,192.725848 C234.891228,193.095673 235.199532,193.62924 235.286316,194.21848 L235.589708,196.277427 L237.323041,195.125146 C237.818713,194.795789 238.421754,194.667135 239.008655,194.767018 L241.060819,195.114386 L240.500585,193.109942 Z M154.541988,199.351813 C158.586433,202.886082 161.886082,207.719298 164.349474,213.717427 C167.669474,221.802339 169.352982,231.825965 169.352982,243.509708 C169.352982,244.801404 168.305731,245.848889 167.013801,245.848889 C165.721871,245.848889 164.67462,244.801404 164.67462,243.509708 C164.67462,218.197895 156.397427,207.185965 151.463626,202.87462 C150.490994,202.024795 150.391345,200.546901 151.241404,199.574035 C152.091228,198.600936 153.569123,198.501287 154.541988,199.351813 Z M149.643743,190.732632 C149.727485,191.529123 149.397895,192.313216 148.769825,192.81076 L144.974035,195.817544 L144.267836,200.608421 C144.150877,201.400936 143.636725,202.078596 142.905029,202.404444 C142.600936,202.539883 142.276725,202.60655 141.953918,202.60655 C141.499883,202.60655 141.048655,202.474386 140.658713,202.215439 L136.625965,199.534503 L131.851462,200.343158 C131.062222,200.477895 130.25848,200.197427 129.722339,199.602105 C129.186433,199.006784 128.992281,198.178713 129.207953,197.407251 L130.511345,192.743626 L128.266667,188.452865 C127.895205,187.743158 127.912982,186.892632 128.31345,186.19883 C128.713918,185.505029 129.441637,185.064795 130.241871,185.031345 L135.080468,184.829708 L138.467602,181.368889 C139.02807,180.796491 139.841637,180.549474 140.625731,180.717193 C141.409357,180.883743 142.053099,181.439532 142.332164,182.190409 L144.019181,186.729591 L148.356959,188.881637 C149.074386,189.237427 149.56,189.935906 149.643743,190.732632 Z M141.34269,192.725848 L142.974269,191.433684 L141.109942,190.508772 C140.576608,190.244211 140.164211,189.786199 139.956959,189.22807 L139.231813,187.276959 L137.775906,188.764444 C137.359532,189.189708 136.796491,189.440702 136.201637,189.465263 L134.121871,189.552047 L135.08655,191.396023 C135.362573,191.923743 135.426901,192.536608 135.266667,193.109942 L134.706433,195.114386 L136.758596,194.767018 C136.888421,194.744795 137.019181,194.734035 137.14924,194.734035 C137.607018,194.734035 138.058012,194.868538 138.444211,195.125146 L140.177544,196.277427 L140.480936,194.21848 C140.567719,193.62924 140.876023,193.095673 141.34269,192.725848 Z M160.362339,158.446082 C159.236491,157.812632 158.837193,156.386667 159.470175,155.260351 C160.103626,154.134737 161.529825,153.734971 162.655906,154.368421 C167.430175,157.054035 171.910877,164.037193 172.856842,170.266667 C173.05076,171.54386 172.172632,172.736608 170.895439,172.930526 C170.776374,172.948538 170.658012,172.957193 170.541287,172.957193 C169.404678,172.957193 168.407485,172.127251 168.231579,170.968889 C167.502924,166.170292 163.899415,160.435556 160.362339,158.446082 Z M149.903392,157.035322 C146.033918,157.035322 142.885848,153.887251 142.885848,150.017778 C142.885848,146.148304 146.033918,143.000234 149.903392,143.000234 C153.772865,143.000234 156.92117,146.148304 156.92117,150.017778 C156.92117,153.887251 153.772865,157.035322 149.903392,157.035322 Z M149.903392,147.678596 C148.613567,147.678596 147.564211,148.727953 147.564211,150.017778 C147.564211,151.307602 148.613567,152.356959 149.903392,152.356959 C151.19345,152.356959 152.242807,151.307602 152.242807,150.017778 C152.242807,148.727953 151.19345,147.678596 149.903392,147.678596 Z M204.871579,172.930526 C203.594386,172.736608 202.716023,171.544094 202.909942,170.266901 C203.855906,164.037427 208.336608,157.054035 213.110877,154.368655 C214.237193,153.734971 215.663392,154.134737 216.296608,155.260585 C216.929825,156.386433 216.530526,157.812632 215.404678,158.446082 C211.867836,160.435556 208.264094,166.170292 207.535439,170.968889 C207.359766,172.127251 206.362573,172.957193 205.225731,172.957193 C205.109006,172.957193 204.990643,172.948538 204.871579,172.930526 Z M225.863626,157.035322 C221.994152,157.035322 218.846082,153.887251 218.846082,150.017778 C218.846082,146.148304 221.994152,143.000234 225.863626,143.000234 C229.733099,143.000234 232.88117,146.148304 232.88117,150.017778 C232.88117,153.887251 229.733099,157.035322 225.863626,157.035322 Z M225.863626,147.678596 C224.573801,147.678596 223.524444,148.727953 223.524444,150.017778 C223.524444,151.307602 224.573801,152.356959 225.863626,152.356959 C227.15345,152.356959 228.202807,151.307602 228.202807,150.017778 C228.202807,148.727953 227.15345,147.678596 225.863626,147.678596 Z M147.689123,223.889591 C148.977544,223.889591 150.028304,224.940351 150.028304,226.228772 C150.028304,227.517193 148.977544,228.567953 147.689123,228.567953 C146.400702,228.567953 145.349942,227.517193 145.349942,226.228772 C145.349942,224.940351 146.400702,223.889591 147.689123,223.889591 Z M155.174503,177.456842 C155.174503,176.168421 156.225263,175.117661 157.513684,175.117661 C158.802105,175.117661 159.853099,176.168421 159.853099,177.456842 C159.853099,178.745497 158.802105,179.796023 157.513684,179.796023 C156.225263,179.796023 155.174503,178.745497 155.174503,177.456842 Z M187.689123,157.339883 C186.400702,157.339883 185.349942,156.289357 185.349942,155.000702 C185.349942,153.712281 186.400702,152.66152 187.689123,152.66152 C188.977544,152.66152 190.028304,153.712281 190.028304,155.000702 C190.028304,156.289357 188.977544,157.339883 187.689123,157.339883 Z M220.437661,176.755088 C220.437661,175.466667 221.488421,174.415906 222.776842,174.415906 C224.065263,174.415906 225.116257,175.466667 225.116257,176.755088 C225.116257,178.043509 224.065263,179.094269 222.776842,179.094269 C221.488421,179.094269 220.437661,178.043509 220.437661,176.755088 Z M225.584094,223.889591 C226.872515,223.889591 227.923275,224.940351 227.923275,226.228772 C227.923275,227.517193 226.872515,228.567953 225.584094,228.567953 C224.295439,228.567953 223.244912,227.517193 223.244912,226.228772 C223.244912,224.940351 224.295439,223.889591 225.584094,223.889591 Z M167.013567,247.946667 C168.301988,247.946667 169.352749,248.997661 169.352749,250.285848 C169.352749,251.574503 168.301988,252.625263 167.013567,252.625263 C165.725146,252.625263 164.674386,251.574503 164.674386,250.285848 C164.674386,248.997661 165.725146,247.946667 167.013567,247.946667 Z M208.753684,247.946667 C210.042105,247.946667 211.092865,248.997661 211.092865,250.285848 C211.092865,251.574503 210.042105,252.625263 208.753684,252.625263 C207.465029,252.625263 206.414503,251.574503 206.414503,250.285848 C206.414503,248.997661 207.465029,247.946667 208.753684,247.946667 Z M174.90386,210.293099 C176.192281,210.293099 177.243041,211.34386 177.243041,212.632281 C177.243041,213.920702 176.192281,214.971462 174.90386,214.971462 C173.615439,214.971462 172.564678,213.920702 172.564678,212.632281 C172.564678,211.34386 173.615439,210.293099 174.90386,210.293099 Z M201.044211,209.240468 C202.332632,209.240468 203.383392,210.291228 203.383392,211.579649 C203.383392,212.86807 202.332632,213.91883 201.044211,213.91883 C199.755789,213.91883 198.705029,212.86807 198.705029,211.579649 C198.705029,210.291228 199.755789,209.240468 201.044211,209.240468 Z" id="payment-duplicated-icon"></path>
        </g>
    </g>
</svg>