<?xml version="1.0" encoding="UTF-8"?>
<svg width="110px" height="120px" viewBox="0 0 110 120" version="1.1" xmlns="http://www.w3.org/2000/svg" xmlns:xlink="http://www.w3.org/1999/xlink">
    <!-- Generator: sketchtool 52.6 (67491) - http://www.bohemiancoding.com/sketch -->
    <title>FFBCB338-3580-4F9B-A1BB-6054E9B1398A</title>
    <desc>Created with sketchtool.</desc>
    <g id="--#164773655-I-diversi-errori-degli-avvisi-di-pagamento-devono-essere-associati-ad-un-icona-grafica" stroke="none" stroke-width="1" fill="none" fill-rule="evenodd">
        <g id="#164773655-PAYMENT_UNAVAILABLE" transform="translate(-133.000000, -143.000000)" fill="#00C5CA" fill-rule="nonzero">
            <path d="M240.431572,156.75008 C241.916332,158.23376 242.734367,160.20656 242.734127,162.30512 L242.734127,180.04352 C242.734127,184.37528 239.207642,187.89944 234.872729,187.89944 L227.797424,187.89944 L227.797424,259.39976 L234.633515,259.39976 C235.628559,259.39976 236.434825,260.20568 236.434825,261.19976 C236.434825,262.19384 235.628559,262.99976 234.633515,262.99976 L143.350087,262.99976 C142.355044,262.99976 141.548777,262.19384 141.548777,261.19976 C141.548777,260.20568 142.355044,259.39976 143.350087,259.39976 L151.174017,259.39976 C149.730568,251.82584 148.693493,241.3316 148.087533,228.15056 C147.592293,217.38512 147.586769,208.74344 147.586769,208.65752 C147.586769,204.8468 147.897795,201.27752 148.383428,198.0236 C146.42024,198.12656 144.546397,198.21512 142.824345,198.21512 C139.072096,198.21512 136.037009,197.79536 134.345218,196.19264 C133.465218,195.35864 133,194.25536 133,193.00136 C133,187.72592 136.740721,185.23952 139.878362,184.08272 C142.890633,182.97224 146.935655,182.41496 152.536769,182.34416 C153.396354,180.16784 154.045306,178.89944 154.127445,178.74152 C154.437271,178.14512 155.053559,177.77096 155.726048,177.77096 L160.655633,177.77096 C161.247904,177.77096 161.802467,178.06184 162.138472,178.54904 L165.350328,183.20288 L168.562424,178.5488 C168.898668,178.0616 169.452991,177.77072 170.045262,177.77072 L174.974607,177.77072 C175.647096,177.77072 176.263384,178.14488 176.57321,178.74128 C176.647664,178.88456 177.188057,179.94032 177.928755,181.7576 C186.99631,186.22304 195.954585,204.0968 190.299672,221.1644 C190.04917,221.9204 189.345459,222.3992 188.589869,222.3992 C188.402293,222.3992 188.211354,222.36968 188.023537,222.30752 C187.07917,221.9948 186.566878,220.97672 186.879585,220.0328 C191.274541,206.76776 185.901594,193.86632 180.056223,187.84232 C181.618079,193.0868 183.114127,200.29184 183.114127,208.65728 C183.114127,208.7432 183.108603,217.38488 182.613362,228.15032 C182.007402,241.33136 180.970087,251.8256 179.526878,259.39952 L189.721092,259.39952 L189.721092,254.10296 L186.06059,254.10296 C185.065546,254.10296 184.259279,253.29704 184.259279,252.30296 C184.259279,251.30888 185.065546,250.50296 186.06059,250.50296 L189.721092,250.50296 L189.721092,246.90944 L187.76655,246.90944 C186.771507,246.90944 185.96524,246.10352 185.96524,245.10944 C185.96524,244.11536 186.771507,243.30944 187.76655,243.30944 L189.721092,243.30944 L189.721092,241.60592 L187.76655,241.60592 C186.771507,241.60592 185.96524,240.8 185.96524,239.80592 C185.96524,238.81184 186.771507,238.00592 187.76655,238.00592 L189.721092,238.00592 L189.721092,237.75584 C189.721092,236.76176 190.527358,235.95584 191.522402,235.95584 C192.517445,235.95584 193.323712,236.76176 193.323712,237.75584 L193.323712,238.00592 L211.765284,238.00592 L211.765284,237.75584 C211.765284,236.76176 212.57155,235.95584 213.566594,235.95584 C214.561638,235.95584 215.367904,236.76176 215.367904,237.75584 L215.367904,238.00592 L217.187707,238.00592 C218.182751,238.00592 218.989017,238.81184 218.989017,239.80592 C218.989017,240.8 218.182751,241.60592 217.187707,241.60592 L215.367904,241.60592 L215.367904,243.30944 L217.187707,243.30944 C218.182751,243.30944 218.989017,244.11536 218.989017,245.10944 C218.989017,246.10352 218.182751,246.90944 217.187707,246.90944 L215.367904,246.90944 L215.367904,250.50296 L218.893908,250.50296 C219.888952,250.50296 220.695218,251.30888 220.695218,252.30296 C220.695218,253.29704 219.888952,254.10296 218.893908,254.10296 L215.367904,254.10296 L215.367904,259.39952 L224.195044,259.39952 L224.195044,187.8992 L217.121659,187.8992 C212.786987,187.8992 209.260022,184.37504 209.260022,180.04328 L209.260022,162.30488 C209.260022,157.97336 212.786747,154.4492 217.121659,154.4492 L231.76559,154.4492 C232.760633,154.4492 233.5669,155.25512 233.5669,156.2492 C233.5669,157.24328 232.760633,158.0492 231.76559,158.0492 L217.121659,158.0492 C214.773231,158.0492 212.862642,159.95816 212.862642,162.30488 L212.862642,180.04328 C212.862642,182.39 214.773231,184.2992 217.121659,184.2992 L225.986987,184.2992 C225.990109,184.2992 225.993231,184.29872 225.996354,184.29872 C225.999476,184.29872 226.002598,184.2992 226.005721,184.2992 L234.872969,184.2992 C237.221157,184.2992 239.131747,182.39 239.131747,180.04328 L239.131747,162.30488 C239.131747,161.168 238.688865,160.09952 237.88452,159.29576 C237.180808,158.5928 237.180808,157.45304 237.884279,156.75008 C238.587751,156.04736 239.728341,156.04712 240.431572,156.75008 Z M193.323472,241.60616 L193.323472,243.30968 L211.765044,243.30968 L211.765044,241.60616 L193.323472,241.60616 Z M193.323472,246.90968 L193.323472,250.5032 L211.765044,250.5032 L211.765044,246.90968 L193.323472,246.90968 Z M193.323472,254.10296 L193.323472,259.39952 L211.765044,259.39952 L211.765044,254.10296 L193.323472,254.10296 Z M156.865677,181.37072 C156.006332,183.27608 154.11952,187.87856 152.756769,194.2052 C153.41941,194.17976 154.077729,194.1608 154.728603,194.14976 C155.464498,192.47528 157.137555,191.30168 159.081769,191.30168 C161.392009,191.30168 163.320371,192.95744 163.746441,195.14312 C164.902162,195.56336 165.825393,196.12328 166.543755,196.84088 C167.247227,197.5436 167.247227,198.68336 166.543755,199.38632 C166.1919,199.73792 165.730764,199.9136 165.269869,199.9136 C164.808974,199.9136 164.347838,199.73768 163.995983,199.38632 C163.750044,199.14056 163.418843,198.92072 163.006703,198.72824 C162.14952,199.9796 160.710393,200.80304 159.081528,200.80304 C157.059738,200.80304 155.333122,199.53272 154.647183,197.75072 C153.80441,197.76656 152.941463,197.79728 152.072031,197.83592 C151.634913,200.53952 151.322686,203.47952 151.224454,206.59808 C160.608079,205.43816 170.092096,205.43816 179.476201,206.59808 C179.080393,194.03456 175.187162,184.36952 173.834498,181.37072 L170.99107,181.37072 L166.832926,187.3952 C166.496681,187.8824 165.942358,188.17328 165.350087,188.17328 C164.757817,188.17328 164.203253,187.8824 163.867249,187.3952 L159.709345,181.37072 L156.865677,181.37072 Z M159.081528,197.2028 C159.71631,197.2028 160.233166,196.68656 160.233166,196.052 C160.233166,195.41744 159.71655,194.9012 159.081528,194.9012 C158.446507,194.9012 157.930131,195.41744 157.930131,196.052 C157.930131,196.68656 158.446507,197.2028 159.081528,197.2028 Z M149.017489,194.38472 C149.01821,194.38448 149.01869,194.38448 149.01893,194.38424 C149.669083,191.144 150.46238,188.30792 151.228777,185.972 C141.013428,186.26576 136.60214,188.41568 136.60214,193.00112 C136.60214,193.30856 136.686921,193.4504 136.823581,193.58 C138.275917,194.9564 144.232009,194.6396 149.017489,194.38472 Z M151.198275,210.23192 C151.257598,216.93968 151.691114,243.5036 154.843166,259.39976 L156.117773,259.39976 C156.231135,257.25536 156.486201,253.24016 157.012904,247.94288 C157.110895,246.9536 157.991616,246.23168 158.983297,246.3296 C159.973297,246.428 160.696223,247.30952 160.597751,248.2988 C160.097467,253.33184 159.844563,257.24264 159.727118,259.39976 L170.971376,259.39976 C170.67476,254.01008 169.51976,237.63224 165.769913,219.75848 L164.930022,219.75848 C163.519236,226.47992 162.336616,233.63432 161.411223,241.04816 C161.288013,242.0348 160.385917,242.73368 159.400721,242.61152 C158.413362,242.4884 157.713013,241.58888 157.836223,240.60248 C158.840393,232.5584 160.144301,224.81192 161.711681,217.57736 C161.891092,216.74912 162.624345,216.15824 163.472162,216.15824 L167.228013,216.15824 C168.07583,216.15824 168.809083,216.74912 168.988493,217.57736 C173.074345,236.43704 174.284585,253.9484 174.579279,259.39952 L175.856528,259.39952 C179.008821,243.5036 179.442336,216.93968 179.501659,210.23192 C170.102664,209.02976 160.597271,209.02976 151.198275,210.23192 Z M167.871441,168.75824 C166.876638,168.75824 166.070131,167.95232 166.070131,166.95824 L166.070131,164.59256 C166.070131,163.59848 166.876397,162.79256 167.871441,162.79256 C168.866485,162.79256 169.672751,163.59848 169.672751,164.59256 L169.672751,166.95824 C169.672751,167.95232 168.866485,168.75824 167.871441,168.75824 Z M160.426507,168.75824 C159.431703,168.75824 158.625197,167.95232 158.625197,166.95824 L158.625197,164.59256 C158.625197,163.59848 159.431463,162.79256 160.426507,162.79256 C161.42155,162.79256 162.227817,163.59848 162.227817,164.59256 L162.227817,166.95824 C162.227817,167.95232 161.42155,168.75824 160.426507,168.75824 Z M150.625699,166.44512 C147.398952,166.44512 144.773843,163.82192 144.773843,160.598 C144.773843,157.37384 147.398712,154.75064 150.625459,154.75064 C150.653559,154.75064 150.681419,154.75088 150.70952,154.75112 C151.353668,151.78544 152.891507,149.07872 155.15155,146.98328 C157.921725,144.41456 161.529869,143 165.311179,143 C169.092249,143 172.700633,144.41456 175.470568,146.98328 C177.730371,149.07896 179.26821,151.78544 179.912598,154.75112 C183.183297,154.70768 185.848275,157.34576 185.848035,160.59776 C185.848035,163.82192 183.223166,166.44512 179.996419,166.44512 C179.906354,166.44512 179.816769,166.4432 179.727424,166.43912 C177.978952,172.82624 172.09107,177.43496 165.311179,177.43496 C158.531048,177.43496 152.643166,172.82648 150.894934,166.43912 C150.805349,166.4432 150.715764,166.44512 150.625699,166.44512 Z M165.311179,146.6 C160.18321,146.6 155.746463,150.09224 154.394039,154.86944 C156.659607,154.4132 158.280066,153.16856 159.499913,150.9872 C159.789083,150.47 160.314585,150.128 160.904934,150.07304 C161.496965,150.01856 162.075066,150.25688 162.455022,150.71168 C162.638996,150.92576 166.972227,155.8352 176.330153,155.26496 C175.11607,150.28664 170.57917,146.6 165.311179,146.6 Z M150.625699,158.3504 C149.385677,158.3504 148.376463,159.35864 148.376703,160.59776 C148.376703,161.83688 149.385677,162.84512 150.625699,162.84512 C150.942969,162.84512 151.253515,162.77768 151.54845,162.64448 C151.784782,162.53792 152.037686,162.48488 152.290109,162.48488 C152.591288,162.48488 152.891987,162.56024 153.162664,162.71 C153.660066,162.98528 153.998472,163.4792 154.075087,164.04224 C154.83476,169.62488 159.665393,173.83496 165.311419,173.83496 C170.957205,173.83496 175.787838,169.62488 176.547751,164.04224 C176.624607,163.4792 176.962533,162.98528 177.460175,162.71 C177.957817,162.43472 178.556332,162.41048 179.074389,162.64448 C179.369323,162.77768 179.679629,162.84512 179.9969,162.84512 C181.236921,162.84512 182.245895,161.83712 182.245895,160.59776 C182.245895,159.35864 181.236921,158.3504 179.9969,158.3504 C179.691397,158.3504 179.395022,158.4104 179.116659,158.5292 C178.969672,158.59184 178.816681,158.63168 178.662009,158.65352 C178.656004,158.65472 178.65048,158.65736 178.644236,158.65808 C177.301659,158.83376 176.033777,158.91248 174.839389,158.91248 C168.033799,158.91248 163.62083,156.35552 161.398734,154.60736 C159.209061,157.33904 156.184061,158.6732 152.212533,158.6732 C152.204367,158.6732 152.196681,158.67104 152.188755,158.67056 C151.956987,158.66744 151.725218,158.62232 151.506179,158.5292 C151.227817,158.4104 150.931201,158.3504 150.625699,158.3504 Z M219.304607,163.23968 L219.304607,163.23944 L232.689541,163.23944 C234.910917,163.23944 236.718231,165.04544 236.718231,167.26544 L236.718231,174.8912 C236.718231,175.88528 235.911965,176.6912 234.916921,176.6912 C233.921878,176.6912 233.115611,175.88528 233.115611,174.8912 L233.115611,167.26544 C233.115611,167.03048 232.924672,166.83944 232.689541,166.83944 L219.304607,166.83944 C219.069716,166.83944 218.878297,167.03048 218.878297,167.26544 L218.878297,167.77448 L221.201987,167.77448 C222.197031,167.77448 223.003297,168.5804 223.003297,169.57448 C223.003297,170.56856 222.197031,171.37448 221.201987,171.37448 L218.878297,171.37448 L218.878297,174.89144 C218.878297,175.88552 218.072031,176.69144 217.076987,176.69144 C216.081943,176.69144 215.275677,175.88552 215.275677,174.89144 L215.275677,167.26568 C215.275677,165.04568 217.082991,163.23968 219.304607,163.23968 Z M224.393428,175.02464 C225.020284,175.96568 224.898755,177.25256 224.095611,178.05344 C223.394541,178.75256 222.310153,178.95008 221.407576,178.54304 C220.497555,178.13264 219.918493,177.1568 220.004716,176.1608 C220.090218,175.17368 220.784803,174.3248 221.738777,174.05144 C222.723734,173.7692 223.829258,174.16448 224.393428,175.02464 Z M227.378799,177.2756 C226.950808,176.23232 227.315873,174.98744 228.262402,174.362 C229.11262,173.80016 230.246004,173.83544 231.057314,174.45296 C231.855655,175.0604 232.188297,176.13776 231.882074,177.09032 C231.579934,178.02992 230.701616,178.70672 229.714017,178.75328 C228.709607,178.80056 227.76548,178.20344 227.378799,177.2756 Z M226.036223,171.3404 C225.234039,171.4904 224.406878,171.08552 224.057183,170.3432 C223.359236,168.8612 224.925895,167.2736 226.415218,167.93072 C227.100917,168.23312 227.538515,168.95744 227.481354,169.70624 C227.419869,170.51 226.823275,171.17624 226.036223,171.3404 Z M232.254345,169.9268 C232.103515,170.73152 231.377948,171.34016 230.563996,171.37256 C229.78583,171.40352 229.055218,170.91416 228.793668,170.18096 C228.533319,169.45064 228.780459,168.6056 229.402991,168.14 C230.691288,167.1764 232.583144,168.32768 232.254345,169.9268 Z" id="payment-unavailable-icon"></path>
        </g>
    </g>
</svg>