<?xml version="1.0" encoding="UTF-8"?>
<svg width="122px" height="120px" viewBox="0 0 122 120" version="1.1" xmlns="http://www.w3.org/2000/svg" xmlns:xlink="http://www.w3.org/1999/xlink">
    <!-- Generator: sketchtool 52.6 (67491) - http://www.bohemiancoding.com/sketch -->
    <title>34953C33-1854-4694-8427-EBFA6AD390EE</title>
    <desc>Created with sketchtool.</desc>
    <g id="--#164773655-I-diversi-errori-degli-avvisi-di-pagamento-devono-essere-associati-ad-un-icona-grafica" stroke="none" stroke-width="1" fill="none" fill-rule="evenodd">
        <g id="#164773655-PAYMENT_UNKNOWN" transform="translate(-127.000000, -143.000000)" fill="#00C5CA" fill-rule="nonzero">
            <path d="M157.70421,181.088507 C158.505485,177.975285 159.972017,175.129137 161.941172,172.713901 C161.050008,171.400832 159.602466,170.50653 157.966666,170.398915 L154.18711,170.398915 C152.019521,170.398915 150.26232,168.642039 150.265712,166.367796 C150.41155,164.073571 149.269781,161.887715 147.303381,160.696437 C145.336978,159.505157 142.871743,159.505157 140.90534,160.696437 C138.938941,161.887715 137.797171,164.073571 137.946232,166.450755 C137.954466,167.031353 138.035936,167.612762 138.197187,168.21439 C138.493531,169.419679 138.202554,170.692565 137.405218,171.658496 C136.620689,172.596139 135.447663,173.121651 134.23356,173.082803 C134.146225,173.080442 134.0064,173.068537 133.875161,173.054566 C131.859389,173.321962 130.345129,175.055294 130.367692,177.105321 C130.391384,179.193302 131.999362,180.915983 134.074209,181.088507 L157.70421,181.088507 Z M157.11357,184.456394 L134.010329,184.456394 L133.892797,184.452286 C130.04252,184.182824 127.04426,181.003497 127.000456,177.142965 C126.957977,173.283422 129.885228,170.037024 133.72857,169.682636 L133.927055,169.664335 L134.124327,169.69289 C134.159983,169.698052 134.336094,169.716458 134.332864,169.716391 C134.520978,169.722407 134.702099,169.641266 134.815508,169.505782 C134.92813,169.369337 134.969208,169.18964 134.936134,169.053505 C134.711686,168.218156 134.591332,167.359248 134.582347,166.58148 C134.356921,163.035214 136.121521,159.656982 139.160667,157.815816 C142.199485,155.974849 146.009237,155.974849 149.048054,157.815816 C152.0872,159.656982 153.851801,163.035214 153.629766,166.474638 C153.629766,166.781768 153.879072,167.031028 154.18711,167.031028 L158.075023,167.034519 C160.595017,167.197053 162.808228,168.418113 164.292435,170.247557 C168.131375,166.800224 173.189447,164.702839 178.724707,164.702839 C190.697016,164.702839 200.436937,174.514845 200.436937,186.57576 C200.436937,197.331263 192.690702,206.298257 182.523801,208.113244 L187.451224,214.597347 L179.620907,214.597347 L178.97427,217.70775 C178.470719,220.138089 179.287397,222.688122 181.105544,224.361395 L181.234148,224.477711 C184.016216,227.037336 185.188128,230.907101 184.302791,234.585303 C184.171237,235.129597 184.104857,235.689561 184.104857,236.250201 C184.104857,238.227976 184.935615,240.126586 186.384313,241.459558 L190.163158,244.935524 L187.947534,247.380049 L184.168421,243.904082 C182.039561,241.94549 180.818701,239.155801 180.818701,236.250201 C180.818701,235.426128 180.916595,234.603136 181.109299,233.80419 C181.712085,231.301035 180.914181,228.666974 179.027508,226.930882 L178.898637,226.814296 C176.217547,224.346805 175.017875,220.601461 175.757311,217.030389 L176.263141,214.597212 L170.085088,214.597212 L174.55831,208.04286 C164.57258,206.07981 157.012477,197.201303 157.012477,186.57576 C157.012477,185.860879 157.046696,185.153898 157.11357,184.456394 Z M169.079788,254.287317 C169.079788,251.461245 166.885398,249.120921 164.173647,248.942521 L160.394091,248.942521 C158.226502,248.942521 156.469301,247.185645 156.472693,244.911402 C156.618531,242.617177 155.476762,240.431322 153.510362,239.240043 C151.543959,238.048763 149.078724,238.048763 147.112321,239.240043 C145.145921,240.431322 144.004152,242.617177 144.153213,244.994361 C144.161447,245.574959 144.242917,246.156368 144.404168,246.757996 C144.700512,247.963285 144.409535,249.236172 143.612199,250.202103 C142.82767,251.139746 141.654644,251.665257 140.440541,251.626409 C140.353206,251.624048 140.213381,251.612143 140.082142,251.598172 C138.06637,251.865568 136.55211,253.5989 136.574673,255.648928 C136.598365,257.736909 138.206343,259.459589 140.28119,259.632114 L164.115767,259.632114 C166.911539,259.425733 169.079788,257.096506 169.079788,254.287317 Z M140.21731,263 L140.099778,262.995892 C136.249501,262.726431 133.251241,259.547103 133.207437,255.686572 C133.164957,251.827028 136.092209,248.58063 139.935551,248.226243 L140.134036,248.207941 L140.331308,248.236497 C140.366964,248.241658 140.543075,248.260064 140.539845,248.259998 C140.727959,248.266014 140.90908,248.184872 141.022488,248.049388 C141.135111,247.912943 141.176189,247.733246 141.143115,247.597112 C140.918667,246.761762 140.798312,245.902854 140.789328,245.125086 C140.563902,241.578821 142.328502,238.200588 145.367648,236.359422 C148.406465,234.518455 152.216218,234.518455 155.255035,236.359422 C158.294181,238.200588 160.058782,241.578821 159.836747,245.018244 C159.836747,245.325375 160.086053,245.574635 160.394091,245.574635 L164.282004,245.578125 C168.873944,245.874295 172.447235,249.685221 172.447235,254.287317 C172.447235,258.889414 168.873944,262.700339 164.173647,263 L140.21731,263 Z M245.632554,220.182857 C245.632554,217.356784 243.438163,215.01646 240.726412,214.83806 L236.946856,214.83806 C234.779267,214.83806 233.022066,213.081185 233.025458,210.806941 C233.171296,208.512717 232.029527,206.326861 230.063127,205.135583 C228.096724,203.944303 225.631489,203.944303 223.665087,205.135583 C221.698687,206.326861 220.556917,208.512717 220.705978,210.8899 C220.714213,211.470498 220.795683,212.051908 220.956933,212.653535 C221.253277,213.858825 220.9623,215.131711 220.164964,216.097642 C219.380435,217.035285 218.207409,217.560797 216.993306,217.521948 C216.905971,217.519587 216.766146,217.507683 216.634907,217.493711 C214.619135,217.761107 213.104875,219.494439 213.127439,221.544467 C213.15113,223.632448 214.759108,225.355129 216.833955,225.527653 L240.668532,225.527653 C243.464305,225.321272 245.632554,222.992045 245.632554,220.182857 Z M216.770075,228.895539 L216.652543,228.891432 C212.802266,228.62197 209.804006,225.442643 209.760203,221.582111 C209.717723,217.722567 212.644975,214.476169 216.488316,214.121782 L216.686802,214.10348 L216.884073,214.132036 C216.91973,214.137197 217.09584,214.155604 217.09261,214.155537 C217.280724,214.161553 217.461845,214.080411 217.575254,213.944927 C217.687877,213.808482 217.728954,213.628786 217.69588,213.492651 C217.471432,212.657301 217.351078,211.798394 217.342094,211.020625 C217.116667,207.47436 218.881268,204.096127 221.920413,202.254961 C224.959231,200.413995 228.768983,200.413995 231.8078,202.254961 C234.846946,204.096127 236.611547,207.47436 236.389512,210.913783 C236.389512,211.220914 236.638818,211.470174 236.946856,211.470174 L240.83477,211.473665 C245.426709,211.769835 249,215.58076 249,220.182857 C249,224.784954 245.426709,228.595879 240.726412,228.895539 L216.770075,228.895539 Z M176.332338,211.286735 L180.796172,211.286735 L178.4907,208.447466 L176.332338,211.286735 Z M178.724707,205.138206 C188.884903,205.138206 197.150782,196.811151 197.150782,186.57576 C197.150782,176.340369 188.884903,168.013315 178.724707,168.013315 C168.564512,168.013315 160.298633,176.340369 160.298633,186.57576 C160.298633,196.811151 168.564512,205.138206 178.724707,205.138206 Z M178.607368,170.377999 C187.537988,170.377999 194.80347,177.697253 194.803604,186.694103 C194.803604,187.608283 194.067924,188.349409 193.160459,188.349409 C192.252995,188.349409 191.517314,187.608283 191.517314,186.694103 C191.517314,179.522912 185.725875,173.688611 178.607368,173.688611 C177.699904,173.688611 176.964224,172.947486 176.964224,172.033305 C176.964224,171.119124 177.699904,170.377999 178.607368,170.377999 Z M218.09702,172.623884 L218.106164,172.587647 C218.105912,172.561847 218.099344,172.538845 218.091364,172.510903 C218.091287,172.5932 218.095789,172.611446 218.09702,172.623884 Z M218.106164,172.587647 C218.107336,172.707777 217.971567,172.888586 217.203652,173.911251 L216.049484,173.98116 L215.594535,173.739965 L215.44023,173.604541 L215.344598,173.499487 C215.309102,173.455554 215.309102,173.455554 215.258164,173.384947 C215.099502,173.102846 215.099502,173.102846 215.083857,173.048746 C215.058171,172.97585 215.058171,172.97585 215.049457,172.94742 C215.034393,172.898042 215.034393,172.898042 215.019023,172.846385 C214.984465,172.730475 214.958456,172.644983 214.923331,172.533563 C214.812091,172.180706 214.681385,171.801247 214.523834,171.387675 C214.064869,170.182891 213.492371,168.987285 212.79718,167.880073 C210.912218,164.877944 208.547545,163.152636 205.621759,163.152636 C204.764754,163.152636 204.070014,162.458586 204.070014,161.602433 C204.070014,160.74628 204.764754,160.05223 205.621759,160.05223 C209.791456,160.05223 213.028837,162.414281 215.426272,166.232612 C215.801068,166.82954 216.142943,167.443345 216.454187,168.067008 C216.753772,167.426401 217.086569,166.790043 217.440184,166.209274 C219.756893,162.40437 223.068642,160.05223 227.457688,160.05223 C228.314693,160.05223 229.009433,160.74628 229.009433,161.602433 C229.009433,162.458586 228.314693,163.152636 227.457688,163.152636 C224.297212,163.152636 221.894989,164.858793 220.091683,167.820496 C219.430696,168.906086 218.902499,170.083793 218.502334,171.258473 C218.360326,171.675336 218.244788,172.062594 218.156901,172.399877 C218.132555,172.493308 218.111786,172.577488 218.095285,172.648379 C218.097473,172.631293 218.097416,172.627889 218.09702,172.623884 L218.106164,172.587647 Z M214.979057,172.341587 C214.960428,172.412637 214.971,172.449359 214.987875,172.50798 C214.987944,172.43543 214.995025,172.348166 215.00872,172.247838 L214.979057,172.341587 Z M220.236639,261.502175 L220.245783,261.465939 C220.245532,261.440138 220.238963,261.417136 220.230984,261.389195 C220.230906,261.471491 220.235408,261.489737 220.236639,261.502175 Z M220.245783,261.465939 C220.246955,261.586068 220.111186,261.766878 219.343272,262.789542 L218.189103,262.859451 L217.734155,262.618256 L217.579849,262.482833 L217.484217,262.377779 C217.448722,262.333845 217.448722,262.333845 217.397783,262.263238 C217.239121,261.981137 217.239121,261.981137 217.223476,261.927037 C217.197791,261.854141 217.197791,261.854141 217.189076,261.825711 C217.174012,261.776333 217.174012,261.776333 217.158642,261.724676 C217.124085,261.608766 217.098076,261.523274 217.06295,261.411854 C216.95171,261.058997 216.821005,260.679538 216.663454,260.265967 C216.204488,259.061183 215.63199,257.865576 214.936799,256.758364 C213.051837,253.756235 210.687164,252.030927 207.761378,252.030927 C206.904373,252.030927 206.209633,251.336878 206.209633,250.480724 C206.209633,249.624571 206.904373,248.930522 207.761378,248.930522 C211.931075,248.930522 215.168456,251.292573 217.565891,255.110904 C217.940687,255.707831 218.282562,256.321636 218.593806,256.9453 C218.893391,256.304693 219.226188,255.668335 219.579803,255.087566 C221.896512,251.282662 225.208261,248.930522 229.597307,248.930522 C230.454312,248.930522 231.149052,249.624571 231.149052,250.480724 C231.149052,251.336878 230.454312,252.030927 229.597307,252.030927 C226.436831,252.030927 224.034608,253.737085 222.231303,256.698788 C221.570315,257.784377 221.042118,258.962084 220.641953,260.136765 C220.499945,260.553628 220.384407,260.940886 220.29652,261.278168 C220.265281,261.398056 220.23993,261.502709 220.221929,261.583603 C220.235753,261.521484 220.237892,261.514841 220.236639,261.502175 L220.245783,261.465939 Z M217.118676,261.219879 C217.100047,261.290929 217.110619,261.327651 217.127495,261.386271 C217.127563,261.313721 217.134644,261.226458 217.148339,261.126129 L217.118676,261.219879 Z M142.578751,225.330778 L142.587896,225.294541 C142.587644,225.26874 142.581075,225.245739 142.573096,225.217797 C142.573018,225.300093 142.577521,225.31834 142.578751,225.330778 Z M142.587896,225.294541 C142.589067,225.41467 142.453298,225.59548 141.685384,226.618145 L140.531215,226.688053 L140.076267,226.446858 L139.921961,226.311435 L139.826329,226.206381 C139.790834,226.162448 139.790834,226.162448 139.739895,226.091841 C139.581233,225.809739 139.581233,225.809739 139.565588,225.755639 C139.539903,225.682744 139.539903,225.682744 139.531188,225.654314 C139.516124,225.604935 139.516124,225.604935 139.500754,225.553279 C139.466197,225.437368 139.440188,225.351877 139.405062,225.240456 C139.293823,224.887599 139.163117,224.50814 139.005566,224.094569 C138.5466,222.889785 137.974102,221.694178 137.278912,220.586967 C135.393949,217.584837 133.029276,215.85953 130.10349,215.85953 C129.246485,215.85953 128.551745,215.16548 128.551745,214.309327 C128.551745,213.453173 129.246485,212.759124 130.10349,212.759124 C134.273187,212.759124 137.510568,215.121175 139.908003,218.939506 C140.282799,219.536434 140.624674,220.150239 140.935919,220.773902 C141.235504,220.133295 141.5683,219.496937 141.921916,218.916168 C144.238625,215.111264 147.550374,212.759124 151.939419,212.759124 C152.796424,212.759124 153.491165,213.453173 153.491165,214.309327 C153.491165,215.16548 152.796424,215.85953 151.939419,215.85953 C148.778943,215.85953 146.37672,217.565687 144.573415,220.52739 C143.912427,221.612979 143.38423,222.790687 142.984066,223.965367 C142.842058,224.38223 142.72652,224.769488 142.638633,225.106771 C142.607393,225.226658 142.582043,225.331312 142.564042,225.412206 C142.577865,225.350086 142.580004,225.343443 142.578751,225.330778 L142.587896,225.294541 Z M139.460788,225.048481 C139.44216,225.119531 139.452731,225.156253 139.469607,225.214873 C139.469675,225.142324 139.476756,225.05506 139.490451,224.954732 L139.460788,225.048481 Z M192.751847,155.571653 L192.760992,155.535417 C192.76074,155.509616 192.754172,155.486615 192.746192,155.458673 C192.746115,155.540969 192.750617,155.559215 192.751847,155.571653 Z M192.760992,155.535417 C192.762163,155.655546 192.626394,155.836356 191.85848,156.859021 L190.704312,156.928929 L190.249363,156.687734 L190.095057,156.552311 L189.999425,156.447257 C189.96393,156.403324 189.96393,156.403324 189.912991,156.332717 C189.75433,156.050615 189.75433,156.050615 189.738685,155.996515 C189.712999,155.92362 189.712999,155.92362 189.704284,155.89519 C189.689221,155.845811 189.689221,155.845811 189.67385,155.794154 C189.639293,155.678244 189.613284,155.592752 189.578159,155.481332 C189.466919,155.128475 189.336213,154.749016 189.178662,154.335445 C188.719697,153.130661 188.147198,151.935054 187.452008,150.827843 C185.567046,147.825713 183.202372,146.100406 180.276587,146.100406 C179.419581,146.100406 178.724841,145.406356 178.724841,144.550203 C178.724841,143.694049 179.419581,143 180.276587,143 C184.446283,143 187.683665,145.362051 190.081099,149.180382 C190.455895,149.777309 190.797771,150.391115 191.109015,151.014778 C191.4086,150.374171 191.741397,149.737813 192.095012,149.157044 C194.411721,145.35214 197.72347,143 202.112515,143 C202.969521,143 203.664261,143.694049 203.664261,144.550203 C203.664261,145.406356 202.969521,146.100406 202.112515,146.100406 C198.952039,146.100406 196.549816,147.806563 194.746511,150.768266 C194.085524,151.853855 193.557326,153.031563 193.157162,154.206243 C193.015154,154.623106 192.899616,155.010364 192.811729,155.347647 C192.780489,155.467534 192.755139,155.572188 192.737138,155.653082 C192.750961,155.590962 192.753101,155.584319 192.751847,155.571653 L192.760992,155.535417 Z M189.633885,155.289357 C189.615256,155.360407 189.625827,155.397129 189.642703,155.455749 C189.642772,155.3832 189.649852,155.295936 189.663547,155.195608 L189.633885,155.289357 Z" id="payment-unknown-icon-"></path>
        </g>
    </g>
</svg>