<?xml version="1.0" encoding="UTF-8"?>
<svg width="120px" height="120px" viewBox="0 0 120 120" version="1.1" xmlns="http://www.w3.org/2000/svg" xmlns:xlink="http://www.w3.org/1999/xlink">
    <!-- Generator: sketchtool 54.1 (76490) - https://sketchapp.com -->
    <title>B72CED6E-F033-4114-9030-C2BB7AAEB8F9</title>
    <desc>Created with sketchtool.</desc>
    <g id="#164773655-I-diversi-errori-degli-avvisi-di-pagamento-devono-essere-associati-ad-un-icona-grafica" stroke="none" stroke-width="1" fill="none" fill-rule="evenodd">
        <g id="#164773655-PAYMENT_ONGOING" transform="translate(-128.000000, -143.000000)" fill="#00C5CA" fill-rule="nonzero">
            <path d="M235.775518,228.653343 C242.386745,228.660151 247.744723,234.007013 247.75057,240.603551 C247.75057,241.70346 246.856924,242.595252 245.754728,242.595252 L244.392332,242.595252 C246.86667,247.768035 245.916501,253.92597 241.996932,258.115545 C238.077364,262.306092 231.987512,263.675387 226.6461,261.566984 C221.304689,259.458582 217.800271,254.302332 217.81294,248.570356 L213.245308,248.570356 C211.383951,253.370667 206.758822,256.535216 201.601597,256.53716 L180.137525,256.53716 C174.9803,256.535216 170.35517,253.370667 168.493814,248.570356 L165.921048,248.570356 C165.921048,256.270693 159.666501,262.512264 151.950154,262.512264 C144.234783,262.512264 137.979261,256.270693 137.979261,248.570356 L129.995893,248.570356 C128.893697,248.570356 128.000051,247.678564 128.000051,246.578654 L128.000051,241.830859 C127.993229,238.827747 128.676376,235.863535 129.995893,233.164819 L129.995893,222.678239 C129.995893,221.57833 130.889539,220.686538 131.991735,220.686538 L141.970945,220.686538 L141.970945,216.21299 L131.098089,213.118462 C129.266942,212.589417 128.004923,210.917671 128.000051,209.015441 C128.005898,208.550581 128.088733,208.088639 128.245633,207.651009 C128.090682,207.373844 128.006872,207.06264 128.000051,206.744629 L128.000051,186.827617 C128.000051,183.527889 130.680989,180.852513 133.987577,180.852513 L153.945996,180.852513 C154.628169,180.859321 155.30352,180.983802 155.941838,181.21915 L155.941838,160.935501 L155.566644,160.935501 C154.810407,160.936473 154.06489,161.112498 153.38759,161.449959 C152.161628,162.064585 150.809952,162.385514 149.437811,162.387459 C148.482769,162.386486 147.533574,162.231857 146.62726,161.929406 L143.336264,160.83436 C142.521555,160.563029 141.970945,159.801554 141.970945,158.9438 L141.970945,146.993592 C141.970945,146.35368 142.279871,145.752669 142.800271,145.378252 C143.319697,145.003836 143.989201,144.901722 144.598283,145.104005 L147.889279,146.199051 C149.112317,146.611396 150.450349,146.51609 151.603221,145.936473 C152.83503,145.323792 154.191579,145.003836 155.566644,145.001891 L159.933522,145.001891 L159.933522,212.719733 L163.925206,212.719733 L163.925206,210.728032 C163.929105,208.67409 164.993294,206.766997 166.739656,205.681676 C164.937746,203.832933 163.92813,201.356922 163.925206,198.777824 L163.925206,152.968696 C163.920334,147.852319 167.800921,143.565493 172.901623,143.051035 C178.003299,142.536577 182.664487,145.963704 183.684822,150.976995 L189.871152,150.976995 L189.871152,154.960397 L184.283185,154.960397 L187.540071,159.830729 C187.949375,160.441466 187.987382,161.227254 187.639474,161.874946 C187.29254,162.52361 186.616215,162.927202 185.879468,162.927202 L183.883626,162.927202 L183.883626,180.852513 L203.842046,180.852513 C207.149609,180.852513 209.829572,183.527889 209.829572,186.827617 L210.196971,186.827617 C211.039942,184.448857 213.289162,182.854912 215.817098,182.844214 L225.796308,182.844214 C226.488226,182.844214 227.131418,183.201126 227.494918,183.788522 C227.859393,184.375918 227.892527,185.109191 227.582626,185.726735 L223.590942,193.69354 C223.291761,194.278019 222.721659,194.676748 222.068723,194.756494 L224.920204,217.276917 C225.332431,219.593437 227.07392,221.450931 229.363096,222.013042 L232.269151,222.738535 C233.15695,222.960267 233.779676,223.756754 233.779676,224.669941 L233.779676,228.653343 L235.775518,228.653343 Z M243.507457,238.611849 C242.592371,235.097197 239.415396,232.642581 235.775518,232.636746 L227.79215,232.636746 C222.284094,232.643553 217.819762,237.098623 217.81294,242.595252 L217.81294,244.586953 L218.810861,244.586953 C219.005768,244.583063 219.1997,244.567503 219.391683,244.541245 L219.842891,244.497482 C222.285069,244.31854 224.62687,243.452034 226.595425,241.998131 C229.535588,239.807065 233.104326,238.620602 236.773439,238.611849 L243.507457,238.611849 Z M233.779676,248.570356 C233.779676,247.470446 232.88603,246.578654 231.783834,246.578654 C230.681638,246.578654 229.787992,247.470446 229.787992,248.570356 C229.787992,249.670265 230.681638,250.562057 231.783834,250.562057 C232.88603,250.562057 233.779676,249.670265 233.779676,248.570356 Z M222.567683,186.827617 L215.817098,186.827617 C215.463343,186.837342 215.118359,186.943346 214.819177,187.13493 C215.435082,187.473364 215.817098,188.118138 215.817098,188.819318 C215.817098,189.520498 215.435082,190.166245 214.819177,190.504679 C215.118359,190.696263 215.463343,190.802267 215.817098,190.811019 L220.571841,190.811019 L222.567683,186.827617 Z M210.193073,190.811019 L208.273244,190.811019 C207.146685,192.073338 205.535784,192.797858 203.842046,192.802721 L183.883626,192.802721 L183.883626,196.786123 L198.187811,196.786123 C201.097764,196.787096 203.820607,198.219604 205.466592,200.613924 C207.112577,203.009217 207.47023,206.05901 206.422608,208.768424 L198.591267,229.084165 C201.757522,229.995408 204.265968,232.410151 205.293125,235.534827 L211.769866,224.226476 L209.829572,202.941141 C209.664876,199.675452 210.866475,196.488535 213.14688,194.141868 C211.769866,193.452358 210.711524,192.259088 210.193073,190.811019 Z M182.885705,236.620148 L184.321192,236.620148 L185.93989,230.161707 C185.943788,230.141284 185.945737,230.137394 185.963278,230.107246 C185.981794,230.078071 185.981794,230.045978 185.981794,230.01583 L193.096854,208.736331 L189.504728,208.736331 C189.740565,209.374297 189.865305,210.048247 189.871152,210.728032 L189.871152,214.711434 C189.871152,221.013302 185.955482,222.678239 183.883626,222.678239 L182.885705,222.678239 C179.028507,222.678239 175.900258,225.799998 175.900258,229.649194 C175.900258,233.499362 179.028507,236.620148 182.885705,236.620148 Z M179.891942,196.786123 L179.891942,192.802721 L176.583405,192.802721 C172.919164,192.803693 169.725622,190.315039 168.837824,186.768294 L167.91689,183.6407 L167.91689,196.786123 L179.891942,196.786123 Z M181.887784,200.769526 L168.258951,200.769525 C169.107769,203.155094 171.367709,204.750011 173.904416,204.752928 L195.858678,204.752928 C196.500895,204.752928 197.103156,205.060242 197.478351,205.579562 C197.853546,206.098882 197.955872,206.766997 197.753169,207.373844 L190.643957,228.653343 L194.487512,228.653343 L202.706716,207.342723 C203.282665,205.855755 203.087759,204.181092 202.184367,202.867231 C201.280001,201.553369 199.785069,200.768553 198.187811,200.769526 L181.887784,200.769526 Z M189.434562,232.636746 L188.436641,236.620148 L201.505118,236.620148 C200.656301,234.23458 198.395386,232.639663 195.858678,232.636746 L189.434562,232.636746 Z M205.837888,186.827617 C205.837888,185.727708 204.944242,184.835916 203.842046,184.835916 L201.846204,184.835916 L201.846204,188.819318 L203.842046,188.819318 C204.944242,188.819318 205.837888,187.927526 205.837888,186.827617 Z M197.85452,188.819318 L197.85452,184.835916 L179.891942,184.835916 C179.009016,184.836888 178.23134,184.258245 177.977961,183.414106 L174.902337,173.130781 C174.609978,171.829562 173.456132,170.90276 172.121023,170.894007 C171.244918,170.89498 170.41754,171.297599 169.878624,171.986136 C169.340682,172.675646 169.149674,173.573273 169.362122,174.421302 L172.689175,185.72479 C173.113096,187.531715 174.723998,188.812511 176.583405,188.819318 L197.85452,188.819318 Z M179.891942,175.87326 L179.891942,170.894007 L178.331716,170.894007 C178.508107,171.272314 178.649414,171.66618 178.754664,172.069772 L179.891942,175.87326 Z M180.227182,156.058361 L180.227182,156.066141 C180.009861,155.738405 179.892917,155.354264 179.891942,154.960397 L167.91689,154.960397 L167.91689,166.910604 L179.891942,166.910604 L179.891942,160.935501 C179.891942,159.835592 180.785588,158.9438 181.887784,158.9438 L182.149934,158.9438 L180.227182,156.058361 Z M173.904416,146.993592 C171.37648,147.00429 169.12726,148.598234 168.284289,150.976995 L179.525518,150.976995 C178.682548,148.598234 176.433328,147.00429 173.904416,146.993592 Z M167.91689,210.728032 L167.91689,212.719733 L185.879468,212.719733 L185.879468,210.728032 C185.879468,209.628123 184.985822,208.736331 183.883626,208.736331 L169.912732,208.736331 C168.810536,208.736331 167.91689,209.628123 167.91689,210.728032 Z M131.991735,204.752928 L155.941838,204.752928 L155.941838,192.802721 L131.991735,192.802721 L131.991735,204.752928 Z M155.566644,156.952098 L155.941838,156.952098 L155.941838,148.985293 L155.566644,148.985293 C154.810407,148.986266 154.06489,149.16229 153.38759,149.499751 C151.288447,150.552008 148.85504,150.725115 146.62726,149.979199 L145.962629,149.758439 L145.962629,157.508374 L147.889279,158.149259 C149.112317,158.559658 150.449375,158.464352 151.603221,157.886681 C152.83503,157.273999 154.191579,156.954043 155.566644,156.952098 Z M133.987577,184.835916 C132.885381,184.835916 131.991735,185.727708 131.991735,186.827617 L131.991735,188.819318 L155.941838,188.819318 L155.941838,186.827617 C155.941838,185.727708 155.048192,184.835916 153.945996,184.835916 L133.987577,184.835916 Z M131.991735,209.015441 C131.991735,209.13895 132.073595,209.248844 132.191514,209.283854 L144.246477,212.719733 L155.941838,212.719733 L155.941838,208.736331 L132.271425,208.736331 C132.117449,208.736331 131.991735,208.861785 131.991735,209.015441 Z M133.987577,224.669941 L133.987577,227.434788 C134.924102,226.442827 135.929819,225.518942 136.997907,224.669941 L133.987577,224.669941 Z M151.950154,258.528862 C157.459185,258.523027 161.923517,254.067957 161.929364,248.570356 L157.93768,248.570356 C157.93768,251.871056 155.257717,254.545459 151.950154,254.545459 C148.643567,254.545459 145.962629,251.871056 145.962629,248.570356 L141.970945,248.570356 C141.977766,254.067957 146.442098,258.523027 151.950154,258.528862 Z M153.945996,248.570356 L149.954312,248.570356 C149.954312,249.670265 150.847958,250.562057 151.950154,250.562057 C153.05235,250.562057 153.945996,249.670265 153.945996,248.570356 Z M201.601597,252.553758 C204.537863,252.555703 207.268502,251.05123 208.831651,248.570356 L172.906495,248.570356 C174.47062,251.05123 177.201259,252.555703 180.137525,252.553758 L201.601597,252.553758 Z M213.821256,242.595252 C213.830027,234.898805 220.080677,228.662096 227.79215,228.653343 L229.787992,228.653343 L229.787992,226.225957 L228.391488,225.876826 C224.539162,224.914041 221.62531,221.76408 220.972374,217.854588 L218.136485,195.474207 C215.268437,196.714158 213.525973,199.656001 213.821256,202.761227 L215.817098,224.490999 C215.854131,224.900426 215.76155,225.310825 215.553975,225.665791 L208.720555,237.592658 C207.81424,239.145758 206.252065,240.205794 204.471594,240.476152 C204.269866,240.55298 204.057418,240.596743 203.842046,240.603551 L182.885705,240.603551 C176.823141,240.603551 171.908574,235.699181 171.908574,229.649194 C171.908574,223.599207 176.823141,218.694837 182.885705,218.694837 L183.883626,218.694837 C184.10582,218.679277 185.185601,218.495472 185.65825,216.703136 L145.962629,216.703136 L145.962629,220.686538 L165.921048,220.686538 L165.921048,224.669941 L144.414097,224.669941 C142.452364,225.622028 131.991735,231.192568 131.991735,241.830859 L131.991735,244.586953 L213.821256,244.586953 L213.821256,242.595252 Z M241.763044,248.570356 C241.76207,246.413328 241.055534,244.315623 239.75161,242.595252 L236.773439,242.595252 C235.781366,242.60984 234.795139,242.738211 233.832301,242.978421 C236.68963,244.01609 238.3132,247.026009 237.608614,249.977578 C236.904027,252.929147 234.093476,254.885838 231.074375,254.526009 C228.055274,254.16618 225.785588,251.604588 225.796308,248.570356 C225.80313,248.0063 225.890838,247.445161 226.056509,246.905418 C225.756353,247.053239 225.463018,247.184528 225.15799,247.304147 C224.90851,247.403343 224.655131,247.488924 224.399804,247.57645 C223.944697,247.725244 223.482769,247.858478 223.014993,247.975179 C222.754793,248.038393 222.497517,248.104523 222.234393,248.158011 C222.088213,248.186214 221.950804,248.231922 221.804624,248.25818 C221.804624,248.370991 221.804624,248.46727 221.804624,248.570356 C221.804624,254.070874 226.272855,258.528862 231.783834,258.528862 C237.295789,258.528862 241.763044,254.070874 241.763044,248.570356 Z M153.945996,228.653343 L165.921048,228.653343 L165.921048,232.636746 L153.945996,232.636746 L153.945996,228.653343 Z M153.945996,236.620148 L165.921048,236.620148 L165.921048,240.603551 L153.945996,240.603551 L153.945996,236.620148 Z" id="payment-ongoing-icon"></path>
        </g>
    </g>
</svg>