<?xml version="1.0" encoding="UTF-8"?>
<svg width="24px" height="17px" viewBox="0 0 24 17" version="1.1" xmlns="http://www.w3.org/2000/svg" xmlns:xlink="http://www.w3.org/1999/xlink">
    <!-- Generator: sketchtool 49.3 (51167) - http://www.bohemiancoding.com/sketch -->
    <title>4F54FDFE-02D1-4AED-99A6-EB1CEACC461D</title>
    <desc>Created with sketchtool.</desc>
    <defs></defs>
    <g id="v1.1-16092018" stroke="none" stroke-width="1" fill="none" fill-rule="evenodd">
        <g id="2.4.2---dati-carta" transform="translate(-28.000000, -208.000000)" fill="#5A6772">
            <path d="M28,211.000126 C28,209.343202 29.3417706,208 30.9910904,208 L49.0089096,208 C50.6608432,208 52,209.333961 52,211.000126 L52,221.999874 C52,223.656798 50.6582294,225 49.0089096,225 L30.9910904,225 C29.3391568,225 28,223.666039 28,221.999874 L28,211.000126 Z M29,211.000126 L29,221.999874 C29,223.110761 29.8884514,224 30.9910904,224 L49.0089096,224 C50.1063065,224 51,223.104147 51,221.999874 L51,211.000126 C51,209.889239 50.1115486,209 49.0089096,209 L30.9910904,209 C29.8936935,209 29,209.895853 29,211.000126 Z M32,217 L37,217 L37,218 L32,218 L32,217 Z M29,212 L51,212 L51,215 L29,215 L29,212 Z" id="Combined-Shape"></path>
        </g>
    </g>
</svg>