<?xml version="1.0" encoding="UTF-8"?>
<svg width="16px" height="19px" viewBox="0 0 16 19" version="1.1" xmlns="http://www.w3.org/2000/svg" xmlns:xlink="http://www.w3.org/1999/xlink">
    <!-- Generator: sketchtool 49.3 (51167) - http://www.bohemiancoding.com/sketch -->
    <title>4A4C82BF-265D-4902-8E3B-8B86550D726A</title>
    <desc>Created with sketchtool.</desc>
    <defs></defs>
    <g id="v1.1-16092018" stroke="none" stroke-width="1" fill="none" fill-rule="evenodd">
        <g id="2.4.2---dati-carta" transform="translate(-204.000000, -295.000000)" fill="#5A6772">
            <path d="M213,307.732436 L213,310 C213,310.552285 212.552285,311 212,311 C211.447715,311 211,310.552285 211,310 L211,307.732436 C210.402199,307.386626 210,306.740282 210,306 C210,304.895431 210.895431,304 212,304 C213.104569,304 214,304.895431 214,306 C214,306.740282 213.597801,307.386626 213,307.732436 Z M216,301 L216,299.992026 C216,297.787902 214.209343,296 212,296 C209.794009,296 208,297.789759 208,299.992026 L208,301 L216,301 Z M207,301 L207,299.992026 C207,297.235006 209.244195,295 212,295 C214.761424,295 217,297.235413 217,299.992026 L217,301 L218.00594,301 C219.107229,301 220,301.893543 220,303.00276 L220,311.99724 C220,313.103334 219.105486,314 218.00594,314 L205.99406,314 C204.892771,314 204,313.106457 204,311.99724 L204,303.00276 C204,301.896666 204.894514,301 205.99406,301 L207,301 Z M205,303.00276 L205,311.99724 C205,312.553826 205.444715,313 205.99406,313 L218.00594,313 C218.552962,313 219,312.551283 219,311.99724 L219,303.00276 C219,302.446174 218.555285,302 218.00594,302 L205.99406,302 C205.447038,302 205,302.448717 205,303.00276 Z" id="locker"></path>
        </g>
    </g>
</svg>