<svg xmlns="http://www.w3.org/2000/svg" fill="none" viewBox="0 0 24 24">
  <path fill="#BBC2D6" fill-rule="evenodd" d="M1 0C0.447715 0 0 0.447715 0 1C0 1.55228 0.447715 2 1 2H4C4.55228 2 5 1.55228 5 1C5 0.447715 4.55228 0 4 0H1ZM14 1C14 0.447715 14.4477 0 15 0H18C18.5523 0 19 0.447715 19 1C19 1.55228 18.5523 2 18 2H15C14.4477 2 14 1.55228 14 1ZM9.5 3C8.11929 3 7 4.11929 7 5.5V12.08C6.60172 11.9559 6.18919 11.9077 5.79201 11.9408C5.22346 11.9882 4.63715 12.2081 4.18839 12.6708C3.73043 13.143 3.5 13.7814 3.5 14.4997C3.5 16.0196 4.51975 16.7964 5.28632 17.3804L5.33786 17.4197L5.37781 17.4502C6.14711 18.0368 6.9446 18.6449 7.58633 19.8088C8.66852 22.2764 11.133 24 14 24C17.866 24 21 20.866 21 17V12.5C21 11.1193 19.8807 10 18.5 10C18.1874 10 17.8882 10.0574 17.6123 10.1622C17.169 9.46363 16.3886 9 15.5 9C15.1874 9 14.8882 9.05738 14.6123 9.16218C14.169 8.46363 13.3886 8 12.5 8C12.3288 8 12.1616 8.01721 12 8.05001V5.5C12 4.11929 10.8807 3 9.5 3ZM9.50985 19.2022C9.4926 19.1471 9.47033 19.0928 9.44283 19.0397C9.4254 19.0061 9.40785 18.9728 9.3902 18.9398C9.13891 18.3433 9 17.6879 9 17V14.0137C9.00014 14.0039 9.00014 13.9942 9 13.9845V5.5C9 5.22386 9.22386 5 9.5 5C9.77614 5 10 5.22386 10 5.5V10.5V14C10 14.5523 10.4477 15 11 15C11.5523 15 12 14.5523 12 14V10.5C12 10.2239 12.2239 10 12.5 10C12.7761 10 13 10.2239 13 10.5V11.5V14C13 14.5523 13.4477 15 14 15C14.5523 15 15 14.5523 15 14V11.5C15 11.2239 15.2239 11 15.5 11C15.7761 11 16 11.2239 16 11.5V12.5V14C16 14.5523 16.4477 15 17 15C17.5523 15 18 14.5523 18 14V12.5C18 12.2239 18.2239 12 18.5 12C18.7761 12 19 12.2239 19 12.5V17C19 19.7614 16.7614 22 14 22C12.0289 22 10.3242 20.8594 9.50985 19.2022ZM7 14.3495V16.1747C6.86978 16.0725 6.74438 15.9769 6.62558 15.8865L6.55089 15.8295C5.68366 15.168 5.5 14.9452 5.5 14.4997C5.5 14.2181 5.58207 14.1065 5.62411 14.0632C5.67535 14.0103 5.77654 13.949 5.95799 13.9339C6.28354 13.9068 6.69917 14.0471 7 14.3495ZM16.7071 5.29304L14.7071 3.29304C14.3166 2.90252 13.6834 2.90252 13.2929 3.29304C12.9024 3.68357 12.9024 4.31673 13.2929 4.70726L15.2929 6.70726C15.6834 7.09778 16.3166 7.09778 16.7071 6.70726C17.0976 6.31673 17.0976 5.68357 16.7071 5.29304ZM5.70696 3.29289C6.09748 3.68342 6.09748 4.31658 5.70696 4.70711L3.70696 6.70711C3.31643 7.09763 2.68327 7.09763 2.29274 6.70711C1.90222 6.31658 1.90222 5.68342 2.29274 5.29289L4.29274 3.29289C4.68327 2.90237 5.31643 2.90237 5.70696 3.29289Z" clip-rule="evenodd"/>
</svg>
