<svg xmlns="http://www.w3.org/2000/svg" fill="none" viewBox="0 0 24 24">
  <path fill="#2B2E38" fill-rule="evenodd" d="M17.7071 0.292893C17.3166 -0.0976311 16.6834 -0.0976311 16.2929 0.292893C15.9024 0.683417 15.9024 1.31658 16.2929 1.70711L20.5858 6H13C10.2387 6 8 8.2382 8 10.9997V15C8 15.5523 8.44771 16 9 16C9.55229 16 10 15.5523 10 15V10.9997C10 9.34295 11.3431 8 13 8H20.5858L16.2929 12.2929C15.9024 12.6834 15.9024 13.3166 16.2929 13.7071C16.6834 14.0976 17.3166 14.0976 17.7071 13.7071L23 8.41421C23.781 7.63317 23.781 6.36684 23 5.58579L17.7071 0.292893ZM5 2C3.34315 2 2 3.34315 2 5V19C2 20.6569 3.34315 22 5 22H19C20.6569 22 22 20.6569 22 19V15C22 14.4477 22.4477 14 23 14C23.5523 14 24 14.4477 24 15V19C24 21.7614 21.7614 24 19 24H5C2.23858 24 0 21.7614 0 19V5C0 2.23858 2.23858 1.86265e-08 5 1.86265e-08H9C9.55229 1.86265e-08 10 0.447715 10 1C10 1.55228 9.55229 2 9 2H5Z" clip-rule="evenodd"/>
</svg>
