<svg xmlns="http://www.w3.org/2000/svg" fill="none" viewBox="0 0 24 24">
  <path fill="#BBC2D6" fill-rule="evenodd" d="M0 5C0 3.34315 1.34315 2 3 2H21C22.6569 2 24 3.34315 24 5V13C24 14.6569 22.6569 16 21 16H3C1.34314 16 0 14.6569 0 13V5ZM3 4C2.44772 4 2 4.44772 2 5V13C2 13.5523 2.44772 14 3 14H21C21.5523 14 22 13.5523 22 13V5C22 4.44771 21.5523 4 21 4H3ZM7.29289 19.7071C6.90237 19.3166 6.90237 18.6834 7.29289 18.2929C7.68342 17.9024 8.31658 17.9024 8.70711 18.2929L12 21.5858L15.2929 18.2929C15.6834 17.9024 16.3166 17.9024 16.7071 18.2929C17.0976 18.6834 17.0976 19.3166 16.7071 19.7071L12.7071 23.7071C12.3166 24.0976 11.6834 24.0976 11.2929 23.7071L7.29289 19.7071ZM9 10C8.44771 10 8 10.4477 8 11C8 11.5523 8.44771 12 9 12H15C15.5523 12 16 11.5523 16 11C16 10.4477 15.5523 10 15 10H9ZM6 7C6 7.55228 5.55228 8 5 8C4.44772 8 4 7.55228 4 7C4 6.44772 4.44772 6 5 6C5.55228 6 6 6.44772 6 7ZM5 12C5.55228 12 6 11.5523 6 11C6 10.4477 5.55228 10 5 10C4.44772 10 4 10.4477 4 11C4 11.5523 4.44772 12 5 12ZM10 7C10 7.55228 9.55229 8 9 8C8.44771 8 8 7.55228 8 7C8 6.44772 8.44771 6 9 6C9.55229 6 10 6.44772 10 7ZM15 8C15.5523 8 16 7.55228 16 7C16 6.44772 15.5523 6 15 6C14.4477 6 14 6.44772 14 7C14 7.55228 14.4477 8 15 8ZM20 7C20 7.55228 19.5523 8 19 8C18.4477 8 18 7.55228 18 7C18 6.44772 18.4477 6 19 6C19.5523 6 20 6.44772 20 7ZM19 12C19.5523 12 20 11.5523 20 11C20 10.4477 19.5523 10 19 10C18.4477 10 18 10.4477 18 11C18 11.5523 18.4477 12 19 12Z" clip-rule="evenodd"/>
</svg>
