<?xml version="1.0" encoding="utf-8"?>
<svg viewBox="0 0 37 24" fill="none" xmlns="http://www.w3.org/2000/svg" xmlns:bx="https://boxy-svg.com">
  <defs>
    <bx:export>
      <bx:file format="svg" href="#object-0" path="Senza titolo.svg"/>
      <bx:file format="svg" href="#object-0" path="Senza titolo 2.svg"/>
      <bx:file format="svg" path="Senza titolo 3.svg" height="240" width="370"/>
    </bx:export>
    <bx:grid x="0" y="0" width="100" height="100"/>
  </defs>
  <path d="M 2 0 L 35 0 C 36.105 0 37 0.895 37 2 L 37 18.697 L 0 18.697 L 0 2 C 0 0.895 0.895 0 2 0 Z M 37 21.8 C 37 22.905 36.105 23.8 35 23.8 L 2 23.8 C 0.895 23.8 0 22.905 0 21.8 L 0 19.002 L 37 19.002 Z M 13.5 22.078 L 23.5 22.078 L 23.5 21.078 L 13.5 21.078 Z M 3 22.078 L 12.5 22.078 L 12.5 21.078 L 3 21.078 C 2.724 21.078 2.5 21.302 2.5 21.578 C 2.5 21.854 2.724 22.078 3 22.078 Z M 24.5 22.078 L 34 22.078 C 34.276 22.078 34.5 21.854 34.5 21.578 C 34.5 21.302 34.276 21.078 34 21.078 L 24.5 21.078 Z M 24.005 13.603 L 15.499 13.603 C 15.333 13.603 15.199 13.737 15.199 13.903 C 15.199 14.069 15.333 14.203 15.499 14.203 L 24.005 14.203 C 24.171 14.203 24.305 14.069 24.305 13.903 C 24.305 13.737 24.171 13.603 24.005 13.603 Z M 25.241 12.4 L 15.499 12.4 C 15.333 12.4 15.199 12.534 15.199 12.7 C 15.199 12.866 15.333 13 15.499 13 L 25.241 13 C 25.407 13 25.541 12.866 25.541 12.7 C 25.541 12.534 25.407 12.4 25.241 12.4 Z M 21.565 10.331 C 21.565 10.165 21.431 10.031 21.265 10.031 L 15.499 10.031 C 15.333 10.031 15.199 10.165 15.199 10.331 C 15.199 10.497 15.333 10.631 15.499 10.631 L 21.265 10.631 C 21.431 10.631 21.565 10.497 21.565 10.331 Z M 23.065 9.128 C 23.065 8.962 22.931 8.828 22.765 8.828 L 15.499 8.828 C 15.333 8.828 15.199 8.962 15.199 9.128 C 15.199 9.294 15.333 9.428 15.499 9.428 L 22.765 9.428 C 22.931 9.428 23.065 9.294 23.065 9.128 Z M 25.541 6.527 C 25.541 6.361 25.407 6.227 25.241 6.227 L 15.499 6.227 C 15.333 6.227 15.199 6.361 15.199 6.527 C 15.199 6.693 15.333 6.827 15.499 6.827 L 25.241 6.827 C 25.407 6.827 25.541 6.693 25.541 6.527 Z M 24.305 5.331 C 24.305 5.165 24.171 5.031 24.005 5.031 L 15.499 5.031 C 15.333 5.031 15.199 5.165 15.199 5.331 C 15.199 5.497 15.333 5.631 15.499 5.631 L 24.005 5.631 C 24.171 5.631 24.305 5.497 24.305 5.331 Z M 11.302 7.432 C 11.302 5.758 9.942 4.398 8.268 4.398 C 6.594 4.398 5.234 5.758 5.234 7.432 C 5.234 8.599 5.896 9.613 6.863 10.121 C 5.197 10.703 4 12.289 4 14.151 C 4 14.317 4.134 14.451 4.3 14.451 C 4.466 14.451 4.6 14.317 4.6 14.151 C 4.6 12.129 6.246 10.483 8.268 10.483 C 10.29 10.483 11.936 12.129 11.936 14.151 C 11.936 14.317 12.07 14.451 12.236 14.451 C 12.402 14.451 12.536 14.317 12.536 14.151 C 12.536 12.289 11.339 10.703 9.674 10.121 C 10.641 9.613 11.302 8.599 11.302 7.432 Z M 10.702 7.434 C 10.702 8.776 9.61 9.868 8.268 9.868 C 6.926 9.868 5.834 8.776 5.834 7.434 C 5.834 6.092 6.926 5 8.268 5 C 9.61 5 10.702 6.092 10.702 7.434 Z" fill="#0066CC" id="object-0" style="transform-box: fill-box; transform-origin: 50% 50%;"/>
</svg>
