<svg fill="none" xmlns="http://www.w3.org/2000/svg" viewBox="0 0 24 24">
    <path
        d="M0 9.6c0-3.36 0-5.04.654-6.324A6 6 0 0 1 3.276.654C4.56 0 6.24 0 9.6 0h4.8c3.36 0 5.04 0 6.324.654a6 6 0 0 1 2.622 2.622C24 4.56 24 6.24 24 9.6v4.8c0 3.36 0 5.04-.654 6.324a6 6 0 0 1-2.622 2.622C19.44 24 17.76 24 14.4 24H9.6c-3.36 0-5.04 0-6.324-.654a6 6 0 0 1-2.622-2.622C0 19.44 0 17.76 0 14.4V9.6Z"
        fill="#0B3EE3"
    />
    <path
        fill-rule="evenodd"
        clip-rule="evenodd"
        d="M7.21 6.4a1.35 1.35 0 1 1 0 2.7 1.35 1.35 0 0 1 0-2.7Zm11.34 6.48c0 2.386-1.934 4.32-4.114 4.32-2.592 0-4.526-1.934-4.526-4.32s1.934-4.32 4.526-4.32c2.18 0 4.114 1.934 4.114 4.32ZM8.29 11.53a1.08 1.08 0 1 0-2.16 0v4.59a1.08 1.08 0 0 0 2.16 0v-4.59Zm7.001.897h.576v-.566h-.571v-.685h-.625v2.277c0 .36.05.606.153.737.1.136.29.202.57.202.108 0 .27-.026.477-.075l-.03-.526-.355.009c-.062 0-.108-.013-.137-.044a.177.177 0 0 1-.05-.105 2.24 2.24 0 0 1-.008-.211v-1.013Zm-1.882-.562v2.47h.624v-2.47h-.624Zm-.938-.062a.366.366 0 0 1 .378.385c0 .11-.034.196-.105.27a.37.37 0 0 1-.269.101.375.375 0 0 1-.382-.38c0-.106.038-.196.105-.27a.363.363 0 0 1 .273-.106Z"
        fill="#fff"
    />
</svg>