<svg xmlns="http://www.w3.org/2000/svg" fill="none" viewBox="0 0 24 24">
  <path fill="#BBC2D6" fill-rule="evenodd" d="M8 8H7.12407C6.20634 8 5.40637 8.62459 5.18379 9.51493L4.56252 12H8V8ZM8 6H7.12407C5.2886 6 3.68867 7.24919 3.2435 9.02986L2.41992 12.3242C0.996564 12.9369 0 14.352 0 16V19C0 19.5523 0.447716 20 1 20H4.17071C4.58254 21.1652 5.69378 22 7 22C8.30622 22 9.41746 21.1652 9.82929 20H14.1707C14.5825 21.1652 15.6938 22 17 22C18.3062 22 19.4175 21.1652 19.8293 20H23C23.5523 20 24 19.5523 24 19V16C24 13.7909 22.2091 12 20 12H19.001L17.1065 8.21115C16.429 6.85601 15.0439 6 13.5288 6H10H8ZM19.8293 18H22V16C22 14.8954 21.1046 14 20 14H18.3829H4C2.89543 14 2 14.8954 2 16V18H4.17071C4.58254 16.8348 5.69378 16 7 16C8.30622 16 9.41746 16.8348 9.82929 18H14.1707C14.5825 16.8348 15.6938 16 17 16C18.3062 16 19.4175 16.8348 19.8293 18ZM10 8V12H16.7649L15.3177 9.10557C14.9789 8.428 14.2864 8 13.5288 8H10ZM8 19C8 19.5523 7.55228 20 7 20C6.44772 20 6 19.5523 6 19C6 18.4477 6.44772 18 7 18C7.55228 18 8 18.4477 8 19ZM17 20C17.5523 20 18 19.5523 18 19C18 18.4477 17.5523 18 17 18C16.4477 18 16 18.4477 16 19C16 19.5523 16.4477 20 17 20Z" clip-rule="evenodd"/>
</svg>
