<svg xmlns="http://www.w3.org/2000/svg" fill="none" viewBox="0 0 24 24">
  <path fill="#BBC2D6" fill-rule="evenodd" d="M22 6.96129V19.5684C22 20.9481 20.913 22 19.6535 22H4.34646C3.08696 22 2 20.9481 2 19.5684V3C2 2.44772 2.44771 2 3 2H6.33457C6.67726 2 6.99609 2.17548 7.17942 2.46501L7.92109 3.63624C8.83777 5.08388 10.4319 5.96129 12.1454 5.96129H21C21.5523 5.96129 22 6.40901 22 6.96129ZM12.1454 3.96129C11.1173 3.96129 10.1608 3.43485 9.6108 2.56626L8.86914 1.39503C8.31913 0.526447 7.36265 0 6.33457 0H3C1.34315 0 0 1.34314 0 3V19.5684C0 22.0159 1.94598 24 4.34646 24H19.6535C22.054 24 24 22.0159 24 19.5684V6.96129C24 5.30444 22.6569 3.96129 21 3.96129H12.1454ZM7 17C6.44772 17 6 17.4477 6 18C6 18.5523 6.44772 19 7 19H17C17.5523 19 18 18.5523 18 18C18 17.4477 17.5523 17 17 17H7Z" clip-rule="evenodd"/>
</svg>
