<svg viewBox="0 0 20 24" fill="none" xmlns="http://www.w3.org/2000/svg">
  <g clip-path="url(#clip0_19591_84347)">
    <path d="M9.4345 0.118108C9.28949 0.0357188 9.13537 -0.000898706 8.9858 1.67309e-05C8.51339 0.00367848 8.08019 0.383585 8.08293 0.912707L8.10938 5.7572L1.3661 1.96088C1.22018 1.87849 1.06605 1.84187 0.916488 1.84279C0.444076 1.84645 0.0145273 2.22636 0.0136153 2.75548L-0.000976562 18.7225C-0.000976562 19.443 0.321869 20.071 1.01316 20.46L7.07518 23.8819C7.22109 23.9643 7.37522 24.0009 7.52479 24C7.9972 23.9964 8.42766 23.6164 8.42766 23.0873V6.71383L11.6324 8.50442C12.3246 8.89074 12.6465 9.52147 12.6465 10.2419V19.8357L18.6411 23.2109C18.787 23.2933 18.9411 23.3299 19.0907 23.329C19.5631 23.3253 19.9936 22.9454 19.9936 22.4163L19.9999 7.2338C19.9999 6.51335 19.6771 5.88536 18.9858 5.4963L9.4345 0.118108Z" fill="#0B3EE3"/>
  </g>
  <defs>
    <clipPath id="clip0_19591_84347">
      <rect width="20" height="24" fill="white"/>
    </clipPath>
  </defs>
</svg>
