<svg xmlns="http://www.w3.org/2000/svg" fill="none" viewBox="0 0 24 24">
  <path fill="#BBC2D6" d="M12 18C10.9 18 10 18.9 10 20C10 21.1 10.9 22 12 22C13.1 22 14 21.1 14 20C14 18.9 13.1 18 12 18ZM4 2C2.9 2 2 2.9 2 4C2 5.1 2.9 6 4 6C5.1 6 6 5.1 6 4C6 2.9 5.1 2 4 2ZM4 10C2.9 10 2 10.9 2 12C2 13.1 2.9 14 4 14C5.1 14 6 13.1 6 12C6 10.9 5.1 10 4 10ZM12 10C10.9 10 10 10.9 10 12C10 13.1 10.9 14 12 14C13.1 14 14 13.1 14 12C14 10.9 13.1 10 12 10ZM20 10C18.9 10 18 10.9 18 12C18 13.1 18.9 14 20 14C21.1 14 22 13.1 22 12C22 10.9 21.1 10 20 10ZM20 2C18.9 2 18 2.9 18 4C18 5.1 18.9 6 20 6C21.1 6 22 5.1 22 4C22 2.9 21.1 2 20 2ZM12 2C10.9 2 10 2.9 10 4C10 5.1 10.9 6 12 6C13.1 6 14 5.1 14 4C14 2.9 13.1 2 12 2Z"/>
</svg>
