<svg xmlns="http://www.w3.org/2000/svg" fill="none" viewBox="0 0 24 24">
  <path fill="#2B2E38" fill-rule="evenodd" d="M10.1405 2.74301C11.2306 1.88189 12.7694 1.88189 13.8595 2.74301L20.8596 8.2723C21.5798 8.84124 22 9.7086 22 10.6265V18.9998C22 20.6567 20.6569 21.9998 19 21.9998H16V16C16 13.7909 14.2091 12 12 12C9.79086 12 8 13.7909 8 16V21.9998H5C3.34315 21.9998 2 20.6567 2 18.9998V10.6265C2 9.7086 2.42018 8.84124 3.14045 8.2723L10.1405 2.74301ZM14 21.9998H10V16C10 14.8954 10.8954 14 12 14C13.1046 14 14 14.8954 14 16V21.9998ZM8 23.9998H5C2.23858 23.9998 0 21.7612 0 18.9998V10.6265C0 9.09668 0.700306 7.65109 1.90075 6.70286L8.90075 1.17357C10.7177 -0.261631 13.2823 -0.261631 15.0992 1.17357L22.0992 6.70286C23.2997 7.65109 24 9.09669 24 10.6265V18.9998C24 21.7612 21.7614 23.9998 19 23.9998H16V24H8V23.9998Z" clip-rule="evenodd"/>
</svg>
