<svg viewBox="0 0 24 24" fill="none" xmlns="http://www.w3.org/2000/svg">
  <rect width="24" height="24" rx="8" fill="#3478F6" />
  <g clip-path="url(#clip0_20108_1267)">
    <path
      d="M4 7.33333C4 5.49238 5.49238 4 7.33333 4H9.33333C9.70152 4 10 4.29848 10 4.66667C10 5.03486 9.70152 5.33333 9.33333 5.33333H7.33333C6.22876 5.33333 5.33333 6.22876 5.33333 7.33333V9.33333C5.33333 9.70152 5.03486 10 4.66667 10C4.29848 10 4 9.70152 4 9.33333V7.33333Z"
      fill="white" />
    <path
      d="M16.6667 4C18.5076 4 20 5.49238 20 7.33333V9.33333C20 9.70152 19.7015 10 19.3333 10C18.9651 10 18.6667 9.70152 18.6667 9.33333V7.33333C18.6667 6.22876 17.7712 5.33333 16.6667 5.33333H14.6667C14.2985 5.33333 14 5.03486 14 4.66667C14 4.29848 14.2985 4 14.6667 4H16.6667Z"
      fill="white" />
    <path
      d="M16.6667 20C18.5076 20 20 18.5076 20 16.6667V14.6667C20 14.2985 19.7015 14 19.3333 14C18.9651 14 18.6667 14.2985 18.6667 14.6667V16.6667C18.6667 17.7712 17.7712 18.6667 16.6667 18.6667H14.6667C14.2985 18.6667 14 18.9651 14 19.3333C14 19.7015 14.2985 20 14.6667 20H16.6667Z"
      fill="white" />
    <path
      d="M7.33333 20C5.49238 20 4 18.5076 4 16.6667V14.6667C4 14.2985 4.29848 14 4.66667 14C5.03486 14 5.33333 14.2985 5.33333 14.6667V16.6667C5.33333 17.7712 6.22876 18.6667 7.33333 18.6667H9.33333C9.70152 18.6667 10 18.9651 10 19.3333C10 19.7015 9.70152 20 9.33333 20H7.33333Z"
      fill="white" />
    <path fill-rule="evenodd" clip-rule="evenodd"
      d="M11.9845 8C11.064 8 10.3178 8.74619 10.3178 9.66667C10.3178 10.5871 11.064 11.3333 11.9845 11.3333C12.9049 11.3333 13.6511 10.5871 13.6511 9.66667C13.6511 8.74619 12.9049 8 11.9845 8ZM11.9842 12C9.88727 12 8.16721 13.6135 7.99787 15.6668C7.98274 15.8502 8.13343 16 8.31753 16H15.6509C15.835 16 15.9856 15.8502 15.9705 15.6668C15.8012 13.6135 14.0811 12 11.9842 12Z"
      fill="white" />
  </g>
  <defs>
    <clipPath id="clip0_20108_1267">
      <rect width="16" height="16" fill="white" transform="translate(4 4)" />
    </clipPath>
  </defs>
</svg>
  