<svg xmlns="http://www.w3.org/2000/svg" fill="none" viewBox="0 0 24 24">
  <path fill="#2B2E38" fill-rule="evenodd" d="M2.25807 0.458079L22.8 21L22.8143 20.9858L23.4143 21.5858C23.8048 21.9763 23.8048 22.6095 23.4143 23C23.0237 23.3905 22.3906 23.3905 22 23L20.1989 21.1989C20.036 22.5473 18.5809 23.4397 17.2599 22.8396L12 20.4501L6.74009 22.8396C5.263 23.5106 3.61808 22.3155 3.7998 20.7033L4.44691 14.9624L0.548999 10.6983C-0.54561 9.50085 0.082701 7.56711 1.67209 7.24175L5.46532 6.46526L1.00005 1.99998C0.609522 1.60946 0.609522 0.976293 1.00005 0.585769C1.34196 0.24386 1.86985 0.201297 2.25807 0.458079ZM8.5553 3.92688L19.5711 14.9427L23.451 10.6983C24.5456 9.50085 23.9173 7.56711 22.3279 7.24175L16.6681 6.08316L13.8172 1.05831C13.0166 -0.352766 10.9834 -0.352771 10.1828 1.0583L8.5553 3.92688Z" clip-rule="evenodd"/>
</svg>
