<svg viewBox="0 0 24 24" fill="none" xmlns="http://www.w3.org/2000/svg">
  <path d="M0 8.82842C0 7.75146 0.823219 6.87842 1.83871 6.87842H17.1613C18.1768 6.87842 19 7.75146 19 8.82842V17.9284C19 19.0054 18.1768 19.8784 17.1613 19.8784H1.83871C0.823219 19.8784 0 19.0054 0 17.9284V8.82842Z" fill="#403F36"/>
  <path d="M16.8493 7.24447L16.9421 7.24659C17.9038 7.29734 18.6688 8.12597 18.6688 9.14031V16.8136H6.26442C5.14384 16.8134 4.23549 15.9331 4.23541 14.8468V7.24447H16.8493Z" fill="#403F36"/>
  <path d="M22 13.1846V5.66504C22 5.39569 21.7521 5.04642 21.2812 5.00391L21.1846 5H7.81543C7.28188 5.00018 7 5.37783 7 5.66504V6.5H5V5.66504C5 4.11398 6.34376 3.00026 7.81543 3H21.1846L21.459 3.0127C22.8192 3.14098 24 4.21094 24 5.66504V13.1846C24 14.7395 22.7395 16 21.1846 16H19.5V14H21.1846C21.6349 14 22 13.6349 22 13.1846Z" fill="#403F36"/>
</svg>
