<svg xmlns="http://www.w3.org/2000/svg" fill="none" viewBox="0 0 24 24">
  <path fill="#2B2E38" fill-rule="evenodd" d="M23.7071 16.2929C24.0976 16.6834 24.0976 17.3166 23.7071 17.7071C23.3166 18.0976 22.6834 18.0976 22.2929 17.7071L20 15.4142L20 17C20 20.866 16.866 24 13 24L5 24C4.44772 24 4 23.5523 4 23C4 22.4477 4.44772 22 5 22L13 22C15.7614 22 18 19.7614 18 17L18 15.4142L15.7071 17.7071C15.3166 18.0976 14.6834 18.0976 14.2929 17.7071C13.9024 17.3166 13.9024 16.6834 14.2929 16.2929L18.2929 12.2929C18.6834 11.9024 19.3166 11.9024 19.7071 12.2929L23.7071 16.2929ZM6 7C6 4.23858 8.23858 2 11 2L19 2C19.5523 2 20 1.55228 20 1C20 0.447716 19.5523 1.94416e-07 19 2.18557e-07L11 5.68248e-07C7.13401 7.37236e-07 4 3.13401 4 7L4 8.58579L1.70711 6.29289C1.31658 5.90237 0.683417 5.90237 0.292892 6.29289C-0.0976322 6.68342 -0.0976322 7.31658 0.292892 7.70711L4.29289 11.7071C4.68342 12.0976 5.31658 12.0976 5.70711 11.7071L9.70711 7.70711C10.0976 7.31658 10.0976 6.68342 9.70711 6.29289C9.31658 5.90237 8.68342 5.90237 8.29289 6.29289L6 8.58578L6 7Z" clip-rule="evenodd"/>
</svg>
