<svg xmlns="http://www.w3.org/2000/svg" fill="none" viewBox="0 0 24 24">
  <path fill="#BBC2D6" fill-rule="evenodd" d="M9 0C6.23858 0 4 2.23858 4 5V19C4 21.7614 6.23858 24 9 24H15C17.7614 24 20 21.7614 20 19V5C20 2.23858 17.7614 0 15 0H9ZM6 5C6 3.34315 7.34315 2 9 2H15C16.6569 2 18 3.34315 18 5V19C18 20.6569 16.6569 22 15 22H9C7.34315 22 6 20.6569 6 19V5ZM12 20C12.5523 20 13 19.5523 13 19C13 18.4477 12.5523 18 12 18C11.4477 18 11 18.4477 11 19C11 19.5523 11.4477 20 12 20Z" clip-rule="evenodd"/>
</svg>
