<svg xmlns="http://www.w3.org/2000/svg" fill="none" viewBox="0 0 24 24">
  <path fill="#BBC2D6" d="M21.4313 1.43802C19.7724 0.856032 18.1314 0.450039 16.5544 0.228042C14.9775 0.00604606 13.2875 -0.052953 11.5275 0.0470454C9.70454 0.153044 8.19456 1.52202 7.93457 3.30199L7.64957 5.26096C7.58057 5.26996 7.51258 5.27896 7.44358 5.28796C5.8666 5.50995 4.22563 5.91595 2.56666 6.49794C0.842688 7.10393 -0.220294 8.8379 0.0387012 10.6229L1.03868 17.4907C1.51668 20.7797 5.8946 22.8447 8.46156 23.7836C8.85855 23.9296 9.26955 24.0006 9.67754 24.0006C10.3985 24.0006 11.1065 23.7776 11.6985 23.3447C13.2115 22.2407 15.2434 20.5117 16.3354 18.5337C16.3614 18.4867 16.3834 18.4377 16.4014 18.3887C18.9824 17.3358 22.5333 15.3728 22.9613 12.4288L23.9613 5.56095C24.2203 3.77598 23.1573 2.04201 21.4323 1.43602L21.4313 1.43802ZM10.5195 21.7297C10.1325 22.0127 9.61954 22.0777 9.14755 21.9067C5.54561 20.5897 3.25365 18.8317 3.01765 17.2038L2.01767 10.3359C1.89467 9.49589 2.40466 8.6759 3.22765 8.3869C4.63262 7.89491 6.0166 7.53892 7.34858 7.32592L6.93459 10.1709C6.90359 10.3849 6.88959 10.5979 6.89159 10.8109C6.57359 10.5929 6.2206 10.4889 5.8626 10.5409C5.14062 10.6449 4.61962 11.3419 4.42363 12.2568C4.35863 12.5608 4.61762 12.8358 4.92462 12.7918L7.20658 12.4658C7.46158 13.1708 7.85657 13.8528 8.32856 14.4968C6.96458 14.9478 5.9906 16.1148 5.58961 17.5338C5.45961 17.9947 5.9836 18.3627 6.38159 18.0967C7.71357 17.2058 8.92955 16.7468 10.3045 16.6608C10.9905 17.2908 11.6815 17.8347 12.2705 18.2657C12.6925 18.5747 13.1705 18.7797 13.6685 18.8757C12.6525 20.0887 11.3385 21.1327 10.5185 21.7317L10.5195 21.7297ZM21.9803 5.27396L20.9804 12.1418C20.7444 13.7698 18.4524 15.5278 14.8515 16.8438C14.3795 17.0158 13.8575 16.9438 13.4535 16.6488C10.3755 14.3968 8.67955 12.0828 8.91555 10.4579L9.91453 3.58999C10.0375 2.745 10.7645 2.09501 11.6435 2.04401C12.1585 2.01401 12.6655 1.99901 13.1655 1.99901C14.2455 1.99901 15.2874 2.06901 16.2764 2.20701C17.7234 2.41001 19.2344 2.786 20.7704 3.32399C21.5943 3.61399 22.1033 4.43297 21.9813 5.27296L21.9803 5.27396ZM18.5324 11.3209C17.5794 12.5988 16.1054 13.3628 14.5325 13.1398C12.9605 12.9168 11.7615 11.7718 11.2045 10.2809C11.0315 9.81788 11.5445 9.39889 11.9755 9.64088C13.9985 10.7759 15.7134 11.0209 17.9744 10.4949C18.4534 10.3839 18.8264 10.9259 18.5324 11.3209ZM19.4084 7.31092C19.4734 7.61492 19.2144 7.88991 18.9074 7.84591L16.4394 7.49292C16.1324 7.44892 15.9604 7.11293 16.1084 6.83893C16.5524 6.01495 17.2474 5.48995 17.9704 5.59495C18.6924 5.69895 19.2124 6.39594 19.4084 7.31092ZM11.4405 6.17294C11.8845 5.34896 12.5795 4.82397 13.3025 4.92896C14.0245 5.03296 14.5455 5.72995 14.7415 6.64493C14.8065 6.94893 14.5475 7.22392 14.2405 7.17992L11.7725 6.82693C11.4655 6.78293 11.2935 6.44694 11.4415 6.17294H11.4405Z"/>
</svg>
