<svg xmlns="http://www.w3.org/2000/svg" fill="none" viewBox="0 0 24 24">
  <path fill="#BBC2D6" fill-rule="evenodd" d="M9.03896 18.726L13.039 4.72601C13.071 4.5954 13.129 4.47258 13.2095 4.36491C13.2901 4.25724 13.3916 4.16692 13.5078 4.09936C13.6241 4.0318 13.7528 3.98838 13.8862 3.97171C14.0197 3.95503 14.1551 3.96544 14.2844 4.00231C14.4137 4.03919 14.5343 4.10176 14.6389 4.1863C14.7435 4.27084 14.8299 4.3756 14.8931 4.49432C14.9562 4.61304 14.9948 4.74328 15.0065 4.87725C15.0181 5.01122 15.0027 5.14616 14.961 5.27401L10.961 19.274C10.9014 19.483 10.7754 19.6669 10.602 19.7979C10.4286 19.9289 10.2173 19.9999 9.99996 20C9.90702 19.9995 9.81455 19.9868 9.72496 19.962C9.47015 19.889 9.25477 19.7178 9.12613 19.486C8.9975 19.2542 8.96615 18.9809 9.03896 18.726ZM1.29279 12.707L5.29279 16.707C5.38503 16.8025 5.49538 16.8787 5.61738 16.9311C5.73939 16.9835 5.87061 17.0111 6.00339 17.0122C6.13617 17.0134 6.26784 16.9881 6.39074 16.9378C6.51364 16.8875 6.62529 16.8132 6.71918 16.7194C6.81308 16.6255 6.88733 16.5138 6.93761 16.3909C6.98789 16.268 7.01319 16.1363 7.01204 16.0036C7.01088 15.8708 6.9833 15.7396 6.93089 15.6176C6.87848 15.4956 6.8023 15.3852 6.70679 15.293L3.41379 12L6.70679 8.70696C6.8023 8.61471 6.87848 8.50437 6.93089 8.38236C6.9833 8.26036 7.01088 8.12914 7.01204 7.99636C7.01319 7.86358 6.98789 7.7319 6.93761 7.609C6.88733 7.48611 6.81308 7.37446 6.71918 7.28056C6.62529 7.18667 6.51364 7.11242 6.39074 7.06214C6.26784 7.01186 6.13617 6.98655 6.00339 6.98771C5.87061 6.98886 5.73939 7.01645 5.61738 7.06886C5.49538 7.12127 5.38503 7.19745 5.29279 7.29296L1.29279 11.293C1.10532 11.4805 1 11.7348 1 12C1 12.2651 1.10532 12.5194 1.29279 12.707ZM18.7071 7.29296C18.6148 7.19745 18.5045 7.12127 18.3825 7.06886C18.2605 7.01645 18.1293 6.98886 17.9965 6.98771C17.8637 6.98655 17.732 7.01186 17.6091 7.06214C17.4862 7.11242 17.3746 7.18667 17.2807 7.28056C17.1868 7.37446 17.1125 7.48611 17.0623 7.609C17.012 7.7319 16.9867 7.86358 16.9878 7.99636C16.989 8.12914 17.0166 8.26036 17.069 8.38236C17.1214 8.50437 17.1976 8.61471 17.2931 8.70696L20.5861 12L17.2931 15.293C17.1976 15.3852 17.1214 15.4956 17.069 15.6176C17.0166 15.7396 16.989 15.8708 16.9878 16.0036C16.9867 16.1363 17.012 16.268 17.0623 16.3909C17.1125 16.5138 17.1868 16.6255 17.2807 16.7194C17.3746 16.8132 17.4862 16.8875 17.6091 16.9378C17.732 16.9881 17.8637 17.0134 17.9965 17.0122C18.1293 17.0111 18.2605 16.9835 18.3825 16.9311C18.5045 16.8787 18.6148 16.8025 18.7071 16.707L22.7071 12.707C22.8946 12.5194 22.9999 12.2651 22.9999 12C22.9999 11.7348 22.8946 11.4805 22.7071 11.293L18.7071 7.29296Z" clip-rule="evenodd"/>
</svg>
