<svg xmlns="http://www.w3.org/2000/svg" fill="none" viewBox="0 0 24 24">
  <path fill="#636B82" fill-rule="evenodd" d="M18 4L6 4C6 2.89543 6.89543 2 8 2L16 2C17.1046 2 18 2.89543 18 4ZM4 4C4 1.79086 5.79086 0 8 0H16C18.2091 0 20 1.79086 20 4C22.2091 4 24 5.79086 24 8V14C24 16.2091 22.2091 18 20 18V20C20 22.2091 18.2091 24 16 24H8C5.79086 24 4 22.2091 4 20L4 18C1.79086 18 0 16.2091 0 14V8C0 5.79086 1.79086 4 4 4ZM22 14C22 15.1046 21.1046 16 20 16V13C20 11.3431 18.6569 10 17 10H7C5.34315 10 4 11.3431 4 13L4 16C2.89543 16 2 15.1046 2 14V8C2 6.89543 2.89543 6 4 6L20 6C21.1046 6 22 6.89543 22 8V14ZM6 20V18V16V13C6 12.4477 6.44772 12 7 12H17C17.5523 12 18 12.4477 18 13V16V18V20C18 21.1046 17.1046 22 16 22H8C6.89543 22 6 21.1046 6 20ZM9 14C8.44772 14 8 14.4477 8 15C8 15.5523 8.44772 16 9 16H13C13.5523 16 14 15.5523 14 15C14 14.4477 13.5523 14 13 14H9ZM8 19C8 18.4477 8.44771 18 9 18H15C15.5523 18 16 18.4477 16 19C16 19.5523 15.5523 20 15 20H9C8.44771 20 8 19.5523 8 19ZM19 9C19.5523 9 20 8.55229 20 8C20 7.44772 19.5523 7 19 7C18.4477 7 18 7.44772 18 8C18 8.55229 18.4477 9 19 9Z" clip-rule="evenodd"/>
</svg>
