<svg xmlns="http://www.w3.org/2000/svg" fill="none" viewBox="0 0 24 24">
  <path fill="#BBC2D6" fill-rule="evenodd" d="M5 2C2.23858 2 0 4.23858 0 7V10V17V22L3.55279 20.2236C3.83431 20.0828 4.16569 20.0828 4.44721 20.2236L8 22L11.5528 20.2236C11.8343 20.0828 12.1657 20.0828 12.4472 20.2236L16 22L19.5528 20.2236C19.8343 20.0828 20.1657 20.0828 20.4472 20.2236L24 22V17V10V7C24 4.23858 21.7614 2 19 2H5ZM22 10V7C22 5.34315 20.6569 4 19 4H5C3.34315 4 2 5.34315 2 7V10V17V18.7639L2.65836 18.4348C3.50294 18.0125 4.49706 18.0125 5.34164 18.4348L8 19.7639L10.6584 18.4348C11.5029 18.0125 12.4971 18.0125 13.3416 18.4348L16 19.7639L18.6584 18.4348C19.5029 18.0125 20.4971 18.0125 21.3416 18.4348L22 18.7639V17V10ZM5.99808 7C5.44686 7 5 7.44686 5 7.99808C5 8.54931 5.44686 8.99616 5.99808 8.99616H18.0019C18.5531 8.99616 19 8.54931 19 7.99808C19 7.44686 18.5531 7 18.0019 7H5.99808ZM6 11C5.44772 11 5 11.4477 5 12C5 12.5523 5.44772 13 6 13H12.0269C12.5792 13 13.0269 12.5523 13.0269 12C13.0269 11.4477 12.5792 11 12.0269 11H6Z" clip-rule="evenodd"/>
</svg>
