<svg xmlns="http://www.w3.org/2000/svg" fill="none" viewBox="0 0 24 24">
  <path fill="#BBC2D6" fill-rule="evenodd" d="M5 2C3.34315 2 2 3.34315 2 5V19C2 20.6569 3.34315 22 5 22H19C20.6569 22 22 20.6569 22 19V10H17C15.3431 10 14 8.65685 14 7V2H5ZM16 2.49902V7C16 7.55229 16.4477 8 17 8H21.501C21.3911 7.83409 21.2641 7.67835 21.1213 7.53553L16.4645 2.87868C16.3216 2.73586 16.1659 2.60893 16 2.49902ZM0 5C0 2.23858 2.23858 0 5 0H14.3431C15.6692 0 16.941 0.526784 17.8787 1.46447L22.5355 6.12132C23.4732 7.059 24 8.33077 24 9.65685V19C24 21.7614 21.7614 24 19 24H5C2.23858 24 0 21.7614 0 19V5ZM5 6.5C5 5.67157 5.67157 5 6.5 5H9.5C10.3284 5 11 5.67157 11 6.5C11 7.32843 10.3284 8 9.5 8H6.5C5.67157 8 5 7.32843 5 6.5ZM6 13C5.44772 13 5 13.4477 5 14C5 14.5523 5.44772 15 6 15H18C18.5523 15 19 14.5523 19 14C19 13.4477 18.5523 13 18 13H6ZM5 18C5 17.4477 5.44772 17 6 17H18C18.5523 17 19 17.4477 19 18C19 18.5523 18.5523 19 18 19H6C5.44772 19 5 18.5523 5 18Z" clip-rule="evenodd"/>
</svg>
