<?xml version="1.0" encoding="UTF-8"?>
<svg width="113px" height="120px" viewBox="0 0 113 120" version="1.1" xmlns="http://www.w3.org/2000/svg" xmlns:xlink="http://www.w3.org/1999/xlink">
    <!-- Generator: sketchtool 54.1 (76490) - https://sketchapp.com -->
    <title>9DF51BA5-07CE-463C-BBE4-2337E554AC8E</title>
    <desc>Created with sketchtool.</desc>
    <g id="#165882756---review-componente-searchbar" stroke="none" stroke-width="1" fill="none" fill-rule="evenodd">
        <g id="SearchBar---no-results" transform="translate(-135.000000, -136.000000)" fill="#00C5CA" fill-rule="nonzero">
            <g id="beer-mug" transform="translate(135.000000, 136.000000)">
                <path d="M95.6861494,22.9788281 L82.2780664,22.9788281 L82.2780664,17.2340625 C82.2780664,16.1763281 81.4207199,15.3192187 80.3626929,15.3192187 L3.74587967,15.3192187 C2.6878527,15.3192187 1.83050622,16.1763281 1.83050622,17.2340625 L1.83050622,95.0003906 L0.134568465,110.261016 C-0.151448133,112.834688 0.604620332,115.272656 2.26398548,117.126094 C3.92311618,118.979531 6.26376349,120 8.85362033,120 L75.2549523,120 C77.845278,120 80.1854564,118.979297 81.845056,117.125859 C83.5044212,115.272188 84.2604896,112.834219 83.974473,110.260781 L82.2780664,95.0001563 L82.2780664,89.3617969 L95.6861494,89.3617969 C105.191747,89.3617969 112.924979,81.6307031 112.924979,72.1277344 L112.924979,40.2128906 C112.924979,30.7096875 105.191747,22.9788281 95.6861494,22.9788281 Z M109.094467,72.1277344 L109.093998,72.1277344 C109.093998,79.51875 103.078975,85.531875 95.6861494,85.531875 L80.3626929,85.531875 C79.304666,85.531875 78.4473195,86.3889844 78.4473195,87.4467188 L78.4473195,95.1063281 C78.4473195,95.176875 78.451305,95.2478906 78.4590415,95.3177344 L80.1671701,110.683828 C80.3315124,112.160156 79.9135062,113.540859 78.9905166,114.571875 C78.0677614,115.602656 76.7410664,116.170313 75.2551867,116.170313 L8.85385477,116.170313 C7.3679751,116.170313 6.04151452,115.602422 5.11875934,114.571875 C4.19576971,113.541094 3.77799793,112.160391 3.94210581,110.683828 L5.65,95.3177344 C5.65773651,95.2474219 5.66172199,95.176875 5.66172199,95.1063281 L5.66172199,19.1489063 L9.49246888,19.1489063 L9.49246888,79.7871094 C9.49246888,80.8448438 10.3498154,81.7019531 11.4078423,81.7019531 C12.4658693,81.7019531 13.3232158,80.8448438 13.3232158,79.7871094 L13.3232158,19.1489063 L70.7858257,19.1489063 L70.7858257,85.531875 L11.4080768,85.531875 C10.3500498,85.531875 9.49270332,86.3889844 9.49270332,87.4467188 L9.49270332,95.1063281 C9.49270332,96.1640625 10.3500498,97.0211719 11.4080768,97.0211719 L72.701668,97.0211719 C73.759695,97.0211719 74.6170415,96.1640625 74.6170415,95.1063281 L74.6170415,19.1489063 L78.4477884,19.1489063 L78.4477884,24.8936719 C78.4477884,25.9514063 79.3051349,26.8085156 80.3631618,26.8085156 L95.6866183,26.8085156 C103.079678,26.8085156 109.094467,32.821875 109.094467,40.2126563 L109.094467,72.1277344 Z M70.7855913,89.3617969 L70.7855913,93.1914844 L13.3229813,93.1914844 L13.3229813,89.3617969 L70.7855913,89.3617969 Z" id="Shape"></path>
                <path d="M95.6861494,30.6382031 L80.3626929,30.6382031 C79.304666,30.6382031 78.4473195,31.4953125 78.4473195,32.5530469 L78.4473195,79.7871094 C78.4473195,80.8448437 79.304666,81.7019531 80.3626929,81.7019531 L95.6861494,81.7019531 C100.967141,81.7019531 105.263251,77.4070313 105.263251,72.1275 L105.263251,40.2126562 C105.263251,34.9333594 100.967141,30.6382031 95.6861494,30.6382031 Z M101.43227,72.1277344 C101.43227,75.2953125 98.8543693,77.8725 95.6859149,77.8725 L82.277832,77.8725 L82.277832,34.468125 L95.6859149,34.468125 C98.8543693,34.468125 101.43227,37.0453125 101.43227,40.2128906 L101.43227,72.1277344 Z" id="Shape"></path>
                <path d="M58.4885187,0.728671875 C57.5116079,0.323203125 56.390751,0.787734375 55.9858734,1.76507812 L53.0539689,8.84179688 C52.6490913,9.81890625 53.1132822,10.9389844 54.0906618,11.34375 C54.3302593,11.4433594 54.5785311,11.49 54.8228174,11.49 C55.5744315,11.49 56.2873631,11.0446875 56.5930726,10.3073438 L59.5249772,3.230625 C59.9303237,2.25351562 59.4661328,1.1334375 58.4885187,0.728671875 Z" id="Path"></path>
                <path d="M31.0546037,8.84179687 L28.1226992,1.76507812 C27.7178216,0.78796875 26.597668,0.324140625 25.6200539,0.728671875 C24.6426743,1.1334375 24.1784834,2.25351562 24.583361,3.230625 L27.5152656,10.3073437 C27.8207407,11.0449219 28.5336722,11.49 29.2855207,11.49 C29.5295726,11.49 29.7780788,11.4428906 30.0176763,11.34375 C30.9952905,10.9389844 31.4597158,9.81890625 31.0546037,8.84179687 Z" id="Path"></path>
                <path d="M42.0542863,0 C40.9962593,0 40.1389129,0.857109375 40.1389129,1.91484375 L40.1389129,9.57445312 C40.1389129,10.6321875 40.9964938,11.4892969 42.0542863,11.4892969 C43.1123133,11.4892969 43.9696598,10.6321875 43.9696598,9.57445312 L43.9696598,1.91484375 C43.9696598,0.857109375 43.1123133,0 42.0542863,0 Z" id="Path"></path>
            </g>
        </g>
    </g>
</svg>