<svg xmlns="http://www.w3.org/2000/svg" width="120" height="120" viewBox="0 0 120 120">
  <g fill="#00C5CA">
    <path d="M72.65625,44.53125 C71.3625,44.53125 70.3125,45.58125 70.3125,46.875 C70.3125,48.16875 71.3625,49.21875 72.65625,49.21875 C73.95,49.21875 75,48.16875 75,46.875 C75,45.58125 73.95,44.53125 72.65625,44.53125 Z"/>
    <path d="M117.253359,103.996641 L85.9689844,72.7122656 C91.0654687,65.0355469 93.75,56.1457031 93.75,46.875 C93.75,21.028125 72.721875,0 46.875,0 C21.028125,0 0,21.028125 0,46.875 C0,72.721875 21.028125,93.75 46.875,93.75 C56.1459375,93.75 65.0357812,91.0652344 72.7122656,85.9692188 L81.3595313,94.6164844 C81.3607031,94.6176562 81.361875,94.6188281 81.3632813,94.6202344 L103.996406,117.253359 C105.767813,119.024531 108.121641,120 110.625,120 C113.128359,120 115.482187,119.024531 117.252656,117.254063 C119.024297,115.483828 120,113.129766 120,110.625 C120,108.120234 119.024297,105.766172 117.253359,103.996641 Z M71.61,81.0297656 C71.61,81.03 71.6097656,81.03 71.6095313,81.0302344 C64.3750781,86.2849219 55.8222656,89.0625 46.875,89.0625 C23.6128125,89.0625 4.6875,70.1371875 4.6875,46.875 C4.6875,23.6128125 23.6128125,4.6875 46.875,4.6875 C70.1371875,4.6875 89.0625,23.6128125 89.0625,46.875 C89.0625,55.8222656 86.2849219,64.3750781 81.03,71.6097656 C78.4010156,75.2315625 75.2317969,78.4010156 71.61,81.0297656 Z M76.5271875,83.1546094 C78.9529688,81.1701563 81.1703906,78.9527344 83.1546094,76.5271875 L89.8040625,83.1766406 C87.781875,85.5632813 85.5632813,87.7821094 83.1766406,89.8040625 L76.5271875,83.1546094 Z M113.938828,113.938828 C113.052891,114.824766 111.876094,115.3125 110.625,115.3125 C109.373906,115.3125 108.197109,114.824766 107.311172,113.938828 L86.4998437,93.1275 C88.8733594,91.0905469 91.0905469,88.8735937 93.1272656,86.5000781 L113.939297,107.312109 C114.824766,108.196641 115.3125,109.372969 115.3125,110.625 C115.3125,111.877031 114.824766,113.053359 113.938828,113.938828 Z"/>
    <path d="M46.875,9.375 C26.1972656,9.375 9.375,26.1972656 9.375,46.875 C9.375,67.5527344 26.1972656,84.375 46.875,84.375 C67.5527344,84.375 84.375,67.5527344 84.375,46.875 C84.375,26.1972656 67.5527344,9.375 46.875,9.375 Z M46.875,79.6875 C28.7821875,79.6875 14.0625,64.9678125 14.0625,46.875 C14.0625,28.7821875 28.7821875,14.0625 46.875,14.0625 C64.9678125,14.0625 79.6875,28.7821875 79.6875,46.875 C79.6875,64.9678125 64.9678125,79.6875 46.875,79.6875 Z"/>
    <path d="M73.1402344,36.8139844 C71.1220313,31.5611719 67.6080469,27.0700781 62.9777344,23.8265625 C58.2372656,20.5054687 52.6689844,18.75 46.875,18.75 C45.5807813,18.75 44.53125,19.7995312 44.53125,21.09375 C44.53125,22.3879688 45.5807813,23.4375 46.875,23.4375 C56.5075781,23.4375 65.3041406,29.4885937 68.7646875,38.4953906 C69.1228125,39.4272656 70.0108594,39.9991406 70.9530469,39.9991406 C71.2324219,39.9991406 71.5167187,39.94875 71.7930469,39.8425781 C73.00125,39.3782813 73.6045312,38.0224219 73.1402344,36.8139844 Z"/>
  </g>
</svg>
