<?xml version="1.0" encoding="UTF-8"?>
<svg width="66px" height="42px" viewBox="0 0 66 42" version="1.1" xmlns="http://www.w3.org/2000/svg" xmlns:xlink="http://www.w3.org/1999/xlink">
    <!-- Generator: sketchtool 49.3 (51167) - http://www.bohemiancoding.com/sketch -->
    <title>AAD5C001-BD55-428E-B7BD-6CF090369A06</title>
    <desc>Created with sketchtool.</desc>
    <defs></defs>
    <g id="v1.1-16092018" stroke="none" stroke-width="1" fill="none" fill-rule="evenodd">
        <g id="2.4.2---dati-carta" transform="translate(-27.000000, -453.000000)">
            <g id="Group-14" transform="translate(27.000000, 402.000000)">
                <g id="icons/cards/amex" transform="translate(0.000000, 51.776596)">
                    <g>
                        <path d="M65.703,38.5728 C65.703,39.7864 64.713,40.7376 63.525,40.7376 L2.31,40.7376 C1.089,40.7376 0.132,39.7536 0.132,38.5728 L0.132,2.1648 C0.132,0.9512 1.122,0 2.31,0 L63.525,0 C64.746,0 65.703,0.984 65.703,2.1648 L65.703,38.5728 Z" id="Shape" fill="#0073A5" fill-rule="nonzero"></path>
                        <g id="Group" transform="translate(6.930000, 10.824000)" fill-rule="nonzero">
                            <path d="M13.53,8.5936 L13.53,7.9376 L13.233,8.5936 L10.527,8.5936 L10.197,7.9048 L10.197,8.5936 L5.082,8.5936 L4.488,7.1832 L3.465,7.1832 L2.838,8.5936 L0.198,8.5936 L0.198,4.3296 L2.112,0 L5.808,0 L6.336,1.2136 L6.336,0 L10.857,0 L11.847,2.0664 L12.804,0 L27.06,0 C27.06,0 27.819,0 28.314,0.328 L28.314,0 L31.911,0 L31.911,0.4592 C31.911,0.4592 32.571,0 33.528,0 C34.485,0 39.864,0 39.864,0 L40.425,1.2464 L40.425,0 L44.484,0 L45.21,1.2464 L45.21,0 L49.104,0 L49.104,8.5936 L45.111,8.5936 L44.187,7.0848 L44.187,8.5608 L39.237,8.5608 L38.544,7.0192 L37.587,7.0192 L36.927,8.5608 L33.924,8.5608 C33.924,8.5608 32.802,8.5608 31.977,7.9376 C31.977,8.2656 31.977,8.5608 31.977,8.5608 L26.004,8.5608 C26.004,8.5608 26.004,6.8552 26.004,6.56 C26.004,6.2648 25.773,6.2976 25.773,6.2976 L25.542,6.2976 L25.542,8.5608 L13.53,8.5608 L13.53,8.5936 Z" id="Shape" fill="#FFFFFF"></path>
                            <path d="M10.56,10.4632 L18.414,10.4632 L19.536,11.7424 L20.691,10.4632 L26.73,10.4632 C26.73,10.4632 27.291,10.4632 27.819,10.7584 L27.819,10.4632 C27.819,10.4632 32.505,10.4632 33.198,10.4632 C33.891,10.4632 34.452,10.7912 34.452,10.7912 L34.452,10.4632 L41.349,10.4632 L41.349,10.7912 C41.349,10.7912 41.844,10.4632 42.504,10.4632 C43.164,10.4632 46.992,10.4632 46.992,10.4632 L46.992,10.7912 C46.992,10.7912 47.553,10.4632 48.147,10.4632 C48.741,10.4632 51.678,10.4632 51.678,10.4632 L51.678,18.5648 C51.678,18.5648 51.216,19.0896 50.259,19.0896 L45.606,19.0896 L45.606,18.8272 C45.606,18.8272 45.177,19.0896 44.484,19.0896 C43.824,19.0896 32.109,19.0896 32.109,19.0896 C32.109,19.0896 32.109,17.1872 32.109,16.9904 C32.109,16.7936 32.01,16.7608 31.845,16.7608 L31.68,16.7608 L31.68,19.0896 L27.819,19.0896 L27.819,16.7608 C27.819,16.7608 27.39,16.9904 26.664,16.9904 C25.938,16.9904 25.278,16.9904 25.278,16.9904 L25.278,19.0896 L20.526,19.0896 L19.437,17.7776 L18.282,19.0896 L10.56,19.0896 L10.56,10.4632 Z" id="Shape" fill="#FFFFFF"></path>
                            <polygon id="Shape" fill="#0073A5" points="35.31 11.7424 40.227 11.7424 40.227 13.0544 36.795 13.0544 36.795 14.2024 40.128 14.2024 40.128 15.3504 36.795 15.3504 36.795 16.564 40.227 16.564 40.227 17.8432 35.31 17.8432"></polygon>
                            <path d="M49.731,14.1368 C51.579,14.2352 51.744,15.1536 51.744,16.1376 C51.744,17.2856 50.787,17.9088 49.797,17.9088 L46.629,17.9088 L46.629,16.5968 L49.104,16.5968 C49.533,16.5968 50.16,16.5968 50.16,16.0064 C50.16,15.744 50.061,15.5472 49.599,15.5144 C49.401,15.4816 48.675,15.4488 48.543,15.4488 C46.86,15.416 46.464,14.5632 46.464,13.5792 C46.464,12.4312 47.289,11.808 48.246,11.808 L51.414,11.808 L51.414,13.12 L49.104,13.12 C48.576,13.12 48.015,13.0544 48.015,13.6448 C48.015,14.0056 48.312,14.104 48.642,14.1368 C48.807,14.0712 49.632,14.1368 49.731,14.1368 Z" id="Shape" fill="#0073A5"></path>
                            <path d="M44.055,14.1368 C45.903,14.2352 46.068,15.1536 46.068,16.1376 C46.068,17.2856 45.111,17.9088 44.121,17.9088 L40.953,17.9088 L40.953,16.5968 L43.428,16.5968 C43.857,16.5968 44.484,16.5968 44.484,16.0064 C44.484,15.744 44.385,15.5472 43.923,15.5144 C43.725,15.4816 42.999,15.4488 42.867,15.4488 C41.184,15.416 40.821,14.5632 40.821,13.5792 C40.821,12.4312 41.613,11.808 42.603,11.808 L45.771,11.808 L45.771,13.12 L43.461,13.12 C42.933,13.12 42.372,13.0544 42.372,13.6448 C42.372,14.0056 42.669,14.104 42.999,14.1368 C43.131,14.0712 43.956,14.1368 44.055,14.1368 Z" id="Shape" fill="#0073A5"></path>
                            <path d="M26.202,11.7752 L20.922,11.7752 L19.206,13.6776 L17.523,11.7752 L11.583,11.7752 L11.583,17.876 L17.325,17.876 L19.14,15.8752 L20.922,17.9088 L23.826,17.9088 L23.826,15.8424 L25.839,15.8424 C26.631,15.8424 28.05,15.8096 28.05,13.6776 C28.017,12.1032 26.928,11.7752 26.202,11.7752 Z M16.533,16.564 L13.068,16.564 L13.068,15.3504 L16.401,15.3504 L16.401,14.2024 L13.068,14.2024 L13.068,13.0544 L16.731,13.0544 L18.183,14.7272 L16.533,16.564 Z M22.308,17.2856 L20.13,14.7272 L22.308,12.3328 L22.308,17.2856 Z M25.707,14.5304 L23.826,14.5304 L23.826,13.0544 L25.707,13.0544 C26.334,13.0544 26.532,13.448 26.532,13.7432 C26.532,14.1696 26.301,14.5304 25.707,14.5304 Z" id="Shape" fill="#0073A5"></path>
                            <path d="M33.462,15.088 C34.287,14.6944 34.518,14.1368 34.518,13.4152 C34.518,12.1032 33.462,11.7752 32.703,11.7752 L28.776,11.7752 L28.776,17.876 L30.294,17.876 L30.294,15.7112 L32.274,15.7112 C32.802,15.7112 33,16.236 33,16.7608 L33.033,17.876 L34.485,17.876 L34.419,16.6296 C34.452,15.6128 34.188,15.1536 33.462,15.088 Z M32.175,14.4648 L30.294,14.4648 L30.294,13.0872 L32.175,13.0872 C32.802,13.0872 33,13.4808 33,13.776 C33,14.1696 32.802,14.4648 32.175,14.4648 Z" id="Shape" fill="#0073A5"></path>
                            <rect id="Rectangle-path" fill="#0073A5" x="29.403" y="1.2136" width="1.518" height="6.1008"></rect>
                            <polygon id="Shape" fill="#0073A5" points="17.061 1.2136 21.978 1.2136 21.978 2.5256 18.579 2.5256 18.579 3.6736 21.879 3.6736 21.879 4.8544 18.579 4.8544 18.579 6.0352 21.978 6.0352 21.978 7.3144 17.061 7.3144"></polygon>
                            <path d="M27.555,4.5592 C28.38,4.1656 28.611,3.608 28.611,2.8864 C28.611,1.5744 27.555,1.2464 26.796,1.2464 L22.869,1.2464 L22.869,7.3472 L24.387,7.3472 L24.387,5.1824 L26.367,5.1824 C26.895,5.1824 27.093,5.7072 27.093,6.232 L27.126,7.3472 L28.578,7.3472 L28.512,6.1008 C28.545,5.084 28.281,4.6248 27.555,4.5592 Z M26.268,3.9032 L24.387,3.9032 L24.387,2.5256 L26.268,2.5256 C26.895,2.5256 27.093,2.9192 27.093,3.2144 C27.093,3.6408 26.895,3.9032 26.268,3.9032 Z" id="Shape" fill="#0073A5"></path>
                            <path d="M13.596,1.2136 L11.748,5.3136 L9.9,1.2136 L7.524,1.2136 L7.524,7.0848 L4.884,1.2136 L2.904,1.2136 L0.231,7.3144 L1.815,7.3144 L2.409,5.9368 L5.412,5.9368 L6.006,7.3144 L9.042,7.3144 L9.042,2.788 L11.055,7.3144 L12.441,7.3144 L14.487,2.8536 L14.487,7.3144 L16.005,7.3144 L16.005,1.2136 L13.596,1.2136 Z M2.97,4.6576 L3.861,2.5256 L4.785,4.6576 L2.97,4.6576 Z" id="Shape" fill="#0073A5"></path>
                            <path d="M46.464,1.2136 L46.464,5.4448 L43.923,1.2136 L41.712,1.2136 L41.712,6.9536 L39.138,1.2136 L37.158,1.2136 L35.079,5.9368 C35.079,5.9368 34.188,5.9368 34.122,5.904 C33.759,5.8384 33.198,5.576 33.198,4.4936 L33.198,4.0672 C33.198,2.624 33.99,2.5256 34.98,2.5256 L35.904,2.5256 L35.904,1.2136 L33.924,1.2136 C33.231,1.2136 31.746,1.7384 31.713,4.2312 C31.68,5.904 32.406,7.3144 34.089,7.3144 L36.069,7.3144 L36.663,5.9368 L39.666,5.9368 L40.26,7.3144 L43.23,7.3144 L43.23,2.8536 L45.936,7.3144 L47.982,7.3144 L47.982,1.2136 L46.464,1.2136 Z M37.191,4.6576 L38.082,2.5256 L39.039,4.6576 L37.191,4.6576 Z" id="Shape" fill="#0073A5"></path>
                        </g>
                    </g>
                </g>
            </g>
        </g>
    </g>
</svg>