<?xml version="1.0" encoding="UTF-8"?>
<svg width="66px" height="41px" viewBox="0 0 66 41" version="1.1" xmlns="http://www.w3.org/2000/svg" xmlns:xlink="http://www.w3.org/1999/xlink">
    <!-- Generator: sketchtool 49.3 (51167) - http://www.bohemiancoding.com/sketch -->
    <title>90BA1B0B-E9E2-45AC-8D1D-3BA8A7869EF9</title>
    <desc>Created with sketchtool.</desc>
    <defs></defs>
    <g id="v1.1-16092018" stroke="none" stroke-width="1" fill="none" fill-rule="evenodd">
        <g id="2.4.2---dati-carta" transform="translate(-197.000000, -454.000000)">
            <g id="Group-14" transform="translate(27.000000, 402.000000)">
                <g id="icons/cards/diners" transform="translate(169.902364, 51.776596)">
                    <g>
                        <path d="M65.967,38.8352 C65.967,40.0488 64.977,41 63.789,41 L2.475,41 C1.254,41 0.297,40.016 0.297,38.8352 L0.297,2.3944 C0.297,1.1808 1.287,0.2296 2.475,0.2296 L63.789,0.2296 C65.01,0.2296 65.967,1.2136 65.967,2.3944 L65.967,38.8352 Z" id="Shape" fill="#084D95" fill-rule="nonzero"></path>
                        <path d="M34.683,22.468 C38.412,22.5008 41.778,19.4504 41.778,15.7768 C41.778,11.7424 38.379,8.9544 34.683,8.9544 L31.482,8.9544 C27.72,8.9544 24.618,11.7424 24.618,15.7768 C24.618,19.4504 27.72,22.5008 31.482,22.468 L34.683,22.468 Z" id="Shape" fill="#FFFFFF" fill-rule="nonzero"></path>
                        <path d="M32.934,19.352 L32.934,12.0376 C34.419,12.5952 35.475,14.0384 35.475,15.6784 C35.442,17.384 34.419,18.7944 32.934,19.352 M27.588,15.7112 C27.588,14.0384 28.644,12.628 30.129,12.0704 L30.129,19.352 C28.611,18.7944 27.588,17.384 27.588,15.7112 M31.515,9.512 C28.083,9.512 25.311,12.2672 25.311,15.6784 C25.311,19.0896 28.083,21.8448 31.515,21.8448 C34.947,21.8448 37.719,19.0896 37.719,15.6784 C37.719,12.3 34.947,9.512 31.515,9.512" id="Shape" fill="#084D95" fill-rule="nonzero"></path>
                        <g id="Group" transform="translate(16.170000, 22.304000)" fill="#FFFFFF" fill-rule="nonzero">
                            <path d="M1.551,4.756 C1.551,5.3136 1.947,5.3792 2.31,5.3792 C3.861,5.3792 4.356,4.2312 4.356,3.1488 C4.356,1.804 3.498,0.8528 2.112,0.8528 C1.815,0.8528 1.683,0.8856 1.551,0.8856 L1.551,4.756 Z M0.825,1.4104 C0.825,0.7544 0.495,0.82 0.165,0.82 L0.165,0.6232 C0.429,0.6232 0.726,0.6232 1.023,0.6232 C1.32,0.6232 1.749,0.6232 2.277,0.6232 C4.125,0.6232 5.148,1.8696 5.148,3.116 C5.148,3.8376 4.719,5.6088 2.178,5.6088 C1.815,5.6088 1.485,5.6088 1.122,5.6088 C0.792,5.6088 0.495,5.6088 0.165,5.6088 L0.165,5.412 C0.594,5.3792 0.792,5.3464 0.825,4.8544 L0.825,1.4104 Z" id="Shape"></path>
                            <path d="M6.138,1.2464 C5.94,1.2464 5.775,1.0824 5.775,0.8856 C5.775,0.7216 5.94,0.5576 6.138,0.5576 C6.336,0.5576 6.501,0.7216 6.501,0.8856 C6.501,1.0824 6.336,1.2464 6.138,1.2464 Z M5.379,5.4448 L5.511,5.4448 C5.709,5.4448 5.841,5.4448 5.841,5.2152 L5.841,3.28 C5.841,2.952 5.742,2.9192 5.478,2.788 L5.478,2.6896 C5.808,2.5912 6.204,2.46 6.237,2.4272 C6.303,2.3944 6.336,2.3944 6.369,2.3944 C6.402,2.3944 6.435,2.4272 6.435,2.4928 L6.435,5.248 C6.435,5.4776 6.6,5.4776 6.798,5.4776 L6.93,5.4776 L6.93,5.6744 C6.699,5.6744 6.435,5.6744 6.171,5.6744 C5.907,5.6744 5.643,5.6744 5.379,5.6744 L5.379,5.4448 Z" id="Shape"></path>
                            <path d="M7.59,3.3128 C7.59,3.0504 7.524,2.9848 7.161,2.8536 L7.161,2.7224 C7.458,2.624 7.755,2.5256 8.118,2.3944 C8.151,2.3944 8.151,2.3944 8.151,2.46 L8.151,2.9192 C8.547,2.624 8.91,2.3944 9.405,2.3944 C9.999,2.3944 10.23,2.8208 10.23,3.3784 L10.23,5.2152 C10.23,5.4448 10.395,5.4448 10.593,5.4448 L10.725,5.4448 L10.725,5.6416 C10.461,5.6416 10.23,5.6416 9.966,5.6416 C9.702,5.6416 9.438,5.6416 9.174,5.6416 L9.174,5.4448 L9.306,5.4448 C9.504,5.4448 9.636,5.4448 9.636,5.2152 L9.636,3.3784 C9.636,2.9848 9.372,2.7552 8.976,2.7552 C8.745,2.7552 8.382,2.952 8.151,3.0832 L8.151,5.1824 C8.151,5.412 8.316,5.412 8.514,5.412 L8.646,5.412 L8.646,5.6088 C8.382,5.6088 8.151,5.6088 7.887,5.6088 C7.623,5.6088 7.359,5.6088 7.095,5.6088 L7.095,5.412 L7.227,5.412 C7.425,5.412 7.557,5.412 7.557,5.1824 L7.557,3.3128 L7.59,3.3128 Z" id="Shape"></path>
                            <path d="M12.54,3.4112 C12.705,3.4112 12.738,3.3128 12.738,3.2472 C12.738,2.8864 12.507,2.5912 12.111,2.5912 C11.682,2.5912 11.385,2.9192 11.286,3.4112 L12.54,3.4112 Z M11.286,3.6408 C11.286,3.7064 11.286,3.8048 11.286,4.0672 C11.319,4.756 11.781,5.3136 12.342,5.3136 C12.738,5.3136 13.035,5.084 13.299,4.8216 L13.398,4.92 C13.068,5.3464 12.672,5.74 12.078,5.74 C10.923,5.74 10.692,4.6248 10.692,4.1984 C10.692,2.788 11.649,2.3944 12.144,2.3944 C12.738,2.3944 13.365,2.7552 13.365,3.5096 C13.365,3.5424 13.365,3.608 13.365,3.6408 L13.299,3.6736 L11.286,3.6736 L11.286,3.6408 Z" id="Shape"></path>
                            <path d="M13.53,5.4448 L13.728,5.4448 C13.926,5.4448 14.058,5.4448 14.058,5.2152 L14.058,3.2144 C14.058,2.9848 13.794,2.952 13.695,2.8864 L13.695,2.788 C14.223,2.5584 14.52,2.3944 14.586,2.3944 C14.619,2.3944 14.652,2.4272 14.652,2.4928 L14.652,3.1488 C14.817,2.8864 15.147,2.4272 15.576,2.4272 C15.741,2.4272 15.972,2.5584 15.972,2.8208 C15.972,3.0176 15.84,3.1816 15.642,3.1816 C15.411,3.1816 15.411,3.0176 15.18,3.0176 C15.048,3.0176 14.652,3.1816 14.652,3.608 L14.652,5.2808 C14.652,5.5104 14.784,5.5104 14.982,5.5104 L15.378,5.5104 L15.378,5.7072 C14.982,5.7072 14.685,5.7072 14.388,5.7072 C14.091,5.7072 13.794,5.7072 13.53,5.7072 L13.53,5.4448 Z" id="Shape"></path>
                            <path d="M16.302,4.6248 C16.401,5.084 16.698,5.5104 17.193,5.5104 C17.622,5.5104 17.787,5.248 17.787,5.0184 C17.787,4.1656 16.236,4.4608 16.236,3.3128 C16.236,2.9192 16.566,2.3944 17.358,2.3944 C17.589,2.3944 17.886,2.46 18.183,2.5912 L18.249,3.3128 L18.084,3.3128 C18.018,2.8536 17.754,2.5912 17.292,2.5912 C16.995,2.5912 16.731,2.7552 16.731,3.0504 C16.731,3.8704 18.381,3.6408 18.381,4.756 C18.381,5.2152 17.985,5.74 17.16,5.74 C16.863,5.74 16.533,5.6416 16.269,5.5104 L16.203,4.6904 L16.302,4.6248 Z" id="Shape"></path>
                            <path d="M24.849,1.9352 L24.684,1.9352 C24.552,1.1152 23.958,0.7544 23.133,0.7544 C22.308,0.7544 21.12,1.312 21.12,3.0176 C21.12,4.4608 22.143,5.5104 23.265,5.5104 C23.991,5.5104 24.552,5.0184 24.717,4.264 L24.882,4.2968 L24.717,5.3464 C24.42,5.5432 23.595,5.74 23.133,5.74 C21.45,5.74 20.394,4.6576 20.394,3.0504 C20.394,1.5744 21.714,0.5248 23.1,0.5248 C23.694,0.5248 24.255,0.7216 24.783,0.9184 L24.849,1.9352 Z" id="Shape"></path>
                            <path d="M25.113,5.4448 L25.245,5.4448 C25.443,5.4448 25.575,5.4448 25.575,5.2152 L25.575,1.2464 C25.575,0.7872 25.476,0.7544 25.179,0.6888 L25.179,0.5904 C25.476,0.492 25.773,0.3608 25.905,0.2952 C25.971,0.2624 26.037,0.2296 26.07,0.2296 C26.103,0.2296 26.136,0.2624 26.136,0.328 L26.136,5.248 C26.136,5.4776 26.301,5.4776 26.499,5.4776 L26.631,5.4776 L26.631,5.6744 C26.4,5.6744 26.136,5.6744 25.872,5.6744 C25.608,5.6744 25.344,5.6744 25.08,5.6744 L25.08,5.4448 L25.113,5.4448 Z" id="Shape"></path>
                            <path d="M29.7,5.2152 C29.7,5.3464 29.766,5.3464 29.898,5.3464 C29.997,5.3464 30.096,5.3464 30.195,5.3464 L30.195,5.5104 C29.898,5.5432 29.304,5.6744 29.172,5.74 L29.139,5.7072 L29.139,5.1168 C28.71,5.4776 28.38,5.7072 27.852,5.7072 C27.456,5.7072 27.06,5.4448 27.06,4.8544 L27.06,3.0176 C27.06,2.8208 27.027,2.6568 26.631,2.624 L26.631,2.4928 C26.895,2.4928 27.456,2.4272 27.555,2.4272 C27.621,2.4272 27.621,2.4928 27.621,2.624 L27.621,4.4608 C27.621,4.6904 27.621,5.2808 28.248,5.2808 C28.479,5.2808 28.809,5.084 29.106,4.8544 L29.106,2.9192 C29.106,2.788 28.776,2.6896 28.512,2.624 L28.512,2.4928 C29.172,2.46 29.568,2.3944 29.634,2.3944 C29.7,2.3944 29.7,2.46 29.7,2.5256 L29.7,5.2152 Z" id="Shape"></path>
                            <path d="M31.152,4.8216 C31.152,5.084 31.416,5.5432 31.878,5.5432 C32.637,5.5432 32.967,4.7888 32.967,4.1656 C32.967,3.4112 32.373,2.7552 31.812,2.7552 C31.548,2.7552 31.317,2.9192 31.119,3.0832 L31.119,4.8216 L31.152,4.8216 Z M31.152,2.8536 C31.449,2.624 31.812,2.3288 32.208,2.3288 C33.033,2.3288 33.528,3.0504 33.528,3.8376 C33.528,4.7888 32.835,5.7072 31.812,5.7072 C31.284,5.7072 30.987,5.5432 30.822,5.4448 L30.591,5.6088 L30.426,5.5432 C30.492,5.1168 30.525,4.7232 30.525,4.264 L30.525,1.1808 C30.525,0.7216 30.426,0.6888 30.129,0.6232 L30.129,0.5248 C30.426,0.4264 30.723,0.2952 30.855,0.2296 C30.921,0.1968 30.987,0.164 31.02,0.164 C31.053,0.164 31.086,0.1968 31.086,0.2624 L31.086,2.8536 L31.152,2.8536 Z" id="Shape"></path>
                            <path d="M0.165,9.7744 L0.231,9.7744 C0.363,9.7744 0.528,9.7416 0.528,9.5448 L0.528,7.5112 C0.528,7.3144 0.396,7.2816 0.231,7.2816 L0.165,7.2816 L0.165,7.1504 C0.33,7.1504 0.561,7.1504 0.759,7.1504 C0.957,7.1504 1.188,7.1504 1.386,7.1504 L1.386,7.2816 L1.32,7.2816 C1.188,7.2816 1.023,7.3144 1.023,7.5112 L1.023,9.5448 C1.023,9.7416 1.188,9.7744 1.32,9.7744 L1.386,9.7744 L1.386,9.9056 C1.188,9.9056 0.957,9.9056 0.759,9.9056 C0.561,9.9056 0.33,9.9056 0.198,9.9056 L0.198,9.7744 L0.165,9.7744 Z" id="Shape"></path>
                            <path d="M1.353,9.8728 L1.353,9.7744 L1.32,9.7744 C1.188,9.7744 1.023,9.7416 1.023,9.5448 L1.023,7.5112 C1.023,7.2816 1.188,7.2816 1.32,7.2816 L1.353,7.2816 L1.353,7.1832 C1.188,7.1832 0.957,7.1832 0.759,7.1832 C0.561,7.1832 0.363,7.1832 0.198,7.1832 L0.198,7.2816 L0.231,7.2816 C0.363,7.2816 0.528,7.3144 0.528,7.5112 L0.528,9.5448 C0.528,9.7744 0.363,9.7744 0.231,9.7744 L0.198,9.7744 L0.198,9.8728 C0.363,9.8728 0.561,9.8728 0.759,9.8728 C0.924,9.84 1.155,9.8728 1.353,9.8728 Z M1.353,9.9056 C1.155,9.9056 0.924,9.9056 0.726,9.9056 C0.528,9.9056 0.297,9.9056 0.165,9.9056 L0.165,9.7744 L0.165,9.7416 L0.231,9.7416 C0.363,9.7416 0.495,9.7416 0.495,9.5448 L0.495,7.5112 C0.495,7.3144 0.363,7.3144 0.231,7.3144 L0.165,7.3144 L0.165,7.2816 L0.165,7.1504 C0.33,7.1504 0.561,7.1504 0.759,7.1504 C0.957,7.1504 1.188,7.1504 1.386,7.1504 L1.419,7.1504 L1.419,7.1832 L1.419,7.3144 L1.386,7.3144 L1.32,7.3144 C1.188,7.3144 1.056,7.3144 1.056,7.5112 L1.056,9.5448 C1.056,9.7416 1.188,9.7416 1.32,9.7416 L1.386,9.7416 L1.386,9.7744 L1.353,9.9056 Z" id="Shape"></path>
                            <path d="M4.026,9.1184 L4.026,7.6424 C4.026,7.3144 3.795,7.2816 3.696,7.2816 L3.63,7.2816 L3.63,7.1504 C3.828,7.1504 3.993,7.1504 4.191,7.1504 C4.356,7.1504 4.521,7.1504 4.686,7.1504 L4.686,7.2816 L4.62,7.2816 C4.455,7.2816 4.257,7.3144 4.257,7.7736 L4.257,9.5448 C4.257,9.676 4.257,9.8072 4.29,9.9384 L4.158,9.9384 L2.145,7.708 L2.145,9.3152 C2.145,9.6432 2.211,9.7744 2.508,9.7744 L2.574,9.7744 L2.574,9.9056 C2.409,9.9056 2.244,9.9056 2.079,9.9056 C1.914,9.9056 1.716,9.9056 1.551,9.9056 L1.551,9.7744 L1.617,9.7744 C1.881,9.7744 1.98,9.5776 1.98,9.2824 L1.98,7.6424 C1.98,7.4128 1.815,7.2816 1.617,7.2816 L1.551,7.2816 L1.551,7.1504 C1.683,7.1504 1.848,7.1504 2.013,7.1504 C2.145,7.1504 2.244,7.1504 2.376,7.1504 L4.026,9.1184 Z" id="Shape"></path>
                            <path d="M4.125,9.9056 L4.257,9.9056 C4.224,9.7744 4.224,9.676 4.224,9.5448 L4.224,7.7736 C4.224,7.3144 4.422,7.2488 4.587,7.2488 L4.62,7.2488 L4.62,7.1504 C4.455,7.1504 4.323,7.1504 4.158,7.1504 C3.993,7.1504 3.795,7.1504 3.63,7.1504 L3.63,7.2488 L3.696,7.2488 C3.828,7.2488 4.059,7.3144 4.059,7.6424 L4.059,9.1184 L2.31,7.1504 C2.178,7.1504 2.079,7.1504 1.947,7.1504 C1.815,7.1504 1.65,7.1504 1.518,7.1504 L1.518,7.2488 L1.551,7.2488 C1.749,7.2488 1.914,7.38 1.914,7.6096 L1.914,9.2496 C1.914,9.5448 1.815,9.7744 1.551,9.7744 L1.518,9.7744 L1.518,9.8728 C1.683,9.8728 1.848,9.8728 2.046,9.8728 C2.211,9.8728 2.376,9.8728 2.541,9.8728 L2.541,9.7744 L2.508,9.7744 C2.211,9.7744 2.112,9.6432 2.112,9.3152 L2.112,7.6752 L4.125,9.9056 Z M4.257,9.9712 L4.092,9.9712 L2.112,7.7736 L2.112,9.3152 C2.112,9.6432 2.178,9.7416 2.475,9.7416 L2.574,9.7416 L2.574,9.7744 L2.574,9.9056 L2.541,9.9056 C2.376,9.9056 2.211,9.9056 2.046,9.9056 C1.881,9.9056 1.683,9.9056 1.518,9.9056 L1.485,9.9056 L1.485,9.7744 L1.518,9.7744 L1.584,9.7744 C1.848,9.7744 1.914,9.6104 1.914,9.2824 L1.914,7.6424 C1.914,7.4456 1.749,7.3144 1.584,7.3144 L1.518,7.3144 L1.518,7.2816 L1.518,7.1504 L1.551,7.1504 C1.716,7.1504 1.848,7.1504 2.013,7.1504 C2.145,7.1504 2.244,7.1504 2.376,7.1504 L4.092,9.0856 L4.092,7.6424 C4.092,7.3472 3.894,7.2816 3.762,7.2816 L3.663,7.2816 L3.663,7.2488 L3.663,7.1176 L3.696,7.1176 C3.894,7.1176 4.059,7.1176 4.257,7.1176 C4.422,7.1176 4.587,7.1176 4.752,7.1176 L4.785,7.1176 L4.785,7.2488 L4.752,7.2488 L4.686,7.2488 C4.521,7.2488 4.356,7.2816 4.356,7.7408 L4.356,9.512 C4.257,9.676 4.257,9.8072 4.257,9.9712 Z" id="Shape"></path>
                            <path d="M5.247,7.38 C4.95,7.38 4.95,7.4456 4.884,7.7408 L4.752,7.7408 C4.752,7.6424 4.785,7.5112 4.785,7.4128 C4.785,7.3144 4.818,7.1832 4.818,7.0848 L4.917,7.0848 C4.95,7.216 5.049,7.1832 5.148,7.1832 L7.161,7.1832 C7.26,7.1832 7.359,7.1832 7.359,7.052 L7.458,7.052 C7.458,7.1504 7.425,7.2488 7.425,7.38 C7.425,7.4784 7.425,7.5768 7.425,7.708 L7.293,7.7408 C7.293,7.6096 7.26,7.38 6.996,7.38 L6.369,7.38 L6.369,9.4464 C6.369,9.7416 6.501,9.7744 6.699,9.7744 L6.765,9.7744 L6.765,9.9056 C6.6,9.9056 6.336,9.9056 6.138,9.9056 C5.907,9.9056 5.643,9.9056 5.478,9.9056 L5.478,9.7744 L5.544,9.7744 C5.775,9.7744 5.874,9.7416 5.874,9.4464 L5.874,7.38 L5.247,7.38 Z" id="Shape"></path>
                            <path d="M6.765,9.9056 C6.6,9.9056 6.336,9.9056 6.138,9.9056 C5.907,9.9056 5.643,9.9056 5.478,9.9056 L5.445,9.9056 L5.445,9.7744 L5.478,9.7744 L5.544,9.7744 C5.775,9.7744 5.841,9.7744 5.841,9.4792 L5.841,7.4128 L5.214,7.4128 L5.214,7.38 L5.214,7.3472 L5.874,7.3472 L5.874,9.4464 C5.874,9.7416 5.742,9.7744 5.544,9.7744 L5.478,9.7744 L5.478,9.84 C5.643,9.84 5.907,9.84 6.138,9.84 C6.336,9.84 6.6,9.84 6.765,9.84 L6.765,9.7744 L6.699,9.7744 C6.501,9.7744 6.369,9.7416 6.369,9.4136 L6.369,7.3144 L7.029,7.3144 C7.293,7.3144 7.326,7.544 7.326,7.6752 L7.425,7.6424 C7.425,7.544 7.425,7.4456 7.425,7.3472 C7.425,7.2488 7.458,7.1504 7.458,7.052 L7.392,7.052 C7.359,7.1504 7.26,7.1832 7.161,7.1832 L5.148,7.1832 L5.115,7.1832 C5.016,7.1832 4.917,7.1832 4.884,7.0848 L4.818,7.0848 C4.818,7.1832 4.818,7.2816 4.785,7.4128 C4.785,7.5112 4.752,7.6096 4.752,7.7408 L4.851,7.7408 C4.917,7.4784 4.95,7.38 5.214,7.38 L5.214,7.4128 L5.214,7.4456 C4.917,7.4456 4.917,7.5112 4.851,7.7736 L4.719,7.7736 L4.719,7.7408 C4.719,7.6424 4.752,7.5112 4.752,7.4128 C4.752,7.3144 4.785,7.1832 4.785,7.0848 L4.785,7.052 L4.818,7.052 L4.917,7.052 C4.95,7.1504 5.016,7.1504 5.115,7.1504 L5.148,7.1504 L7.161,7.1504 C7.26,7.1504 7.359,7.1504 7.359,7.052 L7.359,7.0192 L7.392,7.0192 L7.491,7.052 L7.491,7.0848 C7.491,7.1832 7.458,7.2816 7.458,7.4128 C7.458,7.5112 7.458,7.6096 7.458,7.7408 L7.326,7.8064 L7.326,7.7736 C7.326,7.6424 7.293,7.4128 7.062,7.4128 L6.435,7.4128 L6.435,9.4464 C6.435,9.7416 6.567,9.7744 6.732,9.7744 L6.831,9.7744 L6.831,9.8072 L6.765,9.9056 Z" id="Shape"></path>
                            <path d="M7.59,9.7744 L7.656,9.7744 C7.788,9.7744 7.953,9.7416 7.953,9.5448 L7.953,7.5112 C7.953,7.3144 7.821,7.2816 7.656,7.2816 L7.59,7.2816 L7.59,7.1504 C7.821,7.1504 8.25,7.1504 8.547,7.1504 C8.877,7.1504 9.273,7.1504 9.537,7.1504 C9.537,7.3144 9.537,7.5768 9.537,7.7408 L9.405,7.7736 C9.372,7.5112 9.339,7.3144 8.943,7.3144 L8.415,7.3144 L8.415,8.3312 L8.877,8.3312 C9.108,8.3312 9.174,8.2 9.174,8.0032 L9.306,8.0032 C9.306,8.1672 9.306,8.2984 9.306,8.4624 C9.306,8.6264 9.306,8.7576 9.306,8.9216 L9.174,8.9544 C9.141,8.7248 9.141,8.5608 8.877,8.5608 L8.415,8.5608 L8.415,9.4792 C8.415,9.7416 8.646,9.7416 8.877,9.7416 C9.339,9.7416 9.537,9.7088 9.669,9.2824 L9.768,9.3152 C9.702,9.512 9.669,9.7416 9.636,9.9384 C9.372,9.9384 8.943,9.9384 8.58,9.9384 C8.217,9.9384 7.755,9.9384 7.524,9.9384 L7.524,9.7744 L7.59,9.7744 Z" id="Shape"></path>
                            <path d="M9.669,9.8728 C9.702,9.676 9.735,9.4792 9.801,9.2824 L9.735,9.2496 C9.603,9.676 9.405,9.7088 8.943,9.7088 C8.712,9.7088 8.448,9.7088 8.448,9.4464 L8.448,8.528 L8.943,8.528 C9.207,8.528 9.24,8.692 9.273,8.9216 L9.372,8.8888 C9.372,8.7576 9.372,8.5936 9.372,8.4624 C9.372,8.3312 9.372,8.1672 9.372,8.036 L9.24,8.036 C9.207,8.2328 9.141,8.364 8.91,8.364 L8.415,8.364 L8.415,7.3144 L8.976,7.3144 C9.372,7.3144 9.438,7.5112 9.471,7.7736 L9.57,7.7408 C9.57,7.6424 9.57,7.4784 9.57,7.3472 C9.57,7.2816 9.57,7.216 9.57,7.1504 C9.306,7.1504 8.91,7.1504 8.58,7.1504 C8.25,7.1504 7.854,7.1504 7.623,7.1504 L7.623,7.2488 L7.656,7.2488 C7.788,7.2488 7.953,7.2816 7.953,7.4784 L7.953,9.512 C7.953,9.7416 7.788,9.7416 7.656,9.7416 L7.623,9.7416 L7.623,9.8072 C7.854,9.8072 8.316,9.8072 8.646,9.8072 C8.976,9.84 9.405,9.8728 9.669,9.8728 Z M9.702,9.9056 C9.438,9.9056 9.009,9.9056 8.646,9.9056 C8.283,9.9056 7.821,9.9056 7.59,9.9056 L7.59,9.7744 L7.59,9.7416 L7.656,9.7416 C7.788,9.7416 7.92,9.7416 7.92,9.5448 L7.92,7.5112 C7.92,7.3144 7.788,7.3144 7.656,7.3144 L7.59,7.3144 L7.59,7.2816 L7.59,7.1504 C7.821,7.1504 8.25,7.1504 8.547,7.1504 C8.877,7.1504 9.273,7.1504 9.537,7.1504 L9.57,7.1504 L9.57,7.1832 C9.57,7.2488 9.57,7.3144 9.57,7.38 C9.57,7.5112 9.57,7.6752 9.57,7.7736 L9.438,7.8064 L9.438,7.7736 C9.405,7.5112 9.372,7.3472 8.976,7.3472 L8.448,7.3472 L8.448,8.3312 L8.91,8.3312 C9.141,8.3312 9.174,8.2 9.207,8.0032 L9.339,8.0032 L9.339,8.036 C9.339,8.2 9.339,8.3312 9.339,8.4952 C9.339,8.6264 9.339,8.7904 9.339,8.9216 L9.207,8.9544 L9.207,8.9216 C9.174,8.692 9.174,8.5608 8.91,8.5608 L8.448,8.5608 L8.448,9.4464 C8.448,9.676 8.646,9.676 8.91,9.676 C9.372,9.676 9.57,9.6432 9.702,9.2168 L9.834,9.2496 L9.834,9.2824 C9.801,9.4792 9.735,9.676 9.702,9.9056 Z" id="Shape"></path>
                            <path d="M10.857,8.4952 L11.055,8.4952 C11.451,8.4952 11.649,8.364 11.649,7.9048 C11.649,7.544 11.418,7.3472 11.088,7.3472 C10.956,7.3472 10.923,7.3472 10.857,7.3472 L10.857,8.4952 Z M10.362,7.5768 C10.362,7.2816 10.197,7.2816 10.098,7.2816 L10.032,7.2816 L10.032,7.1504 C10.164,7.1504 10.395,7.1504 10.626,7.1504 C10.857,7.1504 11.055,7.1504 11.253,7.1504 C11.748,7.1504 12.177,7.2816 12.177,7.8392 C12.177,8.2 11.946,8.3968 11.649,8.528 L12.309,9.512 C12.408,9.676 12.507,9.7088 12.705,9.7416 L12.705,9.8728 C12.573,9.8728 12.441,9.8728 12.309,9.8728 C12.177,9.8728 12.078,9.8728 11.946,9.8728 C11.649,9.4792 11.385,9.0528 11.121,8.6264 L10.857,8.6264 L10.857,9.4464 C10.857,9.7416 10.989,9.7416 11.187,9.7416 L11.253,9.7416 L11.253,9.8728 C11.022,9.8728 10.791,9.8728 10.593,9.8728 C10.395,9.8728 10.23,9.8728 10.032,9.8728 L10.032,9.7416 L10.098,9.7416 C10.23,9.7416 10.362,9.676 10.362,9.5448 L10.362,7.5768 Z" id="Shape"></path>
                            <path d="M11.055,8.4624 C11.451,8.4624 11.649,8.3312 11.649,7.872 C11.649,7.544 11.418,7.3144 11.088,7.3144 C10.989,7.3144 10.923,7.3144 10.89,7.3144 L10.89,8.4296 L11.055,8.4296 L11.055,8.4624 Z M10.857,8.4952 L10.857,7.3144 C10.923,7.3144 10.956,7.3144 11.088,7.3144 C11.451,7.3144 11.682,7.544 11.682,7.9048 C11.682,8.364 11.451,8.528 11.055,8.528 L10.857,8.528 L10.857,8.4952 Z M10.857,8.5936 L11.121,8.5936 C11.385,9.0528 11.649,9.4464 11.913,9.84 C12.045,9.84 12.144,9.84 12.276,9.84 C12.408,9.84 12.507,9.84 12.639,9.84 L12.639,9.7416 C12.441,9.7088 12.375,9.676 12.276,9.512 L11.583,8.4952 L11.616,8.4952 C11.913,8.364 12.144,8.1672 12.144,7.8392 C12.144,7.3144 11.715,7.1832 11.22,7.1832 C11.022,7.1832 10.824,7.1832 10.593,7.1832 C10.362,7.1832 10.131,7.1832 9.999,7.1832 L9.999,7.2816 L10.065,7.2816 C10.197,7.2816 10.362,7.3144 10.362,7.6096 L10.362,9.5776 C10.362,9.7416 10.23,9.8072 10.065,9.8072 L9.999,9.8072 L9.999,9.8728 C10.197,9.8728 10.362,9.8728 10.56,9.8728 C10.791,9.8728 10.989,9.8728 11.22,9.8728 L11.22,9.8072 L11.154,9.8072 C10.989,9.8072 10.824,9.7744 10.824,9.4792 L10.857,8.5936 Z M12.672,9.9056 C12.54,9.9056 12.408,9.9056 12.276,9.9056 C12.144,9.9056 12.045,9.9056 11.88,9.9056 C11.583,9.512 11.319,9.0856 11.055,8.6592 L10.824,8.6592 L10.824,9.4792 C10.824,9.7744 10.956,9.7744 11.121,9.7744 L11.22,9.7744 L11.22,9.8072 L11.22,9.9384 L11.187,9.9384 C10.956,9.9384 10.725,9.9384 10.527,9.9384 C10.329,9.9384 10.164,9.9384 9.966,9.9384 L9.933,9.9384 L9.933,9.8072 L9.966,9.8072 L10.032,9.8072 C10.164,9.8072 10.296,9.7416 10.296,9.6104 L10.296,7.6424 C10.296,7.38 10.164,7.38 10.032,7.38 L9.933,7.38 L9.933,7.3472 L9.933,7.216 L9.966,7.216 C10.098,7.216 10.329,7.216 10.56,7.216 C10.791,7.216 10.989,7.216 11.187,7.216 C11.682,7.216 12.144,7.3472 12.144,7.9048 C12.144,8.2656 11.913,8.4624 11.616,8.5936 L12.276,9.5776 C12.375,9.7416 12.441,9.7744 12.639,9.8072 L12.672,9.9056 Z" id="Shape"></path>
                            <path d="M15.312,9.1184 L15.312,7.6424 C15.312,7.3144 15.081,7.2816 14.982,7.2816 L14.883,7.2816 L14.883,7.1504 C15.081,7.1504 15.246,7.1504 15.444,7.1504 C15.609,7.1504 15.774,7.1504 15.939,7.1504 L15.939,7.2816 L15.873,7.2816 C15.708,7.2816 15.51,7.3144 15.51,7.7736 L15.51,9.5448 C15.51,9.676 15.51,9.8072 15.543,9.9384 L15.411,9.9384 L13.398,7.708 L13.398,9.3152 C13.398,9.6432 13.464,9.7744 13.761,9.7744 L13.827,9.7744 L13.827,9.9056 C13.662,9.9056 13.497,9.9056 13.332,9.9056 C13.167,9.9056 12.969,9.9056 12.804,9.9056 L12.804,9.7744 L12.87,9.7744 C13.134,9.7744 13.233,9.5776 13.233,9.2824 L13.233,7.6424 C13.233,7.4128 13.068,7.2816 12.87,7.2816 L12.804,7.2816 L12.804,7.1504 C12.936,7.1504 13.101,7.1504 13.266,7.1504 C13.398,7.1504 13.497,7.1504 13.629,7.1504 L15.312,9.1184 Z" id="Shape"></path>
                            <path d="M15.411,9.9056 L15.543,9.9056 C15.51,9.7744 15.51,9.676 15.51,9.5448 L15.51,7.7736 C15.51,7.3144 15.708,7.2488 15.873,7.2488 L15.906,7.2488 L15.906,7.1504 C15.741,7.1504 15.609,7.1504 15.444,7.1504 C15.279,7.1504 15.081,7.1504 14.916,7.1504 L14.916,7.2488 L14.982,7.2488 C15.114,7.2488 15.345,7.3144 15.345,7.6424 L15.345,9.1184 L13.596,7.1504 C13.464,7.1504 13.365,7.1504 13.233,7.1504 C13.101,7.1504 12.936,7.1504 12.804,7.1504 L12.804,7.2488 L12.837,7.2488 C13.035,7.2488 13.2,7.38 13.2,7.6096 L13.2,9.2496 C13.2,9.5776 13.101,9.7744 12.837,9.7744 L12.804,9.7744 L12.804,9.8728 C12.969,9.8728 13.134,9.8728 13.332,9.8728 C13.497,9.8728 13.662,9.8728 13.827,9.8728 L13.827,9.8072 L13.761,9.8072 C13.464,9.8072 13.365,9.676 13.365,9.348 L13.365,7.708 L15.411,9.9056 Z M15.543,9.9712 L15.378,9.9712 L13.398,7.7736 L13.398,9.3152 C13.398,9.6432 13.464,9.7416 13.761,9.7416 L13.86,9.7416 L13.86,9.7744 L13.86,9.9056 L13.827,9.9056 C13.662,9.9056 13.497,9.9056 13.332,9.9056 C13.167,9.9056 12.969,9.9056 12.804,9.9056 L12.771,9.9056 L12.771,9.7744 L12.804,9.7744 L12.87,9.7744 C13.134,9.7744 13.2,9.6104 13.2,9.2824 L13.2,7.6424 C13.2,7.4456 13.035,7.3144 12.87,7.3144 L12.804,7.3144 L12.804,7.2816 L12.804,7.1504 L12.837,7.1504 C12.969,7.1504 13.134,7.1504 13.299,7.1504 C13.431,7.1504 13.53,7.1504 13.662,7.1504 L15.378,9.0856 L15.378,7.6424 C15.378,7.3472 15.18,7.2816 15.048,7.2816 L14.949,7.2816 L14.949,7.2488 L14.949,7.1176 L14.982,7.1176 C15.18,7.1176 15.345,7.1176 15.543,7.1176 C15.708,7.1176 15.873,7.1176 16.038,7.1176 L16.071,7.1176 L16.071,7.1504 L16.071,7.2816 L16.038,7.2816 L15.972,7.2816 C15.807,7.2816 15.642,7.3144 15.642,7.7736 L15.642,9.5448 C15.543,9.676 15.543,9.8072 15.543,9.9712 Z" id="Shape"></path>
                            <path d="M17.127,7.6096 L16.764,8.7248 L17.49,8.7248 L17.127,7.6096 Z M16.566,9.3152 C16.533,9.4464 16.467,9.5448 16.467,9.6104 C16.467,9.7416 16.632,9.7416 16.764,9.7416 L16.797,9.7416 L16.797,9.8728 C16.632,9.8728 16.467,9.8728 16.335,9.8728 C16.203,9.8728 16.071,9.8728 15.906,9.8728 L15.906,9.7416 L15.939,9.7416 C16.104,9.7416 16.236,9.6432 16.269,9.4792 L16.896,7.708 C16.962,7.5768 17.028,7.38 17.028,7.216 C17.16,7.1832 17.292,7.0848 17.391,7.052 C17.391,7.052 17.424,7.052 17.424,7.052 C17.424,7.052 17.457,7.052 17.457,7.052 C17.457,7.0848 17.49,7.1176 17.49,7.1504 L18.216,9.184 C18.249,9.3152 18.315,9.4792 18.348,9.5776 C18.381,9.676 18.48,9.7416 18.612,9.7416 L18.645,9.7416 L18.645,9.8728 C18.48,9.8728 18.282,9.8728 18.117,9.8728 C17.919,9.8728 17.721,9.8728 17.523,9.8728 L17.523,9.7416 L17.556,9.7416 C17.655,9.7416 17.787,9.7416 17.787,9.6432 C17.787,9.5776 17.754,9.4792 17.721,9.348 L17.556,8.8888 L16.665,8.8888 L16.566,9.3152 Z" id="Shape"></path>
                            <path d="M16.797,8.692 L17.49,8.692 L17.16,7.6424 L16.797,8.692 Z M16.731,8.7248 L17.094,7.5768 L17.094,7.6096 L17.094,7.5768 L17.457,8.7248 L16.731,8.7248 Z M17.523,9.8728 C17.721,9.8728 17.919,9.8728 18.084,9.8728 C18.282,9.8728 18.447,9.8728 18.612,9.8728 L18.612,9.8072 C18.48,9.8072 18.381,9.7416 18.348,9.6432 C18.282,9.512 18.249,9.3808 18.216,9.2496 L17.49,7.216 C17.49,7.1832 17.457,7.1504 17.457,7.1176 C17.457,7.1176 17.457,7.1176 17.457,7.1176 C17.457,7.1176 17.457,7.1176 17.424,7.1176 C17.358,7.1504 17.193,7.2488 17.061,7.2816 C17.028,7.4128 16.962,7.6096 16.929,7.7736 L16.302,9.5448 C16.236,9.7088 16.104,9.8072 15.939,9.8072 L15.939,9.8728 C16.071,9.8728 16.203,9.8728 16.335,9.8728 C16.5,9.8728 16.632,9.8728 16.797,9.8728 L16.797,9.8072 L16.764,9.8072 C16.632,9.8072 16.467,9.8072 16.467,9.6432 C16.467,9.5776 16.5,9.4792 16.566,9.348 L16.599,9.348 L16.566,9.348 L16.698,8.9216 L17.622,8.9216 L17.787,9.3808 C17.82,9.512 17.853,9.6104 17.853,9.676 C17.853,9.8072 17.688,9.8072 17.589,9.8072 L17.556,9.8072 L17.556,9.8728 L17.523,9.8728 Z M18.645,9.9056 C18.48,9.9056 18.282,9.9056 18.117,9.9056 C17.919,9.9056 17.721,9.9056 17.523,9.9056 L17.49,9.9056 L17.49,9.8728 L17.49,9.7416 L17.523,9.7416 C17.622,9.7416 17.754,9.7088 17.754,9.6432 C17.754,9.6104 17.721,9.4792 17.688,9.3808 L17.556,8.9544 L16.698,8.9544 L16.566,9.348 C16.533,9.4792 16.467,9.5776 16.467,9.6432 C16.467,9.7416 16.599,9.7744 16.731,9.7744 L16.797,9.7744 L16.797,9.8072 L16.797,9.9384 L16.764,9.9384 C16.599,9.9384 16.434,9.9384 16.302,9.9384 C16.17,9.9384 16.038,9.9384 15.873,9.9384 L15.84,9.9384 L15.84,9.9056 L15.84,9.7744 L15.873,9.7744 L15.906,9.7744 C16.038,9.7744 16.17,9.7088 16.236,9.5448 L16.863,7.7736 C16.929,7.6424 16.995,7.4456 17.028,7.2816 C17.16,7.2488 17.292,7.1504 17.391,7.1176 C17.391,7.1176 17.424,7.1176 17.424,7.1176 C17.424,7.1176 17.457,7.1176 17.457,7.1504 C17.457,7.1832 17.49,7.216 17.49,7.2488 L18.216,9.2824 C18.249,9.4136 18.315,9.5776 18.348,9.676 C18.381,9.7744 18.48,9.8072 18.579,9.8072 L18.612,9.8072 L18.612,9.84 L18.645,9.9056 Z" id="Shape"></path>
                            <path d="M18.81,7.38 C18.513,7.38 18.513,7.4456 18.447,7.7408 L18.315,7.7408 C18.315,7.6424 18.348,7.5112 18.348,7.4128 C18.348,7.3144 18.381,7.1832 18.381,7.0848 L18.48,7.0848 C18.513,7.216 18.612,7.1832 18.711,7.1832 L20.724,7.1832 C20.823,7.1832 20.922,7.1832 20.922,7.052 L21.021,7.052 C21.021,7.1504 20.988,7.2488 20.988,7.38 C20.988,7.4784 20.988,7.5768 20.988,7.708 L20.856,7.7408 C20.856,7.6096 20.823,7.38 20.559,7.38 L19.932,7.38 L19.932,9.4464 C19.932,9.7416 20.064,9.7744 20.262,9.7744 L20.328,9.7744 L20.328,9.9056 C20.163,9.9056 19.899,9.9056 19.701,9.9056 C19.47,9.9056 19.206,9.9056 19.041,9.9056 L19.041,9.7744 L19.107,9.7744 C19.338,9.7744 19.437,9.7416 19.437,9.4464 L19.437,7.38 L18.81,7.38 Z" id="Shape"></path>
                            <path d="M20.361,9.9056 C20.196,9.9056 19.932,9.9056 19.734,9.9056 C19.503,9.9056 19.239,9.9056 19.074,9.9056 L19.041,9.9056 L19.041,9.7744 L19.074,9.7744 L19.14,9.7744 C19.371,9.7744 19.437,9.7744 19.437,9.4792 L19.437,7.4128 L18.81,7.4128 L18.81,7.38 L18.81,7.3472 L19.47,7.3472 L19.47,9.4464 C19.47,9.7416 19.338,9.7744 19.14,9.7744 L19.074,9.7744 L19.074,9.8728 C19.239,9.8728 19.503,9.8728 19.734,9.8728 C19.932,9.8728 20.196,9.8728 20.361,9.8728 L20.361,9.7744 L20.295,9.7744 C20.097,9.7744 19.965,9.7416 19.965,9.4136 L19.965,7.3144 L20.625,7.3144 C20.889,7.3144 20.922,7.544 20.922,7.6752 L21.021,7.6424 C21.021,7.544 21.021,7.4456 21.021,7.3472 C21.021,7.2488 21.054,7.1504 21.054,7.052 L20.988,7.052 C20.955,7.1504 20.856,7.1832 20.757,7.1832 L18.744,7.1832 L18.711,7.1832 C18.612,7.1832 18.513,7.1832 18.48,7.0848 L18.414,7.0848 C18.414,7.1832 18.414,7.2816 18.381,7.4128 C18.381,7.5112 18.348,7.6096 18.348,7.7408 L18.447,7.7408 C18.513,7.4784 18.546,7.38 18.81,7.38 L18.81,7.4128 L18.81,7.4456 C18.513,7.4456 18.513,7.5112 18.447,7.7736 L18.315,7.7736 L18.315,7.7408 C18.315,7.6424 18.348,7.5112 18.348,7.4128 C18.348,7.3144 18.381,7.1832 18.381,7.0848 L18.381,7.052 L18.48,7.052 C18.513,7.1504 18.579,7.1504 18.678,7.1504 C18.678,7.1504 18.678,7.1504 18.711,7.1504 L20.724,7.1504 C20.823,7.1504 20.922,7.1504 20.922,7.052 L20.922,7.0192 L20.955,7.0192 L21.054,7.052 L21.054,7.0848 C21.054,7.1832 21.021,7.2816 21.021,7.4128 C21.021,7.5112 21.021,7.6096 21.021,7.7408 L20.889,7.8064 L20.889,7.7736 C20.889,7.6424 20.856,7.4128 20.625,7.4128 L19.998,7.4128 L19.998,9.4464 C19.998,9.7416 20.13,9.7744 20.295,9.7744 L20.394,9.7744 L20.394,9.8072 L20.361,9.9056 Z" id="Shape"></path>
                            <path d="M21.186,9.7744 L21.252,9.7744 C21.384,9.7744 21.549,9.7416 21.549,9.5448 L21.549,7.5112 C21.549,7.3144 21.417,7.2816 21.252,7.2816 L21.186,7.2816 L21.186,7.1504 C21.351,7.1504 21.582,7.1504 21.78,7.1504 C21.978,7.1504 22.209,7.1504 22.407,7.1504 L22.407,7.2816 L22.341,7.2816 C22.209,7.2816 22.044,7.3144 22.044,7.5112 L22.044,9.5448 C22.044,9.7416 22.176,9.7744 22.341,9.7744 L22.407,9.7744 L22.407,9.9056 C22.209,9.9056 21.978,9.9056 21.78,9.9056 C21.582,9.9056 21.351,9.9056 21.219,9.9056 L21.219,9.7744 L21.186,9.7744 Z" id="Shape"></path>
                            <path d="M22.374,9.8728 L22.374,9.7744 L22.341,9.7744 C22.209,9.7744 22.044,9.7416 22.044,9.5448 L22.044,7.5112 C22.044,7.2816 22.209,7.2816 22.341,7.2816 L22.374,7.2816 L22.374,7.1832 C22.209,7.1832 21.978,7.1832 21.78,7.1832 C21.582,7.1832 21.384,7.1832 21.219,7.1832 L21.219,7.2816 L21.252,7.2816 C21.384,7.2816 21.549,7.3144 21.549,7.5112 L21.549,9.5448 C21.549,9.7744 21.384,9.7744 21.252,9.7744 L21.219,9.7744 L21.219,9.8728 C21.384,9.8728 21.582,9.8728 21.78,9.8728 C21.945,9.84 22.176,9.8728 22.374,9.8728 Z M22.374,9.9056 C22.176,9.9056 21.945,9.9056 21.747,9.9056 C21.549,9.9056 21.318,9.9056 21.186,9.9056 L21.153,9.9056 L21.153,9.7744 L21.153,9.7416 L21.186,9.7416 L21.252,9.7416 C21.384,9.7416 21.516,9.7416 21.516,9.5448 L21.516,7.5112 C21.516,7.3144 21.384,7.3144 21.252,7.3144 L21.186,7.3144 L21.186,7.2816 L21.186,7.1504 L21.219,7.1504 C21.384,7.1504 21.615,7.1504 21.813,7.1504 C22.011,7.1504 22.242,7.1504 22.44,7.1504 L22.44,7.2816 L22.374,7.2816 C22.242,7.2816 22.11,7.2816 22.11,7.4784 L22.11,9.512 C22.11,9.7088 22.242,9.7088 22.374,9.7088 L22.44,9.7088 L22.44,9.7416 L22.374,9.9056 Z" id="Shape"></path>
                            <path d="M23.991,9.7744 C24.75,9.7744 24.882,9.1184 24.882,8.528 C24.882,7.9704 24.585,7.2816 23.925,7.2816 C23.232,7.2816 23.034,7.872 23.034,8.3968 C23.067,9.1184 23.364,9.7744 23.991,9.7744 M23.958,7.1176 C24.783,7.1176 25.443,7.6424 25.443,8.4624 C25.443,9.348 24.783,9.9384 23.958,9.9384 C23.133,9.9384 22.506,9.3808 22.506,8.528 C22.506,7.7408 23.133,7.1176 23.958,7.1176" id="Shape"></path>
                            <path d="M23.034,8.3968 C23.034,7.872 23.232,7.2488 23.925,7.2488 C24.585,7.2488 24.882,7.9376 24.915,8.528 C24.915,9.0856 24.783,9.7744 23.991,9.7744 L23.991,9.7416 C24.75,9.7416 24.849,9.0856 24.849,8.528 C24.849,7.9704 24.552,7.2816 23.925,7.2816 C23.265,7.2816 23.067,7.872 23.067,8.3968 C23.067,9.0856 23.397,9.7416 23.991,9.7416 L23.991,9.7744 C23.364,9.7744 23.034,9.1184 23.034,8.3968 M22.473,8.5608 C22.473,7.7408 23.1,7.1176 23.925,7.1176 L23.925,7.1504 L23.925,7.1832 C23.133,7.1832 22.506,7.8064 22.506,8.5936 C22.506,9.4136 23.133,9.9712 23.958,9.9712 C24.783,9.9712 25.41,9.3808 25.41,8.4952 C25.41,7.6752 24.75,7.1832 23.925,7.1832 L23.925,7.1504 L23.925,7.1176 C24.75,7.1176 25.443,7.6424 25.443,8.4624 C25.443,9.3808 24.783,9.9712 23.958,9.9712 C23.133,9.9384 22.473,9.3808 22.473,8.5608" id="Shape"></path>
                            <path d="M28.083,9.1184 L28.083,7.6424 C28.083,7.3144 27.852,7.2816 27.753,7.2816 L27.654,7.2816 L27.654,7.1504 C27.852,7.1504 28.017,7.1504 28.215,7.1504 C28.38,7.1504 28.545,7.1504 28.71,7.1504 L28.71,7.2816 L28.644,7.2816 C28.479,7.2816 28.281,7.3144 28.281,7.7736 L28.281,9.5448 C28.281,9.676 28.281,9.8072 28.314,9.9384 L28.182,9.9384 L26.169,7.708 L26.169,9.3152 C26.169,9.6432 26.235,9.7744 26.532,9.7744 L26.598,9.7744 L26.598,9.9056 C26.433,9.9056 26.268,9.9056 26.103,9.9056 C25.938,9.9056 25.74,9.9056 25.575,9.9056 L25.575,9.7744 L25.641,9.7744 C25.905,9.7744 26.004,9.5776 26.004,9.2824 L26.004,7.6424 C26.004,7.4128 25.839,7.2816 25.641,7.2816 L25.575,7.2816 L25.575,7.1504 C25.74,7.1504 25.872,7.1504 26.037,7.1504 C26.169,7.1504 26.268,7.1504 26.4,7.1504 L28.083,9.1184 Z" id="Shape"></path>
                            <path d="M28.149,9.9056 L28.281,9.9056 C28.281,9.7744 28.248,9.676 28.248,9.5448 L28.248,7.7736 C28.248,7.3144 28.446,7.2488 28.611,7.2488 L28.644,7.2488 L28.644,7.1504 C28.479,7.1504 28.347,7.1504 28.182,7.1504 C28.017,7.1504 27.819,7.1504 27.654,7.1504 L27.654,7.2488 L27.72,7.2488 C27.852,7.2488 28.083,7.3144 28.083,7.6424 L28.083,9.1184 L26.334,7.1504 C26.202,7.1504 26.103,7.1504 25.971,7.1504 C25.839,7.1504 25.674,7.1504 25.542,7.1504 L25.542,7.2488 L25.575,7.2488 C25.773,7.2488 25.938,7.38 25.938,7.6096 L25.938,9.2496 C25.938,9.5448 25.839,9.7744 25.575,9.7744 L25.542,9.7744 L25.542,9.8728 C25.707,9.8728 25.872,9.8728 26.07,9.8728 C26.235,9.8728 26.4,9.8728 26.565,9.8728 L26.565,9.8072 L26.499,9.8072 C26.202,9.8072 26.103,9.676 26.103,9.348 L26.103,7.708 L28.149,9.9056 Z M28.314,9.9712 L28.149,9.9712 L26.169,7.7736 L26.169,9.3152 C26.169,9.6432 26.235,9.7416 26.532,9.7416 L26.631,9.7416 L26.631,9.7744 L26.631,9.9056 C26.466,9.9056 26.301,9.9056 26.136,9.9056 C25.971,9.9056 25.773,9.9056 25.608,9.9056 L25.608,9.7744 L25.674,9.7744 C25.938,9.7744 26.004,9.6104 26.004,9.3152 L26.004,7.6752 C26.004,7.4784 25.839,7.3472 25.674,7.3472 L25.608,7.3472 L25.608,7.3144 L25.608,7.1832 C25.773,7.1832 25.905,7.1832 26.07,7.1832 C26.202,7.1832 26.301,7.1832 26.433,7.1832 L28.149,9.1184 L28.149,7.6752 C28.149,7.38 27.951,7.3144 27.819,7.3144 L27.72,7.3144 L27.72,7.2816 L27.72,7.1504 L27.753,7.1504 C27.951,7.1504 28.116,7.1504 28.314,7.1504 C28.479,7.1504 28.644,7.1504 28.809,7.1504 L28.809,7.2816 L28.743,7.2816 C28.578,7.2816 28.413,7.3144 28.413,7.7736 L28.413,9.5448 C28.281,9.676 28.314,9.8072 28.314,9.9712 Z" id="Shape"></path>
                            <path d="M29.898,7.6096 L29.535,8.7248 L30.261,8.7248 L29.898,7.6096 Z M29.304,9.3152 C29.271,9.4464 29.205,9.5448 29.205,9.6104 C29.205,9.7416 29.37,9.7416 29.502,9.7416 L29.535,9.7416 L29.535,9.8728 C29.37,9.8728 29.205,9.8728 29.073,9.8728 C28.941,9.8728 28.809,9.8728 28.644,9.8728 L28.644,9.7416 L28.677,9.7416 C28.842,9.7416 28.974,9.6432 29.007,9.4792 L29.634,7.708 C29.7,7.5768 29.766,7.38 29.766,7.216 C29.898,7.1832 30.063,7.0848 30.129,7.052 C30.129,7.052 30.162,7.052 30.162,7.052 C30.162,7.052 30.195,7.052 30.195,7.052 C30.195,7.0848 30.228,7.1176 30.228,7.1504 L30.954,9.184 C30.987,9.3152 31.053,9.4792 31.086,9.5776 C31.119,9.676 31.218,9.7416 31.35,9.7416 L31.383,9.7416 L31.383,9.8728 C31.218,9.8728 31.02,9.8728 30.855,9.8728 C30.657,9.8728 30.459,9.8728 30.261,9.8728 L30.261,9.7416 L30.294,9.7416 C30.393,9.7416 30.525,9.7416 30.525,9.6432 C30.525,9.5776 30.492,9.4792 30.459,9.348 L30.294,8.8888 L29.403,8.8888 L29.304,9.3152 Z" id="Shape"></path>
                            <path d="M29.535,8.692 L30.228,8.692 L29.898,7.6424 L29.535,8.692 Z M29.502,8.7248 L29.865,7.5768 L29.865,7.6096 L29.865,7.5768 L30.228,8.7248 L29.502,8.7248 Z M30.294,9.8728 C30.492,9.8728 30.69,9.8728 30.855,9.8728 C31.053,9.8728 31.218,9.8728 31.383,9.8728 L31.383,9.8072 C31.251,9.8072 31.152,9.7416 31.119,9.6432 C31.053,9.512 31.02,9.3808 30.987,9.2496 L30.261,7.216 C30.261,7.1832 30.228,7.1504 30.228,7.1176 C30.228,7.1176 30.228,7.1176 30.228,7.1176 C30.228,7.1176 30.228,7.1176 30.195,7.1176 C30.129,7.1504 29.964,7.2488 29.832,7.2816 C29.799,7.4128 29.733,7.6096 29.7,7.7736 L29.04,9.512 C28.974,9.676 28.842,9.7744 28.677,9.7744 L28.677,9.84 C28.809,9.84 28.941,9.84 29.073,9.84 C29.238,9.84 29.37,9.84 29.535,9.84 L29.535,9.7744 L29.502,9.7744 C29.37,9.7744 29.205,9.7744 29.205,9.6104 C29.205,9.5448 29.238,9.4464 29.304,9.3152 L29.436,8.8888 L30.36,8.8888 L30.525,9.348 C30.558,9.4792 30.591,9.5776 30.591,9.6432 C30.591,9.7744 30.426,9.7744 30.327,9.7744 L30.294,9.7744 L30.294,9.8728 Z M31.383,9.9056 C31.218,9.9056 31.02,9.9056 30.855,9.9056 C30.657,9.9056 30.459,9.9056 30.261,9.9056 L30.228,9.9056 L30.228,9.8728 L30.228,9.7416 L30.261,9.7416 C30.36,9.7416 30.492,9.7088 30.492,9.6432 C30.492,9.6104 30.459,9.4792 30.426,9.3808 L30.294,8.9544 L29.436,8.9544 L29.304,9.348 C29.271,9.4792 29.205,9.5776 29.205,9.6432 C29.205,9.7416 29.337,9.7744 29.469,9.7744 L29.535,9.7744 L29.535,9.8072 L29.535,9.9384 L29.502,9.9384 C29.337,9.9384 29.172,9.9384 29.04,9.9384 C28.908,9.9384 28.776,9.9384 28.611,9.9384 L28.578,9.9384 L28.578,9.9056 L28.578,9.7744 L28.611,9.7744 L28.644,9.7744 C28.776,9.7744 28.908,9.676 28.974,9.5448 L29.601,7.7736 C29.667,7.6424 29.733,7.4456 29.766,7.2816 C29.898,7.2488 30.03,7.1504 30.129,7.1176 C30.129,7.1176 30.162,7.1176 30.162,7.1176 C30.162,7.1176 30.195,7.1176 30.195,7.1504 C30.195,7.1832 30.228,7.216 30.228,7.2488 L30.954,9.2824 C30.987,9.4136 31.053,9.5776 31.086,9.676 C31.119,9.7744 31.218,9.8072 31.317,9.8072 L31.35,9.8072 L31.35,9.84 L31.383,9.9056 Z" id="Shape"></path>
                            <path d="M32.373,9.512 C32.373,9.676 32.472,9.7088 32.604,9.7416 C32.769,9.7416 32.934,9.7416 33.132,9.7416 C33.297,9.7088 33.429,9.6432 33.495,9.5448 C33.561,9.4464 33.594,9.348 33.627,9.2496 L33.726,9.2496 C33.693,9.4792 33.627,9.676 33.594,9.9056 C33.264,9.9056 32.901,9.9056 32.571,9.9056 C32.241,9.9056 31.878,9.9056 31.548,9.9056 L31.548,9.7744 L31.614,9.7744 C31.746,9.7744 31.911,9.7416 31.911,9.512 L31.911,7.5112 C31.911,7.3144 31.746,7.2816 31.614,7.2816 L31.548,7.2816 L31.548,7.1504 C31.746,7.1504 31.944,7.1504 32.175,7.1504 C32.373,7.1504 32.571,7.1504 32.769,7.1504 L32.769,7.2816 L32.67,7.2816 C32.538,7.2816 32.406,7.2816 32.406,7.4784 L32.406,9.512 L32.373,9.512 Z" id="Shape"></path>
                            <path d="M33.594,9.8728 C33.627,9.676 33.693,9.4464 33.726,9.2496 L33.66,9.2496 C33.627,9.348 33.594,9.4464 33.528,9.512 C33.462,9.6104 33.297,9.7088 33.132,9.7416 C33.033,9.7416 32.934,9.7744 32.835,9.7744 C32.769,9.7744 32.67,9.7744 32.604,9.7744 C32.472,9.7744 32.34,9.7088 32.34,9.5448 L32.34,7.544 C32.34,7.3144 32.472,7.3144 32.637,7.3144 L32.703,7.3144 L32.703,7.216 C32.505,7.216 32.307,7.216 32.142,7.216 C31.944,7.216 31.746,7.216 31.548,7.216 L31.548,7.3144 L31.581,7.3144 C31.713,7.3144 31.878,7.3472 31.878,7.544 L31.878,9.5448 C31.878,9.8072 31.713,9.8072 31.581,9.8072 L31.548,9.8072 L31.548,9.9056 C31.878,9.9056 32.208,9.9056 32.571,9.9056 C32.901,9.84 33.231,9.8728 33.594,9.8728 Z M33.594,9.9056 C33.264,9.9056 32.901,9.9056 32.571,9.9056 C32.241,9.9056 31.878,9.9056 31.548,9.9056 L31.548,9.7744 L31.614,9.7744 C31.746,9.7744 31.878,9.7744 31.878,9.5448 L31.878,7.544 C31.878,7.3472 31.746,7.3472 31.614,7.3472 L31.548,7.3472 L31.548,7.3144 L31.548,7.1832 C31.746,7.1832 31.944,7.1832 32.175,7.1832 C32.373,7.1832 32.571,7.1832 32.769,7.1832 L32.769,7.3144 L32.67,7.3144 C32.505,7.3144 32.439,7.3144 32.406,7.5112 L32.406,9.512 C32.406,9.6432 32.505,9.7088 32.637,9.7088 C32.703,9.7088 32.769,9.7088 32.868,9.7088 C32.967,9.7088 33.066,9.7088 33.165,9.7088 C33.33,9.676 33.462,9.6104 33.528,9.512 C33.594,9.4136 33.627,9.3152 33.66,9.2496 L33.792,9.2496 L33.792,9.2824 C33.726,9.4464 33.66,9.676 33.594,9.9056 Z" id="Shape"></path>
                        </g>
                    </g>
                </g>
            </g>
        </g>
    </g>
</svg>