<?xml version="1.0" encoding="UTF-8"?>
<svg width="66px" height="41px" viewBox="0 0 66 41" version="1.1" xmlns="http://www.w3.org/2000/svg" xmlns:xlink="http://www.w3.org/1999/xlink">
    <!-- Generator: sketchtool 49.3 (51167) - http://www.bohemiancoding.com/sketch -->
    <title>6DCC73C0-6BBB-433F-8E88-844B39F3CEBD</title>
    <desc>Created with sketchtool.</desc>
    <defs></defs>
    <g id="v1.1-16092018" stroke="none" stroke-width="1" fill="none" fill-rule="evenodd">
        <g id="2.4.2---dati-carta" transform="translate(-113.000000, -402.000000)">
            <g id="Group-14" transform="translate(27.000000, 402.000000)">
                <g id="icons/cards/maestro" transform="translate(86.105858, 0.000000)">
                    <g fill="#000000" id="Shape">
                        <path d="M66,38.704 C66,39.9176 65.0050251,40.8688 63.8110553,40.8688 L2.18894472,40.8688 C0.961809045,40.8688 0,39.8848 0,38.704 L0,2.2304 C0,1.0168 0.994974874,0.0656 2.18894472,0.0656 L63.8110553,0.0656 C65.038191,0.0656 66,1.0496 66,2.2304 L66,38.704 Z" fill-rule="nonzero"></path>
                    </g>
                    <g id="ms_acc" transform="translate(4.974874, 2.952000)">
                        <rect id="Rectangle-path" fill="#000000" fill-rule="nonzero" x="0" y="0" width="55.8247236" height="34.91232"></rect>
                        <path d="M20.2842211,31.99312 L20.2842211,30.02512 C20.3076897,29.6911656 20.1846886,29.3633769 19.9466106,29.1254135 C19.7085326,28.88745 19.3784116,28.7623347 19.0405025,28.782 C18.5940354,28.7530533 18.1670239,28.9667177 17.9261307,29.3396 C17.7065052,28.9778355 17.3043637,28.7638798 16.8780905,28.782 C16.5069374,28.763444 16.1536033,28.9406584 15.9494472,29.24776 L15.9494472,28.86072 L15.259598,28.86072 L15.259598,31.99312 L15.9560804,31.99312 L15.9560804,30.24816 C15.9248306,30.0308063 15.9939518,29.8110651 16.144362,29.6496003 C16.2947721,29.4881355 16.5105628,29.4020245 16.7321608,29.41504 C17.1898492,29.41504 17.4220101,29.71024 17.4220101,30.2416 L17.4220101,31.98328 L18.1184925,31.98328 L18.1184925,30.24816 C18.0897276,30.0313005 18.159708,29.8129937 18.3095547,29.6521337 C18.4594013,29.4912738 18.6736762,29.4044334 18.8945729,29.41504 C19.3655276,29.41504 19.5910553,29.71024 19.5910553,30.2416 L19.5910553,31.98328 L20.2842211,31.99312 Z M24.1646231,30.42856 L24.1646231,28.864 L23.4681407,28.864 L23.4681407,29.24448 C23.2308275,28.9416115 22.860315,28.7706129 22.4731658,28.78528 C21.5573167,28.78528 20.8148744,29.519533 20.8148744,30.42528 C20.8148744,31.331027 21.5573167,32.06528 22.4731658,32.06528 C22.860315,32.0799471 23.2308275,31.9089485 23.4681407,31.60608 L23.4681407,31.98656 L24.1579899,31.98656 L24.1646231,30.42856 Z M21.6009045,30.42856 C21.6315813,29.9138193 22.0726692,29.5177396 22.5936873,29.5370798 C23.1147054,29.55642 23.52453,29.9840857 23.5161038,30.4996523 C23.5076776,31.015219 23.0840916,31.4295625 22.5627136,31.43224 C22.2957801,31.4384313 22.0385699,31.3330727 21.8542382,31.1420339 C21.6699064,30.950995 21.5755261,30.6919702 21.5942714,30.42856 L21.6009045,30.42856 Z M38.9035176,28.78856 C39.1306289,28.7879796 39.3557642,28.8302834 39.5668342,28.9132 C39.772121,28.9928222 39.9592892,29.112136 40.1173869,29.26416 C40.2708378,29.4125695 40.3926361,29.5899059 40.4755779,29.78568 C40.6488554,30.2062261 40.6488554,30.6771339 40.4755779,31.09768 C40.3927157,31.2934968 40.2709072,31.4708479 40.1173869,31.6192 C39.9619266,31.7689615 39.7782534,31.887088 39.5767839,31.96688 C39.1394458,32.1349435 38.654323,32.1349435 38.2169849,31.96688 C38.0164552,31.8871672 37.8338538,31.7690052 37.6796985,31.6192 C37.527714,31.4702666 37.4070969,31.2930089 37.3248241,31.09768 C37.1518989,30.6770657 37.1518989,30.2062943 37.3248241,29.78568 C37.4070969,29.5903511 37.527714,29.4130934 37.6796985,29.26416 C37.8338538,29.1143548 38.0164552,28.9961928 38.2169849,28.91648 C38.4325465,28.828118 38.6635401,28.7824289 38.8968844,28.782 L38.9035176,28.78856 Z M38.9035176,29.44456 C38.7684439,29.4427379 38.6343311,29.4672584 38.5088442,29.51672 C38.3906469,29.5635879 38.2834158,29.6339147 38.1937688,29.72336 C38.1023148,29.8175216 38.0312204,29.9291251 37.9848241,30.05136 C37.8835045,30.3132493 37.8835045,30.6029107 37.9848241,30.8648 C38.0311365,30.987076 38.1022411,31.0986955 38.1937688,31.1928 C38.2833556,31.2823176 38.3906029,31.352655 38.5088442,31.39944 C38.7615142,31.4972871 39.0422044,31.4972871 39.2948744,31.39944 C39.4187694,31.3541489 39.531734,31.2837663 39.6265327,31.1928 C39.7182846,31.0988692 39.7894202,30.987201 39.8354774,30.8648 C39.936797,30.6029107 39.936797,30.3132493 39.8354774,30.05136 C39.7893345,29.9290009 39.7182094,29.8173492 39.6265327,29.72336 C39.531734,29.6323937 39.4187694,29.5620111 39.2948744,29.51672 C39.1697618,29.4600767 39.0344253,29.4288465 38.8968844,29.42488 L38.9035176,29.44456 Z M27.9123618,30.42856 C27.9123618,29.44456 27.2954774,28.78856 26.4099497,28.78856 C25.4941007,28.8012405 24.7620526,29.5457731 24.7748745,30.45152 C24.7876964,31.3572669 25.5405329,32.0812404 26.4563819,32.06856 C26.9285521,32.0845146 27.3901469,31.9280659 27.7531658,31.62904 L27.4215075,31.12392 C27.1596175,31.3316354 26.8351695,31.447056 26.4994975,31.45192 C26.0253476,31.4922476 25.6048759,31.15202 25.5509548,30.6844 L27.9024121,30.6844 C27.9123618,30.60568 27.9123618,30.5204 27.9123618,30.42856 Z M25.5542714,30.15304 C25.5792546,29.7151021 25.9534149,29.377119 26.3966834,29.39208 C26.6051648,29.3876843 26.8068684,29.4653978 26.9573978,29.6081152 C27.1079273,29.7508326 27.1949445,29.9468563 27.1992965,30.15304 L25.5542714,30.15304 Z M30.8143719,29.66104 C30.5114913,29.488563 30.168878,29.3959483 29.819397,29.39208 C29.4413065,29.39208 29.2157789,29.52984 29.2157789,29.75944 C29.2157789,29.98904 29.4545729,30.0284 29.7530653,30.06776 L30.0847236,30.11368 C30.7745729,30.21208 31.1924623,30.50072 31.1924623,31.05176 C31.1924623,31.6028 30.661809,32.07512 29.7497487,32.07512 C29.2609239,32.0879796 28.7808194,31.945422 28.38,31.6684 L28.7116583,31.13704 C29.0160222,31.3603521 29.3875124,31.4758844 29.7663317,31.46504 C30.2372864,31.46504 30.4893467,31.32728 30.4893467,31.08456 C30.4893467,30.90744 30.3102513,30.80904 29.9321608,30.75656 L29.6005025,30.71064 C28.8907538,30.61224 28.5060302,30.29736 28.5060302,29.78568 C28.5060302,29.16248 29.0234171,28.782 29.8326633,28.782 C30.2855895,28.7669923 30.7333586,28.8808304 31.1228141,29.11 L30.8143719,29.66104 Z M34.1309548,29.48392 L33.0066332,29.48392 L33.0066332,30.90416 C33.0066332,31.23216 33.119397,31.42896 33.4643216,31.42896 C33.6796112,31.4219089 33.8895749,31.3609688 34.0745729,31.25184 L34.2735678,31.83568 C34.0149764,31.9952775 33.7160697,32.0794126 33.4112563,32.0784 C32.5953769,32.0784 32.3101508,31.64544 32.3101508,30.91728 L32.3101508,29.49048 L31.6667337,29.49048 L31.6667337,28.86728 L32.3101508,28.86728 L32.3101508,27.91608 L33.0066332,27.91608 L33.0066332,28.86728 L34.1309548,28.86728 L34.1309548,29.48392 Z M36.5155779,28.782 C36.6829127,28.7825753 36.8489184,28.8114168 37.0064322,28.86728 L36.7941709,29.52328 C36.6570925,29.4692296 36.5105719,29.442478 36.3630151,29.44456 C35.9119598,29.44456 35.6996985,29.7332 35.6996985,30.25144 L35.6996985,32.00624 L35.0098492,32.00624 L35.0098492,28.87384 L35.6930653,28.87384 L35.6930653,29.25432 C35.865522,28.9613514 36.1862138,28.7851545 36.5288442,28.79512 L36.5155779,28.782 Z M41.2848241,31.53392 C41.327944,31.5333975 41.370753,31.5411964 41.4108543,31.55688 C41.4489428,31.5722514 41.4838074,31.5944965 41.5136683,31.62248 C41.5428109,31.6507606 41.5664228,31.6841198 41.5833166,31.72088 C41.6172655,31.7983035 41.6172655,31.8861765 41.5833166,31.9636 C41.5664228,32.0003602 41.5428109,32.0337194 41.5136683,32.062 C41.4838074,32.0899835 41.4489428,32.1122286 41.4108543,32.1276 C41.3711489,32.1449267 41.328223,32.153864 41.2848241,32.15384 C41.1564888,32.1528833 41.0402304,32.0787876 40.9863317,31.9636 C40.9527758,31.8860963 40.9527758,31.7983837 40.9863317,31.72088 C41.0032255,31.6841198 41.0268374,31.6507606 41.0559799,31.62248 C41.0858409,31.5944965 41.1207054,31.5722514 41.158794,31.55688 C41.1938958,31.5442728 41.2308986,31.5376193 41.2682412,31.5372 L41.2848241,31.53392 Z M41.2848241,32.08824 C41.3179268,32.0884389 41.3506998,32.081733 41.381005,32.06856 C41.4095397,32.0559607 41.4354183,32.0381568 41.4572864,32.01608 C41.5143952,31.9591978 41.539424,31.8780989 41.5241666,31.799373 C41.5089092,31.7206472 41.4553333,31.6544479 41.381005,31.62248 C41.3506699,31.6093998 41.3179169,31.6026981 41.2848241,31.6028 C41.2517599,31.6029728 41.2190623,31.6096632 41.1886432,31.62248 C41.1588452,31.6345635 41.1317844,31.6524051 41.1090452,31.67496 C41.0230472,31.7677535 41.0230472,31.9101665 41.1090452,32.00296 C41.1554389,32.0494167 41.2188021,32.0754283 41.2848241,32.07512 L41.2848241,32.08824 Z M41.3047236,31.69792 C41.3356844,31.6964351 41.3661935,31.705719 41.3909548,31.72416 C41.4115516,31.7410179 41.4226651,31.7666635 41.420804,31.79304 C41.4217668,31.8150669 41.4133452,31.8364836 41.3975879,31.85208 C41.3783644,31.8693479 41.3538411,31.8797419 41.3279397,31.8816 L41.4241206,31.98984 L41.3478392,31.98984 L41.2582915,31.8816 L41.2284422,31.8816 L41.2284422,31.98984 L41.1654271,31.98984 L41.1654271,31.7012 L41.3047236,31.69792 Z M41.2317588,31.75368 L41.2317588,31.8324 L41.3047236,31.8324 C41.3177076,31.8362284 41.3315387,31.8362284 41.3445226,31.8324 C41.349253,31.823116 41.349253,31.812164 41.3445226,31.80288 C41.349253,31.793596 41.349253,31.782644 41.3445226,31.77336 C41.3315387,31.7695316 41.3177076,31.7695316 41.3047236,31.77336 L41.2317588,31.75368 Z" id="Shape" fill="#FFFFFF" fill-rule="nonzero"></path>
                        <g id="_Group_" transform="translate(8.291457, 2.296000)" fill-rule="nonzero">
                            <rect id="Rectangle-path" fill="#7673C0" x="14.3972864" y="2.66992" width="10.4472362" height="18.56808"></rect>
                            <path d="M15.060603,11.95232 C15.0577167,8.32956048 16.7393275,4.90667621 19.6209045,2.66992 C14.7255586,-1.13486302 7.69564554,-0.580663467 3.4715993,3.9430421 C-0.752446939,8.46674766 -0.752446939,15.4411723 3.4715993,19.9648779 C7.69564554,24.4885835 14.7255586,25.042783 19.6209045,21.238 C16.7384105,19.0005335 15.056697,15.5762305 15.060603,11.95232 Z" id="_Path_" fill="#EB001B"></path>
                            <path d="M38.94,11.95232 C38.9398934,16.4732688 36.3296572,20.5973013 32.2178686,22.5729252 C28.10608,24.5485491 23.2146177,24.0289175 19.6209045,21.23472 C22.5012242,18.9960648 24.1829616,15.5736357 24.1829616,11.95068 C24.1829616,8.32772435 22.5012242,4.90529516 19.6209045,2.66664 C23.2146177,-0.127557503 28.10608,-0.647189075 32.2178686,1.32843481 C36.3296572,3.30405869 38.9398934,7.42809123 38.94,11.94904 L38.94,11.95232 Z" id="Shape" fill="#00A1DF"></path>
                        </g>
                    </g>
                </g>
            </g>
        </g>
    </g>
</svg>