<?xml version="1.0" encoding="UTF-8"?>
<svg width="66px" height="41px" viewBox="0 0 66 41" version="1.1" xmlns="http://www.w3.org/2000/svg" xmlns:xlink="http://www.w3.org/1999/xlink">
    <!-- Generator: sketchtool 49.3 (51167) - http://www.bohemiancoding.com/sketch -->
    <title>69A89502-06D1-4899-A170-A96194107CE6</title>
    <desc>Created with sketchtool.</desc>
    <defs></defs>
    <g id="v1.1-16092018" stroke="none" stroke-width="1" fill="none" fill-rule="evenodd">
        <g id="2.4.2---dati-carta" transform="translate(-27.000000, -402.000000)">
            <g id="Group-14" transform="translate(27.000000, 402.000000)">
                <g id="icons/cards/mastercard">
                    <g>
                        <path d="M63.624,40.8688 L2.277,40.8688 C1.056,40.8688 0.099,39.8848 0.099,38.704 L0.099,2.2304 C0.099,1.0168 1.089,0.0656 2.277,0.0656 L63.591,0.0656 C64.812,0.0656 65.769,1.0496 65.769,2.2304 L65.769,38.704 C65.802,39.9176 64.812,40.8688 63.624,40.8688 Z" id="Shape" fill="#000000" fill-rule="nonzero"></path>
                        <g id="mc_acc" transform="translate(5.280000, 2.952000)" fill-rule="nonzero">
                            <rect id="_Path_" fill="#000000" x="0" y="0" width="55.5456" height="34.91232"></rect>
                            <path d="M15.51,31.9964 L15.51,30.0284 C15.5383235,29.6975394 15.4207071,29.3707583 15.1876638,29.132833 C14.9546205,28.8949078 14.6291177,28.7692869 14.2956,28.78856 C13.8515126,28.7603288 13.4269814,28.9738196 13.1868,29.34616 C12.9677599,28.9849302 12.5679755,28.7711598 12.144,28.78856 C11.7683114,28.7664272 11.408161,28.9404393 11.1936,29.24776 L11.1936,28.864 L10.5435,28.864 L10.5435,32.00296 L11.1837,32.00296 L11.1837,30.19896 C11.1600611,29.9785946 11.2351033,29.7590445 11.3889045,29.5985951 C11.5427057,29.4381457 11.7597072,29.3530285 11.9823,29.36584 C12.4377,29.36584 12.6951,29.66104 12.6951,30.1924 L12.6951,31.99968 L13.3353,31.99968 L13.3353,30.19896 C13.3128288,29.9788598 13.3882633,29.7599917 13.5417982,29.5998202 C13.695333,29.4396487 13.9116301,29.3541749 14.1339,29.36584 C14.6025,29.36584 14.8533,29.66104 14.8533,30.1924 L14.8533,31.99968 L15.51,31.9964 Z M25.7928,28.864 L24.6444,28.864 L24.6444,27.9128 L24.0009,27.9128 L24.0009,28.864 L23.3409,28.864 L23.3409,29.43472 L24.0009,29.43472 L24.0009,30.92056 C24.0009,31.64872 24.2583,32.08168 25.0701,32.08168 C25.3733646,32.0825149 25.6707283,31.9983935 25.9281,31.83896 L25.7301,31.28136 C25.5460271,31.3904888 25.3371132,31.4514289 25.1229,31.45848 C24.7929,31.45848 24.6411,31.24856 24.6411,30.93368 L24.6411,29.42816 L25.7895,29.42816 L25.7928,28.864 Z M31.6536,28.78528 C31.30636,28.7781592 30.9807602,28.9524196 30.7956,29.24448 L30.7956,28.864 L30.1686,28.864 L30.1686,32.00296 L30.8022,32.00296 L30.8022,30.23176 C30.8022,29.71352 31.053,29.37896 31.5018,29.37896 C31.6486118,29.376964 31.794383,29.4037125 31.9308,29.45768 L32.142,28.864 C31.9852408,28.808261 31.8200866,28.7794233 31.6536,28.77872 L31.6536,28.78528 Z M22.7931,29.11328 C22.4044945,28.8838442 21.9578332,28.7700098 21.5061,28.78528 C20.7075,28.78528 20.2191,29.1592 20.2191,29.76928 C20.2191,30.28096 20.5755,30.58928 21.2817,30.68768 L21.6117,30.7336 C21.9879,30.78608 22.1925,30.91728 22.1925,31.0944 C22.1925,31.33712 21.9153,31.49456 21.4467,31.49456 C21.0694501,31.5077578 20.6990532,31.3919867 20.3973,31.16656 L20.0673,31.65856 C20.4694941,31.9311547 20.9467631,32.0732384 21.4335,32.06528 C22.3443,32.06528 22.8492,31.64544 22.8492,31.04848 C22.8492,30.45152 22.4631,30.2252 21.78,30.1268 L21.45,30.08088 C21.153,30.04152 20.889,29.94968 20.889,29.75288 C20.889,29.55608 21.1398,29.36584 21.516,29.36584 C21.8636924,29.3700006 22.2045197,29.4625955 22.506,29.6348 L22.7931,29.11328 Z M32.3631,30.42528 C32.3411223,30.8665699 32.507892,31.2965232 32.8222182,31.6089444 C33.1365443,31.9213655 33.5691194,32.0871245 34.0131,32.06528 C34.4252299,32.0861211 34.8302572,31.9527104 35.1483,31.69136 L34.8183,31.19936 C34.5809081,31.3789974 34.2916397,31.4779027 33.9933,31.48144 C33.4416309,31.4286571 33.0205821,30.9679402 33.0205821,30.41708 C33.0205821,29.8662198 33.4416309,29.4055029 33.9933,29.35272 C34.2916397,29.3562573 34.5809081,29.4551626 34.8183,29.6348 L35.1483,29.1428 C34.8302572,28.8814496 34.4252299,28.7480389 34.0131,28.76888 C33.5691194,28.7470355 33.1365443,28.9127945 32.8222182,29.2252156 C32.507892,29.5376368 32.3411223,29.9675901 32.3631,30.40888 L32.3631,30.42528 Z M27.9213,28.78528 C26.9973,28.78528 26.3604,29.44128 26.3604,30.42528 C26.333104,30.8605058 26.4921375,31.286927 26.7982535,31.5993097 C27.1043695,31.9116924 27.5290534,32.0809382 27.9675,32.06528 C28.438341,32.0814299 28.8987302,31.9250057 29.2611,31.62576 L28.9311,31.16 C28.6703949,31.3674944 28.3476479,31.4828868 28.0137,31.488 C27.5345964,31.505452 27.1210994,31.157034 27.06,30.6844 L29.4195,30.6844 C29.4195,30.59912 29.4195,30.51384 29.4195,30.422 C29.4195,29.438 28.8189,28.782 27.9312,28.782 L27.9213,28.78528 Z M27.9213,29.36912 C28.1382482,29.3620399 28.348883,29.4423206 28.5054462,29.5917598 C28.6620094,29.741199 28.7512377,29.9471367 28.7529,30.16288 L27.06,30.16288 C27.0848833,29.7068278 27.4719387,29.3541773 27.9312,29.36912 L27.9213,29.36912 Z M19.371,30.42856 L19.371,28.864 L18.7374,28.864 L18.7374,29.24448 C18.488536,28.9393741 18.1092381,28.7691164 17.7144,28.78528 C16.7985738,28.78528 16.05615,29.5232043 16.05615,30.43348 C16.05615,31.3437557 16.7985738,32.08168 17.7144,32.08168 C18.1092381,32.0978436 18.488536,31.9275859 18.7374,31.62248 L18.7374,32.00296 L19.371,32.00296 L19.371,30.42856 Z M16.8135,30.42856 C16.791348,30.1542381 16.8857875,29.8832314 17.0739034,29.6812974 C17.2620194,29.4793635 17.5266192,29.3649578 17.8035,29.36584 C18.3551691,29.4186229 18.7762179,29.8793398 18.7762179,30.4302 C18.7762179,30.9810602 18.3551691,31.4417771 17.8035,31.49456 C17.5266192,31.4954422 17.2620194,31.3810365 17.0739034,31.1791026 C16.8857875,30.9771686 16.791348,30.7061619 16.8135,30.43184 L16.8135,30.42856 Z M41.1972,28.78856 C40.84996,28.7814392 40.5243602,28.9556996 40.3392,29.24776 L40.3392,28.864 L39.7122,28.864 L39.7122,32.00296 L40.3458,32.00296 L40.3458,30.23176 C40.3458,29.71352 40.5966,29.37896 41.0454,29.37896 C41.1922118,29.376964 41.337983,29.4037125 41.4744,29.45768 L41.6856,28.86728 C41.5288408,28.811541 41.3636866,28.7827033 41.1972,28.782 L41.1972,28.78856 Z M46.2858,31.55032 C46.3287043,31.5497975 46.3712993,31.5575964 46.4112,31.57328 C46.4490981,31.5886514 46.4837883,31.6108965 46.5135,31.63888 C46.5424968,31.6671606 46.5659907,31.7005198 46.5828,31.73728 C46.6165792,31.8147035 46.6165792,31.9025765 46.5828,31.98 C46.5659907,32.0167602 46.5424968,32.0501194 46.5135,32.0784 C46.4837883,32.1063835 46.4490981,32.1286286 46.4112,32.144 C46.3716932,32.1613267 46.3289819,32.170264 46.2858,32.17024 C46.1581064,32.1692833 46.0424292,32.0951876 45.9888,31.98 C45.9554119,31.9024963 45.9554119,31.8147837 45.9888,31.73728 C46.0056093,31.7005198 46.0291032,31.6671606 46.0581,31.63888 C46.0878117,31.6108965 46.1225019,31.5886514 46.1604,31.57328 C46.1996062,31.5542113 46.2422289,31.5430628 46.2858,31.54048 L46.2858,31.55032 Z M46.2858,32.10464 C46.3187371,32.1048389 46.3513463,32.098133 46.3815,32.08496 C46.4098536,32.0722931 46.4355908,32.0544975 46.4574,32.03248 C46.542968,31.9396865 46.542968,31.7972735 46.4574,31.70448 C46.4356931,31.6823423 46.4099314,31.6645298 46.3815,31.652 C46.3513463,31.638827 46.3187371,31.6321211 46.2858,31.63232 C46.2528917,31.6324038 46.22034,31.6390978 46.1901,31.652 C46.160451,31.6640835 46.1335255,31.6819251 46.1109,31.70448 C46.025332,31.7972735 46.025332,31.9396865 46.1109,32.03248 C46.133635,32.0549019 46.1605324,32.0727248 46.1901,32.08496 C46.2208027,32.0956239 46.2533393,32.1000845 46.2858,32.09808 L46.2858,32.10464 Z M46.3056,31.71432 C46.3364059,31.7128351 46.3667625,31.722119 46.3914,31.74056 C46.4118938,31.7574179 46.4229518,31.7830635 46.4211,31.80944 C46.422058,31.8314669 46.4136785,31.8528836 46.398,31.86848 C46.3788726,31.8857479 46.3544719,31.8961419 46.3287,31.898 L46.4244,32.00624 L46.3485,32.00624 L46.2594,31.898 L46.2297,31.898 L46.2297,32.00624 L46.167,32.00624 L46.167,31.7176 L46.3056,31.71432 Z M46.233,31.77008 L46.233,31.8488 L46.3056,31.8488 C46.318519,31.8526284 46.332281,31.8526284 46.3452,31.8488 C46.3499067,31.839516 46.3499067,31.828564 46.3452,31.81928 C46.3499067,31.809996 46.3499067,31.799044 46.3452,31.78976 C46.332255,31.7861127 46.318545,31.7861127 46.3056,31.78976 L46.233,31.77008 Z M38.7651,30.43512 L38.7651,28.864 L38.1315,28.864 L38.1315,29.24448 C37.882636,28.9393741 37.5033381,28.7691164 37.1085,28.78528 C36.1926738,28.78528 35.45025,29.5232043 35.45025,30.43348 C35.45025,31.3437557 36.1926738,32.08168 37.1085,32.08168 C37.5033381,32.0978436 37.882636,31.9275859 38.1315,31.62248 L38.1315,32.00296 L38.7651,32.00296 L38.7651,30.43512 Z M36.2076,30.43512 C36.185448,30.1607981 36.2798875,29.8897914 36.4680034,29.6878574 C36.6561194,29.4859235 36.9207192,29.3715178 37.1976,29.3724 C37.7492691,29.4251829 38.1703179,29.8858998 38.1703179,30.43676 C38.1703179,30.9876202 37.7492691,31.4483371 37.1976,31.50112 C36.9207192,31.5020022 36.6561194,31.3875965 36.4680034,31.1856626 C36.2798875,30.9837286 36.185448,30.7127219 36.2076,30.4384 L36.2076,30.43512 Z M45.1407,30.43512 L45.1407,27.59792 L44.5071,27.59792 L44.5071,29.23792 C44.258236,28.9328141 43.8789381,28.7625564 43.4841,28.77872 C42.5682738,28.77872 41.82585,29.5166443 41.82585,30.42692 C41.82585,31.3371957 42.5682738,32.07512 43.4841,32.07512 C43.8789381,32.0912836 44.258236,31.9210259 44.5071,31.61592 L44.5071,31.9964 L45.1407,31.9964 L45.1407,30.43512 Z M42.5832,30.43512 C42.561048,30.1607981 42.6554875,29.8897914 42.8436034,29.6878574 C43.0317194,29.4859235 43.2963192,29.3715178 43.5732,29.3724 C44.1004673,29.4530736 44.488611,29.9056283 44.4853027,30.4358629 C44.4819944,30.9660974 44.0882334,31.4138325 43.56,31.488 C43.2837402,31.4888083 43.0197065,31.3748469 42.8317003,31.1736538 C42.6436942,30.9724606 42.5488188,30.7023384 42.57,30.42856 L42.5832,30.43512 Z" id="_Compound_Path_" fill="#FFFFFF"></path>
                            <g id="_Group_" transform="translate(8.250000, 2.296000)">
                                <rect id="Rectangle-path" fill="#FF5F00" x="14.3253" y="2.66992" width="10.395" height="18.56808"></rect>
                                <path d="M14.9853,11.9556 C14.9824281,8.33284048 16.6556309,4.90995621 19.5228,2.6732 C14.6519308,-1.13158302 7.65716731,-0.577383467 3.4542413,3.9463221 C-0.748684704,8.47002766 -0.748684704,15.4444523 3.4542413,19.9681579 C7.65716731,24.4918635 14.6519308,25.046063 19.5228,21.24128 C16.6547185,19.0038135 14.9814135,15.5795105 14.9853,11.9556 Z" id="_Path_2" fill="#EB001B"></path>
                                <path d="M38.7453,11.9556 C38.745194,16.4765488 36.1480089,20.6005813 32.0567793,22.5762052 C27.9655496,24.5518291 23.0985446,24.0321975 19.5228,21.238 C22.3887181,18.9993448 24.0620468,15.5769157 24.0620468,11.95396 C24.0620468,8.33100435 22.3887181,4.90857516 19.5228,2.66992 C23.0985446,-0.124277503 27.9655496,-0.643909075 32.0567793,1.33171481 C36.1480089,3.30733869 38.745194,7.43137123 38.7453,11.95232 L38.7453,11.9556 Z" id="Shape" fill="#F79E1B"></path>
                            </g>
                        </g>
                    </g>
                </g>
            </g>
        </g>
    </g>
</svg>