<?xml version="1.0" encoding="UTF-8"?>
<svg width="67px" height="42px" viewBox="0 0 67 42" version="1.1" xmlns="http://www.w3.org/2000/svg" xmlns:xlink="http://www.w3.org/1999/xlink">
    <!-- Generator: sketchtool 49.3 (51167) - http://www.bohemiancoding.com/sketch -->
    <title>9BB64CE4-9A46-4DB8-93B8-C3C3CE163C23</title>
    <desc>Created with sketchtool.</desc>
    <defs></defs>
    <g id="v1.1-16092018" stroke="none" stroke-width="1" fill="none" fill-rule="evenodd">
        <g id="2.4.2---dati-carta" transform="translate(-114.000000, -453.000000)">
            <g id="Group-14" transform="translate(27.000000, 402.000000)">
                <g id="icons/cards/postepay" transform="translate(87.425488, 51.776596)">
                    <g>
                        <rect id="Rectangle-path" fill="#FBE200" x="3.993" y="12.7592" width="60.192" height="17.6464"></rect>
                        <path d="M65.934,38.8352 C65.934,40.0488 64.944,41 63.756,41 L2.376,41 C1.155,41 0.198,40.016 0.198,38.8352 L0.198,2.3288 C0.198,1.1152 1.188,0.164 2.376,0.164 L63.756,0.164 C64.977,0.164 65.934,1.148 65.934,2.3288 L65.934,38.8352 Z" id="Shape" fill="#EEDC00" fill-rule="nonzero"></path>
                        <g id="Group" transform="translate(7.260000, 16.072000)" fill="#004A99" fill-rule="nonzero">
                            <path d="M4.488,1.9352 C4.785,1.804 5.115,1.7712 5.445,1.7712 C6.072,1.7712 6.6,1.968 6.996,2.3616 C7.425,2.7552 7.623,3.3128 7.689,4.0016 C7.722,4.4936 7.689,5.0184 7.557,5.576 C7.425,6.1336 7.227,6.6256 6.963,7.0192 C6.666,7.544 6.27,7.9048 5.808,8.1672 C5.412,8.3968 4.983,8.528 4.488,8.5936 L4.488,7.6096 C4.653,7.5768 4.818,7.4784 4.983,7.4128 C5.313,7.216 5.577,6.9208 5.775,6.5272 C6.006,6.1336 6.171,5.74 6.303,5.2808 C6.435,4.8216 6.435,4.3952 6.435,3.9688 C6.402,3.5424 6.237,3.1816 6.006,2.9192 C5.742,2.6568 5.412,2.5256 5.016,2.5256 C4.851,2.5256 4.686,2.5584 4.521,2.5912 L4.521,1.9352 L4.488,1.9352 Z M0.165,10.9224 L1.848,3.5752 C1.881,3.28 1.947,3.0176 1.98,2.7224 C2.013,2.4272 2.013,2.1648 2.046,1.8696 L3.201,1.8696 L3.102,2.8536 C3.465,2.4928 3.828,2.1976 4.191,2.0336 C4.257,2.0008 4.356,1.968 4.422,1.9352 L4.422,2.624 C4.257,2.6568 4.092,2.7552 3.894,2.8536 C3.564,3.0832 3.3,3.3784 3.102,3.772 C2.871,4.1656 2.706,4.6248 2.574,5.1168 C2.442,5.6416 2.442,6.068 2.442,6.396 C2.475,6.7896 2.607,7.0848 2.871,7.3144 C3.102,7.544 3.432,7.6424 3.828,7.6424 C4.026,7.6424 4.224,7.6096 4.389,7.5768 L4.389,8.5608 C4.323,8.5608 4.257,8.5608 4.158,8.5608 C3.696,8.5608 3.333,8.4624 3.003,8.2984 C2.673,8.1344 2.409,7.872 2.145,7.5112 L1.353,10.8896 L0.165,10.8896 L0.165,10.9224 Z" id="Shape"></path>
                            <path d="M35.805,2.9192 C35.673,2.9192 35.541,2.952 35.376,2.952 L35.376,2.0008 C35.442,1.968 35.508,1.968 35.541,1.9352 C35.871,1.7712 36.267,1.7056 36.696,1.7056 C37.323,1.7056 37.851,1.9024 38.214,2.2632 C38.577,2.624 38.808,3.1488 38.841,3.8704 C38.973,5.1824 38.709,6.2976 38.082,7.1832 C37.488,8.1016 36.63,8.5608 35.607,8.5608 C35.541,8.5608 35.442,8.528 35.376,8.528 L35.376,7.2816 C35.508,7.2488 35.673,7.1832 35.805,7.0848 C36.036,6.9208 36.201,6.6584 36.366,6.3304 C36.531,5.9696 36.696,5.5432 36.795,5.1168 C36.894,4.6904 36.927,4.3296 36.894,4.0016 C36.861,3.6408 36.762,3.3784 36.564,3.2144 C36.366,3.0176 36.102,2.9192 35.805,2.9192 Z M35.376,2.9848 C34.98,3.116 34.65,3.4112 34.386,3.8704 C33.99,4.5264 33.858,5.248 33.924,6.068 C33.957,6.4944 34.056,6.7896 34.287,7.0192 C34.485,7.2488 34.749,7.3472 35.079,7.3472 C35.178,7.3472 35.277,7.3144 35.376,7.3144 L35.376,8.5608 C35.013,8.528 34.683,8.4296 34.419,8.2984 C34.089,8.1344 33.825,7.8392 33.627,7.4784 L32.835,10.9552 L30.822,10.9552 L32.373,3.936 C32.571,3.0504 32.703,2.3616 32.736,1.9352 L34.551,1.9352 L34.518,2.7224 C34.815,2.46 35.079,2.2304 35.376,2.0664 L35.376,2.9848 Z" id="Shape"></path>
                            <path d="M43.395,5.3136 C43.362,5.2808 43.296,5.2808 43.263,5.2808 C43.197,5.2808 43.131,5.2808 43.032,5.2808 C42.702,5.2808 42.438,5.3136 42.174,5.3792 L42.174,4.2968 C42.438,4.264 42.768,4.264 43.065,4.264 C43.197,4.264 43.329,4.264 43.395,4.264 C43.461,4.264 43.527,4.264 43.626,4.264 C43.659,4.0344 43.725,3.8376 43.725,3.7064 C43.758,3.5752 43.758,3.4768 43.758,3.3784 C43.725,3.1816 43.659,3.0504 43.527,2.952 C43.395,2.8536 43.197,2.8208 42.966,2.8208 C42.669,2.8208 42.438,2.8864 42.306,3.0176 C42.273,3.0504 42.207,3.0832 42.174,3.1488 L42.174,1.804 C42.405,1.7712 42.702,1.7712 42.966,1.7712 C43.824,1.7712 44.451,1.9024 44.913,2.1976 C45.342,2.4928 45.606,2.8864 45.639,3.444 C45.672,3.608 45.672,3.772 45.639,3.9688 C45.606,4.1328 45.573,4.3624 45.507,4.5592 L44.979,6.7896 C44.913,7.052 44.88,7.3144 44.847,7.6096 C44.814,7.9048 44.814,8.1672 44.814,8.4624 L42.966,8.4624 C42.966,8.3312 42.966,8.1672 42.966,8.0032 C42.966,7.8392 42.999,7.6752 42.999,7.5112 C42.768,7.8392 42.471,8.1016 42.174,8.2656 L42.174,7.2488 C42.372,7.1504 42.57,7.0192 42.768,6.7896 C43.098,6.4288 43.296,5.9368 43.395,5.3136 Z M42.174,5.3792 C41.91,5.4448 41.679,5.5432 41.481,5.7072 C41.052,5.9696 40.887,6.2976 40.953,6.6912 C40.953,6.9208 41.019,7.0848 41.184,7.216 C41.316,7.3472 41.481,7.38 41.712,7.38 C41.877,7.38 42.042,7.3472 42.207,7.2816 L42.207,8.2984 L42.174,8.3312 C41.844,8.4952 41.514,8.5936 41.085,8.5936 C40.491,8.5936 40.029,8.4296 39.666,8.1016 C39.303,7.7736 39.105,7.38 39.072,6.8552 C39.006,6.0352 39.303,5.412 39.996,4.9528 C40.524,4.6248 41.25,4.3952 42.207,4.3296 L42.207,5.3792 L42.174,5.3792 Z M42.174,1.8368 L42.174,3.1816 C42.075,3.3128 42.042,3.4768 41.976,3.6736 L40.062,3.6736 C40.095,3.0832 40.392,2.5912 40.887,2.2632 C41.25,2.0336 41.679,1.9024 42.174,1.8368 Z" id="Shape"></path>
                            <polygon id="Shape" points="46.002 10.8896 47.619 8.4624 46.431 1.8368 48.444 1.8368 49.005 6.396 51.579 1.8368 53.493 1.8368 49.335 8.7576 48.147 10.8896"></polygon>
                            <path d="M11.55,2.4928 C11.385,2.4928 11.22,2.5256 11.055,2.5584 L11.055,1.7056 C11.253,1.6728 11.484,1.6728 11.682,1.6728 C12.474,1.6728 13.068,1.8696 13.53,2.2304 C14.025,2.624 14.256,3.1488 14.322,3.8376 C14.355,4.3624 14.322,4.9528 14.157,5.576 C14.025,6.1664 13.794,6.724 13.497,7.1504 C13.167,7.6752 12.771,8.036 12.276,8.2328 C11.946,8.3968 11.517,8.4952 11.022,8.5608 L11.022,7.708 C11.22,7.6752 11.418,7.5768 11.55,7.4784 C11.847,7.3144 12.078,7.052 12.309,6.6912 C12.54,6.2648 12.738,5.8056 12.837,5.3136 C12.969,4.7888 13.002,4.3296 12.969,3.9688 C12.936,3.444 12.771,3.0832 12.54,2.8864 C12.342,2.624 12.012,2.4928 11.55,2.4928 Z M11.055,2.5912 C10.89,2.624 10.692,2.7224 10.527,2.8208 C10.23,3.0504 9.966,3.3456 9.735,3.7064 C9.504,4.0672 9.339,4.4936 9.207,5.0512 C9.075,5.6088 9.075,6.0352 9.075,6.4288 C9.108,6.8552 9.273,7.1832 9.504,7.4128 C9.768,7.6424 10.098,7.7736 10.56,7.7736 C10.725,7.7736 10.89,7.7408 11.022,7.7408 L11.022,8.5936 C10.857,8.5936 10.659,8.6264 10.461,8.6264 C9.669,8.6264 9.042,8.4296 8.58,8.036 C8.085,7.6424 7.821,7.0848 7.788,6.396 C7.755,5.8056 7.788,5.248 7.986,4.592 C8.151,3.9688 8.415,3.444 8.745,2.952 C9.075,2.5256 9.438,2.2632 9.933,2.0336 C10.263,1.9024 10.626,1.804 11.022,1.7712 L11.022,2.5912 L11.055,2.5912 Z" id="Shape"></path>
                            <path d="M15.675,6.3304 C15.642,6.4616 15.609,6.56 15.609,6.6584 C15.576,6.7568 15.576,6.8224 15.609,6.888 C15.642,7.1504 15.741,7.3472 15.939,7.4784 C16.137,7.6096 16.401,7.6752 16.797,7.6752 C17.325,7.6752 17.688,7.5768 17.985,7.38 C18.282,7.1504 18.414,6.888 18.381,6.5928 C18.381,6.396 18.282,6.232 18.117,6.068 C17.952,5.904 17.589,5.74 17.061,5.4776 C16.368,5.1496 15.906,4.8872 15.609,4.592 C15.312,4.3624 15.18,4.0344 15.147,3.7064 C15.114,3.116 15.312,2.6568 15.774,2.2632 C16.269,1.9024 16.929,1.7056 17.754,1.7056 C18.513,1.7056 19.074,1.8368 19.437,2.0336 C19.833,2.2632 20.031,2.5584 20.064,3.0176 C20.064,3.0832 20.064,3.1488 20.064,3.2472 C20.064,3.3128 20.064,3.444 20.031,3.608 L18.843,3.608 C18.843,3.5424 18.843,3.4768 18.843,3.4112 C18.843,3.3784 18.843,3.28 18.843,3.2472 C18.81,3.0176 18.711,2.8208 18.513,2.6896 C18.348,2.5584 18.084,2.4928 17.721,2.4928 C17.292,2.4928 16.995,2.5912 16.764,2.7552 C16.533,2.9192 16.434,3.1816 16.434,3.444 C16.467,3.608 16.533,3.772 16.698,3.9032 C16.83,4.0344 17.226,4.2312 17.787,4.4936 C18.579,4.8544 19.107,5.1824 19.338,5.412 C19.569,5.6416 19.701,5.9696 19.734,6.3304 C19.767,6.9208 19.536,7.4784 18.942,7.872 C18.381,8.2984 17.622,8.4952 16.698,8.4952 C15.972,8.4952 15.411,8.364 14.949,8.1016 C14.52,7.8392 14.322,7.4784 14.256,6.9864 C14.223,6.888 14.223,6.7568 14.256,6.6256 C14.289,6.4944 14.289,6.3632 14.322,6.1992 L15.675,6.1992 L15.675,6.3304 Z" id="Shape"></path>
                            <path d="M23.727,8.4952 C23.496,8.528 23.265,8.528 23.067,8.5608 C22.869,8.5608 22.671,8.5936 22.506,8.5936 C22.011,8.5936 21.648,8.528 21.417,8.364 C21.186,8.2328 21.054,7.9376 21.021,7.5768 C20.988,7.4456 21.021,7.2488 21.054,6.9864 C21.087,6.6912 21.153,6.396 21.186,6.1008 L21.945,2.788 L20.724,2.788 L20.955,1.9352 L22.143,1.9352 L22.473,0.4264 L23.76,0.0984 L23.364,1.9024 L24.816,1.9024 L24.618,2.7552 L23.166,2.7552 L22.44,6.1992 C22.374,6.4616 22.308,6.6584 22.308,6.7896 C22.275,6.9208 22.275,7.0192 22.275,7.1176 C22.275,7.3144 22.341,7.4456 22.473,7.5112 C22.605,7.6096 22.803,7.6424 23.1,7.6424 C23.199,7.6424 23.331,7.6096 23.496,7.6096 C23.628,7.6096 23.76,7.5768 23.892,7.544 L23.727,8.4952 Z" id="Shape"></path>
                            <path d="M27.951,4.428 L29.601,4.428 C29.634,4.1984 29.634,4.0344 29.634,3.9032 C29.667,3.772 29.667,3.6736 29.634,3.5752 C29.601,3.2144 29.469,2.952 29.205,2.7552 C28.941,2.5584 28.611,2.4272 28.149,2.4272 C28.083,2.4272 27.984,2.46 27.918,2.46 L27.918,1.6728 C28.017,1.6728 28.083,1.6728 28.182,1.6728 C29.04,1.6728 29.7,1.8368 30.129,2.1648 C30.558,2.4928 30.822,2.9848 30.855,3.7064 C30.888,3.936 30.888,4.2312 30.855,4.4936 C30.855,4.756 30.822,5.0512 30.723,5.3464 L27.885,5.3464 L27.885,4.428 L27.951,4.428 Z M27.951,8.5608 L27.951,7.5768 C28.083,7.544 28.248,7.4456 28.38,7.38 C28.677,7.1832 28.908,6.888 29.007,6.5272 L30.459,6.5272 C30.294,7.1832 29.931,7.6752 29.37,8.0688 C28.941,8.2984 28.479,8.4624 27.951,8.5608 Z M26.235,4.428 L27.951,4.428 L27.951,5.3136 L26.037,5.3136 C25.971,5.5104 25.938,5.6744 25.905,5.8712 C25.872,6.0352 25.872,6.1992 25.872,6.3632 C25.905,6.7896 26.07,7.0848 26.301,7.3144 C26.565,7.544 26.895,7.6424 27.39,7.6424 C27.588,7.6424 27.786,7.6096 27.951,7.544 L27.951,8.528 C27.72,8.5608 27.489,8.5608 27.258,8.5608 C26.466,8.5608 25.872,8.364 25.41,8.0032 C24.981,7.6424 24.717,7.1176 24.651,6.4288 C24.618,5.904 24.651,5.3464 24.816,4.6904 C24.948,4.0672 25.212,3.5096 25.476,3.0504 C25.773,2.624 26.169,2.2632 26.631,2.0336 C27.027,1.804 27.456,1.7056 27.984,1.6728 L27.984,2.46 C27.588,2.4928 27.258,2.6568 26.994,2.952 C26.598,3.28 26.367,3.772 26.235,4.428 Z" id="Shape"></path>
                        </g>
                    </g>
                </g>
            </g>
        </g>
    </g>
</svg>