<?xml version="1.0" encoding="UTF-8"?>
<svg width="66px" height="41px" viewBox="0 0 66 41" version="1.1" xmlns="http://www.w3.org/2000/svg" xmlns:xlink="http://www.w3.org/1999/xlink">
    <!-- Generator: sketchtool 49.3 (51167) - http://www.bohemiancoding.com/sketch -->
    <title>B66A52D8-29BC-4CDC-9962-84A7348D7FDA</title>
    <desc>Created with sketchtool.</desc>
    <defs></defs>
    <g id="v1.1-16092018" stroke="none" stroke-width="1" fill="none" fill-rule="evenodd">
        <g id="2.4.2---dati-carta" transform="translate(-282.000000, -402.000000)">
            <g id="Group-14" transform="translate(27.000000, 402.000000)">
                <g id="icons/cards/visa-electron" transform="translate(255.348407, 0.000000)">
                    <g>
                        <path d="M66,38.7368 C66,39.9504 65.0050251,40.9016 63.8110553,40.9016 L2.18894472,40.9016 C0.961809045,40.9016 0,39.9176 0,38.7368 L0,2.2632 C0,1.0496 0.994974874,0.0984 2.18894472,0.0984 L63.8110553,0.0984 C65.038191,0.0984 66,1.0824 66,2.2632 L66,38.7368 Z" id="Shape" fill="#045EA0" fill-rule="nonzero"></path>
                        <g id="Group" transform="translate(12.934673, 9.184000)">
                            <path d="M9.28643216,13.9072 C14.2944724,11.7752 21.2924623,9.8728 30.5788945,11.808 L30.678392,9.4792 C20.8944724,8.4296 13.8633166,11.5128 9.28643216,13.7104 L9.28643216,13.9072 Z" id="Shape" fill="#FAA929"></path>
                            <polygon id="Shape" fill="#FFFFFF" points="0.265326633 15.6128 4.97487437 15.6128 4.97487437 17.0232 2.05628141 17.0232 2.02311558 18.3024 4.94170854 18.3024 4.94170854 19.6472 2.02311558 19.6472 2.02311558 20.9592 4.90854271 20.9592 4.90854271 22.3696 0.265326633 22.3696"></polygon>
                            <polygon id="Shape" fill="#FFFFFF" points="6.13567839 15.0552 7.86030151 15.0552 7.86030151 22.3696 6.16884422 22.3696"></polygon>
                            <path d="M13.7638191,21.812 C13.1668342,22.304 12.3045226,22.5336 11.5085427,22.5336 C9.71758794,22.5336 8.88844221,21.2544 8.88844221,20.008 C8.88844221,18.532 10.0160804,17.2856 11.5748744,17.2856 C13.4653266,17.2856 14.0623116,18.5976 14.0623116,20.3032 L10.6130653,20.3032 C10.6130653,20.6968 10.8452261,21.32 11.8070352,21.32 C12.4040201,21.32 12.7356784,21.156 13.2,20.828 L13.7638191,21.812 Z M12.5035176,19.2864 C12.5035176,18.7944 12.2713568,18.3352 11.6743719,18.3352 C11.1437186,18.3352 10.7125628,18.8272 10.6130653,19.2864 L12.5035176,19.2864 Z" id="Shape" fill="#FFFFFF"></path>
                            <path d="M19.2361809,22.0416 C18.7718593,22.3368 17.9758794,22.5336 17.4120603,22.5336 C15.8201005,22.5336 14.6924623,21.648 14.6924623,20.008 C14.6924623,18.3352 15.8201005,17.2528 17.5115578,17.2528 C18.1085427,17.2528 18.8050251,17.4496 19.2030151,17.6792 L18.639196,18.7944 C18.3738693,18.696 18.1085427,18.5976 17.8432161,18.5976 C16.9809045,18.5976 16.4170854,19.0896 16.4170854,19.9096 C16.4170854,20.5984 16.9809045,21.156 17.7105528,21.156 C18.0422111,21.156 18.3738693,21.0248 18.639196,20.8608 L19.2361809,22.0416 Z" id="Shape" fill="#FFFFFF"></path>
                            <path d="M19.8663317,17.4496 L20.6291457,17.4496 L20.6291457,15.7768 L22.2874372,15.7768 L22.2542714,17.4496 L23.6472362,17.4496 L23.6140704,18.6632 L22.2211055,18.6632 C22.2211055,19.352 22.1879397,20.0736 22.1879397,20.5 C22.1879397,20.9264 22.2874372,21.1232 22.6854271,21.1232 C22.9175879,21.1232 23.1165829,20.992 23.3155779,20.8936 L23.680402,22.0416 C23.1829146,22.3368 22.5527638,22.5336 21.9889447,22.5336 C20.5959799,22.5336 20.5296482,21.6808 20.5296482,20.5328 C20.5296482,19.9424 20.5628141,19.3192 20.5628141,18.6632 L19.8331658,18.6632 L19.8663317,17.4496 Z" id="Shape" fill="#FFFFFF"></path>
                            <path d="M24.5427136,17.4496 L26.2673367,17.4496 L26.2673367,18.1384 L26.3005025,18.1384 C26.5658291,17.712 26.8974874,17.3184 27.560804,17.3184 C27.759799,17.3184 27.958794,17.3512 28.1246231,17.384 L27.8924623,19.0568 C27.7266332,19.024 27.5276382,18.9584 27.2954774,18.9584 C26.7316583,18.9584 26.2673367,19.4504 26.2673367,19.5488 L26.2341709,22.3696 L24.5095477,22.3696 L24.5427136,17.4496 Z" id="Shape" fill="#FFFFFF"></path>
                            <path d="M31.2090452,17.2856 C33.0331658,17.2856 33.9949749,18.4336 33.9949749,19.9096 C33.9949749,21.3856 33.0331658,22.5336 31.2090452,22.5336 C29.3849246,22.5336 28.4231156,21.3856 28.4231156,19.9096 C28.4231156,18.4336 29.3849246,17.2856 31.2090452,17.2856 Z M31.2090452,21.2544 C32.038191,21.2544 32.2703518,20.5656 32.2703518,19.9096 C32.2703518,19.2536 32.038191,18.5648 31.2090452,18.5648 C30.3798995,18.5648 30.1477387,19.2536 30.1477387,19.9096 C30.1477387,20.5328 30.3798995,21.2544 31.2090452,21.2544 Z" id="Shape" fill="#FFFFFF"></path>
                            <path d="M34.9236181,17.4496 L36.6482412,17.4496 L36.6482412,17.9744 C37.0462312,17.5808 37.6432161,17.2528 38.240201,17.2528 C39.3015075,17.2528 39.8653266,17.8432 39.8653266,19.188 C39.8653266,20.2048 39.8653266,21.2872 39.8321608,22.3696 L38.1075377,22.3696 C38.1075377,21.4184 38.1407035,20.4672 38.1407035,19.4504 C38.1407035,19.0568 38.041206,18.7288 37.5105528,18.7288 C37.2452261,18.7288 36.8472362,18.9584 36.6150754,19.188 L36.6150754,22.3696 L34.8572864,22.3696 L34.9236181,17.4496 Z" id="Shape" fill="#FFFFFF"></path>
                            <polygon id="Shape" fill="#FFFFFF" points="14.360804 7.3472 16.5165829 0.2624 18.440201 0.2624 16.2844221 7.3472"></polygon>
                            <path d="M13.4984925,0.2624 L11.7738693,3.2472 C11.3427136,4.0344 11.0773869,4.428 10.9447236,4.92 L10.9115578,4.92 C10.9447236,4.2968 10.8452261,3.5096 10.8452261,3.0832 L10.6462312,0.2624 L7.3959799,0.2624 L7.36281407,0.4592 C8.1919598,0.4592 8.68944724,0.8856 8.82211055,1.7384 L9.45226131,7.3472 L11.4422111,7.3472 L15.4884422,0.2952 L13.4984925,0.2952 L13.4984925,0.2624 Z" id="Shape" fill="#FFFFFF"></path>
                            <path d="M28.5226131,7.3472 L28.4562814,6.2976 L26.0351759,6.2976 L25.5376884,7.3472 L23.4482412,7.3472 L27.2623116,0.2952 L29.8492462,0.2952 L30.479397,7.3472 L28.5226131,7.3472 Z M28.2904523,3.1816 C28.2572864,2.6568 28.2572864,1.9352 28.2904523,1.5088 L28.2572864,1.5088 C28.1246231,1.8696 27.6271357,2.9192 27.4281407,3.444 L26.6984925,4.9856 L28.3899497,4.9856 L28.2904523,3.1816 Z" id="Shape" fill="#FFFFFF"></path>
                            <path d="M20.4964824,7.544 C19.1366834,7.544 18.241206,7.1176 17.5778894,6.724 L18.5065327,5.3464 C19.0703518,5.6744 19.5346734,6.0352 20.5959799,6.0352 C20.9276382,6.0352 21.2592965,5.9368 21.4582915,5.6416 C21.7236181,5.1824 21.3919598,4.92 20.6291457,4.5264 L20.2311558,4.264 C19.1035176,3.5096 18.639196,2.788 19.1698492,1.5416 C19.5015075,0.7544 20.3969849,0.1312 21.8562814,0.1312 C22.8512563,0.1312 23.8130653,0.5576 24.3768844,0.984 L23.3155779,2.1976 C22.7849246,1.7712 22.320603,1.5416 21.8231156,1.5416 C21.4251256,1.5416 21.0934673,1.7056 20.9939698,1.9024 C20.7949749,2.296 21.0603015,2.5584 21.6572864,2.9192 L22.0884422,3.2144 C23.4482412,4.0672 23.7798995,4.9528 23.4150754,5.7728 C22.8180905,7.216 21.6904523,7.544 20.4964824,7.544 Z" id="Shape" fill="#FFFFFF"></path>
                        </g>
                    </g>
                </g>
            </g>
        </g>
    </g>
</svg>