<?xml version="1.0" encoding="UTF-8"?>
<svg width="66px" height="41px" viewBox="0 0 66 41" version="1.1" xmlns="http://www.w3.org/2000/svg" xmlns:xlink="http://www.w3.org/1999/xlink">
    <!-- Generator: sketchtool 49.3 (51167) - http://www.bohemiancoding.com/sketch -->
    <title>25796B72-92F3-49A2-9839-2B6C22CE4BD3</title>
    <desc>Created with sketchtool.</desc>
    <defs></defs>
    <g id="v1.1-16092018" stroke="none" stroke-width="1" fill="none" fill-rule="evenodd">
        <g id="2.4.2---dati-carta" transform="translate(-197.000000, -402.000000)">
            <g id="Group-14" transform="translate(27.000000, 402.000000)">
                <g id="icons/cards/visa" transform="translate(169.902364, 0.000000)">
                    <g>
                        <path d="M65.901,38.704 C65.901,39.9176 64.911,40.8688 63.723,40.8688 L2.409,40.8688 C1.188,40.8688 0.231,39.8848 0.231,38.704 L0.231,2.2304 C0.231,1.0168 1.221,0.0656 2.409,0.0656 L63.723,0.0656 C64.944,0.0656 65.901,1.0496 65.901,2.2304 L65.901,38.704 Z" id="Shape" fill="#3957A7" fill-rule="nonzero"></path>
                        <g id="Group" transform="translate(13.200000, 14.104000)" fill="#FFFFFF" fill-rule="nonzero">
                            <polygon id="Shape" points="17.259 12.4968 14.025 12.4968 16.038 0.2296 19.239 0.2296"></polygon>
                            <path d="M11.319,0.2296 L8.25,8.6592 L7.92,6.8552 L6.831,1.3448 C6.831,1.3448 6.699,0.2296 5.313,0.2296 L0.264,0.2296 L0.198,0.4264 C0.198,0.4264 1.749,0.7544 3.564,1.8368 L6.336,12.4968 L9.669,12.4968 L14.784,0.2296 L11.319,0.2296 Z" id="Shape"></path>
                            <path d="M36.597,12.4968 L39.534,12.4968 L36.96,0.2296 L34.386,0.2296 C33.198,0.2296 32.901,1.148 32.901,1.148 L28.116,12.4968 L31.449,12.4968 L32.109,10.6928 L36.201,10.6928 L36.597,12.4968 Z M33.066,8.1344 L34.749,3.5424 L35.706,8.1344 L33.066,8.1344 Z" id="Shape"></path>
                            <path d="M28.347,3.1816 L28.809,0.5576 C28.809,0.5576 27.39,0.0328 25.938,0.0328 C24.354,0.0328 20.559,0.7216 20.559,4.1 C20.559,7.2816 25.014,7.3144 25.014,8.9544 C25.014,10.6272 21.021,10.332 19.701,9.2824 L19.239,12.0376 C19.239,12.0376 20.658,12.7264 22.869,12.7264 C25.047,12.7264 28.38,11.6112 28.38,8.528 C28.38,5.3464 23.892,5.0512 23.892,3.6736 C23.859,2.2632 26.994,2.4272 28.347,3.1816 Z" id="Shape"></path>
                        </g>
                        <path d="M21.12,20.9592 L20.031,15.4488 C20.031,15.4488 19.899,14.3336 18.513,14.3336 L13.464,14.3336 L13.398,14.5304 C13.398,14.5304 15.84,15.0224 18.15,16.892 C20.394,18.7288 21.12,20.9592 21.12,20.9592 Z" id="Shape" fill="#F9A533" fill-rule="nonzero"></path>
                    </g>
                </g>
            </g>
        </g>
    </g>
</svg>