<svg width="110" height="26" viewBox="0 0 110 26" fill="none" xmlns="http://www.w3.org/2000/svg">
<path d="M36.6293 24.4434H1.66365V1.19613H36.6293V24.4434ZM0.964355 0.520853V25.147H37.3285V0.520853H0.964355Z" fill="white"/>
<path d="M18.4012 6.26123L19.139 5.7244L19.8769 6.26123L19.5961 5.39291L20.3455 4.85596H19.4217L19.139 3.97707L18.8563 4.85695L17.9331 4.85596L18.682 5.39291L18.4012 6.26123Z" fill="white"/>
<path d="M14.5834 7.28418L15.3212 6.74723L16.0586 7.28418L15.7782 6.41562L16.5271 5.87867H15.6034L15.3208 4.9988L15.0381 5.87978L14.1147 5.87867L14.8636 6.41562L14.5834 7.28418Z" fill="white"/>
<path d="M12.5272 7.79152L12.2445 8.67225L11.3213 8.67127L12.0702 9.20822L11.7894 10.0767L12.5272 9.53971L13.2649 10.0767L12.9842 9.20822L13.7331 8.67127H12.8099L12.5272 7.79152Z" fill="white"/>
<path d="M11.5023 13.3429L12.2397 13.8799L11.9593 13.0117L12.7082 12.4745H11.7849L11.5023 11.5947L11.2196 12.4766L10.2959 12.4745L11.0451 13.0117L10.7645 13.8799L11.5023 13.3429Z" fill="white"/>
<path d="M12.8099 16.289L12.5272 15.4091L12.2445 16.2899L11.3213 16.289L12.0702 16.8258L11.7894 17.6943L12.5272 17.1564L13.2649 17.6943L12.9842 16.8258L13.7331 16.289H12.8099Z" fill="white"/>
<path d="M15.6092 19.0804L15.3265 18.2015L15.0443 19.0815L14.1206 19.0804L14.8695 19.6173L14.5892 20.4858L15.327 19.9489L16.0643 20.4858L15.7841 19.6173L16.5329 19.0804H15.6092Z" fill="white"/>
<path d="M19.4222 20.0918L19.1395 19.2118L18.8573 20.0926L17.9336 20.0918L18.6825 20.6287L18.4022 21.4971L19.14 20.9601L19.8773 21.4971L19.5965 20.6287L20.3459 20.0918H19.4222Z" fill="white"/>
<path d="M23.2356 19.0804L22.9533 18.2015L22.6703 19.0815L21.7476 19.0804L22.4958 19.6173L22.2157 20.4858L22.9533 19.9489L23.6912 20.4858L23.41 19.6173L24.1594 19.0804H23.2356Z" fill="white"/>
<path d="M26.0359 16.289L25.7528 15.4091L25.4696 16.2899L24.5469 16.289L25.2961 16.8258L25.015 17.6943L25.7528 17.1564L26.4906 17.6943L26.2093 16.8258L26.9587 16.289H26.0359Z" fill="white"/>
<path d="M27.9729 12.4639H27.0492L26.766 11.5839L26.4838 12.4647L25.5601 12.4639L26.3094 13.0008L26.0291 13.8691L26.766 13.3313L27.5037 13.8691L27.2235 13.0008L27.9729 12.4639Z" fill="white"/>
<path d="M25.015 10.0654L25.7528 9.5286L26.4907 10.0654L26.2095 9.19699L26.9588 8.66103H26.0359L25.7528 7.78115L25.4697 8.66213L24.5469 8.66103L25.2961 9.19699L25.015 10.0654Z" fill="white"/>
<path d="M22.9642 4.99977L22.682 5.88075L21.7583 5.87866L22.5066 6.41659L22.2264 7.28516L22.9652 6.74722L23.702 7.28516L23.4217 6.41659L24.171 5.87866H23.2463L22.9642 4.99977Z" fill="white"/>
<path d="M40.958 6.75684V1.56391H44.5277V2.44231H42.0093V3.6715H44.1831V4.55002H42.0093V6.75684H40.958Z" fill="white"/>
<path d="M45.3867 6.75684V2.99499H46.3849V6.75684H45.3867ZM45.3867 2.48485V1.56391H46.3849V2.48485H45.3867Z" fill="white"/>
<path d="M50.8391 6.75684H49.8409V4.83688C49.8409 4.43075 49.8197 4.168 49.7771 4.04873C49.7344 3.92958 49.6652 3.83688 49.5692 3.77072C49.4734 3.70457 49.3579 3.6715 49.223 3.6715C49.05 3.6715 48.895 3.71884 48.7576 3.81327C48.6204 3.9077 48.5262 4.03287 48.4752 4.18865C48.4243 4.34456 48.3989 4.63265 48.3989 5.05303V6.75684H47.4009V2.99499H48.3279V3.54756C48.657 3.1225 49.0714 2.90991 49.5711 2.90991C49.7912 2.90991 49.9925 2.9495 50.1748 3.02856C50.3572 3.10775 50.4951 3.20869 50.5887 3.33152C50.6822 3.45436 50.7473 3.59355 50.784 3.74945C50.8207 3.90536 50.8391 4.12853 50.8391 4.41895V6.75684Z" fill="white"/>
<path d="M53.9326 4.95024C53.8048 4.99278 53.6022 5.04356 53.3252 5.10258C53.0481 5.16172 52.867 5.21939 52.7818 5.2762C52.6515 5.36829 52.5864 5.4851 52.5864 5.62687C52.5864 5.76618 52.6384 5.88655 52.7428 5.98811C52.8468 6.08967 52.9793 6.14045 53.1405 6.14045C53.3204 6.14045 53.4922 6.08144 53.6555 5.96327C53.7763 5.87364 53.8556 5.76384 53.8936 5.63387C53.9194 5.54891 53.9326 5.3871 53.9326 5.14869V4.95024ZM52.5971 4.14266L51.6913 3.97975C51.793 3.61604 51.9684 3.34689 52.217 3.17205C52.4657 2.99745 52.8351 2.90991 53.3252 2.90991C53.7704 2.90991 54.1018 2.96253 54.3198 3.06766C54.5375 3.17266 54.6909 3.30607 54.7796 3.46776C54.8685 3.62957 54.9129 3.92663 54.9129 4.3587L54.9022 5.52051C54.9022 5.85114 54.9182 6.09496 54.9502 6.25198C54.9822 6.40911 55.0419 6.57732 55.1295 6.75683H54.1421C54.116 6.69068 54.084 6.59269 54.0463 6.46285C54.0297 6.4037 54.0178 6.36485 54.0107 6.34591C53.8402 6.51129 53.6578 6.63523 53.4638 6.71786C53.2696 6.80048 53.0623 6.8418 52.8421 6.8418C52.4538 6.8418 52.1477 6.73679 51.924 6.52654C51.7002 6.31641 51.5884 6.0507 51.5884 5.72954C51.5884 5.51707 51.6392 5.32747 51.7411 5.16099C51.8428 4.99463 51.9855 4.867 52.1691 4.77847C52.3527 4.68994 52.6171 4.6126 52.9629 4.54645C53.4294 4.45903 53.7526 4.37763 53.9326 4.30202V4.20279C53.9326 4.01159 53.8852 3.87524 53.7906 3.79372C53.6958 3.71232 53.517 3.6715 53.2542 3.6715C53.0766 3.6715 52.9382 3.70642 52.8387 3.77601C52.7392 3.84572 52.6587 3.96794 52.5971 4.14266Z" fill="white"/>
<path d="M59.3284 6.75684H58.3302V4.83688C58.3302 4.43075 58.3089 4.168 58.2662 4.04873C58.2237 3.92958 58.1544 3.83688 58.0585 3.77072C57.9627 3.70457 57.8471 3.6715 57.7121 3.6715C57.5393 3.6715 57.3842 3.71884 57.2468 3.81327C57.1096 3.9077 57.0154 4.03287 56.9645 4.18865C56.9136 4.34456 56.8882 4.63265 56.8882 5.05303V6.75684H55.8901V2.99499H56.8172V3.54756C57.1461 3.1225 57.5606 2.90991 58.0603 2.90991C58.2805 2.90991 58.4816 2.9495 58.6641 3.02856C58.8464 3.10775 58.9844 3.20869 59.0778 3.33152C59.1713 3.45436 59.2365 3.59355 59.2731 3.74945C59.3099 3.90536 59.3284 4.12853 59.3284 4.41895V6.75684Z" fill="white"/>
<path d="M59.939 6.75684V5.98111L61.3526 4.36227C61.5845 4.09779 61.7563 3.91003 61.8676 3.799C61.7516 3.80614 61.5988 3.81093 61.4095 3.81327L60.0775 3.82027V2.99499H63.1959V3.6999L61.7539 5.3576L61.246 5.90659C61.523 5.89012 61.6948 5.88188 61.761 5.88188H63.306V6.75684H59.939Z" fill="white"/>
<path d="M63.9775 6.75684V2.99499H64.9756V6.75684H63.9775ZM63.9775 2.48485V1.56391H64.9756V2.48485H63.9775Z" fill="white"/>
<path d="M68.0801 4.95024C67.9522 4.99278 67.7497 5.04356 67.4726 5.10258C67.1956 5.16172 67.0145 5.21939 66.9293 5.2762C66.799 5.36829 66.7339 5.4851 66.7339 5.62687C66.7339 5.76618 66.7859 5.88655 66.8902 5.98811C66.9943 6.08967 67.1269 6.14045 67.288 6.14045C67.4678 6.14045 67.6397 6.08144 67.8029 5.96327C67.9238 5.87364 68.003 5.76384 68.041 5.63387C68.067 5.54891 68.0801 5.3871 68.0801 5.14869V4.95024ZM66.7446 4.14266L65.8388 3.97975C65.9406 3.61604 66.1158 3.34689 66.3645 3.17205C66.6132 2.99745 66.9826 2.90991 67.4726 2.90991C67.9178 2.90991 68.2493 2.96253 68.4672 3.06766C68.685 3.17266 68.8383 3.30607 68.9271 3.46776C69.016 3.62957 69.0604 3.92663 69.0604 4.3587L69.0497 5.52051C69.0497 5.85114 69.0657 6.09496 69.0976 6.25198C69.1297 6.40911 69.1893 6.57732 69.277 6.75683H68.2896C68.2634 6.69068 68.2316 6.59269 68.1938 6.46285C68.1771 6.4037 68.1653 6.36485 68.1581 6.34591C67.9876 6.51129 67.8054 6.63523 67.6112 6.71786C67.417 6.80048 67.2098 6.8418 66.9896 6.8418C66.6012 6.8418 66.2952 6.73679 66.0714 6.52654C65.8478 6.31641 65.7358 6.0507 65.7358 5.72954C65.7358 5.51707 65.7866 5.32747 65.8886 5.16099C65.9903 4.99463 66.133 4.867 66.3165 4.77847C66.5001 4.68994 66.7646 4.6126 67.1104 4.54645C67.5768 4.45903 67.9001 4.37763 68.0801 4.30202V4.20279C68.0801 4.01159 68.0326 3.87524 67.9381 3.79372C67.8433 3.71232 67.6645 3.6715 67.4016 3.6715C67.2241 3.6715 67.0856 3.70642 66.9861 3.77601C66.8866 3.84572 66.8061 3.96794 66.7446 4.14266Z" fill="white"/>
<path d="M71.7736 2.99499V3.78843H71.0917V5.30448C71.0917 5.6115 71.0981 5.7904 71.1112 5.84106C71.1242 5.89196 71.1539 5.93389 71.2001 5.96684C71.2462 5.99992 71.3024 6.01639 71.3688 6.01639C71.4611 6.01639 71.5949 5.98455 71.7702 5.92086L71.8554 6.69302C71.6232 6.79212 71.3604 6.8418 71.0668 6.8418C70.8869 6.8418 70.7246 6.81167 70.5802 6.75155C70.4357 6.69117 70.3298 6.61334 70.2623 6.51768C70.1948 6.42202 70.1481 6.2928 70.122 6.12976C70.1007 6.01406 70.0901 5.78032 70.0901 5.42842V3.78843H69.6318V2.99499H70.0901V2.24754L71.0917 1.6667V2.99499H71.7736Z" fill="white"/>
<path d="M73.2583 4.87585C73.2583 5.24902 73.3471 5.53465 73.5247 5.7331C73.7023 5.93143 73.9212 6.03065 74.1818 6.03065C74.4423 6.03065 74.6606 5.93143 74.8372 5.7331C75.0135 5.53465 75.1018 5.24669 75.1018 4.86872C75.1018 4.50034 75.0135 4.21705 74.8372 4.0186C74.6606 3.82027 74.4423 3.72105 74.1818 3.72105C73.9212 3.72105 73.7023 3.82027 73.5247 4.0186C73.3471 4.21705 73.2583 4.5028 73.2583 4.87585ZM72.2354 4.82273C72.2354 4.49223 72.3171 4.17217 72.4803 3.86282C72.6439 3.55346 72.8754 3.31738 73.1748 3.15434C73.4743 2.99143 73.8089 2.90991 74.1783 2.90991C74.7489 2.90991 75.2165 3.09471 75.5812 3.46432C75.9458 3.83392 76.1282 4.30091 76.1282 4.86528C76.1282 5.43444 75.9441 5.9061 75.5759 6.28038C75.2077 6.65466 74.7442 6.8418 74.1853 6.8418C73.8396 6.8418 73.5098 6.76384 73.1962 6.60793C72.8824 6.45215 72.6439 6.2237 72.4803 5.9227C72.3171 5.62146 72.2354 5.25492 72.2354 4.82273Z" fill="white"/>
<path d="M41.7396 13.4994C41.7396 13.9009 41.7952 14.1913 41.9065 14.3708C42.0675 14.6306 42.2924 14.7604 42.5814 14.7604C42.811 14.7604 43.0064 14.6631 43.1675 14.4682C43.3284 14.2734 43.4091 13.9824 43.4091 13.5951C43.4091 13.163 43.3308 12.8518 43.1744 12.6617C43.0182 12.4717 42.8181 12.3766 42.5743 12.3766C42.3374 12.3766 42.1392 12.4704 41.9794 12.6583C41.8195 12.8459 41.7396 13.1264 41.7396 13.4994ZM44.4035 15.4618H43.4764V14.9092C43.3224 15.1242 43.1408 15.2841 42.9313 15.3892C42.7216 15.4942 42.5104 15.5469 42.2972 15.5469C41.8639 15.5469 41.4928 15.3728 41.1838 15.0244C40.8747 14.6761 40.7202 14.1902 40.7202 13.5668C40.7202 12.9291 40.8706 12.4444 41.1712 12.1127C41.472 11.781 41.852 11.615 42.3114 11.615C42.7328 11.615 43.0975 11.7898 43.4054 12.1393V10.269H44.4035V15.4618Z" fill="white"/>
<path d="M47.4686 13.6553C47.3408 13.6979 47.1384 13.7486 46.8613 13.8077C46.5842 13.8668 46.4032 13.9245 46.3178 13.9812C46.1877 14.0732 46.1224 14.1902 46.1224 14.3318C46.1224 14.4713 46.1745 14.5916 46.2788 14.6931C46.3829 14.7948 46.5155 14.8455 46.6765 14.8455C46.8564 14.8455 47.0283 14.7864 47.1915 14.6684C47.3124 14.5787 47.3916 14.4688 47.4296 14.339C47.4556 14.2539 47.4686 14.0922 47.4686 13.8536V13.6553ZM46.1332 12.8477L45.2275 12.6847C45.3292 12.3211 45.5045 12.0518 45.7531 11.8771C46.0017 11.7024 46.3711 11.615 46.8613 11.615C47.3064 11.615 47.6378 11.6676 47.8558 11.7726C48.0736 11.8777 48.227 12.0112 48.3157 12.1728C48.4045 12.3346 48.4489 12.6316 48.4489 13.0638L48.4383 14.2256C48.4383 14.5562 48.4542 14.8 48.4862 14.9571C48.5182 15.1141 48.5779 15.2823 48.6656 15.4618H47.6782C47.6521 15.3956 47.6202 15.2976 47.5823 15.1678C47.5657 15.1088 47.554 15.0698 47.5467 15.051C47.3762 15.2162 47.194 15.3402 46.9999 15.4228C46.8056 15.5054 46.5985 15.5469 46.3783 15.5469C45.9898 15.5469 45.6839 15.4417 45.46 15.2315C45.2363 15.0214 45.1245 14.7558 45.1245 14.4346C45.1245 14.222 45.1753 14.0325 45.2771 13.8661C45.3789 13.6996 45.5215 13.5721 45.7052 13.4835C45.8887 13.395 46.1531 13.3177 46.499 13.2515C46.9654 13.1641 47.2886 13.0827 47.4686 13.0071V12.9079C47.4686 12.7167 47.4213 12.5803 47.3266 12.4988C47.2318 12.4174 47.053 12.3766 46.7902 12.3766C46.6126 12.3766 46.4742 12.4115 46.3747 12.4811C46.2753 12.5508 46.1947 12.673 46.1332 12.8477Z" fill="white"/>
<path d="M49.4326 15.4619V10.2691H50.4308V15.4619H49.4326Z" fill="white"/>
<path d="M51.4536 15.4619V10.2691H52.4517V15.4619H51.4536Z" fill="white"/>
<path d="M53.4677 12.1143L53.2793 11.1473V10.2688H54.3662V11.1473L54.2027 12.1143H53.4677Z" fill="white"/>
<path d="M55.2041 10.269H56.2555V13.0815C56.2555 13.5278 56.2685 13.817 56.2946 13.9494C56.3395 14.1617 56.4468 14.3324 56.6162 14.4611C56.7854 14.5899 57.0169 14.6542 57.3104 14.6542C57.6088 14.6542 57.8338 14.5934 57.9853 14.4718C58.1368 14.3501 58.2281 14.2009 58.2588 14.0237C58.2896 13.8466 58.305 13.5526 58.305 13.1417V10.269H59.3563V12.9965C59.3563 13.6199 59.3279 14.0603 59.2711 14.3177C59.2143 14.575 59.1095 14.7923 58.9567 14.9693C58.8041 15.1465 58.5997 15.2877 58.344 15.3928C58.0883 15.4977 57.7545 15.5503 57.3425 15.5503C56.8452 15.5503 56.468 15.493 56.2111 15.3786C55.9542 15.2641 55.7513 15.1153 55.602 14.9323C55.4529 14.7492 55.3545 14.5574 55.3072 14.3566C55.2385 14.0591 55.2041 13.6199 55.2041 13.0389V10.269Z" fill="white"/>
<path d="M63.8889 15.4619H62.8907V13.5421C62.8907 13.136 62.8694 12.8732 62.8269 12.7539C62.7842 12.6348 62.7149 12.5421 62.619 12.4759C62.5232 12.4098 62.4077 12.3767 62.2728 12.3767C62.0998 12.3767 61.9447 12.4239 61.8074 12.5183C61.6702 12.6129 61.576 12.7381 61.525 12.8939C61.4741 13.0498 61.4487 13.3378 61.4487 13.7581V15.4619H60.4507V11.7002H61.3777V12.2528C61.7068 11.8277 62.1212 11.6151 62.6209 11.6151C62.8411 11.6151 63.0423 11.6547 63.2246 11.7338C63.407 11.8129 63.5449 11.9139 63.6385 12.0366C63.7318 12.1594 63.7971 12.2987 63.8338 12.4547C63.8705 12.6104 63.8889 12.8336 63.8889 13.1242V15.4619Z" fill="white"/>
<path d="M64.9009 15.4619V11.7002H65.899V15.4619H64.9009ZM64.9009 11.1901V10.2691H65.899V11.1901H64.9009Z" fill="white"/>
<path d="M67.7139 13.5809C67.7139 13.9541 67.8026 14.2397 67.9803 14.4381C68.1578 14.6364 68.3768 14.7356 68.6374 14.7356C68.8978 14.7356 69.1162 14.6364 69.2927 14.4381C69.4692 14.2397 69.5573 13.9518 69.5573 13.5738C69.5573 13.2054 69.4692 12.9221 69.2927 12.7237C69.1162 12.5254 68.8978 12.4261 68.6374 12.4261C68.3768 12.4261 68.1578 12.5254 67.9803 12.7237C67.8026 12.9221 67.7139 13.2079 67.7139 13.5809ZM66.6909 13.5278C66.6909 13.1972 66.7727 12.8773 66.936 12.5679C67.0995 12.2585 67.3309 12.0223 67.6305 11.8594C67.9299 11.6965 68.2645 11.615 68.6339 11.615C69.2045 11.615 69.6721 11.7998 70.0368 12.1694C70.4014 12.539 70.5838 13.006 70.5838 13.5704C70.5838 14.1394 70.3996 14.6111 70.0315 14.9853C69.6632 15.3596 69.1998 15.5469 68.6409 15.5469C68.2952 15.5469 67.9654 15.4689 67.6517 15.313C67.3379 15.1572 67.0995 14.9287 66.936 14.6277C66.7727 14.3265 66.6909 13.96 66.6909 13.5278Z" fill="white"/>
<path d="M74.7966 15.4619H73.7985V13.5421C73.7985 13.136 73.7771 12.8732 73.7345 12.7539C73.6919 12.6348 73.6226 12.5421 73.5267 12.4759C73.4308 12.4098 73.3154 12.3767 73.1804 12.3767C73.0075 12.3767 72.8524 12.4239 72.7151 12.5183C72.5779 12.6129 72.4837 12.7381 72.4328 12.8939C72.3818 13.0498 72.3564 13.3378 72.3564 13.7581V15.4619H71.3584V11.7002H72.2853V12.2528C72.6144 11.8277 73.0289 11.6151 73.5284 11.6151C73.7488 11.6151 73.9499 11.6547 74.1323 11.7338C74.3146 11.8129 74.4526 11.9139 74.5461 12.0366C74.6396 12.1594 74.7046 12.2987 74.7414 12.4547C74.7781 12.6104 74.7966 12.8336 74.7966 13.1242V15.4619Z" fill="white"/>
<path d="M78.05 13.2585C78.043 12.9706 77.9682 12.7515 77.8262 12.6016C77.6842 12.4516 77.5113 12.3766 77.3078 12.3766C77.0898 12.3766 76.9099 12.4558 76.7679 12.6139C76.6258 12.7721 76.5558 12.9871 76.5583 13.2585H78.05ZM77.9931 14.2646L78.9877 14.431C78.8599 14.7948 78.6579 15.0716 78.3821 15.2616C78.1062 15.4517 77.7611 15.5469 77.3467 15.5469C76.6908 15.5469 76.2053 15.3331 75.8905 14.9057C75.6419 14.5633 75.5176 14.1312 75.5176 13.6092C75.5176 12.9858 75.6808 12.4976 76.0077 12.1446C76.3344 11.7916 76.7477 11.615 77.2474 11.615C77.8085 11.615 78.2512 11.7998 78.5757 12.1694C78.9001 12.539 79.0553 13.1051 79.041 13.8678H76.5405C76.5475 14.163 76.6281 14.3927 76.7821 14.5568C76.9359 14.721 77.1278 14.803 77.3573 14.803C77.5137 14.803 77.6451 14.7604 77.7516 14.6755C77.8583 14.5904 77.9386 14.4534 77.9931 14.2646Z" fill="white"/>
<path d="M84.1164 13.2585C84.1094 12.9706 84.0346 12.7515 83.8926 12.6016C83.7506 12.4516 83.5777 12.3766 83.3742 12.3766C83.1562 12.3766 82.9763 12.4558 82.8343 12.6139C82.6923 12.7721 82.6222 12.9871 82.6247 13.2585H84.1164ZM84.0596 14.2646L85.0541 14.431C84.9263 14.7948 84.7243 15.0716 84.4485 15.2616C84.1726 15.4517 83.8275 15.5469 83.4131 15.5469C82.7572 15.5469 82.2717 15.3331 81.9569 14.9057C81.7083 14.5633 81.584 14.1312 81.584 13.6092C81.584 12.9858 81.7473 12.4976 82.0741 12.1446C82.4008 11.7916 82.8141 11.615 83.3138 11.615C83.8749 11.615 84.3176 11.7998 84.6421 12.1694C84.9665 12.539 85.1217 13.1051 85.1074 13.8678H82.6069C82.614 14.163 82.6945 14.3927 82.8485 14.5568C83.0023 14.721 83.1942 14.803 83.4237 14.803C83.5801 14.803 83.7115 14.7604 83.818 14.6755C83.9247 14.5904 84.0051 14.4534 84.0596 14.2646Z" fill="white"/>
<path d="M88.4035 15.4618V14.8985C88.2661 15.0993 88.0856 15.2576 87.8617 15.3733C87.6381 15.489 87.4018 15.5469 87.1532 15.5469C86.8998 15.5469 86.6724 15.4913 86.4712 15.3803C86.2699 15.2694 86.1244 15.1135 86.0343 14.9128C85.9444 14.7121 85.8994 14.4346 85.8994 14.0804V11.7001H86.8975V13.4286C86.8975 13.9575 86.9157 14.2818 86.9524 14.4009C86.9892 14.5202 87.056 14.6147 87.1532 14.6843C87.2502 14.7541 87.3734 14.7889 87.5225 14.7889C87.6931 14.7889 87.8458 14.7423 87.9807 14.6489C88.1158 14.5556 88.208 14.4399 88.2578 14.3018C88.3075 14.1636 88.3324 13.8254 88.3324 13.2869V11.7001H89.3304V15.4618H88.4035Z" fill="white"/>
<path d="M91.3195 15.4619H90.3213V11.7002H91.2484V12.2351C91.407 11.9824 91.5496 11.8159 91.6765 11.7356C91.8031 11.6553 91.9469 11.6151 92.108 11.6151C92.3352 11.6151 92.5543 11.6778 92.765 11.8029L92.4561 12.6707C92.2879 12.5621 92.1316 12.5078 91.9872 12.5078C91.8474 12.5078 91.729 12.5463 91.632 12.623C91.5348 12.6997 91.4585 12.8384 91.4029 13.0391C91.3473 13.2399 91.3195 13.6602 91.3195 14.3001V15.4619Z" fill="white"/>
<path d="M93.9868 13.5809C93.9868 13.9541 94.0756 14.2397 94.2532 14.4381C94.4308 14.6364 94.6498 14.7356 94.9103 14.7356C95.1708 14.7356 95.3891 14.6364 95.5657 14.4381C95.742 14.2397 95.8303 13.9518 95.8303 13.5738C95.8303 13.2054 95.742 12.9221 95.5657 12.7237C95.3891 12.5254 95.1708 12.4261 94.9103 12.4261C94.6498 12.4261 94.4308 12.5254 94.2532 12.7237C94.0756 12.9221 93.9868 13.2079 93.9868 13.5809ZM92.9639 13.5278C92.9639 13.1972 93.0456 12.8773 93.2088 12.5679C93.3725 12.2585 93.6039 12.0223 93.9033 11.8594C94.2028 11.6965 94.5374 11.615 94.9068 11.615C95.4774 11.615 95.945 11.7998 96.3097 12.1694C96.6743 12.539 96.8567 13.006 96.8567 13.5704C96.8567 14.1394 96.6726 14.6111 96.3044 14.9853C95.9362 15.3596 95.4727 15.5469 94.9138 15.5469C94.5681 15.5469 94.2383 15.4689 93.9247 15.313C93.6109 15.1572 93.3725 14.9287 93.2088 14.6277C93.0456 14.3265 92.9639 13.96 92.9639 13.5278Z" fill="white"/>
<path d="M98.5973 13.5173C98.5973 13.9401 98.6813 14.2524 98.8494 14.4543C99.0176 14.6563 99.2225 14.7571 99.464 14.7571C99.6961 14.7571 99.8889 14.6645 100.043 14.4791C100.197 14.2937 100.274 13.9897 100.274 13.567C100.274 13.1727 100.194 12.8798 100.036 12.6885C99.8771 12.4973 99.6807 12.4016 99.4462 12.4016C99.2023 12.4016 98.9999 12.4954 98.8388 12.6832C98.6778 12.871 98.5973 13.149 98.5973 13.5173ZM97.6099 11.7003H98.5406V12.2529C98.6612 12.064 98.8247 11.9104 99.0306 11.7924C99.2367 11.6743 99.4651 11.6152 99.7162 11.6152C100.154 11.6152 100.526 11.7865 100.831 12.1288C101.137 12.4713 101.289 12.9483 101.289 13.5599C101.289 14.1881 101.136 14.6763 100.828 15.0246C100.52 15.373 100.147 15.5471 99.709 15.5471C99.5007 15.5471 99.3118 15.5057 99.1425 15.423C98.9731 15.3404 98.7949 15.1988 98.6079 14.998V16.8931H97.6099V11.7003Z" fill="white"/>
<path d="M104.323 13.2585C104.316 12.9706 104.241 12.7515 104.099 12.6016C103.957 12.4516 103.784 12.3766 103.581 12.3766C103.363 12.3766 103.183 12.4558 103.041 12.6139C102.899 12.7721 102.829 12.9871 102.831 13.2585H104.323ZM104.266 14.2646L105.261 14.431C105.133 14.7948 104.931 15.0716 104.655 15.2616C104.379 15.4517 104.034 15.5469 103.62 15.5469C102.964 15.5469 102.478 15.3331 102.163 14.9057C101.915 14.5633 101.791 14.1312 101.791 13.6092C101.791 12.9858 101.954 12.4976 102.281 12.1446C102.607 11.7916 103.02 11.615 103.52 11.615C104.081 11.615 104.524 11.7998 104.849 12.1694C105.173 12.539 105.328 13.1051 105.314 13.8678H102.813C102.82 14.163 102.901 14.3927 103.055 14.5568C103.209 14.721 103.401 14.803 103.63 14.803C103.786 14.803 103.918 14.7604 104.025 14.6755C104.131 14.5904 104.212 14.4534 104.266 14.2646Z" fill="white"/>
<path d="M108.209 13.6553C108.081 13.6979 107.878 13.7486 107.601 13.8077C107.324 13.8668 107.143 13.9245 107.058 13.9812C106.927 14.0732 106.862 14.1902 106.862 14.3318C106.862 14.4713 106.914 14.5916 107.019 14.6931C107.123 14.7948 107.255 14.8455 107.416 14.8455C107.596 14.8455 107.768 14.7864 107.931 14.6684C108.052 14.5787 108.131 14.4688 108.169 14.339C108.195 14.2539 108.209 14.0922 108.209 13.8536V13.6553ZM106.873 12.8477L105.967 12.6847C106.069 12.3211 106.244 12.0518 106.493 11.8771C106.741 11.7024 107.111 11.615 107.601 11.615C108.046 11.615 108.378 11.6676 108.596 11.7726C108.813 11.8777 108.967 12.0112 109.056 12.1728C109.144 12.3346 109.189 12.6316 109.189 13.0638L109.178 14.2256C109.178 14.5562 109.194 14.8 109.226 14.9571C109.258 15.1141 109.318 15.2823 109.405 15.4618H108.418C108.392 15.3956 108.36 15.2976 108.322 15.1678C108.306 15.1088 108.294 15.0698 108.286 15.051C108.116 15.2162 107.934 15.3402 107.74 15.4228C107.545 15.5054 107.338 15.5469 107.118 15.5469C106.73 15.5469 106.424 15.4417 106.2 15.2315C105.976 15.0214 105.864 14.7558 105.864 14.4346C105.864 14.222 105.915 14.0325 106.017 13.8661C106.119 13.6996 106.261 13.5721 106.445 13.4835C106.628 13.395 106.893 13.3177 107.239 13.2515C107.705 13.1641 108.029 13.0827 108.209 13.0071V12.9079C108.209 12.7167 108.161 12.5803 108.066 12.4988C107.972 12.4174 107.793 12.3766 107.53 12.3766C107.352 12.3766 107.214 12.4115 107.115 12.4811C107.015 12.5508 106.935 12.673 106.873 12.8477Z" fill="white"/>
<path d="M40.9521 23.974V19.4852H41.5631L43.9272 23.0095V19.4852H44.4983V23.974H43.8873L41.5232 20.4467V23.974H40.9521Z" fill="white"/>
<path d="M47.6637 22.9268L48.2348 22.9972C48.1447 23.33 47.9779 23.5882 47.7343 23.7719C47.4907 23.9556 47.1796 24.0475 46.801 24.0475C46.324 24.0475 45.9454 23.9015 45.665 23.6096C45.3866 23.3157 45.2474 22.9044 45.2474 22.3757C45.2474 21.8286 45.3886 21.404 45.6711 21.1019C45.9536 20.7998 46.32 20.6488 46.7703 20.6488C47.2062 20.6488 47.5624 20.7967 47.8387 21.0927C48.115 21.3887 48.2532 21.8051 48.2532 22.342C48.2532 22.3746 48.2522 22.4236 48.2501 22.489H45.8185C45.8389 22.8462 45.9403 23.1197 46.1224 23.3095C46.3046 23.4994 46.5318 23.5943 46.804 23.5943C47.0067 23.5943 47.1796 23.5412 47.3229 23.4351C47.4662 23.3289 47.5798 23.1595 47.6637 22.9268ZM45.8492 22.0358H47.6698C47.6453 21.7623 47.5757 21.5571 47.4611 21.4204C47.285 21.2081 47.0568 21.1019 46.7764 21.1019C46.5226 21.1019 46.3087 21.1866 46.1347 21.3561C45.9628 21.5255 45.8676 21.7521 45.8492 22.0358Z" fill="white"/>
<path d="M48.5633 23.974L49.7545 22.2838L48.6523 20.7222H49.3431L49.8436 21.4847C49.9377 21.6296 50.0135 21.751 50.0708 21.849C50.1608 21.7143 50.2437 21.5949 50.3195 21.4908L50.869 20.7222H51.5291L50.4023 22.2532L51.6151 23.974H50.9366L50.2673 22.9635L50.0892 22.691L49.2326 23.974H48.5633Z" fill="white"/>
<path d="M53.2822 23.481L53.3621 23.9679C53.2065 24.0005 53.0673 24.0168 52.9445 24.0168C52.7439 24.0168 52.5884 23.9852 52.4778 23.9219C52.3673 23.8586 52.2895 23.776 52.2445 23.6739C52.1995 23.5698 52.1769 23.3524 52.1769 23.0217V21.1509H51.7717V20.7222H52.1769V19.917L52.7265 19.5863V20.7222H53.2822V21.1509H52.7265V23.0523C52.7265 23.2095 52.7357 23.3106 52.7542 23.3555C52.7746 23.4004 52.8063 23.4361 52.8493 23.4626C52.8944 23.4892 52.9578 23.5024 53.0397 23.5024C53.1011 23.5024 53.1819 23.4953 53.2822 23.481Z" fill="white"/>
<path d="M56.0025 22.2134V21.6867L57.9091 21.6837V23.3493C57.6164 23.5821 57.3145 23.7576 57.0034 23.876C56.6922 23.9923 56.3729 24.0505 56.0454 24.0505C55.6033 24.0505 55.2011 23.9566 54.8388 23.7688C54.4786 23.579 54.2064 23.3055 54.0222 22.9482C53.8379 22.591 53.7458 22.192 53.7458 21.751C53.7458 21.3142 53.8369 20.907 54.0191 20.5293C54.2033 20.1497 54.4673 19.868 54.8112 19.6843C55.1551 19.5005 55.5511 19.4087 55.9994 19.4087C56.3248 19.4087 56.6186 19.4618 56.8806 19.5679C57.1446 19.672 57.3513 19.818 57.5007 20.0058C57.6502 20.1936 57.7638 20.4385 57.8415 20.7406L57.3042 20.8876C57.2367 20.659 57.1528 20.4793 57.0525 20.3487C56.9522 20.2181 56.8089 20.1139 56.6227 20.0364C56.4364 19.9568 56.2297 19.917 56.0025 19.917C55.7302 19.917 55.4949 19.9588 55.2963 20.0425C55.0978 20.1242 54.9371 20.2323 54.8143 20.3671C54.6935 20.5018 54.5994 20.6498 54.5318 20.811C54.4172 21.0887 54.3599 21.3897 54.3599 21.7143C54.3599 22.1144 54.4285 22.4492 54.5656 22.7186C54.7048 22.988 54.9064 23.1881 55.1704 23.3187C55.4345 23.4494 55.7149 23.5147 56.0117 23.5147C56.2696 23.5147 56.5213 23.4657 56.767 23.3677C57.0126 23.2677 57.1988 23.1616 57.3257 23.0493V22.2134H56.0025Z" fill="white"/>
<path d="M60.9517 22.9268L61.5228 22.9972C61.4327 23.33 61.2659 23.5882 61.0223 23.7719C60.7787 23.9556 60.4676 24.0475 60.089 24.0475C59.612 24.0475 59.2334 23.9015 58.953 23.6096C58.6746 23.3157 58.5354 22.9044 58.5354 22.3757C58.5354 21.8286 58.6766 21.404 58.9591 21.1019C59.2416 20.7998 59.608 20.6488 60.0583 20.6488C60.4942 20.6488 60.8504 20.7967 61.1267 21.0927C61.403 21.3887 61.5412 21.8051 61.5412 22.342C61.5412 22.3746 61.5402 22.4236 61.5381 22.489H59.1065C59.1269 22.8462 59.2283 23.1197 59.4104 23.3095C59.5926 23.4994 59.8198 23.5943 60.092 23.5943C60.2947 23.5943 60.4676 23.5412 60.6109 23.4351C60.7542 23.3289 60.8678 23.1595 60.9517 22.9268ZM59.1372 22.0358H60.9578C60.9333 21.7623 60.8637 21.5571 60.7491 21.4204C60.573 21.2081 60.3448 21.1019 60.0644 21.1019C59.8106 21.1019 59.5967 21.1866 59.4227 21.3561C59.2508 21.5255 59.1556 21.7521 59.1372 22.0358Z" fill="white"/>
<path d="M62.2197 23.974V20.7222H62.7171V21.1846C62.9566 20.8274 63.3025 20.6488 63.7548 20.6488C63.9513 20.6488 64.1314 20.6845 64.2952 20.7559C64.461 20.8253 64.5848 20.9172 64.6667 21.0315C64.7486 21.1458 64.8059 21.2815 64.8386 21.4387C64.8591 21.5408 64.8693 21.7194 64.8693 21.9746V23.974H64.3167V21.996C64.3167 21.7715 64.2952 21.6041 64.2522 21.4938C64.2092 21.3816 64.1325 21.2928 64.0219 21.2275C63.9135 21.1601 63.7855 21.1264 63.6382 21.1264C63.4028 21.1264 63.1991 21.2009 63.0272 21.3499C62.8573 21.4989 62.7723 21.7817 62.7723 22.1981V23.974H62.2197Z" fill="white"/>
<path d="M67.9518 22.9268L68.5229 22.9972C68.4328 23.33 68.266 23.5882 68.0225 23.7719C67.7789 23.9556 67.4678 24.0475 67.0891 24.0475C66.6122 24.0475 66.2335 23.9015 65.9531 23.6096C65.6747 23.3157 65.5356 22.9044 65.5356 22.3757C65.5356 21.8286 65.6768 21.404 65.9593 21.1019C66.2417 20.7998 66.6081 20.6488 67.0584 20.6488C67.4944 20.6488 67.8505 20.7967 68.1268 21.0927C68.4032 21.3887 68.5413 21.8051 68.5413 22.342C68.5413 22.3746 68.5403 22.4236 68.5383 22.489H66.1066C66.1271 22.8462 66.2284 23.1197 66.4106 23.3095C66.5927 23.4994 66.8199 23.5943 67.0922 23.5943C67.2948 23.5943 67.4678 23.5412 67.611 23.4351C67.7543 23.3289 67.8679 23.1595 67.9518 22.9268ZM66.1373 22.0358H67.958C67.9334 21.7623 67.8638 21.5571 67.7492 21.4204C67.5732 21.2081 67.345 21.1019 67.0645 21.1019C66.8107 21.1019 66.5968 21.1866 66.4229 21.3561C66.2509 21.5255 66.1558 21.7521 66.1373 22.0358Z" fill="white"/>
<path d="M69.2137 23.974V20.7222H69.7111V21.2152C69.838 20.9845 69.9547 20.8325 70.0611 20.759C70.1696 20.6855 70.2883 20.6488 70.4172 20.6488C70.6035 20.6488 70.7928 20.708 70.9852 20.8263L70.7949 21.3377C70.6598 21.2581 70.5247 21.2183 70.3896 21.2183C70.2688 21.2183 70.1604 21.255 70.0642 21.3285C69.968 21.3999 69.8994 21.5 69.8585 21.6286C69.7971 21.8245 69.7664 22.0389 69.7664 22.2716V23.974H69.2137Z" fill="white"/>
<path d="M73.4414 23.5729C73.2367 23.7464 73.0392 23.8689 72.8489 23.9403C72.6606 24.0117 72.4579 24.0475 72.241 24.0475C71.8828 24.0475 71.6075 23.9607 71.4151 23.7872C71.2227 23.6117 71.1265 23.3881 71.1265 23.1166C71.1265 22.9574 71.1623 22.8125 71.2339 22.6819C71.3076 22.5492 71.4028 22.443 71.5195 22.3634C71.6382 22.2838 71.7712 22.2236 71.9186 22.1828C72.0271 22.1542 72.1908 22.1266 72.4098 22.1001C72.856 22.047 73.1846 21.9837 73.3954 21.9103C73.3974 21.8347 73.3984 21.7868 73.3984 21.7663C73.3984 21.5418 73.3463 21.3836 73.2419 21.2918C73.1006 21.1672 72.8908 21.105 72.6125 21.105C72.3525 21.105 72.1601 21.1509 72.0353 21.2428C71.9125 21.3326 71.8214 21.4928 71.762 21.7235L71.2216 21.65C71.2708 21.4193 71.3516 21.2336 71.4642 21.0927C71.5768 20.9498 71.7395 20.8406 71.9524 20.7651C72.1652 20.6875 72.4119 20.6488 72.6923 20.6488C72.9707 20.6488 73.1968 20.6814 73.3708 20.7467C73.5448 20.8121 73.6727 20.8947 73.7546 20.9948C73.8365 21.0927 73.8938 21.2173 73.9265 21.3683C73.945 21.4622 73.9542 21.6316 73.9542 21.8766V22.6114C73.9542 23.1238 73.9654 23.4483 73.9879 23.5851C74.0125 23.7198 74.0596 23.8495 74.1292 23.974H73.552C73.4946 23.8597 73.4578 23.726 73.4414 23.5729ZM73.3954 22.342C73.1948 22.4236 72.8939 22.493 72.4927 22.5502C72.2655 22.5829 72.1049 22.6196 72.0107 22.6604C71.9165 22.7012 71.8439 22.7615 71.7927 22.8411C71.7415 22.9186 71.716 23.0054 71.716 23.1013C71.716 23.2483 71.7712 23.3708 71.8817 23.4688C71.9943 23.5667 72.1581 23.6157 72.373 23.6157C72.5859 23.6157 72.7752 23.5698 72.941 23.4779C73.1068 23.3841 73.2286 23.2565 73.3063 23.0952C73.3657 22.9707 73.3954 22.787 73.3954 22.5441V22.342Z" fill="white"/>
<path d="M76.0204 23.481L76.1003 23.9679C75.9447 24.0005 75.8055 24.0168 75.6827 24.0168C75.4821 24.0168 75.3266 23.9852 75.216 23.9219C75.1055 23.8586 75.0277 23.776 74.9827 23.6739C74.9377 23.5698 74.9151 23.3524 74.9151 23.0217V21.1509H74.5099V20.7222H74.9151V19.917L75.4647 19.5863V20.7222H76.0204V21.1509H75.4647V23.0523C75.4647 23.2095 75.4739 23.3106 75.4924 23.3555C75.5128 23.4004 75.5445 23.4361 75.5875 23.4626C75.6326 23.4892 75.696 23.5024 75.7779 23.5024C75.8393 23.5024 75.9201 23.4953 76.0204 23.481Z" fill="white"/>
<path d="M76.5669 20.1191V19.4852H77.1196V20.1191H76.5669ZM76.5669 23.974V20.7222H77.1196V23.974H76.5669Z" fill="white"/>
<path d="M77.7582 22.3481C77.7582 21.7459 77.926 21.2999 78.2617 21.0101C78.5421 20.7692 78.8839 20.6488 79.2872 20.6488C79.7354 20.6488 80.1018 20.7957 80.3863 21.0897C80.6708 21.3816 80.8131 21.7857 80.8131 22.3022C80.8131 22.7206 80.7496 23.0503 80.6227 23.2912C80.4979 23.53 80.3147 23.7158 80.0732 23.8484C79.8337 23.9811 79.5717 24.0475 79.2872 24.0475C78.8307 24.0475 78.4613 23.9015 78.1788 23.6096C77.8984 23.3177 77.7582 22.8972 77.7582 22.3481ZM78.3262 22.3481C78.3262 22.7645 78.4173 23.0768 78.5994 23.285C78.7816 23.4912 79.0108 23.5943 79.2872 23.5943C79.5614 23.5943 79.7897 23.4902 79.9718 23.282C80.154 23.0738 80.2451 22.7564 80.2451 22.3297C80.2451 21.9276 80.153 21.6235 79.9688 21.4173C79.7866 21.2091 79.5594 21.105 79.2872 21.105C79.0108 21.105 78.7816 21.2081 78.5994 21.4142C78.4173 21.6204 78.3262 21.9317 78.3262 22.3481Z" fill="white"/>
<path d="M81.464 23.974V20.7222H81.9613V21.1846C82.2008 20.8274 82.5467 20.6488 82.9991 20.6488C83.1956 20.6488 83.3757 20.6845 83.5394 20.7559C83.7052 20.8253 83.8291 20.9172 83.9109 21.0315C83.9928 21.1458 84.0501 21.2815 84.0829 21.4387C84.1033 21.5408 84.1136 21.7194 84.1136 21.9746V23.974H83.5609V21.996C83.5609 21.7715 83.5394 21.6041 83.4965 21.4938C83.4535 21.3816 83.3767 21.2928 83.2662 21.2275C83.1577 21.1601 83.0298 21.1264 82.8824 21.1264C82.647 21.1264 82.4434 21.2009 82.2714 21.3499C82.1016 21.4989 82.0166 21.7817 82.0166 22.1981V23.974H81.464Z" fill="white"/>
<path d="M85.0469 23.974V19.4852H88.3014V20.0149H85.6426V21.3897H88.1325V21.9164H85.6426V23.4443H88.4058V23.974H85.0469Z" fill="white"/>
<path d="M92.1822 19.4852H92.7778V22.0787C92.7778 22.5298 92.7266 22.888 92.6243 23.1534C92.5219 23.4188 92.3367 23.6351 92.0686 23.8025C91.8025 23.9679 91.4525 24.0505 91.0186 24.0505C90.5969 24.0505 90.252 23.9781 89.9839 23.8331C89.7157 23.6882 89.5244 23.479 89.4097 23.2054C89.2951 22.9299 89.2378 22.5543 89.2378 22.0787V19.4852H89.8334V22.0756C89.8334 22.4655 89.8693 22.7533 89.9409 22.9391C90.0146 23.1228 90.1394 23.2646 90.3155 23.3647C90.4935 23.4647 90.7105 23.5147 90.9664 23.5147C91.4044 23.5147 91.7165 23.4157 91.9028 23.2177C92.089 23.0197 92.1822 22.639 92.1822 22.0756V19.4852Z" fill="white"/>
</svg>
