<?xml version="1.0" encoding="UTF-8"?>
<svg width="24px" height="24px" viewBox="0 0 24 24" version="1.1" xmlns="http://www.w3.org/2000/svg" xmlns:xlink="http://www.w3.org/1999/xlink">
    <!-- Generator: sketchtool 49.3 (51167) - http://www.bohemiancoding.com/sketch -->
    <title>59604A2F-3B6D-4BC8-A961-AF7701C41644</title>
    <desc>Created with sketchtool.</desc>
    <defs></defs>
    <g id="v1.1-16092018" stroke="none" stroke-width="1" fill="none" fill-rule="evenodd">
        <g id="2.4---portafoglio---landing-no-methods" transform="translate(-114.000000, -840.000000)" fill="#FFFFFF" fill-rule="nonzero">
            <path d="M123,840 L114,840 L114,849 L123,849 L123,840 Z M121.5,847.5 L115.5,847.5 L115.5,841.5 L121.5,841.5 L121.5,847.5 Z M117,843 L117,846 L120,846 L120,843 L117,843 Z M114,864 L114,855 L123,855 L123,864 L114,864 Z M115.5,856.5 L115.5,862.5 L121.5,862.5 L121.5,856.5 L115.5,856.5 Z M117,858 L120,858 L120,861 L117,861 L117,858 Z M129,840 L138,840 L138,849 L129,849 L129,840 Z M136.5,847.5 L136.5,841.5 L130.5,841.5 L130.5,847.5 L136.5,847.5 Z M132,843 L135,843 L135,846 L132,846 L132,843 Z M117,850.5 L117,852 L118.5,852 L118.5,853.5 L114,853.5 L114,850.5 L117,850.5 Z M124.5,853.5 L127.5,853.5 L127.5,856.5 L124.5,856.5 L124.5,853.5 Z M118.5,850.5 L121.5,850.5 L121.5,852 L118.5,852 L118.5,850.5 Z M127.5,858 L127.5,859.5 L127.5,861 L126,861 L126,859.5 L124.5,859.5 L124.5,858 L127.5,858 Z M123,850.5 L124.5,850.5 L124.5,853.5 L121.5,853.5 L121.5,852 L123,852 L123,850.5 Z M126,846 L127.5,846 L127.5,849 L126,849 L126,846 Z M127.5,852 L126,852 L126,850.5 L130.5,850.5 L130.5,853.5 L127.5,853.5 L127.5,852 Z M124.5,849 L126,849 L126,850.5 L124.5,850.5 L124.5,849 Z M127.5,861 L130.5,861 L130.5,864 L127.5,864 L127.5,861 Z M124.5,861 L126,861 L126,864 L124.5,864 L124.5,861 Z M127.5,856.5 L129,856.5 L129,858 L127.5,858 L127.5,856.5 Z M127.5,844.5 L126,844.5 L126,846 L124.5,846 L124.5,840 L126,840 L126,841.5 L127.5,841.5 L127.5,844.5 Z M132,861 L133.5,861 L133.5,864 L132,864 L132,861 Z M132,858 L135,858 L135,859.5 L132,859.5 L132,858 Z M130.5,859.5 L132,859.5 L132,861 L130.5,861 L130.5,859.5 Z M129,858 L130.5,858 L130.5,859.5 L129,859.5 L129,858 Z M135,855 L136.5,855 L138,855 L138,858 L136.5,858 L136.5,856.5 L135,856.5 L135,855 Z M136.5,859.5 L136.5,861 L138,861 L138,864 L135,864 L135,859.5 L136.5,859.5 Z M129,855 L130.5,855 L130.5,853.5 L133.5,853.5 L133.5,856.5 L129,856.5 L129,855 Z M132,850.5 L135,850.5 L138,850.5 L138,853.5 L135,853.5 L135,852 L132,852 L132,850.5 Z" id="qr-code"></path>
        </g>
    </g>
</svg>