<svg width="44" height="44" viewBox="0 0 44 44" fill="none" xmlns="http://www.w3.org/2000/svg">
<rect width="44" height="44" rx="8" fill="#EB4E3E"/>
<path d="M9 16C9 14.0861 9.00212 12.7513 9.13753 11.7442C9.26907 10.7658 9.50966 10.2477 9.87868 9.87868C10.2477 9.50966 10.7658 9.26907 11.7442 9.13753C12.7513 9.00212 14.0861 9 16 9H28C29.9139 9 31.2487 9.00212 32.2558 9.13753C33.2342 9.26907 33.7523 9.50966 34.1213 9.87868L34.8112 9.18882L34.1213 9.87868C34.4903 10.2477 34.7309 10.7658 34.8625 11.7442C34.9979 12.7513 35 14.0861 35 16V28C35 29.9139 34.9979 31.2487 34.8625 32.2558C34.7309 33.2342 34.4903 33.7523 34.1213 34.1213C33.7523 34.4903 33.2342 34.7309 32.2558 34.8625C31.2487 34.9979 29.9139 35 28 35H16C14.0861 35 12.7513 34.9979 11.7442 34.8625C10.7658 34.7309 10.2477 34.4903 9.87868 34.1213L9.18882 34.8112L9.87868 34.1213C9.50966 33.7523 9.26907 33.2342 9.13753 32.2558C9.00212 31.2487 9 29.9139 9 28V16Z" stroke="white" stroke-width="2"/>
<circle cx="32" cy="13" r="7" fill="white" stroke="#EB4E3E" stroke-width="2"/>
</svg>
