<svg width="143" height="205" viewBox="0 0 143 205" fill="none" xmlns="http://www.w3.org/2000/svg">
<g opacity="0.4">
<path d="M1 48C1 36.658 1.00212 28.2521 1.86976 21.7987C2.73353 15.3741 4.43859 11.0345 7.73654 7.73654C11.0345 4.43859 15.3741 2.73353 21.7987 1.86976C28.2521 1.00212 36.658 1 48 1H95C106.342 1 114.748 1.00212 121.201 1.86976C127.626 2.73353 131.966 4.43859 135.263 7.73654C138.561 11.0345 140.266 15.3741 141.13 21.7987C141.998 28.2521 142 36.658 142 48V204H1V48Z" fill="#0073E6"/>
<path d="M56.1819 38.608C59.0779 38.608 60.5339 36.768 60.5499 33.088C58.9499 33.696 57.5739 34 56.4219 34C52.9659 34 51.2379 32.392 51.2379 29.176C51.2379 27.56 51.7339 26.28 52.7259 25.336C53.7179 24.392 55.0539 23.92 56.7339 23.92C58.6699 23.92 60.1099 24.64 61.0539 26.08C61.9979 27.504 62.4699 29.608 62.4699 32.392C62.4699 35.16 61.9339 37.16 60.8619 38.392C59.8059 39.624 58.2459 40.24 56.1819 40.24C54.9819 40.24 53.7419 40.128 52.4619 39.904L51.8379 39.808L52.0059 38.32C53.4459 38.512 54.8379 38.608 56.1819 38.608ZM56.5659 32.368C57.5419 32.368 58.6699 32.152 59.9499 31.72L60.5739 31.504C60.5259 27.536 59.2459 25.552 56.7339 25.552C55.6139 25.552 54.7339 25.88 54.0939 26.536C53.4699 27.176 53.1579 28.056 53.1579 29.176C53.1579 31.304 54.2939 32.368 56.5659 32.368Z" fill="white"/>
<path d="M65.2916 32.272V29.536H67.2596V32.272H65.2916ZM65.2916 40V37.264H67.2596V40H65.2916Z" fill="white"/>
<path d="M77.5267 40V36.904H69.8467V35.464L74.3587 24.16H76.3747L71.7907 35.272H77.5267V30.328H79.3747V35.272H81.3907V36.904H79.3747V40H77.5267Z" fill="white"/>
<path d="M89.0124 23.896C90.3244 23.896 91.3884 24.144 92.2044 24.64C93.9324 25.664 94.7964 28.224 94.7964 32.32C94.7964 35.216 94.3164 37.264 93.3564 38.464C92.3964 39.648 90.9564 40.24 89.0364 40.24C87.1164 40.24 85.6684 39.656 84.6924 38.488C83.7324 37.304 83.2524 35.208 83.2524 32.2C83.2524 29.176 83.7244 27.04 84.6684 25.792C85.6284 24.528 87.0764 23.896 89.0124 23.896ZM89.0364 25.552C88.1244 25.552 87.4044 25.744 86.8764 26.128C85.7404 26.912 85.1724 28.984 85.1724 32.344C85.1724 34.712 85.4844 36.352 86.1084 37.264C86.7324 38.16 87.7084 38.608 89.0364 38.608C90.3644 38.608 91.3404 38.152 91.9644 37.24C92.5884 36.328 92.9004 34.64 92.9004 32.176C92.9004 29.696 92.5964 27.976 91.9884 27.016C91.3964 26.04 90.4124 25.552 89.0364 25.552Z" fill="white"/>
<rect x="8" y="90" width="127" height="29" rx="4" fill="white"/>
<rect x="8" y="123" width="127" height="29" rx="4" fill="white"/>
<rect x="8" y="156" width="127" height="29" rx="4" fill="white"/>
<rect x="8" y="57" width="127" height="29" rx="4" fill="white"/>
<path d="M1 48C1 36.658 1.00212 28.2521 1.86976 21.7987C2.73353 15.3741 4.43859 11.0345 7.73654 7.73654C11.0345 4.43859 15.3741 2.73353 21.7987 1.86976C28.2521 1.00212 36.658 1 48 1H95C106.342 1 114.748 1.00212 121.201 1.86976C127.626 2.73353 131.966 4.43859 135.263 7.73654C138.561 11.0345 140.266 15.3741 141.13 21.7987C141.998 28.2521 142 36.658 142 48V204H1V48Z" stroke="white" stroke-width="2"/>
</g>
</svg>
