<?xml version="1.0" encoding="UTF-8" standalone="no"?>
<svg
   xmlns:dc="http://purl.org/dc/elements/1.1/"
   xmlns:cc="http://creativecommons.org/ns#"
   xmlns:rdf="http://www.w3.org/1999/02/22-rdf-syntax-ns#"
   xmlns:svg="http://www.w3.org/2000/svg"
   xmlns="http://www.w3.org/2000/svg"
   xmlns:sodipodi="http://sodipodi.sourceforge.net/DTD/sodipodi-0.dtd"
   xmlns:inkscape="http://www.inkscape.org/namespaces/inkscape"
   id="Livello_1"
   data-name="Livello 1"
   viewBox="0 0 4258.3171 478"
   version="1.1"
   sodipodi:docname="Intesa Sanpaolo logo.svg"
   width="4258.3174"
   height="478"
   inkscape:version="0.92.1 r15371">
  <metadata
     id="metadata13">
    <rdf:RDF>
      <cc:Work
         rdf:about="">
        <dc:format>image/svg+xml</dc:format>
        <dc:type
           rdf:resource="http://purl.org/dc/dcmitype/StillImage" />
        <dc:title>bper-logo</dc:title>
      </cc:Work>
    </rdf:RDF>
  </metadata>
  <sodipodi:namedview
     pagecolor="#ffffff"
     bordercolor="#666666"
     borderopacity="1"
     objecttolerance="10"
     gridtolerance="10"
     guidetolerance="10"
     inkscape:pageopacity="0"
     inkscape:pageshadow="2"
     inkscape:window-width="1600"
     inkscape:window-height="837"
     id="namedview11"
     showgrid="false"
     fit-margin-top="0"
     fit-margin-left="0"
     fit-margin-right="0"
     fit-margin-bottom="0"
     inkscape:zoom="0.16205357"
     inkscape:cx="1314.4763"
     inkscape:cy="431.81813"
     inkscape:window-x="-8"
     inkscape:window-y="-8"
     inkscape:window-maximized="1"
     inkscape:current-layer="Livello_1"
     inkscape:pagecheckerboard="true" />
  <defs
     id="defs4">
    <style
       id="style2">.cls-1{fill:#00b97f;}.cls-2{fill:#006369;}</style>
  </defs>
  <title
     id="title6">bper-logo</title>
  <path
     style="fill:#006a33;fill-opacity:1;stroke-width:1.33333337"
     d="m 1016.9173,413.9368 c -19.74907,-2.8507 -43.33709,-10.0856 -45.78251,-14.0423 -0.58464,-0.946 -1.7791,0.1438 -3.14688,2.8711 -4.13397,8.2429 -2.29268,8.0726 -74.20457,6.8641 -35.93333,-0.6038 -86.93333,-1.0979 -113.33333,-1.0979 -26.4,0 -48.75,-0.4854 -49.66667,-1.0787 -2.67493,-1.7312 -1.92333,-4.8186 1.33333,-5.477 1.65,-0.3336 6.68716,-0.9293 11.1937,-1.3237 14.78061,-1.2937 17.97886,-4.2607 21.41293,-19.8647 1.81997,-8.2697 2.18868,-27.2562 2.67953,-137.9796 0.61435,-138.5846 0.2785,-147.995504 -5.55465,-155.643104 -3.3478,-4.3892 -12.67277,-8.6332 -18.96903,-8.6332 h -3.09581 l -0.0182,25.000004 c -0.0208,28.6069 -0.38068,31 -4.66132,31 -3.49387,0 -4.65381,-2.2485 -4.65381,-9.0214 0,-8.1917 -4.73986,-15.919 -12.474,-20.3362 -11.95592,-6.828304 -22.39407,-8.388004 -66.65734,-9.960504 l -19.79801,-0.7033 0.65284,134.344104 c 0.65811,135.4268 1.19164,150.4668 5.64317,159.0751 4.26078,8.2394 8.5383,9.8369 31.28442,11.6835 9.60717,0.7799 11.39032,1.2976 11.79786,3.4256 0.26406,1.3788 -0.17406,2.9112 -0.97361,3.4054 -2.04515,1.2639 -149.77531,0.9146 -151.80867,-0.3591 -2.42374,-1.5181 -2.0402,-4.6021 0.66667,-5.3606 1.28333,-0.3595 8.71148,-1.0528 16.507,-1.5406 16.91913,-1.0586 21.39984,-3.1751 25.27669,-11.9393 5.04528,-11.4057 5.4501,-21.8629 6.15632,-159.0258 l 0.68812,-133.646404 -17.1474,0.7223 c -31.04622,1.3077 -53.07454,3.0974 -57.81406,4.6971 -8.14402,2.748704 -12.9544,7.420204 -17.38214,16.880104 -2.31516,4.9463 -4.66668,9.8934 -5.2256,10.9934 -0.55893,1.1 -2.15084,2 -3.53758,2 -3.37666,0 -4.29616,-6.5576 -4.42252,-31.539804 l -0.0988,-19.5398 -5.66667,0.7235 c -10.54677,1.3465 -16.91585,6.5774 -19.69712,16.177 -2.03344,7.018504 -2.48004,23.397104 -4.74324,173.953604 -1.12256,74.676 -2.59285,137.226 -3.26732,139 -1.52844,4.0201 -5.10853,4.136 -9.95686,0.3222 -3.36203,-2.6445 -100.28078,-107.8764 -182.44748,-198.0967 -18.1994,-19.9834 -33.2922,-36.3334 -33.5394,-36.3334 -0.2471,0 -0.1822,12.75 0.1442,28.3334 0.3265,15.5833 1.1696,58.0333 1.8737,94.3333 0.704,36.3 1.9063,69.9 2.6718,74.6667 0.7654,4.7666 2.8838,11.7549 4.7076,15.5294 4.2871,8.8726 9.1732,11.2773 24.7143,12.1635 13.368,0.7622 15.9262,1.7441 13.7273,5.2691 -1.403,2.2491 -8.053,2.3574 -129.0231,2.1023 -70.1492,-0.1479 -128.1668003,-0.6538 -128.9280003,-1.1243 -0.7612,-0.4704 -1.1958,-1.8327 -0.9657,-3.0272 0.3196,-1.6599 3.1632,-2.5357 12.0627003,-3.7151 6.4044,-0.8487 13.1996,-2.5621 15.1002,-3.8075 9.4789,-6.2108 10.1332,-17.8443 9.6388,-171.3902 -0.4051,-125.816004 -0.4099,-126.009104 -3.281,-132.220904 -3.9057,-8.4504 -7.7084,-10.5687 -22.1848,-12.3582 -9.4544003,-1.1688 -12.35000025,-2.009 -12.67120025,-3.677 -0.229,-1.1891 0.3189,-2.6164 1.21749995,-3.1718 2.4915,-1.5398 127.7459003,-1.2068 129.2964003,0.3438 3.1774,3.1774 -0.3121,5.4254 -9.8621,6.3535 -13.2713,1.2896 -19.8299,4.4059 -22.9032,10.8823 -1.986,4.1854 -2.6939,10.547904 -3.6914,33.180004 -1.5373,34.8796 -0.2195,243.9306 1.6005,253.9029 1.5589,8.5411 6.5491,15.3592 14.1446,19.3257 4.1583,2.1715 8.3661,2.8494 20.0561,3.2312 23.3942,0.764 33.4184,-2.3666 42.0256,-13.1249 8.1987,-10.2476 7.9424,-6.3658 15.7812,-239.0005 1.5501,-46.0041 3.2085,-79.396904 4.0181,-80.909704 1.6871,-3.1524 5.8329,-4.6002 10.1037,-3.5283 3.1801,0.7982 38.2243,38.791104 145.2196,157.438504 27.7752,30.8 54.0719,59.9 58.437,64.6667 l 7.9366,8.6667 -0.7235,-95.3334 c -0.4807,-63.3411 -1.2222,-97.3021 -2.2095,-101.200004 -3.1928,-12.6059 -9.6832,-17.0592 -26.7848,-18.378 -7.5052,-0.5787 -11.0626,-1.4151 -11.5628,-2.7186 -1.7808,-4.6408 1.509,-4.9629 51.07088,-5.0001 l 48.71237,-0.037 2.47569,-3.2816 c 2.38626,-3.163 2.71099,-3.2213 8.98851,-1.6124 13.82275,3.5427 33.6416,4.1807 130.57028,4.2036 85.22709,0.02 101.82188,-0.2866 111.14185,-2.0545 10.11284,-1.9184 11.14395,-1.9081 13.40102,0.1346 2.23377,2.0215 10.81853,2.2012 99.27726,2.0781 80.5138,-0.112 98.44663,-0.4715 106.41294,-2.1335 5.26949,-1.0993 10.2667,-1.9993 11.1049,-1.9999 2.46764,0 2.96699,3.1091 1.62187,10.1039 -0.694,3.6089 -2.07819,17.2827 -3.07596,30.386204 -1.85516,24.363 -3.05781,28.581 -7.64704,26.8199 -1.42784,-0.5479 -2.29931,-3.4506 -2.86967,-9.5583 -0.92466,-9.9021 -4.87108,-19.229 -9.3887,-22.189 -8.35236,-5.472704 -16.25023,-6.446304 -62.16451,-7.663504 -41.03772,-1.0879 -44.80208,-1.003 -46.33333,1.046 -2.5245,3.3779 -2.40099,116.206504 0.13106,119.669204 1.72128,2.354 3.9736,2.4045 53,1.1882 55.39742,-1.3743 56.76091,-1.5708 63.93958,-9.2121 1.6835,-1.792 4.21936,-3.2582 5.63522,-3.2582 2.24671,0 2.48748,0.7211 1.89212,5.6666 -0.37518,3.1167 -1.72993,19.1667 -3.01052,35.6667 -2.41065,31.0603 -3.53306,35.6414 -7.85381,32.0555 -1.13688,-0.9434 -2.06699,-3.7124 -2.06699,-6.1531 0,-7.8415 -2.81404,-17.873 -6.11386,-21.7946 -6.57339,-7.812 -10.24535,-8.4084 -59.21947,-9.6185 -41.54869,-1.0265 -44.78787,-0.9425 -46.40291,1.2036 -1.37728,1.8301 -1.65294,13.8849 -1.33333,58.3071 0.36359,50.5355 0.63719,56.5204 2.80381,61.3333 3.43859,7.6384 9.40899,13.2514 18.37544,17.2753 13.6638,6.1319 25.64187,7.7883 57.22366,7.9131 33.66938,0.1331 41.37918,-1.3716 51.16497,-9.9854 8.81959,-7.7633 11.92369,-17.0219 16.12427,-48.0939 1.4415,-10.663 8.52013,-12.7643 10.42568,-3.0949 5.17586,26.2638 9.63921,36.2535 21.49494,48.1093 13.5897,13.5897 29.4828,19.9568 53.481,21.4257 47.1744,2.8875 79.6045,-24.5371 72.7829,-61.5492 -4.1497,-22.5156 -20.3818,-40.6772 -60.1404,-67.2895 -32.784,-21.9437 -43.5958,-30.1943 -58.4694,-44.6181 -26.2103,-25.4178 -36.60796,-46.5939 -36.70744,-74.759 -0.0765,-21.6646 5.92029,-35.8 21.88165,-51.578404 8.56169,-8.4635 12.76339,-11.4086 24.16279,-16.9363 24.6606,-11.9581 45.0519,-15.5569 81.799,-14.4365 23.8411,0.727 53.4178,4.6671 60.6667,8.0819 l 3.3333,1.5703 0.3572,32.359304 c 0.2295,20.7966 -0.1446,33.2968 -1.0469,34.9828 -0.8089,1.5113 -2.7866,2.6235 -4.6651,2.6235 -3.3692,0 -3.6158,-0.5025 -5.2349,-10.6666 -1.3529,-8.4923 -8.4531,-21.2808 -15.793,-28.4452 -13.9828,-13.648604 -30.9901,-19.918304 -54.2839,-20.011504 -21.894,-0.088 -37.4653,4.9726 -48.5986,15.793 -8.7845,8.537504 -12.0555,16.600304 -11.8991,29.330304 0.2867,23.3438 11.882,36.5306 59.831,68.0433 42.0112,27.6102 67.069,48.4747 80.0805,66.6795 5.7507,8.046 15.2528,26.4202 15.2528,29.4943 0,0.894 0.5476,1.964 1.2168,2.3776 1.1124,0.6874 65.132,-84.891 134.1021,-179.2613 32.8598,-44.961404 34.3305,-46.666704 40.2453,-46.666704 8.1861,0 7.8209,-2.4055 15.0944,99.432304 13.3308,186.6503 14.3084,197.1337 20.1462,216.0341 4.5084,14.5966 11.1712,19.1458 28.1,19.1856 3.9544,0.01 7.0283,0.8048 8.3966,2.1731 1.989,1.9891 1.9845,2.3507 -0.059,4.608 -1.2193,1.3473 -4.6977,2.7949 -7.73,3.217 -3.0321,0.4221 -29.8131,0.2985 -59.5131,-0.2746 l -54,-1.0422 -0.4268,-3.0059 c -0.4313,-3.0375 0.1498,-3.4601 6.7433,-4.9039 7.8208,-1.7125 7.8502,-1.996 5.729,-55.1971 -1.0588,-26.5575 -2.2876,-48.8729 -2.7307,-49.5897 -0.4989,-0.808 -18.2034,-1.3034 -46.5787,-1.3034 -41.6993,0 -46.0086,0.2077 -48.4136,2.3334 -5.4818,4.8449 -68.3221,97.5591 -68.3221,100.802 0,3.9441 2.1171,4.8646 11.1876,4.8646 7.7788,0 13.2001,2.7503 10.6078,5.3815 -1.0736,1.0898 -11.5387,1.6659 -34.6666,1.9082 -18.2208,0.1909 -49.9288,0.7128 -70.4621,1.1598 -28.4653,0.6196 -40.3895,0.3715 -50.1994,-1.0445 z m 295.5212,-138.0531 c 0.7911,-1.2799 -2.6668,-80.2931 -4.1323,-94.4278 -0.4036,-3.8918 -1.2581,-6.8918 -1.899,-6.6667 -1.9991,0.7021 -70.5279,100.1526 -69.8115,101.3118 0.9919,1.6048 74.8475,1.3933 75.8428,-0.2173 z M 2248.45,414.4103 c -22.3996,-3.0517 -44.8005,-10.1417 -48.1385,-15.2361 -1.7514,-2.6729 -1.9906,-8.5157 -1.6243,-39.686 0.4511,-38.3934 0.8607,-40.9564 6.5459,-40.9564 3.0134,0 5.2169,3.8414 5.2169,9.0946 0,6.6976 5.9688,24.9548 10.7657,32.93 12.826,21.3239 38.812,34.0166 69.5114,33.9523 29.6356,-0.062 54.0405,-12.5603 63.742,-32.6435 6.0653,-12.5562 4.9689,-30.8822 -2.7523,-46 -8.3283,-16.3064 -21.0064,-28.0095 -55.2668,-51.0165 -31.6404,-21.2476 -42.8045,-29.7957 -57.8252,-44.2752 -25.9608,-25.0254 -36.5844,-46.9672 -36.4943,-75.375 0.124,-39.0306 28.2484,-67.609304 77.5678,-78.820204 27.1033,-6.1609 78.2586,-4.2369 109.2534,4.1091 l 5.4983,1.4805 V 105.1408 c 0,18.2451 -0.3641,34.122 -0.8093,35.282 -1.0895,2.8391 -6.801,2.6847 -8.296,-0.2243 -0.6596,-1.2833 -1.5287,-4.9208 -1.9312,-8.0833 -1.7888,-14.0507 -15.5678,-31.7788 -30.9635,-39.837804 -12.0036,-6.2834 -22.9009,-8.624 -39.9216,-8.5745 -22.4996,0.066 -35.2932,4.2891 -47.4577,15.6676 -8.5367,7.985104 -12.2503,16.844804 -12.2503,29.225704 0,22.824 12.5679,37.0787 60.2963,68.3889 32.9729,21.6306 47.836,33.1258 64.7614,50.0872 24.032,24.0831 32.4171,41.6073 33.554,70.1262 0.748,18.7648 -1.4168,29.3026 -9.0236,43.924 -9.552,18.36 -29.8434,35.4672 -52.3757,44.1565 -20.2817,7.8215 -30.5791,9.4499 -62.9161,9.9496 -16.1334,0.2493 -33.5334,-0.1189 -38.6667,-0.8183 z m 1294.9887,-0.014 c -24.5669,-2.7148 -47.6964,-10.5026 -67.7556,-22.8136 -14.8462,-9.1117 -35.7626,-29.8582 -45.9753,-45.6017 -46.8384,-72.2047 -39.0824,-175.3694 17.7104,-235.5727 29.9361,-31.733904 70.7399,-47.870204 121.0319,-47.863504 37.5321,0.01 66.0201,7.1662 94.663,23.796 15.1828,8.8149 37.601,31.435904 46.9954,47.420504 17.6516,30.0345 25.4706,64.4296 23.9689,105.437 -2.2372,61.088 -26.7844,112.5077 -68.7433,143.9984 -32.413,24.3263 -78.1523,36.0335 -121.8954,31.1996 z m 61.4484,-27.3495 c 39.4178,-13.042 61.0339,-52.3676 65.5211,-119.2003 5.0529,-75.2587 -17.7696,-137.8421 -60.4613,-165.7965 -13.4543,-8.809804 -21.0463,-12.005804 -35.45,-14.923304 -29.9292,-6.0622 -59.948,3.045 -80.1956,24.330004 -14.1435,14.8681 -24.8254,38.6189 -29.8667,66.4082 -2.9668,16.3533 -4.1016,57.6262 -2.0716,75.3425 7.9653,69.5152 39.6509,117.9895 87.1573,133.3372 18.4044,5.9459 38.367,6.1269 55.3668,0.5022 z m 470.8963,28.0193 c -26.7111,-3.0959 -42.2545,-7.0472 -59.4844,-15.1214 -14.9963,-7.0275 -25.9656,-14.7105 -38.8417,-27.205 -6.046,-5.8669 -11.1943,-10.4138 -11.4407,-10.1043 -0.2463,0.3096 -1.168,6.1692 -2.0481,13.0214 -2.3928,18.6291 -4.1091,25.3043 -7.528,29.2802 l -3.0912,3.5946 -45.1163,-0.1192 c -146.4452,-0.3871 -180.4235,-0.9094 -181.9901,-2.7971 -2.6804,-3.2298 0.8858,-4.9298 12.4208,-5.9211 13.3913,-1.1508 16.9066,-3.4352 20.162,-13.1015 4.3964,-13.0547 5.1116,-38.1506 4.6949,-164.7278 l -0.4039,-122.666604 -2.9717,-6.0291 c -1.6344,-3.3161 -4.6344,-6.9961 -6.6667,-8.1778 -4.576,-2.661 -15.9248,-5.1265 -23.5973,-5.1265 -6.2104,0 -9.3503,-2.2278 -7.4571,-5.2911 0.9664,-1.5636 13.055,-1.8825 74.1248,-1.9553 74.2812,-0.088 78.0414,0.1505 76.2398,4.8453 -0.5604,1.4605 -3.9647,2.2119 -12.893,2.8456 -18.0589,1.2819 -23.248,4.1493 -26.9436,14.8888 -2.6461,7.689804 -2.7122,247.357104 -0.072,261.333404 2.4106,12.7606 4.8312,17.2591 11.755,21.8452 7.753,5.1354 14.4681,6.004 45.1486,5.8398 27.737,-0.1483 40.8458,-2.0502 50.4155,-7.3146 6.1052,-3.3585 13.3264,-12.9743 15.7048,-20.9128 1.4091,-4.7029 1.142,-5.5494 -5.2855,-16.7591 -17.8316,-31.0986 -26.0038,-62.5357 -26.0038,-100.0319 0,-50.7115 16.9297,-96.1471 47.9064,-128.57 31.0304,-32.479404 70.2844,-48.096604 120.8905,-48.096604 88.7849,0 147.862,47.065904 163.1072,129.945404 1.7856,9.7069 2.0816,17.9524 1.5801,44 -0.6662,34.6054 -2.1914,44.0885 -11.0529,68.7212 -20.5159,57.0293 -65.7589,96.1127 -124.0276,107.1419 -10.8912,2.0615 -38.9812,3.6826 -47.2348,2.726 z m 50.5969,-26.7229 c 13.4594,-3.779 22.8183,-9.5492 34.3008,-21.1484 9.1583,-9.2511 11.9834,-13.2308 17.6983,-24.9312 7.9671,-16.3116 13.7035,-37.4292 16.0892,-59.2304 2.4637,-22.5134 1.1255,-66.6949 -2.574,-84.9776 -10.0903,-49.8658 -34.3077,-86.1085 -68.776,-102.926404 -33.9828,-16.5811 -73.5733,-11.8745 -98.8268,11.748904 -18.2165,17.0407 -27.9835,36.8969 -34.5891,70.3201 -3.4092,17.2496 -4.1438,62.9343 -1.336,83.0679 9.141,65.5431 40.0175,110.9417 85.8408,126.214 16.3214,5.4397 36.8264,6.1719 52.1728,1.8631 z m -1224.37,17.855 c -5.9998,-5.6373 -77.9261,-83.5459 -166.8144,-180.6889 -25.6232,-28.0026 -46.771,-50.7304 -46.9953,-50.5061 -0.2243,0.2243 0.2483,36.3234 1.0501,80.2204 l 1.4579,79.8127 13.4851,16.6023 c 17.1158,21.0725 31.7072,36.595 39.3297,41.8394 4.7997,3.3024 7.7263,4.2289 15.0008,4.7494 7.7992,0.558 9.1415,1.0343 9.7943,3.4754 0.4421,1.6528 -0.017,3.4088 -1.1064,4.2242 -1.2519,0.9375 -24.9791,1.3193 -72.3126,1.1634 -38.7472,-0.1276 -71.159,-0.3056 -72.0262,-0.3955 -2.3783,-0.2464 -3.5303,-5.3595 -1.7035,-7.5607 1.1288,-1.3601 4.4339,-1.9375 11.1101,-1.941 12.1484,-0.01 18.5624,-3.2995 17.9191,-9.2 -0.292,-2.6775 -11.4333,-17.3399 -37.4633,-49.3029 l -37.0478,-45.4921 h -50.4756 -50.4756 l -0.9829,23.592 c -1.2561,30.153 -0.1916,60.7115 2.3599,67.7372 3.9898,10.9871 11.1464,15.0036 27.898,15.6571 9.6876,0.378 10.9085,0.9213 10.2108,4.5439 -0.4376,2.2727 -3.5731,2.4074 -56.7362,2.4377 -51.7528,0.029 -56.4596,-0.1545 -58.5975,-2.2917 -3.4085,-3.4074 -1.1737,-4.5557 10.7042,-5.5001 13.9183,-1.1066 19.7865,-4.3888 24.2848,-13.583 3.3123,-6.77 3.5412,-9.3883 14.1071,-161.3455 5.907,-84.9551 11.257,-155.823404 11.8888,-157.485104 1.2894,-3.3916 6.3864,-5.1753 10.9097,-3.8181 2.3351,0.7007 104.9061,127.362304 183.3763,226.445304 l 4.0044,5.0563 0.8805,-20.3897 c 0.4843,-11.2143 2.2393,-62.3256 3.9001,-113.5806 l 3.0195,-93.191004 3.1844,-2.5786 c 1.8161,-1.4706 4.4693,-2.3329 6.1749,-2.0069 6.2156,1.1882 1.4314,-3.8459 108.5062,114.171504 36.3254,40.0378 75.0254,82.6578 86,94.711 l 19.9537,21.9151 0.083,-40.5817 c 0.045,-22.32 -0.2547,-66.0817 -0.6667,-97.2484 l -0.7493,-56.666704 -3.3334,-6.5973 c -4.8504,-9.6 -8.2096,-11.4923 -23.5501,-13.2661 -11.6791,-1.3504 -13.1165,-1.8063 -13.1165,-4.1599 0,-4.0985 6.0426,-4.386 73.3333,-3.4894 33.7333,0.4495 90.7333,0.9266 126.6667,1.0602 59.603,0.2217 66.6497,0.4841 80.3424,2.9916 17.013,3.1157 35.5401,9.6098 44.1781,15.4853 14.3164,9.737904 26.1356,27.719004 29.8453,45.405104 3.4424,16.4122 0.3644,41.8061 -7.4162,61.184 -8.8803,22.1166 -23.8638,38.1322 -45.6163,48.7583 -19.4355,9.4942 -28.5119,11.2949 -56.932,11.2949 -24.1053,0 -27.6919,-0.7137 -25.9817,-5.1702 0.811,-2.1138 4.234,-2.8953 17.7656,-4.0559 26.0578,-2.235 49.6466,-24.747 57.513,-54.8877 2.895,-11.0918 2.7279,-37.4831 -0.3116,-49.2195 -3.275,-12.647 -9.9358,-24.5402 -18.72,-33.4259 -9.388,-9.4966 -19.4428,-14.695104 -33.9196,-17.537204 -12.2294,-2.4009 -37.6998,-1.9599 -40.3501,0.6987 -1.3984,1.4027 -1.6856,27.616604 -1.4976,136.666604 0.1484,86.091 0.7379,138.2293 1.6285,144.043 2.7659,18.0547 9.4736,24.5295 24.0431,23.2084 16.49,-1.4953 25.0536,-9.1511 52.7624,-47.1699 8.8,-12.0743 46,-62.4725 82.6667,-111.9959 36.6666,-49.5235 80.1666,-108.3891 96.6666,-130.8125 16.5,-22.423404 31.5996,-41.953204 33.5548,-43.399404 3.7054,-2.7409 9.286,-2.6352 12.1515,0.2303 1.7125,1.7125 1.7145,1.7362 10.7396,126.827104 11.918,165.1848 12.5299,171.4039 18.5632,188.6667 2.6517,7.5874 9.9365,14.93 15.6624,15.7867 2.564,0.3836 8.2619,1.1886 12.6619,1.7887 6.7268,0.9176 8,1.5128 8,3.7399 0,5.6339 -3.602,5.9406 -63.9063,5.442 -46.2353,-0.3823 -57.3112,-0.8162 -58.2385,-2.2814 -1.8455,-2.9157 -0.659,-4.3411 5.3865,-6.4713 3.5145,-1.2383 6.3093,-3.2788 7.3113,-5.338 2.3352,-4.7992 -1.2376,-97.1478 -3.8625,-99.837 -1.4992,-1.5359 -9.3889,-1.6452 -48.1203,-0.6667 l -46.3272,1.1704 -34.5094,49.8907 c -18.9803,27.4399 -34.335,50.7756 -34.1216,51.8571 0.6446,3.2673 4.4126,4.7516 13.5368,5.3326 8.762,0.5579 11.0468,2.045 8.769,5.7072 -0.9316,1.4979 -4.2197,1.7553 -16.2098,1.2689 -20.1198,-0.8161 -127.2664,-1.5971 -152.3747,-1.1107 -48.3433,0.9367 -52.9473,0.5166 -50.9645,-4.6503 0.4918,-1.282 4.001,-2.1609 10.9849,-2.7512 12.56,-1.0618 16.5864,-2.8719 19.7808,-8.8928 5.14,-9.6879 5.5321,-20.9816 5.5321,-159.3182 0,-130.6953 -0.053,-133.437104 -2.6666,-138.580604 -1.4667,-2.886 -4.2066,-6.371 -6.0888,-7.7444 -7.3608,-5.3713 -33.177,-6.6468 -40.2836,-1.9904 -1.8507,1.2126 -4.4739,5.0796 -5.8295,8.5934 -2.8097,7.2827 -3.5481,32.624404 -6.1695,211.722004 -0.7944,54.2667 -1.7985,100.4094 -2.2317,102.5394 -0.7767,3.8194 -3.2644,6.2705 -6.268,6.1758 -0.8456,-0.027 -4.2516,-2.5985 -7.5687,-5.7152 z M 2555.5499,269.1645 c -1.0186,-3.0562 -76.4325,-94.49 -77.1986,-93.5978 -1.0835,1.2619 -4.1535,92.1446 -3.1666,93.7415 1.0867,1.7582 80.9516,1.6154 80.3652,-0.1437 z m 747.3348,0.367 c 0.3256,-0.55 -0.513,-22 -1.8637,-47.6666 -1.3507,-25.6667 -2.4816,-48.3167 -2.5133,-50.3334 -0.032,-2.0166 -0.572,-3.6666 -1.2008,-3.6666 -1.1991,0 -68.8462,96.6833 -70.3024,100.4784 -0.7664,1.9973 2.4824,2.1882 37.2242,2.1882 20.9352,0 38.3304,-0.45 38.656,-1 z"
     id="path4584"
     inkscape:connector-curvature="0"
     sodipodi:nodetypes="ccccscccsscscssscccsccccccccscccccsccccscccsccccccsccccscccccccsccccsccsccsccccccscccsccsccccsccccscscssccsccccccsssccssccccscscccsscsscssscccccccccscscsscscccccccccccsscccssccsccsccccccscccccscsccccccccscscsccscccscccccccccscccscccccccccccscscccscscccsccccssccscccccccsccccscccccccccccccccccccccccccccccssccscccscccccscsccccscsccccssccccsccccccccccscccccccccccccsscscss" />
  <g
     id="g4588"
     transform="translate(1421.0556,-956.31567)">
    <rect
       y="956.31567"
       x="167.80972"
       height="478"
       width="478"
       id="rect4567"
       style="fill:#ec6d2d;fill-opacity:1;stroke-width:1.00043154" />
    <rect
       y="982.31567"
       x="193.80972"
       height="426"
       width="426"
       id="rect4567-2"
       style="fill:#ffffff;fill-opacity:1;stroke-width:0.89159799" />
  </g>
  <g
     id="g4656"
     transform="translate(1421.012,-1119.2518)">
    <path
       sodipodi:nodetypes="csssccsssccc"
       inkscape:connector-curvature="0"
       id="path4590"
       d="m 572.9392,1264.1818 c -0.36107,-0.3612 -17.11107,-1.2565 -37.22227,-1.9898 -20.11106,-0.7332 -44.9656,-1.8871 -55.23226,-2.5642 -29.29934,-1.9322 -82.13614,-2.2194 -176.1272,-0.9573 -80.36414,1.0792 -86.85694,1.0012 -87.64507,-1.0527 -0.46813,-1.22 -0.18853,-3.2792 0.6212,-4.5759 1.3696,-2.1931 8.188,-2.4766 97.64507,-4.0601 52.89493,-0.9363 108.77266,-1.3236 124.17266,-0.8606 15.4,0.4629 55.91894,1.0224 90.04214,1.2433 44.64946,0.289 62.8712,0.8454 65,1.9846 4.17866,2.2364 3.99706,8.5017 -0.32854,11.3359 -3.0848,2.0212 -19.24533,3.1772 -20.92573,1.4968 z"
       style="fill:#e3b228;fill-opacity:1;stroke-width:1.33333337" />
    <path
       sodipodi:nodetypes="ccccccccscccccccccccsccccccsccscc"
       inkscape:connector-curvature="0"
       id="path4590-0"
       d="m 489.32543,1465.2334 c -0.89666,-2.1713 -1.73906,-13.7944 -2.01693,-27.8309 -0.2756,-13.9156 -1.09307,-25.2531 -1.93413,-26.8247 -0.8012,-1.4972 -1.028,-3.1516 -0.50374,-3.6765 0.52414,-0.5249 1.0156,-9.1538 1.09214,-19.1753 0.2664,-34.9268 2.46506,-53.3707 7.5248,-63.1232 6.00573,-11.5762 25.09813,-25.5947 38.24,-28.0777 20.07133,-3.7922 37.63186,1.9922 47.828,15.7545 3.0808,4.1584 5.60146,8.5653 5.60146,9.7931 0,1.2278 0.5604,2.8023 1.24547,3.499 4.46547,4.5417 8.53013,61.2108 7.55027,105.2666 -0.32614,14.6667 -0.63867,28.9167 -0.6944,31.6667 -0.10667,5.2888 -1.8464,6.1054 -8.94547,4.2004 -3.13453,-0.8411 -5.38173,-9.185 -3.18627,-11.8304 0.6688,-0.8059 1.05494,-7.579 0.858,-15.0514 -0.19693,-7.4724 0.1684,-13.7617 0.812,-13.9762 0.66827,-0.2228 0.6604,-1.7681 -0.0187,-3.6029 -0.66254,-1.7912 -0.70214,-5.8164 -0.0893,-9.0969 0.60454,-3.2363 0.60094,-6.8798 -0.0133,-8.0967 -0.60893,-1.2169 -1.1788,-11.2126 -1.26627,-22.2126 -0.088,-11 -0.5932,-23 -1.12373,-26.6666 -0.53053,-3.6667 -0.8316,-7.1799 -0.6692,-7.807 0.16253,-0.6272 -0.37733,-1.951 -1.19947,-2.9416 -0.82226,-0.9907 -1.1356,-2.3826 -0.69653,-3.0931 0.4392,-0.7105 0.2664,-2.6868 -0.38387,-4.3917 -0.65026,-1.705 -2.25133,-6.4 -3.55813,-10.4333 -3.25507,-10.0472 -5.97,-13.529 -13.50653,-17.3212 -8.59374,-4.3242 -9.10094,-4.4463 -19.12027,-4.6047 -17.724,-0.28 -32.59013,9.0368 -39.26053,24.6051 -5.3832,12.5639 -6.68494,29.2323 -6.71334,85.9669 -0.024,46.7017 -0.244,52.0215 -2.17213,52.395 -1.3164,0.2549 -2.7412,-1.0257 -3.6856,-3.3127 z"
       style="fill:#ec6d2d;fill-opacity:1;stroke-width:1.33333337" />
    <path
       sodipodi:nodetypes="ccccccssccccccccccccccsccccccccc"
       inkscape:connector-curvature="0"
       id="path4590-1"
       d="m 359.0468,1464.1992 c -1.88973,-2.8841 -2.3484,-7.6369 -2.7108,-28.094 -0.25067,-14.1492 -1.04693,-25.7639 -1.87213,-27.3057 -0.78974,-1.4756 -1.03054,-3.3387 -0.53534,-4.1401 0.69347,-1.1221 0.88374,-18.618 0.3532,-32.4877 -0.2596,-6.7875 3.7468,-36.4453 5.81187,-43.0225 3.9204,-12.4866 13.00173,-22.6697 26.34253,-29.5384 5.81027,-2.9915 12.1376,-5.4391 14.06067,-5.4391 1.92307,0 4.50707,-0.5107 5.74213,-1.1348 3.68867,-1.8639 20.3844,0.4876 27.51054,3.8746 13.34986,6.3452 21.82866,19.0329 25.48306,38.1331 1.00614,5.258 2.44627,20.8627 3.20054,34.6769 1.4692,26.911 1.84933,87.2501 0.57946,91.9832 -1,3.7272 -8.1972,5.0443 -11.52786,2.1096 -2.65467,-2.3391 -2.9444,-6.7221 -0.92494,-13.9939 0.7664,-2.7598 0.92974,-5.7598 0.36294,-6.6666 -1.41507,-2.2639 -0.5388,-18.7625 1.04866,-19.7435 0.82227,-0.5082 0.82214,-2.0063 -2.6e-4,-4.1695 -0.79614,-2.0937 -0.82307,-5.4267 -0.0707,-8.774 0.90413,-4.0239 0.726,-6.336 -0.69973,-9.0841 -1.052,-2.0276 -1.57174,-4.238 -1.1552,-4.912 0.722,-1.1682 0.66106,-10.9824 -0.2044,-32.9657 -0.21654,-5.5 -0.51027,-10 -0.65267,-10 -0.14253,0 -0.4344,-1.2 -0.64867,-2.6667 -4.50226,-30.8132 -9.37666,-39.6859 -24.86213,-45.2544 -7.32787,-2.6351 -21.7892,-3.0169 -24.6404,-0.6507 -0.88267,0.7326 -2.118,1.2173 -2.7452,1.077 -1.9444,-0.4349 -9.12813,3.3059 -14.39307,7.4948 -2.9532,2.3497 -6.81426,7.5756 -9.3584,12.6667 -6.17173,12.35 -7.93586,32.8985 -8.00306,93.2181 -0.0547,49.279 -0.44974,52.5024 -5.4904,44.8094 z"
       style="fill:#006a32;fill-opacity:1;stroke-width:1.33333337" />
    <path
       sodipodi:nodetypes="cccccccsccsccccccscccscccccccsccc"
       inkscape:connector-curvature="0"
       id="path4590-2"
       d="m 225.90891,1463.6802 c -1.41454,-2.7351 -2.06787,-10.2964 -2.44467,-28.2874 -0.296,-14.1357 -1.13067,-25.7006 -1.96707,-27.2556 -0.85413,-1.5879 -0.98453,-3.5379 -0.3164,-4.7316 0.62494,-1.1168 1.07267,-9.8013 0.9948,-19.2989 -0.0773,-9.4976 0.27614,-21.4683 0.78654,-26.6017 0.51053,-5.1333 1.23186,-12.9333 1.60306,-17.3333 2.2536,-26.7104 28.6388,-48.1178 58.39387,-47.3776 8.12413,0.2021 18.66533,3.6338 24.98533,8.1341 2.02254,1.4401 5.7168,5.4591 8.20947,8.931 11.31027,15.7531 13.31627,30.6369 13.5124,100.2531 l 0.152,53.9407 -4.138,0.851 c -2.35107,0.4835 -5.02173,0.2047 -6.1848,-0.6457 -2.20933,-1.6156 -4.048,-11.0334 -2.358,-12.0779 1.334,-0.8244 2.5272,-7.0512 1.5404,-8.0381 -0.9524,-0.9524 -1.16093,-20.6373 -0.21867,-20.6371 0.3808,0 0.52294,-4.65 0.31587,-10.3334 -0.20707,-5.6834 -0.60347,-18.7334 -0.8808,-29.0001 -0.57333,-21.2175 -1.9396,-39.3673 -3.10533,-41.2536 -0.43467,-0.7031 -0.92547,-2.5087 -1.0908,-4.0124 -0.5996,-5.4519 -3.17307,-13.5467 -6.46974,-20.3499 -3.0036,-6.1983 -4.32666,-7.4118 -12.24666,-11.2315 -7.66907,-3.6987 -10.14654,-4.2483 -18.17814,-4.0326 -5.11453,0.1374 -9.9784,0.6757 -10.8088,1.1963 -0.8304,0.5206 -2.10986,0.9989 -2.8432,1.0629 -3.19906,0.2793 -11.05253,4.847 -15.54586,9.0418 -5.38574,5.028 -12.0976,18.013 -12.53214,24.2457 -0.15346,2.2 -0.96213,10 -1.79706,17.3333 -0.87787,7.7104 -1.47214,33.0136 -1.40907,60 0.06,25.6666 0.0733,47.3525 0.0293,48.1907 -0.17733,3.4189 -4.09866,2.9722 -5.9884,-0.6822 z"
       style="fill:#295493;fill-opacity:1;stroke-width:1.33333337" />
  </g>
</svg>
