<svg width="24" height="24" viewBox="0 0 24 24" fill="none" xmlns="http://www.w3.org/2000/svg">
<path d="M8.48422 20.4373C8.48422 21.6004 9.43047 22.5467 10.5936 22.5467C11.7567 22.5467 12.7029 21.6004 12.7029 20.4373C12.7029 19.2742 11.7567 18.328 10.5936 18.328C9.43047 18.328 8.48422 19.2742 8.48422 20.4373ZM10.5936 19.7342C10.9813 19.7342 11.2967 20.0496 11.2967 20.4373C11.2967 20.825 10.9813 21.1405 10.5936 21.1405C10.2059 21.1405 9.89045 20.825 9.89045 20.4373C9.89045 20.0496 10.2059 19.7342 10.5936 19.7342Z" fill="#0073E6"/>
<path d="M15.5623 20.4373C15.5623 21.6004 16.5085 22.5467 17.6716 22.5467C18.8347 22.5467 19.7809 21.6004 19.7809 20.4373C19.7809 19.2742 18.8347 18.328 17.6716 18.328C16.5085 18.328 15.5623 19.2742 15.5623 20.4373ZM17.6716 19.7342C18.0593 19.7342 18.3747 20.0496 18.3747 20.4373C18.3747 20.825 18.0593 21.1405 17.6716 21.1405C17.2839 21.1405 16.9685 20.825 16.9685 20.4373C16.9685 20.0496 17.2839 19.7342 17.6716 19.7342Z" fill="#0073E6"/>
<path d="M23.2965 4.26574H5.49915C5.2584 3.42299 5.03406 2.63775 4.84136 1.96328C4.75516 1.66141 4.47921 1.45329 4.16529 1.45329H0.703114C0.314808 1.45329 0 1.76809 0 2.1564C0 2.54471 0.314808 2.85951 0.703114 2.85951H3.63491C4.42118 5.61178 6.25931 12.0454 7.02992 14.7426L6.76354 15.2753C6.06159 16.6794 7.08387 18.328 8.65022 18.328H20.4841C20.8724 18.328 21.1872 18.0132 21.1872 17.6249C21.1872 17.2366 20.8724 16.9218 20.4841 16.9218H8.65022C8.1273 16.9218 7.78769 16.3716 8.02131 15.9042L8.21565 15.5156H20.4841C20.798 15.5156 21.0739 15.3075 21.1601 15.0056L23.9726 5.16202C24.1007 4.71367 23.7638 4.26574 23.2965 4.26574ZM19.9537 14.1093H8.31151C7.92841 12.7684 6.85621 9.01575 5.90091 5.67197H22.3644L19.9537 14.1093Z" fill="#0073E6"/>
</svg>
