<?xml version="1.0" encoding="UTF-8"?>
<svg width="50px" height="50px" viewBox="0 0 50 50" version="1.1" xmlns="http://www.w3.org/2000/svg" xmlns:xlink="http://www.w3.org/1999/xlink">
    <title>unknown-gdo</title>
    <g id="unknown-gdo" stroke="none" stroke-width="1" fill="none" fill-rule="evenodd">
        <g id="Group" transform="translate(1.000000, 6.000000)" fill="#00C5CA" fill-rule="nonzero">
            <path d="M47,8 C47.668161,8 48.1367811,8.6373398 47.9654452,9.26151178 L47.9284767,9.37139068 L41.9284767,24.3713907 C41.8083216,24.6717783 41.5515263,24.8930511 41.2422914,24.970221 L41.1240347,24.9922779 L17.1240347,27.9922779 C16.5760148,28.0607804 16.0762246,27.6720547 16.0077221,27.1240347 C15.9441127,26.6151591 16.2747459,26.1478693 16.7610792,26.028863 L16.8759653,26.0077221 L40.29,23.08 L45.522,10 L13,10 C12.4871642,10 12.0644928,9.61395981 12.0067277,9.11662113 L12,9 C12,8.48716416 12.3860402,8.06449284 12.8833789,8.00672773 L13,8 L47,8 Z" id="Path-2"></path>
            <path d="M10,-7.10542736e-15 C10.4284691,-7.10542736e-15 10.8045425,0.272080024 10.9435471,0.66861768 L10.975441,0.779739129 L16.9075739,27.0506135 C16.9601483,27.283443 16.9274657,27.5260246 16.8178192,27.7351685 L16.7566208,27.836754 L12.8244878,33.5658797 C12.5119611,34.0212317 11.8894724,34.1370146 11.4341203,33.8244878 C11.0137953,33.5360016 10.8828075,32.9834058 11.1109533,32.5419513 L11.1755122,32.4341203 L14.86,27.064 L9.2,2 L1,2 C0.487164161,2 0.0644928393,1.61395981 0.00672773133,1.11662113 L-1.77635684e-14,1 C-1.77635684e-14,0.487164161 0.38604019,0.0644928393 0.883378875,0.00672773133 L1,-7.10542736e-15 L10,-7.10542736e-15 Z" id="Path-3"></path>
            <path d="M16,35 C13.790861,35 12,36.790861 12,39 C12,41.209139 13.790861,43 16,43 C18.209139,43 20,41.209139 20,39 C20,36.790861 18.209139,35 16,35 Z M16,37 C17.1045695,37 18,37.8954305 18,39 C18,40.1045695 17.1045695,41 16,41 C14.8954305,41 14,40.1045695 14,39 C14,37.8954305 14.8954305,37 16,37 Z" id="Oval"></path>
            <path d="M36,35 C33.790861,35 32,36.790861 32,39 C32,41.209139 33.790861,43 36,43 C38.209139,43 40,41.209139 40,39 C40,36.790861 38.209139,35 36,35 Z M36,37 C37.1045695,37 38,37.8954305 38,39 C38,40.1045695 37.1045695,41 36,41 C34.8954305,41 34,40.1045695 34,39 C34,37.8954305 34.8954305,37 36,37 Z" id="Oval-Copy"></path>
            <path d="M40,32 C40.5522847,32 41,32.4477153 41,33 C41,33.5128358 40.6139598,33.9355072 40.1166211,33.9932723 L40,34 L12,34 C11.4477153,34 11,33.5522847 11,33 C11,32.4871642 11.3860402,32.0644928 11.8833789,32.0067277 L12,32 L40,32 Z" id="Path-4"></path>
        </g>
    </g>
</svg>