<?xml version="1.0" encoding="UTF-8"?>
<svg width="88px" height="88px" viewBox="0 0 88 88" version="1.1" xmlns="http://www.w3.org/2000/svg" xmlns:xlink="http://www.w3.org/1999/xlink">
    <!-- Generator: sketchtool 49.3 (51167) - http://www.bohemiancoding.com/sketch -->
    <title>4AF10B05-556D-45DE-AC90-97D14E83E5AC</title>
    <desc>Created with sketchtool.</desc>
    <defs></defs>
    <g id="v1.1-16092018" stroke="none" stroke-width="1" fill="none" fill-rule="evenodd" opacity="0.1">
        <g id="2.4---portafoglio---landing-no-methods" transform="translate(-261.000000, -66.000000)" fill="#E6E9F2" fill-rule="nonzero">
            <path d="M297.903226,87.2903226 C297.903226,84.9427097 299.813677,83.0322581 302.16129,83.0322581 L309.258065,83.0322581 L309.258065,80.1935484 L302.16129,80.1935484 C298.248129,80.1935484 295.064516,83.3771613 295.064516,87.2903226 L293.310194,87.2903226 L261,103.445419 L261,111.419355 L263.83871,111.419355 L263.83871,117.096774 L266.677419,117.096774 L266.677419,139.806452 L263.83871,139.806452 L263.83871,145.483871 L261,145.483871 L261,154 L331.967742,154 L331.967742,145.483871 L329.129032,145.483871 L329.129032,139.806452 L326.290323,139.806452 L326.290323,117.096774 L329.129032,117.096774 L329.129032,111.419355 L331.967742,111.419355 L331.967742,103.445419 L299.657548,87.2903226 L297.903226,87.2903226 Z M266.677419,142.645161 L275.193548,142.645161 L275.193548,145.483871 L266.677419,145.483871 L266.677419,142.645161 Z M283.709677,117.096774 L283.709677,139.806452 L280.870968,139.806452 L280.870968,145.483871 L278.032258,145.483871 L278.032258,139.806452 L275.193548,139.806452 L275.193548,117.096774 L278.032258,117.096774 L278.032258,111.419355 L280.870968,111.419355 L280.870968,117.096774 L283.709677,117.096774 Z M300.741935,117.096774 L300.741935,139.806452 L297.903226,139.806452 L297.903226,145.483871 L295.064516,145.483871 L295.064516,139.806452 L292.225806,139.806452 L292.225806,117.096774 L295.064516,117.096774 L295.064516,111.419355 L297.903226,111.419355 L297.903226,117.096774 L300.741935,117.096774 Z M317.774194,117.096774 L317.774194,139.806452 L314.935484,139.806452 L314.935484,145.483871 L312.096774,145.483871 L312.096774,139.806452 L309.258065,139.806452 L309.258065,117.096774 L312.096774,117.096774 L312.096774,111.419355 L314.935484,111.419355 L314.935484,117.096774 L317.774194,117.096774 Z M326.290323,142.645161 L326.290323,145.483871 L317.774194,145.483871 L317.774194,142.645161 L326.290323,142.645161 Z M320.612903,139.806452 L320.612903,117.096774 L323.451613,117.096774 L323.451613,139.806452 L320.612903,139.806452 Z M309.258065,114.258065 L300.741935,114.258065 L300.741935,111.419355 L309.258065,111.419355 L309.258065,114.258065 Z M306.419355,117.096774 L306.419355,139.806452 L303.580645,139.806452 L303.580645,117.096774 L306.419355,117.096774 Z M309.258065,142.645161 L309.258065,145.483871 L300.741935,145.483871 L300.741935,142.645161 L309.258065,142.645161 Z M292.225806,114.258065 L283.709677,114.258065 L283.709677,111.419355 L292.225806,111.419355 L292.225806,114.258065 Z M289.387097,117.096774 L289.387097,139.806452 L286.548387,139.806452 L286.548387,117.096774 L289.387097,117.096774 Z M292.225806,142.645161 L292.225806,145.483871 L283.709677,145.483871 L283.709677,142.645161 L292.225806,142.645161 Z M275.193548,114.258065 L266.677419,114.258065 L266.677419,111.419355 L275.193548,111.419355 L275.193548,114.258065 Z M272.354839,117.096774 L272.354839,139.806452 L269.516129,139.806452 L269.516129,117.096774 L272.354839,117.096774 Z M329.129032,148.322581 L329.129032,151.16129 L263.83871,151.16129 L263.83871,148.322581 L329.129032,148.322581 Z M326.290323,114.258065 L317.774194,114.258065 L317.774194,111.419355 L326.290323,111.419355 L326.290323,114.258065 Z M329.129032,108.580645 L314.935484,108.580645 L312.096774,108.580645 L297.903226,108.580645 L295.064516,108.580645 L280.870968,108.580645 L278.032258,108.580645 L263.83871,108.580645 L263.83871,105.199742 L293.980129,90.1290323 L295.064516,90.1290323 L295.064516,100.064516 L297.903226,100.064516 L297.903226,90.1290323 L298.987613,90.1290323 L329.129032,105.199742 L329.129032,108.580645 Z M333.387097,66 C341.995484,66 349,73.0045161 349,81.6129032 C349,90.2212903 341.995484,97.2258065 333.387097,97.2258065 C324.77871,97.2258065 317.774194,90.2212903 317.774194,81.6129032 C317.774194,73.0045161 324.77871,66 333.387097,66 Z M333.387097,94.3870968 C340.431355,94.3870968 346.16129,88.6571613 346.16129,81.6129032 C346.16129,74.5686452 340.431355,68.8387097 333.387097,68.8387097 C326.342839,68.8387097 320.612903,74.5686452 320.612903,81.6129032 C320.612903,88.6571613 326.342839,94.3870968 333.387097,94.3870968 Z M312.096774,80.1935484 L314.935484,80.1935484 L314.935484,83.0322581 L312.096774,83.0322581 L312.096774,80.1935484 Z M340.483871,121.354839 L340.483871,98.6451613 L343.322581,98.6451613 L343.322581,121.354839 C343.322581,125.268 340.138968,128.451613 336.225806,128.451613 L334.806452,128.451613 L334.806452,125.612903 L336.225806,125.612903 C338.573419,125.612903 340.483871,123.702452 340.483871,121.354839 Z M329.129032,125.612903 L331.967742,125.612903 L331.967742,128.451613 L329.129032,128.451613 L329.129032,125.612903 Z M338.92535,88.2629788 C339.0921,88.6583534 338.983202,88.9773111 338.561222,89.1666922 C338.125629,89.3627182 337.669618,89.522197 337.210204,89.6451286 C335.444012,90.1202426 333.677821,90.136855 331.925241,89.5820016 C329.805131,88.9108616 328.396261,87.5021319 327.555703,85.5219365 C327.395759,85.1398519 327.290264,84.7345099 327.164351,84.3358128 L325.503654,84.3358128 C325.224602,84.3358128 325,84.1165294 325,83.8440864 L325,82.750992 C325,82.478549 325.224602,82.2592656 325.503654,82.2592656 L326.881896,82.2592656 C326.881896,81.9569203 326.881896,81.667865 326.881896,81.3688422 L325.503654,81.3688422 C325.224602,81.3688422 325,81.1495588 325,80.8771158 L325,79.7840214 C325,79.5115784 325.224602,79.292295 325.503654,79.292295 L327.25283,79.292295 L327.310682,79.1228487 C327.780306,77.657637 328.590236,76.4117087 329.839161,75.4681257 C330.829454,74.7172462 331.976287,74.3052593 333.204794,74.1125557 C334.950568,73.8401127 336.641892,74.072686 338.28217,74.6973114 C338.387665,74.7371811 338.489757,74.7836957 338.588446,74.8401778 C338.983202,75.0661062 339.085294,75.3551615 338.911738,75.763826 C338.727972,76.1990703 338.544206,76.6309921 338.343426,77.056269 C338.169869,77.4250638 337.935058,77.5413504 337.530093,77.4516436 C336.975393,77.328712 336.430902,77.1625882 335.876202,77.0529465 C334.705547,76.8170507 333.545101,76.8070833 332.408477,77.2456501 C331.431797,77.6244123 330.83626,78.3520344 330.427892,79.2590702 C330.421086,79.2657152 330.421086,79.2790051 330.421086,79.292295 L333.824153,79.292295 C334.103204,79.292295 334.327807,79.5115784 334.327807,79.7840214 L334.327807,80.8771158 C334.327807,81.1495588 334.103204,81.3688422 333.824153,81.3688422 L329.931044,81.3688422 C329.927641,81.66122 329.931044,81.9535979 329.931044,82.2592656 L333.824153,82.2592656 C334.103204,82.2592656 334.327807,82.478549 334.327807,82.750992 L334.327807,83.8440864 C334.327807,84.1165294 334.103204,84.3358128 333.824153,84.3358128 L330.271351,84.3358128 C330.700137,85.531904 331.397766,86.4588746 332.707947,86.8608942 C333.752688,87.1831743 334.814445,87.1632394 335.872799,86.9472785 C336.420693,86.8376368 336.958377,86.6748355 337.506271,86.551904 C337.938461,86.4555522 338.169869,86.5685163 338.350232,86.9539235 C338.554416,87.3858453 338.741584,87.8244121 338.92535,88.2629788 Z" id="bank"></path>
        </g>
    </g>
</svg>