<svg width="328" height="205" viewBox="0 0 328 205" fill="none" xmlns="http://www.w3.org/2000/svg">
<rect width="328" height="205" rx="8" fill="#F4F5F8"/>
<g style="mix-blend-mode:luminosity" opacity="0.5">
<mask id="mask0_19961_29904" style="mask-type:alpha" maskUnits="userSpaceOnUse" x="0" y="0" width="328" height="206">
<rect y="0.00317383" width="328" height="205" rx="8" fill="#ABD8F2"/>
</mask>
<g mask="url(#mask0_19961_29904)">
<path d="M220.8 531.003C398.941 531.003 543.354 384.824 543.354 204.503C543.354 24.1822 398.941 -121.997 220.8 -121.997C42.6576 -121.997 -101.755 24.1822 -101.755 204.503C-101.755 384.824 42.6576 531.003 220.8 531.003Z" fill="#E8EEF4"/>
<mask id="mask1_19961_29904" style="mask-type:luminance" maskUnits="userSpaceOnUse" x="-102" y="-122" width="646" height="654">
<path d="M220.801 531.003C398.942 531.003 543.355 384.824 543.355 204.503C543.355 24.1822 398.942 -121.997 220.801 -121.997C42.6586 -121.997 -101.754 24.1822 -101.754 204.503C-101.754 384.824 42.6586 531.003 220.801 531.003Z" fill="white"/>
</mask>
<g mask="url(#mask1_19961_29904)">
<path d="M-465.251 -600.863C-465.251 -600.863 109.253 114.904 -465.251 788.021C-465.251 788.021 241.87 206.489 906.85 788.021C906.85 788.021 332.346 72.2508 906.85 -600.863C906.85 -600.863 199.732 -19.3315 -465.251 -600.863Z" stroke="black" stroke-opacity="0.05" stroke-miterlimit="10"/>
<path d="M-457.745 -593.233C-457.745 -593.233 110.472 114.704 -457.745 780.453C-457.745 780.453 241.637 205.285 899.34 780.453C899.34 780.453 331.123 72.5159 899.34 -593.233C899.34 -593.233 199.958 -18.0652 -457.745 -593.233Z" stroke="black" stroke-opacity="0.05" stroke-miterlimit="10"/>
<path d="M-450.235 -585.602C-450.235 -585.602 111.694 114.501 -450.235 772.884C-450.235 772.884 241.408 204.081 891.834 772.884C891.834 772.884 329.905 72.7809 891.834 -585.602C891.834 -585.602 200.191 -16.7988 -450.235 -585.602Z" stroke="black" stroke-opacity="0.05" stroke-miterlimit="10"/>
<path d="M-442.729 -577.971C-442.729 -577.971 112.912 114.299 -442.729 765.316C-442.729 765.316 241.174 202.877 884.324 765.316C884.324 765.316 328.682 73.046 884.324 -577.971C884.324 -577.971 200.42 -15.5325 -442.729 -577.971Z" stroke="black" stroke-opacity="0.05" stroke-miterlimit="10"/>
<path d="M-435.22 -570.34C-435.22 -570.34 114.135 114.096 -435.22 757.747C-435.22 757.747 240.945 201.673 876.818 757.747C876.818 757.747 327.464 73.311 876.818 -570.34C876.818 -570.34 200.653 -14.2662 -435.22 -570.34Z" stroke="black" stroke-opacity="0.05" stroke-miterlimit="10"/>
<path d="M-427.713 -562.706C-427.713 -562.706 115.357 113.896 -427.713 750.182C-427.713 750.182 240.713 200.469 869.309 750.182C869.309 750.182 326.239 73.5794 869.309 -562.706C869.309 -562.706 200.884 -12.9932 -427.713 -562.706Z" stroke="black" stroke-opacity="0.05" stroke-miterlimit="10"/>
<path d="M-420.203 -555.076C-420.203 -555.076 116.579 113.696 -420.203 742.613C-420.203 742.613 240.487 199.264 861.804 742.613C861.804 742.613 325.021 73.8411 861.804 -555.076C861.804 -555.076 201.113 -11.7269 -420.203 -555.076Z" stroke="black" stroke-opacity="0.05" stroke-miterlimit="10"/>
<path d="M-412.694 -547.445C-412.694 -547.445 117.801 113.494 -412.694 735.045C-412.694 735.045 240.257 198.06 854.297 735.045C854.297 735.045 323.802 74.1062 854.297 -547.445C854.297 -547.445 201.345 -10.4605 -412.694 -547.445Z" stroke="black" stroke-opacity="0.05" stroke-miterlimit="10"/>
<path d="M-405.188 -539.814C-405.188 -539.814 119.02 113.291 -405.188 727.476C-405.188 727.476 240.025 196.856 846.788 727.476C846.788 727.476 322.58 74.3711 846.788 -539.814C846.788 -539.814 201.576 -9.1943 -405.188 -539.814Z" stroke="black" stroke-opacity="0.05" stroke-miterlimit="10"/>
<path d="M-397.679 -532.183C-397.679 -532.183 120.241 113.088 -397.679 719.907C-397.679 719.907 239.795 195.652 839.281 719.907C839.281 719.907 321.361 74.6363 839.281 -532.183C839.281 -532.183 201.808 -7.9278 -397.679 -532.183Z" stroke="black" stroke-opacity="0.05" stroke-miterlimit="10"/>
<path d="M-390.173 -524.552C-390.173 -524.552 121.46 112.885 -390.173 712.339C-390.173 712.339 239.562 194.448 831.771 712.339C831.771 712.339 320.139 74.9013 831.771 -524.552C831.771 -524.552 202.037 -6.66156 -390.173 -524.552Z" stroke="black" stroke-opacity="0.05" stroke-miterlimit="10"/>
<path d="M-382.663 -516.922C-382.663 -516.922 122.682 112.682 -382.663 704.77C-382.663 704.77 239.332 193.244 824.265 704.77C824.265 704.77 318.92 75.1662 824.265 -516.922C824.265 -516.922 202.27 -5.39529 -382.663 -516.922Z" stroke="black" stroke-opacity="0.05" stroke-miterlimit="10"/>
<path d="M-375.157 -509.288C-375.157 -509.288 123.9 112.482 -375.157 697.205C-375.157 697.205 239.099 192.043 816.755 697.205C816.755 697.205 317.698 75.4345 816.755 -509.288C816.755 -509.288 202.499 -4.12566 -375.157 -509.288Z" stroke="black" stroke-opacity="0.05" stroke-miterlimit="10"/>
<path d="M-367.646 -501.657C-367.646 -501.657 125.123 112.283 -367.646 689.636C-367.646 689.636 238.874 190.838 809.25 689.636C809.25 689.636 316.481 75.6964 809.25 -501.657C809.25 -501.657 202.73 -2.85933 -367.646 -501.657Z" stroke="black" stroke-opacity="0.05" stroke-miterlimit="10"/>
<path d="M-360.141 -494.026C-360.141 -494.026 126.342 112.08 -360.141 682.068C-360.141 682.068 238.641 189.634 801.741 682.068C801.741 682.068 315.258 75.9615 801.741 -494.026C801.741 -494.026 202.959 -1.59293 -360.141 -494.026Z" stroke="black" stroke-opacity="0.05" stroke-miterlimit="10"/>
<path d="M-352.632 -486.396C-352.632 -486.396 127.566 111.877 -352.632 674.496C-352.632 674.496 238.411 188.424 794.231 674.496C794.231 674.496 314.032 76.2231 794.231 -486.396C794.231 -486.396 203.188 -0.323443 -352.632 -486.396Z" stroke="black" stroke-opacity="0.05" stroke-miterlimit="10"/>
<path d="M-345.125 -478.765C-345.125 -478.765 128.786 111.674 -345.125 666.927C-345.125 666.927 238.179 187.219 786.722 666.927C786.722 666.927 312.811 76.4882 786.722 -478.765C786.722 -478.765 203.418 0.942962 -345.125 -478.765Z" stroke="black" stroke-opacity="0.05" stroke-miterlimit="10"/>
<path d="M-337.616 -471.134C-337.616 -471.134 130.007 111.471 -337.616 659.358C-337.616 659.358 237.949 186.015 779.215 659.358C779.215 659.358 311.592 76.7533 779.215 -471.134C779.215 -471.134 203.65 2.20933 -337.616 -471.134Z" stroke="black" stroke-opacity="0.05" stroke-miterlimit="10"/>
<path d="M-330.11 -463.503C-330.11 -463.503 131.225 111.268 -330.11 651.79C-330.11 651.79 237.715 184.811 771.705 651.79C771.705 651.79 310.369 77.0183 771.705 -463.503C771.705 -463.503 203.879 3.47562 -330.11 -463.503Z" stroke="black" stroke-opacity="0.05" stroke-miterlimit="10"/>
<path d="M-322.601 -455.869C-322.601 -455.869 132.447 111.069 -322.601 644.225C-322.601 644.225 237.486 183.61 764.199 644.225C764.199 644.225 309.151 77.2868 764.199 -455.869C764.199 -455.869 204.112 4.7454 -322.601 -455.869Z" stroke="black" stroke-opacity="0.05" stroke-miterlimit="10"/>
<path d="M-315.095 -448.238C-315.095 -448.238 133.666 110.869 -315.095 636.656C-315.095 636.656 237.256 182.406 756.689 636.656C756.689 636.656 307.929 77.5485 756.689 -448.238C756.689 -448.238 204.338 6.01169 -315.095 -448.238Z" stroke="black" stroke-opacity="0.05" stroke-miterlimit="10"/>
<path d="M-307.584 -440.608C-307.584 -440.608 134.889 110.666 -307.584 629.087C-307.584 629.087 237.028 181.202 749.184 629.087C749.184 629.087 306.711 77.8135 749.184 -440.608C749.184 -440.608 204.572 7.27797 -307.584 -440.608Z" stroke="black" stroke-opacity="0.05" stroke-miterlimit="10"/>
<path d="M-300.078 -432.977C-300.078 -432.977 136.107 110.464 -300.078 621.519C-300.078 621.519 236.795 179.998 741.674 621.519C741.674 621.519 305.489 78.0787 741.674 -432.977C741.674 -432.977 204.801 8.54442 -300.078 -432.977Z" stroke="black" stroke-opacity="0.05" stroke-miterlimit="10"/>
<path d="M-292.568 -425.346C-292.568 -425.346 137.33 110.261 -292.568 613.95C-292.568 613.95 236.566 178.794 734.168 613.95C734.168 613.95 304.27 78.3437 734.168 -425.346C734.168 -425.346 205.034 9.81071 -292.568 -425.346Z" stroke="black" stroke-opacity="0.05" stroke-miterlimit="10"/>
<path d="M-285.06 -417.715C-285.06 -417.715 138.551 110.058 -285.06 606.382C-285.06 606.382 236.336 177.589 726.662 606.382C726.662 606.382 303.051 78.6087 726.662 -417.715C726.662 -417.715 205.266 11.077 -285.06 -417.715Z" stroke="black" stroke-opacity="0.05" stroke-miterlimit="10"/>
<path d="M-277.553 -410.084C-277.553 -410.084 139.77 109.855 -277.553 598.813C-277.553 598.813 236.103 176.385 719.153 598.813C719.153 598.813 301.83 78.8737 719.153 -410.084C719.153 -410.084 205.497 12.3433 -277.553 -410.084Z" stroke="black" stroke-opacity="0.05" stroke-miterlimit="10"/>
<path d="M-270.044 -402.45C-270.044 -402.45 140.995 109.655 -270.044 591.248C-270.044 591.248 235.873 175.181 711.646 591.248C711.646 591.248 300.607 79.142 711.646 -402.45C711.646 -402.45 205.729 13.6163 -270.044 -402.45Z" stroke="black" stroke-opacity="0.05" stroke-miterlimit="10"/>
<path d="M-262.538 -394.82C-262.538 -394.82 142.213 109.456 -262.538 583.679C-262.538 583.679 235.643 173.977 704.136 583.679C704.136 583.679 299.385 79.4039 704.136 -394.82C704.136 -394.82 205.955 14.8826 -262.538 -394.82Z" stroke="black" stroke-opacity="0.05" stroke-miterlimit="10"/>
<path d="M-255.028 -387.189C-255.028 -387.189 143.435 109.253 -255.028 576.111C-255.028 576.111 235.414 172.773 696.63 576.111C696.63 576.111 298.167 79.6689 696.63 -387.189C696.63 -387.189 206.188 16.149 -255.028 -387.189Z" stroke="black" stroke-opacity="0.05" stroke-miterlimit="10"/>
<path d="M-247.521 -379.558C-247.521 -379.558 144.655 109.05 -247.521 568.542C-247.521 568.542 235.182 171.569 689.121 568.542C689.121 568.542 296.945 79.9339 689.121 -379.558C689.121 -379.558 206.418 17.4153 -247.521 -379.558Z" stroke="black" stroke-opacity="0.05" stroke-miterlimit="10"/>
<path d="M-240.012 -371.927C-240.012 -371.927 145.877 108.847 -240.012 560.973C-240.012 560.973 234.953 170.364 681.615 560.973C681.615 560.973 295.727 80.1989 681.615 -371.927C681.615 -371.927 206.651 18.6816 -240.012 -371.927Z" stroke="black" stroke-opacity="0.05" stroke-miterlimit="10"/>
<path d="M-232.506 -364.297C-232.506 -364.297 147.095 108.644 -232.506 553.405C-232.506 553.405 234.72 169.16 674.105 553.405C674.105 553.405 294.504 80.4639 674.105 -364.297C674.105 -364.297 206.88 19.9479 -232.506 -364.297Z" stroke="black" stroke-opacity="0.05" stroke-miterlimit="10"/>
<path d="M-224.997 -356.666C-224.997 -356.666 148.317 108.441 -224.997 545.833C-224.997 545.833 234.49 167.953 666.595 545.833C666.595 545.833 293.282 80.7258 666.595 -356.666C666.595 -356.666 207.109 21.2143 -224.997 -356.666Z" stroke="black" stroke-opacity="0.05" stroke-miterlimit="10"/>
<path d="M-217.49 -349.032C-217.49 -349.032 149.536 108.242 -217.49 538.267C-217.49 538.267 234.257 166.752 659.086 538.267C659.086 538.267 292.06 80.9941 659.086 -349.032C659.086 -349.032 207.339 22.4839 -217.49 -349.032Z" stroke="black" stroke-opacity="0.05" stroke-miterlimit="10"/>
<path d="M-209.981 -341.401C-209.981 -341.401 150.757 108.042 -209.981 530.699C-209.981 530.699 234.03 165.548 651.58 530.699C651.58 530.699 290.841 81.2557 651.58 -341.401C651.58 -341.401 207.568 23.7501 -209.981 -341.401Z" stroke="black" stroke-opacity="0.05" stroke-miterlimit="10"/>
<path d="M-202.476 -333.77C-202.476 -333.77 151.975 107.839 -202.476 523.13C-202.476 523.13 233.797 164.344 644.07 523.13C644.07 523.13 289.619 81.521 644.07 -333.77C644.07 -333.77 207.797 25.0167 -202.476 -333.77Z" stroke="black" stroke-opacity="0.05" stroke-miterlimit="10"/>
<path d="M-194.966 -326.139C-194.966 -326.139 153.201 107.636 -194.966 515.562C-194.966 515.562 233.568 163.136 636.564 515.562C636.564 515.562 288.397 81.786 636.564 -326.139C636.564 -326.139 208.03 26.2863 -194.966 -326.139Z" stroke="black" stroke-opacity="0.05" stroke-miterlimit="10"/>
<path d="M-187.459 -318.509C-187.459 -318.509 154.42 107.433 -187.459 507.993C-187.459 507.993 233.336 161.932 629.055 507.993C629.055 507.993 287.176 82.0509 629.055 -318.509C629.055 -318.509 208.26 27.5524 -187.459 -318.509Z" stroke="black" stroke-opacity="0.05" stroke-miterlimit="10"/>
<path d="M-179.949 -310.878C-179.949 -310.878 155.642 107.231 -179.949 500.425C-179.949 500.425 233.107 160.728 621.549 500.425C621.549 500.425 285.957 82.316 621.549 -310.878C621.549 -310.878 208.493 28.8189 -179.949 -310.878Z" stroke="black" stroke-opacity="0.05" stroke-miterlimit="10"/>
<path d="M-172.443 -303.247C-172.443 -303.247 156.861 107.028 -172.443 492.856C-172.443 492.856 232.874 159.524 614.039 492.856C614.039 492.856 284.735 82.5811 614.039 -303.247C614.039 -303.247 208.722 30.0852 -172.443 -303.247Z" stroke="black" stroke-opacity="0.05" stroke-miterlimit="10"/>
<path d="M-164.934 -295.613C-164.934 -295.613 158.083 106.828 -164.934 485.291C-164.934 485.291 232.644 158.323 606.533 485.291C606.533 485.291 283.517 82.8495 606.533 -295.613C606.533 -295.613 208.955 31.3549 -164.934 -295.613Z" stroke="black" stroke-opacity="0.05" stroke-miterlimit="10"/>
<path d="M-157.425 -287.982C-157.425 -287.982 159.304 106.628 -157.425 477.722C-157.425 477.722 232.417 157.118 599.026 477.722C599.026 477.722 282.297 83.1111 599.026 -287.982C599.026 -287.982 209.184 32.6211 -157.425 -287.982Z" stroke="black" stroke-opacity="0.05" stroke-miterlimit="10"/>
<path d="M-149.919 -280.352C-149.919 -280.352 160.523 106.426 -149.919 470.153C-149.919 470.153 232.184 155.914 591.517 470.153C591.517 470.153 281.075 83.3762 591.517 -280.352C591.517 -280.352 209.413 33.8875 -149.919 -280.352Z" stroke="black" stroke-opacity="0.05" stroke-miterlimit="10"/>
<path d="M-142.409 -272.721C-142.409 -272.721 161.745 106.223 -142.409 462.585C-142.409 462.585 231.955 154.71 584.011 462.585C584.011 462.585 279.856 83.6414 584.011 -272.721C584.011 -272.721 209.646 35.154 -142.409 -272.721Z" stroke="black" stroke-opacity="0.05" stroke-miterlimit="10"/>
<path d="M-134.903 -265.09C-134.903 -265.09 162.963 106.02 -134.903 455.016C-134.903 455.016 231.722 153.506 576.501 455.016C576.501 455.016 278.634 83.9063 576.501 -265.09C576.501 -265.09 209.876 36.4201 -134.903 -265.09Z" stroke="black" stroke-opacity="0.05" stroke-miterlimit="10"/>
<path d="M-127.394 -257.459C-127.394 -257.459 164.186 105.817 -127.394 447.448C-127.394 447.448 231.493 152.302 568.995 447.448C568.995 447.448 277.416 84.1715 568.995 -257.459C568.995 -257.459 210.109 37.6866 -127.394 -257.459Z" stroke="black" stroke-opacity="0.05" stroke-miterlimit="10"/>
<path d="M-119.887 -249.829C-119.887 -249.829 165.405 105.614 -119.887 439.879C-119.887 439.879 231.261 151.097 561.486 439.879C561.486 439.879 276.194 84.4363 561.486 -249.829C561.486 -249.829 210.339 38.9528 -119.887 -249.829Z" stroke="black" stroke-opacity="0.05" stroke-miterlimit="10"/>
<path d="M-112.378 -242.194C-112.378 -242.194 166.629 105.415 -112.378 432.314C-112.378 432.314 231.03 149.894 553.979 432.314C553.979 432.314 274.972 84.7049 553.979 -242.194C553.979 -242.194 210.571 40.2259 -112.378 -242.194Z" stroke="black" stroke-opacity="0.05" stroke-miterlimit="10"/>
<path d="M-104.871 -234.564C-104.871 -234.564 167.849 105.215 -104.871 424.745C-104.871 424.745 230.802 148.689 546.47 424.745C546.47 424.745 273.751 84.9665 546.47 -234.564C546.47 -234.564 210.798 41.4921 -104.871 -234.564Z" stroke="black" stroke-opacity="0.05" stroke-miterlimit="10"/>
<path d="M-97.3623 -226.933C-97.3623 -226.933 169.07 105.012 -97.3623 417.173C-97.3623 417.173 230.571 147.482 538.96 417.173C538.96 417.173 272.528 85.2284 538.96 -226.933C538.96 -226.933 211.027 42.7585 -97.3623 -226.933Z" stroke="black" stroke-opacity="0.05" stroke-miterlimit="10"/>
<path d="M-89.8555 -219.302C-89.8555 -219.302 170.289 104.809 -89.8555 409.605C-89.8555 409.605 230.339 146.278 531.451 409.605C531.451 409.605 271.307 85.4935 531.451 -219.302C531.451 -219.302 211.257 44.025 -89.8555 -219.302Z" stroke="black" stroke-opacity="0.05" stroke-miterlimit="10"/>
<path d="M-82.3467 -211.671C-82.3467 -211.671 171.511 104.606 -82.3467 402.036C-82.3467 402.036 230.109 145.074 523.944 402.036C523.944 402.036 270.087 85.7584 523.944 -211.671C523.944 -211.671 211.489 45.2911 -82.3467 -211.671Z" stroke="black" stroke-opacity="0.05" stroke-miterlimit="10"/>
<path d="M-74.8408 -204.041C-74.8408 -204.041 172.729 104.403 -74.8408 394.468C-74.8408 394.468 229.876 143.869 516.435 394.468C516.435 394.468 268.865 86.0236 516.435 -204.041C516.435 -204.041 211.718 46.5576 -74.8408 -204.041Z" stroke="black" stroke-opacity="0.05" stroke-miterlimit="10"/>
<path d="M-67.3311 -196.41C-67.3311 -196.41 173.951 104.2 -67.3311 386.899C-67.3311 386.899 229.647 142.665 508.929 386.899C508.929 386.899 267.646 86.2885 508.929 -196.41C508.929 -196.41 211.951 47.8238 -67.3311 -196.41Z" stroke="black" stroke-opacity="0.05" stroke-miterlimit="10"/>
<path d="M-59.8242 -188.776C-59.8242 -188.776 175.17 104.001 -59.8242 379.333C-59.8242 379.333 229.414 141.464 501.42 379.333C501.42 379.333 266.425 86.5568 501.42 -188.776C501.42 -188.776 212.181 49.0934 -59.8242 -188.776Z" stroke="black" stroke-opacity="0.05" stroke-miterlimit="10"/>
<path d="M-52.3145 -181.145C-52.3145 -181.145 176.393 103.801 -52.3145 371.765C-52.3145 371.765 229.188 140.26 493.914 371.765C493.914 371.765 265.207 86.8186 493.914 -181.145C493.914 -181.145 212.411 50.3598 -52.3145 -181.145Z" stroke="black" stroke-opacity="0.05" stroke-miterlimit="10"/>
<path d="M-44.8086 -173.514C-44.8086 -173.514 177.611 103.598 -44.8086 364.196C-44.8086 364.196 228.955 139.056 486.404 364.196C486.404 364.196 263.984 87.0838 486.404 -173.514C486.404 -173.514 212.64 51.6262 -44.8086 -173.514Z" stroke="black" stroke-opacity="0.05" stroke-miterlimit="10"/>
<path d="M-37.2988 -165.884C-37.2988 -165.884 178.837 103.396 -37.2988 356.628C-37.2988 356.628 228.726 137.849 478.898 356.628C478.898 356.628 262.763 87.3487 478.898 -165.884C478.898 -165.884 212.873 52.8957 -37.2988 -165.884Z" stroke="black" stroke-opacity="0.05" stroke-miterlimit="10"/>
<path d="M-29.7891 -158.253C-29.7891 -158.253 180.059 103.193 -29.7891 349.059C-29.7891 349.059 228.497 136.644 471.392 349.059C471.392 349.059 261.544 87.6138 471.392 -158.253C471.392 -158.253 213.106 54.1621 -29.7891 -158.253Z" stroke="black" stroke-opacity="0.05" stroke-miterlimit="10"/>
<path d="M-22.2832 -150.622C-22.2832 -150.622 181.277 102.99 -22.2832 341.491C-22.2832 341.491 228.264 135.44 463.882 341.491C463.882 341.491 260.322 87.8787 463.882 -150.622C463.882 -150.622 213.335 55.4283 -22.2832 -150.622Z" stroke="black" stroke-opacity="0.05" stroke-miterlimit="10"/>
<path d="M-14.7744 -142.991C-14.7744 -142.991 182.498 102.787 -14.7744 333.922C-14.7744 333.922 228.034 134.236 456.375 333.922C456.375 333.922 259.103 88.1438 456.375 -142.991C456.375 -142.991 213.567 56.6947 -14.7744 -142.991Z" stroke="black" stroke-opacity="0.05" stroke-miterlimit="10"/>
<path d="M-7.26855 -135.357C-7.26855 -135.357 183.717 102.591 -7.26855 326.357C-7.26855 326.357 227.804 133.035 448.866 326.357C448.866 326.357 257.88 88.4089 448.866 -135.357C448.866 -135.357 213.793 57.9643 -7.26855 -135.357Z" stroke="black" stroke-opacity="0.05" stroke-miterlimit="10"/>
<path d="M0.242188 -127.726C0.242188 -127.726 184.94 102.388 0.242188 318.788C0.242188 318.788 227.575 131.831 441.361 318.788C441.361 318.788 256.663 88.6739 441.361 -127.726C441.361 -127.726 214.027 59.2306 0.242188 -127.726Z" stroke="black" stroke-opacity="0.05" stroke-miterlimit="10"/>
<path d="M7.74805 -120.096C7.74805 -120.096 186.158 102.185 7.74805 311.219C7.74805 311.219 227.342 130.627 433.851 311.219C433.851 311.219 255.441 88.939 433.851 -120.096C433.851 -120.096 214.257 60.4971 7.74805 -120.096Z" stroke="black" stroke-opacity="0.05" stroke-miterlimit="10"/>
<path d="M15.2568 -112.465C15.2568 -112.465 187.38 101.982 15.2568 303.651C15.2568 303.651 227.112 129.423 426.344 303.651C426.344 303.651 254.221 89.2041 426.344 -112.465C426.344 -112.465 214.489 61.7634 15.2568 -112.465Z" stroke="black" stroke-opacity="0.05" stroke-miterlimit="10"/>
<path d="M22.7637 -104.834C22.7637 -104.834 188.599 101.779 22.7637 296.082C22.7637 296.082 226.88 128.218 418.835 296.082C418.835 296.082 253 89.4691 418.835 -104.834C418.835 -104.834 214.719 63.0297 22.7637 -104.834Z" stroke="black" stroke-opacity="0.05" stroke-miterlimit="10"/>
<path d="M30.2725 -97.2034C30.2725 -97.2034 189.82 101.576 30.2725 288.51C30.2725 288.51 226.65 127.011 411.325 288.51C411.325 288.51 251.777 89.7308 411.325 -97.2034C411.325 -97.2034 214.948 64.296 30.2725 -97.2034Z" stroke="black" stroke-opacity="0.05" stroke-miterlimit="10"/>
<path d="M37.7793 -89.5692C37.7793 -89.5692 191.04 101.377 37.7793 280.945C37.7793 280.945 226.418 125.81 403.816 280.945C403.816 280.945 250.556 89.9993 403.816 -89.5692C403.816 -89.5692 215.178 65.5657 37.7793 -89.5692Z" stroke="black" stroke-opacity="0.05" stroke-miterlimit="10"/>
<path d="M45.2881 -81.9385C45.2881 -81.9385 192.264 101.177 45.2881 273.377C45.2881 273.377 226.191 124.603 396.309 273.377C396.309 273.377 249.333 90.261 396.309 -81.9385C396.309 -81.9385 215.407 66.8353 45.2881 -81.9385Z" stroke="black" stroke-opacity="0.05" stroke-miterlimit="10"/>
<path d="M52.7939 -74.3077C52.7939 -74.3077 193.482 100.974 52.7939 265.808C52.7939 265.808 225.958 123.399 388.799 265.808C388.799 265.808 248.111 90.526 388.799 -74.3077C388.799 -74.3077 215.636 68.1016 52.7939 -74.3077Z" stroke="black" stroke-opacity="0.05" stroke-miterlimit="10"/>
<path d="M60.3047 -66.677C60.3047 -66.677 194.706 100.771 60.3047 258.239C60.3047 258.239 225.729 122.194 381.295 258.239C381.295 258.239 246.894 90.791 381.295 -66.677C381.295 -66.677 215.87 69.3679 60.3047 -66.677Z" stroke="black" stroke-opacity="0.05" stroke-miterlimit="10"/>
<path d="M67.8105 -59.0464C67.8105 -59.0464 195.924 100.568 67.8105 250.671C67.8105 250.671 225.496 120.99 373.785 250.671C373.785 250.671 245.671 91.0559 373.785 -59.0464C373.785 -59.0464 216.099 70.6341 67.8105 -59.0464Z" stroke="black" stroke-opacity="0.05" stroke-miterlimit="10"/>
<path d="M75.3203 -51.4155C75.3203 -51.4155 197.146 100.365 75.3203 243.102C75.3203 243.102 225.267 119.786 366.279 243.102C366.279 243.102 244.453 91.3211 366.279 -51.4155C366.279 -51.4155 216.332 71.9005 75.3203 -51.4155Z" stroke="black" stroke-opacity="0.05" stroke-miterlimit="10"/>
<path d="M82.8262 -43.7849C82.8262 -43.7849 198.365 100.162 82.8262 235.533C82.8262 235.533 225.034 118.582 358.769 235.533C358.769 235.533 243.231 91.586 358.769 -43.7849C358.769 -43.7849 216.561 73.1668 82.8262 -43.7849Z" stroke="black" stroke-opacity="0.05" stroke-miterlimit="10"/>
<path d="M90.3359 -36.1505C90.3359 -36.1505 199.587 99.9632 90.3359 227.968C90.3359 227.968 224.805 117.381 351.263 227.968C351.263 227.968 242.012 91.8546 351.263 -36.1505C351.263 -36.1505 216.794 74.4367 90.3359 -36.1505Z" stroke="black" stroke-opacity="0.05" stroke-miterlimit="10"/>
<path d="M97.8418 -28.52C97.8418 -28.52 200.805 99.7633 97.8418 220.399C97.8418 220.399 224.575 116.177 343.753 220.399C343.753 220.399 240.79 92.1161 343.753 -28.52C343.753 -28.52 217.02 75.7028 97.8418 -28.52Z" stroke="black" stroke-opacity="0.05" stroke-miterlimit="10"/>
<path d="M105.352 -20.8892C105.352 -20.8892 202.027 99.5605 105.352 212.831C105.352 212.831 224.346 114.973 336.247 212.831C336.247 212.831 239.571 92.3813 336.247 -20.8892C336.247 -20.8892 217.253 76.9692 105.352 -20.8892Z" stroke="black" stroke-opacity="0.05" stroke-miterlimit="10"/>
<path d="M112.861 -13.2583C112.861 -13.2583 203.25 99.3577 112.861 205.262C112.861 205.262 224.116 113.768 328.741 205.262C328.741 205.262 238.353 92.6464 328.741 -13.2583C328.741 -13.2583 217.486 78.2356 112.861 -13.2583Z" stroke="black" stroke-opacity="0.05" stroke-miterlimit="10"/>
<path d="M120.366 -5.62769C120.366 -5.62769 204.47 99.1547 120.366 197.694C120.366 197.694 223.882 112.561 321.231 197.694C321.231 197.694 237.127 92.9113 321.231 -5.62769C321.231 -5.62769 217.714 79.5051 120.366 -5.62769Z" stroke="black" stroke-opacity="0.05" stroke-miterlimit="10"/>
<path d="M127.877 2.00317C127.877 2.00317 205.693 98.9519 127.877 190.125C127.877 190.125 223.654 111.357 313.726 190.125C313.726 190.125 235.909 93.1765 313.726 2.00317C313.726 2.00317 217.948 80.7715 127.877 2.00317Z" stroke="black" stroke-opacity="0.05" stroke-miterlimit="10"/>
<path d="M135.384 9.63403C135.384 9.63403 206.913 98.7491 135.384 182.557C135.384 182.557 223.422 110.153 306.217 182.557C306.217 182.557 234.688 93.4416 306.217 9.63403C306.217 9.63403 218.179 82.038 135.384 9.63403Z" stroke="black" stroke-opacity="0.05" stroke-miterlimit="10"/>
<path d="M142.893 17.2681C142.893 17.2681 208.134 98.5494 142.893 174.991C142.893 174.991 223.192 108.952 298.71 174.991C298.71 174.991 233.468 93.7099 298.71 17.2681C298.71 17.2681 218.411 83.3076 142.893 17.2681Z" stroke="black" stroke-opacity="0.05" stroke-miterlimit="10"/>
<path d="M150.398 24.8987C150.398 24.8987 209.352 98.3497 150.398 167.423C150.398 167.423 222.962 107.748 291.2 167.423C291.2 167.423 232.246 93.9715 291.2 24.8987C291.2 24.8987 218.637 84.5738 150.398 24.8987Z" stroke="black" stroke-opacity="0.05" stroke-miterlimit="10"/>
<path d="M157.908 32.5295C157.908 32.5295 210.575 98.1469 157.908 159.851C157.908 159.851 222.733 106.54 283.691 159.851C283.691 159.851 231.024 94.2334 283.691 32.5295C283.691 32.5295 218.866 85.8402 157.908 32.5295Z" stroke="black" stroke-opacity="0.05" stroke-miterlimit="10"/>
<path d="M165.414 40.1604C165.414 40.1604 211.793 97.9442 165.414 152.282C165.414 152.282 222.5 105.336 276.181 152.282C276.181 152.282 229.802 94.4985 276.181 40.1604C276.181 40.1604 219.096 87.1066 165.414 40.1604Z" stroke="black" stroke-opacity="0.05" stroke-miterlimit="10"/>
<path d="M172.923 47.7913C172.923 47.7913 213.014 97.7414 172.923 144.714C172.923 144.714 222.269 104.132 268.674 144.714C268.674 144.714 228.583 94.7637 268.674 47.7913C268.674 47.7913 219.328 88.3731 172.923 47.7913Z" stroke="black" stroke-opacity="0.05" stroke-miterlimit="10"/>
<path d="M180.43 55.4219C180.43 55.4219 214.234 97.5383 180.43 137.145C180.43 137.145 222.037 102.928 261.165 137.145C261.165 137.145 227.361 95.0286 261.165 55.4219C261.165 55.4219 219.558 89.6393 180.43 55.4219Z" stroke="black" stroke-opacity="0.05" stroke-miterlimit="10"/>
<path d="M187.939 63.0524C187.939 63.0524 215.456 97.3352 187.939 129.576C187.939 129.576 221.808 101.723 253.659 129.576C253.659 129.576 226.143 95.2933 253.659 63.0524C253.659 63.0524 219.791 90.9053 187.939 63.0524Z" stroke="black" stroke-opacity="0.05" stroke-miterlimit="10"/>
<path d="M195.446 70.6868C195.446 70.6868 216.675 97.136 195.446 122.011C195.446 122.011 221.576 100.523 246.151 122.011C246.151 122.011 224.922 95.562 246.151 70.6868C246.151 70.6868 220.021 92.1753 195.446 70.6868Z" stroke="black" stroke-opacity="0.05" stroke-miterlimit="10"/>
<path d="M202.955 78.3174C202.955 78.3174 217.9 96.9362 202.955 114.442C202.955 114.442 221.349 99.3151 238.644 114.442C238.644 114.442 223.699 95.8236 238.644 78.3174C238.644 78.3174 220.25 93.4448 202.955 78.3174Z" stroke="black" stroke-opacity="0.05" stroke-miterlimit="10"/>
<path d="M210.462 85.9482C210.462 85.9482 219.119 96.7334 210.462 106.874C210.462 106.874 221.117 98.111 231.135 106.874C231.135 106.874 222.478 96.0888 231.135 85.9482C231.135 85.9482 220.48 94.7112 210.462 85.9482Z" stroke="black" stroke-opacity="0.05" stroke-miterlimit="10"/>
<path d="M217.971 93.5791C217.971 93.5791 220.34 96.5306 217.971 99.3054C217.971 99.3054 220.887 96.9069 223.628 99.3054C223.628 99.3054 221.258 96.3539 223.628 93.5791C223.628 93.5791 220.712 95.9776 217.971 93.5791Z" stroke="black" stroke-opacity="0.05" stroke-miterlimit="10"/>
</g>
<path d="M242.106 234.444C331.569 234.444 404.094 161.032 404.094 70.4738C404.094 -20.0843 331.569 -93.4961 242.106 -93.4961C152.642 -93.4961 80.1172 -20.0843 80.1172 70.4738C80.1172 161.032 152.642 234.444 242.106 234.444Z" fill="#E1EEF7"/>
<path d="M403.844 70.4738C403.844 160.897 331.428 234.194 242.106 234.194C152.783 234.194 80.3672 160.897 80.3672 70.4738C80.3672 -19.9491 152.783 -93.2461 242.106 -93.2461C331.428 -93.2461 403.844 -19.9491 403.844 70.4738Z" stroke="white" stroke-opacity="0.5" stroke-width="0.5"/>
<mask id="mask2_19961_29904" style="mask-type:luminance" maskUnits="userSpaceOnUse" x="80" y="-94" width="325" height="329">
<path d="M242.106 234.444C331.569 234.444 404.094 161.032 404.094 70.4738C404.094 -20.0843 331.569 -93.4961 242.106 -93.4961C152.642 -93.4961 80.1172 -20.0843 80.1172 70.4738C80.1172 161.032 152.642 234.444 242.106 234.444Z" fill="white"/>
</mask>
<g mask="url(#mask2_19961_29904)">
<path d="M-102.432 -333.983C-102.432 -333.983 186.086 25.4779 -102.432 363.519C-102.432 363.519 252.685 71.4719 586.641 363.519C586.641 363.519 298.124 4.05805 586.641 -333.983C586.641 -333.983 231.524 -41.936 -102.432 -333.983Z" stroke="black" stroke-opacity="0.05" stroke-miterlimit="10"/>
<path d="M-98.6592 -330.151C-98.6592 -330.151 186.7 25.3763 -98.6592 359.717C-98.6592 359.717 252.572 70.8665 582.872 359.717C582.872 359.717 297.513 4.18884 582.872 -330.151C582.872 -330.151 231.641 -41.3013 -98.6592 -330.151Z" stroke="black" stroke-opacity="0.05" stroke-miterlimit="10"/>
<path d="M-94.8896 -326.32C-94.8896 -326.32 187.312 25.275 -94.8896 355.914C-94.8896 355.914 252.456 70.2612 579.1 355.914C579.1 355.914 296.899 4.31978 579.1 -326.32C579.1 -326.32 231.754 -40.6664 -94.8896 -326.32Z" stroke="black" stroke-opacity="0.05" stroke-width="0.99" stroke-miterlimit="10"/>
<path d="M-91.1172 -322.488C-91.1172 -322.488 187.929 25.1702 -91.1172 352.112C-91.1172 352.112 252.34 69.6525 575.33 352.112C575.33 352.112 296.284 4.45398 575.33 -322.488C575.33 -322.488 231.874 -40.0283 -91.1172 -322.488Z" stroke="black" stroke-opacity="0.05" stroke-width="0.99" stroke-miterlimit="10"/>
<path d="M-87.3477 -318.656C-87.3477 -318.656 188.54 25.0689 -87.3477 348.313C-87.3477 348.313 252.223 69.0505 571.561 348.313C571.561 348.313 295.674 4.58817 571.561 -318.656C571.561 -318.656 231.99 -39.3935 -87.3477 -318.656Z" stroke="black" stroke-opacity="0.05" stroke-width="0.98" stroke-miterlimit="10"/>
<path d="M-83.5791 -314.821C-83.5791 -314.821 189.15 24.9706 -83.5791 344.514C-83.5791 344.514 252.106 68.4483 567.788 344.514C567.788 344.514 295.059 4.72227 567.788 -314.821C567.788 -314.821 232.103 -38.7554 -83.5791 -314.821Z" stroke="black" stroke-opacity="0.05" stroke-width="0.98" stroke-miterlimit="10"/>
<path d="M-79.8057 -310.989C-79.8057 -310.989 189.766 24.8692 -79.8057 340.712C-79.8057 340.712 251.994 67.843 564.02 340.712C564.02 340.712 294.449 4.8532 564.02 -310.989C564.02 -310.989 232.22 -38.1206 -79.8057 -310.989Z" stroke="black" stroke-opacity="0.05" stroke-width="0.98" stroke-miterlimit="10"/>
<path d="M-76.0371 -307.158C-76.0371 -307.158 190.379 24.7678 -76.0371 336.909C-76.0371 336.909 251.877 67.2343 560.247 336.909C560.247 336.909 293.83 4.98401 560.247 -307.158C560.247 -307.158 232.332 -37.4826 -76.0371 -307.158Z" stroke="black" stroke-opacity="0.05" stroke-width="0.97" stroke-miterlimit="10"/>
<path d="M-72.2676 -303.326C-72.2676 -303.326 190.99 24.6629 -72.2676 333.11C-72.2676 333.11 251.758 66.6322 556.478 333.11C556.478 333.11 293.22 5.12137 556.478 -303.326C556.478 -303.326 232.452 -36.8479 -72.2676 -303.326Z" stroke="black" stroke-opacity="0.05" stroke-width="0.97" stroke-miterlimit="10"/>
<path d="M-68.4951 -299.491C-68.4951 -299.491 191.604 24.565 -68.4951 329.311C-68.4951 329.311 251.644 66.0303 552.708 329.311C552.708 329.311 292.609 5.25572 552.708 -299.491C552.708 -299.491 232.569 -36.2096 -68.4951 -299.491Z" stroke="black" stroke-opacity="0.05" stroke-width="0.97" stroke-miterlimit="10"/>
<path d="M-64.7256 -295.659C-64.7256 -295.659 192.219 24.4634 -64.7256 325.509C-64.7256 325.509 251.528 65.4215 548.936 325.509C548.936 325.509 291.992 5.38653 548.936 -295.659C548.936 -295.659 232.682 -35.5716 -64.7256 -295.659Z" stroke="black" stroke-opacity="0.05" stroke-width="0.96" stroke-miterlimit="10"/>
<path d="M-60.9531 -291.827C-60.9531 -291.827 192.833 24.362 -60.9531 321.707C-60.9531 321.707 251.415 64.8162 545.167 321.707C545.167 321.707 291.38 5.51743 545.167 -291.827C545.167 -291.827 232.798 -34.9368 -60.9531 -291.827Z" stroke="black" stroke-opacity="0.05" stroke-width="0.96" stroke-miterlimit="10"/>
<path d="M-57.1846 -287.996C-57.1846 -287.996 193.443 24.2605 -57.1846 317.908C-57.1846 317.908 251.298 64.214 541.397 317.908C541.397 317.908 290.769 5.65152 541.397 -287.996C541.397 -287.996 232.914 -34.302 -57.1846 -287.996Z" stroke="black" stroke-opacity="0.05" stroke-width="0.95" stroke-miterlimit="10"/>
<path d="M-53.415 -284.164C-53.415 -284.164 194.055 24.1559 -53.415 314.105C-53.415 314.105 251.179 63.6088 537.624 314.105C537.624 314.105 290.155 5.78573 537.624 -284.164C537.624 -284.164 233.031 -33.6672 -53.415 -284.164Z" stroke="black" stroke-opacity="0.05" stroke-width="0.95" stroke-miterlimit="10"/>
<path d="M-49.6426 -280.329C-49.6426 -280.329 194.672 24.0578 -49.6426 310.306C-49.6426 310.306 251.066 63.0035 533.855 310.306C533.855 310.306 289.541 5.91996 533.855 -280.329C533.855 -280.329 233.147 -33.0257 -49.6426 -280.329Z" stroke="black" stroke-opacity="0.05" stroke-width="0.95" stroke-miterlimit="10"/>
<path d="M-45.873 -276.497C-45.873 -276.497 195.283 23.9563 -45.873 306.504C-45.873 306.504 250.949 62.3981 530.083 306.504C530.083 306.504 288.927 6.05077 530.083 -276.497C530.083 -276.497 233.26 -32.391 -45.873 -276.497Z" stroke="black" stroke-opacity="0.05" stroke-width="0.94" stroke-miterlimit="10"/>
<path d="M-42.1035 -272.665C-42.1035 -272.665 195.894 23.8548 -42.1035 302.705C-42.1035 302.705 250.833 61.796 526.314 302.705C526.314 302.705 288.316 6.18497 526.314 -272.665C526.314 -272.665 233.377 -31.7562 -42.1035 -272.665Z" stroke="black" stroke-opacity="0.05" stroke-width="0.94" stroke-miterlimit="10"/>
<path d="M-38.3311 -268.833C-38.3311 -268.833 196.508 23.7534 -38.3311 298.903C-38.3311 298.903 250.72 61.1907 522.544 298.903C522.544 298.903 287.705 6.31588 522.544 -268.833C522.544 -268.833 233.493 -31.1213 -38.3311 -268.833Z" stroke="black" stroke-opacity="0.05" stroke-width="0.93" stroke-miterlimit="10"/>
<path d="M-34.5615 -265.002C-34.5615 -265.002 197.123 23.6486 -34.5615 295.1C-34.5615 295.1 250.601 60.582 518.772 295.1C518.772 295.1 287.088 6.44999 518.772 -265.002C518.772 -265.002 233.61 -30.4833 -34.5615 -265.002Z" stroke="black" stroke-opacity="0.05" stroke-width="0.93" stroke-miterlimit="10"/>
<path d="M-30.7891 -261.167C-30.7891 -261.167 197.737 23.5505 -30.7891 291.302C-30.7891 291.302 250.488 59.9799 515.003 291.302C515.003 291.302 286.477 6.58424 515.003 -261.167C515.003 -261.167 233.726 -29.8452 -30.7891 -261.167Z" stroke="black" stroke-opacity="0.05" stroke-width="0.93" stroke-miterlimit="10"/>
<path d="M-27.0205 -257.335C-27.0205 -257.335 198.347 23.4491 -27.0205 287.502C-27.0205 287.502 250.37 59.3778 511.233 287.502C511.233 287.502 285.865 6.7183 511.233 -257.335C511.233 -257.335 233.842 -29.2105 -27.0205 -257.335Z" stroke="black" stroke-opacity="0.05" stroke-width="0.92" stroke-miterlimit="10"/>
<path d="M-23.251 -253.503C-23.251 -253.503 198.959 23.3475 -23.251 283.7C-23.251 283.7 250.254 58.7723 507.461 283.7C507.461 283.7 285.251 6.84911 507.461 -253.503C507.461 -253.503 233.955 -28.5757 -23.251 -253.503Z" stroke="black" stroke-opacity="0.05" stroke-width="0.92" stroke-miterlimit="10"/>
<path d="M-19.4785 -249.672C-19.4785 -249.672 199.576 23.2463 -19.4785 279.898C-19.4785 279.898 250.141 58.1639 503.691 279.898C503.691 279.898 284.637 6.98018 503.691 -249.672C503.691 -249.672 234.072 -27.9375 -19.4785 -249.672Z" stroke="black" stroke-opacity="0.05" stroke-width="0.92" stroke-miterlimit="10"/>
<path d="M-15.708 -245.84C-15.708 -245.84 200.188 23.1414 -15.708 276.096C-15.708 276.096 250.023 57.5584 499.92 276.096C499.92 276.096 284.024 7.11422 499.92 -245.84C499.92 -245.84 234.189 -27.3028 -15.708 -245.84Z" stroke="black" stroke-opacity="0.05" stroke-width="0.91" stroke-miterlimit="10"/>
<path d="M-11.9365 -242.005C-11.9365 -242.005 200.801 23.0434 -11.9365 272.3C-11.9365 272.3 249.909 56.9597 496.153 272.3C496.153 272.3 283.415 7.25173 496.153 -242.005C496.153 -242.005 234.308 -26.6646 -11.9365 -242.005Z" stroke="black" stroke-opacity="0.05" stroke-width="0.91" stroke-miterlimit="10"/>
<path d="M-8.16797 -238.173C-8.16797 -238.173 201.415 22.9419 -8.16797 268.498C-8.16797 268.498 249.792 56.3511 492.38 268.498C492.38 268.498 282.797 7.38266 492.38 -238.173C492.38 -238.173 234.42 -26.0265 -8.16797 -238.173Z" stroke="black" stroke-opacity="0.05" stroke-width="0.9" stroke-miterlimit="10"/>
<path d="M-4.39746 -234.341C-4.39746 -234.341 202.027 22.8405 -4.39746 264.695C-4.39746 264.695 249.676 55.7457 488.608 264.695C488.608 264.695 282.184 7.51344 488.608 -234.341C488.608 -234.341 234.535 -25.3918 -4.39746 -234.341Z" stroke="black" stroke-opacity="0.05" stroke-width="0.9" stroke-miterlimit="10"/>
<path d="M-0.625 -230.51C-0.625 -230.51 202.641 22.7391 -0.625 260.893C-0.625 260.893 249.563 55.1404 484.839 260.893C484.839 260.893 281.573 7.6444 484.839 -230.51C484.839 -230.51 234.651 -24.7569 -0.625 -230.51Z" stroke="black" stroke-opacity="0.05" stroke-width="0.9" stroke-miterlimit="10"/>
<path d="M3.14453 -226.678C3.14453 -226.678 203.252 22.6343 3.14453 257.094C3.14453 257.094 249.444 54.5382 481.07 257.094C481.07 257.094 280.962 7.78178 481.07 -226.678C481.07 -226.678 234.771 -24.1222 3.14453 -226.678Z" stroke="black" stroke-opacity="0.05" stroke-width="0.89" stroke-miterlimit="10"/>
<path d="M6.91309 -222.843C6.91309 -222.843 203.866 22.536 6.91309 253.295C6.91309 253.295 249.327 53.9328 477.297 253.295C477.297 253.295 280.344 7.91586 477.297 -222.843C477.297 -222.843 234.883 -23.4809 6.91309 -222.843Z" stroke="black" stroke-opacity="0.05" stroke-width="0.89" stroke-miterlimit="10"/>
<path d="M10.6865 -219.011C10.6865 -219.011 204.481 22.4348 10.6865 249.493C10.6865 249.493 249.214 53.3276 473.528 249.493C473.528 249.493 279.734 8.04689 473.528 -219.011C473.528 -219.011 235.001 -22.8459 10.6865 -219.011Z" stroke="black" stroke-opacity="0.05" stroke-width="0.89" stroke-miterlimit="10"/>
<path d="M14.4551 -215.179C14.4551 -215.179 205.091 22.3332 14.4551 245.69C14.4551 245.69 249.097 52.7221 469.755 245.69C469.755 245.69 279.119 8.17772 469.755 -215.179C469.755 -215.179 235.113 -22.2112 14.4551 -215.179Z" stroke="black" stroke-opacity="0.05" stroke-width="0.88" stroke-miterlimit="10"/>
<path d="M18.2285 -211.348C18.2285 -211.348 205.706 22.2318 18.2285 241.891C18.2285 241.891 248.985 52.1201 465.99 241.891C465.99 241.891 278.512 8.31191 465.99 -211.348C465.99 -211.348 235.234 -21.5763 18.2285 -211.348Z" stroke="black" stroke-opacity="0.05" stroke-width="0.88" stroke-miterlimit="10"/>
<path d="M21.9971 -207.516C21.9971 -207.516 206.32 22.1271 21.9971 238.089C21.9971 238.089 248.865 51.5114 462.217 238.089C462.217 238.089 277.894 8.44599 462.217 -207.516C462.217 -207.516 235.349 -20.9384 21.9971 -207.516Z" stroke="black" stroke-opacity="0.05" stroke-width="0.87" stroke-miterlimit="10"/>
<path d="M25.7666 -203.681C25.7666 -203.681 206.931 22.0288 25.7666 234.29C25.7666 234.29 248.749 50.9092 458.445 234.29C458.445 234.29 277.28 8.58008 458.445 -203.681C458.445 -203.681 235.463 -20.3004 25.7666 -203.681Z" stroke="black" stroke-opacity="0.05" stroke-width="0.87" stroke-miterlimit="10"/>
<path d="M29.5391 -199.849C29.5391 -199.849 207.545 21.9276 29.5391 230.488C29.5391 230.488 248.636 50.3041 454.675 230.488C454.675 230.488 276.669 8.71115 454.675 -199.849C454.675 -199.849 235.579 -19.6654 29.5391 -199.849Z" stroke="black" stroke-opacity="0.05" stroke-width="0.87" stroke-miterlimit="10"/>
<path d="M33.3076 -196.017C33.3076 -196.017 208.156 21.826 33.3076 226.689C33.3076 226.689 248.518 49.7019 450.905 226.689C450.905 226.689 276.057 8.84521 450.905 -196.017C450.905 -196.017 235.695 -19.0306 33.3076 -196.017Z" stroke="black" stroke-opacity="0.05" stroke-width="0.86" stroke-miterlimit="10"/>
<path d="M37.0771 -192.186C37.0771 -192.186 208.77 21.7246 37.0771 222.886C37.0771 222.886 248.402 49.0933 447.133 222.886C447.133 222.886 275.44 8.97606 447.133 -192.186C447.133 -192.186 235.808 -18.3926 37.0771 -192.186Z" stroke="black" stroke-opacity="0.05" stroke-width="0.86" stroke-miterlimit="10"/>
<path d="M40.8496 -188.351C40.8496 -188.351 209.384 21.6231 40.8496 219.087C40.8496 219.087 248.286 48.4912 443.364 219.087C443.364 219.087 274.829 9.11354 443.364 -188.351C443.364 -188.351 235.927 -17.7545 40.8496 -188.351Z" stroke="black" stroke-opacity="0.05" stroke-width="0.85" stroke-miterlimit="10"/>
<path d="M44.6191 -184.519C44.6191 -184.519 209.995 21.5218 44.6191 215.285C44.6191 215.285 248.17 47.8859 439.592 215.285C439.592 215.285 274.215 9.24447 439.592 -184.519C439.592 -184.519 236.041 -17.1196 44.6191 -184.519Z" stroke="black" stroke-opacity="0.05" stroke-width="0.85" stroke-miterlimit="10"/>
<path d="M48.3916 -180.687C48.3916 -180.687 210.609 21.4202 48.3916 211.483C48.3916 211.483 248.057 47.2804 435.822 211.483C435.822 211.483 273.604 9.37527 435.822 -180.687C435.822 -180.687 236.157 -16.4849 48.3916 -180.687Z" stroke="black" stroke-opacity="0.05" stroke-width="0.85" stroke-miterlimit="10"/>
<path d="M52.1611 -176.855C52.1611 -176.855 211.224 21.319 52.1611 207.684C52.1611 207.684 247.94 46.6752 432.053 207.684C432.053 207.684 272.99 9.50958 432.053 -176.855C432.053 -176.855 236.274 -15.8467 52.1611 -176.855Z" stroke="black" stroke-opacity="0.05" stroke-width="0.84" stroke-miterlimit="10"/>
<path d="M55.9297 -173.024C55.9297 -173.024 211.834 21.2174 55.9297 203.881C55.9297 203.881 247.823 46.0698 428.28 203.881C428.28 203.881 272.375 9.6404 428.28 -173.024C428.28 -173.024 236.386 -15.2119 55.9297 -173.024Z" stroke="black" stroke-opacity="0.05" stroke-width="0.84" stroke-miterlimit="10"/>
<path d="M59.7031 -169.189C59.7031 -169.189 212.449 21.116 59.7031 200.082C59.7031 200.082 247.708 45.4677 424.512 200.082C424.512 200.082 271.765 9.7778 424.512 -169.189C424.512 -169.189 236.507 -14.5739 59.7031 -169.189Z" stroke="black" stroke-opacity="0.05" stroke-width="0.84" stroke-miterlimit="10"/>
<path d="M63.4717 -165.357C63.4717 -165.357 213.063 21.0145 63.4717 196.28C63.4717 196.28 247.591 44.859 420.738 196.28C420.738 196.28 271.147 9.90859 420.738 -165.357C420.738 -165.357 236.619 -13.9359 63.4717 -165.357Z" stroke="black" stroke-opacity="0.05" stroke-width="0.83" stroke-miterlimit="10"/>
<path d="M67.2412 -161.525C67.2412 -161.525 213.674 20.9131 67.2412 192.481C67.2412 192.481 247.475 44.257 416.969 192.481C416.969 192.481 270.536 10.0429 416.969 -161.525C416.969 -161.525 236.736 -13.3009 67.2412 -161.525Z" stroke="black" stroke-opacity="0.05" stroke-width="0.83" stroke-miterlimit="10"/>
<path d="M71.0137 -157.693C71.0137 -157.693 214.288 20.8118 71.0137 188.679C71.0137 188.679 247.362 43.6517 413.2 188.679C413.2 188.679 269.925 10.1738 413.2 -157.693C413.2 -157.693 236.852 -12.6661 71.0137 -157.693Z" stroke="black" stroke-opacity="0.05" stroke-width="0.82" stroke-miterlimit="10"/>
<path d="M74.7832 -153.862C74.7832 -153.862 214.899 20.7102 74.7832 184.876C74.7832 184.876 247.245 43.0462 409.428 184.876C409.428 184.876 269.312 10.3046 409.428 -153.862C409.428 -153.862 236.966 -12.0314 74.7832 -153.862Z" stroke="black" stroke-opacity="0.05" stroke-width="0.82" stroke-miterlimit="10"/>
<path d="M78.5557 -150.027C78.5557 -150.027 215.517 20.6088 78.5557 181.077C78.5557 181.077 247.129 42.4409 405.658 181.077C405.658 181.077 268.697 10.442 405.658 -150.027C405.658 -150.027 237.085 -11.3901 78.5557 -150.027Z" stroke="black" stroke-opacity="0.05" stroke-width="0.82" stroke-miterlimit="10"/>
<path d="M82.3242 -146.195C82.3242 -146.195 216.127 20.5073 82.3242 177.278C82.3242 177.278 247.012 41.8388 401.888 177.278C401.888 177.278 268.086 10.5762 401.888 -146.195C401.888 -146.195 237.201 -10.7552 82.3242 -146.195Z" stroke="black" stroke-opacity="0.05" stroke-width="0.81" stroke-miterlimit="10"/>
<path d="M86.0938 -142.363C86.0938 -142.363 216.738 20.406 86.0938 173.476C86.0938 173.476 246.896 41.2335 398.116 173.476C398.116 173.476 267.472 10.7072 398.116 -142.363C398.116 -142.363 237.314 -10.1204 86.0938 -142.363Z" stroke="black" stroke-opacity="0.05" stroke-width="0.81" stroke-miterlimit="10"/>
<path d="M89.8662 -138.531C89.8662 -138.531 217.352 20.3044 89.8662 169.674C89.8662 169.674 246.783 40.628 394.347 169.674C394.347 169.674 266.861 10.838 394.347 -138.531C394.347 -138.531 237.43 -9.48566 89.8662 -138.531Z" stroke="black" stroke-opacity="0.05" stroke-width="0.8" stroke-miterlimit="10"/>
<path d="M93.6357 -134.7C93.6357 -134.7 217.967 20.2031 93.6357 165.872C93.6357 165.872 246.666 40.0195 390.575 165.872C390.575 165.872 266.243 10.9689 390.575 -134.7C390.575 -134.7 237.544 -8.84753 93.6357 -134.7Z" stroke="black" stroke-opacity="0.05" stroke-width="0.8" stroke-miterlimit="10"/>
<path d="M97.4053 -130.865C97.4053 -130.865 218.578 20.1017 97.4053 162.076C97.4053 162.076 246.547 39.4207 386.806 162.076C386.806 162.076 265.633 11.1097 386.806 -130.865C386.806 -130.865 237.664 -8.20938 97.4053 -130.865Z" stroke="black" stroke-opacity="0.05" stroke-width="0.8" stroke-miterlimit="10"/>
<path d="M101.178 -127.033C101.178 -127.033 219.192 20.0002 101.178 158.273C101.178 158.273 246.434 38.8153 383.036 158.273C383.036 158.273 265.022 11.2405 383.036 -127.033C383.036 -127.033 237.78 -7.57468 101.178 -127.033Z" stroke="black" stroke-opacity="0.05" stroke-width="0.79" stroke-miterlimit="10"/>
<path d="M104.947 -123.201C104.947 -123.201 219.804 19.8987 104.947 154.471C104.947 154.471 246.318 38.21 379.264 154.471C379.264 154.471 264.408 11.3714 379.264 -123.201C379.264 -123.201 237.893 -6.93982 104.947 -123.201Z" stroke="black" stroke-opacity="0.05" stroke-width="0.79" stroke-miterlimit="10"/>
<path d="M108.72 -119.369C108.72 -119.369 220.421 19.7973 108.72 150.669C108.72 150.669 246.205 37.6013 375.495 150.669C375.495 150.669 263.793 11.5022 375.495 -119.369C375.495 -119.369 238.01 -6.30182 108.72 -119.369Z" stroke="black" stroke-opacity="0.05" stroke-width="0.79" stroke-miterlimit="10"/>
<path d="M112.488 -115.538C112.488 -115.538 221.031 19.6957 112.488 146.87C112.488 146.87 246.088 36.9991 371.725 146.87C371.725 146.87 263.182 11.6363 371.725 -115.538C371.725 -115.538 238.125 -5.6671 112.488 -115.538Z" stroke="black" stroke-opacity="0.05" stroke-width="0.78" stroke-miterlimit="10"/>
<path d="M116.259 -111.703C116.259 -111.703 221.643 19.5944 116.259 143.071C116.259 143.071 245.969 36.3972 367.953 143.071C367.953 143.071 262.569 11.7739 367.953 -111.703C367.953 -111.703 238.243 -5.02883 116.259 -111.703Z" stroke="black" stroke-opacity="0.05" stroke-width="0.78" stroke-miterlimit="10"/>
<path d="M120.03 -107.871C120.03 -107.871 222.26 19.493 120.03 139.269C120.03 139.269 245.855 35.7885 364.183 139.269C364.183 139.269 261.954 11.9047 364.183 -107.871C364.183 -107.871 238.358 -4.39083 120.03 -107.871Z" stroke="black" stroke-opacity="0.05" stroke-width="0.77" stroke-miterlimit="10"/>
<path d="M123.8 -104.039C123.8 -104.039 222.871 19.3915 123.8 135.466C123.8 135.466 245.739 35.1832 360.411 135.466C360.411 135.466 261.34 12.0357 360.411 -104.039C360.411 -104.039 238.472 -3.75598 123.8 -104.039Z" stroke="black" stroke-opacity="0.05" stroke-width="0.77" stroke-miterlimit="10"/>
<path d="M127.572 -100.207C127.572 -100.207 223.485 19.29 127.572 131.667C127.572 131.667 245.626 34.581 356.645 131.667C356.645 131.667 260.732 12.1697 356.645 -100.207C356.645 -100.207 238.591 -3.12125 127.572 -100.207Z" stroke="black" stroke-opacity="0.05" stroke-width="0.77" stroke-miterlimit="10"/>
<path d="M131.341 -96.3724C131.341 -96.3724 224.095 19.1918 131.341 127.868C131.341 127.868 245.509 33.9789 352.871 127.868C352.871 127.868 260.117 12.3038 352.871 -96.3724C352.871 -96.3724 238.704 -2.48323 131.341 -96.3724Z" stroke="black" stroke-opacity="0.05" stroke-width="0.76" stroke-miterlimit="10"/>
<path d="M135.11 -92.5405C135.11 -92.5405 224.71 19.0873 135.11 124.066C135.11 124.066 245.389 33.3704 349.099 124.066C349.099 124.066 259.5 12.4382 349.099 -92.5405C349.099 -92.5405 238.82 -1.84498 135.11 -92.5405Z" stroke="black" stroke-opacity="0.05" stroke-width="0.76" stroke-miterlimit="10"/>
<path d="M138.883 -88.7087C138.883 -88.7087 225.324 18.9858 138.883 120.264C138.883 120.264 245.276 32.7651 345.33 120.264C345.33 120.264 258.889 12.5691 345.33 -88.7087C345.33 -88.7087 238.937 -1.21014 138.883 -88.7087Z" stroke="black" stroke-opacity="0.05" stroke-width="0.76" stroke-miterlimit="10"/>
<path d="M142.652 -84.8771C142.652 -84.8771 225.935 18.8844 142.652 116.465C142.652 116.465 245.16 32.1629 341.561 116.465C341.561 116.465 258.278 12.7032 341.561 -84.8771C341.561 -84.8771 239.053 -0.575418 142.652 -84.8771Z" stroke="black" stroke-opacity="0.05" stroke-width="0.75" stroke-miterlimit="10"/>
<path d="M146.422 -81.0454C146.422 -81.0454 226.546 18.7828 146.422 112.662C146.422 112.662 245.044 31.5575 337.789 112.662C337.789 112.662 257.664 12.834 337.789 -81.0454C337.789 -81.0454 239.167 0.0593153 146.422 -81.0454Z" stroke="black" stroke-opacity="0.05" stroke-width="0.75" stroke-miterlimit="10"/>
<path d="M150.194 -77.2104C150.194 -77.2104 227.164 18.6847 150.194 108.863C150.194 108.863 244.931 30.9521 334.019 108.863C334.019 108.863 257.05 12.9681 334.019 -77.2104C334.019 -77.2104 239.283 0.700612 150.194 -77.2104Z" stroke="black" stroke-opacity="0.05" stroke-width="0.74" stroke-miterlimit="10"/>
<path d="M153.963 -73.3784C153.963 -73.3784 227.774 18.5802 153.963 105.061C153.963 105.061 244.81 30.347 330.246 105.061C330.246 105.061 256.435 13.1025 330.246 -73.3784C330.246 -73.3784 239.399 1.3357 153.963 -73.3784Z" stroke="black" stroke-opacity="0.05" stroke-width="0.74" stroke-miterlimit="10"/>
<path d="M157.736 -69.5468C157.736 -69.5468 228.389 18.4787 157.736 101.262C157.736 101.262 244.698 29.7449 326.481 101.262C326.481 101.262 255.828 13.2366 326.481 -69.5468C326.481 -69.5468 239.519 1.97043 157.736 -69.5468Z" stroke="black" stroke-opacity="0.05" stroke-width="0.74" stroke-miterlimit="10"/>
<path d="M161.505 -65.7151C161.505 -65.7151 229 18.3772 161.505 97.4597C161.505 97.4597 244.581 29.1394 322.708 97.4597C322.708 97.4597 255.213 13.3674 322.708 -65.7151C322.708 -65.7151 239.632 2.60515 161.505 -65.7151Z" stroke="black" stroke-opacity="0.05" stroke-width="0.73" stroke-miterlimit="10"/>
<path d="M165.274 -61.8834C165.274 -61.8834 229.614 18.2756 165.274 93.6572C165.274 93.6572 244.465 28.5307 318.935 93.6572C318.935 93.6572 254.596 13.4982 318.935 -61.8834C318.935 -61.8834 239.745 3.24315 165.274 -61.8834Z" stroke="black" stroke-opacity="0.05" stroke-width="0.73" stroke-miterlimit="10"/>
<path d="M169.047 -58.0483C169.047 -58.0483 230.228 18.1775 169.047 89.8583C169.047 89.8583 244.352 27.9287 315.166 89.8583C315.166 89.8583 253.985 13.6324 315.166 -58.0483C315.166 -58.0483 239.861 3.88129 169.047 -58.0483Z" stroke="black" stroke-opacity="0.05" stroke-width="0.72" stroke-miterlimit="10"/>
<path d="M172.815 -54.2166C172.815 -54.2166 230.838 18.0729 172.815 86.0561C172.815 86.0561 244.231 27.3234 311.393 86.0561C311.393 86.0561 253.37 13.7667 311.393 -54.2166C311.393 -54.2166 239.977 4.51615 172.815 -54.2166Z" stroke="black" stroke-opacity="0.05" stroke-width="0.72" stroke-miterlimit="10"/>
<path d="M176.586 -50.3848C176.586 -50.3848 231.451 17.9715 176.586 82.2571C176.586 82.2571 244.116 26.7213 307.625 82.2571C307.625 82.2571 252.76 13.9009 307.625 -50.3848C307.625 -50.3848 240.095 5.151 176.586 -50.3848Z" stroke="black" stroke-opacity="0.05" stroke-width="0.72" stroke-miterlimit="10"/>
<path d="M180.357 -46.553C180.357 -46.553 232.067 17.87 180.357 78.4548C180.357 78.4548 244.002 26.1127 303.855 78.4548C303.855 78.4548 252.145 14.0318 303.855 -46.553C303.855 -46.553 240.21 5.78912 180.357 -46.553Z" stroke="black" stroke-opacity="0.05" stroke-width="0.71" stroke-miterlimit="10"/>
<path d="M184.128 -42.7214C184.128 -42.7214 232.679 17.7685 184.128 74.6524C184.128 74.6524 243.887 25.5072 300.083 74.6524C300.083 74.6524 251.532 14.1625 300.083 -42.7214C300.083 -42.7214 240.324 6.42372 184.128 -42.7214Z" stroke="black" stroke-opacity="0.05" stroke-width="0.71" stroke-miterlimit="10"/>
<path d="M187.899 -38.8864C187.899 -38.8864 233.292 17.6703 187.899 70.8534C187.899 70.8534 243.773 24.9052 296.313 70.8534C296.313 70.8534 250.92 14.2967 296.313 -38.8864C296.313 -38.8864 240.44 7.06187 187.899 -38.8864Z" stroke="black" stroke-opacity="0.05" stroke-width="0.71" stroke-miterlimit="10"/>
<path d="M191.669 -35.0544C191.669 -35.0544 233.907 17.569 191.669 67.0545C191.669 67.0545 243.657 24.2999 292.544 67.0545C292.544 67.0545 250.306 14.431 292.544 -35.0544C292.544 -35.0544 240.556 7.70011 191.669 -35.0544Z" stroke="black" stroke-opacity="0.05" stroke-width="0.7" stroke-miterlimit="10"/>
<path d="M195.438 -31.2228C195.438 -31.2228 234.518 17.4643 195.438 63.2521C195.438 63.2521 243.537 23.6945 288.772 63.2521C288.772 63.2521 249.692 14.5651 288.772 -31.2228C288.772 -31.2228 240.673 8.33484 195.438 -31.2228Z" stroke="black" stroke-opacity="0.05" stroke-width="0.7" stroke-miterlimit="10"/>
<path d="M199.211 -27.3911C199.211 -27.3911 235.132 17.3628 199.211 59.4498C199.211 59.4498 243.424 23.0891 285.002 59.4498C285.002 59.4498 249.081 14.6959 285.002 -27.3911C285.002 -27.3911 240.789 8.96956 199.211 -27.3911Z" stroke="black" stroke-opacity="0.05" stroke-width="0.69" stroke-miterlimit="10"/>
<path d="M202.98 -23.5593C202.98 -23.5593 235.743 17.2613 202.98 55.6475C202.98 55.6475 243.308 22.4838 281.23 55.6475C281.23 55.6475 248.467 14.8268 281.23 -23.5593C281.23 -23.5593 240.903 9.60441 202.98 -23.5593Z" stroke="black" stroke-opacity="0.05" stroke-width="0.69" stroke-miterlimit="10"/>
<path d="M206.75 -19.7244C206.75 -19.7244 236.358 17.1631 206.75 51.8517C206.75 51.8517 243.192 21.8816 277.461 51.8517C277.461 51.8517 247.853 14.9642 277.461 -19.7244C277.461 -19.7244 241.019 10.2457 206.75 -19.7244Z" stroke="black" stroke-opacity="0.05" stroke-width="0.69" stroke-miterlimit="10"/>
<path d="M210.521 -15.8927C210.521 -15.8927 236.971 17.0616 210.521 48.0494C210.521 48.0494 243.078 21.2762 273.691 48.0494C273.691 48.0494 247.241 15.095 273.691 -15.8927C273.691 -15.8927 241.135 10.8804 210.521 -15.8927Z" stroke="black" stroke-opacity="0.05" stroke-width="0.68" stroke-miterlimit="10"/>
<path d="M214.291 -12.0608C214.291 -12.0608 237.582 16.9571 214.291 44.2472C214.291 44.2472 242.958 20.671 269.919 44.2472C269.919 44.2472 246.627 15.2293 269.919 -12.0608C269.919 -12.0608 241.251 11.5154 214.291 -12.0608Z" stroke="black" stroke-opacity="0.05" stroke-width="0.68" stroke-miterlimit="10"/>
<path d="M218.063 -8.22913C218.063 -8.22913 238.196 16.8556 218.063 40.4448C218.063 40.4448 242.845 20.0656 266.149 40.4448C266.149 40.4448 246.016 15.3602 266.149 -8.22913C266.149 -8.22913 241.368 12.1501 218.063 -8.22913Z" stroke="black" stroke-opacity="0.05" stroke-width="0.67" stroke-miterlimit="10"/>
<path d="M221.833 -4.39734C221.833 -4.39734 238.811 16.7542 221.833 36.6459C221.833 36.6459 242.729 19.4603 262.38 36.6459C262.38 36.6459 245.402 15.4944 262.38 -4.39734C262.38 -4.39734 241.484 12.7883 221.833 -4.39734Z" stroke="black" stroke-opacity="0.05" stroke-width="0.67" stroke-miterlimit="10"/>
<path d="M225.603 -0.562256C225.603 -0.562256 239.422 16.6561 225.603 32.8469C225.603 32.8469 242.613 18.8583 258.608 32.8469C258.608 32.8469 244.788 15.6286 258.608 -0.562256C258.608 -0.562256 241.598 13.4264 225.603 -0.562256Z" stroke="black" stroke-opacity="0.05" stroke-width="0.67" stroke-miterlimit="10"/>
<path d="M229.374 3.26941C229.374 3.26941 240.035 16.5545 229.374 29.0445C229.374 29.0445 242.499 18.2528 254.838 29.0445C254.838 29.0445 244.176 15.7594 254.838 3.26941C254.838 3.26941 241.713 14.0611 229.374 3.26941Z" stroke="black" stroke-opacity="0.05" stroke-width="0.66" stroke-miterlimit="10"/>
<path d="M233.145 7.10107C233.145 7.10107 240.648 16.4498 233.145 25.2422C233.145 25.2422 242.38 17.6474 251.066 25.2422C251.066 25.2422 243.563 15.8935 251.066 7.10107C251.066 7.10107 241.831 14.6958 233.145 7.10107Z" stroke="black" stroke-opacity="0.05" stroke-width="0.66" stroke-miterlimit="10"/>
<path d="M236.916 10.933C236.916 10.933 241.264 16.3485 236.916 21.4433C236.916 21.4433 242.266 17.0422 247.299 21.4433C247.299 21.4433 242.951 16.0278 247.299 10.933C247.299 10.933 241.949 15.3341 236.916 10.933Z" stroke="black" stroke-opacity="0.05" stroke-width="0.66" stroke-miterlimit="10"/>
<path d="M240.687 14.7681C240.687 14.7681 241.876 16.2503 240.687 17.6443C240.687 17.6443 242.151 16.4401 243.528 17.6443C243.528 17.6443 242.338 16.162 243.528 14.7681C243.528 14.7681 242.064 15.9722 240.687 14.7681Z" stroke="black" stroke-opacity="0.05" stroke-width="0.65" stroke-miterlimit="10"/>
</g>
<path d="M242.106 100.798C288.105 100.798 325.395 63.0515 325.395 16.4894C325.395 -30.0728 288.105 -67.8188 242.106 -67.8188C196.106 -67.8188 158.816 -30.0728 158.816 16.4894C158.816 63.0515 196.106 100.798 242.106 100.798Z" fill="#D6EAF7"/>
<path d="M325.145 16.4894C325.145 62.9163 287.964 100.548 242.106 100.548C196.247 100.548 159.066 62.9163 159.066 16.4894C159.066 -29.9376 196.247 -67.5688 242.106 -67.5688C287.964 -67.5688 325.145 -29.9376 325.145 16.4894Z" stroke="white" stroke-opacity="0.5" stroke-width="0.5"/>
<mask id="mask3_19961_29904" style="mask-type:luminance" maskUnits="userSpaceOnUse" x="158" y="-68" width="168" height="169">
<path d="M242.107 100.798C288.106 100.798 325.396 63.0515 325.396 16.4894C325.396 -30.0728 288.106 -67.8188 242.107 -67.8188C196.107 -67.8188 158.817 -30.0728 158.817 16.4894C158.817 63.0515 196.107 100.798 242.107 100.798Z" fill="white"/>
</mask>
<g mask="url(#mask3_19961_29904)">
<path d="M64.9609 -191.469C64.9609 -191.469 213.308 -6.64511 64.9609 167.161C64.9609 167.161 247.551 16.9998 419.257 167.161C419.257 167.161 270.91 -17.6626 419.257 -191.469C419.257 -191.469 236.667 -41.3075 64.9609 -191.469Z" stroke="black" stroke-opacity="0.05" stroke-width="0.9" stroke-miterlimit="10"/>
<path d="M69.2637 -187.097C69.2637 -187.097 214.006 -6.76301 69.2637 162.822C69.2637 162.822 247.419 16.3093 414.954 162.822C414.954 162.822 270.212 -17.5122 414.954 -187.097C414.954 -187.097 236.799 -40.5845 69.2637 -187.097Z" stroke="black" stroke-opacity="0.05" stroke-width="0.88" stroke-miterlimit="10"/>
<path d="M73.5654 -182.722C73.5654 -182.722 214.703 -6.87746 73.5654 158.486C73.5654 158.486 247.285 15.6222 410.651 158.486C410.651 158.486 269.513 -17.3583 410.651 -182.722C410.651 -182.722 236.931 -39.858 73.5654 -182.722Z" stroke="black" stroke-opacity="0.05" stroke-width="0.87" stroke-miterlimit="10"/>
<path d="M77.8682 -178.35C77.8682 -178.35 215.405 -6.9952 77.8682 154.148C77.8682 154.148 247.153 14.9285 406.348 154.148C406.348 154.148 268.812 -17.2077 406.348 -178.35C406.348 -178.35 237.064 -39.1315 77.8682 -178.35Z" stroke="black" stroke-opacity="0.05" stroke-width="0.86" stroke-miterlimit="10"/>
<path d="M82.1719 -173.976C82.1719 -173.976 216.104 -7.10991 82.1719 149.812C82.1719 149.812 247.021 14.2412 402.046 149.812C402.046 149.812 268.114 -17.0541 402.046 -173.976C402.046 -173.976 237.197 -38.4052 82.1719 -173.976Z" stroke="black" stroke-opacity="0.05" stroke-width="0.84" stroke-miterlimit="10"/>
<path d="M86.4746 -169.604C86.4746 -169.604 216.802 -7.22768 86.4746 145.473C86.4746 145.473 246.889 13.5508 397.744 145.473C397.744 145.473 267.416 -16.9036 397.744 -169.604C397.744 -169.604 237.33 -37.682 86.4746 -169.604Z" stroke="black" stroke-opacity="0.05" stroke-width="0.83" stroke-miterlimit="10"/>
<path d="M90.7773 -165.229C90.7773 -165.229 217.504 -7.34211 90.7773 141.137C90.7773 141.137 246.756 12.8605 393.441 141.137C393.441 141.137 266.715 -16.7497 393.441 -165.229C393.441 -165.229 237.462 -36.9522 90.7773 -165.229Z" stroke="black" stroke-opacity="0.05" stroke-width="0.81" stroke-miterlimit="10"/>
<path d="M95.0801 -160.854C95.0801 -160.854 218.202 -7.45658 95.0801 136.798C95.0801 136.798 246.624 12.1701 389.135 136.798C389.135 136.798 266.013 -16.5991 389.135 -160.854C389.135 -160.854 237.592 -36.2258 95.0801 -160.854Z" stroke="black" stroke-opacity="0.05" stroke-width="0.8" stroke-miterlimit="10"/>
<path d="M99.3818 -156.482C99.3818 -156.482 218.903 -7.57447 99.3818 132.459C99.3818 132.459 246.49 11.4763 384.832 132.459C384.832 132.459 265.311 -16.4487 384.832 -156.482C384.832 -156.482 237.723 -35.4994 99.3818 -156.482Z" stroke="black" stroke-opacity="0.05" stroke-width="0.79" stroke-miterlimit="10"/>
<path d="M103.685 -152.107C103.685 -152.107 219.601 -7.68896 103.685 128.124C103.685 128.124 246.358 10.7891 380.529 128.124C380.529 128.124 264.613 -16.2948 380.529 -152.107C380.529 -152.107 237.856 -34.7729 103.685 -152.107Z" stroke="black" stroke-opacity="0.05" stroke-width="0.77" stroke-miterlimit="10"/>
<path d="M107.987 -147.736C107.987 -147.736 220.299 -7.80682 107.987 123.785C107.987 123.785 246.225 10.0987 376.227 123.785C376.227 123.785 263.914 -16.1444 376.227 -147.736C376.227 -147.736 237.989 -34.0498 107.987 -147.736Z" stroke="black" stroke-opacity="0.05" stroke-width="0.76" stroke-miterlimit="10"/>
<path d="M112.29 -143.361C112.29 -143.361 221.001 -7.9214 112.29 119.449C112.29 119.449 246.093 9.40816 371.924 119.449C371.924 119.449 263.213 -15.9906 371.924 -143.361C371.924 -143.361 238.121 -33.3202 112.29 -143.361Z" stroke="black" stroke-opacity="0.05" stroke-width="0.75" stroke-miterlimit="10"/>
<path d="M116.594 -138.989C116.594 -138.989 221.7 -8.03915 116.594 115.11C116.594 115.11 245.961 8.71777 367.622 115.11C367.622 115.11 262.516 -15.84 367.622 -138.989C367.622 -138.989 238.255 -32.597 116.594 -138.989Z" stroke="black" stroke-opacity="0.05" stroke-width="0.73" stroke-miterlimit="10"/>
<path d="M120.896 -134.614C120.896 -134.614 222.399 -8.15361 120.896 110.774C120.896 110.774 245.829 8.03069 363.32 110.774C363.32 110.774 261.818 -15.6862 363.32 -134.614C363.32 -134.614 238.387 -31.8705 120.896 -134.614Z" stroke="black" stroke-opacity="0.05" stroke-width="0.72" stroke-miterlimit="10"/>
<path d="M125.202 -130.24C125.202 -130.24 223.103 -8.2683 125.202 106.439C125.202 106.439 245.699 7.34008 359.02 106.439C359.02 106.439 261.119 -15.5326 359.02 -130.24C359.02 -130.24 238.523 -31.141 125.202 -130.24Z" stroke="black" stroke-opacity="0.05" stroke-width="0.7" stroke-miterlimit="10"/>
<path d="M129.505 -125.868C129.505 -125.868 223.801 -8.38594 129.505 102.097C129.505 102.097 245.567 6.64654 354.714 102.097C354.714 102.097 260.418 -15.3851 354.714 -125.868C354.714 -125.868 238.652 -30.4176 129.505 -125.868Z" stroke="black" stroke-opacity="0.05" stroke-width="0.69" stroke-miterlimit="10"/>
<path d="M133.807 -121.493C133.807 -121.493 224.499 -8.50064 133.807 97.7608C133.807 97.7608 245.434 5.95921 350.411 97.7608C350.411 97.7608 259.719 -15.2315 350.411 -121.493C350.411 -121.493 238.784 -29.6914 133.807 -121.493Z" stroke="black" stroke-opacity="0.05" stroke-width="0.68" stroke-miterlimit="10"/>
<path d="M138.108 -117.121C138.108 -117.121 225.199 -8.61498 138.108 93.422C138.108 93.422 245.303 5.26568 346.107 93.422C346.107 93.422 259.016 -15.0841 346.107 -117.121C346.107 -117.121 238.912 -28.9648 138.108 -117.121Z" stroke="black" stroke-opacity="0.05" stroke-width="0.66" stroke-miterlimit="10"/>
<path d="M142.412 -112.746C142.412 -112.746 225.899 -8.72957 142.412 89.0863C142.412 89.0863 245.172 4.57846 341.806 89.0863C341.806 89.0863 258.319 -14.9304 341.806 -112.746C341.806 -112.746 239.046 -28.2384 142.412 -112.746Z" stroke="black" stroke-opacity="0.05" stroke-width="0.65" stroke-miterlimit="10"/>
<path d="M146.716 -108.371C146.716 -108.371 226.598 -8.84415 146.716 84.7506C146.716 84.7506 245.04 3.89125 337.504 84.7506C337.504 84.7506 257.622 -14.7766 337.504 -108.371C337.504 -108.371 239.179 -27.512 146.716 -108.371Z" stroke="black" stroke-opacity="0.05" stroke-width="0.64" stroke-miterlimit="10"/>
<path d="M151.019 -104C151.019 -104 227.3 -8.9619 151.019 80.4117C151.019 80.4117 244.908 3.1976 333.201 80.4117C333.201 80.4117 256.92 -14.6261 333.201 -104C333.201 -104 239.312 -26.7855 151.019 -104Z" stroke="black" stroke-opacity="0.05" stroke-width="0.62" stroke-miterlimit="10"/>
<path d="M155.32 -99.6248C155.32 -99.6248 227.997 -9.07648 155.32 76.076C155.32 76.076 244.774 2.51037 328.898 76.076C328.898 76.076 256.221 -14.4723 328.898 -99.6248C328.898 -99.6248 239.444 -26.0592 155.32 -99.6248Z" stroke="black" stroke-opacity="0.05" stroke-width="0.61" stroke-miterlimit="10"/>
<path d="M159.623 -95.2531C159.623 -95.2531 228.695 -9.19428 159.623 71.7337C159.623 71.7337 244.642 1.81667 324.592 71.7337C324.592 71.7337 255.52 -14.325 324.592 -95.2531C324.592 -95.2531 239.573 -25.336 159.623 -95.2531Z" stroke="black" stroke-opacity="0.05" stroke-width="0.6" stroke-miterlimit="10"/>
<path d="M163.926 -90.8779C163.926 -90.8779 229.397 -9.30857 163.926 67.3983C163.926 67.3983 244.509 1.12647 320.289 67.3983C320.289 67.3983 254.818 -14.171 320.289 -90.8779C320.289 -90.8779 239.706 -24.6061 163.926 -90.8779Z" stroke="black" stroke-opacity="0.05" stroke-width="0.58" stroke-miterlimit="10"/>
<path d="M168.228 -86.5063C168.228 -86.5063 230.094 -9.42644 168.228 63.0593C168.228 63.0593 244.376 0.435965 315.986 63.0593C315.986 63.0593 254.119 -14.0206 315.986 -86.5063C315.986 -86.5063 239.837 -23.883 168.228 -86.5063Z" stroke="black" stroke-opacity="0.05" stroke-width="0.57" stroke-miterlimit="10"/>
<path d="M172.53 -82.1315C172.53 -82.1315 230.796 -9.54102 172.53 58.7236C172.53 58.7236 244.244 -0.25452 311.683 58.7236C311.683 58.7236 253.418 -13.8669 311.683 -82.1315C311.683 -82.1315 239.97 -23.1534 172.53 -82.1315Z" stroke="black" stroke-opacity="0.05" stroke-width="0.55" stroke-miterlimit="10"/>
<path d="M176.833 -77.7566C176.833 -77.7566 231.494 -9.6556 176.833 54.3879C176.833 54.3879 244.111 -0.941729 307.381 54.3879C307.381 54.3879 252.72 -13.7131 307.381 -77.7566C307.381 -77.7566 240.103 -22.427 176.833 -77.7566Z" stroke="black" stroke-opacity="0.05" stroke-width="0.54" stroke-miterlimit="10"/>
<path d="M181.137 -73.3849C181.137 -73.3849 232.193 -9.77334 181.137 50.049C181.137 50.049 243.98 -1.63211 303.079 50.049C303.079 50.049 252.022 -13.5625 303.079 -73.3849C303.079 -73.3849 240.236 -21.7038 181.137 -73.3849Z" stroke="black" stroke-opacity="0.05" stroke-width="0.53" stroke-miterlimit="10"/>
<path d="M185.438 -69.01C185.438 -69.01 232.894 -9.88792 185.438 45.7133C185.438 45.7133 243.846 -2.3226 298.775 45.7133C298.775 45.7133 251.32 -13.4088 298.775 -69.01C298.775 -69.01 240.368 -20.9741 185.438 -69.01Z" stroke="black" stroke-opacity="0.05" stroke-width="0.51" stroke-miterlimit="10"/>
<path d="M189.745 -64.6383C189.745 -64.6383 233.596 -10.0057 189.745 41.3711C189.745 41.3711 243.718 -3.01626 294.474 41.3711C294.474 41.3711 250.623 -13.2615 294.474 -64.6383C294.474 -64.6383 240.501 -20.2509 189.745 -64.6383Z" stroke="black" stroke-opacity="0.05" stroke-width="0.5" stroke-miterlimit="10"/>
<path d="M194.048 -60.2634C194.048 -60.2634 234.294 -10.1203 194.048 37.0354C194.048 37.0354 243.585 -3.70348 290.171 37.0354C290.171 37.0354 249.924 -13.1078 290.171 -60.2634C290.171 -60.2634 240.634 -19.5245 194.048 -60.2634Z" stroke="black" stroke-opacity="0.05" stroke-width="0.49" stroke-miterlimit="10"/>
<path d="M198.35 -55.8918C198.35 -55.8918 234.995 -10.2381 198.35 32.6964C198.35 32.6964 243.452 -4.39726 285.867 32.6964C285.867 32.6964 249.222 -12.9573 285.867 -55.8918C285.867 -55.8918 240.765 -18.7982 198.35 -55.8918Z" stroke="black" stroke-opacity="0.05" stroke-width="0.47" stroke-miterlimit="10"/>
<path d="M202.652 -51.5167C202.652 -51.5167 235.693 -10.3525 202.652 28.3609C202.652 28.3609 243.319 -5.08423 281.565 28.3609C281.565 28.3609 248.524 -12.8033 281.565 -51.5167C281.565 -51.5167 240.898 -18.0716 202.652 -51.5167Z" stroke="black" stroke-opacity="0.05" stroke-width="0.46" stroke-miterlimit="10"/>
<path d="M206.955 -47.1418C206.955 -47.1418 236.392 -10.467 206.955 24.0252C206.955 24.0252 243.187 -5.77143 277.262 24.0252C277.262 24.0252 247.826 -12.6496 277.262 -47.1418C277.262 -47.1418 241.031 -17.3452 206.955 -47.1418Z" stroke="black" stroke-opacity="0.05" stroke-width="0.44" stroke-miterlimit="10"/>
<path d="M211.259 -42.7701C211.259 -42.7701 237.094 -10.5848 211.259 19.6863C211.259 19.6863 243.055 -6.46509 272.96 19.6863C272.96 19.6863 247.125 -12.499 272.96 -42.7701C272.96 -42.7701 241.164 -16.6187 211.259 -42.7701Z" stroke="black" stroke-opacity="0.05" stroke-width="0.43" stroke-miterlimit="10"/>
<path d="M215.561 -38.3953C215.561 -38.3953 237.792 -10.6961 215.561 15.3506C215.561 15.3506 242.925 -7.15231 268.657 15.3506C268.657 15.3506 246.426 -12.3486 268.657 -38.3953C268.657 -38.3953 241.292 -15.8924 215.561 -38.3953Z" stroke="black" stroke-opacity="0.05" stroke-width="0.42" stroke-miterlimit="10"/>
<path d="M219.863 -34.0237C219.863 -34.0237 238.49 -10.814 219.863 11.0116C219.863 11.0116 242.793 -7.84282 264.354 11.0116C264.354 11.0116 245.728 -12.1981 264.354 -34.0237C264.354 -34.0237 241.425 -15.1693 219.863 -34.0237Z" stroke="black" stroke-opacity="0.05" stroke-width="0.4" stroke-miterlimit="10"/>
<path d="M224.166 -29.6488C224.166 -29.6488 239.191 -10.9286 224.166 6.6726C224.166 6.6726 242.66 -8.53658 260.048 6.6726C260.048 6.6726 245.023 -12.0476 260.048 -29.6488C260.048 -29.6488 241.554 -14.4396 224.166 -29.6488Z" stroke="black" stroke-opacity="0.05" stroke-width="0.39" stroke-miterlimit="10"/>
<path d="M228.468 -25.2737C228.468 -25.2737 239.889 -11.0429 228.468 2.33714C228.468 2.33714 242.527 -9.22354 255.745 2.33714C255.745 2.33714 244.324 -11.8937 255.745 -25.2737C255.745 -25.2737 241.686 -13.713 228.468 -25.2737Z" stroke="black" stroke-opacity="0.05" stroke-width="0.38" stroke-miterlimit="10"/>
</g>
<g filter="url(#filter0_i_19961_29904)">
<path d="M24.6979 47.6548C26.2618 47.6548 27.5295 46.3896 27.5295 44.829C27.5295 43.2683 26.2618 42.0032 24.6979 42.0032C23.134 42.0032 21.8662 43.2683 21.8662 44.829C21.8662 46.3896 23.134 47.6548 24.6979 47.6548Z" fill="#BEDEF5"/>
<path d="M45.7526 47.6548C47.3164 47.6548 48.5842 46.3896 48.5842 44.829C48.5842 43.2683 47.3164 42.0032 45.7526 42.0032C44.1887 42.0032 42.9209 43.2683 42.9209 44.829C42.9209 46.3896 44.1887 47.6548 45.7526 47.6548Z" fill="#BEDEF5"/>
<path d="M33.0719 56.2499C34.6358 56.2499 35.9036 54.9847 35.9036 53.4241C35.9036 51.8634 34.6358 50.5983 33.0719 50.5983C31.508 50.5983 30.2402 51.8634 30.2402 53.4241C30.2402 54.9847 31.508 56.2499 33.0719 56.2499Z" fill="#BEDEF5"/>
<path d="M45.7526 65.1644C47.3164 65.1644 48.5842 63.8993 48.5842 62.3386C48.5842 60.778 47.3164 59.5128 45.7526 59.5128C44.1887 59.5128 42.9209 60.778 42.9209 62.3386C42.9209 63.8993 44.1887 65.1644 45.7526 65.1644Z" fill="#BEDEF5"/>
<path d="M45.7526 90.832C47.3164 90.832 48.5842 89.5669 48.5842 88.0062C48.5842 86.4456 47.3164 85.1804 45.7526 85.1804C44.1887 85.1804 42.9209 86.4456 42.9209 88.0062C42.9209 89.5669 44.1887 90.832 45.7526 90.832Z" fill="#BEDEF5"/>
<path d="M54.2858 65.1644C55.8496 65.1644 57.1174 63.8993 57.1174 62.3386C57.1174 60.778 55.8496 59.5128 54.2858 59.5128C52.7219 59.5128 51.4541 60.778 51.4541 62.3386C51.4541 63.8993 52.7219 65.1644 54.2858 65.1644Z" fill="#BEDEF5"/>
<path d="M54.2858 82.4742C55.8496 82.4742 57.1174 81.2091 57.1174 79.6484C57.1174 78.0878 55.8496 76.8226 54.2858 76.8226C52.7219 76.8226 51.4541 78.0878 51.4541 79.6484C51.4541 81.2091 52.7219 82.4742 54.2858 82.4742Z" fill="#BEDEF5"/>
<path d="M76.0592 82.4742C77.6231 82.4742 78.8909 81.2091 78.8909 79.6484C78.8909 78.0878 77.6231 76.8226 76.0592 76.8226C74.4953 76.8226 73.2275 78.0878 73.2275 79.6484C73.2275 81.2091 74.4953 82.4742 76.0592 82.4742Z" fill="#BEDEF5"/>
<path d="M66.6481 90.832C68.212 90.832 69.4797 89.5669 69.4797 88.0062C69.4797 86.4456 68.212 85.1804 66.6481 85.1804C65.0842 85.1804 63.8164 86.4456 63.8164 88.0062C63.8164 89.5669 65.0842 90.832 66.6481 90.832Z" fill="#BEDEF5"/>
<path d="M66.6481 99.7303C68.212 99.7303 69.4797 98.4652 69.4797 96.9045C69.4797 95.3439 68.212 94.0787 66.6481 94.0787C65.0842 94.0787 63.8164 95.3439 63.8164 96.9045C63.8164 98.4652 65.0842 99.7303 66.6481 99.7303Z" fill="#BEDEF5"/>
<path d="M108.399 82.4742C109.963 82.4742 111.231 81.2091 111.231 79.6484C111.231 78.0878 109.963 76.8226 108.399 76.8226C106.835 76.8226 105.567 78.0878 105.567 79.6484C105.567 81.2091 106.835 82.4742 108.399 82.4742Z" fill="#BEDEF5"/>
<path d="M137.942 82.4742C139.506 82.4742 140.774 81.2091 140.774 79.6484C140.774 78.0878 139.506 76.8226 137.942 76.8226C136.378 76.8226 135.11 78.0878 135.11 79.6484C135.11 81.2091 136.378 82.4742 137.942 82.4742Z" fill="#BEDEF5"/>
<path d="M150.624 82.4742C152.188 82.4742 153.455 81.2091 153.455 79.6484C153.455 78.0878 152.188 76.8226 150.624 76.8226C149.06 76.8226 147.792 78.0878 147.792 79.6484C147.792 81.2091 149.06 82.4742 150.624 82.4742Z" fill="#BEDEF5"/>
<path d="M180.292 82.4742C181.856 82.4742 183.123 81.2091 183.123 79.6484C183.123 78.0878 181.856 76.8226 180.292 76.8226C178.728 76.8226 177.46 78.0878 177.46 79.6484C177.46 81.2091 178.728 82.4742 180.292 82.4742Z" fill="#BEDEF5"/>
<path d="M150.624 91.3735C152.188 91.3735 153.455 90.1084 153.455 88.5477C153.455 86.9871 152.188 85.7219 150.624 85.7219C149.06 85.7219 147.792 86.9871 147.792 88.5477C147.792 90.1084 149.06 91.3735 150.624 91.3735Z" fill="#BEDEF5"/>
<path d="M172.277 91.3735C173.841 91.3735 175.109 90.1084 175.109 88.5477C175.109 86.9871 173.841 85.7219 172.277 85.7219C170.713 85.7219 169.445 86.9871 169.445 88.5477C169.445 90.1084 170.713 91.3735 172.277 91.3735Z" fill="#BEDEF5"/>
<path d="M150.624 100.272C152.188 100.272 153.455 99.0068 153.455 97.4462C153.455 95.8855 152.188 94.6204 150.624 94.6204C149.06 94.6204 147.792 95.8855 147.792 97.4462C147.792 99.0068 149.06 100.272 150.624 100.272Z" fill="#BEDEF5"/>
<path d="M192.614 91.3735C194.178 91.3735 195.446 90.1084 195.446 88.5477C195.446 86.9871 194.178 85.7219 192.614 85.7219C191.05 85.7219 189.782 86.9871 189.782 88.5477C189.782 90.1084 191.05 91.3735 192.614 91.3735Z" fill="#BEDEF5"/>
<path d="M192.614 100.272C194.178 100.272 195.446 99.0068 195.446 97.4462C195.446 95.8855 194.178 94.6204 192.614 94.6204C191.05 94.6204 189.782 95.8855 189.782 97.4462C189.782 99.0068 191.05 100.272 192.614 100.272Z" fill="#BEDEF5"/>
<path d="M214.266 100.272C215.83 100.272 217.098 99.0068 217.098 97.4462C217.098 95.8855 215.83 94.6204 214.266 94.6204C212.702 94.6204 211.435 95.8855 211.435 97.4462C211.435 99.0068 212.702 100.272 214.266 100.272Z" fill="#BEDEF5"/>
<path d="M201.499 82.5067C203.063 82.5067 204.33 81.2416 204.33 79.6809C204.33 78.1203 203.063 76.8551 201.499 76.8551C199.935 76.8551 198.667 78.1203 198.667 79.6809C198.667 81.2416 199.935 82.5067 201.499 82.5067Z" fill="#BEDEF5"/>
<path d="M213.462 82.5067C215.025 82.5067 216.293 81.2416 216.293 79.6809C216.293 78.1203 215.025 76.8551 213.462 76.8551C211.898 76.8551 210.63 78.1203 210.63 79.6809C210.63 81.2416 211.898 82.5067 213.462 82.5067Z" fill="#BEDEF5"/>
<path d="M201.499 91.405C203.063 91.405 204.33 90.1399 204.33 88.5792C204.33 87.0186 203.063 85.7534 201.499 85.7534C199.935 85.7534 198.667 87.0186 198.667 88.5792C198.667 90.1399 199.935 91.405 201.499 91.405Z" fill="#BEDEF5"/>
<path d="M222.794 82.5067C224.357 82.5067 225.625 81.2416 225.625 79.6809C225.625 78.1203 224.357 76.8551 222.794 76.8551C221.23 76.8551 219.962 78.1203 219.962 79.6809C219.962 81.2416 221.23 82.5067 222.794 82.5067Z" fill="#BEDEF5"/>
<path d="M222.794 91.405C224.357 91.405 225.625 90.1399 225.625 88.5792C225.625 87.0186 224.357 85.7534 222.794 85.7534C221.23 85.7534 219.962 87.0186 219.962 88.5792C219.962 90.1399 221.23 91.405 222.794 91.405Z" fill="#BEDEF5"/>
<path d="M222.794 100.272C224.357 100.272 225.625 99.0068 225.625 97.4462C225.625 95.8855 224.357 94.6204 222.794 94.6204C221.23 94.6204 219.962 95.8855 219.962 97.4462C219.962 99.0068 221.23 100.272 222.794 100.272Z" fill="#BEDEF5"/>
<path d="M108.399 91.3735C109.963 91.3735 111.231 90.1084 111.231 88.5477C111.231 86.9871 109.963 85.7219 108.399 85.7219C106.835 85.7219 105.567 86.9871 105.567 88.5477C105.567 90.1084 106.835 91.3735 108.399 91.3735Z" fill="#BEDEF5"/>
<path d="M129.933 91.3735C131.497 91.3735 132.765 90.1084 132.765 88.5477C132.765 86.9871 131.497 85.7219 129.933 85.7219C128.369 85.7219 127.102 86.9871 127.102 88.5477C127.102 90.1084 128.369 91.3735 129.933 91.3735Z" fill="#BEDEF5"/>
<path d="M66.6481 117.176C68.212 117.176 69.4797 115.911 69.4797 114.35C69.4797 112.79 68.212 111.524 66.6481 111.524C65.0842 111.524 63.8164 112.79 63.8164 114.35C63.8164 115.911 65.0842 117.176 66.6481 117.176Z" fill="#BEDEF5"/>
<path d="M87.2252 117.176C88.7891 117.176 90.0569 115.911 90.0569 114.35C90.0569 112.79 88.7891 111.524 87.2252 111.524C85.6613 111.524 84.3936 112.79 84.3936 114.35C84.3936 115.911 85.6613 117.176 87.2252 117.176Z" fill="#BEDEF5"/>
<path d="M96.3922 117.176C97.9561 117.176 99.2239 115.911 99.2239 114.35C99.2239 112.79 97.9561 111.524 96.3922 111.524C94.8283 111.524 93.5605 112.79 93.5605 114.35C93.5605 115.911 94.8283 117.176 96.3922 117.176Z" fill="#BEDEF5"/>
<path d="M96.3922 126.09C97.9561 126.09 99.2239 124.824 99.2239 123.264C99.2239 121.703 97.9561 120.438 96.3922 120.438C94.8283 120.438 93.5605 121.703 93.5605 123.264C93.5605 124.824 94.8283 126.09 96.3922 126.09Z" fill="#BEDEF5"/>
<path d="M66.6481 126.09C68.212 126.09 69.4797 124.824 69.4797 123.264C69.4797 121.703 68.212 120.438 66.6481 120.438C65.0842 120.438 63.8164 121.703 63.8164 123.264C63.8164 124.824 65.0842 126.09 66.6481 126.09Z" fill="#BEDEF5"/>
<path d="M75.1022 126.09C76.6661 126.09 77.9338 124.824 77.9338 123.264C77.9338 121.703 76.6661 120.438 75.1022 120.438C73.5383 120.438 72.2705 121.703 72.2705 123.264C72.2705 124.824 73.5383 126.09 75.1022 126.09Z" fill="#BEDEF5"/>
<path d="M66.6481 135.004C68.212 135.004 69.4797 133.739 69.4797 132.178C69.4797 130.618 68.212 129.353 66.6481 129.353C65.0842 129.353 63.8164 130.618 63.8164 132.178C63.8164 133.739 65.0842 135.004 66.6481 135.004Z" fill="#BEDEF5"/>
<path d="M87.2252 82.4742C88.7891 82.4742 90.0569 81.2091 90.0569 79.6484C90.0569 78.0878 88.7891 76.8226 87.2252 76.8226C85.6613 76.8226 84.3936 78.0878 84.3936 79.6484C84.3936 81.2091 85.6613 82.4742 87.2252 82.4742Z" fill="#BEDEF5"/>
<path d="M24.6979 82.4742C26.2618 82.4742 27.5295 81.2091 27.5295 79.6484C27.5295 78.0878 26.2618 76.8226 24.6979 76.8226C23.134 76.8226 21.8662 78.0878 21.8662 79.6484C21.8662 81.2091 23.134 82.4742 24.6979 82.4742Z" fill="#BEDEF5"/>
<path d="M24.6979 117.772C26.2618 117.772 27.5295 116.507 27.5295 114.947C27.5295 113.386 26.2618 112.121 24.6979 112.121C23.134 112.121 21.8662 113.386 21.8662 114.947C21.8662 116.507 23.134 117.772 24.6979 117.772Z" fill="#BEDEF5"/>
<path d="M33.2311 82.4742C34.795 82.4742 36.0627 81.2091 36.0627 79.6484C36.0627 78.0878 34.795 76.8226 33.2311 76.8226C31.6672 76.8226 30.3994 78.0878 30.3994 79.6484C30.3994 81.2091 31.6672 82.4742 33.2311 82.4742Z" fill="#BEDEF5"/>
<path d="M33.2311 91.4283C34.795 91.4283 36.0627 90.1632 36.0627 88.6025C36.0627 87.0419 34.795 85.7767 33.2311 85.7767C31.6672 85.7767 30.3994 87.0419 30.3994 88.6025C30.3994 90.1632 31.6672 91.4283 33.2311 91.4283Z" fill="#BEDEF5"/>
<path d="M45.7526 117.176C47.3164 117.176 48.5842 115.911 48.5842 114.35C48.5842 112.79 47.3164 111.524 45.7526 111.524C44.1887 111.524 42.9209 112.79 42.9209 114.35C42.9209 115.911 44.1887 117.176 45.7526 117.176Z" fill="#BEDEF5"/>
<path d="M33.2311 117.772C34.795 117.772 36.0627 116.507 36.0627 114.947C36.0627 113.386 34.795 112.121 33.2311 112.121C31.6672 112.121 30.3994 113.386 30.3994 114.947C30.3994 116.507 31.6672 117.772 33.2311 117.772Z" fill="#BEDEF5"/>
</g>
</g>
</g>
<defs>
<filter id="filter0_i_19961_29904" x="21.8662" y="42.0032" width="203.759" height="94.001" filterUnits="userSpaceOnUse" color-interpolation-filters="sRGB">
<feFlood flood-opacity="0" result="BackgroundImageFix"/>
<feBlend mode="normal" in="SourceGraphic" in2="BackgroundImageFix" result="shape"/>
<feColorMatrix in="SourceAlpha" type="matrix" values="0 0 0 0 0 0 0 0 0 0 0 0 0 0 0 0 0 0 127 0" result="hardAlpha"/>
<feOffset dy="1"/>
<feGaussianBlur stdDeviation="0.5"/>
<feComposite in2="hardAlpha" operator="arithmetic" k2="-1" k3="1"/>
<feColorMatrix type="matrix" values="0 0 0 0 0 0 0 0 0 0 0 0 0 0 0 0 0 0 0.1 0"/>
<feBlend mode="normal" in2="shape" result="effect1_innerShadow_19961_29904"/>
</filter>
</defs>
</svg>
