<svg fill="none" xmlns="http://www.w3.org/2000/svg" viewBox="0 0 49 30">
  <path
    d="m21.7 13.305-9.135-8.9a1.45 1.45 0 0 0-2.013 0l-9.136 8.9a1.36 1.36 0 0 0 0 1.96l9.136 8.9a1.45 1.45 0 0 0 2.013 0l9.136-8.9a1.36 1.36 0 0 0 0-1.96Zm-6.24 3.116c-.235 1.863-1.625 2.762-3.891 2.762H6.973l.266-2.075h4.566c.584 0 .899-.343.976-.952.007-.066.01-.126.01-.186h2.704a4.933 4.933 0 0 1-.034.45h-.002Zm1.83-1.18H7.473l.237-1.875h4.433c.649-.001.852-.436.919-.965.066-.529-.028-.859-.693-.859H7.942l.267-2.155h4.528c2.58 0 3.273 1.07 3.088 2.54-.076.6-.25 1.078-.504 1.44h.265c1.031 0 1.831.878 1.705 1.876l-.002-.001Z"
    fill="#3FBDEE"
  />
  <path
    d="M36.438 9.388c.854 0 1.587.593 1.746 1.41l1.632 8.387h-2.723l-.227-1.372-.003-.023h-2.968l-.007.017-.575 1.378h-2.639l4.377-9.796h1.387v-.001ZM34.77 15.6h1.759l-.007-.032-.494-2.712-.016-.087-.035.081-1.19 2.712-.015.036M31.636 10.227c-.505-.557-1.37-.84-2.566-.84h-4.193l-1.234 9.797h2.606l.364-2.888.003-.022h1.524c1.261 0 2.248-.352 2.932-1.044.59-.598.96-1.446 1.096-2.523.142-1.118-.032-1.93-.532-2.48Zm-2.08 2.646c-.11.866-.45 1.219-1.174 1.219h-1.49l.003-.03.305-2.42.003-.022h1.485c.331 0 .562.077.704.233.176.192.227.517.163 1.02ZM49 9.388l-4.123 6.673-.003.004v.006l-.393 3.114h-2.647l.398-3.16v-.013l-2.425-6.624h2.821l1.307 3.85.019.055.03-.051 2.295-3.854H49ZM48.64 18.879c-.209.204-.46.305-.755.305-.294 0-.545-.102-.753-.305a.991.991 0 0 1-.308-.736c0-.288.103-.53.31-.733.207-.2.457-.301.75-.301s.546.1.754.301a.984.984 0 0 1 .311.733.99.99 0 0 1-.311.736h.001Zm-1.402-1.367a.853.853 0 0 0-.267.633c0 .247.09.46.266.636a.89.89 0 0 0 .648.263c.255 0 .47-.087.648-.263a.863.863 0 0 0 .267-.636c0-.25-.09-.458-.267-.633a.89.89 0 0 0-.648-.262.89.89 0 0 0-.647.262Zm.627.059c.145 0 .252.014.32.04.12.05.18.146.18.289 0 .102-.037.177-.114.225a.435.435 0 0 1-.17.056c.091.013.159.05.2.11a.3.3 0 0 1 .064.177v.084a.873.873 0 0 0 .012.144l.008.013h-.193s-.001-.007-.003-.01l-.001-.012-.005-.038v-.09c0-.132-.037-.218-.111-.261a.516.516 0 0 0-.23-.036h-.162v.447h-.206v-1.14h.41l.002.002Zm.222.179a.55.55 0 0 0-.25-.042h-.175v.413h.187a.576.576 0 0 0 .195-.026c.08-.031.12-.09.12-.179 0-.082-.026-.138-.077-.166Z"
    fill="#3EBEEF"
  />
</svg>
