<svg width="32" height="32" viewBox="0 0 32 32" fill="none" xmlns="http://www.w3.org/2000/svg">
<path fill-rule="evenodd" clip-rule="evenodd" d="M7.5 27H17.3125C18.9697 26.9346 18.971 24.5661 17.3125 24.5H7.5C4.743 24.5 2.5 22.257 2.5 19.5V7.5C2.5 4.743 4.743 2.5 7.5 2.5H24.5C27.257 2.5 29.5 4.743 29.5 7.5V9.75C29.5654 11.4073 31.934 11.4085 32 9.75V7.5C32 3.3645 28.6355 0 24.5 0H7.5C3.3645 0 0 3.3645 0 7.5V19.5C0 23.6355 3.3645 27 7.5 27ZM27.3751 24.1199L27.1316 24.4864C26.684 25.1603 25.9337 25.5626 25.1249 25.5626C24.316 25.5626 23.5659 25.1603 23.1183 24.4866L22.8748 24.1199L22.4433 24.207C21.6504 24.3668 20.8356 24.1209 20.2636 23.549C19.6916 22.9771 19.4456 22.1622 19.6056 21.3693L19.6927 20.9379L19.3261 20.6943C17.9008 19.7763 17.9004 17.5994 19.3261 16.6811L19.6927 16.4376L19.6056 16.0062C19.4457 15.2132 19.6916 14.3984 20.2636 13.8264C20.8356 13.2544 21.6504 13.0085 22.4434 13.1684L22.8748 13.2554L23.1183 12.8889C24.0364 11.4636 26.2131 11.4633 27.1316 12.8889L27.3751 13.2554L27.8065 13.1684C28.5994 13.0085 29.4143 13.2544 29.9863 13.8264C30.5583 14.3983 30.8043 15.2132 30.6443 16.0061L30.5572 16.4375L30.9239 16.6811C32.3492 17.5991 32.3495 19.7759 30.9239 20.6943L30.5572 20.9378L30.6443 21.3692C30.8043 22.1621 30.5583 22.977 29.9864 23.5489C29.4144 24.1209 28.5996 24.3668 27.8066 24.2069L27.3751 24.1199ZM22.0834 21.7291L22.4405 21.6571C22.6013 21.6247 22.7625 21.6089 22.9218 21.6089C23.7179 21.6089 24.4701 22.003 24.9235 22.6857L25.125 22.9891L25.3266 22.6856C25.8708 21.8664 26.8451 21.4628 27.8096 21.6571L28.1667 21.7291L28.0946 21.372C27.9001 20.4078 28.3039 19.4332 29.1231 18.889L29.4266 18.6874L29.1231 18.4858C28.3039 17.9417 27.9001 16.9671 28.0946 16.0029L28.1667 15.6458L27.8096 15.7179C26.8454 15.9123 25.8708 15.5086 25.3266 14.6894L25.125 14.3859L24.9235 14.6893C24.3793 15.5086 23.4046 15.9124 22.4405 15.7179L22.0834 15.6458L22.1554 16.0029C22.3499 16.9671 21.9462 17.9417 21.1269 18.4859L20.8235 18.6874L21.1269 18.8891C21.9462 19.4332 22.3499 20.4078 22.1554 21.372L22.0834 21.7291ZM29.4375 29.8627C29.4375 30.7151 28.932 31.4845 28.1496 31.8229C27.8764 31.941 27.5879 31.9986 27.3019 31.9986C26.7709 31.9986 26.2479 31.8004 25.8443 31.4234L25.0625 30.7015L24.2807 31.4234C23.6597 32.0035 22.7557 32.1604 21.9754 31.8229C21.193 31.4846 20.6875 30.7152 20.6875 29.8628V27.5001C20.7529 25.8428 23.1215 25.8416 23.1875 27.5001V29.0301L24.2144 28.0816C24.6933 27.6394 25.4317 27.6394 25.9106 28.0816L26.9375 29.03V27.5C27.0029 25.8428 29.3715 25.8415 29.4375 27.5V29.8627ZM7.43964 5.18683C6.99053 4.73773 6.26239 4.73773 5.81329 5.18683C5.36419 5.63593 5.36419 6.36407 5.81329 6.81318L15.1727 16.1726C15.1773 16.1774 15.182 16.1821 15.1867 16.1868C15.4113 16.4114 15.7056 16.5237 16 16.5237C16.2943 16.5237 16.5887 16.4114 16.8133 16.1868C16.818 16.1821 16.8226 16.1774 16.8272 16.1726L26.1867 6.81318C26.6358 6.36407 26.6358 5.63593 26.1867 5.18683C25.7376 4.73773 25.0095 4.73773 24.5604 5.18683L16 13.7472L7.43964 5.18683ZM5.68671 21.6868C5.23761 21.2377 5.23761 20.5096 5.68671 20.0605L10.4243 15.3229C10.8734 14.8738 11.6016 14.8738 12.0507 15.3229C12.4998 15.772 12.4998 16.5001 12.0507 16.9492L7.31305 21.6868C6.86395 22.1359 6.13581 22.1359 5.68671 21.6868Z" fill="#0073E6"/>
</svg>
