<svg width="10" height="16" viewBox="0 0 10 16" fill="none" xmlns="http://www.w3.org/2000/svg">
<path d="M5 16C2.24268 16 0 13.7573 0 11V4C0 3.63135 0.298706 3.33337 0.666626 3.33337C1.03467 3.33337 1.33337 3.63135 1.33337 4V11C1.33337 13.0214 2.97803 14.6666 5 14.6666C7.02197 14.6666 8.66663 13.0214 8.66663 11V3.66663C8.66663 2.38 7.62 1.33337 6.33337 1.33337C5.04663 1.33337 4 2.38 4 3.66663V10.3334C4 10.8846 4.44861 11.3334 5 11.3334C5.55139 11.3334 6 10.8846 6 10.3334V4C6 3.63135 6.29871 3.33337 6.66663 3.33337C7.03467 3.33337 7.33337 3.63135 7.33337 4V10.3334C7.33337 11.62 6.28662 12.6666 5 12.6666C3.71338 12.6666 2.66663 11.62 2.66663 10.3334V3.66663C2.66663 1.64539 4.31128 0 6.33337 0C8.35535 0 10 1.64539 10 3.66663V11C10 13.7573 7.75732 16 5 16Z" fill="@fillColor"/>
</svg>
