<svg width="16" height="16" viewBox="0 0 16 16" fill="none" xmlns="http://www.w3.org/2000/svg">
<path d="M8.65662 13.5006H3.75016C1.68232 13.5006 0 11.8183 0 9.75042V3.75016C0 1.68232 1.68232 0 3.75016 0H12.2505C14.3184 0 16.0007 1.68232 16.0007 3.75016V4.87521C15.9677 5.7045 14.7834 5.70387 14.7506 4.87521V3.75016C14.7506 2.3716 13.6291 1.25005 12.2505 1.25005H3.75016C2.3716 1.25005 1.25005 2.3716 1.25005 3.75016V9.75042C1.25005 11.129 2.3716 12.2505 3.75016 12.2505H8.65662C9.48591 12.2836 9.48528 13.4679 8.65662 13.5006ZM8.87538 6.56278C8.87538 6.21758 8.59556 5.93776 8.25036 5.93776H3.75016C2.92088 5.97076 2.9215 7.15509 3.75016 7.18781H8.25036C8.59556 7.18781 8.87538 6.90799 8.87538 6.56278ZM7.21906 9.06289C7.21906 8.71769 6.93924 8.43786 6.59403 8.43786H3.75016C2.92088 8.47087 2.9215 9.6552 3.75016 9.68792H6.59403C6.93924 9.68792 7.21906 9.40809 7.21906 9.06289ZM13.5664 12.2437L13.6882 12.0605L13.9039 12.104C14.3004 12.1839 14.7078 12.061 14.9938 11.775C15.2798 11.489 15.4028 11.0815 15.3228 10.6851L15.2793 10.4694L15.4626 10.3476C16.1754 9.8884 16.1753 8.79994 15.4626 8.34089L15.2793 8.2191L15.3228 8.00341C15.4028 7.60692 15.2798 7.19947 14.9938 6.91349C14.7078 6.62747 14.3003 6.50453 13.9038 6.58447L13.6881 6.62801L13.5664 6.44472C13.5664 6.44472 13.5664 6.44472 13.5664 6.44468C13.1071 5.73184 12.0187 5.73203 11.5597 6.44472L11.4379 6.62801L11.2222 6.58447C10.8257 6.50453 10.4182 6.62747 10.1322 6.91349C9.84624 7.1995 9.72326 7.60692 9.80324 8.00344L9.84677 8.21914L9.66345 8.34089C8.95061 8.8001 8.95076 9.88855 9.66345 10.3476L9.84677 10.4694L9.80324 10.6851C9.72323 11.0816 9.84624 11.489 10.1322 11.775C10.4182 12.061 10.8257 12.1839 11.2221 12.104L11.4379 12.0605L11.5597 12.2438C11.7834 12.5807 12.1585 12.7819 12.563 12.7819C12.9674 12.7819 13.3426 12.5807 13.5664 12.2437ZM11.2207 10.829L11.0422 10.865L11.0782 10.6865C11.1755 10.2043 10.9736 9.71701 10.5639 9.44494L10.4122 9.34412L10.5639 9.24334C10.9736 8.97123 11.1755 8.4839 11.0782 8.00178L11.0422 7.82324L11.2207 7.85928C11.7028 7.95653 12.1902 7.75465 12.4623 7.34497L12.563 7.19328L12.6638 7.345C12.9359 7.75465 13.4233 7.9565 13.9054 7.85928L14.084 7.82324L14.0479 8.00181C13.9507 8.4839 14.1525 8.97123 14.5622 9.24331L14.7139 9.34412L14.5622 9.44491C14.1525 9.71701 13.9507 10.2043 14.0479 10.6865L14.084 10.865L13.9054 10.829C13.4231 10.7318 12.9359 10.9337 12.6638 11.3433L12.563 11.495L12.4623 11.3433C12.2356 11.002 11.8594 10.8049 11.4614 10.8049C11.3817 10.8049 11.3011 10.8128 11.2207 10.829ZM13.7051 6.65341H13.7054H13.7051ZM12.8756 4.06268C12.8756 3.71747 12.5957 3.43765 12.2505 3.43765H3.75016C2.92088 3.47065 2.9215 4.65498 3.75016 4.6877H12.2505C12.5957 4.6877 12.8756 4.40788 12.8756 4.06268ZM14.0754 15.9121C14.4666 15.7429 14.7194 15.3582 14.7194 14.932V13.7506C14.6864 12.9213 13.5021 12.9219 13.4693 13.7506V14.5156L12.9558 14.0414C12.7164 13.8203 12.3472 13.8203 12.1077 14.0414L11.5943 14.5157V13.7506C11.5612 12.9213 10.3769 12.922 10.3442 13.7506V14.932C10.3442 15.3583 10.597 15.743 10.9882 15.9121C11.3784 16.0809 11.8304 16.0024 12.1409 15.7124L12.5318 15.3514L12.9227 15.7124C13.1245 15.9009 13.386 16 13.6515 16C13.7946 16 13.9388 15.9712 14.0754 15.9121Z" fill="@fillColor"/>
</svg>
