<svg width="320" height="197" viewBox="0 0 320 197" fill="none" xmlns="http://www.w3.org/2000/svg">
<g clip-path="url(#clip0_23225_145471)">
<rect width="320" height="197" fill="white"/>
<path d="M216.8 527C394.942 527 539.354 380.821 539.354 200.5C539.354 20.179 394.942 -126 216.8 -126C38.658 -126 -105.755 20.179 -105.755 200.5C-105.755 380.821 38.658 527 216.8 527Z" fill="#E8EEF4"/>
<mask id="mask0_23225_145471" style="mask-type:luminance" maskUnits="userSpaceOnUse" x="-106" y="-126" width="646" height="653">
<path d="M216.801 527C394.942 527 539.355 380.821 539.355 200.5C539.355 20.179 394.942 -126 216.801 -126C38.6587 -126 -105.754 20.179 -105.754 200.5C-105.754 380.821 38.6587 527 216.801 527Z" fill="white"/>
</mask>
<g mask="url(#mask0_23225_145471)">
<path d="M-469.251 -604.867C-469.251 -604.867 105.254 110.901 -469.251 784.018C-469.251 784.018 237.87 202.486 902.85 784.018C902.85 784.018 328.346 68.2476 902.85 -604.867C902.85 -604.867 195.733 -23.3347 -469.251 -604.867Z" stroke="black" stroke-opacity="0.05" stroke-miterlimit="10"/>
<path d="M-461.745 -597.236C-461.745 -597.236 106.472 110.701 -461.745 776.45C-461.745 776.45 237.637 201.282 895.341 776.45C895.341 776.45 327.124 68.5127 895.341 -597.236C895.341 -597.236 195.959 -22.0683 -461.745 -597.236Z" stroke="black" stroke-opacity="0.05" stroke-miterlimit="10"/>
<path d="M-454.235 -589.605C-454.235 -589.605 107.695 110.498 -454.235 768.881C-454.235 768.881 237.408 200.078 887.835 768.881C887.835 768.881 325.905 68.7777 887.835 -589.605C887.835 -589.605 196.192 -20.802 -454.235 -589.605Z" stroke="black" stroke-opacity="0.05" stroke-miterlimit="10"/>
<path d="M-446.729 -581.974C-446.729 -581.974 108.913 110.295 -446.729 761.312C-446.729 761.312 237.175 198.874 880.325 761.312C880.325 761.312 324.683 69.0428 880.325 -581.974C880.325 -581.974 196.421 -19.5357 -446.729 -581.974Z" stroke="black" stroke-opacity="0.05" stroke-miterlimit="10"/>
<path d="M-439.219 -574.344C-439.219 -574.344 110.135 110.093 -439.219 753.744C-439.219 753.744 236.946 197.67 872.819 753.744C872.819 753.744 323.465 69.3078 872.819 -574.344C872.819 -574.344 196.654 -18.2693 -439.219 -574.344Z" stroke="black" stroke-opacity="0.05" stroke-miterlimit="10"/>
<path d="M-431.713 -566.71C-431.713 -566.71 111.357 109.893 -431.713 746.179C-431.713 746.179 236.713 196.466 865.309 746.179C865.309 746.179 322.239 69.5762 865.309 -566.71C865.309 -566.71 196.884 -16.9964 -431.713 -566.71Z" stroke="black" stroke-opacity="0.05" stroke-miterlimit="10"/>
<path d="M-424.203 -559.079C-424.203 -559.079 112.58 109.693 -424.203 738.61C-424.203 738.61 236.487 195.261 857.804 738.61C857.804 738.61 321.021 69.8379 857.804 -559.079C857.804 -559.079 197.113 -15.7301 -424.203 -559.079Z" stroke="black" stroke-opacity="0.05" stroke-miterlimit="10"/>
<path d="M-416.694 -551.448C-416.694 -551.448 113.801 109.49 -416.694 731.041C-416.694 731.041 236.257 194.057 850.297 731.041C850.297 731.041 319.802 70.103 850.297 -551.448C850.297 -551.448 197.346 -14.4637 -416.694 -551.448Z" stroke="black" stroke-opacity="0.05" stroke-miterlimit="10"/>
<path d="M-409.187 -543.817C-409.187 -543.817 115.02 109.288 -409.187 723.473C-409.187 723.473 236.025 192.853 842.788 723.473C842.788 723.473 318.581 70.368 842.788 -543.817C842.788 -543.817 197.576 -13.1974 -409.187 -543.817Z" stroke="black" stroke-opacity="0.05" stroke-miterlimit="10"/>
<path d="M-401.678 -536.186C-401.678 -536.186 116.242 109.085 -401.678 715.904C-401.678 715.904 235.795 191.649 835.282 715.904C835.282 715.904 317.362 70.6331 835.282 -536.186C835.282 -536.186 197.808 -11.931 -401.678 -536.186Z" stroke="black" stroke-opacity="0.05" stroke-miterlimit="10"/>
<path d="M-394.172 -528.556C-394.172 -528.556 117.46 108.882 -394.172 708.336C-394.172 708.336 235.562 190.445 827.772 708.336C827.772 708.336 316.139 70.8981 827.772 -528.556C827.772 -528.556 198.037 -10.6647 -394.172 -528.556Z" stroke="black" stroke-opacity="0.05" stroke-miterlimit="10"/>
<path d="M-386.662 -520.925C-386.662 -520.925 118.683 108.679 -386.662 700.767C-386.662 700.767 235.333 189.24 820.266 700.767C820.266 700.767 314.921 71.1631 820.266 -520.925C820.266 -520.925 198.271 -9.39843 -386.662 -520.925Z" stroke="black" stroke-opacity="0.05" stroke-miterlimit="10"/>
<path d="M-379.156 -513.291C-379.156 -513.291 119.901 108.479 -379.156 693.202C-379.156 693.202 235.1 188.04 812.756 693.202C812.756 693.202 313.699 71.4314 812.756 -513.291C812.756 -513.291 198.5 -8.12881 -379.156 -513.291Z" stroke="black" stroke-opacity="0.05" stroke-miterlimit="10"/>
<path d="M-371.647 -505.66C-371.647 -505.66 121.123 108.28 -371.647 685.633C-371.647 685.633 234.874 186.835 805.25 685.633C805.25 685.633 312.48 71.6932 805.25 -505.66C805.25 -505.66 198.73 -6.86247 -371.647 -505.66Z" stroke="black" stroke-opacity="0.05" stroke-miterlimit="10"/>
<path d="M-364.141 -498.029C-364.141 -498.029 122.342 108.077 -364.141 678.064C-364.141 678.064 234.641 185.631 797.741 678.064C797.741 678.064 311.258 71.9582 797.741 -498.029C797.741 -498.029 198.959 -5.59616 -364.141 -498.029Z" stroke="black" stroke-opacity="0.05" stroke-miterlimit="10"/>
<path d="M-356.632 -490.399C-356.632 -490.399 123.567 107.874 -356.632 670.493C-356.632 670.493 234.411 184.42 790.231 670.493C790.231 670.493 310.033 72.22 790.231 -490.399C790.231 -490.399 199.188 -4.32656 -356.632 -490.399Z" stroke="black" stroke-opacity="0.05" stroke-miterlimit="10"/>
<path d="M-349.125 -482.768C-349.125 -482.768 124.786 107.671 -349.125 662.924C-349.125 662.924 234.179 183.216 782.722 662.924C782.722 662.924 308.811 72.485 782.722 -482.768C782.722 -482.768 199.418 -3.06021 -349.125 -482.768Z" stroke="black" stroke-opacity="0.05" stroke-miterlimit="10"/>
<path d="M-341.616 -475.137C-341.616 -475.137 126.007 107.468 -341.616 655.355C-341.616 655.355 233.949 182.012 775.215 655.355C775.215 655.355 307.592 72.7501 775.215 -475.137C775.215 -475.137 199.65 -1.79384 -341.616 -475.137Z" stroke="black" stroke-opacity="0.05" stroke-miterlimit="10"/>
<path d="M-334.11 -467.506C-334.11 -467.506 127.226 107.265 -334.11 647.787C-334.11 647.787 233.716 180.808 767.706 647.787C767.706 647.787 306.37 73.0152 767.706 -467.506C767.706 -467.506 199.88 -0.527495 -334.11 -467.506Z" stroke="black" stroke-opacity="0.05" stroke-miterlimit="10"/>
<path d="M-326.6 -459.872C-326.6 -459.872 128.448 107.066 -326.6 640.222C-326.6 640.222 233.487 179.607 760.2 640.222C760.2 640.222 305.152 73.2836 760.2 -459.872C760.2 -459.872 200.113 0.74223 -326.6 -459.872Z" stroke="black" stroke-opacity="0.05" stroke-miterlimit="10"/>
<path d="M-319.094 -452.241C-319.094 -452.241 129.667 106.866 -319.094 632.653C-319.094 632.653 233.257 178.403 752.69 632.653C752.69 632.653 303.929 73.5453 752.69 -452.241C752.69 -452.241 200.339 2.00852 -319.094 -452.241Z" stroke="black" stroke-opacity="0.05" stroke-miterlimit="10"/>
<path d="M-311.584 -444.611C-311.584 -444.611 130.889 106.663 -311.584 625.084C-311.584 625.084 233.028 177.199 745.184 625.084C745.184 625.084 302.711 73.8103 745.184 -444.611C745.184 -444.611 200.572 3.2748 -311.584 -444.611Z" stroke="black" stroke-opacity="0.05" stroke-miterlimit="10"/>
<path d="M-304.078 -436.98C-304.078 -436.98 132.108 106.46 -304.078 617.516C-304.078 617.516 232.795 175.995 737.674 617.516C737.674 617.516 301.489 74.0755 737.674 -436.98C737.674 -436.98 200.801 4.54125 -304.078 -436.98Z" stroke="black" stroke-opacity="0.05" stroke-miterlimit="10"/>
<path d="M-296.568 -429.349C-296.568 -429.349 133.33 106.257 -296.568 609.947C-296.568 609.947 232.566 174.79 730.169 609.947C730.169 609.947 300.271 74.3405 730.169 -429.349C730.169 -429.349 201.035 5.80753 -296.568 -429.349Z" stroke="black" stroke-opacity="0.05" stroke-miterlimit="10"/>
<path d="M-289.059 -421.718C-289.059 -421.718 134.551 106.055 -289.059 602.378C-289.059 602.378 232.336 173.586 722.662 602.378C722.662 602.378 299.051 74.6055 722.662 -421.718C722.662 -421.718 201.267 7.07386 -289.059 -421.718Z" stroke="black" stroke-opacity="0.05" stroke-miterlimit="10"/>
<path d="M-281.552 -414.088C-281.552 -414.088 135.771 105.852 -281.552 594.81C-281.552 594.81 232.104 172.382 715.153 594.81C715.153 594.81 297.83 74.8705 715.153 -414.088C715.153 -414.088 201.497 8.34015 -281.552 -414.088Z" stroke="black" stroke-opacity="0.05" stroke-miterlimit="10"/>
<path d="M-274.043 -406.454C-274.043 -406.454 136.995 105.652 -274.043 587.245C-274.043 587.245 231.874 171.178 707.647 587.245C707.647 587.245 296.608 75.1389 707.647 -406.454C707.647 -406.454 201.729 9.61314 -274.043 -406.454Z" stroke="black" stroke-opacity="0.05" stroke-miterlimit="10"/>
<path d="M-266.537 -398.823C-266.537 -398.823 138.214 105.452 -266.537 579.676C-266.537 579.676 231.644 169.974 700.137 579.676C700.137 579.676 295.386 75.4006 700.137 -398.823C700.137 -398.823 201.955 10.8794 -266.537 -398.823Z" stroke="black" stroke-opacity="0.05" stroke-miterlimit="10"/>
<path d="M-259.028 -391.192C-259.028 -391.192 139.436 105.25 -259.028 572.108C-259.028 572.108 231.415 168.77 692.631 572.108C692.631 572.108 294.167 75.6657 692.631 -391.192C692.631 -391.192 202.188 12.1458 -259.028 -391.192Z" stroke="black" stroke-opacity="0.05" stroke-miterlimit="10"/>
<path d="M-251.522 -383.561C-251.522 -383.561 140.655 105.047 -251.522 564.539C-251.522 564.539 231.182 167.565 685.121 564.539C685.121 564.539 292.945 75.9308 685.121 -383.561C685.121 -383.561 202.418 13.4122 -251.522 -383.561Z" stroke="black" stroke-opacity="0.05" stroke-miterlimit="10"/>
<path d="M-244.012 -375.931C-244.012 -375.931 141.877 104.844 -244.012 556.97C-244.012 556.97 230.953 166.361 677.615 556.97C677.615 556.97 291.727 76.1958 677.615 -375.931C677.615 -375.931 202.651 14.6784 -244.012 -375.931Z" stroke="black" stroke-opacity="0.05" stroke-miterlimit="10"/>
<path d="M-236.506 -368.3C-236.506 -368.3 143.095 104.641 -236.506 549.402C-236.506 549.402 230.72 165.157 670.106 549.402C670.106 549.402 290.504 76.4607 670.106 -368.3C670.106 -368.3 202.88 15.9447 -236.506 -368.3Z" stroke="black" stroke-opacity="0.05" stroke-miterlimit="10"/>
<path d="M-228.997 -360.669C-228.997 -360.669 144.317 104.438 -228.997 541.83C-228.997 541.83 230.49 163.95 662.596 541.83C662.596 541.83 289.282 76.7225 662.596 -360.669C662.596 -360.669 203.109 17.2111 -228.997 -360.669Z" stroke="black" stroke-opacity="0.05" stroke-miterlimit="10"/>
<path d="M-221.49 -353.035C-221.49 -353.035 145.536 104.238 -221.49 534.264C-221.49 534.264 230.258 162.749 655.087 534.264C655.087 534.264 288.061 76.9909 655.087 -353.035C655.087 -353.035 203.339 18.4807 -221.49 -353.035Z" stroke="black" stroke-opacity="0.05" stroke-miterlimit="10"/>
<path d="M-213.981 -345.404C-213.981 -345.404 146.758 104.039 -213.981 526.696C-213.981 526.696 230.031 161.544 647.58 526.696C647.58 526.696 286.841 77.2526 647.58 -345.404C647.58 -345.404 203.568 19.747 -213.981 -345.404Z" stroke="black" stroke-opacity="0.05" stroke-miterlimit="10"/>
<path d="M-206.475 -337.773C-206.475 -337.773 147.976 103.836 -206.475 519.127C-206.475 519.127 229.798 160.34 640.07 519.127C640.07 519.127 285.619 77.5178 640.07 -337.773C640.07 -337.773 203.798 21.0135 -206.475 -337.773Z" stroke="black" stroke-opacity="0.05" stroke-miterlimit="10"/>
<path d="M-198.965 -330.143C-198.965 -330.143 149.202 103.633 -198.965 511.559C-198.965 511.559 229.569 159.133 632.565 511.559C632.565 511.559 284.398 77.7828 632.565 -330.143C632.565 -330.143 204.031 22.283 -198.965 -330.143Z" stroke="black" stroke-opacity="0.05" stroke-miterlimit="10"/>
<path d="M-191.459 -322.512C-191.459 -322.512 150.42 103.43 -191.459 503.99C-191.459 503.99 229.336 157.929 625.055 503.99C625.055 503.99 283.176 78.0478 625.055 -322.512C625.055 -322.512 204.26 23.5493 -191.459 -322.512Z" stroke="black" stroke-opacity="0.05" stroke-miterlimit="10"/>
<path d="M-183.949 -314.881C-183.949 -314.881 151.642 103.227 -183.949 496.421C-183.949 496.421 229.107 156.724 617.549 496.421C617.549 496.421 281.957 78.3128 617.549 -314.881C617.549 -314.881 204.493 24.8156 -183.949 -314.881Z" stroke="black" stroke-opacity="0.05" stroke-miterlimit="10"/>
<path d="M-176.443 -307.25C-176.443 -307.25 152.861 103.025 -176.443 488.853C-176.443 488.853 228.874 155.52 610.039 488.853C610.039 488.853 280.735 78.5779 610.039 -307.25C610.039 -307.25 204.722 26.082 -176.443 -307.25Z" stroke="black" stroke-opacity="0.05" stroke-miterlimit="10"/>
<path d="M-168.933 -299.616C-168.933 -299.616 154.083 102.825 -168.933 481.287C-168.933 481.287 228.645 154.32 602.534 481.287C602.534 481.287 279.517 78.8463 602.534 -299.616C602.534 -299.616 204.956 27.3517 -168.933 -299.616Z" stroke="black" stroke-opacity="0.05" stroke-miterlimit="10"/>
<path d="M-161.424 -291.986C-161.424 -291.986 155.305 102.625 -161.424 473.719C-161.424 473.719 228.418 153.115 595.027 473.719C595.027 473.719 278.298 79.108 595.027 -291.986C595.027 -291.986 205.185 28.618 -161.424 -291.986Z" stroke="black" stroke-opacity="0.05" stroke-miterlimit="10"/>
<path d="M-153.918 -284.355C-153.918 -284.355 156.523 102.422 -153.918 466.15C-153.918 466.15 228.185 151.911 587.517 466.15C587.517 466.15 277.075 79.373 587.517 -284.355C587.517 -284.355 205.414 29.8843 -153.918 -284.355Z" stroke="black" stroke-opacity="0.05" stroke-miterlimit="10"/>
<path d="M-146.409 -276.724C-146.409 -276.724 157.746 102.22 -146.409 458.582C-146.409 458.582 227.956 150.707 580.011 458.582C580.011 458.582 275.857 79.6382 580.011 -276.724C580.011 -276.724 205.647 31.1507 -146.409 -276.724Z" stroke="black" stroke-opacity="0.05" stroke-miterlimit="10"/>
<path d="M-138.903 -269.093C-138.903 -269.093 158.964 102.017 -138.903 451.013C-138.903 451.013 227.723 149.503 572.501 451.013C572.501 451.013 274.635 79.9032 572.501 -269.093C572.501 -269.093 205.876 32.417 -138.903 -269.093Z" stroke="black" stroke-opacity="0.05" stroke-miterlimit="10"/>
<path d="M-131.393 -261.462C-131.393 -261.462 160.186 101.814 -131.393 443.444C-131.393 443.444 227.493 148.299 564.996 443.444C564.996 443.444 273.417 80.1682 564.996 -261.462C564.996 -261.462 206.109 33.6833 -131.393 -261.462Z" stroke="black" stroke-opacity="0.05" stroke-miterlimit="10"/>
<path d="M-123.887 -253.832C-123.887 -253.832 161.405 101.611 -123.887 435.876C-123.887 435.876 227.26 147.094 557.486 435.876C557.486 435.876 272.194 80.4332 557.486 -253.832C557.486 -253.832 206.339 34.9496 -123.887 -253.832Z" stroke="black" stroke-opacity="0.05" stroke-miterlimit="10"/>
<path d="M-116.378 -246.198C-116.378 -246.198 162.629 101.411 -116.378 428.311C-116.378 428.311 227.03 145.89 549.979 428.311C549.979 428.311 270.972 80.7017 549.979 -246.198C549.979 -246.198 206.571 36.2227 -116.378 -246.198Z" stroke="black" stroke-opacity="0.05" stroke-miterlimit="10"/>
<path d="M-108.871 -238.567C-108.871 -238.567 163.849 101.212 -108.871 420.742C-108.871 420.742 226.802 144.686 542.471 420.742C542.471 420.742 269.751 80.9634 542.471 -238.567C542.471 -238.567 206.798 37.489 -108.871 -238.567Z" stroke="black" stroke-opacity="0.05" stroke-miterlimit="10"/>
<path d="M-101.362 -230.936C-101.362 -230.936 165.07 101.009 -101.362 413.17C-101.362 413.17 226.572 143.479 534.961 413.17C534.961 413.17 268.528 81.2252 534.961 -230.936C534.961 -230.936 207.027 38.7553 -101.362 -230.936Z" stroke="black" stroke-opacity="0.05" stroke-miterlimit="10"/>
<path d="M-93.855 -223.305C-93.855 -223.305 166.29 100.806 -93.855 405.602C-93.855 405.602 226.34 142.275 527.452 405.602C527.452 405.602 267.307 81.4903 527.452 -223.305C527.452 -223.305 207.257 40.0217 -93.855 -223.305Z" stroke="black" stroke-opacity="0.05" stroke-miterlimit="10"/>
<path d="M-86.3462 -215.674C-86.3462 -215.674 167.511 100.603 -86.3462 398.033C-86.3462 398.033 226.109 141.07 519.945 398.033C519.945 398.033 266.088 81.7553 519.945 -215.674C519.945 -215.674 207.489 41.288 -86.3462 -215.674Z" stroke="black" stroke-opacity="0.05" stroke-miterlimit="10"/>
<path d="M-78.8401 -208.044C-78.8401 -208.044 168.73 100.4 -78.8401 390.464C-78.8401 390.464 225.876 139.866 512.435 390.464C512.435 390.464 264.866 82.0203 512.435 -208.044C512.435 -208.044 207.719 42.5543 -78.8401 -208.044Z" stroke="black" stroke-opacity="0.05" stroke-miterlimit="10"/>
<path d="M-71.3303 -200.413C-71.3303 -200.413 169.952 100.197 -71.3303 382.896C-71.3303 382.896 225.647 138.662 504.929 382.896C504.929 382.896 263.647 82.2854 504.929 -200.413C504.929 -200.413 207.952 43.8207 -71.3303 -200.413Z" stroke="black" stroke-opacity="0.05" stroke-miterlimit="10"/>
<path d="M-63.8243 -192.779C-63.8243 -192.779 171.17 99.9977 -63.8243 375.33C-63.8243 375.33 225.414 137.461 497.42 375.33C497.42 375.33 262.425 82.5536 497.42 -192.779C497.42 -192.779 208.181 45.0902 -63.8243 -192.779Z" stroke="black" stroke-opacity="0.05" stroke-miterlimit="10"/>
<path d="M-56.3144 -185.148C-56.3144 -185.148 172.393 99.7983 -56.3144 367.762C-56.3144 367.762 225.188 136.257 489.914 367.762C489.914 367.762 261.207 82.8155 489.914 -185.148C489.914 -185.148 208.411 46.3567 -56.3144 -185.148Z" stroke="black" stroke-opacity="0.05" stroke-miterlimit="10"/>
<path d="M-48.8084 -177.517C-48.8084 -177.517 173.611 99.5953 -48.8084 360.193C-48.8084 360.193 224.956 135.053 482.404 360.193C482.404 360.193 259.985 83.0805 482.404 -177.517C482.404 -177.517 208.64 47.623 -48.8084 -177.517Z" stroke="black" stroke-opacity="0.05" stroke-miterlimit="10"/>
<path d="M-41.2986 -169.887C-41.2986 -169.887 174.837 99.3924 -41.2986 352.625C-41.2986 352.625 224.726 133.845 474.898 352.625C474.898 352.625 258.763 83.3455 474.898 -169.887C474.898 -169.887 208.873 48.8925 -41.2986 -169.887Z" stroke="black" stroke-opacity="0.05" stroke-miterlimit="10"/>
<path d="M-33.7887 -162.256C-33.7887 -162.256 176.059 99.1896 -33.7887 345.056C-33.7887 345.056 224.497 132.641 467.393 345.056C467.393 345.056 257.545 83.6107 467.393 -162.256C467.393 -162.256 209.107 50.159 -33.7887 -162.256Z" stroke="black" stroke-opacity="0.05" stroke-miterlimit="10"/>
<path d="M-26.2827 -154.625C-26.2827 -154.625 177.278 98.9866 -26.2827 337.487C-26.2827 337.487 224.264 131.437 459.883 337.487C459.883 337.487 256.323 83.8755 459.883 -154.625C459.883 -154.625 209.336 51.4251 -26.2827 -154.625Z" stroke="black" stroke-opacity="0.05" stroke-miterlimit="10"/>
<path d="M-18.7738 -146.994C-18.7738 -146.994 178.499 98.7837 -18.7738 329.919C-18.7738 329.919 224.034 130.233 452.376 329.919C452.376 329.919 255.103 84.1406 452.376 -146.994C452.376 -146.994 209.568 52.6915 -18.7738 -146.994Z" stroke="black" stroke-opacity="0.05" stroke-miterlimit="10"/>
<path d="M-11.2678 -139.36C-11.2678 -139.36 179.717 98.5874 -11.2678 322.353C-11.2678 322.353 223.804 129.032 444.866 322.353C444.866 322.353 253.881 84.4057 444.866 -139.36C444.866 -139.36 209.794 53.9612 -11.2678 -139.36Z" stroke="black" stroke-opacity="0.05" stroke-miterlimit="10"/>
<path d="M-3.75793 -131.73C-3.75793 -131.73 180.94 98.3845 -3.75793 314.785C-3.75793 314.785 223.575 127.828 437.361 314.785C437.361 314.785 252.663 84.6707 437.361 -131.73C437.361 -131.73 210.027 55.2275 -3.75793 -131.73Z" stroke="black" stroke-opacity="0.05" stroke-miterlimit="10"/>
<path d="M3.74805 -124.099C3.74805 -124.099 182.158 98.1817 3.74805 307.216C3.74805 307.216 223.342 126.624 429.851 307.216C429.851 307.216 251.441 84.9358 429.851 -124.099C429.851 -124.099 210.257 56.4939 3.74805 -124.099Z" stroke="black" stroke-opacity="0.05" stroke-miterlimit="10"/>
<path d="M11.257 -116.468C11.257 -116.468 183.38 97.9788 11.257 299.648C11.257 299.648 223.112 125.419 422.344 299.648C422.344 299.648 250.221 85.2009 422.344 -116.468C422.344 -116.468 210.489 57.7602 11.257 -116.468Z" stroke="black" stroke-opacity="0.05" stroke-miterlimit="10"/>
<path d="M18.7639 -108.837C18.7639 -108.837 184.599 97.7759 18.7639 292.079C18.7639 292.079 222.88 124.215 414.835 292.079C414.835 292.079 249 85.4659 414.835 -108.837C414.835 -108.837 210.719 59.0265 18.7639 -108.837Z" stroke="black" stroke-opacity="0.05" stroke-miterlimit="10"/>
<path d="M26.2728 -101.207C26.2728 -101.207 185.821 97.573 26.2728 284.507C26.2728 284.507 222.65 123.008 407.325 284.507C407.325 284.507 247.778 85.7276 407.325 -101.207C407.325 -101.207 210.948 60.2928 26.2728 -101.207Z" stroke="black" stroke-opacity="0.05" stroke-miterlimit="10"/>
<path d="M33.7798 -93.5724C33.7798 -93.5724 187.04 97.3735 33.7798 276.942C33.7798 276.942 222.418 121.807 399.817 276.942C399.817 276.942 246.556 85.9961 399.817 -93.5724C399.817 -93.5724 211.178 61.5626 33.7798 -93.5724Z" stroke="black" stroke-opacity="0.05" stroke-miterlimit="10"/>
<path d="M41.2887 -85.9417C41.2887 -85.9417 188.265 97.1739 41.2887 269.373C41.2887 269.373 222.191 120.6 392.31 269.373C392.31 269.373 245.334 86.2578 392.31 -85.9417C392.31 -85.9417 211.407 62.8322 41.2887 -85.9417Z" stroke="black" stroke-opacity="0.05" stroke-miterlimit="10"/>
<path d="M48.7947 -78.3109C48.7947 -78.3109 189.483 96.971 48.7947 261.805C48.7947 261.805 221.958 119.395 384.8 261.805C384.8 261.805 244.112 86.5228 384.8 -78.3109C384.8 -78.3109 211.636 64.0985 48.7947 -78.3109Z" stroke="black" stroke-opacity="0.05" stroke-miterlimit="10"/>
<path d="M56.3046 -70.6802C56.3046 -70.6802 190.705 96.768 56.3046 254.236C56.3046 254.236 221.729 118.191 377.294 254.236C377.294 254.236 242.894 86.7878 377.294 -70.6802C377.294 -70.6802 211.87 65.3647 56.3046 -70.6802Z" stroke="black" stroke-opacity="0.05" stroke-miterlimit="10"/>
<path d="M63.8105 -63.0495C63.8105 -63.0495 191.924 96.5651 63.8105 246.667C63.8105 246.667 221.496 116.987 369.785 246.667C369.785 246.667 241.671 87.0528 369.785 -63.0495C369.785 -63.0495 212.099 66.631 63.8105 -63.0495Z" stroke="black" stroke-opacity="0.05" stroke-miterlimit="10"/>
<path d="M71.3204 -55.4186C71.3204 -55.4186 193.146 96.3623 71.3204 239.099C71.3204 239.099 221.267 115.783 362.279 239.099C362.279 239.099 240.453 87.3179 362.279 -55.4186C362.279 -55.4186 212.332 67.8974 71.3204 -55.4186Z" stroke="black" stroke-opacity="0.05" stroke-miterlimit="10"/>
<path d="M78.8264 -47.788C78.8264 -47.788 194.365 96.1593 78.8264 231.53C78.8264 231.53 221.034 114.578 354.769 231.53C354.769 231.53 239.231 87.5829 354.769 -47.788C354.769 -47.788 212.561 69.1636 78.8264 -47.788Z" stroke="black" stroke-opacity="0.05" stroke-miterlimit="10"/>
<path d="M86.3362 -40.1537C86.3362 -40.1537 195.587 95.96 86.3362 223.965C86.3362 223.965 220.805 113.378 347.263 223.965C347.263 223.965 238.012 87.8515 347.263 -40.1537C347.263 -40.1537 212.795 70.4335 86.3362 -40.1537Z" stroke="black" stroke-opacity="0.05" stroke-miterlimit="10"/>
<path d="M93.8422 -32.5231C93.8422 -32.5231 196.806 95.7601 93.8422 216.396C93.8422 216.396 220.575 112.173 339.754 216.396C339.754 216.396 236.79 88.113 339.754 -32.5231C339.754 -32.5231 213.021 71.6997 93.8422 -32.5231Z" stroke="black" stroke-opacity="0.05" stroke-miterlimit="10"/>
<path d="M101.352 -24.8923C101.352 -24.8923 198.028 95.5574 101.352 208.828C101.352 208.828 220.346 110.969 332.248 208.828C332.248 208.828 235.572 88.3782 332.248 -24.8923C332.248 -24.8923 213.254 72.9661 101.352 -24.8923Z" stroke="black" stroke-opacity="0.05" stroke-miterlimit="10"/>
<path d="M108.862 -17.2614C108.862 -17.2614 199.25 95.3546 108.862 201.259C108.862 201.259 220.117 109.765 324.742 201.259C324.742 201.259 234.354 88.6433 324.742 -17.2614C324.742 -17.2614 213.487 74.2325 108.862 -17.2614Z" stroke="black" stroke-opacity="0.05" stroke-miterlimit="10"/>
<path d="M116.367 -9.6308C116.367 -9.6308 200.471 95.1516 116.367 193.691C116.367 193.691 219.883 108.558 317.231 193.691C317.231 193.691 233.127 88.9082 317.231 -9.6308C317.231 -9.6308 213.715 75.502 116.367 -9.6308Z" stroke="black" stroke-opacity="0.05" stroke-miterlimit="10"/>
<path d="M123.877 -1.99994C123.877 -1.99994 201.693 94.9487 123.877 186.122C123.877 186.122 219.654 107.354 309.726 186.122C309.726 186.122 231.909 89.1733 309.726 -1.99994C309.726 -1.99994 213.948 76.7684 123.877 -1.99994Z" stroke="black" stroke-opacity="0.05" stroke-miterlimit="10"/>
<path d="M131.384 5.63092C131.384 5.63092 202.913 94.746 131.384 178.554C131.384 178.554 219.422 106.15 302.217 178.554C302.217 178.554 230.688 89.4385 302.217 5.63092C302.217 5.63092 214.179 78.0349 131.384 5.63092Z" stroke="black" stroke-opacity="0.05" stroke-miterlimit="10"/>
<path d="M138.893 13.2648C138.893 13.2648 204.134 94.5462 138.893 170.988C138.893 170.988 219.192 104.949 294.71 170.988C294.71 170.988 229.469 89.7067 294.71 13.2648C294.71 13.2648 214.411 79.3043 138.893 13.2648Z" stroke="black" stroke-opacity="0.05" stroke-miterlimit="10"/>
<path d="M146.399 20.8954C146.399 20.8954 205.353 94.3465 146.399 163.419C146.399 163.419 218.962 103.744 287.2 163.419C287.2 163.419 228.246 89.9683 287.2 20.8954C287.2 20.8954 214.637 80.5705 146.399 20.8954Z" stroke="black" stroke-opacity="0.05" stroke-miterlimit="10"/>
<path d="M153.909 28.5263C153.909 28.5263 206.575 94.1437 153.909 155.848C153.909 155.848 218.733 102.537 279.691 155.848C279.691 155.848 227.025 90.2302 279.691 28.5263C279.691 28.5263 214.867 81.837 153.909 28.5263Z" stroke="black" stroke-opacity="0.05" stroke-miterlimit="10"/>
<path d="M161.415 36.1572C161.415 36.1572 207.794 93.9409 161.415 148.279C161.415 148.279 218.5 101.333 272.182 148.279C272.182 148.279 225.803 90.4953 272.182 36.1572C272.182 36.1572 215.096 83.1034 161.415 36.1572Z" stroke="black" stroke-opacity="0.05" stroke-miterlimit="10"/>
<path d="M168.924 43.788C168.924 43.788 209.015 93.7381 168.924 140.711C168.924 140.711 218.27 100.129 264.675 140.711C264.675 140.711 224.583 90.7604 264.675 43.788C264.675 43.788 215.328 84.3698 168.924 43.788Z" stroke="black" stroke-opacity="0.05" stroke-miterlimit="10"/>
<path d="M176.43 51.4186C176.43 51.4186 210.234 93.5351 176.43 133.142C176.43 133.142 218.038 98.9244 257.166 133.142C257.166 133.142 223.362 91.0253 257.166 51.4186C257.166 51.4186 215.559 85.636 176.43 51.4186Z" stroke="black" stroke-opacity="0.05" stroke-miterlimit="10"/>
<path d="M183.939 59.0492C183.939 59.0492 211.456 93.332 183.939 125.573C183.939 125.573 217.808 97.72 249.659 125.573C249.659 125.573 222.143 91.2902 249.659 59.0492C249.659 59.0492 215.791 86.9022 183.939 59.0492Z" stroke="black" stroke-opacity="0.05" stroke-miterlimit="10"/>
<path d="M191.446 66.6835C191.446 66.6835 212.675 93.1328 191.446 118.008C191.446 118.008 217.576 96.5195 242.151 118.008C242.151 118.008 220.922 91.5588 242.151 66.6835C242.151 66.6835 216.021 88.1721 191.446 66.6835Z" stroke="black" stroke-opacity="0.05" stroke-miterlimit="10"/>
<path d="M198.955 74.3143C198.955 74.3143 213.9 92.9331 198.955 110.439C198.955 110.439 217.349 95.3119 234.644 110.439C234.644 110.439 219.699 91.8205 234.644 74.3143C234.644 74.3143 216.25 89.4416 198.955 74.3143Z" stroke="black" stroke-opacity="0.05" stroke-miterlimit="10"/>
<path d="M206.462 81.9451C206.462 81.9451 215.119 92.7303 206.462 102.871C206.462 102.871 217.117 94.1079 227.135 102.871C227.135 102.871 218.478 92.0857 227.135 81.9451C227.135 81.9451 216.48 90.7081 206.462 81.9451Z" stroke="black" stroke-opacity="0.05" stroke-miterlimit="10"/>
<path d="M213.971 89.5759C213.971 89.5759 216.341 92.5274 213.971 95.3022C213.971 95.3022 216.887 92.9037 219.628 95.3022C219.628 95.3022 217.259 92.3507 219.628 89.5759C219.628 89.5759 216.712 91.9744 213.971 89.5759Z" stroke="black" stroke-opacity="0.05" stroke-miterlimit="10"/>
</g>
<path d="M238.106 230.441C327.57 230.441 400.094 157.029 400.094 66.4707C400.094 -24.0874 327.57 -97.4992 238.106 -97.4992C148.642 -97.4992 76.1176 -24.0874 76.1176 66.4707C76.1176 157.029 148.642 230.441 238.106 230.441Z" fill="#E1EEF7"/>
<path d="M238.106 -97.2492C327.429 -97.2492 399.844 -23.9523 399.844 66.4705C399.844 156.893 327.429 230.19 238.106 230.19C148.783 230.19 76.3676 156.893 76.3676 66.4705C76.3677 -23.9522 148.783 -97.2491 238.106 -97.2492Z" stroke="white" stroke-opacity="0.5" stroke-width="0.5"/>
<mask id="mask1_23225_145471" style="mask-type:luminance" maskUnits="userSpaceOnUse" x="76" y="-98" width="325" height="329">
<path d="M238.106 230.441C327.57 230.441 400.094 157.029 400.094 66.4707C400.094 -24.0874 327.57 -97.4992 238.106 -97.4992C148.642 -97.4992 76.1176 -24.0874 76.1176 66.4707C76.1176 157.029 148.642 230.441 238.106 230.441Z" fill="white"/>
</mask>
<g mask="url(#mask1_23225_145471)">
<path d="M-106.432 -337.986C-106.432 -337.986 182.086 21.4748 -106.432 359.516C-106.432 359.516 248.686 67.4689 582.642 359.516C582.642 359.516 294.124 0.0549644 582.642 -337.986C582.642 -337.986 227.525 -45.939 -106.432 -337.986Z" stroke="black" stroke-opacity="0.05" stroke-miterlimit="10"/>
<path d="M-102.659 -334.154C-102.659 -334.154 182.701 21.3733 -102.659 355.713C-102.659 355.713 248.573 66.8634 578.873 355.713C578.873 355.713 293.513 0.185793 578.873 -334.154C578.873 -334.154 227.641 -45.3043 -102.659 -334.154Z" stroke="black" stroke-opacity="0.05" stroke-miterlimit="10"/>
<path d="M-98.8896 -330.323C-98.8896 -330.323 183.312 21.2719 -98.8896 351.911C-98.8896 351.911 248.456 66.2581 575.1 351.911C575.1 351.911 292.899 0.316693 575.1 -330.323C575.1 -330.323 227.754 -44.6695 -98.8896 -330.323Z" stroke="black" stroke-opacity="0.05" stroke-width="0.99" stroke-miterlimit="10"/>
<path d="M-95.1167 -326.491C-95.1167 -326.491 183.929 21.1671 -95.1167 348.109C-95.1167 348.109 248.34 65.6494 571.331 348.109C571.331 348.109 292.285 0.450869 571.331 -326.491C571.331 -326.491 227.874 -44.0314 -95.1167 -326.491Z" stroke="black" stroke-opacity="0.05" stroke-width="0.99" stroke-miterlimit="10"/>
<path d="M-91.3477 -322.659C-91.3477 -322.659 184.54 21.0658 -91.3477 344.31C-91.3477 344.31 248.223 65.0474 567.561 344.31C567.561 344.31 291.673 0.585086 567.561 -322.659C567.561 -322.659 227.99 -43.3965 -91.3477 -322.659Z" stroke="black" stroke-opacity="0.05" stroke-width="0.98" stroke-miterlimit="10"/>
<path d="M-87.5787 -318.824C-87.5787 -318.824 185.151 20.9676 -87.5787 340.511C-87.5787 340.511 248.107 64.4453 563.789 340.511C563.789 340.511 291.059 0.71919 563.789 -318.824C563.789 -318.824 228.103 -42.7585 -87.5787 -318.824Z" stroke="black" stroke-opacity="0.05" stroke-width="0.98" stroke-miterlimit="10"/>
<path d="M-83.8058 -314.992C-83.8058 -314.992 185.765 20.8661 -83.8058 336.709C-83.8058 336.709 247.994 63.8399 560.02 336.709C560.02 336.709 290.448 0.85009 560.02 -314.992C560.02 -314.992 228.22 -42.1237 -83.8058 -314.992Z" stroke="black" stroke-opacity="0.05" stroke-width="0.98" stroke-miterlimit="10"/>
<path d="M-80.0368 -311.161C-80.0368 -311.161 186.379 20.7647 -80.0368 332.906C-80.0368 332.906 247.877 63.2313 556.247 332.906C556.247 332.906 289.831 0.98093 556.247 -311.161C556.247 -311.161 228.333 -41.4857 -80.0368 -311.161Z" stroke="black" stroke-opacity="0.05" stroke-width="0.97" stroke-miterlimit="10"/>
<path d="M-76.2678 -307.329C-76.2678 -307.329 186.99 20.6599 -76.2678 329.107C-76.2678 329.107 247.758 62.6291 552.477 329.107C552.477 329.107 289.22 1.11835 552.477 -307.329C552.477 -307.329 228.452 -40.8509 -76.2678 -307.329Z" stroke="black" stroke-opacity="0.05" stroke-width="0.97" stroke-miterlimit="10"/>
<path d="M-72.4949 -303.494C-72.4949 -303.494 187.605 20.5619 -72.4949 325.308C-72.4949 325.308 247.645 62.0272 548.708 325.308C548.708 325.308 288.609 1.25261 548.708 -303.494C548.708 -303.494 228.569 -40.2127 -72.4949 -303.494Z" stroke="black" stroke-opacity="0.05" stroke-width="0.97" stroke-miterlimit="10"/>
<path d="M-68.7259 -299.662C-68.7259 -299.662 188.219 20.4603 -68.7259 321.506C-68.7259 321.506 247.528 61.4185 544.936 321.506C544.936 321.506 287.991 1.38345 544.936 -299.662C544.936 -299.662 228.682 -39.5747 -68.7259 -299.662Z" stroke="black" stroke-opacity="0.05" stroke-width="0.96" stroke-miterlimit="10"/>
<path d="M-64.953 -295.83C-64.953 -295.83 188.833 20.3589 -64.953 317.704C-64.953 317.704 247.415 60.8131 541.167 317.704C541.167 317.704 287.381 1.51432 541.167 -295.83C541.167 -295.83 228.798 -38.9399 -64.953 -295.83Z" stroke="black" stroke-opacity="0.05" stroke-width="0.96" stroke-miterlimit="10"/>
<path d="M-61.184 -291.999C-61.184 -291.999 189.444 20.2574 -61.184 313.905C-61.184 313.905 247.299 60.211 537.397 313.905C537.397 313.905 286.769 1.64847 537.397 -291.999C537.397 -291.999 228.915 -38.3051 -61.184 -291.999Z" stroke="black" stroke-opacity="0.05" stroke-width="0.95" stroke-miterlimit="10"/>
<path d="M-57.415 -288.167C-57.415 -288.167 190.055 20.1528 -57.415 310.102C-57.415 310.102 247.179 59.6057 533.625 310.102C533.625 310.102 286.155 1.78265 533.625 -288.167C533.625 -288.167 229.031 -37.6702 -57.415 -288.167Z" stroke="black" stroke-opacity="0.05" stroke-width="0.95" stroke-miterlimit="10"/>
<path d="M-53.6421 -284.332C-53.6421 -284.332 190.672 20.0547 -53.6421 306.303C-53.6421 306.303 247.066 59.0004 529.856 306.303C529.856 306.303 285.541 1.91684 529.856 -284.332C529.856 -284.332 229.147 -37.0289 -53.6421 -284.332Z" stroke="black" stroke-opacity="0.05" stroke-width="0.95" stroke-miterlimit="10"/>
<path d="M-49.8731 -280.5C-49.8731 -280.5 191.283 19.9532 -49.8731 302.501C-49.8731 302.501 246.949 58.395 526.083 302.501C526.083 302.501 284.927 2.04765 526.083 -280.5C526.083 -280.5 229.26 -36.3941 -49.8731 -280.5Z" stroke="black" stroke-opacity="0.05" stroke-width="0.94" stroke-miterlimit="10"/>
<path d="M-46.1031 -276.668C-46.1031 -276.668 191.895 19.8517 -46.1031 298.702C-46.1031 298.702 246.834 57.7929 522.314 298.702C522.314 298.702 284.316 2.18183 522.314 -276.668C522.314 -276.668 229.377 -35.7593 -46.1031 -276.668Z" stroke="black" stroke-opacity="0.05" stroke-width="0.94" stroke-miterlimit="10"/>
<path d="M-42.3312 -272.837C-42.3312 -272.837 192.508 19.7503 -42.3312 294.9C-42.3312 294.9 246.72 57.1875 518.544 294.9C518.544 294.9 283.705 2.31276 518.544 -272.837C518.544 -272.837 229.493 -35.1245 -42.3312 -272.837Z" stroke="black" stroke-opacity="0.05" stroke-width="0.93" stroke-miterlimit="10"/>
<path d="M-38.5612 -269.005C-38.5612 -269.005 193.123 19.6456 -38.5612 291.097C-38.5612 291.097 246.601 56.5789 514.773 291.097C514.773 291.097 283.088 2.44693 514.773 -269.005C514.773 -269.005 229.61 -34.4864 -38.5612 -269.005Z" stroke="black" stroke-opacity="0.05" stroke-width="0.93" stroke-miterlimit="10"/>
<path d="M-34.7892 -265.17C-34.7892 -265.17 193.737 19.5474 -34.7892 287.298C-34.7892 287.298 246.487 55.9768 511.003 287.298C511.003 287.298 282.477 2.58112 511.003 -265.17C511.003 -265.17 229.726 -33.8483 -34.7892 -265.17Z" stroke="black" stroke-opacity="0.05" stroke-width="0.93" stroke-miterlimit="10"/>
<path d="M-31.0203 -261.338C-31.0203 -261.338 194.348 19.446 -31.0203 283.499C-31.0203 283.499 246.371 55.3748 507.233 283.499C507.233 283.499 281.865 2.71525 507.233 -261.338C507.233 -261.338 229.842 -33.2135 -31.0203 -261.338Z" stroke="black" stroke-opacity="0.05" stroke-width="0.92" stroke-miterlimit="10"/>
<path d="M-27.2513 -257.506C-27.2513 -257.506 194.958 19.3445 -27.2513 279.697C-27.2513 279.697 246.254 54.7693 503.46 279.697C503.46 279.697 281.251 2.84605 503.46 -257.506C503.46 -257.506 229.955 -32.5788 -27.2513 -257.506Z" stroke="black" stroke-opacity="0.05" stroke-width="0.92" stroke-miterlimit="10"/>
<path d="M-23.4783 -253.675C-23.4783 -253.675 195.576 19.2432 -23.4783 275.895C-23.4783 275.895 246.141 54.1608 499.692 275.895C499.692 275.895 280.637 2.97707 499.692 -253.675C499.692 -253.675 230.072 -31.9406 -23.4783 -253.675Z" stroke="black" stroke-opacity="0.05" stroke-width="0.92" stroke-miterlimit="10"/>
<path d="M-19.7084 -249.843C-19.7084 -249.843 196.188 19.1383 -19.7084 272.092C-19.7084 272.092 246.022 53.5553 495.92 272.092C495.92 272.092 280.024 3.11111 495.92 -249.843C495.92 -249.843 230.189 -31.3059 -19.7084 -249.843Z" stroke="black" stroke-opacity="0.05" stroke-width="0.91" stroke-miterlimit="10"/>
<path d="M-15.9365 -246.008C-15.9365 -246.008 196.801 19.0403 -15.9365 268.297C-15.9365 268.297 245.909 52.9566 492.153 268.297C492.153 268.297 279.415 3.24861 492.153 -246.008C492.153 -246.008 230.308 -30.6677 -15.9365 -246.008Z" stroke="black" stroke-opacity="0.05" stroke-width="0.91" stroke-miterlimit="10"/>
<path d="M-12.1674 -242.176C-12.1674 -242.176 197.415 18.9388 -12.1674 264.494C-12.1674 264.494 245.792 52.348 488.38 264.494C488.38 264.494 278.797 3.37954 488.38 -242.176C488.38 -242.176 230.421 -30.0296 -12.1674 -242.176Z" stroke="black" stroke-opacity="0.05" stroke-width="0.9" stroke-miterlimit="10"/>
<path d="M-8.39746 -238.344C-8.39746 -238.344 198.027 18.8373 -8.39746 260.692C-8.39746 260.692 245.676 51.7426 484.608 260.692C484.608 260.692 278.184 3.51033 484.608 -238.344C484.608 -238.344 230.535 -29.3949 -8.39746 -238.344Z" stroke="black" stroke-opacity="0.05" stroke-width="0.9" stroke-miterlimit="10"/>
<path d="M-4.62457 -234.513C-4.62457 -234.513 198.642 18.7359 -4.62457 256.89C-4.62457 256.89 245.564 51.1373 480.84 256.89C480.84 256.89 277.573 3.64128 480.84 -234.513C480.84 -234.513 230.651 -28.76 -4.62457 -234.513Z" stroke="black" stroke-opacity="0.05" stroke-width="0.9" stroke-miterlimit="10"/>
<path d="M-0.85553 -230.681C-0.85553 -230.681 199.252 18.6312 -0.85553 253.091C-0.85553 253.091 245.444 50.5352 477.07 253.091C477.07 253.091 276.962 3.77872 477.07 -230.681C477.07 -230.681 230.771 -28.1252 -0.85553 -230.681Z" stroke="black" stroke-opacity="0.05" stroke-width="0.89" stroke-miterlimit="10"/>
<path d="M2.91345 -226.846C2.91345 -226.846 199.866 18.533 2.91345 249.292C2.91345 249.292 245.327 49.9297 473.297 249.292C473.297 249.292 276.344 3.91281 473.297 -226.846C473.297 -226.846 230.884 -27.4839 2.91345 -226.846Z" stroke="black" stroke-opacity="0.05" stroke-width="0.89" stroke-miterlimit="10"/>
<path d="M6.68634 -223.014C6.68634 -223.014 200.481 18.4317 6.68634 245.49C6.68634 245.49 245.214 49.3245 469.528 245.49C469.528 245.49 275.734 4.04378 469.528 -223.014C469.528 -223.014 231 -26.8491 6.68634 -223.014Z" stroke="black" stroke-opacity="0.05" stroke-width="0.89" stroke-miterlimit="10"/>
<path d="M10.4554 -219.182C10.4554 -219.182 201.092 18.3301 10.4554 241.687C10.4554 241.687 245.098 48.719 465.756 241.687C465.756 241.687 275.119 4.17461 465.756 -219.182C465.756 -219.182 231.113 -26.2143 10.4554 -219.182Z" stroke="black" stroke-opacity="0.05" stroke-width="0.88" stroke-miterlimit="10"/>
<path d="M14.2283 -215.351C14.2283 -215.351 201.706 18.2287 14.2283 237.888C14.2283 237.888 244.985 48.117 461.99 237.888C461.99 237.888 274.512 4.30879 461.99 -215.351C461.99 -215.351 231.233 -25.5795 14.2283 -215.351Z" stroke="black" stroke-opacity="0.05" stroke-width="0.88" stroke-miterlimit="10"/>
<path d="M17.9973 -211.519C17.9973 -211.519 202.32 18.124 17.9973 234.086C17.9973 234.086 244.865 47.5084 458.217 234.086C458.217 234.086 273.894 4.44294 458.217 -211.519C458.217 -211.519 231.349 -24.9414 17.9973 -211.519Z" stroke="black" stroke-opacity="0.05" stroke-width="0.87" stroke-miterlimit="10"/>
<path d="M21.7663 -207.684C21.7663 -207.684 202.931 18.0258 21.7663 230.287C21.7663 230.287 244.749 46.9062 454.444 230.287C454.444 230.287 273.28 4.57703 454.444 -207.684C454.444 -207.684 231.462 -24.3034 21.7663 -207.684Z" stroke="black" stroke-opacity="0.05" stroke-width="0.87" stroke-miterlimit="10"/>
<path d="M25.5392 -203.852C25.5392 -203.852 203.545 17.9245 25.5392 226.485C25.5392 226.485 244.636 46.301 450.675 226.485C450.675 226.485 272.669 4.70804 450.675 -203.852C450.675 -203.852 231.579 -23.6685 25.5392 -203.852Z" stroke="black" stroke-opacity="0.05" stroke-width="0.87" stroke-miterlimit="10"/>
<path d="M29.3082 -200.02C29.3082 -200.02 204.156 17.8229 29.3082 222.685C29.3082 222.685 244.519 45.6988 446.906 222.685C446.906 222.685 272.058 4.84216 446.906 -200.02C446.906 -200.02 231.695 -23.0337 29.3082 -200.02Z" stroke="black" stroke-opacity="0.05" stroke-width="0.86" stroke-miterlimit="10"/>
<path d="M33.0772 -196.189C33.0772 -196.189 204.77 17.7215 33.0772 218.883C33.0772 218.883 244.402 45.0902 443.133 218.883C443.133 218.883 271.44 4.97301 443.133 -196.189C443.133 -196.189 231.808 -22.3957 33.0772 -196.189Z" stroke="black" stroke-opacity="0.05" stroke-width="0.86" stroke-miterlimit="10"/>
<path d="M36.8501 -192.354C36.8501 -192.354 205.385 17.6201 36.8501 215.084C36.8501 215.084 244.286 44.4881 439.364 215.084C439.364 215.084 270.83 5.11049 439.364 -192.354C439.364 -192.354 231.928 -21.7575 36.8501 -192.354Z" stroke="black" stroke-opacity="0.05" stroke-width="0.85" stroke-miterlimit="10"/>
<path d="M40.6191 -188.522C40.6191 -188.522 205.995 17.5187 40.6191 211.282C40.6191 211.282 244.17 43.8828 435.591 211.282C435.591 211.282 270.215 5.24136 435.591 -188.522C435.591 -188.522 232.041 -21.1228 40.6191 -188.522Z" stroke="black" stroke-opacity="0.05" stroke-width="0.85" stroke-miterlimit="10"/>
<path d="M44.392 -184.69C44.392 -184.69 206.61 17.4172 44.392 207.48C44.392 207.48 244.057 43.2774 431.823 207.48C431.823 207.48 269.605 5.37221 431.823 -184.69C431.823 -184.69 232.158 -20.488 44.392 -184.69Z" stroke="black" stroke-opacity="0.05" stroke-width="0.85" stroke-miterlimit="10"/>
<path d="M48.161 -180.858C48.161 -180.858 207.224 17.3159 48.161 203.681C48.161 203.681 243.94 42.6721 428.053 203.681C428.053 203.681 268.99 5.50646 428.053 -180.858C428.053 -180.858 232.274 -19.8498 48.161 -180.858Z" stroke="black" stroke-opacity="0.05" stroke-width="0.84" stroke-miterlimit="10"/>
<path d="M51.93 -177.027C51.93 -177.027 207.835 17.2143 51.93 199.878C51.93 199.878 243.824 42.0667 424.28 199.878C424.28 199.878 268.376 5.63729 424.28 -177.027C424.28 -177.027 232.387 -19.2151 51.93 -177.027Z" stroke="black" stroke-opacity="0.05" stroke-width="0.84" stroke-miterlimit="10"/>
<path d="M55.7029 -173.192C55.7029 -173.192 208.449 17.1129 55.7029 196.079C55.7029 196.079 243.708 41.4646 420.511 196.079C420.511 196.079 267.765 5.77468 420.511 -173.192C420.511 -173.192 232.507 -18.577 55.7029 -173.192Z" stroke="black" stroke-opacity="0.05" stroke-width="0.84" stroke-miterlimit="10"/>
<path d="M59.4719 -169.36C59.4719 -169.36 209.063 17.0114 59.4719 192.277C59.4719 192.277 243.591 40.8559 416.739 192.277C416.739 192.277 267.147 5.90554 416.739 -169.36C416.739 -169.36 232.619 -17.939 59.4719 -169.36Z" stroke="black" stroke-opacity="0.05" stroke-width="0.83" stroke-miterlimit="10"/>
<path d="M63.2409 -165.528C63.2409 -165.528 209.674 16.9101 63.2409 188.478C63.2409 188.478 243.474 40.2539 412.969 188.478C412.969 188.478 266.536 6.03987 412.969 -165.528C412.969 -165.528 232.736 -17.304 63.2409 -165.528Z" stroke="black" stroke-opacity="0.05" stroke-width="0.83" stroke-miterlimit="10"/>
<path d="M67.0138 -161.696C67.0138 -161.696 210.288 16.8086 67.0138 184.676C67.0138 184.676 243.362 39.6486 409.2 184.676C409.2 184.676 265.926 6.17072 409.2 -161.696C409.2 -161.696 232.852 -16.6692 67.0138 -161.696Z" stroke="black" stroke-opacity="0.05" stroke-width="0.82" stroke-miterlimit="10"/>
<path d="M70.7828 -157.865C70.7828 -157.865 210.899 16.7071 70.7828 180.873C70.7828 180.873 243.245 39.0431 405.427 180.873C405.427 180.873 265.311 6.30153 405.427 -157.865C405.427 -157.865 232.965 -16.0345 70.7828 -157.865Z" stroke="black" stroke-opacity="0.05" stroke-width="0.82" stroke-miterlimit="10"/>
<path d="M74.5557 -154.03C74.5557 -154.03 211.517 16.6056 74.5557 177.074C74.5557 177.074 243.129 38.4378 401.658 177.074C401.658 177.074 264.697 6.43891 401.658 -154.03C401.658 -154.03 233.085 -15.3932 74.5557 -154.03Z" stroke="black" stroke-opacity="0.05" stroke-width="0.82" stroke-miterlimit="10"/>
<path d="M78.3247 -150.198C78.3247 -150.198 212.128 16.5043 78.3247 173.275C78.3247 173.275 243.012 37.8357 397.889 173.275C397.889 173.275 264.086 6.57318 397.889 -150.198C397.889 -150.198 233.201 -14.7583 78.3247 -150.198Z" stroke="black" stroke-opacity="0.05" stroke-width="0.81" stroke-miterlimit="10"/>
<path d="M82.0938 -146.366C82.0938 -146.366 212.738 16.403 82.0938 169.473C82.0938 169.473 242.896 37.2305 394.116 169.473C394.116 169.473 263.472 6.70413 394.116 -146.366C394.116 -146.366 233.314 -14.1234 82.0938 -146.366Z" stroke="black" stroke-opacity="0.05" stroke-width="0.81" stroke-miterlimit="10"/>
<path d="M85.8666 -142.534C85.8666 -142.534 213.353 16.3014 85.8666 165.671C85.8666 165.671 242.783 36.625 390.347 165.671C390.347 165.671 262.861 6.83492 390.347 -142.534C390.347 -142.534 233.431 -13.4887 85.8666 -142.534Z" stroke="black" stroke-opacity="0.05" stroke-width="0.8" stroke-miterlimit="10"/>
<path d="M89.6357 -138.703C89.6357 -138.703 213.967 16.2 89.6357 161.868C89.6357 161.868 242.666 36.0164 386.575 161.868C386.575 161.868 262.243 6.9658 386.575 -138.703C386.575 -138.703 233.544 -12.8506 89.6357 -138.703Z" stroke="black" stroke-opacity="0.05" stroke-width="0.8" stroke-miterlimit="10"/>
<path d="M93.4056 -134.868C93.4056 -134.868 214.579 16.0986 93.4056 158.073C93.4056 158.073 242.547 35.4176 382.806 158.073C382.806 158.073 261.633 7.10657 382.806 -134.868C382.806 -134.868 233.664 -12.2125 93.4056 -134.868Z" stroke="black" stroke-opacity="0.05" stroke-width="0.8" stroke-miterlimit="10"/>
<path d="M97.1776 -131.036C97.1776 -131.036 215.192 15.9971 97.1776 154.27C97.1776 154.27 242.434 34.8122 379.036 154.27C379.036 154.27 261.022 7.23735 379.036 -131.036C379.036 -131.036 233.78 -11.5778 97.1776 -131.036Z" stroke="black" stroke-opacity="0.05" stroke-width="0.79" stroke-miterlimit="10"/>
<path d="M100.948 -127.204C100.948 -127.204 215.804 15.8957 100.948 150.468C100.948 150.468 242.318 34.2069 375.264 150.468C375.264 150.468 260.408 7.36836 375.264 -127.204C375.264 -127.204 233.894 -10.9429 100.948 -127.204Z" stroke="black" stroke-opacity="0.05" stroke-width="0.79" stroke-miterlimit="10"/>
<path d="M104.719 -123.372C104.719 -123.372 216.421 15.7942 104.719 146.666C104.719 146.666 242.204 33.5983 371.494 146.666C371.494 146.666 259.793 7.49917 371.494 -123.372C371.494 -123.372 234.01 -10.3049 104.719 -123.372Z" stroke="black" stroke-opacity="0.05" stroke-width="0.79" stroke-miterlimit="10"/>
<path d="M108.488 -119.541C108.488 -119.541 217.031 15.6927 108.488 142.867C108.488 142.867 242.088 32.9961 367.725 142.867C367.725 142.867 259.182 7.63324 367.725 -119.541C367.725 -119.541 234.126 -9.67015 108.488 -119.541Z" stroke="black" stroke-opacity="0.05" stroke-width="0.78" stroke-miterlimit="10"/>
<path d="M112.258 -115.706C112.258 -115.706 217.643 15.5913 112.258 139.068C112.258 139.068 241.969 32.3941 363.953 139.068C363.953 139.068 258.568 7.77081 363.953 -115.706C363.953 -115.706 234.243 -9.03194 112.258 -115.706Z" stroke="black" stroke-opacity="0.05" stroke-width="0.78" stroke-miterlimit="10"/>
<path d="M116.03 -111.874C116.03 -111.874 218.26 15.4898 116.03 135.265C116.03 135.265 241.855 31.7854 360.183 135.265C360.183 135.265 257.954 7.90161 360.183 -111.874C360.183 -111.874 234.359 -8.39394 116.03 -111.874Z" stroke="black" stroke-opacity="0.05" stroke-width="0.77" stroke-miterlimit="10"/>
<path d="M119.8 -108.042C119.8 -108.042 218.872 15.3885 119.8 131.463C119.8 131.463 241.739 31.1801 356.411 131.463C356.411 131.463 257.34 8.03261 356.411 -108.042C356.411 -108.042 234.472 -7.75903 119.8 -108.042Z" stroke="black" stroke-opacity="0.05" stroke-width="0.77" stroke-miterlimit="10"/>
<path d="M123.572 -104.21C123.572 -104.21 219.485 15.287 123.572 127.664C123.572 127.664 241.626 30.578 352.645 127.664C352.645 127.664 256.732 8.16668 352.645 -104.21C352.645 -104.21 234.591 -7.1243 123.572 -104.21Z" stroke="black" stroke-opacity="0.05" stroke-width="0.77" stroke-miterlimit="10"/>
<path d="M127.341 -100.375C127.341 -100.375 220.096 15.1887 127.341 123.865C127.341 123.865 241.509 29.9758 348.872 123.865C348.872 123.865 256.117 8.30078 348.872 -100.375C348.872 -100.375 234.704 -6.48628 127.341 -100.375Z" stroke="black" stroke-opacity="0.05" stroke-width="0.76" stroke-miterlimit="10"/>
<path d="M131.11 -96.5436C131.11 -96.5436 220.71 15.0842 131.11 120.063C131.11 120.063 241.389 29.3673 345.099 120.063C345.099 120.063 255.5 8.43505 345.099 -96.5436C345.099 -96.5436 234.82 -5.8481 131.11 -96.5436Z" stroke="black" stroke-opacity="0.05" stroke-width="0.76" stroke-miterlimit="10"/>
<path d="M134.883 -92.7119C134.883 -92.7119 221.324 14.9827 134.883 116.261C134.883 116.261 241.276 28.762 341.33 116.261C341.33 116.261 254.889 8.56598 341.33 -92.7119C341.33 -92.7119 234.937 -5.21325 134.883 -92.7119Z" stroke="black" stroke-opacity="0.05" stroke-width="0.76" stroke-miterlimit="10"/>
<path d="M138.652 -88.8802C138.652 -88.8802 221.935 14.8813 138.652 112.461C138.652 112.461 241.16 28.1598 337.561 112.461C337.561 112.461 254.278 8.70005 337.561 -88.8802C337.561 -88.8802 235.053 -4.57853 138.652 -88.8802Z" stroke="black" stroke-opacity="0.05" stroke-width="0.75" stroke-miterlimit="10"/>
<path d="M142.422 -85.0485C142.422 -85.0485 222.547 14.7798 142.422 108.659C142.422 108.659 241.044 27.5544 333.789 108.659C333.789 108.659 253.664 8.83093 333.789 -85.0485C333.789 -85.0485 235.167 -3.94374 142.422 -85.0485Z" stroke="black" stroke-opacity="0.05" stroke-width="0.75" stroke-miterlimit="10"/>
<path d="M146.194 -81.2135C146.194 -81.2135 223.164 14.6816 146.194 104.86C146.194 104.86 240.93 26.9491 330.019 104.86C330.019 104.86 253.05 8.96503 330.019 -81.2135C330.019 -81.2135 235.283 -3.30244 146.194 -81.2135Z" stroke="black" stroke-opacity="0.05" stroke-width="0.74" stroke-miterlimit="10"/>
<path d="M149.963 -77.3815C149.963 -77.3815 223.774 14.5771 149.963 101.058C149.963 101.058 240.81 26.3439 326.246 101.058C326.246 101.058 252.435 9.09942 326.246 -77.3815C326.246 -77.3815 235.399 -2.66741 149.963 -77.3815Z" stroke="black" stroke-opacity="0.05" stroke-width="0.74" stroke-miterlimit="10"/>
<path d="M153.736 -73.5499C153.736 -73.5499 224.389 14.4756 153.736 97.259C153.736 97.259 240.698 25.7418 322.481 97.259C322.481 97.259 251.828 9.2335 322.481 -73.5499C322.481 -73.5499 235.519 -2.03268 153.736 -73.5499Z" stroke="black" stroke-opacity="0.05" stroke-width="0.74" stroke-miterlimit="10"/>
<path d="M157.505 -69.7182C157.505 -69.7182 225 14.3741 157.505 93.4566C157.505 93.4566 240.581 25.1363 318.708 93.4566C318.708 93.4566 251.213 9.3643 318.708 -69.7182C318.708 -69.7182 235.632 -1.39796 157.505 -69.7182Z" stroke="black" stroke-opacity="0.05" stroke-width="0.73" stroke-miterlimit="10"/>
<path d="M161.275 -65.8865C161.275 -65.8865 225.615 14.2725 161.275 89.6541C161.275 89.6541 240.465 24.5275 314.936 89.6541C314.936 89.6541 250.597 9.49511 314.936 -65.8865C314.936 -65.8865 235.746 -0.759959 161.275 -65.8865Z" stroke="black" stroke-opacity="0.05" stroke-width="0.73" stroke-miterlimit="10"/>
<path d="M165.047 -62.0514C165.047 -62.0514 226.228 14.1745 165.047 85.8553C165.047 85.8553 240.352 23.9256 311.166 85.8553C311.166 85.8553 249.985 9.62939 311.166 -62.0514C311.166 -62.0514 235.861 -0.12176 165.047 -62.0514Z" stroke="black" stroke-opacity="0.05" stroke-width="0.72" stroke-miterlimit="10"/>
<path d="M168.816 -58.2197C168.816 -58.2197 226.839 14.0697 168.816 82.053C168.816 82.053 240.232 23.3202 307.393 82.053C307.393 82.053 249.37 9.76355 307.393 -58.2197C307.393 -58.2197 235.978 0.513042 168.816 -58.2197Z" stroke="black" stroke-opacity="0.05" stroke-width="0.72" stroke-miterlimit="10"/>
<path d="M172.586 -54.3879C172.586 -54.3879 227.451 13.9684 172.586 78.254C172.586 78.254 240.116 22.7182 303.625 78.254C303.625 78.254 248.76 9.89775 303.625 -54.3879C303.625 -54.3879 236.095 1.14788 172.586 -54.3879Z" stroke="black" stroke-opacity="0.05" stroke-width="0.72" stroke-miterlimit="10"/>
<path d="M176.358 -50.5561C176.358 -50.5561 228.067 13.8669 176.358 74.4517C176.358 74.4517 240.002 22.1096 299.855 74.4517C299.855 74.4517 248.145 10.0287 299.855 -50.5561C299.855 -50.5561 236.21 1.78601 176.358 -50.5561Z" stroke="black" stroke-opacity="0.05" stroke-width="0.71" stroke-miterlimit="10"/>
<path d="M180.128 -46.7245C180.128 -46.7245 228.679 13.7653 180.128 70.6493C180.128 70.6493 239.887 21.5041 296.083 70.6493C296.083 70.6493 247.532 10.1594 296.083 -46.7245C296.083 -46.7245 236.324 2.42061 180.128 -46.7245Z" stroke="black" stroke-opacity="0.05" stroke-width="0.71" stroke-miterlimit="10"/>
<path d="M183.9 -42.8894C183.9 -42.8894 229.293 13.6673 183.9 66.8503C183.9 66.8503 239.773 20.9021 292.313 66.8503C292.313 66.8503 246.92 10.2936 292.313 -42.8894C292.313 -42.8894 236.44 3.05881 183.9 -42.8894Z" stroke="black" stroke-opacity="0.05" stroke-width="0.71" stroke-miterlimit="10"/>
<path d="M187.669 -39.0576C187.669 -39.0576 229.907 13.5659 187.669 63.0514C187.669 63.0514 239.656 20.2968 288.544 63.0514C288.544 63.0514 246.306 10.4279 288.544 -39.0576C288.544 -39.0576 236.556 3.69699 187.669 -39.0576Z" stroke="black" stroke-opacity="0.05" stroke-width="0.7" stroke-miterlimit="10"/>
<path d="M191.439 -35.2259C191.439 -35.2259 230.518 13.4612 191.439 59.249C191.439 59.249 239.537 19.6914 284.772 59.249C284.772 59.249 245.692 10.562 284.772 -35.2259C284.772 -35.2259 236.673 4.33172 191.439 -35.2259Z" stroke="black" stroke-opacity="0.05" stroke-width="0.7" stroke-miterlimit="10"/>
<path d="M195.211 -31.3942C195.211 -31.3942 231.132 13.3596 195.211 55.4467C195.211 55.4467 239.424 19.086 281.002 55.4467C281.002 55.4467 245.081 10.6928 281.002 -31.3942C281.002 -31.3942 236.789 4.96645 195.211 -31.3942Z" stroke="black" stroke-opacity="0.05" stroke-width="0.69" stroke-miterlimit="10"/>
<path d="M198.981 -27.5624C198.981 -27.5624 231.744 13.2582 198.981 51.6444C198.981 51.6444 239.308 18.4806 277.23 51.6444C277.23 51.6444 244.467 10.8237 277.23 -27.5624C277.23 -27.5624 236.903 5.60129 198.981 -27.5624Z" stroke="black" stroke-opacity="0.05" stroke-width="0.69" stroke-miterlimit="10"/>
<path d="M202.75 -23.7275C202.75 -23.7275 232.358 13.16 202.75 47.8486C202.75 47.8486 239.191 17.8785 273.461 47.8486C273.461 47.8486 243.853 10.9611 273.461 -23.7275C273.461 -23.7275 237.019 6.24259 202.75 -23.7275Z" stroke="black" stroke-opacity="0.05" stroke-width="0.69" stroke-miterlimit="10"/>
<path d="M206.522 -19.8958C206.522 -19.8958 232.971 13.0586 206.522 44.0463C206.522 44.0463 239.078 17.2732 269.691 44.0463C269.691 44.0463 243.241 11.092 269.691 -19.8958C269.691 -19.8958 237.135 6.87738 206.522 -19.8958Z" stroke="black" stroke-opacity="0.05" stroke-width="0.68" stroke-miterlimit="10"/>
<path d="M210.292 -16.0639C210.292 -16.0639 233.583 12.9539 210.292 40.2441C210.292 40.2441 238.959 16.6679 265.919 40.2441C265.919 40.2441 242.628 11.2262 265.919 -16.0639C265.919 -16.0639 237.252 7.51229 210.292 -16.0639Z" stroke="black" stroke-opacity="0.05" stroke-width="0.68" stroke-miterlimit="10"/>
<path d="M214.063 -12.2322C214.063 -12.2322 234.196 12.8524 214.063 36.4417C214.063 36.4417 238.845 16.0625 262.149 36.4417C262.149 36.4417 242.016 11.357 262.149 -12.2322C262.149 -12.2322 237.368 8.14701 214.063 -12.2322Z" stroke="black" stroke-opacity="0.05" stroke-width="0.67" stroke-miterlimit="10"/>
<path d="M217.833 -8.40045C217.833 -8.40045 234.811 12.7511 217.833 32.6428C217.833 32.6428 238.729 15.4572 258.381 32.6428C258.381 32.6428 241.403 11.4912 258.381 -8.40045C258.381 -8.40045 237.485 8.78514 217.833 -8.40045Z" stroke="black" stroke-opacity="0.05" stroke-width="0.67" stroke-miterlimit="10"/>
<path d="M221.602 -4.56537C221.602 -4.56537 235.422 12.653 221.602 28.8438C221.602 28.8438 238.613 14.8552 254.608 28.8438C254.608 28.8438 240.788 11.6255 254.608 -4.56537C254.608 -4.56537 237.598 9.42328 221.602 -4.56537Z" stroke="black" stroke-opacity="0.05" stroke-width="0.67" stroke-miterlimit="10"/>
<path d="M225.374 -0.733643C225.374 -0.733643 236.036 12.5515 225.374 25.0415C225.374 25.0415 238.499 14.2498 250.838 25.0415C250.838 25.0415 240.177 11.7563 250.838 -0.733643C250.838 -0.733643 237.713 10.0581 225.374 -0.733643Z" stroke="black" stroke-opacity="0.05" stroke-width="0.66" stroke-miterlimit="10"/>
<path d="M229.144 3.09802C229.144 3.09802 236.647 12.4467 229.144 21.2391C229.144 21.2391 238.38 13.6443 247.066 21.2391C247.066 21.2391 239.563 11.8904 247.066 3.09802C247.066 3.09802 237.831 10.6928 229.144 3.09802Z" stroke="black" stroke-opacity="0.05" stroke-width="0.66" stroke-miterlimit="10"/>
<path d="M232.916 6.92987C232.916 6.92987 237.264 12.3454 232.916 17.4402C232.916 17.4402 238.266 13.0391 243.3 17.4402C243.3 17.4402 238.952 12.0247 243.3 6.92987C243.3 6.92987 237.95 11.331 232.916 6.92987Z" stroke="black" stroke-opacity="0.05" stroke-width="0.66" stroke-miterlimit="10"/>
<path d="M236.686 10.765C236.686 10.765 237.876 12.2472 236.686 13.6412C236.686 13.6412 238.151 12.437 239.528 13.6412C239.528 13.6412 238.338 12.1589 239.528 10.765C239.528 10.765 238.063 11.9691 236.686 10.765Z" stroke="black" stroke-opacity="0.05" stroke-width="0.65" stroke-miterlimit="10"/>
</g>
<path d="M238.106 96.7943C284.106 96.7943 321.396 59.0483 321.396 12.4861C321.396 -34.076 284.106 -71.8221 238.106 -71.8221C192.107 -71.8221 154.817 -34.076 154.817 12.4861C154.817 59.0483 192.107 96.7943 238.106 96.7943Z" fill="#D6EAF7"/>
<path d="M238.106 -71.5721C283.964 -71.5721 321.146 -33.9404 321.146 12.4865C321.146 58.9133 283.964 96.5441 238.106 96.5441C192.248 96.5439 155.067 58.9132 155.067 12.4865C155.067 -33.9403 192.248 -71.5719 238.106 -71.5721Z" stroke="white" stroke-opacity="0.5" stroke-width="0.5"/>
<mask id="mask2_23225_145471" style="mask-type:luminance" maskUnits="userSpaceOnUse" x="154" y="-72" width="168" height="169">
<path d="M238.107 96.7943C284.106 96.7943 321.396 59.0483 321.396 12.4861C321.396 -34.076 284.106 -71.8221 238.107 -71.8221C192.108 -71.8221 154.818 -34.076 154.818 12.4861C154.818 59.0483 192.108 96.7943 238.107 96.7943Z" fill="white"/>
</mask>
<g mask="url(#mask2_23225_145471)">
<path d="M60.9615 -195.472C60.9615 -195.472 209.308 -10.6484 60.9615 163.158C60.9615 163.158 243.552 12.9965 415.257 163.158C415.257 163.158 266.911 -21.6659 415.257 -195.472C415.257 -195.472 232.667 -45.3108 60.9615 -195.472Z" stroke="black" stroke-opacity="0.05" stroke-width="0.9" stroke-miterlimit="10"/>
<path d="M65.2644 -191.1C65.2644 -191.1 210.007 -10.7662 65.2644 158.819C65.2644 158.819 243.419 12.306 410.955 158.819C410.955 158.819 266.213 -21.5154 410.955 -191.1C410.955 -191.1 232.8 -44.5877 65.2644 -191.1Z" stroke="black" stroke-opacity="0.05" stroke-width="0.88" stroke-miterlimit="10"/>
<path d="M69.5663 -186.725C69.5663 -186.725 210.704 -10.8808 69.5663 154.483C69.5663 154.483 243.286 11.6189 406.652 154.483C406.652 154.483 265.514 -21.3616 406.652 -186.725C406.652 -186.725 232.932 -43.8613 69.5663 -186.725Z" stroke="black" stroke-opacity="0.05" stroke-width="0.87" stroke-miterlimit="10"/>
<path d="M73.8692 -182.354C73.8692 -182.354 211.406 -10.9985 73.8692 150.144C73.8692 150.144 243.154 10.9252 402.349 150.144C402.349 150.144 264.813 -21.211 402.349 -182.354C402.349 -182.354 233.065 -43.1348 73.8692 -182.354Z" stroke="black" stroke-opacity="0.05" stroke-width="0.86" stroke-miterlimit="10"/>
<path d="M78.172 -177.979C78.172 -177.979 212.104 -11.1132 78.172 145.808C78.172 145.808 243.021 10.2379 398.047 145.808C398.047 145.808 264.114 -21.0574 398.047 -177.979C398.047 -177.979 233.197 -42.4085 78.172 -177.979Z" stroke="black" stroke-opacity="0.05" stroke-width="0.84" stroke-miterlimit="10"/>
<path d="M82.4749 -173.607C82.4749 -173.607 212.803 -11.2309 82.4749 141.47C82.4749 141.47 242.889 9.54754 393.744 141.47C393.744 141.47 263.416 -20.9068 393.744 -173.607C393.744 -173.607 233.33 -41.6853 82.4749 -173.607Z" stroke="black" stroke-opacity="0.05" stroke-width="0.83" stroke-miterlimit="10"/>
<path d="M86.7778 -169.232C86.7778 -169.232 213.504 -11.3454 86.7778 137.134C86.7778 137.134 242.757 8.85716 389.442 137.134C389.442 137.134 262.715 -20.753 389.442 -169.232C389.442 -169.232 233.463 -40.9555 86.7778 -169.232Z" stroke="black" stroke-opacity="0.05" stroke-width="0.81" stroke-miterlimit="10"/>
<path d="M91.0806 -164.857C91.0806 -164.857 214.203 -11.4599 91.0806 132.795C91.0806 132.795 242.624 8.16671 385.136 132.795C385.136 132.795 262.014 -20.6025 385.136 -164.857C385.136 -164.857 233.592 -40.2291 91.0806 -164.857Z" stroke="black" stroke-opacity="0.05" stroke-width="0.8" stroke-miterlimit="10"/>
<path d="M95.3825 -160.486C95.3825 -160.486 214.904 -11.5778 95.3825 128.456C95.3825 128.456 242.491 7.47297 380.833 128.456C380.833 128.456 261.312 -20.452 380.833 -160.486C380.833 -160.486 233.724 -39.5027 95.3825 -160.486Z" stroke="black" stroke-opacity="0.05" stroke-width="0.79" stroke-miterlimit="10"/>
<path d="M99.6854 -156.111C99.6854 -156.111 215.602 -11.6923 99.6854 124.12C99.6854 124.12 242.359 6.78579 376.53 124.12C376.53 124.12 260.613 -20.2982 376.53 -156.111C376.53 -156.111 233.857 -38.7763 99.6854 -156.111Z" stroke="black" stroke-opacity="0.05" stroke-width="0.77" stroke-miterlimit="10"/>
<path d="M103.988 -151.739C103.988 -151.739 216.3 -11.8101 103.988 119.781C103.988 119.781 242.226 6.09536 372.228 119.781C372.228 119.781 259.915 -20.1477 372.228 -151.739C372.228 -151.739 233.99 -38.0531 103.988 -151.739Z" stroke="black" stroke-opacity="0.05" stroke-width="0.76" stroke-miterlimit="10"/>
<path d="M108.291 -147.364C108.291 -147.364 217.002 -11.9247 108.291 115.446C108.291 115.446 242.094 5.40487 367.925 115.446C367.925 115.446 259.214 -19.9939 367.925 -147.364C367.925 -147.364 234.122 -37.3235 108.291 -147.364Z" stroke="black" stroke-opacity="0.05" stroke-width="0.75" stroke-miterlimit="10"/>
<path d="M112.594 -142.992C112.594 -142.992 217.701 -12.0424 112.594 111.107C112.594 111.107 241.962 4.71454 363.623 111.107C363.623 111.107 258.516 -19.8433 363.623 -142.992C363.623 -142.992 234.255 -36.6002 112.594 -142.992Z" stroke="black" stroke-opacity="0.05" stroke-width="0.73" stroke-miterlimit="10"/>
<path d="M116.897 -138.618C116.897 -138.618 218.399 -12.1569 116.897 106.771C116.897 106.771 241.829 4.0274 359.32 106.771C359.32 106.771 257.818 -19.6895 359.32 -138.618C359.32 -138.618 234.388 -35.8738 116.897 -138.618Z" stroke="black" stroke-opacity="0.05" stroke-width="0.72" stroke-miterlimit="10"/>
<path d="M121.203 -134.243C121.203 -134.243 219.104 -12.2715 121.203 102.435C121.203 102.435 241.7 3.33685 355.021 102.435C355.021 102.435 257.12 -19.5358 355.021 -134.243C355.021 -134.243 234.523 -35.1442 121.203 -134.243Z" stroke="black" stroke-opacity="0.05" stroke-width="0.7" stroke-miterlimit="10"/>
<path d="M125.505 -129.871C125.505 -129.871 219.802 -12.3892 125.505 98.0933C125.505 98.0933 241.568 2.64324 350.715 98.0933C350.715 98.0933 256.418 -19.3884 350.715 -129.871C350.715 -129.871 234.653 -34.4209 125.505 -129.871Z" stroke="black" stroke-opacity="0.05" stroke-width="0.69" stroke-miterlimit="10"/>
<path d="M129.807 -125.496C129.807 -125.496 220.5 -12.5039 129.807 93.7575C129.807 93.7575 241.434 1.95598 346.412 93.7575C346.412 93.7575 255.719 -19.2348 346.412 -125.496C346.412 -125.496 234.785 -33.6946 129.807 -125.496Z" stroke="black" stroke-opacity="0.05" stroke-width="0.68" stroke-miterlimit="10"/>
<path d="M134.109 -121.124C134.109 -121.124 221.2 -12.6183 134.109 89.4186C134.109 89.4186 241.304 1.26233 342.108 89.4186C342.108 89.4186 255.017 -19.0875 342.108 -121.124C342.108 -121.124 234.913 -32.9681 134.109 -121.124Z" stroke="black" stroke-opacity="0.05" stroke-width="0.66" stroke-miterlimit="10"/>
<path d="M138.413 -116.75C138.413 -116.75 221.9 -12.7329 138.413 85.083C138.413 85.083 241.173 0.575161 337.807 85.083C337.807 85.083 254.32 -18.9337 337.807 -116.75C337.807 -116.75 235.047 -32.2417 138.413 -116.75Z" stroke="black" stroke-opacity="0.05" stroke-width="0.65" stroke-miterlimit="10"/>
<path d="M142.716 -112.375C142.716 -112.375 222.598 -12.8474 142.716 80.7473C142.716 80.7473 241.04 -0.111988 333.504 80.7473C333.504 80.7473 253.622 -18.7799 333.504 -112.375C333.504 -112.375 235.18 -31.5153 142.716 -112.375Z" stroke="black" stroke-opacity="0.05" stroke-width="0.64" stroke-miterlimit="10"/>
<path d="M147.019 -108.003C147.019 -108.003 223.3 -12.9652 147.019 76.4084C147.019 76.4084 240.908 -0.805698 329.202 76.4084C329.202 76.4084 252.921 -18.6293 329.202 -108.003C329.202 -108.003 235.312 -30.7888 147.019 -108.003Z" stroke="black" stroke-opacity="0.05" stroke-width="0.62" stroke-miterlimit="10"/>
<path d="M151.321 -103.628C151.321 -103.628 223.997 -13.0797 151.321 72.0727C151.321 72.0727 240.775 -1.49286 324.898 72.0727C324.898 72.0727 252.222 -18.4756 324.898 -103.628C324.898 -103.628 235.444 -30.0624 151.321 -103.628Z" stroke="black" stroke-opacity="0.05" stroke-width="0.61" stroke-miterlimit="10"/>
<path d="M155.624 -99.2563C155.624 -99.2563 224.696 -13.1976 155.624 67.7304C155.624 67.7304 240.642 -2.18663 320.593 67.7304C320.593 67.7304 251.52 -18.3283 320.593 -99.2563C320.593 -99.2563 235.574 -29.3393 155.624 -99.2563Z" stroke="black" stroke-opacity="0.05" stroke-width="0.6" stroke-miterlimit="10"/>
<path d="M159.926 -94.8813C159.926 -94.8813 225.397 -13.3119 159.926 63.395C159.926 63.395 240.51 -2.87688 316.29 63.395C316.29 63.395 250.819 -18.1744 316.29 -94.8813C316.29 -94.8813 235.706 -28.6094 159.926 -94.8813Z" stroke="black" stroke-opacity="0.05" stroke-width="0.58" stroke-miterlimit="10"/>
<path d="M164.228 -90.5097C164.228 -90.5097 226.095 -13.4298 164.228 59.056C164.228 59.056 240.377 -3.56739 311.987 59.056C311.987 59.056 250.12 -18.024 311.987 -90.5097C311.987 -90.5097 235.838 -27.8864 164.228 -90.5097Z" stroke="black" stroke-opacity="0.05" stroke-width="0.57" stroke-miterlimit="10"/>
<path d="M168.531 -86.1348C168.531 -86.1348 226.797 -13.5443 168.531 54.7203C168.531 54.7203 240.245 -4.25782 307.684 54.7203C307.684 54.7203 249.419 -17.8702 307.684 -86.1348C307.684 -86.1348 235.971 -27.1566 168.531 -86.1348Z" stroke="black" stroke-opacity="0.05" stroke-width="0.55" stroke-miterlimit="10"/>
<path d="M172.834 -81.7598C172.834 -81.7598 227.495 -13.6588 172.834 50.3846C172.834 50.3846 240.112 -4.94496 303.382 50.3846C303.382 50.3846 248.721 -17.7163 303.382 -81.7598C303.382 -81.7598 236.104 -26.4302 172.834 -81.7598Z" stroke="black" stroke-opacity="0.05" stroke-width="0.54" stroke-miterlimit="10"/>
<path d="M177.137 -77.3882C177.137 -77.3882 228.194 -13.7766 177.137 46.0457C177.137 46.0457 239.98 -5.63541 299.079 46.0457C299.079 46.0457 248.023 -17.5658 299.079 -77.3882C299.079 -77.3882 236.236 -25.7071 177.137 -77.3882Z" stroke="black" stroke-opacity="0.05" stroke-width="0.53" stroke-miterlimit="10"/>
<path d="M181.439 -73.0132C181.439 -73.0132 228.894 -13.8912 181.439 41.71C181.439 41.71 239.847 -6.32584 294.776 41.71C294.776 41.71 247.32 -17.412 294.776 -73.0132C294.776 -73.0132 236.368 -24.9774 181.439 -73.0132Z" stroke="black" stroke-opacity="0.05" stroke-width="0.51" stroke-miterlimit="10"/>
<path d="M185.746 -68.6416C185.746 -68.6416 229.597 -14.009 185.746 37.3678C185.746 37.3678 239.718 -7.01955 290.474 37.3678C290.474 37.3678 246.623 -17.2648 290.474 -68.6416C290.474 -68.6416 236.502 -24.2542 185.746 -68.6416Z" stroke="black" stroke-opacity="0.05" stroke-width="0.5" stroke-miterlimit="10"/>
<path d="M190.048 -64.2667C190.048 -64.2667 230.295 -14.1235 190.048 33.0322C190.048 33.0322 239.586 -7.70671 286.171 33.0322C286.171 33.0322 245.925 -17.111 286.171 -64.2667C286.171 -64.2667 236.634 -23.5278 190.048 -64.2667Z" stroke="black" stroke-opacity="0.05" stroke-width="0.49" stroke-miterlimit="10"/>
<path d="M194.35 -59.8951C194.35 -59.8951 230.996 -14.2414 194.35 28.6931C194.35 28.6931 239.452 -8.4005 281.868 28.6931C281.868 28.6931 245.223 -16.9606 281.868 -59.8951C281.868 -59.8951 236.766 -22.8014 194.35 -59.8951Z" stroke="black" stroke-opacity="0.05" stroke-width="0.47" stroke-miterlimit="10"/>
<path d="M198.653 -55.52C198.653 -55.52 231.694 -14.3558 198.653 24.3576C198.653 24.3576 239.32 -9.08752 277.566 24.3576C277.566 24.3576 244.525 -16.8066 277.566 -55.52C277.566 -55.52 236.899 -22.0749 198.653 -55.52Z" stroke="black" stroke-opacity="0.05" stroke-width="0.46" stroke-miterlimit="10"/>
<path d="M202.956 -51.1452C202.956 -51.1452 232.393 -14.4704 202.956 20.0219C202.956 20.0219 239.188 -9.77479 273.263 20.0219C273.263 20.0219 243.827 -16.6529 273.263 -51.1452C273.263 -51.1452 237.031 -21.3486 202.956 -51.1452Z" stroke="black" stroke-opacity="0.05" stroke-width="0.44" stroke-miterlimit="10"/>
<path d="M207.259 -46.7734C207.259 -46.7734 233.094 -14.5881 207.259 15.683C207.259 15.683 239.055 -10.4684 268.961 15.683C268.961 15.683 243.125 -16.5023 268.961 -46.7734C268.961 -46.7734 237.164 -20.622 207.259 -46.7734Z" stroke="black" stroke-opacity="0.05" stroke-width="0.43" stroke-miterlimit="10"/>
<path d="M211.561 -42.3986C211.561 -42.3986 233.792 -14.6995 211.561 11.3472C211.561 11.3472 238.925 -11.1557 264.657 11.3472C264.657 11.3472 242.426 -16.3519 264.657 -42.3986C264.657 -42.3986 237.293 -19.8957 211.561 -42.3986Z" stroke="black" stroke-opacity="0.05" stroke-width="0.42" stroke-miterlimit="10"/>
<path d="M215.864 -38.0269C215.864 -38.0269 234.49 -14.8172 215.864 7.00836C215.864 7.00836 238.793 -11.8461 260.355 7.00836C260.355 7.00836 241.728 -16.2014 260.355 -38.0269C260.355 -38.0269 237.426 -19.1725 215.864 -38.0269Z" stroke="black" stroke-opacity="0.05" stroke-width="0.4" stroke-miterlimit="10"/>
<path d="M220.167 -33.6521C220.167 -33.6521 235.192 -14.9319 220.167 2.66931C220.167 2.66931 238.661 -12.5399 256.049 2.66931C256.049 2.66931 241.024 -16.0509 256.049 -33.6521C256.049 -33.6521 237.555 -18.4429 220.167 -33.6521Z" stroke="black" stroke-opacity="0.05" stroke-width="0.39" stroke-miterlimit="10"/>
</g>
</g>
<defs>
<clipPath id="clip0_23225_145471">
<rect width="320" height="197" fill="white"/>
</clipPath>
</defs>
</svg>
