<svg width="103" height="24" viewBox="0 0 103 24" fill="none" xmlns="http://www.w3.org/2000/svg">
<g clip-path="url(#clip0_20126_53730)">
<path d="M64.6945 15.3439H64.215C63.8997 15.3439 63.7251 15.1504 63.7251 14.8331V6.86692C63.7251 6.75341 63.6341 6.66797 63.5213 6.66797H61.3593C61.2465 6.66797 61.1616 6.75341 61.1616 6.86692V15.0882C61.1616 16.5998 61.9565 17.3359 63.6087 17.3352H64.7042C64.817 17.3352 64.9122 17.251 64.9122 17.1375V15.5471C64.9122 15.4336 64.8073 15.3439 64.6945 15.3439Z" fill="#0066CC"/>
<path d="M68.947 9.35645C66.5267 9.35645 65.0728 10.8797 65.0728 13.4466C65.0728 16.0135 66.5564 17.5478 69.0762 17.5478C70.8508 17.5478 72.0428 16.7983 72.5272 15.5283C72.5684 15.4203 72.5866 15.355 72.586 15.2934C72.5854 15.1853 72.5315 15.0877 72.3708 15.0877H70.3506C70.2821 15.0877 70.2105 15.1237 70.1323 15.2464C69.9274 15.5686 69.5272 15.7376 69.0264 15.7376C67.96 15.7376 67.5471 14.9736 67.4816 14.0349H72.5266C72.6394 14.0349 72.7243 13.9483 72.7243 13.8348V13.0823C72.7243 10.8041 71.3067 9.35645 68.9464 9.35645H68.947ZM67.4913 12.4036C67.4967 11.5242 68.0739 10.9853 68.9458 10.9853C69.8177 10.9853 70.3585 11.5175 70.3458 12.4036H67.4913Z" fill="#0066CC"/>
<path d="M77.8017 11.5595C77.9145 11.5595 78.0006 11.4747 78.0006 11.3606V9.76771C78.0006 9.6542 77.9017 9.56876 77.7884 9.56876H76.4885V7.64817C76.4885 7.53466 76.403 7.44922 76.2902 7.44922H74.1542C74.0414 7.44922 73.9444 7.53832 73.9444 7.65184V9.56815H73.0544C72.9416 9.56815 72.8428 9.6542 72.8428 9.76771V11.36C72.8428 11.4735 72.927 11.5595 73.0404 11.5595H73.945V14.6323C73.945 16.4278 74.8587 17.3341 76.6873 17.3341H77.8023C77.9151 17.3341 78.0006 17.2487 78.0006 17.1351V15.5563C78.0006 15.4428 77.9157 15.3427 77.8029 15.3427H76.9826C76.6673 15.3427 76.4885 15.1493 76.4885 14.8319V11.5595H77.8023H77.8017Z" fill="#0066CC"/>
<path d="M56.1676 15.3434H55.8711C55.6407 15.3434 55.5031 15.1896 55.5031 14.8729V12.3987C55.5031 10.483 54.2171 9.35645 51.9932 9.35645C50.1603 9.35645 48.8507 10.1358 48.3475 11.332C48.2948 11.4577 48.265 11.5535 48.2663 11.617C48.2681 11.7183 48.3463 11.7872 48.4651 11.7872H50.5708C50.689 11.7872 50.7557 11.7421 50.8248 11.6115C50.9825 11.3118 51.3178 11.1367 51.8307 11.1367C52.568 11.1367 53.0142 11.4961 53.0148 12.1443V12.4567L51.1292 12.5849C49.1496 12.7191 48.2517 13.4899 48.2517 15.0077C48.2517 16.6128 49.2557 17.5478 50.9516 17.5478C51.8519 17.5478 52.6959 17.2841 53.3598 16.7629C53.6532 17.1126 54.1559 17.3354 54.7676 17.3354H56.1712C56.284 17.3354 56.364 17.2499 56.364 17.1364V15.5448C56.364 15.4313 56.2797 15.3446 56.167 15.3446L56.1676 15.3434ZM53.016 15.3153C52.5522 15.618 52.1005 15.7376 51.6846 15.7376C51.0104 15.7376 50.6805 15.4209 50.6805 14.9028C50.6805 14.4408 50.9431 14.1784 51.67 14.1234L53.0166 14.0215V15.3153H53.016Z" fill="#0066CC"/>
<path d="M30.5556 8.64433V6.8812C30.5556 6.76769 30.4707 6.66699 30.3573 6.66699H22.1201C22.0074 6.66699 21.9219 6.76647 21.9219 6.87998V8.64372C21.9219 8.75724 22.0062 8.85733 22.1189 8.85733H24.9176V17.1341C24.9176 17.2476 25.0164 17.3349 25.1292 17.3349H27.3477C27.4604 17.3349 27.5599 17.2494 27.5599 17.1359V8.85794H30.3573C30.4701 8.85794 30.555 8.75846 30.555 8.64433H30.5556Z" fill="#0066CC"/>
<path d="M60.4549 15.3439H59.9753C59.66 15.3439 59.4794 15.1504 59.4794 14.8331V6.86692C59.4794 6.75341 59.3945 6.66797 59.2811 6.66797H57.119C57.0063 6.66797 56.9214 6.75341 56.9214 6.86692V15.0882C56.9214 16.5998 57.7162 17.3359 59.3684 17.3352H60.464C60.5768 17.3352 60.6659 17.251 60.6659 17.1375V15.5416C60.6659 15.4281 60.5671 15.3439 60.4543 15.3439H60.4549Z" fill="#0066CC"/>
<path d="M33.8897 11.9875L29.8196 11.9863C29.7068 11.9863 29.6226 12.0712 29.6226 12.1853V13.866C29.6232 13.9795 29.7117 14.0644 29.8251 14.0644H33.8891C34.0019 14.0644 34.0886 13.9789 34.0886 13.8654V12.1871C34.0886 12.0736 34.0031 11.9882 33.8903 11.9882L33.8897 11.9875Z" fill="#0066CC"/>
<path d="M21.0416 6.6676H18.7953C18.6825 6.6676 18.5928 6.75121 18.5928 6.86473L18.597 17.1365C18.597 17.25 18.6825 17.3355 18.7953 17.3355H21.041C21.1538 17.3355 21.2393 17.25 21.2393 17.1365V6.86412C21.2393 6.7506 21.1544 6.66699 21.0416 6.66699V6.6676Z" fill="#0066CC"/>
<path d="M48.1935 6.66797H46.2588C46.1588 6.66797 46.0787 6.74548 46.0624 6.84495L44.8419 14.1086H44.7115L43.203 6.8358C43.183 6.74059 43.1042 6.66858 43.0072 6.66858H40.0557C39.9593 6.66858 39.872 6.74059 39.8514 6.8358L38.3126 14.0946H38.1811L36.9769 6.84434C36.9606 6.74548 36.8751 6.66858 36.775 6.66858H34.7688C34.6421 6.66858 34.5402 6.7882 34.562 6.91392L36.3488 17.168C36.3658 17.2663 36.4495 17.3365 36.5483 17.3365H39.5871C39.6829 17.3365 39.7647 17.2706 39.7853 17.176L41.4084 9.68037H41.5551L43.1782 17.176C43.1988 17.2706 43.2788 17.3365 43.3752 17.3365H46.4134C46.5128 17.3365 46.5977 17.2669 46.6147 17.168L48.4015 6.91392C48.4233 6.7882 48.3202 6.66858 48.1935 6.66858V6.66797Z" fill="#0066CC"/>
<path d="M6.27206 4.07874C6.17565 4.02381 6.07319 3.9994 5.97376 4.00001C5.65969 4.00245 5.3717 4.25572 5.37352 4.60847L5.3911 7.83813L0.908113 5.30725C0.811104 5.25233 0.70864 5.22792 0.609206 5.22853C0.295142 5.23097 0.00957469 5.48424 0.00896839 5.83699L-0.000732422 16.4817C-0.000732422 16.962 0.213898 17.3806 0.673474 17.64L4.70356 19.9213C4.80056 19.9762 4.90303 20.0006 5.00246 20C5.31653 19.9976 5.6027 19.7443 5.6027 19.3915V8.47588L7.73324 9.66961C8.19342 9.92716 8.40745 10.3476 8.40745 10.8279V17.2238L12.3927 19.4739C12.4897 19.5289 12.5921 19.5533 12.6916 19.5527C13.0056 19.5502 13.2918 19.297 13.2918 18.9442L13.2961 8.82253C13.2961 8.34223 13.0814 7.92357 12.6218 7.6642L6.27206 4.07874Z" fill="#0066CC"/>
</g>
<path d="M86 18V16.5H87.9369V7.5H86V6H91.8271V7.5H89.8902V16.5H91.8271V18H86Z" fill="#0066CC"/>
<path d="M93.8361 18V6H97.7426C101.096 6 103 8.14773 103 11.8977C103 15.6989 101.096 18 97.8077 18H93.8361ZM97.6938 16.2955C99.8097 16.2955 100.965 14.642 100.965 11.8977C100.965 9.25568 99.8423 7.70455 97.6938 7.70455H95.7894V16.2955H97.6938Z" fill="#0066CC"/>
<defs>
<clipPath id="clip0_20126_53730">
<rect width="78" height="16" fill="white" transform="translate(0 4)"/>
</clipPath>
</defs>
</svg>
