<svg xmlns="http://www.w3.org/2000/svg" fill="none" viewBox="0 0 328 209"><path fill="#fff" fill-opacity=".35" fill-rule="evenodd" d="M99.123 49.03c-3.724 0-6.742 3.089-6.742 6.899v80.123c0 3.81 3.018 6.899 6.742 6.899h135.444c3.724 0 6.742-3.089 6.742-6.899V55.929c0-3.81-3.018-6.9-6.742-6.9H99.123Zm-7.292 6.899c0-4.121 3.264-7.462 7.292-7.462h135.444c4.027 0 7.292 3.34 7.292 7.462v80.123c0 4.121-3.265 7.461-7.292 7.461H99.123c-4.028 0-7.292-3.34-7.292-7.461V55.929Z" clip-rule="evenodd"/><path fill="#fff" fill-opacity=".35" fill-rule="evenodd" d="M96.623 47.443c-3.73 0-6.754 3.094-6.754 6.91v83.282c0 3.816 3.024 6.91 6.754 6.91h140.445c3.729 0 6.753-3.094 6.753-6.91V54.353c0-3.816-3.024-6.91-6.753-6.91H96.622Zm-7.282 6.91c0-4.115 3.26-7.45 7.282-7.45h140.445c4.021 0 7.281 3.335 7.281 7.45v83.282c0 4.115-3.26 7.45-7.281 7.45H96.622c-4.02 0-7.28-3.335-7.28-7.45V54.353Z" clip-rule="evenodd"/><path fill="#fff" fill-opacity=".35" fill-rule="evenodd" d="M94.122 45.849c-3.736 0-6.764 3.098-6.764 6.921v86.44c0 3.823 3.028 6.922 6.764 6.922h145.446c3.736 0 6.764-3.099 6.764-6.922V52.77c0-3.823-3.028-6.921-6.764-6.921H94.122Zm-7.27 6.921c0-4.109 3.255-7.44 7.27-7.44h145.446c4.015 0 7.27 3.331 7.27 7.44v86.44c0 4.109-3.255 7.44-7.27 7.44H94.122c-4.015 0-7.27-3.331-7.27-7.44V52.77Z" clip-rule="evenodd"/><path fill="#fff" fill-opacity=".35" fill-rule="evenodd" d="M91.622 44.262c-3.742 0-6.775 3.104-6.775 6.932v89.6c0 3.828 3.033 6.932 6.775 6.932H242.06c3.742 0 6.775-3.104 6.775-6.932v-89.6c0-3.828-3.033-6.932-6.775-6.932H91.621Zm-7.26 6.932c0-4.102 3.25-7.427 7.26-7.427H242.06c4.009 0 7.259 3.325 7.259 7.427v89.6c0 4.102-3.25 7.427-7.259 7.427H91.621c-4.008 0-7.258-3.325-7.258-7.427v-89.6Z" clip-rule="evenodd"/><path fill="#fff" fill-opacity=".35" fill-rule="evenodd" d="M89.121 42.667c-3.747 0-6.786 3.11-6.786 6.944v92.766c0 3.835 3.039 6.944 6.786 6.944h155.44c3.748 0 6.786-3.109 6.786-6.944V49.611c0-3.835-3.038-6.944-6.786-6.944H89.121Zm-7.248 6.944c0-4.096 3.245-7.416 7.248-7.416h155.44c4.003 0 7.248 3.32 7.248 7.416v92.766c0 4.096-3.245 7.416-7.248 7.416H89.121c-4.003 0-7.248-3.32-7.248-7.416V49.611Z" clip-rule="evenodd"/><path fill="#fff" fill-opacity=".35" fill-rule="evenodd" d="M86.621 41.084c-3.752 0-6.793 3.113-6.793 6.952v95.924c0 3.839 3.041 6.951 6.793 6.951h160.441c3.752 0 6.793-3.112 6.793-6.951V48.036c0-3.84-3.041-6.952-6.793-6.952H86.622Zm-7.24 6.952c0-4.092 3.241-7.41 7.24-7.41h160.441c3.999 0 7.24 3.318 7.24 7.41v95.924c0 4.092-3.241 7.409-7.24 7.409H86.622c-4 0-7.242-3.317-7.242-7.409V48.036Z" clip-rule="evenodd"/><path fill="#fff" fill-opacity=".35" fill-rule="evenodd" d="M84.12 39.49c-3.757 0-6.804 3.117-6.804 6.963v99.082c0 3.846 3.047 6.963 6.805 6.963h165.441c3.758 0 6.804-3.117 6.804-6.963V46.453c0-3.846-3.046-6.963-6.804-6.963H84.121Zm-7.229 6.963c0-4.086 3.237-7.398 7.23-7.398h165.441c3.993 0 7.23 3.312 7.23 7.398v99.082c0 4.086-3.237 7.398-7.23 7.398H84.121c-3.993 0-7.23-3.312-7.23-7.398V46.453Z" clip-rule="evenodd"/><path fill="#fff" fill-opacity=".35" fill-rule="evenodd" d="M81.62 37.896c-3.764 0-6.815 3.122-6.815 6.974V147.11c0 3.852 3.051 6.974 6.815 6.974h170.442c3.764 0 6.816-3.122 6.816-6.974V44.87c0-3.852-3.052-6.974-6.816-6.974H81.62Zm-7.218 6.974c0-4.08 3.232-7.387 7.218-7.387h170.442c3.987 0 7.219 3.307 7.219 7.387V147.11c0 4.079-3.232 7.387-7.219 7.387H81.62c-3.986 0-7.218-3.308-7.218-7.387V44.87Z" clip-rule="evenodd"/><path fill="#fff" fill-opacity=".35" fill-rule="evenodd" d="M79.127 36.309c-3.77 0-6.826 3.127-6.826 6.985v105.4c0 3.858 3.056 6.985 6.826 6.985H254.57c3.77 0 6.826-3.127 6.826-6.985v-105.4c0-3.858-3.056-6.985-6.826-6.985H79.127Zm-7.207 6.985c0-4.073 3.227-7.375 7.207-7.375H254.57c3.981 0 7.208 3.302 7.208 7.375v105.4c0 4.073-3.227 7.375-7.208 7.375H79.127c-3.98 0-7.207-3.302-7.207-7.375v-105.4Z" clip-rule="evenodd"/><path fill="#fff" fill-opacity=".35" fill-rule="evenodd" d="M76.627 34.714c-3.776 0-6.837 3.133-6.837 6.997v108.566c0 3.864 3.06 6.997 6.837 6.997h180.436c3.776 0 6.837-3.133 6.837-6.997V41.711c0-3.864-3.061-6.997-6.837-6.997H76.627Zm-7.197 6.997c0-4.067 3.222-7.364 7.197-7.364h180.436c3.975 0 7.197 3.297 7.197 7.364v108.566c0 4.067-3.222 7.364-7.197 7.364H76.627c-3.975 0-7.197-3.297-7.197-7.364V41.711Z" clip-rule="evenodd"/><path fill="#fff" fill-opacity=".35" fill-rule="evenodd" d="M74.127 33.127c-3.783 0-6.849 3.138-6.849 7.008V151.86c0 3.87 3.066 7.008 6.849 7.008h185.436c3.783 0 6.849-3.138 6.849-7.008V40.135c0-3.87-3.066-7.008-6.849-7.008H74.127Zm-7.186 7.008c0-4.06 3.217-7.353 7.186-7.353h185.436c3.969 0 7.186 3.292 7.186 7.353V151.86c0 4.061-3.217 7.353-7.186 7.353H74.127c-3.969 0-7.186-3.292-7.186-7.353V40.135Z" clip-rule="evenodd"/><path fill="#fff" fill-opacity=".35" fill-rule="evenodd" d="M71.626 31.533c-3.788 0-6.86 3.143-6.86 7.02v114.883c0 3.876 3.072 7.019 6.86 7.019h190.438c3.788 0 6.859-3.143 6.859-7.019V38.552c0-3.876-3.071-7.019-6.859-7.019H71.626Zm-7.175 7.02c0-4.055 3.213-7.342 7.175-7.342h190.438c3.962 0 7.174 3.287 7.174 7.341v114.884c0 4.055-3.212 7.341-7.174 7.341H71.626c-3.962 0-7.175-3.287-7.175-7.341V38.552Z" clip-rule="evenodd"/><path fill="#fff" fill-opacity=".35" fill-rule="evenodd" d="M69.126 29.939c-3.794 0-6.87 3.147-6.87 7.03v118.042c0 3.883 3.076 7.031 6.87 7.031h195.438c3.795 0 6.871-3.148 6.871-7.031V36.969c0-3.883-3.076-7.03-6.871-7.03H69.126Zm-7.164 7.03c0-4.048 3.207-7.33 7.164-7.33h195.438c3.956 0 7.164 3.282 7.164 7.33v118.042c0 4.049-3.208 7.331-7.164 7.331H69.126c-3.957 0-7.164-3.282-7.164-7.331V36.969Z" clip-rule="evenodd"/><path fill="#fff" fill-opacity=".35" fill-rule="evenodd" d="M66.626 28.356c-3.799 0-6.878 3.15-6.878 7.037v121.202c0 3.886 3.08 7.037 6.878 7.037h200.438c3.799 0 6.878-3.151 6.878-7.037V35.393c0-3.886-3.079-7.037-6.878-7.037H66.626Zm-7.157 7.037c0-4.044 3.204-7.322 7.157-7.322h200.438c3.953 0 7.157 3.278 7.157 7.322v121.202c0 4.044-3.204 7.322-7.157 7.322H66.626c-3.953 0-7.157-3.278-7.157-7.322V35.393Z" clip-rule="evenodd"/><path fill="#fff" fill-opacity=".35" fill-rule="evenodd" d="M64.125 26.761c-3.804 0-6.889 3.156-6.889 7.05v124.367c0 3.893 3.085 7.049 6.89 7.049h205.439c3.804 0 6.889-3.156 6.889-7.049V33.81c0-3.893-3.085-7.049-6.889-7.049H64.125Zm-7.145 7.05c0-4.039 3.199-7.312 7.145-7.312h205.44c3.946 0 7.145 3.273 7.145 7.311v124.368c0 4.038-3.199 7.311-7.145 7.311H64.125c-3.946 0-7.145-3.273-7.145-7.311V33.81Z" clip-rule="evenodd"/><path fill="#fff" fill-opacity=".35" fill-rule="evenodd" d="M61.625 25.174c-3.81 0-6.9 3.162-6.9 7.06v127.527c0 3.899 3.09 7.06 6.9 7.06h210.433c3.81 0 6.9-3.161 6.9-7.06V32.235c0-3.9-3.09-7.06-6.9-7.06H61.625Zm-7.135 7.06c0-4.031 3.195-7.3 7.135-7.3h210.433c3.94 0 7.134 3.269 7.134 7.3v127.527c0 4.032-3.194 7.3-7.134 7.3H61.625c-3.94 0-7.135-3.268-7.135-7.3V32.235Z" clip-rule="evenodd"/><path fill="#fff" fill-opacity=".35" fill-rule="evenodd" d="M59.124 23.58c-3.816 0-6.91 3.166-6.91 7.072v130.684c0 3.906 3.094 7.072 6.91 7.072h215.434c3.817 0 6.911-3.166 6.911-7.072V30.652c0-3.906-3.094-7.072-6.911-7.072H59.125Zm-7.123 7.072c0-4.026 3.19-7.29 7.123-7.29h215.434c3.934 0 7.124 3.264 7.124 7.29v130.684c0 4.026-3.19 7.289-7.124 7.289H59.125c-3.935 0-7.124-3.263-7.124-7.289V30.652Z" clip-rule="evenodd"/><path fill="#fff" fill-opacity=".35" fill-rule="evenodd" d="M56.624 21.986c-3.823 0-6.922 3.17-6.922 7.082v133.844c0 3.912 3.1 7.083 6.922 7.083H277.06c3.822 0 6.921-3.171 6.921-7.083V29.068c0-3.911-3.099-7.082-6.921-7.082H56.624Zm-7.112 7.082c0-4.019 3.184-7.277 7.112-7.277H277.06c3.928 0 7.112 3.258 7.112 7.277v133.844c0 4.019-3.184 7.278-7.112 7.278H56.624c-3.928 0-7.112-3.259-7.112-7.278V29.068Z" clip-rule="evenodd"/><path fill="#fff" fill-opacity=".35" fill-rule="evenodd" d="M54.124 20.399c-3.829 0-6.933 3.176-6.933 7.094v137.002c0 3.918 3.104 7.094 6.933 7.094h225.435c3.829 0 6.933-3.176 6.933-7.094V27.493c0-3.918-3.104-7.094-6.933-7.094H54.124Zm-7.102 7.094c0-4.013 3.18-7.267 7.102-7.267h225.435c3.922 0 7.101 3.254 7.101 7.267v137.002c0 4.013-3.179 7.267-7.101 7.267H54.124c-3.922 0-7.102-3.254-7.102-7.267V27.493Z" clip-rule="evenodd"/><path fill="#fff" fill-opacity=".35" fill-rule="evenodd" d="M51.623 18.805c-3.834 0-6.943 3.18-6.943 7.105v140.168c0 3.924 3.108 7.105 6.944 7.105h230.435c3.835 0 6.944-3.181 6.944-7.105V25.91c0-3.924-3.109-7.105-6.944-7.105H51.623Zm-7.09 7.105c0-4.007 3.175-7.256 7.09-7.256H282.06c3.916 0 7.091 3.249 7.091 7.256v140.168c0 4.007-3.175 7.255-7.091 7.255H51.623c-3.915 0-7.09-3.248-7.09-7.255V25.91Z" clip-rule="evenodd"/><path fill="#fff" fill-opacity=".35" fill-rule="evenodd" d="M49.13 17.218c-3.84 0-6.954 3.186-6.954 7.116v143.327c0 3.931 3.113 7.117 6.954 7.117h235.437c3.841 0 6.955-3.186 6.955-7.117V24.334c0-3.93-3.114-7.116-6.955-7.116H49.13Zm-7.079 7.116c0-4 3.17-7.244 7.08-7.244h235.436c3.91 0 7.079 3.243 7.079 7.244v143.327c0 4.001-3.169 7.244-7.079 7.244H49.13c-3.91 0-7.079-3.243-7.079-7.244V24.334Z" clip-rule="evenodd"/><path fill="#fff" fill-opacity=".35" fill-rule="evenodd" d="M46.63 15.623c-3.847 0-6.966 3.192-6.966 7.128v146.486c0 3.936 3.119 7.128 6.966 7.128h240.43c3.847 0 6.966-3.192 6.966-7.128V22.751c0-3.936-3.119-7.128-6.966-7.128H46.63Zm-7.068 7.128c0-3.995 3.164-7.233 7.068-7.233h240.43c3.904 0 7.068 3.238 7.068 7.233v146.486c0 3.994-3.164 7.233-7.068 7.233H46.63c-3.904 0-7.068-3.239-7.068-7.233V22.751Z" clip-rule="evenodd"/><path fill="#fff" fill-opacity=".35" fill-rule="evenodd" d="M44.13 14.033c-3.851 0-6.973 3.194-6.973 7.135v149.644c0 3.941 3.122 7.136 6.973 7.136h245.43c3.851 0 6.973-3.195 6.973-7.136V21.168c0-3.94-3.122-7.135-6.973-7.135H44.13Zm-7.061 7.135c0-3.99 3.161-7.225 7.06-7.225H289.56c3.9 0 7.061 3.235 7.061 7.225v149.644c0 3.991-3.161 7.226-7.061 7.226H44.13c-3.9 0-7.061-3.235-7.061-7.226V21.168Z" clip-rule="evenodd"/><path fill="#fff" fill-opacity=".35" fill-rule="evenodd" d="M41.63 12.446c-3.858 0-6.985 3.2-6.985 7.146v152.804c0 3.946 3.127 7.146 6.984 7.146h250.432c3.857 0 6.984-3.2 6.984-7.146V19.592c0-3.946-3.127-7.146-6.984-7.146H41.629Zm-7.05 7.146c0-3.984 3.156-7.214 7.05-7.214H292.06c3.893 0 7.05 3.23 7.05 7.214v152.804c0 3.984-3.157 7.214-7.05 7.214H41.629c-3.893 0-7.05-3.23-7.05-7.214V19.592Z" clip-rule="evenodd"/><path fill="#fff" fill-opacity=".35" fill-rule="evenodd" d="M39.13 10.852c-3.864 0-6.996 3.204-6.996 7.157v155.97c0 3.953 3.132 7.157 6.995 7.157h255.432c3.863 0 6.995-3.204 6.995-7.157V18.009c0-3.953-3.132-7.157-6.995-7.157H39.129Zm-7.04 7.157c0-3.978 3.151-7.203 7.04-7.203H294.56c3.888 0 7.039 3.225 7.039 7.203v155.97c0 3.978-3.151 7.202-7.039 7.202H39.129c-3.887 0-7.04-3.224-7.04-7.202V18.009Z" clip-rule="evenodd"/><path fill="#fff" fill-opacity=".35" fill-rule="evenodd" d="M36.629 9.265c-3.87 0-7.006 3.21-7.006 7.169v159.128c0 3.959 3.136 7.169 7.006 7.169H297.06c3.87 0 7.006-3.21 7.006-7.169V16.434c0-3.96-3.136-7.17-7.006-7.17H36.629ZM29.6 16.434c0-3.972 3.146-7.192 7.028-7.192H297.06c3.882 0 7.028 3.22 7.028 7.192v159.128c0 3.972-3.146 7.191-7.028 7.191H36.629c-3.882 0-7.028-3.219-7.028-7.191V16.434Z" clip-rule="evenodd"/><path stroke="#A9EDEE" stroke-dasharray="6.4 6.4" stroke-width=".356" d="M210.578-28.445c5.451 41.481-1.209 118.684-71.467 95.644-87.822-28.8 3.2-55.822 22.044-35.911 18.845 19.911-49.777 108.8-147.2 113.422"/><path stroke="#A9EDEE" stroke-dasharray="6.4 6.4" stroke-width=".356" d="M22.844 38.045c54.282-13.037 164.196-12.09 169.6 96 5.405 108.089 90.466-3.254 138.94-17.121"/><path stroke="#A9EDEE" stroke-dasharray="6.4 6.4" stroke-width=".356" d="M335.378 20.977C318.192 81.895 227.218 183.11.8 100.62"/><path stroke="#A9EDEE" stroke-dasharray="6.4 6.4" stroke-width=".356" d="M109.244-35.91c22.282 34.37 33.494 110.507-99.91 140.089"/><g filter="url(#a)"><path fill="url(#b)" d="M233.448 52.625H100.241a3.086 3.086 0 0 0-3.085 3.086v80.584a3.086 3.086 0 0 0 3.085 3.086h133.207a3.086 3.086 0 0 0 3.085-3.086V55.711a3.085 3.085 0 0 0-3.085-3.086Z"/><path stroke="url(#c)" stroke-width="1.543" d="M237.305 136.295a3.857 3.857 0 0 1-3.857 3.857H100.241a3.857 3.857 0 0 1-3.857-3.857V55.711a3.858 3.858 0 0 1 3.857-3.858h133.207a3.857 3.857 0 0 1 3.857 3.858v80.584Z"/></g><g filter="url(#d)"><path fill="url(#e)" fill-rule="evenodd" d="M238.631 47.275a8.743 8.743 0 0 0-1.614-1.97c.021-.263.035-.534.035-.811 0-2.396-.817-4.473-2.439-6.18-1.635-1.72-3.733-2.638-6.058-2.638-.242 0-.484.007-.719.029a9.025 9.025 0 0 0-1.806-1.593 8.127 8.127 0 0 0-4.594-1.401 8.15 8.15 0 0 0-3.84.953 8.127 8.127 0 0 0-3.825-.953 8.121 8.121 0 0 0-4.601 1.408 8.81 8.81 0 0 0-1.806 1.593 8.009 8.009 0 0 0-.719-.029c-2.318 0-4.416.904-6.065 2.617-1.615 1.678-2.468 3.819-2.468 6.194 0 .277.014.555.043.832a8.445 8.445 0 0 0-1.586 1.941c-.853 1.415-1.28 2.98-1.28 4.665a8.96 8.96 0 0 0 1.152 4.438 8.434 8.434 0 0 0 1.699 2.147c.136 2.126.975 4.046 2.447 5.575 1.642 1.714 3.74 2.624 6.065 2.624.235 0 .463-.007.697-.028a8.4 8.4 0 0 0 1.799 1.6 8.146 8.146 0 0 0 4.63 1.4c1.337 0 2.61-.32 3.797-.945a8.144 8.144 0 0 0 3.861.946 8.053 8.053 0 0 0 4.601-1.408 8.838 8.838 0 0 0 1.807-1.593c.234.021.476.028.718.028 2.332 0 4.43-.91 6.058-2.638 1.465-1.55 2.283-3.406 2.418-5.532a8.57 8.57 0 0 0 1.728-2.184 8.907 8.907 0 0 0 1.159-4.437 8.936 8.936 0 0 0-1.28-4.665l-.014.015Z" clip-rule="evenodd"/><path stroke="url(#f)" stroke-width="1.725" d="M221.436 31.849c1.715 0 3.325.458 4.784 1.36l.29.185.004.004.273.19c.511.37.982.778 1.41 1.231.121-.004.241-.006.358-.006 2.568 0 4.89 1.02 6.683 2.908l.323.355c1.563 1.803 2.354 3.969 2.354 6.418 0 .159-.005.313-.012.465.304.301.588.624.853.97l.06-.06.569.947a9.81 9.81 0 0 1 1.403 5.109 9.764 9.764 0 0 1-1.272 4.862 9.494 9.494 0 0 1-1.647 2.158c-.212 2.188-1.101 4.114-2.622 5.724h.001c-1.789 1.899-4.113 2.91-6.687 2.91-.116 0-.235-.004-.356-.008a9.736 9.736 0 0 1-1.685 1.422l.001.001a8.917 8.917 0 0 1-5.085 1.557 9.026 9.026 0 0 1-3.862-.847 8.887 8.887 0 0 1-3.796.847 9.004 9.004 0 0 1-5.106-1.545 9.29 9.29 0 0 1-1.691-1.435c-.11.004-.22.007-.329.007-2.567 0-4.888-1.01-6.688-2.889a9.56 9.56 0 0 1-2.656-5.772 9.276 9.276 0 0 1-1.424-1.793l-.196-.333a9.829 9.829 0 0 1-1.261-4.858c0-1.836.466-3.554 1.401-5.107l.187-.3a9.257 9.257 0 0 1 1.249-1.542 8.913 8.913 0 0 1-.014-.49c0-2.593.936-4.95 2.708-6.792l.346-.342c1.754-1.657 3.943-2.539 6.341-2.539.117 0 .236.002.356.006.427-.453.9-.866 1.415-1.235l.275-.19a8.984 8.984 0 0 1 5.079-1.553c1.331 0 2.617.289 3.826.854a8.984 8.984 0 0 1 3.84-.854Z"/></g><path fill="url(#g)" fill-rule="evenodd" d="M236.291 54.967c.527-.931.79-1.941.79-3.036a6.1 6.1 0 0 0-.875-3.2 5.444 5.444 0 0 0-2.339-2.148c.234-.633.348-1.322.348-2.097 0-1.65-.548-3.058-1.657-4.224-1.109-1.167-2.439-1.75-3.996-1.75-.704 0-1.366.128-1.991.384a6.118 6.118 0 0 0-2.112-2.425 5.352 5.352 0 0 0-3.023-.924 5.3 5.3 0 0 0-3.022.931 6.012 6.012 0 0 0-2.112 2.425 5.25 5.25 0 0 0-1.991-.384c-1.557 0-2.894.59-4.018 1.75-1.116 1.159-1.671 2.574-1.671 4.224 0 .697.128 1.4.384 2.097-.981.463-1.756 1.18-2.339 2.148a6.065 6.065 0 0 0-.875 3.193c0 1.095.263 2.105.782 3.036a5.66 5.66 0 0 0 2.112 2.162c-.043.327-.064.59-.064.768 0 1.65.555 3.065 1.671 4.224 1.117 1.166 2.454 1.75 4.018 1.75.704 0 1.365-.129 1.991-.385.491 1.024 1.188 1.842 2.098 2.447.903.611 1.92.91 3.036.91a5.203 5.203 0 0 0 3.023-.932 6.011 6.011 0 0 0 2.112-2.425 5.247 5.247 0 0 0 1.991.384c1.557 0 2.887-.583 3.996-1.749 1.102-1.159 1.657-2.567 1.657-4.224 0-.348-.014-.604-.036-.768.889-.505 1.586-1.237 2.112-2.162Zm-7.409-5.454a1.296 1.296 0 0 0 0-1.842 1.296 1.296 0 0 0-1.842 0l-8.206 8.206-4.295-4.295a1.296 1.296 0 0 0-1.842 0 1.296 1.296 0 0 0 0 1.842l4.295 4.295a2.614 2.614 0 0 0 3.691 0l8.206-8.206h-.007Z" clip-rule="evenodd"/><path fill="url(#h)" fill-rule="evenodd" d="M215.406 65.165a6.844 6.844 0 0 1-1.323.128c-1.955 0-3.655-.733-5.041-2.184-1.373-1.422-2.07-3.178-2.07-5.205v-.057a7.263 7.263 0 0 1-1.863-2.169 7.596 7.596 0 0 1-.967-3.74c0-1.415.363-2.738 1.074-3.933a6.83 6.83 0 0 1 1.899-2.076 7.45 7.45 0 0 1-.143-1.43c0-2.026.697-3.782 2.07-5.212 1.393-1.45 3.093-2.183 5.041-2.183.456 0 .896.043 1.337.128.263-.377.555-.718.882-1.038a5.335 5.335 0 0 0-2.517-.64 5.3 5.3 0 0 0-3.022.931 5.997 5.997 0 0 0-2.112 2.425 5.256 5.256 0 0 0-1.992-.384c-1.557 0-2.894.583-4.017 1.75-1.117 1.159-1.671 2.574-1.671 4.224 0 .697.128 1.4.384 2.097-.982.463-1.764 1.181-2.34 2.148a6.14 6.14 0 0 0-.875 3.193c0 1.095.263 2.105.783 3.036a5.66 5.66 0 0 0 2.112 2.162c-.043.327-.064.59-.064.768 0 1.65.554 3.065 1.671 4.224 1.116 1.166 2.453 1.75 4.017 1.75.704 0 1.366-.129 1.992-.385.49 1.024 1.187 1.842 2.097 2.447.903.611 1.92.91 3.037.91a5.24 5.24 0 0 0 2.496-.626 7.735 7.735 0 0 1-.875-1.045v-.014Z" clip-rule="evenodd"/><rect width="36.978" height="5.689" x="108.533" y="61.156" fill="#fff" fill-opacity=".25" rx="1.629"/><rect width="73.956" height="2.844" x="108.533" y="69.688" fill="#fff" fill-opacity=".25" rx="1.422"/><rect width="27.733" height="2.844" x="143.378" y="93.156" fill="#fff" fill-opacity=".25" rx="1.422"/><rect width="34.844" height="2.844" x="143.378" y="99.555" fill="#fff" fill-opacity=".25" rx="1.422"/><rect width="24.178" height="2.844" x="143.378" y="105.957" fill="#fff" fill-opacity=".25" rx="1.422"/><rect width="7.822" height="2.844" x="173.245" y="93.156" fill="#fff" fill-opacity=".25" rx="1.422"/><rect width="9.956" height="2.844" x="181.066" y="99.555" fill="#fff" fill-opacity=".25" rx="1.422"/><rect width="7.111" height="2.844" x="168.977" y="105.957" fill="#fff" fill-opacity=".25" rx="1.422"/><rect width="27.733" height="39.111" x="108.534" y="89.598" fill="#fff" fill-opacity=".25" rx="1.629"/><path fill="url(#i)" d="m282.663 29.232 1.451-13.773L260.857-4l-.118 15.584 1.931 5.28-4.989 2.136-2.238 6.254-.888 3.725 1.265 4.374 3.605 1.674-6.304 3.384-4.032 3.247 2.341 4.699 4.921.426 15.582-7.28 10.73-10.27Z"/><path fill="#fff" d="M249.853 40.953c-.169.896-.009 1.708.256 2.378.953 2.387 3.603 3.671 6.16 2.985 4.768-1.277 16.714-5.148 24.69-13.522 2.277-2.38 3.738-5.402 4.247-8.745 1.092-7.242 2.203-20.866-2.634-30.732l-1.62.794c4.622 9.42 3.529 22.63 2.467 29.666-.453 2.967-1.75 5.656-3.761 7.77-7.66 8.038-19.232 11.781-23.852 13.022-1.674.448-3.4-.373-4.017-1.91-.206-.517-.826-2.081 2.02-4.065 5.843-4.077 12.011-5.633 12.074-5.65l-.433-1.754c-.265.065-6.559 1.653-12.676 5.922-1.895 1.321-2.698 2.655-2.921 3.84Z"/><path fill="#fff" d="M261.319 22.938a3.21 3.21 0 0 0 .091 1.47c.538 1.908 2.554 3.92 6.006 5.976 2.471 1.477 4.766 2.428 4.864 2.47l.691-1.673c-2.448-1.012-8.989-4.293-9.818-7.263-.203-.728.056-1.005.367-1.195 1.59-.974 6.357-.165 8.524 1.852l1.229-1.322c-2.661-2.473-8.259-3.555-10.695-2.068-.696.425-1.124 1.034-1.26 1.758l.001-.005Z"/><path fill="#fff" d="m269.233 21.675 1.352 1.197c.129-.15 3.197-3.65 2.371-6.762l-1.746.462c.479 1.8-1.267 4.29-1.98 5.098l.003.005ZM254.765 27.532c-.39 2.069.476 4.503 2.106 5.931 1.31 1.148 2.917 1.478 4.532.936l-.575-1.713c-1.251.422-2.195-.086-2.763-.584-1.137-.996-1.787-2.814-1.519-4.24l.003-.017c.357-1.846 4.43-2.652 5.826-2.789l-.177-1.799c-.688.069-6.748.753-7.427 4.244l-.006.026v.005Z"/><path fill="#fff" d="M256.049 21.813c-.422 2.242-.181 4.186-.164 4.318l1.791-.238c-.005-.042-.547-4.47 1.574-7.142.933-1.171 2.215-1.827 3.916-1.998 1.72-.173 2.888.047 3.211.604.492.851-.518 2.748-1.079 3.534l1.465 1.058c.249-.344 2.384-3.409 1.182-5.497-.725-1.258-2.391-1.76-4.959-1.503-2.188.222-3.926 1.123-5.156 2.68-.996 1.26-1.52 2.775-1.784 4.174l.003.01Z"/><path fill="#fff" d="M261.088-4.941c-1.859 9.874 1.922 20.59 2.085 21.043l1.7-.608c-.04-.104-3.776-10.715-2.01-20.097l-1.776-.334.001-.004Z"/><path stroke="#A9EDEE" stroke-dasharray="6.4 6.4" stroke-width=".356" d="M19.59 208.409c3.164-41.718 69.673-89.121 133.718-52.172C161 160.675 131.364 189.35 117 166s78.389-75.422 174.691-59.981"/><path fill="#fff" fill-opacity=".44" d="m72.525 150.8-6.788-18.137 3.092-1.157 5.813 15.535 7.987-2.989.973 2.602-11.077 4.146Zm20.243-7.195c-5.1 1.909-9.152-.363-11.428-6.443-2.285-6.106-.71-10.454 4.39-12.363 5.075-1.899 9.117.347 11.402 6.453 2.276 6.08.711 10.454-4.364 12.353Zm-.935-2.499c2.989-1.118 3.744-4.044 2.028-8.63-1.717-4.585-4.217-6.322-7.205-5.204-3.015 1.128-3.76 4.08-2.044 8.665 1.716 4.586 4.207 6.297 7.221 5.169Zm19.297-4.373c-5.178 1.938-8.959-.318-11.283-6.527-2.285-6.105-.804-10.389 4.322-12.308 3.581-1.34 6.697-.627 8.55 1.969l-3.452 1.292c-1.078-1.153-2.498-1.415-4.25-.759-2.911 1.09-3.595 4.048-1.889 8.608 1.736 4.637 3.972 6.296 7.193 5.091 1.623-.607 2.715-1.692 2.976-2.876l-1.33-3.555-3.942 1.475-.858-2.293 6.93-2.594 2.5 6.76c-.343 2.301-2.504 4.608-5.467 5.717Zm17.212-6.442c-5.101 1.909-9.153-.363-11.428-6.443-2.285-6.105-.711-10.454 4.39-12.363 5.075-1.899 9.117.347 11.402 6.453 2.275 6.08.711 10.454-4.364 12.353Zm-.935-2.498c2.988-1.119 3.743-4.045 2.027-8.63-1.716-4.586-4.217-6.323-7.205-5.205-3.014 1.128-3.76 4.08-2.043 8.666 1.716 4.585 4.206 6.297 7.221 5.169Zm16.316-3.64-.849-2.267 3.066-1.147-5.091-13.602-3.066 1.147-.848-2.267 9.223-3.452.848 2.267-3.066 1.148 5.091 13.602 3.066-1.147.848 2.267-9.222 3.451Zm16.344-6.117-5.814-15.534-5.668 2.121-.974-2.602 14.427-5.4.974 2.603-5.668 2.121 5.814 15.534-3.091 1.157Zm6.176-9.36-.925-2.473 7.728-2.893.926 2.473-7.729 2.893Zm15.042 1.419-10.342-16.806 2.885-1.08 8.42 13.708-2.005-16.108 3.915-1.466 9.038 13.476-2.649-15.867 2.808-1.05 3.233 19.466-4.045 1.514-9.295-13.85 2.056 16.559-4.019 1.504Zm19.302-7.224-.372-20.537 4.25-1.59 13.203 15.735-3.272 1.224-3.088-3.778-7.652 2.864.152 4.877-3.221 1.205Zm2.975-8.925 5.951-2.228L203.217 84l.345 9.946Zm16.565 1.612-6.787-18.136 3.091-1.157 5.814 15.534 7.986-2.989.974 2.602-11.078 4.146Zm13.611-5.094-6.788-18.136 3.092-1.157 5.813 15.535 7.987-2.99.973 2.603-11.077 4.145Zm13.61-5.093-6.787-18.137 11.799-4.415.954 2.55-8.707 3.259 1.918 5.126 8.167-3.056.906 2.422-8.166 3.056 2.044 5.462 8.81-3.298.964 2.576-11.902 4.455Zm19.062-7.134-5.814-15.535-5.668 2.121-.973-2.601 14.426-5.4.974 2.602-5.668 2.121 5.814 15.535-3.091 1.157Z"/><defs><linearGradient id="b" x1="250.673" x2="201.718" y1="137.851" y2="18.145" gradientUnits="userSpaceOnUse"><stop stop-color="#0B3EE3"/><stop offset=".14" stop-color="#436FFF"/><stop offset=".302" stop-color="#1E53FF"/><stop offset=".444" stop-color="#0B3EE3"/><stop offset=".744" stop-color="#2A5CFF"/><stop offset="1" stop-color="#0B3EE3"/></linearGradient><linearGradient id="c" x1="171.878" x2="97.121" y1="50.948" y2="144.899" gradientUnits="userSpaceOnUse"><stop stop-color="#30CED1"/><stop offset="1" stop-color="#B6F1F2"/></linearGradient><linearGradient id="e" x1="239.139" x2="195.006" y1="28.96" y2="63.96" gradientUnits="userSpaceOnUse"><stop stop-color="#0B3EE3"/><stop offset=".14" stop-color="#436FFF"/><stop offset=".302" stop-color="#1E53FF"/><stop offset=".444" stop-color="#0B3EE3"/><stop offset=".744" stop-color="#2A5CFF"/><stop offset="1" stop-color="#0B3EE3"/></linearGradient><linearGradient id="f" x1="194.426" x2="217.774" y1="49.864" y2="85.893" gradientUnits="userSpaceOnUse"><stop stop-color="#6086FF"/><stop offset="1" stop-color="#003DFF"/></linearGradient><linearGradient id="g" x1="231.771" x2="211.427" y1="38.122" y2="70.168" gradientUnits="userSpaceOnUse"><stop stop-color="#3ABDBF"/><stop offset=".27" stop-color="#81F2F4"/><stop offset=".449" stop-color="#BDF4F5"/><stop offset=".641" stop-color="#86ECED"/><stop offset=".837" stop-color="#A8EBEC"/><stop offset="1" stop-color="#8AF8FA"/></linearGradient><linearGradient id="h" x1="231.771" x2="211.427" y1="38.122" y2="70.168" gradientUnits="userSpaceOnUse"><stop stop-color="#3ABDBF"/><stop offset=".27" stop-color="#81F2F4"/><stop offset=".449" stop-color="#BDF4F5"/><stop offset=".641" stop-color="#86ECED"/><stop offset=".837" stop-color="#A8EBEC"/><stop offset="1" stop-color="#8AF8FA"/></linearGradient><linearGradient id="i" x1="250.5" x2="278" y1="46.283" y2="9.283" gradientUnits="userSpaceOnUse"><stop stop-color="#3665FF"/><stop offset="1" stop-color="#3C69FB"/></linearGradient><filter id="a" width="157.892" height="105.27" x="87.898" y="46.453" color-interpolation-filters="sRGB" filterUnits="userSpaceOnUse"><feFlood flood-opacity="0" result="BackgroundImageFix"/><feColorMatrix in="SourceAlpha" result="hardAlpha" values="0 0 0 0 0 0 0 0 0 0 0 0 0 0 0 0 0 0 127 0"/><feOffset dy="3.086"/><feGaussianBlur stdDeviation="3.857"/><feComposite in2="hardAlpha" operator="out"/><feColorMatrix values="0 0 0 0 0 0 0 0 0 0 0 0 0 0 0 0 0 0 0.15 0"/><feBlend in2="BackgroundImageFix" result="effect1_dropShadow_16612_83953"/><feBlend in="SourceGraphic" in2="effect1_dropShadow_16612_83953" result="shape"/></filter><filter id="d" width="65.332" height="57.674" x="184.941" y="25.812" color-interpolation-filters="sRGB" filterUnits="userSpaceOnUse"><feFlood flood-opacity="0" result="BackgroundImageFix"/><feColorMatrix in="SourceAlpha" result="hardAlpha" values="0 0 0 0 0 0 0 0 0 0 0 0 0 0 0 0 0 0 127 0"/><feOffset dy="3.449"/><feGaussianBlur stdDeviation="4.312"/><feComposite in2="hardAlpha" operator="out"/><feColorMatrix values="0 0 0 0 0 0 0 0 0 0 0 0 0 0 0 0 0 0 0.15 0"/><feBlend in2="BackgroundImageFix" result="effect1_dropShadow_16612_83953"/><feBlend in="SourceGraphic" in2="effect1_dropShadow_16612_83953" result="shape"/></filter></defs></svg>