<svg width="328" height="205" viewBox="0 0 328 205" fill="none" xmlns="http://www.w3.org/2000/svg">
<path fill-rule="evenodd" clip-rule="evenodd" d="M270.6 0.214656C270.6 9.06362 264.073 16.2371 256.022 16.2371C247.971 16.2371 241.444 9.06362 241.444 0.214656C241.444 0.142993 241.445 0.0714403 241.446 0H14.5778C6.52669 0 0 7.17349 0 16.0224L0 188.978C0 197.827 6.52669 205 14.5778 205H241.462C241.45 204.739 241.444 204.477 241.444 204.213C241.444 195.364 247.971 188.191 256.022 188.191C264.073 188.191 270.6 195.364 270.6 204.213C270.6 204.477 270.594 204.739 270.583 205H313.422C321.473 205 328 197.827 328 188.978V16.0225C328 7.1735 321.473 0 313.422 0H270.599C270.6 0.0714403 270.6 0.142993 270.6 0.214656Z" fill="#2B2E38"/>
<mask id="mask0_1544_681" style="mask-type:alpha" maskUnits="userSpaceOnUse" x="0" y="0" width="328" height="205">
<path fill-rule="evenodd" clip-rule="evenodd" d="M270.6 0.214656C270.6 9.06362 264.073 16.2371 256.022 16.2371C247.971 16.2371 241.444 9.06362 241.444 0.214656C241.444 0.142993 241.445 0.0714403 241.446 0H14.5778C6.52669 0 0 7.17349 0 16.0224L0 188.978C0 197.827 6.52669 205 14.5778 205H241.462C241.45 204.739 241.444 204.477 241.444 204.213C241.444 195.364 247.971 188.191 256.022 188.191C264.073 188.191 270.6 195.364 270.6 204.213C270.6 204.477 270.594 204.739 270.583 205H313.422C321.473 205 328 197.827 328 188.978V16.0225C328 7.1735 321.473 0 313.422 0H270.599C270.6 0.0714403 270.6 0.142993 270.6 0.214656Z" fill="#E8EBF1"/>
</mask>
<g mask="url(#mask0_1544_681)">
<path opacity="0.2" d="M394.491 118.287C395.084 91.7084 371.457 67.3686 352.879 55.7177C333.256 45.359 298.41 35.9323 275.539 50.4359C251.778 63.139 248.763 124.719 248 146.856C248.805 168.929 251.806 174.621 275.539 187.274C298.403 201.757 354.885 205.492 374.479 195.041C393.545 183.122 395.896 145.825 394.491 118.287Z" fill="#A58DFF"/>
<path opacity="0.2" d="M-67.9421 -12.8649C-68.7821 -50.5049 -38.0521 -99.2249 -11.7321 -115.715C16.0579 -130.395 94.2679 -157.055 126.678 -136.505C160.308 -118.505 125.298 -43.2449 126.388 -11.8949C125.248 19.3651 134.128 66.9151 100.538 84.8351C68.1479 105.345 30.9079 73.6951 3.14789 58.9151C-23.8621 42.0151 -69.9321 26.1351 -67.9421 -12.8649Z" fill="#A58DFF"/>
<path opacity="0.2" d="M55.894 61.5579C80.2103 67.6847 106.05 96.0439 111.976 115.864C116.48 136.306 119.747 191.244 100.812 208.414C83.299 226.819 41.1771 191.012 20.8552 186.16C0.98596 179.891 -31.1171 177.172 -36.6742 152.431C-44.1067 128.002 -17.19 109.697 -2.78386 94.4904C12.8506 80.1411 31.2057 53.3733 55.894 61.5579Z" fill="#A58DFF"/>
</g>
<path d="M14.5781 1.50171H239.987C240.589 10.4526 247.423 17.7166 256.022 17.7166C264.622 17.7164 271.455 10.4525 272.057 1.50171H313.422C320.516 1.50171 326.5 7.85911 326.5 16.0017V189C326.5 197.142 320.516 203.5 313.422 203.5H272.085C271.742 194.289 264.804 186.715 256.022 186.715C247.241 186.715 240.302 194.289 239.959 203.5H14.5781C7.48383 203.5 1.5 197.142 1.5 189V16.0017C1.5 7.85911 7.48383 1.50171 14.5781 1.50171Z" stroke="#99A3C1" stroke-width="3"/>
<path d="M14.5781 1.00171H240.462C240.837 9.94501 247.579 17.2166 256.022 17.2166C264.465 17.2164 271.208 9.94493 271.583 1.00171H313.422C320.835 1.00171 327 7.62779 327 16.0017V189C327 197.374 320.835 204 313.422 204H271.598C271.493 194.797 264.644 187.215 256.022 187.215C247.4 187.215 240.551 194.797 240.446 204H14.5781C7.1649 204 1 197.374 1 189V16.0017C1 7.62779 7.1649 1.00171 14.5781 1.00171Z" stroke="#0E0F13" stroke-width="2"/>
</svg>
