<svg xmlns="http://www.w3.org/2000/svg" width="120" height="152" viewBox="0 0 120 152">
  <path fill="#00C5CA" d="M189.485281,238.898594 C189.707397,238.770211 189.916575,238.611006 190.106602,238.420979 L195.409903,233.117678 C195.995689,232.531891 196.945436,232.531891 197.531223,233.117678 C198.117009,233.703464 198.117009,234.653212 197.531223,235.238998 L192.227922,240.542299 C190.999614,241.770607 189.593316,243.379247 187.984316,243.319764 C186.523955,243.265776 184.857478,241.657136 183.742641,240.542299 L178.43934,235.238998 C177.853553,234.653212 177.853553,233.703464 178.43934,233.117678 C179.025126,232.531891 179.974874,232.531891 180.56066,233.117678 L185.863961,238.420979 C186.053988,238.611006 186.263166,238.770211 186.485281,238.898594 L186.485281,223.5 C186.485281,222.671573 187.156854,222 187.985281,222 C188.813708,222 189.485281,222.671573 189.485281,223.5 L189.485281,238.898594 Z M177.237025,274.102339 C177.733187,274.288743 178.13432,274.664291 178.351791,275.147661 C178.570175,275.630117 178.58845,276.179276 178.401133,276.674525 C176.775585,280.910636 175.931287,285.40625 175.907529,289.942982 C175.907529,291.044956 175.013889,291.93951 173.911915,291.93951 C172.809028,291.93951 171.915387,291.044956 171.915387,289.942982 C171.939145,284.924708 172.871162,279.95212 174.666667,275.265534 C175.055007,274.234832 176.206323,273.713999 177.237025,274.102339 Z M180.339181,264.741959 C181.038194,263.918677 182.265351,263.79989 183.108735,264.475146 C183.95212,265.149488 184.105629,266.37299 183.455044,267.235563 C182.786184,268.118238 182.170322,269.040205 181.611111,269.995979 C181.254751,270.62829 180.584064,271.01663 179.858553,271.012061 C179.133041,271.007493 178.466923,270.609101 178.1197,269.972222 C177.771564,269.336257 177.797149,268.56049 178.18549,267.948282 C178.835161,266.835344 179.554276,265.764437 180.339181,264.741959 Z M233.794956,263.993604 C232.692069,263.993604 231.798428,263.099964 231.798428,261.99799 C231.798428,260.895102 232.692069,260.001462 233.794956,260.001462 L235.79057,260.001462 C236.893458,260.001462 237.787098,260.895102 237.787098,261.99799 C237.787098,263.099964 236.893458,263.993604 235.79057,263.993604 L233.794956,263.993604 Z M245.771382,260.001462 C246.873355,260.001462 247.767909,260.895102 247.767909,261.99799 C247.767909,263.099964 246.873355,263.993604 245.771382,263.993604 L243.774854,263.993604 C242.67288,263.993604 241.77924,263.099964 241.77924,261.99799 C241.77924,260.895102 242.67288,260.001462 243.774854,260.001462 L245.771382,260.001462 Z M239.782712,263.993604 C240.8856,263.993604 241.77924,264.887244 241.77924,265.990131 L241.77924,267.985745 C241.77924,269.088633 240.8856,269.982273 239.782712,269.982273 C238.680738,269.982273 237.787098,269.088633 237.787098,267.985745 L237.787098,265.990131 C237.787098,264.887244 238.680738,263.993604 239.782712,263.993604 Z M239.782712,260.001462 C238.680738,260.001462 237.787098,259.107822 237.787098,258.004934 L237.787098,256.00932 C237.787098,254.906433 238.680738,254.012792 239.782712,254.012792 C240.8856,254.012792 241.77924,254.906433 241.77924,256.00932 L241.77924,258.004934 C241.77924,259.107822 240.8856,260.001462 239.782712,260.001462 Z M135.986111,347.829496 C137.088085,347.829496 137.981725,348.72405 137.981725,349.826023 C137.981725,350.927997 137.088085,351.822551 135.986111,351.822551 L133.989583,351.822551 C132.88761,351.822551 131.993969,350.927997 131.993969,349.826023 C131.993969,348.72405 132.88761,347.829496 133.989583,347.829496 L135.986111,347.829496 Z M147.962537,349.826023 C147.962537,350.927997 147.068896,351.822551 145.966009,351.822551 L143.970395,351.822551 C142.867507,351.822551 141.973867,350.927997 141.973867,349.826023 C141.973867,348.72405 142.867507,347.829496 143.970395,347.829496 L145.966009,347.829496 C147.068896,347.829496 147.962537,348.72405 147.962537,349.826023 Z M137.981725,355.814693 L137.981725,353.818165 C137.981725,352.716192 138.875366,351.822551 139.978253,351.822551 C141.080227,351.822551 141.973867,352.716192 141.973867,353.818165 L141.973867,355.814693 C141.973867,356.916667 141.080227,357.810307 139.978253,357.810307 C138.875366,357.810307 137.981725,356.916667 137.981725,355.814693 Z M139.978253,341.84174 C141.080227,341.84174 141.973867,342.73538 141.973867,343.837354 L141.973867,345.833882 C141.973867,346.935855 141.080227,347.829496 139.978253,347.829496 C138.875366,347.829496 137.981725,346.935855 137.981725,345.833882 L137.981725,343.837354 C137.981725,342.73538 138.875366,341.84174 139.978253,341.84174 Z M231.798428,361.802449 C232.901316,361.802449 233.794956,362.696089 233.794956,363.798977 C233.794956,364.90095 232.901316,365.794591 231.798428,365.794591 L229.802814,365.794591 C228.699927,365.794591 227.806287,364.90095 227.806287,363.798977 C227.806287,362.696089 228.699927,361.802449 229.802814,361.802449 L231.798428,361.802449 Z M239.782712,365.794591 C238.680738,365.794591 237.787098,364.90095 237.787098,363.798977 C237.787098,362.696089 238.680738,361.802449 239.782712,361.802449 L241.77924,361.802449 C242.881214,361.802449 243.774854,362.696089 243.774854,363.798977 C243.774854,364.90095 242.881214,365.794591 241.77924,365.794591 L239.782712,365.794591 Z M233.794956,369.786732 L233.794956,367.791118 C233.794956,366.688231 234.688596,365.794591 235.79057,365.794591 C236.893458,365.794591 237.787098,366.688231 237.787098,367.791118 L237.787098,369.786732 C237.787098,370.88962 236.893458,371.78326 235.79057,371.78326 C234.688596,371.78326 233.794956,370.88962 233.794956,369.786732 Z M235.79057,355.814693 C236.893458,355.814693 237.787098,356.708333 237.787098,357.810307 L237.787098,359.806835 C237.787098,360.908808 236.893458,361.802449 235.79057,361.802449 C234.688596,361.802449 233.794956,360.908808 233.794956,359.806835 L233.794956,357.810307 C233.794956,356.708333 234.688596,355.814693 235.79057,355.814693 Z M237.910453,321.335526 C243.425804,321.539291 247.791667,326.069627 247.791667,331.588633 C247.791667,337.107639 243.425804,341.637975 237.910453,341.84174 L216.578216,341.84174 C213.311586,341.802449 210.344664,339.932018 208.90095,337.000731 L203.853436,352.143275 L203.853436,365.794591 C203.853436,370.204313 200.278874,373.778874 195.869152,373.778874 L179.899671,373.778874 C175.489949,373.778874 171.915387,370.204313 171.915387,365.794591 L171.915387,352.143275 L166.114949,334.739218 C150.330044,328.311952 140.000183,312.974781 139.978253,295.931652 C139.978253,295.244517 139.995614,294.583882 140.025767,293.935124 L136.734466,293.935124 C131.821272,293.833699 127.915936,289.776681 128.001827,284.862573 C127.952485,280.714181 130.740314,277.06652 134.756213,276.02394 C134.744335,275.822917 134.737939,275.623721 134.737939,275.425439 C134.623721,269.241228 139.53326,264.128838 145.716557,263.993604 C148.094116,264.006396 150.397661,264.8178 152.258041,266.297149 C160.12171,258.440789 170.780519,254.022844 181.896199,254.012792 C183.136148,254.012792 184.366959,254.078582 185.568531,254.190972 C187.101791,253.972588 188.656981,253.972588 190.190241,254.190972 C191.413743,254.069444 192.642727,254.010051 193.872624,254.012792 C208.254021,254.001827 221.635782,261.370248 229.316703,273.528509 C236.996711,285.686769 237.903143,300.935307 231.717105,313.917763 C234.189693,315.676718 235.86367,318.343933 236.37171,321.335526 L237.910453,321.335526 Z M231.798428,295.931652 C231.765534,277.236477 218.123355,261.350146 199.647478,258.491959 C208.140716,265.405336 213.833333,279.597588 213.833333,295.931652 C213.833333,311.935855 208.318896,326.330044 199.657529,333.370431 C202.521199,332.934576 205.324561,332.169773 208.012793,331.090643 C208.606725,327.614766 211.186221,324.811404 214.599964,323.930556 C214.588085,323.729532 214.582602,323.530336 214.582602,323.332054 C214.467471,317.147844 219.37701,312.035453 225.561221,311.900219 C226.416484,311.911184 227.267178,312.027229 228.094116,312.245614 C230.550256,307.158808 231.816703,301.579496 231.798428,295.931652 Z M200.419591,349.826023 L204.921601,336.319993 C201.323282,337.322368 197.607091,337.836806 193.872624,337.849598 C192.633589,337.849598 191.399123,337.783808 190.20212,337.671418 C190.096126,337.696089 189.986477,337.683297 189.880482,337.696089 L189.880482,349.826023 L200.419591,349.826023 Z M189.821089,258.159357 C188.538194,257.955592 187.230629,257.955592 185.948648,258.159357 C185.911184,258.165753 185.873721,258.170322 185.836257,258.173063 C177.872076,259.482456 170.769554,268.548611 167.641813,281.360197 C168.295139,284.095943 167.802632,286.979715 166.278509,289.344481 C166.049159,291.532895 165.9322,293.73136 165.927632,295.931652 C165.927632,311.281615 171.498721,325.403509 179.810124,331.156433 C179.870431,331.188414 179.928911,331.22405 179.985563,331.262427 C181.731725,332.495066 183.73008,333.324744 185.836257,333.689327 L185.948648,333.703947 C187.230629,333.906798 188.538194,333.906798 189.821089,333.703947 L189.942617,333.6875 C192.044225,333.322917 194.038925,332.495979 195.78326,331.267909 C195.84174,331.228618 195.902047,331.192069 195.965095,331.15826 C204.272844,325.395285 209.841192,311.277047 209.841192,295.931652 C209.841192,276.544773 201.098502,259.983187 189.92617,258.173063 L189.821089,258.159357 Z M164.928911,276.337354 C166.887062,269.447734 170.770468,263.259869 176.123172,258.500183 C168.088633,259.741045 160.665387,263.53125 154.949013,269.311586 C155.737573,270.568896 156.276681,271.967836 156.538012,273.428911 L158.076754,273.428911 C160.658077,273.439876 163.127924,274.487939 164.928911,276.337354 Z M131.993969,284.862573 C131.90625,287.572734 134.025219,289.843385 136.734466,289.942982 L158.066703,289.942982 C161.411915,289.826937 164.033443,287.028143 163.931104,283.682931 C164.034357,280.336806 161.411915,277.537098 158.066703,277.421053 L154.699561,277.421053 C153.596674,277.421053 152.703034,276.527412 152.703034,275.425439 C152.819993,271.445175 149.69682,268.119152 145.716557,267.985745 C141.737207,268.119152 138.614035,271.445175 138.73008,275.425439 C138.740131,276.069627 138.829678,276.711075 138.997807,277.333333 C139.151316,277.944627 139.006031,278.592471 138.607639,279.081323 C138.209247,279.569262 137.603436,279.840643 136.973867,279.812317 C136.90625,279.81049 136.690607,279.786732 136.620248,279.776681 C133.95212,279.932018 131.897113,282.191703 131.993969,284.862573 Z M143.970395,295.931652 C144.004203,314.625914 157.646382,330.512244 176.121345,333.370431 C167.449927,326.328216 161.93549,311.935855 161.93549,295.931652 C161.93549,294.979532 161.974781,294.021016 162.014985,293.0625 C160.776864,293.635417 159.430007,293.932383 158.066703,293.935124 L144.019737,293.935124 C143.987756,294.580227 143.970395,295.240863 143.970395,295.931652 Z M181.896199,337.849598 C178.162646,337.837719 174.447368,337.32511 170.849964,336.324561 L175.349233,349.826023 L185.888341,349.826023 L185.888341,337.696089 C185.788743,337.683297 185.686404,337.687865 185.588633,337.674159 C184.361476,337.79386 183.128838,337.853253 181.896199,337.849598 Z M195.869152,369.786732 C198.074013,369.786732 199.861294,367.999452 199.861294,365.794591 L199.861294,361.802449 L187.884868,361.802449 C186.781981,361.802449 185.888341,360.908808 185.888341,359.806835 C185.888341,358.703947 186.781981,357.810307 187.884868,357.810307 L199.861294,357.810307 L199.861294,353.818165 L175.907529,353.818165 L175.907529,357.810307 L179.899671,357.810307 C181.002559,357.810307 181.896199,358.703947 181.896199,359.806835 C181.896199,360.908808 181.002559,361.802449 179.899671,361.802449 L175.907529,361.802449 L175.907529,365.794591 C175.907529,367.999452 177.69481,369.786732 179.899671,369.786732 L195.869152,369.786732 Z M237.910453,337.849598 L237.920504,337.849598 C241.221857,337.636696 243.791301,334.897295 243.791301,331.588633 C243.791301,328.279971 241.221857,325.54057 237.920504,325.327668 L234.553363,325.327668 C233.450475,325.327668 232.556835,324.434028 232.556835,323.332054 C232.722222,320.730629 231.427449,318.252559 229.197917,316.902047 C226.968385,315.551535 224.173246,315.551535 221.943713,316.902047 C219.714181,318.252559 218.419408,320.730629 218.584795,323.332054 C218.593933,323.976243 218.684393,324.61769 218.851608,325.239949 C219.002376,325.85307 218.854349,326.5 218.452303,326.987025 C218.049342,327.468567 217.446272,327.739035 216.817617,327.718933 C216.75,327.717105 216.534357,327.693348 216.464912,327.683297 C213.818713,327.927266 211.803911,330.162281 211.833151,332.818531 C211.863304,335.475695 213.927449,337.664108 216.578216,337.849598 L237.910453,337.849598 Z" transform="translate(-128 -222)"/>
</svg>
