<svg width="20" height="20" viewBox="0 0 20 20" fill="none" xmlns="http://www.w3.org/2000/svg">
<path d="M10.8203 16.876H4.6875C2.10281 16.876 0 14.7732 0 12.1885V4.68848C0 2.10379 2.10281 0.000976562 4.6875 0.000976562H15.3125C17.8972 0.000976562 20 2.10379 20 4.68848V6.09473C19.9587 7.13129 18.4784 7.13051 18.4375 6.09473V4.68848C18.4375 2.96535 17.0356 1.56348 15.3125 1.56348H4.6875C2.96438 1.56348 1.5625 2.96535 1.5625 4.68848V12.1885C1.5625 13.9116 2.96438 15.3135 4.6875 15.3135H10.8203C11.8569 15.3548 11.8561 16.8351 10.8203 16.876ZM11.0938 8.2041C11.0938 7.77262 10.744 7.42285 10.3125 7.42285H4.6875C3.65094 7.4641 3.65172 8.94445 4.6875 8.98535H10.3125C10.744 8.98535 11.0938 8.63559 11.0938 8.2041ZM9.02344 11.3291C9.02344 10.8976 8.67367 10.5479 8.24219 10.5479H4.6875C3.65094 10.5891 3.65172 12.0695 4.6875 12.1104H8.24219C8.67367 12.1104 9.02344 11.7606 9.02344 11.3291ZM16.9573 15.305L17.1095 15.0759L17.3791 15.1303C17.8748 15.2302 18.384 15.0765 18.7415 14.7191C19.0989 14.3616 19.2527 13.8523 19.1527 13.3567L19.0983 13.0871L19.3274 12.9349C20.2184 12.3609 20.2182 11.0004 19.3274 10.4266L19.0983 10.2744L19.1527 10.0048C19.2527 9.50922 19.0989 8.99992 18.7414 8.64246C18.3839 8.28496 17.8746 8.13129 17.3791 8.23121L17.1094 8.28563L16.9572 8.05652C16.9572 8.05652 16.9572 8.05652 16.9572 8.05649C16.3832 7.16547 15.0228 7.1657 14.4489 8.05652L14.2968 8.28563L14.0271 8.23121C13.5315 8.13129 13.0222 8.28496 12.6648 8.64246C12.3073 8.99996 12.1536 9.50922 12.2535 10.0048L12.3079 10.2745L12.0788 10.4266C11.1878 11.0006 11.188 12.3611 12.0788 12.9349L12.3079 13.0872L12.2535 13.3568C12.1535 13.8523 12.3073 14.3616 12.6647 14.7191C13.0222 15.0766 13.5315 15.2302 14.0271 15.1304L14.2968 15.0759L14.4489 15.3051C14.7287 15.7262 15.1975 15.9776 15.703 15.9776C16.2086 15.9776 16.6775 15.7261 16.9573 15.305ZM14.0253 13.5366L13.8021 13.5816L13.8471 13.3585C13.9687 12.7559 13.7164 12.1467 13.2043 11.8066L13.0147 11.6806L13.2043 11.5547C13.7164 11.2145 13.9687 10.6054 13.8471 10.0028L13.8021 9.77961L14.0253 9.82465C14.6279 9.94621 15.2371 9.69387 15.5772 9.1818L15.7031 8.99219L15.8291 9.18184C16.1692 9.69387 16.7784 9.94617 17.381 9.82465L17.6042 9.77961L17.5591 10.0028C17.4376 10.6054 17.6899 11.2145 18.202 11.5546L18.3916 11.6806L18.202 11.8066C17.6899 12.1467 17.4376 12.7559 17.5591 13.3585L17.6042 13.5816L17.381 13.5366C16.7782 13.4152 16.1692 13.6675 15.8291 14.1795L15.7031 14.3691L15.5772 14.1795C15.2938 13.7529 14.8237 13.5065 14.3261 13.5065C14.2266 13.5065 14.1258 13.5164 14.0253 13.5366ZM17.1306 8.31738H17.131H17.1306ZM16.0938 5.0791C16.0938 4.64762 15.744 4.29785 15.3125 4.29785H4.6875C3.65094 4.3391 3.65172 5.81945 4.6875 5.86035H15.3125C15.744 5.86035 16.0938 5.51059 16.0938 5.0791ZM17.5935 19.8903C18.0825 19.6788 18.3984 19.1979 18.3984 18.6652V17.1885C18.3572 16.1519 16.8768 16.1527 16.8359 17.1885V18.1447L16.1941 17.552C15.8948 17.2756 15.4333 17.2756 15.134 17.552L14.4922 18.1448V17.1885C14.4509 16.152 12.9706 16.1527 12.9297 17.1885V18.6652C12.9297 19.198 13.2456 19.6788 13.7346 19.8903C14.2223 20.1012 14.7873 20.0032 15.1754 19.6406L15.6641 19.1894L16.1527 19.6406C16.4049 19.8762 16.7318 20.0001 17.0637 20.0001C17.2425 20.0001 17.4227 19.9641 17.5935 19.8903Z" fill="#CCD4DC"/>
</svg>
