<svg fill="none" xmlns="http://www.w3.org/2000/svg" viewBox="0 0 24 24">
  <path
    d="M21.85 5H1.904c-.07 0-.138.002-.207.004-.15.004-.303.012-.452.038a1.55 1.55 0 0 0-.429.138 1.44 1.44 0 0 0-.63.616c-.07.134-.115.271-.142.42a2.855 2.855 0 0 0-.04.44A9.714 9.714 0 0 0 0 6.858v11.284c0 .068.002.135.003.203.005.146.013.295.04.44a1.403 1.403 0 0 0 .772 1.035c.138.068.278.111.43.138.148.026.3.035.45.039A11.013 11.013 0 0 0 2.15 20h19.948l.207-.003a3.11 3.11 0 0 0 .452-.04c.15-.026.291-.069.428-.137a1.436 1.436 0 0 0 .631-.616c.07-.134.115-.271.141-.42.027-.144.036-.293.04-.44.002-.067.003-.134.003-.202l.001-.24V6.858a9.1 9.1 0 0 0-.004-.202 2.845 2.845 0 0 0-.04-.44 1.415 1.415 0 0 0-.772-1.035 1.55 1.55 0 0 0-.428-.139 3.092 3.092 0 0 0-.452-.038L22.097 5h-.246Z"
    fill="#000"
  />
  <path
    d="M21.85 5.5h.243c.066 0 .131.002.197.003.115.003.25.01.375.031.109.02.2.049.288.092a.928.928 0 0 1 .406.397.957.957 0 0 1 .094.281c.022.121.028.253.031.365a31.082 31.082 0 0 1 .004.43V18.14l-.004.191c-.003.113-.009.244-.032.366a.909.909 0 0 1-.5.677 1.02 1.02 0 0 1-.286.092 2.67 2.67 0 0 1-.373.03l-.2.004H1.906c-.067 0-.133-.002-.196-.003a2.679 2.679 0 0 1-.375-.031c-.109-.02-.2-.048-.288-.092a.922.922 0 0 1-.5-.678 2.416 2.416 0 0 1-.032-.365 9.128 9.128 0 0 1-.003-.192V6.861l.003-.192c.003-.112.01-.243.032-.366a.903.903 0 0 1 .5-.677c.088-.043.18-.072.288-.092.125-.022.26-.028.375-.03l.196-.004h19.945"
    fill="#fff"
  />
  <path
    d="M6.552 10.045c.205-.25.345-.588.308-.932a1.34 1.34 0 0 0-.88.445c-.191.215-.36.566-.316.896.338.028.675-.165.888-.409ZM6.856 10.518c-.49-.028-.907.272-1.141.272-.235 0-.593-.257-.981-.25a1.451 1.451 0 0 0-1.23.729c-.527.886-.139 2.202.374 2.924.249.357.548.75.944.736.373-.014.52-.236.973-.236.454 0 .585.236.98.229.41-.007.667-.357.916-.715.285-.407.402-.8.41-.822-.008-.007-.791-.3-.798-1.18-.008-.736.614-1.086.644-1.108-.352-.507-.9-.564-1.09-.579ZM11.126 9.522c1.066 0 1.808.717 1.808 1.761 0 1.049-.757 1.77-1.835 1.77H9.92v1.832h-.852V9.522h2.06ZM9.92 12.354h.979c.742 0 1.165-.39 1.165-1.067 0-.676-.423-1.063-1.162-1.063H9.92v2.13ZM13.157 13.774c0-.684.537-1.104 1.489-1.156l1.096-.063v-.301c0-.435-.301-.695-.803-.695-.476 0-.773.223-.845.572h-.777c.046-.706.662-1.226 1.652-1.226.97 0 1.591.501 1.591 1.285v2.695h-.788v-.643h-.019c-.232.435-.738.71-1.264.71-.784 0-1.332-.476-1.332-1.178Zm2.585-.353v-.309l-.986.06c-.491.033-.77.245-.77.58 0 .341.29.564.732.564.575 0 1.024-.386 1.024-.895ZM17.304 16.323v-.65c.06.014.198.014.267.014.38 0 .586-.156.711-.557 0-.007.073-.238.073-.242l-1.447-3.913h.89l1.014 3.181h.015l1.012-3.18h.868l-1.5 4.113c-.342.948-.738 1.253-1.568 1.253a3.26 3.26 0 0 1-.335-.019Z"
    fill="#000"
  />
</svg>
