<svg fill="none" xmlns="http://www.w3.org/2000/svg" viewBox="0 0 48 30">
  <path
    d="M47.76 28.32c0 .888-.72 1.584-1.584 1.584H1.584C.696 29.904 0 29.184 0 28.32V1.632C0 .744.72.048 1.584.048h44.592c.888 0 1.584.72 1.584 1.584V28.32Z"
    fill="#000"
  />
  <path fill="#000" d="M3.6 2.16h40.397v25.546H3.6z" />
  <path
    fill-rule="evenodd"
    clip-rule="evenodd"
    d="M28.298 23.734h-.813v1.04c0 .24.081.383.331.383a.923.923 0 0 0 .442-.13l.144.428a1.172 1.172 0 0 1-.624.177c-.59 0-.797-.317-.797-.85V23.74h-.466v-.456h.466v-.696h.504v.696h.813v.45Zm-10.02.396v1.44l-.501-.007v-1.275c0-.389-.163-.605-.504-.605a.54.54 0 0 0-.562.61v1.27h-.504v-1.275c0-.389-.168-.605-.499-.605a.535.535 0 0 0-.562.61v1.277h-.504v-2.292h.5v.283a.758.758 0 0 1 .672-.34c.308-.014.6.143.758.407a.888.888 0 0 1 .806-.408.852.852 0 0 1 .9.91Zm2.808-.85v1.145l-.004 1.14h-.5v-.278a.869.869 0 0 1-.72.336 1.2 1.2 0 0 1 0-2.4c.28-.011.549.114.72.336v-.279h.504Zm-1.855 1.145a.694.694 0 1 1 .696.735.687.687 0 0 1-.7-.735h.004Zm13.001-1.109a1.289 1.289 0 0 0-.48-.09l-.005-.006a1.29 1.29 0 0 0-.88.353c-.11.109-.198.239-.257.382a1.275 1.275 0 0 0 0 .96 1.17 1.17 0 0 0 .645.636c.317.123.668.123.984 0a1.16 1.16 0 0 0 .65-.636 1.272 1.272 0 0 0 0-.96 1.16 1.16 0 0 0-.657-.639Zm-.48.39a.743.743 0 0 0-.286.052.674.674 0 0 0-.379.391.833.833 0 0 0 0 .595.672.672 0 0 0 .38.391.78.78 0 0 0 .808-.15.694.694 0 0 0 .151-.24.833.833 0 0 0 0-.596.694.694 0 0 0-.15-.24.685.685 0 0 0-.24-.151.743.743 0 0 0-.289-.067l.005.014Zm-9.04-.48c.64 0 1.086.48 1.086 1.2 0 .066 0 .129-.007.186H22.09a.636.636 0 0 0 .686.562c.243-.004.478-.088.667-.24l.24.37a1.392 1.392 0 0 1-.938.321 1.2 1.2 0 0 1-.034-2.4Zm-.62.998a.59.59 0 0 1 .61-.557.57.57 0 0 1 .58.556h-1.19Zm3.086-.557c.253.002.501.07.72.196l.224-.403a1.713 1.713 0 0 0-.934-.24c-.586 0-.96.279-.96.735 0 .374.278.605.792.677l.24.033c.274.038.403.11.403.24 0 .178-.182.278-.523.278a1.222 1.222 0 0 1-.763-.24l-.24.39c.29.202.637.306.991.297.66 0 1.044-.346 1.044-.749s-.302-.614-.802-.686l-.24-.034c-.216-.029-.388-.058-.388-.226s.163-.268.436-.268Zm5.201-.384a1.062 1.062 0 0 0-.355-.063l.01.01a.677.677 0 0 0-.605.336v-.278h-.495v2.291h.5v-1.284c0-.379.153-.59.48-.59a.809.809 0 0 1 .312.058l.153-.48Zm3.096 1.95a.24.24 0 0 1 .166.066.223.223 0 0 1-.074.37.227.227 0 0 1-.092.019.24.24 0 0 1-.216-.14.225.225 0 0 1 .05-.25.238.238 0 0 1 .075-.047.238.238 0 0 1 .08-.015l.011-.002Zm.07.392a.172.172 0 0 1-.07.015v-.01a.178.178 0 0 1-.127-.053.178.178 0 0 1 0-.24.18.18 0 0 1 .197-.038.177.177 0 0 1 0 .326Zm-.055-.271a.096.096 0 0 1 .062.02.06.06 0 0 1 .022.05.058.058 0 0 1-.017.043.084.084 0 0 1-.05.021l.069.08h-.055l-.065-.08h-.022v.08h-.045v-.212l.1-.002Zm-.053.098v-.057l.053.014a.05.05 0 0 1 .028 0 .024.024 0 0 1 0 .022.024.024 0 0 1 0 .021.05.05 0 0 1-.028 0h-.053Z"
    fill="#fff"
  />
  <path fill="#7673C0" d="M20.018 5.794h7.56V19.38h-7.56z" />
  <path
    d="M20.498 12.586a8.626 8.626 0 0 1 3.3-6.792 8.64 8.64 0 1 0 0 13.586 8.626 8.626 0 0 1-3.3-6.794Z"
    fill="#EB001B"
  />
  <path
    fill-rule="evenodd"
    clip-rule="evenodd"
    d="M37.018 17.774v.823h-.083v-.823h-.155v-.17h.393v.17h-.155Zm.762-.17v.993l-.083.007v-.752l-.128.646h-.09l-.128-.646v.745h-.086v-.993h.119l.139.71.138-.71h.119Z"
    fill="#00A1DF"
  />
  <path
    d="M37.778 12.586a8.64 8.64 0 0 1-13.98 6.792 8.64 8.64 0 0 0 0-13.587 8.64 8.64 0 0 1 13.98 6.793v.002Z"
    fill="#00A1DF"
  />
</svg>
