<svg fill="none" xmlns="http://www.w3.org/2000/svg" viewBox="0 0 24 24">
  <path
    d="M21.997 19.75H22c.956.008 1.74-.773 1.751-1.746V6.006a1.788 1.788 0 0 0-.52-1.25 1.72 1.72 0 0 0-1.233-.506H2.001a1.718 1.718 0 0 0-1.23.507c-.33.33-.517.779-.521 1.247v11.99c.004.47.191.92.52 1.25.329.328.771.51 1.233.506h19.994Z"
    fill="#fff"
    stroke="#5C6F82"
    stroke-width=".5"
  />
  <path
    d="M12.612 20h9.385A1.986 1.986 0 0 0 24 18.03v-2.358A38.738 38.738 0 0 1 12.612 20Z"
    fill="#F27712"
  />
  <path
    fill-rule="evenodd"
    clip-rule="evenodd"
    d="M7.721 11.716c0 .935.828 1.655 1.887 1.655.29 0 .555-.05.87-.182v-.728c-.282.248-.522.347-.837.347-.703 0-1.2-.455-1.2-1.092 0-.604.505-1.084 1.167-1.084.325 0 .637.128.87.356v-.729a2.018 2.018 0 0 0-.853-.19c-1.06 0-1.904.736-1.904 1.647Zm8.185 1.663L14.4 10.143h.761l.952 2.119.96-2.119h.745l-1.523 3.236h-.389Zm4.204-3.227h-1.97v3.153h1.97v-.53h-1.274v-.852h1.225v-.538h-1.225v-.704h1.274v-.53Zm3.062 3.144h-.852l-.96-1.266h-.091v1.266h-.695v-3.144H21.6c.803 0 1.266.33 1.266.927 0 .488-.29.802-.81.902l1.116 1.315Zm-1.026-2.193c0-.306-.232-.463-.662-.463h-.215v.952h.199c.447 0 .678-.166.678-.489Zm-14.64 1.233v.004c-.001-.51-.234-.74-1.026-.988-.414-.141-.538-.232-.538-.398 0-.198.215-.347.513-.347.214 0 .419.09.563.248l.364-.414a1.68 1.68 0 0 0-1.05-.356c-.63 0-1.11.39-1.11.902 0 .44.224.662.877.87.165.046.326.107.48.182.141.082.207.19.207.33 0 .249-.223.44-.538.44-.33 0-.596-.141-.753-.423l-.455.39c.323.413.703.595 1.233.595.727 0 1.231-.42 1.233-1.03v.004-.009Zm-2.723-2.184h-.695v3.153h.695v-3.153Zm-2.937 3.153H.828v-3.153h1.026c1.125 0 1.903.645 1.903 1.572 0 .472-.231.919-.637 1.217-.348.248-.737.364-1.274.364Zm-.133-2.615c.455 0 .72.066.952.248.24.19.38.48.38.786 0 .306-.14.604-.38.803-.224.165-.505.248-.952.248h-.19V10.69h.19Z"
    fill="#000"
  />
  <path
    d="M12.414 10.069c-.91 0-1.655.728-1.655 1.63 0 .96.711 1.68 1.655 1.68a1.64 1.64 0 0 0 1.655-1.655c0-.927-.72-1.655-1.655-1.655Z"
    fill="#F27712"
  />
</svg>
