<svg fill="none" xmlns="http://www.w3.org/2000/svg" viewBox="0 0 24 24">
  <rect width="24" height="24" rx="4" fill="#3CBDEE" />
  <path
    d="M18.71 17.288c-.268.45-.588.876-.828 1.34-.294.572-.68 1.087-1.007 1.637a.395.395 0 0 0-.044.165l-.165 1.29a.475.475 0 0 1-.07.222h-1.337c-.025-.222.028-.425.046-.629.028-.314.084-.627.128-.94.017-.123-.046-.227-.086-.335-.373-1.019-.747-2.036-1.122-3.053-.022-.061-.064-.12-.042-.209h1.473c.244.651.423 1.34.705 2.052l1.236-2.052H19c-.041.2-.189.346-.288.512ZM18.66 8.58a1.203 1.203 0 0 0-.386-.685c-.642-.605-1.267-1.225-1.9-1.838-1.27-1.233-2.534-2.472-3.811-3.697-.396-.379-.866-.54-1.454-.064-.18.147-.34.319-.504.478-.138.134-.974.945-1.247 1.227-.54.559-1.114 1.088-1.673 1.63L5.295 7.95a.883.883 0 0 0-.295.7c-.013.259.13.477.332.674.574.556 1.129 1.133 1.723 1.668.692.623 1.309 1.315 2.006 1.933.684.607 1.317 1.269 1.976 1.902.09.087.155.192.268.266.333.223.943.104 1.25-.197 1.617-1.592 3.252-3.165 4.882-4.746.315-.306.633-.61.961-.904a.739.739 0 0 0 .262-.665Zm-5.803 2.912c-.29.078-.59.117-.89.117H9.207a.226.226 0 0 1-.168-.041c.052-.364.067-.744.155-1.11.108-.064.214-.04.314-.04.765-.003 1.53-.016 2.294 0 .555.012.789-.184.846-.686a.655.655 0 0 1 .03-.096h1.548c.046.997-.557 1.637-1.37 1.856Zm2.488-2.34H9.351c.051-.357.066-.696.14-1.018.108-.053.206-.033.296-.033.774-.004 1.549-.003 2.323-.009a.758.758 0 0 0 .352-.082.732.732 0 0 0 .269-.235.704.704 0 0 0 .067-.677.33.33 0 0 0-.116-.148.346.346 0 0 0-.18-.063 3.245 3.245 0 0 0-.335-.014H9.651l.139-1.206c.206-.064.404-.032.598-.033.636-.005 1.272.01 1.907-.006.418-.003.835.038 1.245.122.543.1.904.47.925 1.05.014.444-.1.883-.33 1.266.885.107 1.307.492 1.21 1.086ZM9.98 17.783c-.073-.45-.357-.75-.815-.9a2.475 2.475 0 0 0-.754-.121c-.696-.01-1.394-.005-2.088-.005-.085 0-.174-.016-.246.05l-.64 5.142h1.38c.108-.512.106-1.023.227-1.53.394.012.768-.012 1.144.012.206.013.456.006.625-.104.243-.16.498-.323.68-.557.46-.595.603-1.265.487-1.987Zm-1.418 1.022c-.072.308-.258.45-.585.454-.256.005-.511 0-.78 0-.017-.243.04-.453.057-.664.018-.211.06-.411.096-.65.303 0 .586-.013.866.003.246.013.362.144.388.386a1.4 1.4 0 0 1-.042.47ZM14.102 21.825c-.155-.814-.31-1.628-.467-2.442-.12-.623-.244-1.244-.365-1.866a.943.943 0 0 0-.396-.614c-.403-.276-.864-.185-1.302-.178a1596.92 1596.92 0 0 0-1.518 3.39c-.118.262-.74 1.46-.794 1.883.413 0 .816.006 1.217-.005.126-.003.206-.102.248-.22.052-.141.092-.288.193-.415h1.651c.058.2.044.407.138.582h1.401c0-.038-.002-.077-.006-.115Zm-2.711-1.665c.2-.533.438-1.027.66-1.527l.064.004.28 1.523h-1.004Z"
    fill="#fff"
  />
</svg>
