<svg fill="none" xmlns="http://www.w3.org/2000/svg" viewBox="0 0 48 30">
  <path
    d="M48 28.406c0 .893-.725 1.594-1.594 1.594H1.594A1.593 1.593 0 0 1 0 28.406V1.594C0 .7.725 0 1.594 0h44.812C47.299 0 48 .725 48 1.594v26.812Z"
    fill="#006FCF"
  />
  <path
    d="M14.88 14.208v-.48l-.216.48h-1.968l-.24-.504v.504h-3.72l-.432-1.032H7.56l-.456 1.032h-1.92v-3.12L6.576 7.92h2.688l.384.888V7.92h3.288l.72 1.512.696-1.512H24.72s.552 0 .912.24v-.24h2.616v.336s.48-.336 1.176-.336h4.608l.408.912V7.92h2.952l.528.912V7.92h2.832v6.288h-2.904l-.672-1.104v1.08h-3.6l-.504-1.128h-.696l-.48 1.128h-2.184s-.816 0-1.416-.456v.456h-4.344V12.72c0-.216-.168-.192-.168-.192h-.168v1.656H14.88v.024ZM12.72 15.576h5.712l.816.936.84-.936h4.392s.408 0 .792.216v-.216h3.912c.504 0 .912.24.912.24v-.24h5.016v.24s.36-.24.84-.24h3.264v.24s.408-.24.84-.24h2.568v5.928s-.336.384-1.032.384h-3.384v-.192s-.312.192-.816.192h-9v-1.536c0-.144-.072-.168-.192-.168h-.12v1.704h-2.808v-1.704s-.312.168-.84.168h-1.008v1.536h-3.456l-.792-.96-.84.96H12.72v-6.312Z"
    fill="#fff"
  />
  <path
    d="M30.72 16.512h3.576v.96H31.8v.84h2.424v.84H31.8v.888h2.496v.936H30.72v-4.464ZM41.208 18.264c1.344.072 1.464.744 1.464 1.464 0 .84-.696 1.296-1.416 1.296h-2.304v-.96h1.8c.312 0 .768 0 .768-.432 0-.192-.072-.336-.408-.36a9.4 9.4 0 0 0-.768-.048c-1.224-.024-1.512-.648-1.512-1.368 0-.84.6-1.296 1.296-1.296h2.304v.96h-1.68c-.384 0-.792-.048-.792.384 0 .264.216.336.456.36.12-.048.72 0 .792 0ZM37.08 18.264c1.344.072 1.464.744 1.464 1.464 0 .84-.696 1.296-1.416 1.296h-2.304v-.96h1.8c.312 0 .768 0 .768-.432 0-.192-.072-.336-.408-.36a9.4 9.4 0 0 0-.768-.048c-1.224-.024-1.488-.648-1.488-1.368 0-.84.576-1.296 1.296-1.296h2.304v.96h-1.68c-.384 0-.792-.048-.792.384 0 .264.216.336.456.36.096-.048.696 0 .768 0Z"
    fill="#006FCF"
  />
  <path
    fill-rule="evenodd"
    clip-rule="evenodd"
    d="M20.256 16.536h3.84c.528 0 1.32.24 1.344 1.392 0 1.56-1.032 1.584-1.608 1.584h-1.464v1.512h-2.112l-1.296-1.488L17.64 21h-4.176v-4.464h4.32l1.224 1.392 1.248-1.392Zm-5.712 3.504h2.52l1.2-1.344-1.056-1.224h-2.664v.84h2.424v.84h-2.424v.888Zm6.72.528-1.584-1.872 1.584-1.752v3.624Zm1.104-2.016h1.368c.432 0 .6-.264.6-.576 0-.216-.144-.504-.6-.504h-1.368v1.08ZM30.144 17.736c0 .528-.168.936-.768 1.224.528.048.72.384.696 1.128l.048.912h-1.056l-.024-.816c0-.384-.144-.768-.528-.768h-1.44V21h-1.104v-4.464h2.856c.552 0 1.32.24 1.32 1.2Zm-3.072.768h1.368c.456 0 .6-.216.6-.504 0-.216-.144-.504-.6-.504h-1.368v1.008Z"
    fill="#006FCF"
  />
  <path
    d="M26.424 8.808h1.104v4.464h-1.104V8.808ZM17.448 8.808h3.576v.96h-2.472v.84h2.4v.864h-2.4v.864h2.472v.936h-3.576V8.808Z"
    fill="#006FCF"
  />
  <path
    fill-rule="evenodd"
    clip-rule="evenodd"
    d="M25.848 10.032c0 .528-.168.936-.768 1.224.528.048.72.384.696 1.128l.048.912h-1.056l-.024-.816c0-.384-.144-.768-.528-.768h-1.44v1.584h-1.104V8.832h2.856c.552 0 1.32.24 1.32 1.2Zm-3.072.744h1.368c.456 0 .6-.192.6-.504 0-.216-.144-.504-.6-.504h-1.368v1.008ZM13.584 11.808l1.344-3h1.752v4.464h-1.104v-3.264l-1.488 3.264H13.08L11.616 9.96v3.312H9.408l-.432-1.008H6.792l-.432 1.008H5.208l1.944-4.464h1.44l1.92 4.296V8.808h1.728l1.344 3Zm-5.736-2.04-.648 1.56h1.32l-.672-1.56ZM38.832 11.904V8.808h1.104v4.464h-1.488l-1.968-3.264v3.264h-2.16l-.432-1.008h-2.184l-.432 1.008h-1.44c-1.224 0-1.752-1.032-1.728-2.256.024-1.824 1.104-2.208 1.608-2.208h1.44v.96h-.672c-.72 0-1.296.072-1.296 1.128v.312c0 .792.408.984.672 1.032.048.024.696.024.696.024l1.512-3.456h1.44l1.872 4.2v-4.2h1.608l1.848 3.096Zm-6.096-2.136-.648 1.56h1.344l-.696-1.56Z"
    fill="#006FCF"
  />
</svg>
