<svg fill="none" xmlns="http://www.w3.org/2000/svg" viewBox="0 0 48 30">
  <path
    fill-rule="evenodd"
    clip-rule="evenodd"
    d="M47.697 27.15c0 1.48-1.438 2.68-3.213 2.68H3.515c-1.774 0-3.212-1.2-3.212-2.68V2.982c0-1.48 1.438-2.68 3.212-2.68h40.97c1.774 0 3.212 1.2 3.212 2.68V27.15Z"
    fill="#FFFFFE"
  />
  <path
    fill-rule="evenodd"
    clip-rule="evenodd"
    d="M3.49 29.981C1.566 29.978 0 28.681 0 27.07V2.912C0 1.299 1.567.002 3.49 0h41.02c1.923.003 3.489 1.3 3.49 2.912V27.07c-.001 1.612-1.567 2.909-3.49 2.911H3.49ZM.544 2.911V27.07c.003 1.347 1.313 2.446 2.944 2.446H44.51c1.63 0 2.942-1.1 2.944-2.446V2.912C47.452 1.564 46.141.465 44.51.465H3.49C1.857.465.547 1.565.544 2.912Z"
    fill="#184977"
  />
  <path
    fill-rule="evenodd"
    clip-rule="evenodd"
    d="M7.364 18.068c0-.66-.346-.617-.676-.624v-.191c.287.013.58.013.868.013.308 0 .727-.013 1.271-.013 1.904 0 2.941 1.27 2.941 2.572 0 .729-.426 2.559-3.029 2.559-.375 0-.72-.015-1.066-.015-.33 0-.655.007-.985.015v-.191c.44-.045.655-.06.676-.56v-3.565Zm.72 3.448c0 .566.405.632.765.632 1.588 0 2.11-1.198 2.11-2.293 0-1.375-.882-2.367-2.301-2.367-.302 0-.441.021-.574.03v3.998ZM12.026 22.193h.139c.206 0 .353 0 .353-.243v-1.992c0-.323-.11-.368-.383-.515v-.117c.346-.104.758-.243.787-.265a.26.26 0 0 1 .133-.037c.036 0 .05.044.05.103v2.823c0 .243.163.243.369.243h.124v.191c-.25 0-.507-.015-.771-.015-.265 0-.53.007-.801.015v-.191Zm.786-4.3a.377.377 0 0 1-.36-.368c0-.184.177-.354.36-.354.19 0 .36.155.36.354a.367.367 0 0 1-.36.367ZM14.297 20.002c0-.272-.081-.345-.426-.485v-.14c.316-.103.617-.199.97-.353.022 0 .044.014.044.073v.478c.42-.3.78-.551 1.273-.551.624 0 .844.456.844 1.03v1.896c0 .243.163.243.368.243h.133v.19c-.258 0-.515-.014-.78-.014s-.53.007-.794.015v-.191h.132c.206 0 .353 0 .353-.244v-1.903c0-.42-.256-.625-.676-.625-.235 0-.61.19-.853.353v2.175c0 .244.162.244.368.244h.132v.19c-.257 0-.514-.014-.78-.014-.264 0-.529.007-.793.015v-.191h.133c.205 0 .352 0 .352-.244v-1.947ZM18.061 20.355c-.014.066-.014.176 0 .427.044.698.493 1.27 1.08 1.27.406 0 .722-.22.993-.491l.103.103c-.338.448-.757.83-1.36.83-1.169 0-1.404-1.132-1.404-1.602 0-1.441.97-1.868 1.484-1.868.597 0 1.237.375 1.243 1.154 0 .045 0 .088-.006.133l-.067.044h-2.066Zm1.302-.235c.184 0 .205-.096.205-.185 0-.374-.228-.675-.64-.675-.448 0-.756.33-.845.86h1.28ZM20.37 22.193h.198c.206 0 .353 0 .353-.244v-2.065c0-.227-.272-.272-.382-.33v-.11c.536-.229.83-.42.898-.42.043 0 .065.022.065.096v.662h.015c.183-.287.493-.758.941-.758.184 0 .419.125.419.39 0 .198-.14.375-.345.375-.229 0-.229-.177-.486-.177-.125 0-.537.17-.537.61v1.727c0 .244.147.244.353.244h.411v.19c-.404-.007-.712-.014-1.028-.014-.302 0-.61.007-.875.015v-.191ZM23.2 21.362c.096.485.39.897.927.897.433 0 .595-.265.595-.522 0-.868-1.603-.588-1.603-1.772 0-.412.331-.941 1.14-.941.235 0 .551.067.837.214l.052.749h-.169c-.073-.463-.33-.727-.801-.727-.294 0-.573.168-.573.484 0 .861 1.705.596 1.705 1.75 0 .485-.39 1-1.265 1-.294 0-.64-.103-.896-.25l-.081-.845.132-.037ZM31.948 18.583h-.183c-.14-.86-.75-1.206-1.573-1.206-.847 0-2.074.566-2.074 2.33 0 1.486 1.059 2.552 2.19 2.552.728 0 1.332-.5 1.479-1.272l.17.044-.17 1.073c-.309.192-1.14.39-1.626.39-1.72 0-2.807-1.11-2.807-2.764 0-1.507 1.345-2.588 2.786-2.588.595 0 1.169.191 1.735.39l.073 1.05ZM32.214 22.193h.139c.206 0 .353 0 .353-.244v-4.093c0-.479-.11-.493-.39-.574v-.118a4.66 4.66 0 0 0 .758-.316c.08-.044.139-.081.16-.081.046 0 .06.044.06.103v5.08c0 .243.162.243.368.243h.124v.19c-.25 0-.506-.014-.771-.014s-.53.007-.801.015v-.191ZM36.934 21.98c0 .132.08.139.205.139.088 0 .198-.007.294-.007v.155c-.316.029-.919.183-1.059.227l-.037-.022v-.596c-.44.36-.779.618-1.301.618-.397 0-.809-.257-.809-.874v-1.883c0-.191-.029-.375-.44-.411v-.14c.265-.008.852-.051.948-.051.081 0 .081.05.081.213v1.896c0 .221 0 .853.64.853.25 0 .58-.191.889-.448v-1.978c0-.147-.353-.228-.617-.3v-.133c.66-.045 1.073-.103 1.146-.103.06 0 .06.05.06.132v2.712ZM38.396 19.553c.294-.25.691-.53 1.096-.53.852 0 1.367.744 1.367 1.545 0 .963-.706 1.926-1.758 1.926-.543 0-.83-.177-1.021-.257l-.22.169-.154-.08c.065-.434.102-.86.102-1.31v-3.16c0-.479-.11-.493-.39-.574v-.118a4.62 4.62 0 0 0 .758-.316c.08-.044.14-.081.162-.081.043 0 .058.044.058.103v2.683Zm0 2c0 .28.265.75.758.75.786 0 1.117-.772 1.117-1.427 0-.793-.602-1.455-1.176-1.455-.273 0-.5.177-.699.346v1.786ZM6.68 26.659h.056c.144 0 .296-.02.296-.228v-2.096c0-.209-.152-.228-.296-.228H6.68v-.12c.156 0 .396.015.592.015.2 0 .44-.016.628-.016v.12h-.056c-.144 0-.296.02-.296.229v2.096c0 .208.152.227.296.227H7.9v.12c-.192 0-.432-.015-.632-.015-.196 0-.432.016-.588.016v-.12Z"
    fill="#1A1919"
  />
  <path
    fill-rule="evenodd"
    clip-rule="evenodd"
    d="M7.9 26.796c-.193 0-.433-.016-.632-.016-.196 0-.431.016-.588.016h-.018v-.155h.074c.145-.003.277-.015.278-.21v-2.096c-.001-.196-.133-.209-.278-.211h-.074v-.155h.018c.157 0 .397.016.592.016.2 0 .439-.016.628-.016h.018v.155h-.074c-.145.003-.278.015-.279.211v2.096c.001.195.134.207.28.21h.073v.155H7.9Zm-.017-.034v-.085h-.038c-.143 0-.313-.025-.314-.246v-2.095c0-.221.171-.246.314-.246h.038v-.086c-.184 0-.416.017-.61.017-.19 0-.42-.015-.575-.017v.086h.038c.143 0 .313.024.313.246v2.095c0 .221-.17.246-.313.246h-.038v.085c.155-.001.381-.016.57-.016.196 0 .427.015.615.016ZM10.648 25.99l.008-.008v-1.5c0-.328-.228-.375-.348-.375h-.088v-.12c.188 0 .372.015.56.015.164 0 .329-.016.492-.016v.12h-.06c-.168 0-.356.032-.356.508v1.82c0 .14.004.28.024.405h-.153l-2.06-2.297v1.649c0 .348.068.468.376.468h.069v.12c-.172 0-.344-.016-.516-.016-.18 0-.364.016-.544.016v-.12h.056c.276 0 .36-.189.36-.508v-1.685a.359.359 0 0 0-.364-.36h-.052v-.12c.151 0 .308.016.46.016.12 0 .236-.016.356-.016l1.78 2.004Z"
    fill="#1A1919"
  />
  <path
    fill-rule="evenodd"
    clip-rule="evenodd"
    d="m10.88 26.856-.165-.006-2.03-2.263v1.604c.005.348.057.446.359.45h.085v.155h-.017c-.174 0-.346-.016-.516-.016-.18 0-.363.016-.545.016h-.017v-.155h.074c.264-.001.34-.171.343-.49v-1.684a.342.342 0 0 0-.347-.343h-.07v-.155h.017c.153 0 .31.016.46.016.12 0 .235-.016.37-.01l1.758 1.98v-1.472c-.002-.318-.214-.357-.33-.36h-.107v-.154h.018c.189 0 .373.016.56.016.163 0 .327-.016.492-.016h.018v.155h-.077c-.166.004-.335.019-.34.49v1.82c0 .14.004.28.024.402l.003.02h-.02Zm-.152-.034h.133a2.69 2.69 0 0 1-.021-.387v-1.82c0-.48.2-.525.373-.525h.042v-.086c-.157.002-.315.016-.474.016-.184 0-.362-.014-.543-.016v.085h.07c.124 0 .366.056.366.395l-.005 1.512-.008.008-.014.012-1.779-2.012c-.119 0-.234.016-.356.016-.147 0-.297-.014-.442-.016v.085h.035c.187 0 .38.144.38.378v1.685c0 .32-.089.524-.377.526l-.038-.002v.086c.173-.001.352-.016.526-.016.167 0 .334.015.499.016v-.084h-.05c-.316-.002-.394-.139-.394-.486v-1.694l2.077 2.324ZM11.871 24.186c-.3 0-.312.073-.372.364h-.12c.016-.112.036-.224.048-.34.016-.112.024-.224.024-.34h.096c.032.12.133.116.241.116h2.063c.109 0 .209-.003.217-.124l.095.017c-.015.107-.031.215-.043.324-.008.108-.008.215-.008.323l-.12.045c-.008-.148-.028-.385-.296-.385h-.656v2.129c0 .308.14.343.332.343h.076v.12c-.156 0-.436-.015-.652-.015-.24 0-.52.016-.677.016v-.12h.077c.22 0 .332-.02.332-.336v-2.137h-.657Z"
    fill="#1A1919"
  />
  <path
    fill-rule="evenodd"
    clip-rule="evenodd"
    d="M13.448 26.796c-.157 0-.437-.016-.652-.016-.24 0-.52.016-.677.016h-.017v-.155h.094c.22-.005.309-.008.314-.318v-2.12h-.639v-.034h.673v2.154c0 .321-.13.354-.348.354h-.06v.084c.158 0 .428-.015.66-.015.208 0 .476.014.634.015v-.084h-.058c-.194 0-.35-.048-.35-.362v-2.146h.674c.268 0 .304.229.312.378l.087-.032c0-.105 0-.21.007-.315.012-.103.027-.205.041-.307l-.06-.01c-.019.116-.132.122-.232.12h-2.084c-.094.001-.197-.004-.233-.115h-.066c0 .11-.008.218-.023.324-.012.11-.03.216-.045.322h.086c.052-.28.086-.37.385-.365v.034c-.296.006-.29.056-.355.352l-.002.013h-.155l.002-.02c.017-.112.037-.224.049-.34a2.26 2.26 0 0 0 .024-.337v-.018h.127l.003.013c.027.1.101.101.203.103h2.084c.112-.002.193-.003.2-.108v-.019l.02.004.112.018-.003.017a9.425 9.425 0 0 0-.043.322c-.008.108-.008.215-.008.323v.012l-.011.005-.142.052v-.023c-.012-.15-.027-.369-.28-.369h-.639v2.112c.004.301.124.322.315.326h.093v.155h-.017ZM14.291 26.659h.056c.144 0 .296-.02.296-.228v-2.096c0-.209-.152-.228-.296-.228h-.056v-.12c.243 0 .66.015.996.015.336 0 .752-.016 1.024-.016a6.67 6.67 0 0 0 .008.613l-.12.032c-.02-.26-.067-.468-.488-.468h-.555v1.047h.475c.24 0 .292-.135.316-.351h.12a9.149 9.149 0 0 0 0 .923l-.12.024c-.024-.24-.035-.395-.312-.395h-.479v.931c0 .26.231.26.487.26.48 0 .692-.032.812-.487l.112.028c-.052.212-.1.423-.136.636-.256 0-.716-.016-1.075-.016-.361 0-.837.016-1.065.016v-.12Z"
    fill="#1A1919"
  />
  <path
    fill-rule="evenodd"
    clip-rule="evenodd"
    d="M16.431 26.796c-.257 0-.717-.017-1.076-.017-.36 0-.835.017-1.064.017h-.017v-.155h.073c.145-.002.277-.015.279-.21v-2.096c-.002-.195-.134-.209-.279-.211h-.073v-.155h.017c.244 0 .66.016.996.016.336 0 .751-.016 1.024-.016h.017v.018a6.294 6.294 0 0 0 .008.61v.015l-.013.004-.14.037-.001-.021c-.024-.26-.059-.449-.47-.452h-.54v1.013h.46c.23-.003.27-.12.298-.336l.001-.016h.154v.018a9.372 9.372 0 0 0 0 .923v.014l-.015.004-.139.027v-.018c-.029-.245-.03-.379-.296-.381h-.463v.914c0 .244.21.242.471.244.482-.003.675-.027.795-.476l.004-.016.017.003.128.033-.003.017c-.052.211-.1.423-.136.635l-.003.014h-.014Zm-.014-.034c.035-.202.08-.404.13-.606l-.08-.02c-.119.448-.351.488-.823.485-.252 0-.504 0-.506-.278v-.949h.498c.28-.003.307.166.327.393l.087-.017a8.5 8.5 0 0 1 0-.894h-.087c-.022.21-.087.355-.331.352h-.494v-1.082h.574c.416-.004.485.212.503.463l.086-.023a6.703 6.703 0 0 1-.007-.582c-.272.002-.678.016-1.007.016-.328 0-.733-.014-.978-.016v.085h.039c.142 0 .313.026.313.247v2.095c0 .221-.17.245-.313.247h-.039v.084c.233 0 .696-.016 1.047-.016.353 0 .803.015 1.061.016ZM17.107 24.41c0-.292-.16-.303-.284-.303h-.072v-.12c.128 0 .376.015.62.015.24 0 .432-.016.644-.016.503 0 .952.136.952.705 0 .36-.24.58-.556.704l.684 1.023c.112.17.192.217.388.24v.12c-.132 0-.26-.015-.392-.015-.124 0-.252.016-.376.016a11.082 11.082 0 0 1-.832-1.297h-.264v.857c0 .308.144.32.327.32h.073v.12c-.229 0-.46-.016-.688-.016-.192 0-.38.016-.58.016v-.12h.072c.148 0 .284-.068.284-.216V24.41Zm.512.928h.196c.4 0 .616-.152.616-.624 0-.356-.228-.584-.585-.584-.12 0-.17.013-.227.017v1.191Z"
    fill="#1A1919"
  />
  <path
    fill-rule="evenodd"
    clip-rule="evenodd"
    d="M19.483 26.796c-.134 0-.261-.016-.393-.016-.122 0-.25.016-.39.01-.306-.404-.569-.833-.827-1.29h-.237v.838c.005.301.125.299.31.303h.09v.155h-.018c-.228 0-.46-.016-.687-.016-.191 0-.38.016-.58.016h-.018v-.155h.09c.144 0 .265-.063.266-.198V24.41c-.003-.284-.142-.282-.266-.286h-.09v-.155h.018c.13 0 .376.016.62.016.239 0 .43-.016.644-.016.504.001.968.14.97.721 0 .361-.24.587-.547.712l.671 1.007c.112.166.182.207.376.232l.015.003v.152h-.017Zm-1.59-1.33.005.009c.26.46.523.891.818 1.287.122 0 .25-.016.375-.016.127 0 .251.014.375.016v-.088c-.187-.023-.275-.08-.385-.245l-.696-1.041.02-.008c.313-.124.545-.337.545-.69 0-.554-.432-.683-.934-.686-.211 0-.403.017-.644.017-.235 0-.473-.015-.604-.017v.085h.056c.124 0 .3.021.3.322v2.033c0 .16-.15.233-.3.234h-.056v.084c.193 0 .375-.016.563-.016.224 0 .45.015.67.016v-.084h-.054c-.182 0-.345-.023-.345-.34v-.872h.291Zm-.292-.11V24.13h.016c.054-.005.108-.016.23-.016.364 0 .6.236.601.601 0 .478-.23.64-.633.64H17.6Zm.214-.035c.396-.004.595-.141.6-.606-.003-.35-.22-.566-.569-.568-.108 0-.159.01-.21.015v1.16h.179ZM22.199 25.99l.007-.008v-1.5c0-.328-.227-.375-.348-.375h-.087v-.12c.188 0 .371.015.56.015.164 0 .327-.016.492-.016v.12h-.06c-.168 0-.356.032-.356.508v1.82c0 .14.004.28.023.405h-.15l-2.06-2.297v1.649c0 .348.067.468.375.468h.068v.12c-.172 0-.344-.016-.516-.016-.18 0-.364.016-.544.016v-.12h.055c.276 0 .36-.189.36-.508v-1.685a.359.359 0 0 0-.363-.36h-.052v-.12c.151 0 .308.016.46.016.119 0 .235-.016.356-.016l1.78 2.004Z"
    fill="#1A1919"
  />
  <path
    fill-rule="evenodd"
    clip-rule="evenodd"
    d="m22.43 26.856-.164-.006-2.03-2.262v1.603c.004.348.057.446.359.45h.085v.155h-.018c-.173 0-.345-.017-.516-.017-.178 0-.363.017-.544.017h-.017v-.155h.073c.264 0 .34-.171.343-.49v-1.685a.341.341 0 0 0-.346-.342h-.07v-.155h.017c.153 0 .31.016.46.016.118 0 .234-.016.368-.01l1.759 1.98v-1.472c-.001-.318-.214-.357-.33-.36h-.106v-.154h.017c.19 0 .374.016.56.016.164 0 .328-.016.492-.016h.018v.155h-.077c-.165.004-.335.019-.34.49v1.82c0 .14.004.28.025.402l.002.02h-.02Zm-.15-.034h.13a2.742 2.742 0 0 1-.02-.387v-1.82c0-.48.202-.524.374-.525h.042v-.086c-.158.002-.316.016-.475.016-.183 0-.361-.014-.543-.016v.085h.071c.123.002.366.056.366.395l-.006 1.512-.007.008-.013.013-1.78-2.013c-.119 0-.235.016-.355.016-.149 0-.298-.014-.444-.016v.085h.035c.189.002.381.144.381.378v1.684c0 .321-.09.526-.377.527h-.039v.084c.173-.001.351-.016.527-.016.168 0 .334.015.5.016v-.084h-.051c-.315 0-.394-.138-.395-.487V24.5l2.079 2.323ZM23.466 26.207c-.04.135-.088.24-.088.311 0 .12.168.14.3.14h.044v.12a7.254 7.254 0 0 0-.917 0v-.12h.025c.156 0 .289-.091.348-.26l.64-1.835c.052-.148.124-.348.149-.497a2.04 2.04 0 0 0 .363-.172c.013-.004.02-.008.032-.008s.02 0 .028.013l.036.1.737 2.092c.048.14.095.287.146.408.05.112.133.16.266.16h.024v.12a11.411 11.411 0 0 0-1.153 0v-.12h.044c.092 0 .249-.016.249-.116 0-.052-.037-.16-.081-.289l-.156-.463h-.908l-.128.416Zm.584-1.773h-.008l-.372 1.133h.748l-.368-1.133Z"
    fill="#1A1919"
  />
  <path
    fill-rule="evenodd"
    clip-rule="evenodd"
    d="M25.597 26.796c-.18-.008-.36-.017-.55-.017-.196 0-.396.01-.6.017h-.018v-.155h.061c.093 0 .23-.021.23-.098a1.28 1.28 0 0 0-.078-.283l-.153-.452h-.882l-.124.404c-.04.136-.09.242-.089.307.002.097.151.122.284.122h.061v.156l-.018-.001c-.16-.008-.323-.017-.483-.017-.143 0-.287.01-.43.017h-.02v-.155h.042c.149 0 .273-.086.33-.248l.642-1.836c.051-.148.124-.347.158-.507.126-.043.287-.124.364-.172.01-.004.022-.009.038-.009.01 0 .031.002.044.023.012.033.024.069.037.1l.736 2.093c.047.14.095.288.147.406.047.107.12.15.249.15h.04v.156l-.018-.001Zm-1.133-.035c.198-.007.392-.015.584-.015.185 0 .36.008.533.015v-.084h-.006c-.137.001-.231-.053-.28-.17-.052-.122-.1-.27-.148-.41l-.737-2.092-.034-.097c-.004-.004-.003-.004-.006-.004h-.007c-.008 0-.013.003-.023.006-.078.05-.238.128-.357.16-.024.151-.096.351-.148.5l-.64 1.835a.381.381 0 0 1-.364.272h-.007v.084c.137-.007.276-.015.415-.015.154 0 .312.008.465.015v-.084h-.026c-.13-.002-.312-.016-.317-.157 0-.08.05-.182.089-.317l.132-.428h.932l.16.475c.046.128.082.235.082.293-.006.123-.174.132-.265.134h-.027v.084Zm-.818-1.177.383-1.167h.033l.38 1.167h-.796Zm.048-.035h.7l-.348-1.072-.352 1.072ZM25.774 24.186c-.3 0-.312.073-.372.364h-.12c.015-.112.036-.224.048-.34.016-.112.024-.224.024-.34h.097c.03.12.131.116.239.116h2.064c.108 0 .208-.003.216-.124l.096.017c-.015.107-.031.215-.044.324-.009.108-.009.215-.009.323l-.12.045c-.006-.148-.026-.385-.295-.385h-.656v2.129c0 .308.14.343.332.343h.076v.12c-.156 0-.435-.015-.652-.015-.24 0-.52.016-.676.016v-.12h.076c.22 0 .332-.02.332-.336v-2.137h-.656Z"
    fill="#1A1919"
  />
  <path
    fill-rule="evenodd"
    clip-rule="evenodd"
    d="M27.35 26.796c-.157 0-.437-.016-.652-.016-.24 0-.52.016-.676.016h-.018v-.155h.094c.22-.005.31-.008.314-.318v-2.12h-.638v-.034h.673v2.154c0 .321-.13.353-.349.354h-.059v.085c.158-.002.427-.016.659-.016.209 0 .477.014.635.016v-.085h-.06c-.192-.001-.348-.048-.348-.362v-2.146h.673c.269 0 .304.229.312.378l.086-.032c0-.105.001-.21.01-.314.01-.103.025-.206.04-.308l-.06-.01c-.02.116-.132.123-.232.12H25.67c-.095.002-.197-.004-.233-.116h-.066c0 .111-.008.219-.024.325-.011.11-.03.217-.046.322h.087c.052-.28.087-.37.386-.365v.034c-.296.006-.29.056-.355.352l-.003.013h-.154l.002-.02c.017-.112.037-.224.048-.34.017-.112.024-.223.024-.337v-.018h.127l.003.013c.028.1.101.101.204.103h2.084c.111-.002.192-.003.199-.108v-.019l.02.004.113.018-.003.017a8.134 8.134 0 0 0-.044.322c-.008.108-.008.215-.008.323v.012l-.012.005-.141.052v-.023c-.011-.15-.027-.369-.28-.369h-.639v2.112c.004.301.124.322.315.326h.093v.155h-.017ZM28.214 26.659h.056c.144 0 .295-.02.295-.228v-2.096c0-.209-.151-.228-.295-.228h-.056v-.12c.156 0 .395.015.591.015.2 0 .44-.016.629-.016v.12h-.056c-.145 0-.297.02-.297.229v2.096c0 .208.152.227.297.227h.056v.12c-.192 0-.432-.015-.632-.015-.197 0-.432.016-.588.016v-.12Z"
    fill="#1A1919"
  />
  <path
    fill-rule="evenodd"
    clip-rule="evenodd"
    d="M29.434 26.796c-.193 0-.433-.017-.632-.017-.196 0-.432.017-.588.017h-.017v-.155h.073c.144-.002.277-.015.278-.21v-2.096c-.001-.195-.134-.209-.278-.211h-.073v-.155h.017c.156 0 .396.016.591.016.2 0 .44-.016.629-.016h.017v.155h-.073c-.146.003-.278.016-.28.211v2.096c.002.195.134.208.28.21h.073v.155h-.017Zm-.017-.034v-.085h-.038c-.144 0-.314-.025-.314-.246v-2.095c0-.221.17-.246.314-.246h.038v-.086c-.185.002-.417.016-.611.016-.19 0-.42-.014-.574-.016v.085h.038c.143 0 .313.026.314.247v2.095c-.001.221-.171.246-.314.246h-.038v.085c.154-.002.38-.016.57-.016.195 0 .426.015.615.016ZM31.03 23.926c.852 0 1.532.529 1.532 1.381 0 .92-.66 1.532-1.512 1.532-.849 0-1.497-.576-1.497-1.436 0-.832.644-1.477 1.476-1.477Zm.06 2.737c.776 0 .911-.685.911-1.268 0-.585-.315-1.293-.98-1.293-.7 0-.908.625-.908 1.16 0 .716.329 1.4.977 1.4Z"
    fill="#1A1919"
  />
  <path
    fill-rule="evenodd"
    clip-rule="evenodd"
    d="M29.536 25.402a1.475 1.475 0 0 1 1.493-1.493v.035c-.823 0-1.459.636-1.46 1.459.002.85.64 1.418 1.48 1.418.844 0 1.495-.603 1.496-1.515-.001-.841-.67-1.361-1.516-1.362v-.035c.859 0 1.548.535 1.55 1.398-.001.93-.67 1.547-1.53 1.549-.855-.002-1.512-.584-1.513-1.454Zm.56-.14c.001-.538.211-1.177.925-1.177.68.001.996.722.998 1.31-.002.583-.139 1.284-.93 1.284v-.034c.761 0 .893-.667.895-1.25 0-.58-.313-1.274-.963-1.275-.686 0-.889.61-.89 1.142 0 .713.325 1.382.959 1.383v.034c-.664 0-.993-.697-.994-1.417ZM35.257 25.99l.009-.008v-1.5c0-.328-.23-.375-.35-.375h-.086v-.12c.187 0 .372.015.559.015.164 0 .328-.016.493-.016v.12h-.06c-.168 0-.357.032-.357.508v1.82c0 .14.004.28.025.405h-.153l-2.06-2.297v1.649c0 .348.068.468.376.468h.068v.12c-.172 0-.344-.016-.516-.016-.18 0-.364.016-.544.016v-.12h.056c.277 0 .36-.189.36-.508v-1.685a.358.358 0 0 0-.364-.36h-.052v-.12c.152 0 .308.016.46.016.12 0 .235-.016.356-.016l1.78 2.004Z"
    fill="#1A1919"
  />
  <path
    fill-rule="evenodd"
    clip-rule="evenodd"
    d="m35.49 26.856-.166-.006-2.03-2.262v1.603c.005.348.058.446.358.45h.086v.155h-.017c-.173 0-.345-.016-.516-.016-.179 0-.363.016-.544.016h-.017v-.155h.073c.264-.001.34-.171.343-.49v-1.685a.341.341 0 0 0-.347-.342h-.069v-.155h.017c.153 0 .309.016.46.016.119 0 .234-.016.37-.01l1.757 1.98v-1.472c-.001-.318-.215-.357-.331-.36h-.106v-.154h.019c.188 0 .372.016.559.016.163 0 .326-.016.493-.016h.017v.155h-.078c-.165.004-.335.02-.338.49v1.82c0 .14.003.28.023.402l.003.02h-.02Zm-.152-.034h.131a2.843 2.843 0 0 1-.02-.387v-1.82c0-.48.201-.524.373-.525h.043v-.086c-.159.002-.316.016-.476.016-.182 0-.36-.014-.542-.016v.085h.07c.124.002.365.056.365.395l-.004 1.512-.007.008-.013.013-1.78-2.013c-.119 0-.235.016-.356.016-.148 0-.298-.014-.444-.016v.085h.036a.377.377 0 0 1 .38.378v1.685c0 .32-.089.524-.376.526h-.04v.084c.174-.001.352-.016.528-.016.167 0 .333.015.498.016v-.084h-.051c-.314 0-.393-.138-.393-.486v-1.694l2.078 2.324ZM36.524 26.207c-.039.135-.087.24-.087.311 0 .12.168.14.3.14h.044v.12a7.208 7.208 0 0 0-.916 0v-.12h.023c.157 0 .29-.091.348-.26l.641-1.835c.052-.148.124-.348.147-.497.129-.044.288-.123.365-.172.012-.004.02-.008.032-.008s.02 0 .028.013l.036.1.736 2.092c.047.14.096.287.148.408.048.112.132.16.264.16h.024v.12a11.413 11.413 0 0 0-1.152 0v-.12h.044c.091 0 .248-.016.248-.116 0-.052-.036-.16-.08-.289l-.156-.463h-.908l-.129.416Zm.585-1.773h-.008l-.373 1.133h.75l-.369-1.133Z"
    fill="#1A1919"
  />
  <path
    fill-rule="evenodd"
    clip-rule="evenodd"
    d="M38.656 26.796c-.18-.007-.36-.016-.551-.016-.195 0-.396.009-.6.016h-.017v-.155h.06c.094 0 .231-.021.231-.098a1.24 1.24 0 0 0-.08-.283l-.151-.452h-.883l-.124.404c-.04.137-.087.242-.087.306 0 .098.15.123.282.123h.061v.156l-.018-.001c-.16-.007-.323-.016-.483-.016-.143 0-.286.009-.43.016h-.018v-.155h.04c.15 0 .274-.086.333-.248l.64-1.836c.05-.148.123-.347.158-.507.126-.043.286-.124.364-.172.01-.004.022-.009.038-.009a.045.045 0 0 1 .044.024c.012.031.023.068.036.1l.736 2.092c.048.14.096.288.148.407.047.106.12.148.247.15h.042v.155l-.018-.001Zm-1.134-.035c.198-.007.393-.015.584-.015.186 0 .36.008.534.015v-.084h-.007c-.136 0-.23-.053-.28-.17-.053-.122-.1-.27-.148-.41l-.736-2.093a3.99 3.99 0 0 1-.034-.095c-.003-.005-.003-.005-.006-.005h-.007c-.009 0-.013.003-.023.006-.078.049-.238.13-.356.16-.025.151-.098.35-.15.5l-.64 1.835a.38.38 0 0 1-.364.272h-.006v.084c.138-.007.275-.015.414-.015.155 0 .313.008.467.015v-.084h-.027c-.13-.002-.312-.015-.318-.158.002-.079.05-.18.09-.316l.132-.428h.932l.16.475c.045.128.081.235.081.293-.006.123-.174.132-.265.134h-.027v.084Zm-.818-1.177.384-1.167h.033l.378 1.167h-.795Zm.049-.035h.7l-.349-1.071-.351 1.071ZM39.665 26.386c0 .161.111.209.24.225.163.012.343.012.528-.008a.57.57 0 0 0 .383-.217c.064-.087.1-.2.125-.287h.115c-.044.228-.1.452-.148.68-.35 0-.704-.016-1.055-.016-.353 0-.705.016-1.056.016v-.12h.055c.144 0 .3-.02.3-.268v-2.056c0-.209-.156-.229-.3-.229h-.055v-.12c.211 0 .42.016.631.016.205 0 .404-.016.609-.016v.12h-.1c-.153 0-.272.005-.272.217v2.063Z"
    fill="#1A1919"
  />
  <path
    fill-rule="evenodd"
    clip-rule="evenodd"
    d="M40.909 26.796c-.353 0-.706-.016-1.056-.016-.352 0-.704.016-1.057.016h-.017v-.155h.073c.145-.003.282-.013.284-.25v-2.057c-.002-.194-.139-.207-.284-.21h-.073v-.155h.017c.213 0 .421.016.632.016.204 0 .403-.016.609-.016h.016v.155h-.117c-.155.004-.251-.003-.255.199v2.063c.001.15.1.19.224.208a3.209 3.209 0 0 0 .525-.008.56.56 0 0 0 .372-.21.902.902 0 0 0 .121-.281l.004-.014h.15l-.003.021c-.045.23-.1.452-.149.68l-.003.014h-.013Zm-.014-.034c.046-.217.098-.43.141-.645h-.082a.907.907 0 0 1-.123.281.595.595 0 0 1-.396.223 3.07 3.07 0 0 1-.532.007c-.13-.014-.256-.07-.256-.24v-2.065c0-.222.14-.233.29-.233h.082v-.086c-.197.002-.391.017-.59.017-.207 0-.41-.015-.614-.017v.085h.038c.142 0 .317.026.317.246v2.056c0 .26-.174.286-.317.286h-.038v.085c.345 0 .691-.016 1.038-.016.348 0 .695.015 1.042.016ZM41.008 23.873c.241 0 .421.185.421.422s-.18.42-.421.42a.413.413 0 0 1-.422-.42c0-.237.18-.422.422-.422Zm0 .764a.34.34 0 0 0 .333-.342.34.34 0 0 0-.333-.343.34.34 0 0 0-.334.343.34.34 0 0 0 .334.342Zm-.21-.12v-.02c.052-.008.061-.006.061-.038v-.312c0-.044-.004-.06-.06-.057v-.021h.217c.074 0 .142.035.142.112 0 .062-.041.109-.1.127l.07.096c.032.044.069.085.092.1v.013h-.082c-.04 0-.074-.082-.151-.194h-.047v.14c0 .028.01.026.062.034v.02h-.204Zm.142-.222h.05c.054 0 .08-.041.08-.108 0-.066-.04-.09-.083-.09h-.047v.198Z"
    fill="#1A1919"
  />
  <path
    fill-rule="evenodd"
    clip-rule="evenodd"
    d="M16.023 9.864a6.775 6.775 0 1 1 13.55 0 6.775 6.775 0 0 1-13.55 0Z"
    fill="#FFFFFE"
  />
  <path
    fill-rule="evenodd"
    clip-rule="evenodd"
    d="M26.895 9.73a4.076 4.076 0 0 0-2.616-3.8v7.6a4.076 4.076 0 0 0 2.616-3.8Zm-5.53 3.8v-7.6a4.08 4.08 0 0 0-2.614 3.8 4.078 4.078 0 0 0 2.613 3.8Zm1.457-10.224a6.425 6.425 0 0 0 0 12.847 6.424 6.424 0 0 0 0-12.847Zm-.015 13.454c-3.883.018-7.078-3.127-7.078-6.956 0-4.185 3.195-7.08 7.078-7.078h1.82c3.836-.001 7.337 2.892 7.337 7.078 0 3.827-3.501 6.956-7.338 6.956h-1.82Z"
    fill="#184977"
  />
</svg>
