<svg fill="none" xmlns="http://www.w3.org/2000/svg" viewBox="0 0 24 24">
  <path
    d="M14.28 15.894c.16-.267.188-.449.188-.449l-1.56-4.079s-.284-.789.34-1.021c.658-.25.902.386.948.516.045.13.987 2.627.987 2.627l.902-2.621s.261-.817.982-.522c.595.238.29 1.038.29 1.038s-.926 2.73-1.697 4.71c-.46 1.18-.857 1.299-1.305 1.412-.602.148-1.742.074-1.742-.675 0-.59.607-.63.88-.619.005-.005.572.04.788-.317ZM10.655 9.04l-1.424 3.932-1.554-3.91s-.233-.743-.88-.743c-.749 0-.726.596-.743.743-.017.148 0 6.117 0 6.117s-.006.624.68.624c.704 0 .67-.63.676-.63.006 0 0-3.149 0-3.149l1.146 3.149s.17.618.698.607c.528-.011.68-.607.68-.607l.96-3.143v3.143s0 .63.692.63c.67 0 .67-.63.67-.63V9.068s0-.749-.727-.743c-.607 0-.834.578-.874.715-.005.017-.005.022-.005.022Z"
    fill="#27BCED"
  />
  <path
    d="M23.172 11.791c.034-.05.499-.425.46-1.412-.075-2.003-1.816-1.98-2.202-1.997-.619-.017-.993-.012-2.133 0-.965.01-.954.885-.954.885v6.536h3.246c1.736 0 2.383-.953 2.383-2.292 0-1.345-.8-1.72-.8-1.72Zm-3.433-2.025h1.793c.357.011.738.199.738.738 0 .556-.33.737-.738.737h-1.793V9.766Zm1.923 4.704H19.74v-1.833h1.923c.466.023.92.26.92.92-.006.669-.415.912-.92.912Z"
    fill="#204866"
  />
  <path
    d="M23.972 18.214h-5.657l.006.012a9.492 9.492 0 0 1-7.246 3.347c-5.26 0-9.526-4.267-9.526-9.526 0-5.26 4.267-9.526 9.526-9.526 2.917 0 5.52 1.31 7.268 3.37h1.912a11.042 11.042 0 0 0-9.18-4.902C4.97.989.017 5.942.017 12.047c0 6.105 4.953 11.058 11.058 11.058a11.01 11.01 0 0 0 8.102-3.546l4.789-.006v-1.339h.006Z"
    fill="#27BCED"
  />
</svg>
