<svg fill="none" xmlns="http://www.w3.org/2000/svg" viewBox="0 0 24 24">
  <path d="M23.154 0H1v24h22.154V0Z" fill="#1834CB" />
  <path d="M22.6 15.586H1.556V.554H22.6v15.032Z" fill="#fff" />
  <path
    d="m17.4 3.282-4.13 9.856h-2.696L8.541 5.271c-.123-.483-.23-.66-.604-.867-.616-.33-1.627-.643-2.518-.837l.06-.285h4.34c.552 0 1.05.368 1.176 1.003l1.074 5.703 2.653-6.706H17.4Z"
    fill="#1834CB"
  />
  <path
    d="M8.072 17.954H7.33v1.65h.74c.302 0 .532-.06.69-.184.16-.122.239-.336.239-.641 0-.31-.08-.524-.238-.645-.16-.12-.389-.18-.69-.18Zm-1.554 3.94v-4.579h1.674c.33 0 .619.051.868.154.249.102.443.261.581.476.139.215.208.489.208.822 0 .333-.07.606-.208.82-.138.212-.332.37-.581.472a2.27 2.27 0 0 1-.868.154h-.861v1.68h-.813ZM11.28 20.026h1.343l-.662-1.85h-.012l-.67 1.85Zm-.65 1.867h-.748l1.699-4.578h.861l1.7 4.578h-.868l-.446-1.252h-1.753l-.446 1.252ZM15.572 21.893v-1.982l-1.614-2.596h.897l1.199 1.988h.018l1.187-1.988h.735l-1.615 2.59v1.988h-.807Z"
    fill="#fff"
  />
</svg>
