<svg fill="none" xmlns="http://www.w3.org/2000/svg" viewBox="0 0 48 30">
  <path
    d="M43.701 0H3.806c-.138.002-.276.003-.414.007a6.17 6.17 0 0 0-.903.078A3.1 3.1 0 0 0 1.63.36C1.36.495 1.114.67.9.879A2.811 2.811 0 0 0 .087 2.43a5.71 5.71 0 0 0-.08.881c-.004.135-.005.27-.006.405v22.568c0 .135.002.27.006.405.008.294.026.59.08.88A2.806 2.806 0 0 0 .9 29.12c.214.21.461.386.73.52.275.136.557.223.859.276.297.052.601.07.903.077l.414.006L4.3 30H43.7l.492-.001c.139 0 .277-.003.416-.006.3-.008.604-.025.902-.077.302-.053.583-.14.858-.277a2.866 2.866 0 0 0 1.261-1.231c.14-.268.23-.543.283-.838.054-.29.071-.587.08-.881l.006-.405.001-.48V4.196l-.001-.481c0-.135-.003-.27-.007-.405a5.715 5.715 0 0 0-.079-.88A2.827 2.827 0 0 0 46.37.36a3.103 3.103 0 0 0-.858-.276 6.187 6.187 0 0 0-.903-.078 21.21 21.21 0 0 0-.415-.006L43.701 0Z"
    fill="#000"
  />
  <path
    d="M43.701 1h.485c.131.002.263.003.395.007.23.006.498.018.749.062.217.038.4.096.575.183a1.853 1.853 0 0 1 .813.795c.089.17.148.347.187.561.045.242.057.505.064.73a62.164 62.164 0 0 1 .007.858v21.607c0 .158 0 .316-.002.477 0 .127-.002.254-.005.382a4.844 4.844 0 0 1-.064.733 1.91 1.91 0 0 1-.187.559 1.814 1.814 0 0 1-.815.795 2.042 2.042 0 0 1-.571.182 5.343 5.343 0 0 1-.747.063c-.132.003-.264.004-.4.005l-.484.001H4.292L3.811 29c-.132 0-.264-.002-.392-.005a5.342 5.342 0 0 1-.749-.062 2.044 2.044 0 0 1-.576-.184 1.834 1.834 0 0 1-1-1.356 4.832 4.832 0 0 1-.063-.73 18.246 18.246 0 0 1-.006-.383V3.723c0-.129.002-.257.006-.385.006-.224.018-.486.064-.732.039-.212.098-.39.187-.56a1.85 1.85 0 0 1 .813-.793c.175-.088.357-.146.575-.184.25-.044.52-.056.75-.062.13-.004.262-.005.392-.006L4.3 1H43.7"
    fill="#fff"
  />
  <path
    d="M13.104 10.09c.41-.501.69-1.175.616-1.864-.602.03-1.336.388-1.76.89-.383.43-.72 1.132-.632 1.792.675.057 1.35-.33 1.776-.818ZM13.712 11.037c-.98-.058-1.814.543-2.283.543-.468 0-1.186-.515-1.961-.5a2.903 2.903 0 0 0-2.46 1.457c-1.053 1.774-.277 4.404.747 5.848.498.715 1.098 1.502 1.888 1.473.747-.028 1.04-.472 1.947-.472s1.17.472 1.961.458c.82-.014 1.332-.715 1.83-1.43.571-.815.805-1.601.82-1.644-.015-.014-1.581-.601-1.596-2.36-.014-1.472 1.23-2.172 1.288-2.216-.702-1.014-1.8-1.129-2.18-1.158ZM22.252 9.044c2.132 0 3.616 1.434 3.616 3.523 0 2.096-1.515 3.538-3.67 3.538h-2.36v3.664h-1.705V9.044h4.12Zm-2.413 5.663h1.956c1.485 0 2.33-.78 2.33-2.133 0-1.352-.845-2.125-2.322-2.125h-1.964v4.258ZM26.314 17.547c0-1.368 1.073-2.208 2.977-2.312l2.192-.126v-.602c0-.87-.601-1.39-1.606-1.39-.952 0-1.546.446-1.69 1.145h-1.553c.091-1.413 1.324-2.453 3.304-2.453 1.941 0 3.182 1.003 3.182 2.572v5.388h-1.576v-1.285h-.038c-.464.87-1.477 1.42-2.527 1.42-1.569 0-2.665-.952-2.665-2.357Zm5.17-.706v-.617l-1.972.119c-.983.067-1.538.49-1.538 1.16 0 .683.578 1.13 1.462 1.13 1.15 0 2.047-.774 2.047-1.792ZM34.608 22.646v-1.3c.122.029.396.029.533.029.761 0 1.172-.312 1.424-1.115 0-.015.144-.476.144-.483l-2.893-7.827h1.782l2.025 6.363h.03l2.026-6.363h1.736l-3 8.228c-.685 1.895-1.477 2.505-3.137 2.505a6.52 6.52 0 0 1-.67-.037Z"
    fill="#000"
  />
</svg>
