<svg fill="none" xmlns="http://www.w3.org/2000/svg" viewBox="0 0 48 30">
  <path
    d="m47.78 19.248.128-16.603c0-1.411-.961-2.415-2.162-2.555H2.174C1.014.252.013 1.234.013 2.645v16.603H47.78"
    fill="#F6BD33"
  />
  <path
    d="M47.908 27.475c0 1.41-.961 2.415-2.162 2.554H2.174c-1.16-.161-2.161-1.143-2.161-2.554v-8.26H47.78l.127 8.26Z"
    fill="#fff"
  />
  <path
    d="M2.369.094C1.06.094 0 1.197 0 2.558v24.977C0 28.898 1.06 30 2.37 30h43.169c1.308 0 2.368-1.103 2.368-2.464V2.558c0-1.36-1.06-2.464-2.368-2.464H2.368Zm.025 0v.36h43.118c1.113 0 2.02.944 2.02 2.103v24.966c0 1.16-.907 2.102-2.02 2.102H2.394c-1.113 0-2.019-.943-2.019-2.102V2.557c0-1.159.906-2.102 2.02-2.102V.094Z"
    fill="#0D3567"
  />
  <path
    d="M25.538 26.253c.977 0 1.144-.728 1.261-1.68.084-.682.087-1.16-.156-1.434-.145-.164-.373-.244-.697-.244-.445 0-.743.145-.94.453-.196.31-.274.77-.33 1.22-.083.685-.087 1.165.157 1.44.145.165.376.245.705.245m.606-4.94c.885 0 1.504.215 1.895.657.453.512.587 1.295.434 2.539-.123 1.008-.368 1.715-.768 2.222-.514.652-1.283.969-2.35.969-.886 0-1.508-.216-1.9-.66-.449-.506-.588-1.31-.438-2.527.125-1.013.37-1.722.77-2.23.515-.652 1.286-.97 2.357-.97M4.612 26.303c.362 0 .557-.22.604-.606.048-.387-.088-.58-.467-.58h-.866l-.146 1.186h.875Zm.208-2.381c.404 0 .53-.278.572-.614.041-.337-.017-.547-.43-.547h-.79l-.143 1.16h.791ZM2.7 21.39h2.49c1.598 0 2.028.681 1.913 1.615-.089.723-.396 1.17-.84 1.363.545.219.717.664.615 1.497-.145 1.186-1.006 1.758-2.411 1.758H1.934L2.7 21.39ZM35.623 21.39l-.765 6.233h-1.599l.428-3.482.015-.12-1.522 3.602h-1.04l-.634-3.487-.02-.109-.013.11-.428 3.486h-1.446l.765-6.233h1.184c.542 0 1.002.387 1.094.921l.416 2.422.01.057.022-.053 1.415-3.347h2.118M37.683 25.341h1.09l-.004-.02-.306-1.725-.01-.055-.022.052-.748 1.748Zm1.034-3.951c.529 0 .984.377 1.083.897l1.012 5.336h-1.688l-.141-.873-.003-.014h-1.84l-.004.01-.357.877h-1.635l2.713-6.233h.86ZM18.48 21.39l-.764 6.233h-1.514l-1.541-3.246-.025-.053-.007.058-.398 3.24h-1.556l.765-6.232h1.029c.428 0 .823.25 1.004.638l1.082 2.306.007-.058.354-2.886h1.565"
    fill="#0D3567"
  />
  <path
    d="M21.775 21.314c.69 0 1.288.164 1.734.477l-1.047 1.37c-.247-.163-.574-.248-.947-.248-.715 0-1.085.246-1.257 1.647-.095.768-.044 1.215.164 1.45.14.159.351.226.706.226.386 0 .686-.088 1.065-.314l.653 1.272c-.527.304-1.07.506-1.995.506-.837 0-1.428-.208-1.807-.636-.449-.509-.595-1.343-.447-2.551.13-1.066.396-1.8.834-2.309.515-.6 1.282-.89 2.344-.89M10.322 25.341h-1.07l.01-.023.738-1.725.022-.052.01.055.306 1.726.003.02h-.02Zm-3.609 2.282h1.635l.357-.876.004-.01h1.84l.003.013.14.873h1.688l-1.011-5.336a1.103 1.103 0 0 0-1.083-.897h-.86l-2.713 6.233Z"
    fill="#0D3567"
  />
  <path
    d="M42.767 10.611h-7.373l.177-1.446h3.33c.487-.001.64-.337.69-.744.05-.408-.02-.663-.52-.663h-3.327l.2-1.662h3.402c1.937 0 2.458.826 2.319 1.958-.057.463-.188.831-.378 1.111h.2c.774 0 1.374.677 1.28 1.446m-1.375.91c-.176 1.437-1.22 2.13-2.922 2.13h-3.453l.2-1.6h3.429c.438 0 .675-.266.732-.734.007-.052.008-.098.009-.144h2.03c-.003.11-.01.222-.025.347m4.688-2.402-6.862-6.863a1.07 1.07 0 0 0-1.512 0l-6.862 6.863a1.07 1.07 0 0 0 0 1.512l6.862 6.862a1.069 1.069 0 0 0 1.512 0l6.862-6.862a1.07 1.07 0 0 0 0-1.512M25.75 12.233c1.266 0 1.482-.944 1.634-2.177.108-.883.112-1.501-.202-1.856-.188-.212-.483-.316-.903-.316-.576 0-.962.187-1.216.587-.255.4-.356.995-.428 1.58-.11.887-.113 1.508.202 1.864.19.214.488.318.913.318m.785-6.397c1.146 0 1.948.278 2.454.85.587.663.76 1.677.563 3.288-.16 1.306-.477 2.22-.995 2.878-.666.844-1.661 1.254-3.042 1.254-1.15 0-1.954-.28-2.463-.854-.58-.655-.76-1.696-.566-3.273.161-1.312.478-2.23.998-2.888.667-.844 1.665-1.255 3.051-1.255M12.28 11.024h-1.385l.013-.03.956-2.235.028-.066.013.07.401 2.26h-.025ZM7.608 13.98h2.118l.462-1.136.006-.014h2.383l.002.018.183 1.131h2.186l-1.31-6.911a1.428 1.428 0 0 0-1.403-1.162H11.12l-3.513 8.073ZM18.513 10.891h1.394l-.017.142c-.09.73-.321 1.285-1.193 1.285-.99 0-1.272-.458-1.049-2.276.233-1.895.827-2.124 1.677-2.124 1.526 0 2.295.219 2.295.219l.249-2.023s-.807-.276-2.191-.276c-2.787 0-3.845 1.34-4.189 4.138-.3 2.44.147 4.128 2.793 4.128 2.592 0 3.319-.958 3.628-3.474l.183-1.492h-3.365l-.215 1.753M5.74 9.791c.588 0 .833-.305.915-.98.086-.697-.084-1.002-.671-1.002H4.818l-.243 1.982H5.74ZM2.925 5.936H6.29c2.112 0 2.696 1.1 2.494 2.744-.2 1.623-1.069 2.94-3.236 2.94H4.351l-.293 2.385H1.934l.991-8.07Z"
    fill="#FFFFFE"
  />
  <path
    d="m45.96 21.39-.184 1.497h-1.867l-.58 4.736h-1.657l.58-4.736h.002-1.641l.21-1.497h5.163"
    fill="#0D3567"
  />
</svg>
