<svg fill="none" xmlns="http://www.w3.org/2000/svg" viewBox="0 0 48 30">
  <path
    d="M9.383 0H21.34c1.67 0 2.708 1.357 2.318 3.027l-5.567 23.831c-.393 1.664-2.064 3.022-3.735 3.022H2.4c-1.667 0-2.708-1.358-2.318-3.022l5.57-23.831C6.04 1.357 7.712 0 9.382 0"
    fill="#E21836"
  />
  <path
    d="M20.346 0h13.752c1.67 0 .917 1.357.524 3.027l-5.567 23.831c-.39 1.664-.268 3.022-1.94 3.022H13.361c-1.672 0-2.707-1.358-2.315-3.022l5.567-23.831C17.009 1.357 18.676 0 20.346 0"
    fill="#00447C"
  />
  <path
    d="M33.553 0H45.51c1.672 0 2.71 1.357 2.317 3.027l-5.566 23.831c-.393 1.664-2.066 3.022-3.737 3.022H26.572c-1.672 0-2.71-1.358-2.318-3.022l5.567-23.831C30.212 1.357 31.881 0 33.553 0"
    fill="#007B84"
  />
  <path
    fill-rule="evenodd"
    clip-rule="evenodd"
    d="M30.501 14.813c.045-.216.308-1.494.31-1.494 0 0 .224-.938.238-.972 0 0 .07-.097.141-.136h.104c.979 0 2.084 0 2.951-.636.59-.435.993-1.08 1.173-1.861.046-.192.08-.42.08-.648 0-.3-.06-.596-.234-.828-.442-.616-1.322-.628-2.338-.632l-.5.004c-1.3.016-1.822.012-2.036-.015-.018.095-.053.263-.053.263l-.465 2.156-1.167 4.79c1.135-.013 1.6-.013 1.796.009ZM12.506 7.638c-1.23.012-1.593 0-1.709-.028-.045.211-.874 4.028-.877 4.031-.178.772-.308 1.323-.75 1.678-.25.207-.543.306-.883.306-.545 0-.863-.27-.916-.782l-.01-.175.166-1.04s.87-3.478 1.027-3.938a.334.334 0 0 0 .012-.052c-1.695.014-1.995 0-2.016-.028-.012.038-.053.253-.053.253l-.89 3.92-.076.333-.148 1.087c0 .323.064.586.19.809.405.705 1.561.811 2.215.811.842 0 1.632-.178 2.166-.504.926-.545 1.17-1.398 1.385-2.155l.001-.003.1-.39s.897-3.611 1.05-4.081l.002-.009a.133.133 0 0 1 .014-.043Zm3.053 2.914c-.217 0-.612.052-.967.225-.1.051-.194.108-.291.166l-.088.052.116-.417-.064-.07c-.704.141-.897.168-1.487.251l-.13.018-.058.039c-.08.667-.152 1.17-.452 2.481-.114.484-.232.972-.35 1.454l.031.062c.713-.038.93-.038 1.549-.027l.05-.055.053-.278c.043-.227.083-.437.21-1.032l.063-.298c.088-.423.208-1 .274-1.238.155-.071.307-.142.453-.142.34 0 .307.289.293.414l-.001.009c-.015.202-.142.861-.271 1.428l-.087.365c-.031.14-.064.279-.097.416v.001l-.09.383.027.054c.702-.038.916-.038 1.516-.027l.07-.055c.109-.627.14-.796.333-1.71l.097-.42c.188-.821.282-1.238.14-1.577-.15-.38-.511-.472-.842-.472Zm3.286.884.123-.024.014.032.01.034c-.03.126-.06.252-.092.379l-.116.477c-.03.135-.062.268-.094.4v.001c-.036.152-.072.303-.106.455l-.128.57c-.047.207-.074.326-.093.423-.02.092-.03.16-.047.267l-.046.281-.034.029-.031.026-.316-.004a10.612 10.612 0 0 0-.509.002c-.207.001-.41.011-.7.025l-.084.004-.018-.03-.022-.031c.08-.304.13-.434.17-.545l.018-.046c.046-.123.089-.246.17-.598.106-.46.171-.78.214-1.061.036-.2.06-.38.085-.566v-.002l.028-.204.026-.02.029-.027c.36-.05.59-.084.824-.121.21-.027.42-.068.725-.126Zm.132-1.184c-.34-.2-.935-.136-1.336.14-.4.27-.445.653-.107.855.333.194.931.137 1.329-.141.398-.277.448-.657.114-.854Zm3.971 3.875c-.53.56-1.233.748-1.92.748-.268 0-.685-.034-.974-.157-.937-.379-.788-1.394-.659-1.959.129-.554.342-1.131.803-1.557.642-.59 1.464-.624 1.81-.624.573 0 1.127.128 1.44.527.206.263.37.693.16 1.615-.066.278-.253.953-.66 1.407Zm-1.973-1.326c.158-.698.345-1.284.822-1.284.373 0 .4.436.234 1.137-.03.155-.166.733-.35.98-.13.181-.282.291-.45.291-.05 0-.348 0-.353-.441-.002-.218.042-.44.097-.683Zm4.402 1.93-.054.055c-.618-.01-.831-.01-1.545.027l-.032-.061c.118-.483.237-.971.35-1.455.3-1.312.369-1.814.453-2.481l.053-.039.147-.02c.577-.081.776-.109 1.472-.25l.058.07-.108.418c.124-.076.25-.152.377-.218.353-.173.75-.225.967-.225.327 0 .69.091.845.472.14.34.044.756-.145 1.578l-.094.42a27.51 27.51 0 0 0-.333 1.71l-.073.054c-.603-.01-.81-.01-1.514.027l-.026-.054c.033-.148.069-.294.105-.44l.086-.36.082-.365c.132-.567.258-1.226.27-1.428l.002-.008c.014-.125.047-.415-.29-.415-.149 0-.297.069-.45.14l-.006.002c-.06.224-.172.749-.26 1.162v.003l-.08.371c-.131.632-.168.83-.213 1.075l-.044.235Zm6.48-5.881c.003-.008-.493 2.14-.493 2.14l-.02.107h.269c.415 0 .818-.013 1.147-.178.4-.194.71-.596.817-1.074.116-.523-.05-.924-.454-1.079l-1.045-.09-.198-.02-.007.084-.016.11Zm2.59 3.991c-.13.556-.28 1.572.652 1.934.297.127.564.164.834.15.286-.015.551-.158.797-.364l-.067.254.043.055c.67-.029.878-.029 1.605-.023l.066-.05.012-.072c.102-.598.205-1.2.47-2.344.134-.57.268-1.134.406-1.701l-.022-.063c-.75.139-.95.168-1.672.27l-.055.045-.011.086-.01.083a1.03 1.03 0 0 0-.527-.432c-.32-.125-1.074.037-1.722.625-.456.42-.674.995-.798 1.547Zm2.4-1.231c-.479 0-.663.58-.824 1.265-.055.244-.1.467-.098.682.01.434.306.434.354.434.168 0 .46-.108.584-.281.065-.087.125-.218.176-.356l.039-.154a23.961 23.961 0 0 0 .198-.838c.032-.474-.127-.752-.43-.752Zm7.405-.998-.058-.066c-.742.15-.877.174-1.559.265l-.05.05a.183.183 0 0 0-.003.012l-.005.02-.002-.011a9.558 9.558 0 0 1-.518 1.063c-.1.178-.2.354-.388.772l-.003-.056c0-.017 0-.034-.002-.056l-.104-1.993-.065-.066c-.212.04-.367.072-.496.098-.343.07-.495.1-1.018.167l-.056.05a.238.238 0 0 0-.008.05.542.542 0 0 1-.004.029l.004.01c.071.36.073.373.114.717l.045.36c.021.181.046.362.071.543.024.174.048.346.069.518l.032.263c.052.43.092.754.165 1.504-.203.333-.341.58-.467.806-.176.314-.328.586-.6.994l.003.007-.329.519c-.037.054-.071.092-.12.108a.499.499 0 0 1-.215.03h-.182l-.27.898.928.016c.546-.002.889-.256 1.073-.598l.584-.998h-.01l.062-.07c.393-.844 3.382-5.955 3.382-5.955ZM34.054 22.405h.394l-.306.993h-.389l-.092.306h-1.388l.094-.306h-2.816l.28-.92h.288l1.478-4.883.294-.984h1.415l-.148.496s.377-.27.734-.362c.296-.079 1.755-.115 2.244-.125v-.003h1.512l.015.56c-.01.096.072.14.248.14h.307l-.28.926h-.817c-.706.05-.975-.252-.957-.592l-.014-.551-.154.495h-.484l-1.458 4.81Zm-.762-3.832c-.227.062-.648.251-.648.251l.375-1.229h1.123l-.27.896s-.348.02-.58.082Zm-.564 1.852a7.68 7.68 0 0 1 .585-.096l.274-.896h-1.13l-.387 1.28s.43-.219.658-.288Zm-.044 1.991h-1.127l.327-1.08h1.123l-.323 1.08Zm4.34-2.983h-1.626l.277-.93h4.521l-.28.93h-1.517l-.237.754h1.52l-.252.824h-1.643l-.293.347h.668l.163 1.039.011.074c.01.063.016.109.041.141.034.037.234.056.35.056h.203l-.308 1.01h-.514c-.07 0-.17-.004-.306-.01l-.055-.002c-.113-.01-.202-.062-.283-.11l-.082-.046a.487.487 0 0 1-.269-.352l-.16-1.036-.748 1.02c-.237.324-.558.57-1.102.57h-1.045l.275-.902h.4a.649.649 0 0 0 .292-.084.449.449 0 0 0 .22-.184l1.092-1.531h-1.44l.246-.824h1.647l.233-.754Zm-15.348 3.193.38-1.258h1.558l.285-.935h-1.56l.238-.774H24.1l.283-.906h-3.815l-.276.906h.866l-.23.774h-.87l-.288.951h.866l-.505 1.664c-.057.186.005.275.064.36.01.015.022.03.032.047.065.1.13.166.279.203.152.034.257.054.4.054h1.756l.313-1.036-.778.107c-.15 0-.567-.018-.522-.157Zm-.216-5.31.395-.71h1.553l-.273.517h1.564l-.284.948h-2.137l-.23.2c-.06.056-.096.066-.142.078-.032.009-.07.019-.123.047-.12.06-.373.181-.702.181h-.685l.276-.91h.206c.173 0 .293-.016.353-.054.068-.044.144-.14.229-.296Zm3.55 5.328c-.037-.052-.01-.144.045-.336l.585-1.927h2.078c.302-.005.52-.008.663-.018.153-.016.319-.07.5-.168a.934.934 0 0 0 .363-.334c.09-.124.235-.394.359-.81l.734-2.44-2.156.012s-.664.098-.956.206c-.295.12-.717.456-.717.456l.195-.669H25.37l-1.865 6.167c-.066.24-.11.413-.12.517-.004.1.11.198.201.278l.035.03c.087.066.208.072.332.078a10.19 10.19 0 0 0 .833.027h1.023l.315-1.058-.917.086a.241.241 0 0 1-.198-.097Zm3.189-3.565h-2.183l-.134.438h1.89a.972.972 0 0 1 .255-.005c.018.003.027.004.033 0l.139-.433Zm-1.745-1.454h2.2l-.158.522s-1.037-.01-1.203.02c-.731.126-1.158.516-1.158.516l.319-1.058Zm1.569 3.473c.04-.03.068-.069.086-.134l.13-.413h1.017l-.124.586c-.053.184-.098.32-.237.438-.146.124-.317.253-.716.253l-.74.03-.006.662c-.007.15.024.168.052.184a.101.101 0 0 1 .02.014.263.263 0 0 0 .094.06h.002l.235-.013.706-.04-.293.967h-.81c-.567 0-.989-.014-1.125-.121-.137-.087-.155-.195-.153-.38l.052-2.582h1.294l-.019.528h.312c.107 0 .178-.01.223-.039Z"
    fill="#FEFEFE"
  />
</svg>
