<svg width="72" height="72" viewBox="0 0 72 72" fill="none" xmlns="http://www.w3.org/2000/svg">
<g clip-path="url(#clip0_6699_32009)">
<path d="M1.80469 55.2894C2.66426 54.0572 22.953 25.0504 31.2591 21.7569C36.5754 19.6539 39.1074 22.1506 39.9483 23.3226C41.0695 24.8836 41.4292 26.9681 41.0462 28.7978C44.349 27.6815 50.2539 25.8008 54.3322 25.1847C55.4767 25.0133 56.6166 25.2959 57.5463 25.9861C58.4899 26.6902 59.0879 27.7093 59.2421 28.8627C59.5364 31.0769 58.1022 33.115 55.9112 33.606C48.9178 35.1717 44.078 36.6679 42.6298 37.7148L41.3311 35.9499C43.5174 34.3704 50.2025 32.6472 55.4254 31.4799C56.4998 31.239 57.2006 30.2384 57.0604 29.1545C56.9857 28.5847 56.696 28.0891 56.2242 27.737C55.7711 27.4035 55.2198 27.2646 54.6639 27.3479C49.072 28.191 39.4438 31.6744 39.3457 31.7115C38.8739 31.8829 38.346 31.7115 38.061 31.3038C37.776 30.8962 37.8041 30.345 38.1357 29.9698C39.1401 28.821 39.3597 26.2779 38.1544 24.5918C37.0005 22.9844 34.8376 22.688 32.0767 23.7858C25.6906 26.315 9.36801 48.2808 3.61727 56.5308L1.80469 55.2894Z" fill="#0B3EE3"/>
<path d="M46.0536 45.1832L44.582 43.5573C46.147 42.1584 50.6551 41.0096 57.9755 40.1434C59.9189 39.9118 61.3157 38.1515 61.0962 36.2153C60.928 34.733 59.8301 33.5054 58.3726 33.158L57.2047 32.8801L57.7186 30.7539L58.8865 31.0318C61.241 31.597 63.0115 33.5749 63.2825 35.9651C63.6422 39.0872 61.3765 41.936 58.2325 42.3066C48.637 43.4461 46.4787 44.7895 46.0489 45.1739L46.0536 45.1832Z" fill="#0B3EE3"/>
<path d="M24.0234 78.6863C25.4903 76.5555 34.628 64.8778 35.6464 63.5622C42.6351 54.5248 54.8373 49.6749 59.7612 48.0073C60.5647 47.734 61.1814 47.0809 61.4009 46.261C61.6298 45.4086 61.3916 44.4868 60.7749 43.8476L58.8129 41.8141L60.4059 40.304L62.368 42.3375C63.5078 43.5187 63.9563 45.2372 63.5312 46.8215C63.1201 48.3501 61.9755 49.5637 60.476 50.0733C55.739 51.676 44.0179 56.3267 37.3982 64.8917C36.4172 66.1609 27.2936 77.8109 25.8454 79.9185L24.0234 78.6863Z" fill="#0B3EE3"/>
<path d="M34.2152 33.7086L30.2246 37.7043L31.7881 39.2395L35.7786 35.2437L34.2152 33.7086Z" fill="#0B3EE3"/>
<path d="M29.1703 48.4771C31.5434 43.4188 28.8386 34.9557 28.8105 34.8724L30.9081 34.2007C31.0342 34.5805 33.9073 43.5577 31.165 49.3989L29.1703 48.4771Z" fill="#0B3EE3"/>
<path d="M40.8798 33.5402L38.9668 34.6274L47.0116 48.5447L48.9247 47.4575L40.8798 33.5402Z" fill="#0B3EE3"/>
<path d="M40.0727 9.99708C40.0583 11.2194 38.8634 11.9016 37.8399 11.3206C37.6009 11.1856 37.4006 10.9759 37.2027 10.7806C34.2336 7.81533 31.2694 4.84766 28.3051 1.87999C28.1362 1.71123 27.9576 1.54489 27.82 1.35203C27.3662 0.705936 27.4531 -0.0775674 28.0155 -0.600707C28.5514 -1.09974 29.2659 -1.1576 29.8862 -0.73571C30.0504 -0.624815 30.1928 -0.480168 30.3328 -0.337932C33.3598 2.68278 36.3819 5.70348 39.4113 8.72178C39.7903 9.09786 40.121 9.486 40.0727 9.9995V9.99708Z" fill="#AAEEEF"/>
<path d="M52.9602 11.5284C52.3457 11.5477 51.883 11.3545 51.5963 10.8571C51.295 10.3355 51.2878 9.78002 51.6083 9.26805C51.7746 9.00241 52.0204 8.78265 52.2469 8.55565C55.1241 5.66981 58.0014 2.78397 60.881 -0.0970329C61.1075 -0.321621 61.3268 -0.563113 61.5871 -0.744233C62.1967 -1.16685 62.9221 -1.08957 63.4474 -0.577603C63.9703 -0.0704687 64.0739 0.666084 63.6715 1.27948C63.498 1.5427 63.2619 1.76729 63.0378 1.99429C60.134 4.90911 57.2254 7.82151 54.3193 10.7339C53.9241 11.13 53.5506 11.5671 52.9626 11.5284H52.9602Z" fill="#AAEEEF"/>
<path d="M46.9789 0.235203C46.9789 2.25335 46.9789 4.27151 46.9789 6.28966C46.9789 6.60529 46.9911 6.9281 46.9443 7.23656C46.8386 7.95152 46.3567 8.3915 45.7284 8.39389C45.0961 8.39389 44.6142 7.9587 44.5044 7.24613C44.4617 6.97592 44.4718 6.69376 44.4718 6.41878C44.4718 2.30357 44.4718 -1.81403 44.4718 -5.92924C44.4718 -6.20662 44.4617 -6.48878 44.5023 -6.75898C44.606 -7.4572 45.1042 -7.9187 45.7182 -7.9187C46.3323 -7.9187 46.8386 -7.46438 46.9423 -6.76855C46.9891 -6.46008 46.9748 -6.13728 46.9769 -5.82164C46.9789 -3.80349 46.9769 -1.78534 46.9769 0.232812L46.9789 0.235203Z" fill="#AAEEEF"/>
<path d="M62.0419 15.3017C64.2233 15.3017 66.407 15.284 68.5883 15.3093C69.6789 15.3219 70.2673 15.9895 70.186 17.0161C70.131 17.714 69.6622 18.2754 68.9997 18.3816C68.6887 18.4322 68.3658 18.4145 68.0501 18.4145C64.0415 18.4145 60.0352 18.4145 56.0266 18.4145C55.8687 18.4145 55.7061 18.3943 55.5506 18.417C54.6537 18.5561 53.8644 17.7469 53.8811 16.8846C53.8979 15.9136 54.4456 15.3497 55.4956 15.3017C55.7324 15.2916 55.9716 15.2991 56.2107 15.2991C58.1553 15.2991 60.0998 15.2991 62.0443 15.2991L62.0419 15.3017Z" fill="#AAEEEF"/>
</g>
<defs>
<clipPath id="clip0_6699_32009">
<rect width="72" height="72" fill="white"/>
</clipPath>
</defs>
</svg>
