<svg fill="none" xmlns="http://www.w3.org/2000/svg" viewBox="0 0 240 240">
  <path
    d="M30 171.742c2.27-3.265 55.8489-80.1223 77.784-88.8489 14.039-5.5722 20.726 1.0433 22.946 4.1485 2.961 4.1362 3.911 9.6593 2.899 14.5074 8.723-2.9579 24.316-7.941 35.086-9.5734 3.023-.4541 6.033.2946 8.488 2.1233 2.492 1.8656 4.071 4.5658 4.478 7.6221.778 5.867-3.01 11.267-8.796 12.568-18.468 4.148-31.249 8.113-35.073 10.887l-3.43-4.677c5.774-4.185 23.428-8.751 37.22-11.844 2.838-.638 4.688-3.289 4.318-6.161-.197-1.51-.962-2.8229-2.208-3.7557-1.197-.8836-2.653-1.2519-4.121-1.0309-14.767 2.2338-40.193 11.4636-40.452 11.5616-1.246.454-2.64 0-3.393-1.08-.752-1.08-.678-2.541.198-3.535 2.652-3.044 3.232-9.7818.049-14.2494-3.047-4.259-8.759-5.0445-16.05-2.1356-16.8647 6.7014-59.9697 64.903-75.1563 86.762L30 171.742Z"
    fill="#0B3EE3"
  />
  <path
    d="m146.853 144.963-3.886-4.308c4.133-3.707 16.038-6.751 35.37-9.046 5.132-.614 8.82-5.278 8.241-10.408-.445-3.928-3.344-7.18-7.193-8.101l-3.084-.736 1.357-5.634 3.084.737c6.218 1.497 10.894 6.738 11.609 13.071.95 8.273-5.033 15.821-13.336 16.803-25.34 3.019-31.039 6.578-32.174 7.597l.012.025Z"
    fill="#0B3EE3"
  />
  <path
    d="M88.6777 233.734c3.8738-5.646 28.0043-36.587 30.6943-40.073 18.456-23.946 50.68-36.796 63.683-41.215 2.122-.724 3.75-2.455 4.33-4.627.604-2.258-.025-4.701-1.653-6.395l-5.182-5.388 4.207-4.001 5.182 5.388c3.01 3.13 4.194 7.684 3.071 11.881-1.085 4.05-4.108 7.266-8.068 8.616-12.509 4.247-43.463 16.57-60.944 39.263-2.591 3.363-26.6845 34.231-30.5089 39.816l-4.8114-3.265ZM115.589 114.561l-10.538 10.587 4.129 4.068 10.538-10.587-4.129-4.068Z"
    fill="#0B3EE3"
  />
  <path
    d="M102.272 153.694c6.267-13.402-.876-35.826-.95-36.047l5.54-1.78c.333 1.007 7.92 24.793.678 40.27l-5.268-2.443ZM133.187 114.115l-5.052 2.881 21.245 36.876 5.052-2.881-21.245-36.876Z"
    fill="#0B3EE3"
  />
  <path
    d="M130.253 51.9665c-.038 3.2144-3.17 5.0086-5.853 3.4807-.626-.3551-1.151-.9067-1.67-1.4202-7.782-7.7982-15.552-15.6028-23.3214-23.4074-.4429-.4438-.9111-.8813-1.2717-1.3885-1.1895-1.6991-.9617-3.7596.5125-5.1354 1.4046-1.3124 3.2776-1.4646 4.9036-.3551.43.2917.803.6721 1.17 1.0461 7.934 7.9441 15.856 15.8882 23.796 23.8259.994.9891 1.86 2.0098 1.734 3.3602v-.0063ZM165.206 55.9937c-1.562.0508-2.738-.4573-3.467-1.7655-.765-1.3718-.784-2.8326.031-4.179.423-.6986 1.047-1.2765 1.623-1.8735 7.313-7.5894 14.626-15.1788 21.945-22.7554.576-.5907 1.134-1.2258 1.795-1.7021 1.55-1.1114 3.393-.9082 4.728.4382 1.329 1.3337 1.593 3.2708.57 4.8839-.441.6923-1.041 1.2829-1.611 1.8799-7.38 7.6656-14.773 15.3248-22.16 22.9841-1.004 1.0415-1.953 2.191-3.448 2.0894h-.006ZM149.199 25.9935v16.3307c0 .8514.029 1.7221-.082 2.5541-.252 1.9285-1.4 3.1153-2.897 3.1217-1.507 0-2.656-1.1739-2.917-3.0959-.102-.7288-.078-1.4899-.078-2.2316V9.36617c0-.74817-.024-1.50924.073-2.23806C143.545 5.2448 144.732 4 146.195 4c1.464 0 2.67 1.22545 2.917 3.10232.112.83201.078 1.70272.082 2.55409.005 5.44359 0 10.88709 0 16.33069l.005.0064ZM188.584 65.0154c5.73 0 11.468-.0452 17.198.0193 2.866.0322 4.412 1.7347 4.198 4.3528-.145 1.7798-1.376 3.2114-3.117 3.4823-.817.1289-1.665.0838-2.494.0838H172.78c-.415 0-.842-.0516-1.251.0064-2.356.3547-4.43-1.7088-4.386-3.9078.044-2.4763 1.483-3.9143 4.242-4.0368.622-.0258 1.25-.0065 1.879-.0065h15.326l-.006.0065Z"
    fill="#AAEEEF"
  />
</svg>
