<svg xmlns="http://www.w3.org/2000/svg" viewBox="0 0 72 72" fill="none">
  <path fill="#AAEEEF" fill-rule="evenodd" d="M57.0317 22.2055 45.7322 2.6343H16.8246L2.3708 27.669l14.4538 25.0348h28.9076l1.2675-2.1953c.1657-.8017.3311-1.5533.4911-2.2465-2.5348.4908-4.2729-.6946-4.9379-2.2926-.3361-.8089-.4285-1.74-.2528-2.7113l.0007-.004c.3649-1.9728 1.857-4.0841 4.7376-5.5468 1.6869-.8602 3.2284-1.069 4.5941-.6248l-.0399-.0249-.0038-.0007c.623-1.2678 1.5098-2.0917 2.5579-2.3803.6887-.1916 1.3683-.1394 1.9792.0248l.0308-.0533c-1.3369-3.7749-1.4964-7.1019-1.2647-9.6251.0081-.1085.0232-.2118.0428-.3181.2159-1.164 1.0059-2.1041 2.0969-2.4994Z" clip-rule="evenodd"/>
  <path fill="#0B3EE3" fill-rule="evenodd" d="M54.9355 24.7055c.2317-1.249 1.1244-2.2403 2.3408-2.5773 1.3266-.3661 2.6906.1488 3.4715 1.3027 2.3347 3.4569 3.7708 8.935 4.6201 13.5118.9593-.5152 2.3516-1.0232 3.5675-.5442.6993.2746 1.5981.9887 1.9219 2.8167.7996 4.5475-4.1613 16.1899-4.7285 17.5004l-.1318-.0595c-.0994 8.3197.5587 10.938.6922 11.4691.0125.0499.0205.0814.0227.0974l-1.8388.296c-.0023-.015-.0097-.0441-.0212-.0896v-.0001c-.1789-.7086-1.3643-5.403-.2472-23.2988-.0881-1.0628-1.2983-14.5495-5.3929-20.6126-.403-.5957-1.0252-.678-1.4689-.5548-.2153.0586-.9174.3433-.9999 1.2226-.3617 3.9506.3385 10.0713 5.7305 16.793l-1.4434 1.2145c-1.5273-1.9042-2.7034-3.7686-3.6001-5.5607l-.0565.0861-.0027-.0023c-.438-.3805-1.8087-1.2873-2.9091-.9773-.5064.1398-.9211.5373-1.267 1.2043 2.4641 2.0062 3.058 6.1106 3.0839 6.3011l-1.8145.2888c-.0042-.0416-.6129-4.2022-2.9227-5.4414-1.0133-.5423-2.2285-.4406-3.706.3104-3.2214 1.6404-4.2576 4.2114-3.5963 5.8027.5231 1.2505 1.9494 1.6106 3.759.9701.4255-1.6683.7462-2.7201.8148-2.927l1.9369.6025c-.0037.0115-.012.0356-.0246.0719-.3911 1.1334-4.8976 14.1913-3.4078 27.723l-2.073-1.0262c-.5133-8.3908 1.0276-17.071 2.2471-22.3562-2.5348.4909-4.2729-.6946-4.9379-2.2925-.3361-.8089-.4285-1.7401-.2528-2.7114l.0007-.004c.3649-1.9728 1.857-4.084 4.7376-5.5467 1.6869-.8603 3.2284-1.0691 4.5941-.6249l-.0399-.0249-.0038-.0007c.623-1.2678 1.5098-2.0917 2.5579-2.3803.7095-.1973 1.4093-.136 2.0344.04-1.3594-3.8031-1.5222-7.1551-1.2891-9.6935.0081-.1086.0232-.2118.0428-.3182Zm11.1919 26.9943c1.5768-4.2263 3.3193-9.7422 2.8972-12.1179-.1341-.7719-.3934-1.2349-.771-1.3836-.669-.2647-1.8212.2817-2.5403.7439.5352 3.3383.7357 5.844.7539 6.0891a.79162.79162 0 0 1-.001.1352c-.1527 2.4142-.2629 4.5842-.3388 6.5333Z" clip-rule="evenodd"/>
  <path fill="#00C5CA" fill-rule="evenodd" d="M30.9508 11.3999c.7456 0 1.35.4768 1.35 1.065v19.17c0 .5882-.6044 1.065-1.35 1.065s-1.35-.4768-1.35-1.065v-19.17c0-.5882.6044-1.065 1.35-1.065Z" clip-rule="evenodd"/>
  <path fill="#00C5CA" stroke="#00C5CA" d="M32.9992 39.1501c0 1.1612-.8788 2.05-1.9 2.05-1.0212 0-1.9-.8888-1.9-2.05 0-1.1612.8788-2.05 1.9-2.05 1.0212 0 1.9.8888 1.9 2.05Z"/>
</svg>
