<svg fill="none" xmlns="http://www.w3.org/2000/svg" viewBox="0 0 120 120">
  <path
    fill="#000"
    fill-rule="evenodd"
    clip-rule="evenodd"
    d="M65.793 16.802c3.328 0 6.036 2.713 6.036 6.047 0 3.259-2.586 5.923-5.81 6.043l-.226.004h-4.278v3.567c8.177.368 15.947 2.98 22.602 7.541l.523.364 3.436-3.442-7.105-7.118a2.018 2.018 0 0 1 0-2.85 15.525 15.525 0 0 1 11.06-4.59c4.044 0 7.853 1.526 10.772 4.307l.289.282 3.334 3.34c6.099 6.11 6.099 16.052 0 22.163a2.01 2.01 0 0 1-2.715.12l-.13-.12-6.994-7.008-3.147 3.153c6.33 7.781 9.772 17.426 9.772 27.601 0 10.018-3.337 19.521-9.482 27.239l7.86 13.021c.464.775.564.977.564 1.505 0 .536-.213 1.05-.592 1.428-.535.533-.917.59-2.075.599l-2.408.001-3.917-.013a2.009 2.009 0 0 1-1.406-.582l-.119-.129-6.46-7.621c-7.417 5.416-16.32 8.342-25.674 8.342-9.15 0-17.87-2.801-25.188-7.992l-.485-.35-6.46 7.621a2.01 2.01 0 0 1-1.35.703l-.208.008-4.318.014-1.975-.002c-1.158-.009-1.54-.065-2.074-.599a2.017 2.017 0 0 1-.593-1.428c0-.452.074-.665.387-1.205l8.037-13.321c-6.144-7.718-9.482-17.22-9.482-27.239 0-9.976 3.309-19.442 9.403-27.142l.37-.46-3.146-3.152-6.994 7.008a2.01 2.01 0 0 1-2.846 0A15.585 15.585 0 0 1 8 41.377c0-4.05 1.524-7.867 4.3-10.791l.282-.29 3.333-3.34a15.525 15.525 0 0 1 11.06-4.59c4.18 0 8.107 1.63 11.061 4.59.745.746.784 1.93.118 2.723l-.118.128-7.104 7.118 3.435 3.442c6.595-4.664 14.325-7.385 22.48-7.872l.645-.033v-3.567h-4.279c-3.328 0-6.035-2.713-6.035-6.047 0-3.258 2.586-5.923 5.81-6.043l.225-.004h12.58Zm-37.732 89.819-5.645 9.346 2.486-.008 5.787-6.827a44.517 44.517 0 0 1-2.093-1.962c-.18-.181-.358-.366-.535-.549Zm62.885 0c-.178.183-.355.368-.536.549-.509.51-1.03 1.005-1.56 1.486l-.532.476 5.787 6.827 2.486.008-5.645-9.346ZM59.503 36.447c-21.882 0-39.685 17.836-39.685 39.759 0 21.923 17.803 39.759 39.685 39.759 21.883 0 39.686-17.836 39.686-39.76 0-21.922-17.803-39.758-39.686-39.758Zm0 4.843c19.217 0 34.852 15.663 34.852 34.916 0 19.252-15.635 34.915-34.851 34.915a34.898 34.898 0 0 1-21.811-7.681c-6.062-4.878-10.368-11.719-12.127-19.262a2.012 2.012 0 1 1 3.918-.917c3.271 14.03 15.616 23.829 30.02 23.829 16.998 0 30.827-13.854 30.827-30.884S76.5 45.32 59.504 45.32a30.748 30.748 0 0 0-29.955 23.556 2.012 2.012 0 1 1-3.91-.952c1.814-7.47 6.137-14.235 12.174-19.05 6.22-4.962 13.722-7.585 21.69-7.585ZM45.17 61.846a2.01 2.01 0 0 1 2.718-.117l.128.117 8.184 8.2a6.928 6.928 0 0 1 3.303-.834c3.85 0 6.981 3.137 6.981 6.994a7.004 7.004 0 0 1-4.725 6.618l-.244.078v19.025c0 1.113-.9 2.015-2.012 2.015-1.06 0-1.93-.822-2.006-1.865l-.006-.15V82.902a7.004 7.004 0 0 1-4.969-6.696c0-1.088.25-2.118.694-3.037l.139-.272-8.185-8.2a2.019 2.019 0 0 1 0-2.85Zm37.01 19.858c.53 0 1.049.216 1.423.59.374.375.59.895.59 1.425s-.216 1.05-.59 1.425-.893.591-1.422.591c-.53 0-1.049-.216-1.423-.59a2.033 2.033 0 0 1-.59-1.426c0-.53.216-1.05.59-1.425.374-.374.894-.59 1.423-.59Zm-22.677-8.46a2.963 2.963 0 0 0 0 5.924 2.963 2.963 0 0 0 0-5.925Zm17.5-11.63a2.01 2.01 0 0 1 2.8.507 24.625 24.625 0 0 1 4.39 14.085c0 1.113-.9 2.016-2.012 2.016a2.014 2.014 0 0 1-2.012-2.016c0-4.241-1.27-8.317-3.673-11.787a2.018 2.018 0 0 1 .506-2.805ZM26.662 74.19c.53 0 1.049.216 1.423.59.374.375.59.895.59 1.425s-.216 1.05-.59 1.425-.893.591-1.422.591c-.53 0-1.048-.216-1.423-.59a2.033 2.033 0 0 1-.589-1.426c0-.53.215-1.05.59-1.425.374-.374.893-.59 1.422-.59Zm.313-47.786c-2.861 0-5.722 1.049-7.951 3.147l-.264.257-3.334 3.34a11.575 11.575 0 0 0-3.403 8.23c0 2.292.656 4.482 1.88 6.356l.222.328 19.52-19.556a11.587 11.587 0 0 0-6.67-2.102Zm65.056-.006c-2.288 0-4.474.658-6.344 1.884l-.327.223L104.88 48.06c3.119-4.453 2.761-10.622-1.074-14.68l-.225-.232-3.334-3.34a11.531 11.531 0 0 0-8.215-3.41Zm-1.11 13.378-3.082 3.087a44.72 44.72 0 0 1 2.57 2.379l.344.352 2.987-2.992-2.82-2.826Zm-62.836 0-2.82 2.826 2.987 2.992.343-.352a44.067 44.067 0 0 1 1.914-1.806l.657-.573-3.08-3.087Zm37.707-18.943h-12.58a2.016 2.016 0 0 0-.15 4.026l.15.006h12.58a2.016 2.016 0 0 0 .15-4.026l-.15-.005Z"
  />
  <path
    fill="#000"
    d="M88.987 7.457a1.29 1.29 0 0 1-1.288-1.293 1.29 1.29 0 0 1 1.288-1.292h6.223c1.087 0 1.684 1.268.995 2.112l-4.497 5.502h3.502a1.29 1.29 0 0 1 1.287 1.293 1.29 1.29 0 0 1-1.287 1.292h-6.223c-1.087 0-1.685-1.268-.996-2.112l4.497-5.502h-3.501ZM79.295 12.676a1.29 1.29 0 0 1-1.288-1.292 1.29 1.29 0 0 1 1.288-1.293h6.222c1.088 0 1.685 1.269.996 2.113l-4.497 5.502h3.501a1.29 1.29 0 0 1 1.288 1.292 1.29 1.29 0 0 1-1.288 1.293h-6.222c-1.087 0-1.685-1.269-.996-2.113l4.497-5.502h-3.501ZM98.73 2.585a1.29 1.29 0 0 1-1.287-1.293A1.29 1.29 0 0 1 98.73 0h6.222c1.087 0 1.685 1.269.996 2.112l-4.497 5.502h3.501a1.29 1.29 0 0 1 1.288 1.293 1.29 1.29 0 0 1-1.288 1.292h-6.222c-1.087 0-1.685-1.268-.996-2.112l4.497-5.502h-3.501Z"
  />
</svg>
