<svg fill="none" xmlns="http://www.w3.org/2000/svg" viewBox="0 0 120 120">
  <path
    d="M27.792 93.36c2.99 1.84 4.725 5.219 4.506 8.658 0 .307.246.557.549.557l3.824.003c4.517.296 8.031 4.107 8.031 8.709 0 4.602-3.514 8.413-8.138 8.713H13.001l-.116-.004c-3.787-.27-6.736-3.449-6.78-7.309-.041-3.86 2.838-7.106 6.618-7.461l.196-.018.194.028c.035.006.208.024.205.024a.593.593 0 0 0 .475-.211.55.55 0 0 0 .118-.452c-.22-.835-.339-1.694-.348-2.472-.222-3.546 1.514-6.924 4.504-8.766a9.253 9.253 0 0 1 9.725 0Zm73.123 12.571c.843 0 1.527.694 1.527 1.55 0 .856-.684 1.55-1.527 1.55-3.108 0-5.471 1.706-7.245 4.668a17.611 17.611 0 0 0-1.563 3.438c-.14.417-.254.804-.34 1.141l-.029.115-.022.094.001-.021-.004-.038-.01-.039c0 .082.004.101.005.113a.1.1 0 0 1-.001.022l-.003.009.003-.009.006-.029-.001.014-.005.015-.004.019v-.009l-.01.03c-.065.144-.276.43-.864 1.226l-1.135.069-.447-.241-.152-.135-.094-.105c-.035-.044-.035-.044-.085-.115-.156-.282-.156-.282-.172-.336-.025-.073-.025-.073-.033-.101l-.03-.101-.094-.313c-.11-.353-.239-.732-.393-1.146a20.192 20.192 0 0 0-1.699-3.508c-1.854-3.002-4.18-4.727-7.058-4.727a1.538 1.538 0 0 1-1.526-1.55c0-.856.683-1.55 1.526-1.55 4.102 0 7.286 2.362 9.644 6.18a21.74 21.74 0 0 1 1.011 1.834c.295-.64.622-1.277.97-1.857 2.279-3.805 5.536-6.157 9.853-6.157ZM19.783 96.24c-1.935 1.191-3.058 3.377-2.911 5.754.008.581.088 1.162.247 1.764a3.979 3.979 0 0 1-.78 3.444 3.883 3.883 0 0 1-3.471 1.396c-1.983.268-3.472 2.001-3.45 4.051.023 2.088 1.605 3.811 3.646 3.983h23.443c2.75-.206 4.883-2.535 4.883-5.345 0-2.826-2.159-5.166-4.826-5.344h-3.717c-2.132 0-3.86-1.757-3.858-4.032.144-2.294-.98-4.48-2.913-5.671a5.988 5.988 0 0 0-6.293 0Zm1.904-81.424c2.989 1.841 4.725 5.22 4.506 8.659 0 .307.245.556.548.556l3.825.004a8.524 8.524 0 0 1 6.115 3.212l-.034.032c3.78-3.466 8.769-5.576 14.23-5.576 11.776 0 21.356 9.812 21.356 21.873 0 10.632-7.445 19.516-17.276 21.472l-.343.065 4.846 6.484h-7.702l-.636 3.11c-.477 2.341.25 4.792 1.902 6.465l.195.19.126.116c2.736 2.56 3.89 6.43 3.018 10.107a7.206 7.206 0 0 0-.194 1.665 7.16 7.16 0 0 0 2.033 5.005l.209.205 3.717 3.476-2.18 2.444-3.717-3.476c-2.094-1.959-3.295-4.748-3.295-7.654 0-.824.097-1.647.286-2.446.572-2.414-.137-4.949-1.853-6.684l-.194-.19-.127-.116c-2.557-2.392-3.744-5.987-3.15-9.458l.06-.326.498-2.433h-6.077l4.4-6.554C36.957 63.08 29.52 54.2 29.52 43.576c0-.724.035-1.44.102-2.145l-.002.026H6.895l-.115-.005C2.993 41.182.044 38.004 0 34.143c-.041-3.86 2.838-7.106 6.618-7.46l.196-.019.194.029c.035.005.208.023.205.023a.595.595 0 0 0 .474-.21.55.55 0 0 0 .119-.453c-.22-.835-.34-1.694-.348-2.472-.222-3.546 1.514-6.924 4.503-8.765a9.253 9.253 0 0 1 9.726 0Zm81.403 44.439c2.989 1.841 4.725 5.22 4.506 8.659 0 .307.245.556.548.556l3.825.004c4.516.296 8.031 4.107 8.031 8.709 0 4.602-3.515 8.413-8.138 8.712H88.298l-.115-.004c-3.787-.269-6.736-3.448-6.78-7.309-.041-3.86 2.838-7.106 6.618-7.46l.195-.019.195.029c.035.005.208.024.205.023a.594.594 0 0 0 .474-.21.55.55 0 0 0 .12-.452 10.32 10.32 0 0 1-.349-2.472c-.222-3.547 1.514-6.925 4.503-8.766a9.254 9.254 0 0 1 9.726 0ZM24.53 69.759c.843 0 1.527.694 1.527 1.55 0 .856-.683 1.55-1.526 1.55-3.11 0-5.472 1.707-7.246 4.668a17.635 17.635 0 0 0-1.563 3.438c-.14.417-.253.804-.34 1.142l-.028.114-.023.094.001-.02-.004-.038-.01-.04c0 .083.004.101.005.114v.01a.11.11 0 0 1-.001.012l-.002.01c-.048.135-.246.403-.875 1.255l-1.136.07-.447-.241-.152-.136-.094-.105c-.035-.044-.035-.044-.085-.114-.156-.282-.156-.282-.171-.336-.026-.073-.026-.073-.034-.102l-.03-.1-.094-.314a20.88 20.88 0 0 0-.393-1.145 20.168 20.168 0 0 0-1.699-3.508c-1.854-3.002-4.18-4.728-7.057-4.728a1.538 1.538 0 0 1-1.527-1.55c0-.856.684-1.55 1.527-1.55 4.101 0 7.285 2.362 9.643 6.18.369.597.705 1.211 1.011 1.835.295-.64.622-1.277.97-1.858 2.279-3.805 5.537-6.157 9.854-6.157Zm70.55-7.623c-1.934 1.19-3.057 3.377-2.91 5.754.008.58.088 1.162.247 1.763a3.978 3.978 0 0 1-.78 3.445 3.884 3.884 0 0 1-3.472 1.396c-1.982.267-3.472 2-3.45 4.05.024 2.088 1.605 3.811 3.646 3.984h23.444c2.75-.207 4.883-2.536 4.883-5.345 0-2.826-2.159-5.167-4.826-5.345h-3.718c-2.132 0-3.86-1.757-3.857-4.031.144-2.294-.979-4.48-2.913-5.671a5.988 5.988 0 0 0-6.294 0Zm-44.433 3.312-2.123 2.839h4.39l-2.267-2.84Zm.23-40.435c-9.994 0-18.124 8.327-18.124 18.563 0 10.235 8.13 18.562 18.124 18.562C60.87 62.138 69 53.811 69 43.576c0-10.236-8.13-18.563-18.124-18.563Zm-.116 2.365c8.785 0 15.931 7.32 15.931 16.316 0 .914-.723 1.655-1.616 1.655-.893 0-1.616-.74-1.616-1.655 0-7.171-5.697-13.005-12.699-13.005-.892 0-1.616-.741-1.616-1.656 0-.914.724-1.655 1.616-1.655Zm-37.084-9.682c-1.934 1.192-3.057 3.378-2.91 5.755.008.58.088 1.162.247 1.763a3.978 3.978 0 0 1-.78 3.445 3.885 3.885 0 0 1-3.472 1.396c-1.982.267-3.472 2-3.45 4.05.024 2.088 1.605 3.811 3.646 3.984h23.243l.025-.099a22.025 22.025 0 0 1 4.157-8.295l-.015.02c-.876-1.314-2.3-2.209-3.909-2.316h-3.718c-2.132 0-3.86-1.757-3.857-4.031.144-2.294-.98-4.48-2.913-5.672a5.988 5.988 0 0 0-6.294 0Zm85.134-.644c.843 0 1.526.694 1.526 1.55 0 .857-.683 1.55-1.526 1.55-3.109 0-5.472 1.707-7.245 4.668a17.63 17.63 0 0 0-1.564 3.439 16.652 16.652 0 0 0-.382 1.314l-.008.033v-.018l-.004-.038-.01-.04c0 .083.004.101.006.114v.007l-.002.017.008-.036-.003.019c-.03.127-.21.371-.882 1.28l-1.135.07-.448-.241-.152-.135-.094-.105c-.035-.044-.035-.044-.085-.115-.156-.282-.156-.282-.171-.336l-.034-.102-.03-.1a20.034 20.034 0 0 0-.487-1.46 20.16 20.16 0 0 0-1.698-3.507c-1.854-3.002-4.18-4.727-7.058-4.727a1.538 1.538 0 0 1-1.526-1.55c0-.857.683-1.55 1.526-1.55 4.101 0 7.285 2.361 9.644 6.18.368.596.705 1.21 1.01 1.834.295-.64.623-1.277.97-1.858 2.28-3.805 5.537-6.157 9.854-6.157Zm-34.137-4.471a.11.11 0 0 1-.002.013l-.002.01c-.048.135-.245.403-.875 1.255l-1.135.07-.447-.241-.152-.136-.094-.105c-.035-.044-.035-.044-.085-.114-.156-.282-.156-.282-.172-.337l-.034-.1-.03-.102a20.05 20.05 0 0 0-.487-1.459 20.163 20.163 0 0 0-1.698-3.507C57.607 4.826 55.281 3.1 52.403 3.1a1.538 1.538 0 0 1-1.526-1.55c0-.856.683-1.55 1.526-1.55 4.102 0 7.286 2.362 9.644 6.18.369.597.705 1.211 1.011 1.835.295-.64.622-1.277.97-1.858C66.307 2.352 69.564 0 73.88 0c.843 0 1.526.694 1.526 1.55 0 .856-.683 1.55-1.526 1.55-3.109 0-5.471 1.707-7.245 4.668a17.637 17.637 0 0 0-1.563 3.438c-.14.417-.254.804-.34 1.142l-.029.114-.022.094v-.02l-.004-.038-.01-.04c0 .083.005.101.006.114v.009Z"
    fill="#000"
  />
</svg>
