<svg fill="none" xmlns="http://www.w3.org/2000/svg" viewBox="0 0 120 120">
  <path
    fill="#000"
    fill-rule="evenodd"
    clip-rule="evenodd"
    d="M77.035 34.443a2.34 2.34 0 0 1 1.222 3.758l-6.434 7.772.637 10.068a2.339 2.339 0 0 1-3.197 2.323l-9.38-3.716-9.379 3.716a2.34 2.34 0 0 1-3.196-2.323l.636-10.068L41.51 38.2a2.34 2.34 0 0 1 1.22-3.757l9.773-2.507 5.404-8.52a2.339 2.339 0 0 1 3.95 0l5.405 8.52 9.772 2.507Zm-9.94 10.9a2.339 2.339 0 0 1 .533-1.64l4.672-5.645-7.098-1.82a2.34 2.34 0 0 1-1.394-1.013l-3.925-6.188-3.925 6.188a2.34 2.34 0 0 1-1.394 1.013l-7.098 1.82 4.673 5.646c.38.458.57 1.044.532 1.639l-.462 7.313 6.813-2.7a2.338 2.338 0 0 1 1.723 0l6.813 2.7-.462-7.313Z"
  />
  <path
    fill="#000"
    d="M59.883 65.188a2.34 2.34 0 0 0-2.339 2.34v49.899a2.34 2.34 0 1 0 4.679 0v-49.9a2.34 2.34 0 0 0-2.34-2.339ZM96.526 56.574a2.339 2.339 0 0 0-3.3-.222c-4.045 3.534-7.345 8.367-9.808 14.365-3.32 8.085-5.004 18.109-5.004 29.793a2.34 2.34 0 0 0 4.679 0c0-25.312 8.277-36.324 13.21-40.635a2.34 2.34 0 0 0 .223-3.301Z"
  />
  <path
    fill="#000"
    fill-rule="evenodd"
    clip-rule="evenodd"
    d="M117.525 42.031a2.338 2.338 0 0 1 1.976 3.422l-2.245 4.29 1.262 4.516a2.339 2.339 0 0 1-2.602 3.084l-4.775-.809-4.033 2.681a2.335 2.335 0 0 1-2.246.19 2.34 2.34 0 0 1-1.363-1.797l-.706-4.79-3.796-3.008a2.34 2.34 0 0 1 .413-3.929l4.338-2.152 1.687-4.539a2.34 2.34 0 0 1 3.864-.821l3.387 3.46 4.839.202Zm-4.464 10.083-.56-2.004a2.336 2.336 0 0 1 .18-1.714l.964-1.844-2.079-.087a2.342 2.342 0 0 1-1.575-.701l-1.456-1.488-.725 1.952a2.335 2.335 0 0 1-1.153 1.28l-1.864.925 1.631 1.293c.467.37.775.903.862 1.492l.304 2.06 1.733-1.153a2.34 2.34 0 0 1 1.686-.358l2.052.347Z"
  />
  <path
    fill="#000"
    d="M26.542 56.352a2.338 2.338 0 1 0-3.079 3.522c4.934 4.312 13.212 15.324 13.212 40.635a2.34 2.34 0 1 0 4.678 0c0-11.683-1.684-21.707-5.004-29.792-2.463-5.998-5.763-10.831-9.807-14.365Z"
  />
  <path
    fill="#000"
    fill-rule="evenodd"
    clip-rule="evenodd"
    d="M20.357 45.881a2.34 2.34 0 0 1 .413 3.93l-3.796 3.006-.706 4.791a2.34 2.34 0 0 1-3.61 1.607l-4.032-2.68-4.775.808a2.337 2.337 0 0 1-2.643-2.936l1.303-4.664-2.244-4.29a2.34 2.34 0 0 1 1.975-3.422l4.838-.201 3.387-3.461a2.339 2.339 0 0 1 3.865.822l1.687 4.538 4.338 2.152Zm-7.876 5.337c.087-.589.395-1.123.862-1.492l1.631-1.293-1.864-.925a2.337 2.337 0 0 1-1.153-1.28l-.725-1.951-1.456 1.487c-.417.425-.98.676-1.574.701l-2.08.087.964 1.844c.276.527.34 1.14.18 1.714l-.56 2.004 2.053-.347a2.34 2.34 0 0 1 1.686.358l1.733 1.152.303-2.059Z"
  />
  <path
    fill="#000"
    d="M32.362 15.446c3.537 1.99 7.14 7.724 7.87 12.523a2.34 2.34 0 0 0 4.625-.703c-.946-6.229-5.427-13.212-10.201-15.898a2.34 2.34 0 0 0-2.294 4.078Z"
  />
  <path
    fill="#000"
    fill-rule="evenodd"
    clip-rule="evenodd"
    d="M28.921 7.018a7.026 7.026 0 0 1-7.018 7.017 7.025 7.025 0 0 1-7.017-7.017A7.025 7.025 0 0 1 21.903 0a7.026 7.026 0 0 1 7.018 7.018Zm-4.678 0c0-1.29-1.05-2.34-2.34-2.34-1.29 0-2.339 1.05-2.339 2.34 0 1.29 1.05 2.339 2.34 2.339 1.29 0 2.339-1.05 2.339-2.34Z"
  />
  <path
    fill="#000"
    d="M76.871 29.93a2.34 2.34 0 0 0 2.664-1.962c.729-4.798 4.333-10.533 7.87-12.522a2.34 2.34 0 0 0-2.294-4.078c-4.775 2.686-9.255 9.67-10.201 15.899a2.339 2.339 0 0 0 1.962 2.663Z"
  />
  <path
    fill="#000"
    fill-rule="evenodd"
    clip-rule="evenodd"
    d="M104.881 7.018a7.025 7.025 0 0 1-7.017 7.017 7.026 7.026 0 0 1-7.018-7.017A7.026 7.026 0 0 1 97.863 0a7.025 7.025 0 0 1 7.018 7.018Zm-4.678 0c0-1.29-1.05-2.34-2.34-2.34-1.29 0-2.339 1.05-2.339 2.34 0 1.29 1.05 2.339 2.34 2.339 1.29 0 2.339-1.05 2.339-2.34Z"
  />
  <path
    fill="#000"
    d="M19.689 80.89a2.344 2.344 0 0 0-2.34 2.338c0 1.289 1.052 2.34 2.34 2.34 1.288 0 2.34-1.051 2.34-2.34 0-1.288-1.052-2.339-2.34-2.339ZM27.174 34.457c0 1.288 1.051 2.339 2.34 2.339 1.288 0 2.339-1.05 2.339-2.34a2.344 2.344 0 0 0-2.34-2.339 2.344 2.344 0 0 0-2.339 2.34ZM59.689 14.34c1.288 0 2.34-1.05 2.34-2.34 0-1.288-1.052-2.339-2.34-2.339a2.344 2.344 0 0 0-2.34 2.34c0 1.288 1.052 2.339 2.34 2.339ZM92.438 33.755c0 1.288 1.05 2.339 2.339 2.339 1.288 0 2.34-1.05 2.34-2.34a2.344 2.344 0 0 0-2.34-2.338 2.344 2.344 0 0 0-2.34 2.339ZM97.584 80.89a2.343 2.343 0 0 0-2.34 2.338c0 1.289 1.051 2.34 2.34 2.34 1.288 0 2.34-1.051 2.34-2.34 0-1.288-1.052-2.339-2.34-2.339ZM39.014 104.946a2.344 2.344 0 0 0-2.34 2.34 2.344 2.344 0 0 0 2.34 2.339 2.344 2.344 0 0 0 2.339-2.339c0-1.289-1.051-2.34-2.34-2.34ZM80.754 104.946a2.344 2.344 0 0 0-2.34 2.34 2.344 2.344 0 0 0 2.34 2.339 2.344 2.344 0 0 0 2.339-2.339c0-1.289-1.051-2.34-2.34-2.34ZM46.904 67.293a2.344 2.344 0 0 0-2.34 2.339c0 1.288 1.051 2.34 2.34 2.34 1.288 0 2.339-1.051 2.339-2.34 0-1.288-1.05-2.34-2.34-2.34ZM73.044 66.24a2.344 2.344 0 0 0-2.34 2.34c0 1.288 1.052 2.339 2.34 2.339 1.288 0 2.34-1.051 2.34-2.34 0-1.288-1.052-2.339-2.34-2.339Z"
  />
</svg>
