<svg fill="none" xmlns="http://www.w3.org/2000/svg" viewBox="0 0 240 240">
  <path
    d="M181.123 37.8645 53.4195 71.3597c-3.6208.9361-7.3172-1.238-8.2546-4.8615l-6.3496-24.5421c-.9374-3.616 1.2397-7.3075 4.868-8.2436L171.387.21733c3.621-.93608 7.317 1.23805 8.255 4.8616l6.349 24.54207c.938 3.616-1.239 7.3075-4.868 8.2435ZM78.2362 171.992h-8.0807c-2.88 0-5.2082-2.332-5.2082-5.201V85.2912c0-2.8762 2.3357-5.2014 5.2082-5.2014H192.795c2.88 0 5.208 2.3327 5.208 5.2014v80.1938c0 2.876-2.336 5.201-5.208 5.201h-71.797l-2.767-5.02-6.523-5.828-7.416-1.872-7.2185.196-9.2901 4.839-9.5396 8.984-.0076.007Z"
    fill="#AAEEEF"
  />
  <path
    d="m53.5174 192.639-3.2429 3.11c-.0907.083-.136.196-.136.317s.0453.234.1285.325l2.4718 2.574c.0907.091.2117.136.3251.136.1133 0 .2267-.045.3174-.129l37.6822-36.092c1.1944-.573 9.3955-4.295 17.0155-1.645 4.725 1.638 8.474 5.435 11.142 11.286-.053 1.132-.4 4.37-2.645 5.571-2.994 1.6-9.132-.589-16.827-5.994-.0983-.068-.2193-.098-.3402-.076-.121.023-.2268.091-.2948.189l-2.0485 2.914c-.0681.098-.0983.219-.0756.34.0226.12.0907.226.1889.294 9.6912 6.809 16.7362 8.863 21.5362 6.266 5.155-2.786 4.996-9.738 4.989-10.033-.015-.287-.076-.566-.189-.815-3.198-7.293-7.907-12.056-13.992-14.155-10.1822-3.518-20.387 1.835-20.8179 2.061-.1739.098-.3402.212-.4914.355l-31.4459 30.113-16.3957-15.015c-.1814-.166-.4687-.158-.6425.03l-2.4114 2.627c-.0831.091-.1209.204-.1209.325 0 .121.0604.234.1436.317l16.1841 14.819-.0076-.015Z"
    fill="#0B3EE3"
  />
  <path
    d="M157.463 170.506c-.075-.166-.234-.272-.415-.272l-3.75.038c-.151 0-.294.076-.378.204-.083.128-.098.287-.037.43.869 2.001 1.776 5.405 1.043 6.726-.65 1.178-2.132 1.578-2.525 1.661h-.272c-.771 0-1.519.023-2.275.046 1.595-3.428.831-6.93-.461-8.863-.084-.128-.265-.204-.394-.204l-3.696.106c-.181 0-.34.128-.401.302-.06.173 0 .377.129.498.242.226 1.134 2.053 1.02 4.212-.09 1.759-.808 3.231-2.124 4.379-26.956 3.155-44.9009 21.462-59.5807 36.439-8.2923 8.463-15.4508 15.77-22.4128 18.495-9.9931 3.903-24.0606-6.431-34.1142-15.785-11.2934-10.516-20.08462-22.164-20.16777-22.285-.07559-.098-.18142-.158-.30237-.173-.12094-.015-.24189.015-.34016.083l-2.84979 2.136c-.19653.151-.24189.431-.0907.634 1.24725 1.661 30.78829 40.682 53.23889 40.682 2.2148 0 4.3162-.385 6.2514-1.14 7.8539-3.072 15.3223-10.697 23.985-19.537 15.5262-15.845 34.8472-35.571 64.5772-35.571h.439c.143 0 .219 0 .325-.022.166-.023 4.036-.574 5.911-3.903 1.391-2.469 1.27-5.609-.355-9.331l.022.015Z"
    fill="#0B3EE3"
  />
  <path
    d="M55.2491 67.1869c-.4989 0-.96-.3321-1.0961-.8455-.1587-.6039.1965-1.2229.8088-1.3815L177.17 32.6046c1.126-.2944 2.064-1.0191 2.646-2.0231.582-1.004.733-2.1817.431-3.299l-3.311-12.2672c-.167-.6039.196-1.2229.801-1.389.605-.1661 1.225.1963 1.391.8002l3.311 12.2672c.461 1.7061.227 3.4952-.658 5.0277-.884 1.5325-2.321 2.6271-4.029 3.08L55.5439 67.1567c-.0983.0227-.1965.0378-.2948.0378v-.0076ZM188.674 166.7h-64.222c-.627 0-1.134-.506-1.134-1.132 0-.627.507-1.133 1.134-1.133h64.222c1.905 0 3.447-1.547 3.447-3.442V90.7339c0-.6265.507-1.1323 1.134-1.1323.628 0 1.134.5058 1.134 1.1323v70.2591c0 3.148-2.562 5.707-5.715 5.707ZM190.138 53.3575c-.31 0-.613-.1208-.839-.3699-.424-.4605-.393-1.1777.068-1.6004l26.298-24.0891c.461-.4227 1.179-.3925 1.602.0679.424.4605.393 1.1777-.068 1.6004l-26.298 24.0891c-.219.1963-.491.2944-.763.2944v.0076Z"
    fill="#00C5CA"
  />
  <path
    fill-rule="evenodd"
    clip-rule="evenodd"
    d="M191.138 54.3575h-1c-.576 0-1.151-.228-1.577-.6949-.795-.867-.739-2.2163.13-3.0125l26.298-24.0891c0 .0001 0-.0001 0 0 .867-.7947 2.217-.7389 3.015.1283.797.867.74 2.2175-.129 3.0142l-26.307 24.0971c-.133.1194-.278.2196-.43.3004v.2565Zm-1-1.0076c.272 0 .544-.0981.763-.2944l26.298-24.0891c.461-.4227.492-1.1399.068-1.6004-.423-.4604-1.141-.4906-1.602-.0679l-26.298 24.0891c-.392.3588-.473.9298-.229 1.3759.043.0794.097.1549.161.2245.194.2132.443.3324.705.3623.045.0051.089.0076.134.0076v-.0076Z"
    fill="#00C5CA"
  />
  <path
    d="M194.287 66.5923c-.552 0-1.035-.4077-1.119-.9663-.09-.619.333-1.1928.953-1.2833l37.372-5.526c.62-.0905 1.195.3322 1.285.9512.091.619-.332 1.1928-.952 1.2834l-37.372 5.5259c-.053.0075-.114.0151-.167.0151Z"
    fill="#00C5CA"
  />
  <path
    fill-rule="evenodd"
    clip-rule="evenodd"
    d="M192.179 65.7732v-.0022c-.17-1.1607.626-2.2461 1.796-2.4177 0 .0001.001 0 0 0l37.374-5.526c1.159-.1695 2.247.6233 2.419 1.7956.17 1.1608-.626 2.2462-1.797 2.4177 0 .0001 0 0 0 0l-37.376 5.5266c-.054.0077-.177.0251-.308.0251-1.042 0-1.951-.7656-2.108-1.8191Zm2.275.804c-.053.0075-.114.0151-.167.0151-.552 0-1.035-.4077-1.119-.9663-.09-.619.333-1.1928.953-1.2833l37.372-5.526c.62-.0905 1.195.3322 1.285.9512.091.619-.332 1.1928-.952 1.2834l-37.372 5.5259Z"
    fill="#00C5CA"
  />
</svg>
