<svg fill="none" xmlns="http://www.w3.org/2000/svg" viewBox="0 0 120 120">
  <path
    fill-rule="evenodd"
    clip-rule="evenodd"
    d="M48.505 18.334a1.969 1.969 0 0 0 2.697-.695 9.998 9.998 0 0 1 8.543-4.94c1.003 0 1.999.154 2.955.456a1.968 1.968 0 0 0 2.586-2.306 1.971 1.971 0 0 0-1.406-1.448 13.662 13.662 0 0 0-4.135-.64 13.946 13.946 0 0 0-11.931 6.878 1.97 1.97 0 0 0 .691 2.695ZM18.967 34.09a1.967 1.967 0 0 0 2.697-.696 9.997 9.997 0 0 1 8.543-4.938c1.002-.001 1.998.152 2.954.454a1.969 1.969 0 1 0 1.181-3.753 13.607 13.607 0 0 0-4.135-.64 13.945 13.945 0 0 0-11.931 6.877 1.97 1.97 0 0 0 .691 2.696ZM36.312 54.698a13.61 13.61 0 0 0-4.136-.64 13.945 13.945 0 0 0-11.932 6.877 1.97 1.97 0 0 0 1.692 2.97c.698 0 1.343-.369 1.698-.97a9.996 9.996 0 0 1 8.542-4.938c1.002-.001 1.998.152 2.954.454a1.97 1.97 0 0 0 2.586-2.306 1.967 1.967 0 0 0-1.404-1.447ZM91.45 54.698a13.609 13.609 0 0 0-4.136-.64 13.946 13.946 0 0 0-11.931 6.877 1.97 1.97 0 0 0 1.692 2.97c.698 0 1.343-.369 1.697-.97a9.995 9.995 0 0 1 8.542-4.938c1.003-.001 1.999.152 2.954.454a1.969 1.969 0 1 0 1.182-3.753Z"
    fill="#000"
  />
  <path
    fill-rule="evenodd"
    clip-rule="evenodd"
    d="M86.92 18.608a21.4 21.4 0 0 0-6.14.908C79.317 9.06 70.52 1.19 59.968.89 49.415.589 40.186 7.948 38.13 18.303c-9.672-4.03-20.84-.552-26.516 8.255-5.676 8.806-4.231 20.415 3.43 27.56a21.653 21.653 0 0 0-2.838 22.996 21.646 21.646 0 0 0 19.578 12.392c.679 0 1.35-.041 2.014-.101L32.11 96.04a1.971 1.971 0 0 0 2.666 2.302l7.606-3.169 15.322 22.986c.11.157.243.298.395.417a.342.342 0 0 0 .042.042l.012.011c.015.012.033.02.05.028a.436.436 0 0 1 .037.019c.115.079.239.145.368.197l.024.01.018.008c.039.016.077.032.117.046a.341.341 0 0 1 .02.006l.01.003.01.004a.245.245 0 0 1 .022.009c.012.005.022.01.038.014.118.028.241.043.364.046.02 0 .039.004.058.007.016.003.032.006.048.007h.014c.078 0 .157 0 .236-.014.016 0 .03-.006.044-.013l.018-.008a2.059 2.059 0 0 0 .275-.061l.017-.007.02-.007.026-.01.052-.021.04-.017a1.59 1.59 0 0 0 .187-.071 2 2 0 0 0 .183-.128l.046-.031.022-.015.015-.01.01-.007a1.046 1.046 0 0 0 .21-.193c.04-.04.075-.081.11-.125.014-.019.03-.036.047-.054a.588.588 0 0 0 .068-.081l15.339-22.982 7.593 3.164a1.969 1.969 0 0 0 2.666-2.302l-1.686-6.636c.67.06 1.345.102 2.03.102a21.651 21.651 0 0 0 16.698-35.449 21.653 21.653 0 0 0-16.698-35.45Zm17.724 21.664a17.573 17.573 0 0 1-3.819 10.983 21.486 21.486 0 0 0-19.861-4.223 21.77 21.77 0 0 0-5.157-12.973 22.293 22.293 0 0 0-3.742-3.432 17.757 17.757 0 0 1 7.767-6.593 17.403 17.403 0 0 1 7.088-1.487c9.784.012 17.712 7.94 17.724 17.725Zm-47.262 29.44a21.14 21.14 0 0 1-3.995-.758 21.47 21.47 0 0 1-2.037 8.12.32.32 0 0 0 .031.062c.014.024.028.048.034.076l5.967 23.869v-31.37Zm3.94 0a21.138 21.138 0 0 0 3.994-.758c.14 2.814.832 5.573 2.037 8.12a.325.325 0 0 1-.03.062c-.015.024-.029.048-.035.076l-5.967 23.866V69.712Zm-8.126-4.973a17.713 17.713 0 0 0 12.311 0A21.687 21.687 0 0 1 77.055 48.58c.002-.063.006-.126.01-.188.005-.08.01-.16.01-.243a17.724 17.724 0 0 0-27.57-14.72 17.675 17.675 0 0 0-7.877 14.73c0 .073.005.145.01.216.005.072.01.143.01.215a21.69 21.69 0 0 1 11.548 16.15Zm6.156-59.917c9.183.049 16.822 7.074 17.64 16.222a21.707 21.707 0 0 0-8.33 7.595 21.39 21.39 0 0 0-19.318.31 21.59 21.59 0 0 0-7.554-8.665c1.145-8.83 8.658-15.445 17.562-15.462ZM29.813 20.577c-9.783.013-17.711 7.94-17.723 17.725a17.598 17.598 0 0 0 5.71 13.014 21.49 21.49 0 0 1 19.96-4.28 21.53 21.53 0 0 1 8.26-15.908 17.662 17.662 0 0 0-7.308-8.136 17.454 17.454 0 0 0-8.899-2.415ZM14.06 67.843c0-9.789 7.934-17.725 17.723-17.725 9.788 0 17.722 7.936 17.722 17.725 0 9.79-7.934 17.725-17.722 17.725-9.784-.012-17.712-7.94-17.724-17.725Zm40.625 38.681-6.221-24.88a21.77 21.77 0 0 1-7.426 5.757l4.89 2.883a1.956 1.956 0 0 1 .126 3.296l8.63 12.944Zm-17.783-13.33.808-3.184 2.828 1.67-3.636 1.514Zm44.083-3.184-2.828 1.67 3.636 1.514-.808-3.184Zm-8.223.284a1.955 1.955 0 0 0-.118 3.303l-8.626 12.937 6.221-24.88a21.776 21.776 0 0 0 7.426 5.743l-4.903 2.897Zm-3.564-22.451c0 9.79 7.934 17.725 17.722 17.725 9.784-.012 17.712-7.94 17.724-17.725 0-9.789-7.935-17.725-17.724-17.725-9.788 0-17.722 7.936-17.722 17.725Z"
    fill="#000"
  />
  <path
    fill-rule="evenodd"
    clip-rule="evenodd"
    d="M79.351 31.344c.583.918 1.8 1.19 2.718.607a9.87 9.87 0 0 1 8.196-1.071 1.97 1.97 0 1 0 1.181-3.754 13.843 13.843 0 0 0-11.496 1.498 1.97 1.97 0 0 0-.599 2.72ZM63.88 35.003a13.662 13.662 0 0 0-4.135-.64 13.946 13.946 0 0 0-11.931 6.878 1.968 1.968 0 0 0 3.389 2 9.996 9.996 0 0 1 8.542-4.939 9.8 9.8 0 0 1 2.955.455 1.97 1.97 0 1 0 1.18-3.754ZM2.244 10.73h1.97a1.97 1.97 0 1 0 0-3.938h-1.97a1.97 1.97 0 1 0 0 3.939ZM12.09 10.73h1.97a1.97 1.97 0 0 0 0-3.938h-1.97a1.97 1.97 0 0 0 0 3.939ZM6.183 14.67a1.97 1.97 0 0 0 3.938 0V12.7a1.97 1.97 0 0 0-3.938 0v1.97ZM8.151.884a1.97 1.97 0 0 0-1.968 1.97v1.968a1.97 1.97 0 1 0 3.938 0V2.853a1.97 1.97 0 0 0-1.97-1.97ZM8.151 107.231h1.97a1.969 1.969 0 0 0 0-3.938h-1.97a1.968 1.968 0 1 0 0 3.938ZM17.998 107.231h1.969a1.969 1.969 0 1 0 0-3.938h-1.97a1.969 1.969 0 1 0 0 3.938ZM14.06 113.14a1.97 1.97 0 0 0 1.968-1.97v-1.97a1.97 1.97 0 0 0-3.938 0v1.97a1.97 1.97 0 0 0 1.97 1.97ZM16.028 99.354a1.97 1.97 0 1 0-3.938 0v1.969a1.97 1.97 0 1 0 3.938 0v-1.97ZM106.613 16.639h-1.969a1.97 1.97 0 0 0 0 3.938h1.969a1.97 1.97 0 0 0 0-3.939ZM116.459 16.639h-1.969a1.97 1.97 0 1 0 0 3.938h1.969a1.97 1.97 0 1 0 0-3.939ZM110.552 26.486a1.969 1.969 0 0 0 1.968-1.97v-1.969a1.97 1.97 0 1 0-3.938 0v1.97a1.97 1.97 0 0 0 1.97 1.969ZM112.52 12.7a1.969 1.969 0 1 0-3.938 0v1.97a1.97 1.97 0 0 0 3.938 0V12.7Z"
    fill="#000"
  />
</svg>
