<svg fill="none" xmlns="http://www.w3.org/2000/svg" viewBox="0 0 120 120">
  <path
    fill-rule="evenodd"
    clip-rule="evenodd"
    d="M86.844 8c9.029 0 17.481 3.601 23.8 10.14 12.683 13.125 12.441 34.49-.54 47.624l-41.33 41.815a12.213 12.213 0 0 1-8.714 3.647 12.214 12.214 0 0 1-8.715-3.647L9.748 65.489C3.462 59.13 0 50.673 0 41.677c0-8.995 3.462-17.452 9.748-23.812C16.035 11.503 24.393 8 33.283 8c8.887 0 17.244 3.503 23.531 9.865l3.249 3.287 3.245-3.286C69.596 11.504 77.954 8 86.844 8Zm-22.427 95.171 41.329-41.816c10.605-10.73 10.826-28.161.491-38.856-5.15-5.33-12.037-8.264-19.394-8.264-7.244 0-14.055 2.855-19.178 8.039L55.09 35.009a3.054 3.054 0 0 1-4.357.001 3.144 3.144 0 0 1-.002-4.409l4.977-5.039-3.25-3.288c-5.123-5.184-11.933-8.039-19.174-8.039-7.244 0-14.055 2.855-19.178 8.039-5.122 5.183-7.943 12.073-7.943 19.403 0 7.33 2.82 14.22 7.943 19.403l41.597 42.091a6.118 6.118 0 0 0 8.715 0Z"
    fill="#000"
  />
  <path
    fill-rule="evenodd"
    clip-rule="evenodd"
    d="M109.287 40.262a22.853 22.853 0 0 0-6.537-14.681c-2.745-2.778-6.151-4.796-9.85-5.838-1.64-.461-3.338.51-3.794 2.168-.456 1.659.503 3.377 2.143 3.839a16.282 16.282 0 0 1 7.144 4.24 16.587 16.587 0 0 1 4.744 10.656c.101 1.653 1.457 2.926 3.072 2.926.064 0 .128-.002.193-.007 1.698-.105 2.99-1.584 2.885-3.303Z"
    fill="#000"
  />
</svg>
