<svg fill="none" xmlns="http://www.w3.org/2000/svg" viewBox="0 0 120 120">
  <path
    fill="#000"
    fill-rule="evenodd"
    clip-rule="evenodd"
    d="M9.191 35.889c1.144-.727 2.552-.528 3.521.458l.13.14.131.159L19.8 45.42l.501-.172c10.803-3.686 24.043-5.857 36.886-6.058l.987-.011.961-.004c20.26 0 32.434 7.127 35.272 17.943.035.431.103.88.202 1.332a.99.99 0 0 1-.154.727.85.85 0 0 1-.618.371l-.107.003-.255-.389.006.055.179.326-.136-.019-.076-.014-.072.01a3.946 3.946 0 0 0-1.166.319l-.222.107-.218.12-.506.3-.156-.567c-.394-1.438-1.473-2.686-3.574-3.79-4.253-2.236-11.96-3.382-22.88-3.382-1.43 0-2.925.02-4.441.059-1.034.031-1.85-.93-1.87-2.097-.02-1.162.757-2.156 1.787-2.182 1.543-.04 3.065-.06 4.524-.06 9.013 0 15.833.74 20.688 2.258l.39.125.207.07a20.358 20.358 0 0 0-.597-.492l-.305-.237-.471-.35c-5.682-4.092-14.477-6.267-25.43-6.267-13.725 0-28.056 2.345-39.309 6.428-4.315 1.566-7.999 3.335-10.772 5.161l-.39.262-.17.117.335-.099c2.317-.677 5.101-1.357 8.238-2.01l1.285-.262c10.442-2.088 23.64-3.724 35.312-4.377 1.035-.06 1.872.878 1.915 2.044.044 1.16-.711 2.174-1.739 2.231-11.038.618-23.198 2.085-33.355 4.025l-1.58.308c-7.002 1.397-11.404 2.697-13.8 3.823l-.337.163-.15.075.15.076c2.264 1.133 6.602 2.456 13.656 3.885l1.553.308.513.099c10.175 1.946 22.333 3.419 33.351 4.04 1.027.057 1.782 1.07 1.738 2.231-.04 1.075-.755 1.958-1.684 2.04l-.175.005-.056-.002c-11.653-.656-24.851-2.298-35.313-4.393-3.432-.688-6.483-1.408-9.016-2.128l-.535-.154-.355-.106.187.13c2.56 1.752 5.964 3.456 9.969 4.988l.637.24.588.217c11.252 4.083 25.584 6.428 39.308 6.428 10.954 0 19.749-2.175 25.43-6.268.32-.23.629-.465.927-.706l.446-.373-.207.07c-4.63 1.523-11.12 2.303-19.685 2.378l-1.392.006c-1.455 0-2.977-.02-4.525-.06-1.03-.027-1.807-1.02-1.787-2.183.02-1.166.838-2.127 1.869-2.096 1.523.039 3.018.059 4.443.059 10.92 0 18.627-1.146 22.88-3.382.225-.118.438-.239.641-.361l.296-.185.585-.38.103.69c.257 1.71 1.118 3.182 2.32 4.028l.205.135.396.248-.264.386c-3.408 4.981-9.361 8.726-17.683 10.697l-.558.129-.187.04v5.448l.1.08c.631.542 1.069 1.35 1.221 2.268l.032.232.02.235.007.243v3.743c0 5.171-3.33 9.462-7.59 9.766l-.237.013-.237.004h-22.74c-4.3 0-7.804-4.085-8.05-9.212l-.01-.286-.003-.285v-3.744c0-1.167.461-2.248 1.241-2.944l.124-.104V81.67l-.702-.12c-5.014-.881-9.811-2.035-14.224-3.425l-.94-.302-.928-.309-.672-.233-6.825 8.778c-.508.653-1.197 1.063-1.936 1.167l-.186.02-.188.006a2.69 2.69 0 0 1-1.08-.228l-.209-.101-.184-.107-6.25-3.97c-1.287-.818-1.914-2.563-1.567-4.224l.048-.207.06-.21 2.856-9.013-.072-.063C1.707 66.873.222 64.476.023 61.94l-.017-.294L0 61.352c0-2.664 1.413-5.178 4.004-7.542l.334-.3L1.483 44.5c-.488-1.54-.082-3.262.988-4.272l.15-.134.158-.124.162-.11 6.25-3.97ZM71.11 91.237H39.556v3.132c0 2.888 1.795 5.25 4.03 5.484l.193.015.184.004h22.74c2.276 0 4.198-2.195 4.391-5.027l.012-.244.004-.232v-3.132Zm-13.19 3.695c0-1.164-.797-2.14-1.829-2.14h-1.516l-.15.008-.145.022c-.901.179-1.533 1.074-1.533 2.11 0 1.164.796 2.14 1.828 2.14h1.516l.15-.007.145-.022c.902-.18 1.534-1.075 1.534-2.11Zm4.977-2.14c1.033 0 1.829.976 1.829 2.14 0 1.036-.632 1.931-1.534 2.11l-.144.023-.15.007H61.38c-1.032 0-1.828-.976-1.828-2.14 0-1.036.632-1.931 1.534-2.11l.144-.022.15-.008h1.517Zm-11.783 2.14c0-1.164-.797-2.14-1.829-2.14H47.77l-.15.008-.145.022c-.901.179-1.533 1.074-1.533 2.11 0 1.164.796 2.14 1.828 2.14h1.516l.15-.007.145-.022c.902-.18 1.534-1.075 1.534-2.11ZM41.742 82.35l-.82-.114v4.72H69.73v-4.164l-.27.041c-2.91.422-6.045.654-9.404.69l-.922.005c-5.73 0-11.612-.401-17.392-1.178ZM5.036 79.302l2.46-7.759.602.382c2.26 1.4 4.873 2.685 7.711 3.85l.161.066-5.417 6.965-5.517-3.504Zm19.997-19.92c1 0 1.789.881 1.789 1.945 0 .941-.62 1.748-1.49 1.915l-.146.022-.153.007H14.75c-1 0-1.789-.88-1.789-1.944 0-.941.62-1.748 1.49-1.915l.146-.022.153-.007h10.282ZM5.036 43.403l5.517-3.505 5.417 6.965-.764.317c-2.861 1.207-5.47 2.533-7.7 3.975l-.01.006-2.46-7.759Z"
  />
  <path
    fill="#000"
    fill-rule="evenodd"
    clip-rule="evenodd"
    d="M104.929 49.11a8.774 8.774 0 0 0-9.003 0 8.572 8.572 0 0 0-4.173 7.899l.012.35c.028.473.101.977.215 1.476l.088.357-.005-.008-.018.015-.01.004-.03.004-.307-.038-.104-.003-.407.041c-3.436.43-6.023 3.345-5.985 6.797.04 3.532 2.813 6.439 6.372 6.685l.117.005h20.712l.258-.02c4.182-.389 7.339-3.77 7.339-7.87 0-4.167-3.272-7.617-7.474-7.885l-3.387-.004-.018-.004c-.01-.005-.016-.013-.016-.022.203-3.09-1.418-6.128-4.176-7.78Zm-9.339 7.565c-.033-1.758.844-3.345 2.332-4.23a4.938 4.938 0 0 1 5.036 0 4.731 4.731 0 0 1 2.326 4.368c-.004 2.18 1.692 3.876 3.816 3.876h3.246l.2.018c1.986.233 3.565 1.978 3.565 4.04 0 2.13-1.677 3.902-3.847 4.06l-20.439-.002-.174-.02c-1.434-.203-2.544-1.428-2.56-2.895l.003-.178c.067-1.358 1.077-2.5 2.439-2.759l.135-.022.22.019.282.003a3.89 3.89 0 0 0 2.858-1.36 3.717 3.717 0 0 0 .774-3.303 5.5 5.5 0 0 1-.203-1.385l-.009-.23ZM46.1 3.243a8.773 8.773 0 0 0-9.003 0 8.572 8.572 0 0 0-4.172 7.9l.012.349c.028.474.1.978.215 1.477l.088.357-.006-.008-.017.014-.01.005-.03.004-.307-.039-.104-.002-.407.04c-3.436.431-6.024 3.346-5.986 6.798.041 3.532 2.814 6.439 6.373 6.685l.117.004h20.712l.257-.02c4.182-.388 7.34-3.77 7.34-7.869 0-4.168-3.272-7.617-7.475-7.885l-3.387-.004-.017-.004c-.01-.005-.016-.014-.016-.022.203-3.09-1.418-6.128-4.177-7.78Zm-9.338 7.566c-.033-1.759.844-3.345 2.331-4.23a4.939 4.939 0 0 1 5.037 0 4.731 4.731 0 0 1 2.326 4.367c-.005 2.18 1.691 3.877 3.816 3.877h3.246l.2.018c1.986.233 3.565 1.977 3.565 4.04 0 2.13-1.677 3.902-3.847 4.06l-20.44-.002-.173-.02c-1.435-.203-2.544-1.428-2.561-2.895l.003-.178c.068-1.358 1.078-2.5 2.44-2.759l.134-.022.221.018.282.004a3.89 3.89 0 0 0 2.857-1.36 3.717 3.717 0 0 0 .774-3.304 5.503 5.503 0 0 1-.202-1.384l-.01-.23Z"
  />
  <path
    fill="#000"
    d="M109.359 10.46a1.994 1.994 0 1 1-3.988 0V8.468a1.993 1.993 0 1 1 3.988 0v1.994ZM103.376 16.443h-1.994a1.994 1.994 0 0 1 0-3.988h1.994a1.994 1.994 0 1 1 0 3.988ZM111.352 12.455h1.995a1.994 1.994 0 0 1 0 3.988h-1.995a1.994 1.994 0 0 1 0-3.988ZM107.364 16.443a1.993 1.993 0 0 0-1.993 1.995v1.993a1.993 1.993 0 1 0 3.988 0v-1.993a1.995 1.995 0 0 0-1.995-1.995ZM11.405 106.589a1.993 1.993 0 1 1-3.983 0v-1.994a1.992 1.992 0 1 1 3.983 0v1.994ZM5.43 112.572H3.437c-1.1 0-1.992-.893-1.992-1.994 0-1.102.892-1.995 1.992-1.995H5.43c1.101 0 1.993.893 1.993 1.995a1.993 1.993 0 0 1-1.993 1.994ZM13.397 108.583h1.992a1.994 1.994 0 0 1 0 3.989h-1.992c-1.1 0-1.992-.893-1.992-1.994 0-1.102.892-1.995 1.992-1.995ZM9.413 112.572c-1.1 0-1.991.892-1.991 1.994v1.994a1.993 1.993 0 1 0 3.983 0v-1.994a1.993 1.993 0 0 0-1.992-1.994ZM107.137 90.745a1.995 1.995 0 1 1-3.988 0V88.75a1.995 1.995 0 1 1 3.988 0v1.995ZM101.155 96.735h-1.994a1.995 1.995 0 0 1 0-3.993h1.994c1.102 0 1.994.894 1.994 1.997a1.995 1.995 0 0 1-1.994 1.996ZM109.131 92.742h1.995a1.996 1.996 0 0 1 0 3.993h-1.995a1.995 1.995 0 0 1 0-3.993ZM105.143 96.735a1.995 1.995 0 0 0-1.994 1.997v1.995a1.995 1.995 0 1 0 3.988 0v-1.995a1.995 1.995 0 0 0-1.994-1.997Z"
  />
</svg>
