<svg fill="none" xmlns="http://www.w3.org/2000/svg" viewBox="0 0 48 48">
  <path
    fill-rule="evenodd"
    clip-rule="evenodd"
    d="M34.4 28.858v-.88a3.981 3.981 0 0 0 1.6-3.177v-.8a.8.8 0 0 0 .8-.8v-1.6a4.8 4.8 0 0 0-9.6 0v1.6a.8.8 0 0 0 .8.8v.8a3.98 3.98 0 0 0 1.6 3.18v.88a5.609 5.609 0 0 0-4.8 5.54v2.4a.8.8 0 0 0 .8.8h12.8a.8.8 0 0 0 .8-.8v-2.4a5.609 5.609 0 0 0-4.8-5.543Zm-5.6-7.256a3.2 3.2 0 0 1 6.4 0v.8h-.137a.8.8 0 0 1-.566-.235l-1.131-1.13a.8.8 0 0 0-1.132 0l-.663.662c-.45.449-1.06.701-1.697.703H28.8v-.8Zm3.902 1.229A3.973 3.973 0 0 1 29.874 24H29.6v.8a2.4 2.4 0 0 0 4.8 0v-.903a2.368 2.368 0 0 1-1.034-.6l-.566-.565-.098.098ZM32 28.8c.269 0 .537-.026.8-.08v.55l-.8.8-.8-.8v-.55c.263.054.531.08.8.08Zm5.6 5.6a3.993 3.993 0 0 0-3.7-3.97l-1.334 1.336a.8.8 0 0 1-1.132 0L30.1 30.432A3.993 3.993 0 0 0 26.4 34.4V36h11.2v-1.6Z"
    fill="#000"
  />
  <path
    d="M39.2 40.8v-1.6h-9.6v1.6h9.6ZM24.8 42.4h14.4V44H24.8v-1.6ZM28 39.2h-3.2v1.6H28v-1.6Z"
    fill="#000"
  />
  <path
    fill-rule="evenodd"
    clip-rule="evenodd"
    d="M45.6 9.603H40v-2.4a.8.8 0 0 0-.8-.8h-4.496l-.193-1.061.648-.215A2.4 2.4 0 0 0 36.8 2.85v-.127a2.415 2.415 0 0 0-1.774-2.32 11.56 11.56 0 0 0-6.052 0 2.415 2.415 0 0 0-1.774 2.32v.125a2.4 2.4 0 0 0 1.642 2.275l.647.215-.193 1.065H24.8a.8.8 0 0 0-.8.8v2.4h-5.6a2.4 2.4 0 0 0-2.4 2.4v9.599H7.2a.8.8 0 0 0-.48.16l-2.986 2.24H.8a.8.8 0 0 0-.8.8V41.6a.8.8 0 0 0 .8.8h2.934l2.986 2.24a.8.8 0 0 0 .48.16H16v.8a2.4 2.4 0 0 0 2.4 2.4h27.2a2.4 2.4 0 0 0 2.4-2.4V12.002a2.4 2.4 0 0 0-2.4-2.4Zm-7.2-1.6v4.8h-2.532l-.873-4.8H38.4Zm-8.64 4.8h4.48l-.87-4.8h-2.737l-.873 4.8Zm.893-8.76-1.306-.434a.8.8 0 0 1-.547-.759v-.127a.8.8 0 0 1 .6-.775 9.915 9.915 0 0 1 5.2 0 .8.8 0 0 1 .6.775v.125a.8.8 0 0 1-.547.758l-1.306.435a.8.8 0 0 0-.534.903l.265 1.459h-2.156l.265-1.457a.8.8 0 0 0-.534-.902Zm-1.648 3.96H25.6v4.8h2.532l.873-4.8ZM7.466 43.2 4.48 40.96A.8.8 0 0 0 4 40.8H1.6V25.602H4a.8.8 0 0 0 .48-.16l2.986-2.24H20.8a1.6 1.6 0 1 1 0 3.2h-6.4a.802.802 0 0 0-.358.08l-3.03 1.52H8.8v1.6h2.4a.8.8 0 0 0 .358-.08l3.03-1.52H16v3.2h-3.2V32.8H16v2.4h-3.2v1.6H16v2.4h-3.2v1.6H16v2.4H7.466ZM45.6 46.4a.8.8 0 0 0 .8-.8V12.002a.8.8 0 0 0-.8-.8H40v2.4a.8.8 0 0 1-.8.8H24.8a.8.8 0 0 1-.8-.8v-2.4h-5.6a.8.8 0 0 0-.8.8v9.6h3.2a3.2 3.2 0 1 1 0 6.4h-3.2V45.6a.8.8 0 0 0 .8.8h27.2Z"
    fill="#000"
  />
</svg>
