<svg width="104" height="104" viewBox="0 0 104 104" fill="none" xmlns="http://www.w3.org/2000/svg">
<mask id="mask0" style="mask-type:alpha" maskUnits="userSpaceOnUse" x="1" y="1" width="102" height="104">
<path fill-rule="evenodd" clip-rule="evenodd" d="M94.417 58.9058H93.1193C92.6908 56.3335 91.2791 54.04 89.1939 52.5275C94.4108 41.3643 93.6464 28.2526 87.1696 17.7981C80.692 7.34361 69.4067 1.00774 57.2784 1.01717C56.2412 1.01481 55.2048 1.06588 54.173 1.17038C52.8799 0.982597 51.5684 0.982597 50.2753 1.17038C49.262 1.07374 48.224 1.01717 47.1783 1.01717C37.8041 1.02581 28.8152 4.82466 22.1835 11.5801C20.6146 10.308 18.672 9.61035 16.6669 9.59935C11.4523 9.71563 7.31195 14.1116 7.40827 19.4292C7.40827 19.5997 7.41366 19.771 7.42368 19.9438C4.03694 20.8403 1.68588 23.9768 1.72749 27.5439C1.65506 31.7694 4.94855 35.2579 9.09201 35.3451H11.8677C11.8422 35.903 11.8276 36.471 11.8276 37.0619C11.8461 51.7167 20.5576 64.9046 33.8695 70.4312L38.7612 85.3964V97.1348C38.7612 100.927 41.7757 104 45.4946 104H58.9622C62.681 104 65.6956 100.927 65.6956 97.1348V85.3964L69.9523 72.3758C71.1698 74.8964 73.672 76.5047 76.4268 76.5385H94.417C99.0682 76.3633 102.75 72.4678 102.75 67.7222C102.75 62.9765 99.0682 59.081 94.417 58.9058ZM89.2625 37.0619C89.2779 41.9183 88.2099 46.7157 86.1385 51.0897C85.4411 50.9019 84.7237 50.8022 84.0025 50.7927C78.7871 50.909 74.6467 55.305 74.7438 60.6226C74.7438 60.7931 74.7485 60.9644 74.7585 61.1372C71.8796 61.8946 69.7042 64.3052 69.2033 67.294C66.9362 68.2219 64.5721 68.8795 62.157 69.2543C69.4615 63.2005 74.112 50.8234 74.112 37.0619C74.112 23.0167 69.3112 10.8133 62.1486 4.86866C77.7299 7.32633 89.2348 20.9865 89.2625 37.0619ZM53.9117 83.4039H62.7997L66.5964 71.7905C63.5618 72.6524 60.4278 73.0948 57.2785 73.1058C56.2335 73.1058 55.1925 73.0492 54.183 72.9525C54.1299 72.9651 54.0757 72.9664 54.0217 72.9676C53.9848 72.9685 53.948 72.9693 53.9117 72.9738V83.4039ZM53.8617 4.58266L53.9503 4.59445C63.3723 6.15092 70.7453 20.3917 70.7453 37.0619C70.7453 50.2569 66.0493 62.3967 59.0431 67.3521C58.9899 67.3812 58.9391 67.4126 58.8897 67.4464C57.4187 68.5024 55.7365 69.2134 53.9641 69.5269L53.8617 69.541C52.7798 69.7155 51.677 69.7155 50.5959 69.541L50.5011 69.5285C48.7249 69.215 47.0396 68.5016 45.567 67.4417C45.5193 67.4087 45.4699 67.378 45.4191 67.3505C38.4098 62.4038 33.7115 50.2608 33.7115 37.0619C33.7154 35.1699 33.814 33.2795 34.0074 31.3978C35.2928 29.3644 35.7081 26.8847 35.1572 24.5323C37.7949 13.5161 43.7847 5.72035 50.5011 4.59445C50.5327 4.59209 50.5643 4.58816 50.5959 4.58266C51.677 4.40745 52.7798 4.40745 53.8617 4.58266ZM27.0906 17.7125C29.2676 17.7219 31.3505 18.6231 32.8693 20.2133C34.5207 14.2892 37.7957 8.96843 42.3098 4.87573C35.534 5.94271 29.2737 9.20179 24.4529 14.1721C25.1179 15.2532 25.5726 16.4561 25.793 17.7125H27.0906ZM5.09419 27.5439C5.01251 25.2473 6.74556 23.3043 8.99568 23.1707C9.05502 23.1794 9.23688 23.1998 9.2939 23.2014C9.82483 23.2257 10.3357 22.9924 10.6717 22.5728C11.0077 22.1524 11.1302 21.5954 11.0008 21.0698C10.859 20.5347 10.7834 19.9831 10.775 19.4292C10.6771 16.0067 13.311 13.1468 16.6669 13.0321C20.0236 13.1468 22.6574 16.0067 22.5588 19.4292C22.5588 20.3768 23.3124 21.1452 24.2425 21.1452H27.0822C29.9033 21.245 32.1149 23.6523 32.0278 26.5296C32.1141 29.406 29.9033 31.8126 27.0822 31.9124H9.092C6.80721 31.8268 5.02022 29.8743 5.09419 27.5439ZM15.2359 35.3451C15.2089 35.8998 15.1943 36.4679 15.1943 37.0619C15.2228 53.1365 26.7277 66.7966 42.3082 69.2543C34.9953 63.1989 30.3448 50.8234 30.3448 37.0619C30.3448 36.2432 30.378 35.419 30.4119 34.5948C29.3677 35.0874 28.2319 35.3428 27.0822 35.3451H15.2359ZM47.1783 73.1058C48.2179 73.1089 49.2574 73.0578 50.2923 72.9549C50.3347 72.961 50.3781 72.9629 50.4216 72.9648C50.4628 72.9666 50.5042 72.9684 50.545 72.9738V83.4039H41.6571L37.8627 71.7944C40.8965 72.6548 44.0297 73.0956 47.1783 73.1058ZM45.4946 100.567H58.9622C60.8216 100.567 62.3289 99.0306 62.3289 97.1348V93.702H52.2288C51.2987 93.702 50.545 92.9336 50.545 91.9861C50.545 91.0377 51.2987 90.2693 52.2288 90.2693H62.3289V86.8366H42.1279V90.2693H45.4946C46.4247 90.2693 47.1783 91.0377 47.1783 91.9861C47.1783 92.9336 46.4247 93.702 45.4946 93.702H42.1279V97.1348C42.1279 99.0306 43.6352 100.567 45.4946 100.567ZM94.417 73.1057H76.4268C74.1913 72.9463 72.4506 71.0645 72.4251 68.7797C72.4005 66.4957 74.0996 64.5739 76.3313 64.3641C76.3898 64.3727 76.5717 64.3931 76.6287 64.3947C77.1589 64.412 77.6675 64.1794 78.0073 63.7654C78.3464 63.3466 78.4712 62.7903 78.344 62.2631C78.203 61.7281 78.1267 61.1765 78.119 60.6226C77.9795 58.3857 79.0715 56.2549 80.9517 55.0936C82.8319 53.9324 85.1892 53.9324 87.0694 55.0936C88.9496 56.2549 90.0416 58.3857 89.9021 60.6226C89.9021 61.5701 90.6557 62.3385 91.5858 62.3385H94.4255C97.2096 62.5216 99.3765 64.8771 99.3765 67.7221C99.3765 70.5672 97.2096 72.9227 94.4255 73.1057H94.417ZM95.9959 6.16663C96.926 6.16663 97.6796 5.39822 97.6796 4.44988V2.73391C97.6796 1.78558 96.926 1.01716 95.9959 1.01716C95.0666 1.01716 94.3129 1.78558 94.3129 2.73391V4.44988C94.3129 5.39822 95.0666 6.16663 95.9959 6.16663ZM92.6292 9.59935H90.9462C90.0161 9.59935 89.2625 8.83094 89.2625 7.88339C89.2625 6.93505 90.0161 6.16664 90.9462 6.16664H92.6292C93.5593 6.16664 94.3129 6.93505 94.3129 7.88339C94.3129 8.83094 93.5593 9.59935 92.6292 9.59935ZM45.8653 10.2428C45.2033 11.122 44.5969 12.0429 44.049 12.9999C43.7215 13.5263 43.6999 14.1933 43.9935 14.7402C44.2863 15.2878 44.8481 15.6304 45.4599 15.6343C46.0718 15.6382 46.6374 15.3043 46.9379 14.7606C47.4095 13.9388 47.9289 13.146 48.493 12.387C49.0416 11.6453 48.9122 10.5933 48.2009 10.0134C47.4897 9.43279 46.4548 9.53493 45.8653 10.2428ZM43.2491 18.2915C42.3799 17.9576 41.4089 18.4055 41.0814 19.2917C39.5672 23.3216 38.7812 27.5973 38.7612 31.9124C38.7612 32.8599 39.5148 33.6291 40.4449 33.6291C41.3743 33.6291 42.1279 32.8599 42.1279 31.9124C42.1479 28.0114 42.86 24.1458 44.2308 20.5033C44.3888 20.0774 44.3734 19.6052 44.1892 19.1904C44.0058 18.7747 43.6675 18.4518 43.2491 18.2915ZM101.046 6.16664H99.3626C98.4333 6.16664 97.6796 6.93505 97.6796 7.88339C97.6796 8.83094 98.4333 9.59935 99.3626 9.59935H101.046C101.976 9.59935 102.73 8.83094 102.73 7.88339C102.73 6.93505 101.976 6.16664 101.046 6.16664ZM94.3129 11.3161C94.3129 10.3678 95.0666 9.59935 95.9959 9.59935C96.926 9.59935 97.6796 10.3678 97.6796 11.3161V13.0321C97.6796 13.9804 96.926 14.7488 95.9959 14.7488C95.0666 14.7488 94.3129 13.9804 94.3129 13.0321V11.3161ZM6.77716 81.6871H8.46089C9.39022 81.6871 10.1439 82.4564 10.1439 83.4039C10.1439 84.3515 9.39022 85.1207 8.46089 85.1207H6.77716C5.84783 85.1207 5.09419 84.3515 5.09419 83.4039C5.09419 82.4564 5.84783 81.6871 6.77716 81.6871ZM18.561 83.4039C18.561 82.4564 17.8074 81.6871 16.8773 81.6871H15.1943C14.2642 81.6871 13.5106 82.4564 13.5106 83.4039C13.5106 84.3515 14.2642 85.1207 15.1943 85.1207H16.8773C17.8074 85.1207 18.561 84.3515 18.561 83.4039ZM11.8276 90.2693C10.8975 90.2693 10.1439 89.5009 10.1439 88.5534V86.8366C10.1439 85.8891 10.8975 85.1207 11.8276 85.1207C12.7569 85.1207 13.5106 85.8891 13.5106 86.8366V88.5534C13.5106 89.5009 12.7569 90.2693 11.8276 90.2693ZM11.8276 76.5385C10.8975 76.5385 10.1439 77.3069 10.1439 78.2544V79.9712C10.1439 80.9188 10.8975 81.6872 11.8276 81.6872C12.7569 81.6872 13.5106 80.9188 13.5106 79.9712V78.2544C13.5106 77.3069 12.7569 76.5385 11.8276 76.5385ZM87.5795 93.702H89.2625C90.1926 93.702 90.9462 94.4705 90.9462 95.4188C90.9462 96.3663 90.1926 97.1348 89.2625 97.1348H87.5795C86.6494 97.1348 85.8958 96.3663 85.8958 95.4188C85.8958 94.4705 86.6494 93.702 87.5795 93.702ZM95.9959 97.1348H97.6796C98.609 97.1348 99.3626 96.3663 99.3626 95.4188C99.3626 94.4705 98.609 93.702 97.6796 93.702H95.9959C95.0666 93.702 94.3129 94.4705 94.3129 95.4188C94.3129 96.3663 95.0666 97.1348 95.9959 97.1348ZM92.6292 102.284C91.6999 102.284 90.9462 101.516 90.9462 100.567V98.8515C90.9462 97.9032 91.6999 97.1348 92.6292 97.1348C93.5593 97.1348 94.3129 97.9032 94.3129 98.8515V100.567C94.3129 101.516 93.5593 102.284 92.6292 102.284ZM92.6292 88.5534C91.6999 88.5534 90.9462 89.3218 90.9462 90.2693V91.9861C90.9462 92.9336 91.6999 93.7021 92.6292 93.7021C93.5593 93.7021 94.3129 92.9336 94.3129 91.9861V90.2693C94.3129 89.3218 93.5593 88.5534 92.6292 88.5534Z" fill="white"/>
</mask>
<g mask="url(#mask0)">
<rect x="-26" y="-36.7056" width="158" height="154.98" fill="#00C5CA"/>
</g>
</svg>
