<?xml version="1.0" encoding="UTF-8"?>
<svg width="103px" height="120px" viewBox="0 0 103 120" version="1.1" xmlns="http://www.w3.org/2000/svg" xmlns:xlink="http://www.w3.org/1999/xlink">
    <!-- Generator: sketchtool 52.6 (67491) - http://www.bohemiancoding.com/sketch -->
    <title>E4C38C32-2CA4-44F9-965E-37E2911E6F38</title>
    <desc>Created with sketchtool.</desc>
    <g id="--#164773655-I-diversi-errori-degli-avvisi-di-pagamento-devono-essere-associati-ad-un-icona-grafica" stroke="none" stroke-width="1" fill="none" fill-rule="evenodd">
        <g id="#164773655-PAYMENT_EXPIRED" transform="translate(-136.000000, -143.000000)" fill="#00C5CA">
            <path d="M187.503357,184.29017 C206.720271,184.29017 222.354497,199.953206 222.354497,219.20578 C222.354497,238.458354 206.720472,254.121391 187.503558,254.121391 C179.593398,254.121391 171.847605,251.393511 165.692777,246.440033 C159.631298,241.561937 155.324547,234.721276 153.565594,227.178187 C153.312907,226.094211 153.985063,225.010033 155.067032,224.756876 C156.149,224.503518 157.230969,225.177124 157.483858,226.2611 C160.755515,240.291319 173.099977,250.09024 187.503558,250.09024 C204.501813,250.09024 218.330813,236.235578 218.330813,219.20578 C218.330813,202.175982 204.501813,188.321321 187.503558,188.321321 C173.23477,188.321321 160.916865,198.007974 157.54884,211.877551 C157.285892,212.959311 156.197687,213.622233 155.118334,213.359604 C154.038578,213.09637 153.376481,212.006145 153.639026,210.924587 C155.452903,203.455067 159.77615,196.689989 165.812481,191.875385 C172.033901,186.913038 179.534652,184.29017 187.503357,184.29017 Z M234.425951,173.297222 C240.524649,179.407438 240.524649,189.349264 234.426153,195.459682 C234.048932,195.837603 233.53712,196.050044 233.003579,196.050044 C232.469837,196.050044 231.958025,195.837603 231.580804,195.459682 L224.586636,188.452534 L221.440517,191.604491 C227.770376,199.386426 231.212436,209.030753 231.212436,219.205982 C231.212436,229.224197 227.874589,238.727031 221.730222,246.445273 C222.565539,247.827152 223.99616,250.19384 225.427586,252.563552 C226.537116,254.400145 227.646446,256.237745 228.478544,257.618212 C228.895196,258.309555 229.24244,258.886412 229.485471,259.291341 C230.03913,260.21387 230.154408,260.405753 230.154408,260.970719 C230.154408,261.506862 229.941153,262.021035 229.561921,262.399359 C228.964404,262.995163 228.557609,262.99617 227.044503,262.999395 C226.828632,262.999798 226.589424,263 226.334725,263 C225.813457,263 225.227005,262.998992 224.640553,262.997783 C222.899102,262.993752 221.161676,262.986093 221.161676,262.986093 C220.574218,262.983472 220.01734,262.723866 219.637102,262.275199 L213.176876,254.653906 C205.76022,260.069555 196.856813,262.995767 187.503357,262.995767 C178.149901,262.995767 169.246293,260.069555 161.829638,254.653906 L155.369412,262.275199 C154.989173,262.723866 154.432094,262.983472 153.844838,262.986093 C153.844838,262.986093 152.107411,262.993752 150.36596,262.997783 C149.77971,262.999194 149.193057,263 148.671788,263 C148.417089,263 148.177881,262.999798 147.96201,262.999395 C146.448703,262.99617 146.04211,262.995364 145.444592,262.399359 C145.06536,262.021035 144.852105,261.506862 144.852105,260.970719 C144.852105,260.405753 144.967383,260.21387 145.521042,259.291341 C145.764073,258.886412 146.111317,258.309555 146.527969,257.618212 C147.360067,256.237745 148.469397,254.400145 149.578928,252.563552 C151.010353,250.19384 152.440773,247.827152 153.276291,246.445273 C147.132126,238.727031 143.794077,229.224197 143.794077,219.205982 C143.794077,209.030551 147.236339,199.386023 153.566399,191.603887 L150.420683,188.452333 L143.426514,195.459481 C143.049293,195.837401 142.537481,196.049843 142.00394,196.049843 C141.4704,196.049843 140.958587,195.837401 140.581367,195.459481 C137.627178,192.499407 136,188.563996 136,184.37825 C136,180.192505 137.627178,176.257094 140.581568,173.297423 L143.91519,169.957413 C146.869781,166.997339 150.797702,165.367344 154.975895,165.367344 C159.154089,165.367344 163.082009,166.997541 166.036399,169.957413 C166.822024,170.744496 166.822024,172.020758 166.036399,172.80784 L158.931579,179.925844 L162.367202,183.367843 C169.135642,178.581456 177.099921,175.841079 185.491515,175.462756 L185.491515,171.895792 L181.213132,171.895792 C177.885143,171.895792 175.177606,169.183231 175.177606,165.849066 C175.177606,162.514901 177.885143,159.80234 181.213132,159.80234 L193.793381,159.80234 C197.12137,159.80234 199.828907,162.514901 199.828907,165.849066 C199.828907,169.183231 197.12137,171.895792 193.793381,171.895792 L189.514998,171.895792 L189.514998,175.462756 C197.906794,175.841079 205.871073,178.581456 212.639714,183.368246 L216.075739,179.925844 L208.970919,172.80784 C208.185295,172.020758 208.185295,170.744496 208.970919,169.957413 C211.925309,166.997541 215.853229,165.367344 220.031423,165.367344 C224.209616,165.367344 228.137738,166.997339 231.092128,169.957212 L234.425951,173.297222 Z M181.213132,167.864642 L193.793381,167.864642 C194.902711,167.864642 195.805223,166.960454 195.805223,165.849066 C195.805223,164.737678 194.902711,163.833491 193.793381,163.833491 L181.213132,163.833491 C180.103802,163.833491 179.20129,164.737678 179.20129,165.849066 C179.20129,166.960454 180.103802,167.864642 181.213132,167.864642 Z M148.998511,184.176088 L154.663054,178.501236 C154.663255,178.501034 154.663456,178.500833 154.663657,178.500631 C154.663859,178.50043 154.66406,178.500228 154.664261,178.500026 L161.645353,171.50598 C159.65202,170.10455 157.314058,169.403936 154.975895,169.403936 C152.000582,169.403936 149.02547,170.538504 146.760538,172.807639 L143.426715,176.147648 C141.232198,178.346238 140.023684,181.269225 140.023684,184.37825 C140.023684,186.8046 140.759817,189.117674 142.126059,191.061495 L148.997707,184.176894 L148.998109,184.176491 C148.99831,184.17629 148.998511,184.17629 148.998511,184.176088 Z M153.266232,185.601705 L156.253013,188.594028 C156.367688,188.47652 156.480351,188.357802 156.596434,188.241504 C157.426118,187.410079 158.284772,186.618361 159.167367,185.862923 L156.086432,182.776271 L153.266232,185.601705 Z M152.901887,258.958973 L158.68875,252.132018 C157.974345,251.502553 157.27523,250.850112 156.596434,250.170057 C156.415368,249.988856 156.238527,249.804431 156.061083,249.620611 C154.108389,252.850973 151.915079,256.481428 150.416055,258.966632 C151.241715,258.964818 152.111837,258.961996 152.901887,258.958973 Z M224.590458,258.966632 C223.091636,256.481428 220.898124,252.850973 218.945632,249.620611 C218.768187,249.804431 218.591346,249.988655 218.410281,250.170057 C217.731284,250.850112 217.03237,251.502553 216.317764,252.132018 L222.104626,258.958973 C222.894475,258.961996 223.764999,258.964818 224.590458,258.966632 Z M227.188551,219.20578 C227.188551,197.282569 209.385761,179.446742 187.503357,179.446742 C165.620954,179.446742 147.818164,197.282569 147.818164,219.20578 C147.818164,241.12879 165.620753,258.964617 187.503357,258.964617 C209.385761,258.964617 227.188551,241.128992 227.188551,219.20578 Z M218.754104,188.594431 L221.741287,185.601705 L218.921288,182.776271 L215.839951,185.863326 C216.722345,186.618562 217.580597,187.41028 218.410281,188.241504 C218.526565,188.358004 218.639228,188.476923 218.754104,188.594431 Z M232.880052,191.060286 C236.058964,186.521815 235.625814,180.200164 231.580804,176.147648 L228.246981,172.807639 C226.052665,170.609049 223.13489,169.398293 220.031624,169.398293 C217.609769,169.398293 215.300979,170.135792 213.360758,171.504569 L220.34346,178.500228 C220.34346,178.500228 220.343661,178.50043 220.343862,178.500631 C220.343862,178.500631 220.343862,178.500631 220.344063,178.500833 L226.008606,184.175887 C226.008807,184.176088 226.009008,184.17629 226.009209,184.176491 C226.00941,184.176693 226.009611,184.176894 226.009813,184.177096 L232.880052,191.060286 Z M187.503357,212.211935 C191.352615,212.211935 194.484248,215.34938 194.484248,219.20578 C194.484248,222.361567 192.386701,225.034824 189.515199,225.902328 L189.515199,244.926739 C189.515199,246.039941 188.614498,246.942314 187.503357,246.942314 C186.392217,246.942314 185.491515,246.039941 185.491314,244.926739 L185.491314,225.902328 C182.620013,225.034824 180.522265,222.361567 180.522265,219.20578 C180.522265,218.009335 180.824243,216.882426 181.354967,215.896609 L173.170391,207.696845 C172.384767,206.909561 172.384767,205.633299 173.170391,204.846217 C173.956217,204.059134 175.230115,204.059134 176.015739,204.846217 L184.200315,213.04598 C185.184307,212.514272 186.309128,212.211935 187.503357,212.211935 Z M187.503156,222.168474 C189.133754,222.168474 190.460363,220.839404 190.460363,219.20578 C190.460363,217.572156 189.133754,216.243086 187.503156,216.243086 C185.872558,216.243086 184.545949,217.572156 184.545949,219.20578 C184.545949,220.839404 185.872558,222.168474 187.503156,222.168474 Z M207.80224,205.121141 C210.674748,209.269397 212.193085,214.139632 212.193085,219.205982 C212.193085,220.319184 211.292383,221.221557 210.181243,221.221557 C209.070103,221.221557 208.169401,220.319184 208.169401,219.205982 C208.169401,214.96501 206.899124,210.889315 204.49618,207.419099 C203.862852,206.50443 204.089385,205.248525 205.002359,204.614022 C205.915333,203.979519 207.168912,204.206473 207.80224,205.121141 Z M211.603012,225.29443 C211.977214,225.669327 212.192482,226.189346 212.192482,226.719442 C212.192482,227.249538 211.977214,227.769557 211.603012,228.144454 C211.228809,228.519351 210.709754,228.735017 210.180639,228.735017 C209.651525,228.735017 209.13247,228.519351 208.758267,228.144454 C208.384065,227.769557 208.168797,227.249538 208.168797,226.719442 C208.168797,226.189346 208.384065,225.669327 208.758267,225.29443 C209.13247,224.919533 209.651525,224.703867 210.180639,224.703867 C210.709754,224.703867 211.228809,224.919533 211.603012,225.29443 Z M156.086231,217.780365 C156.460433,218.155262 156.675701,218.675281 156.675701,219.205377 C156.675701,219.735473 156.460433,220.255492 156.086231,220.630389 C155.712229,221.005286 155.192973,221.220952 154.663859,221.220952 C154.134744,221.220952 153.615689,221.005286 153.241486,220.630389 C152.867284,220.255492 152.652017,219.735473 152.652017,219.205377 C152.652017,218.675281 152.867284,218.155262 153.241486,217.780365 C153.615689,217.405468 154.134744,217.189802 154.663859,217.189802 C155.192973,217.189802 155.712028,217.405468 156.086231,217.780365 Z M216.986654,150.45666 C216.275544,150.45666 215.699075,149.877993 215.699075,149.164172 C215.699075,148.450351 216.275544,147.871684 216.986654,147.871684 L223.209496,147.871684 C224.296514,147.871684 224.894401,149.140312 224.204965,149.983925 L219.708333,155.486135 L223.209496,155.486135 C223.920606,155.486135 224.497075,156.064802 224.497075,156.778623 C224.497075,157.492444 223.920606,158.071111 223.209496,158.071111 L216.986654,158.071111 C215.899636,158.071111 215.30175,156.802483 215.991185,155.95887 L220.487817,150.45666 L216.986654,150.45666 Z M207.294635,155.676322 C206.583525,155.676322 206.007056,155.097655 206.007056,154.383834 C206.007056,153.670013 206.583525,153.091346 207.294635,153.091346 L213.517477,153.091346 C214.604495,153.091346 215.202381,154.359974 214.512946,155.203587 L210.016314,160.705797 L213.517477,160.705797 C214.228587,160.705797 214.805056,161.284464 214.805056,161.998285 C214.805056,162.712106 214.228587,163.290773 213.517477,163.290773 L207.294635,163.290773 C206.207617,163.290773 205.60973,162.022145 206.299166,161.178532 L210.795798,155.676322 L207.294635,155.676322 Z M226.730494,145.584975 C226.019384,145.584975 225.442915,145.006309 225.442915,144.292488 C225.442915,143.578666 226.019384,143 226.730494,143 L232.953337,143 C234.040355,143 234.638241,144.268628 233.948806,145.112241 L229.452174,150.614451 L232.953337,150.614451 C233.664447,150.614451 234.240915,151.193117 234.240915,151.906939 C234.240915,152.62076 233.664447,153.199426 232.953337,153.199426 L226.730494,153.199426 C225.643476,153.199426 225.04559,151.930798 225.735025,151.087185 L230.231657,145.584975 L226.730494,145.584975 Z" id="payment-expired-icon"></path>
        </g>
    </g>
</svg>