<svg id="Layer_1" xmlns="http://www.w3.org/2000/svg" viewBox="0 0 143 69.9"><style>.st0{fill:#06C}</style><path id="XMLID_85_" class="st0" d="M29.8 25c-6.3-.8-10.8-1.2-13.3-1.2s-4.2.2-4.9.7c-.7.5-1.1 1.2-1.1 2.2 0 1 .5 1.7 1.5 2.1 1 .4 3.6.9 7.7 1.7 4.1.7 7.1 2 8.8 3.6 1.7 1.7 2.6 4.4 2.6 8.2 0 8.3-5.1 12.4-15.4 12.4-3.4 0-7.5-.5-12.3-1.4l-2.5-.5.3-8.6c6.3.8 10.8 1.2 13.2 1.2 2.5 0 4.2-.2 5.1-.7.9-.5 1.3-1.2 1.3-2.2 0-1-.5-1.7-1.4-2.1-.9-.5-3.4-1-7.4-1.7s-6.9-1.8-8.9-3.4C1.2 33.7.2 30.9.2 26.8s1.4-7.1 4.1-9.2c2.8-2.1 6.3-3.1 10.7-3.1 3 0 7.1.5 12.4 1.5l2.5.5-.1 8.5z"/><path id="XMLID_82_" class="st0" d="M55.4 23.7c-1.9 0-3.8.4-5.8 1.2l-.9.4v20.1c2.3.3 4.2.5 5.6.5 3 0 5-.9 6.1-2.6 1.1-1.7 1.7-4.7 1.7-8.9 0-7.2-2.2-10.7-6.7-10.7M38.5 69.9V15.4h10.2v2.1c3.3-2 6.2-3 8.8-3 5.2 0 9 1.6 11.4 4.6 2.5 3.1 3.7 8.4 3.7 15.8s-1.4 12.6-4.1 15.5c-2.7 2.9-7.2 4.3-13.4 4.3-1.7 0-3.5-.2-5.5-.5l-.9-.2v15.8H38.5z"/><path id="XMLID_79_" class="st0" d="M131.6 44.5l1.1-.2V24.1c-2.8-.5-5.3-.8-7.5-.8-4.1 0-6.2 3.7-6.2 11.1 0 4 .5 6.8 1.4 8.5.9 1.7 2.4 2.5 4.6 2.5s4.3-.2 6.6-.9M143 0v53.8h-10.2v-1.6c-3.6 1.7-6.7 2.5-9.3 2.5-5.6 0-9.5-1.6-11.7-4.8-2.2-3.2-3.3-8.3-3.3-15.3s1.3-12.1 4-15.3c2.6-3.2 6.6-4.8 11.9-4.8 1.6 0 3.9.3 6.8.8l1.5.3V0H143z"/><path id="XMLID_78_" class="st0" d="M90.5 37.7c-3.2 0-5.8-1.1-7.8-3.2s-3.1-4.8-3.1-8 1-5.8 3.1-7.9c2-2.1 4.6-3.1 7.8-3.1s5.8 1.1 7.7 3.2c2 2.2 3 4.8 3 8s-1 5.8-3 7.9c-2 2-4.5 3.1-7.7 3.1"/><path id="XMLID_77_" class="st0" d="M79.6 53.2c0-3.2 1-5.8 3.1-7.9 2-2.1 4.6-3.1 7.8-3.1s5.8 1.1 7.7 3.2c2 2.2 3 4.8 3 8"/></svg>