<svg xmlns="http://www.w3.org/2000/svg" fill="none" viewBox="0 0 137 24">
  <path fill="#3FBDEE" d="M104.986 10.8594 94.6035.4745c-.6327-.63267-1.6562-.63267-2.2889 0L81.9323 10.8568c-.6327.6327-.6327 1.6563 0 2.2864l10.3823 10.3823c.6327.6327 1.6562.6327 2.2889 0l10.3825-10.3823c.632-.6327.632-1.6563 0-2.2864v.0026Zm-7.0932 3.634c-.2674 2.1757-1.8465 3.225-4.4209 3.225H88.246l.3035-2.4226h5.1873c.6635 0 1.021-.4012 1.1085-1.1111.0102-.0771.0128-.1466.0128-.216h3.0733c-.0051.1646-.0154.3369-.0386.5247Zm2.0806-1.376H88.817l.27-2.186h5.0381c.7381 0 .9696-.5092 1.0442-1.12643.0746-.61723-.0309-1.003-.787-1.003h-5.033l.3035-2.51521h5.1487c2.9319 0 3.7188 1.24989 3.508 2.9627-.0849.69953-.2855 1.25764-.571 1.68194h.3009c1.1728 0 2.0806 1.0236 1.9366 2.1886l-.0026-.0026Z"/>
  <path fill="#223264" d="M1.4042 6.28671h4.56494c2.93184 0 3.71881 1.2499 3.50793 2.96271-.16203 1.32708-.72525 2.14488-1.54051 2.49978 1.00043.4012 1.31676 1.219 1.12902 2.7467-.26747 2.1757-1.84655 3.225-4.42092 3.225H0L1.4042 6.28671Zm3.88856 4.64209c.74067 0 .97213-.5092 1.04929-1.12644.07458-.61723-.03086-1.003-.78697-1.003H4.10459l-.26233 2.12944h1.4505Zm-.38063 4.3643c.66352 0 1.021-.4012 1.10844-1.111.08745-.7098-.16202-1.0647-.8564-1.0647H3.5748l-.26747 2.1757h1.6048ZM61.772 6.28672 60.3678 17.7158H57.436l.7844-6.3858.0257-.2186-.0849.2032-2.7029 6.4012H53.55l-1.1625-6.3961-.036-.198-.0257.2006-.7844 6.3935h-2.6515l1.4042-11.42908h2.1706c.9927 0 1.8363.70982 2.006 1.68967l.7638 4.44151.018.1029.0412-.0978 2.5949-6.13885h3.8834M67.4454 6.28672c.9695 0 1.8054.69181 1.9854 1.64338l1.8543 9.7857h-3.0939l-.2572-1.6022-.0051-.0258h-3.3742l-.0077.018-.6533 1.6074H60.895l4.9739-11.42905h1.5765v.00257ZM65.55 13.5289h1.9983l-.0052-.036-.5632-3.1633-.018-.1003-.0412.0951-1.3527 3.1634-.018.0437M30.3394 6.28671 28.9352 17.7158h-2.775l-2.8264-5.9512-.0463-.0951-.0128.1054-.7304 5.9434h-2.8522l1.4042-11.42902h1.8852c.7844 0 1.5096.46036 1.8414 1.17017l1.9365 4.13035.0463.0977.0129-.1055.6506-5.29272h2.8702M36.3806 6.14787c1.2653 0 2.3634.30348 3.1813.87442l-1.9212 2.51007c-.4526-.29833-1.0518-.45521-1.7359-.45521-1.3116 0-1.9906.45264-2.3069 3.01925-.1723 1.4094-.0798 2.2272.3009 2.6593.2571.2906.6455.414 1.2962.414.7072 0 1.2576-.162 1.9519-.576l1.1985 2.3326c-.967.5581-1.9623.9284-3.6571.9284-1.5354 0-2.6181-.3806-3.3125-1.1676-.8229-.931-1.093-2.4612-.8204-4.6781.2392-1.9546.7253-3.29962 1.5277-4.23318.9438-1.09816 2.3506-1.63309 4.2975-1.63309"/>
  <path fill="#223264" d="M44.3918 6.14786c1.6228 0 2.7595.39348 3.4745 1.2036.8307.9387 1.075 2.37377.7947 4.65494-.2263 1.8491-.6738 3.1453-1.4094 4.0763-.9438 1.1959-2.3506 1.7745-4.3077 1.7745-1.6254 0-2.7673-.396-3.4874-1.2087-.8204-.9284-1.075-2.3995-.8024-4.6344.2289-1.8568.6764-3.15557 1.4119-4.08913.9439-1.19589 2.3584-1.77711 4.3207-1.77711h.0051Zm-1.1161 9.05784c1.7925 0 2.0985-1.3347 2.3146-3.081.1543-1.2499.1594-2.1243-.2855-2.62836-.2649-.3009-.6841-.4475-1.2782-.4475-.8152 0-1.3605.2649-1.7205.83069-.3601.56577-.5041 1.40937-.6044 2.23747-.1543 1.255-.1594 2.1346.2855 2.6412.2674.3035.6918.4501 1.2936.4501M80.7261 6.28671l-.337 2.74668h-3.423l-1.0622 8.68491h-3.0398l1.0621-8.68491h-3.0038l.3369-2.74668h9.4668ZM8.76221 17.7158h2.99869l.6533-1.6073.0077-.018h3.3742l.0051.0257.2572 1.6022h3.0939L17.298 7.93271c-.18-.95413-1.0159-1.64337-1.9854-1.64337h-1.5765L8.76221 17.7184v-.0026Zm6.61719-4.1843h-1.9622l.018-.0437 1.3527-3.1633.0412-.0952.018.1003.5632 3.1633.0051.036h-.036v.0026Z"/>
  <path fill="#3EBEEF" d="M121.736 6.28672c.969 0 1.805.69181 1.985 1.64338l1.855 9.7857h-3.094l-.257-1.6022-.006-.0258h-3.374l-.008.018-.653 1.6074h-2.998l4.973-11.42905h1.577v.00257Zm-1.895 7.24218h1.998l-.005-.036-.564-3.1633-.018-.1003-.041.0951-1.353 3.1634-.017.0437M116.279 7.26657c-.577-.65067-1.556-.97986-2.917-.97986h-4.765l-1.405 11.42909h2.963l.414-3.3691v-.0283h1.736c1.433 0 2.554-.4089 3.333-1.2164.671-.697 1.091-1.6871 1.245-2.9422.159-1.30643-.039-2.25286-.604-2.89323Zm-2.367 3.08873c-.123 1.0107-.511 1.4222-1.334 1.4222h-1.695l.005-.0334.347-2.8213v-.02829h1.69c.378 0 .64.09002.802.27261.198.22375.257.6018.185 1.18818ZM136.014 6.28671l-4.685 7.78479v.0052l-.005.0077-.445 3.6339h-3.009l.452-3.6879v-.0129l-2.754-7.72822h3.207l1.486 4.49292.021.0643.033-.0591 2.608-4.49812h3.091M135.66 17.3609c-.237.2366-.522.3549-.857.3549-.334 0-.619-.1183-.856-.3549-.234-.2366-.35-.5221-.35-.859s.118-.6172.355-.8538c.234-.2341.52-.3524.851-.3524.332 0 .62.1183.857.3524.236.2366.355.5195.355.8538 0 .3344-.119.6224-.355.859Zm-1.592-1.5945c-.203.2032-.304.45-.304.7381 0 .288.101.5375.301.7432.203.2058.448.3061.738.3061.291 0 .535-.1029.736-.3061.203-.2057.303-.4526.303-.7432 0-.2906-.1-.5324-.303-.7381-.203-.2058-.45-.3061-.736-.3061-.285 0-.532.1029-.735.3061Zm.712.0669c.165 0 .286.0154.363.0488.136.0566.206.1698.206.3369 0 .1183-.044.2058-.129.2623-.046.0309-.111.0515-.193.0643.103.0155.18.0592.229.1286.049.0695.072.1389.072.2058v.0977c0 .0309 0 .0643.003.1003 0 .036.005.0566.01.0694l.008.0155h-.219V17.15s-.005-.0103-.005-.0154l-.005-.0437v-.1055c0-.1543-.041-.2546-.126-.3035-.049-.0282-.137-.0437-.26-.0437h-.185v.5221h-.234v-1.3296h.465v.0026Zm.252.2083c-.059-.0335-.154-.0489-.283-.0489h-.2v.4809h.211c.1 0 .175-.0103.223-.0308.09-.036.137-.1055.137-.2083 0-.0978-.029-.1621-.088-.1955v.0026Z"/>
</svg>
