<svg width="24" height="24" viewBox="0 0 24 24" fill="none" xmlns="http://www.w3.org/2000/svg">
<path d="M12.0002 0.000366211C5.38341 0.000366211 0 5.38335 0 12.0001C0 18.6169 5.38341 23.9995 12.0002 23.9995C18.617 23.9995 24 18.617 24 12.0001C24 5.3833 18.617 0.000366211 12.0002 0.000366211ZM12.0002 22C6.23034 22 2 17.7699 2 12.0001C2 6.23024 6.22992 2 12.0002 2C17.77 2 22 6.23024 22 12.0001C22 17.7699 17.7701 22 12.0002 22Z" fill="currentColor"/>
<path d="M12.1725 7.782C13.4338 7.782 14.6202 8.57616 15.27 9.85491C15.4618 10.233 15.9256 10.3837 16.3025 10.1918C16.6807 9.99966 16.8317 9.53747 16.6395 9.15933C15.7264 7.36266 14.0145 6.24609 12.1725 6.24609C10.0869 6.24609 8.28771 7.64395 7.48277 9.64683H6.24794C5.82405 9.64683 5.48003 9.99084 5.48003 10.4147C5.48003 10.8386 5.82362 11.1826 6.24794 11.1826H7.08503C7.05091 11.4499 7.03291 11.7228 7.03291 12.0005C7.03291 12.1973 7.04181 12.3919 7.05916 12.5837H5.92098C5.49709 12.5837 5.15308 12.9273 5.15308 13.3516C5.15308 13.7759 5.49667 14.1195 5.92098 14.1195H7.39403C8.14924 16.247 10.0064 17.7549 12.1726 17.7549C14.0146 17.7549 15.7268 16.638 16.6395 14.8409C16.8313 14.4627 16.6803 14.0005 16.3026 13.8088C15.9257 13.617 15.4623 13.7676 15.2701 14.1457C14.6199 15.4245 13.4335 16.2186 12.1726 16.2186C10.8449 16.2186 9.68285 15.3738 9.05763 14.1195H12.3373C12.7612 14.1195 13.1048 13.7759 13.1048 13.3516C13.1048 12.9273 12.7608 12.5837 12.3369 12.5837H8.60346C8.58082 12.393 8.56886 12.1983 8.56886 12.0005C8.56886 11.7207 8.59249 11.4473 8.63707 11.1826H12.6635C13.0878 11.1826 13.4322 10.8386 13.4322 10.4147C13.4322 9.99084 13.0882 9.64683 12.6639 9.64683H9.18325C9.83111 8.52272 10.9293 7.782 12.1725 7.782Z" fill="currentColor"/>
</svg>
