<svg width="24" height="24" viewBox="0 0 24 24" fill="none" xmlns="http://www.w3.org/2000/svg">
<mask id="mask0_77_17712" style="mask-type:alpha" maskUnits="userSpaceOnUse" x="0" y="0" width="24" height="24">
<path fill-rule="evenodd" clip-rule="evenodd" d="M24 15.5625C24 16.0803 23.5803 16.5 23.0625 16.5C22.5447 16.5 22.125 16.0803 22.125 15.5625V5.625C22.125 4.59113 21.2839 3.75 20.25 3.75H19.0312V4.6875C19.0312 5.20528 18.6115 5.625 18.0938 5.625C17.576 5.625 17.1562 5.20528 17.1562 4.6875V3.75H12.8906V4.6875C12.8906 5.20528 12.4709 5.625 11.9531 5.625C11.4353 5.625 11.0156 5.20528 11.0156 4.6875V3.75H6.79688V4.6875C6.79688 5.20528 6.37716 5.625 5.85938 5.625C5.34159 5.625 4.92188 5.20528 4.92188 4.6875V3.75H3.75C2.71613 3.75 1.875 4.59113 1.875 5.625V20.25C1.875 21.2839 2.71613 22.125 3.75 22.125H20.25C21.2839 22.125 22.125 21.2839 22.125 20.25C22.125 19.7322 22.5447 19.3125 23.0625 19.3125C23.5803 19.3125 24 19.7322 24 20.25C24 22.3177 22.3177 24 20.25 24H3.75C1.68225 24 0 22.3177 0 20.25V5.625C0 3.55725 1.68225 1.875 3.75 1.875H4.92188V0.9375C4.92188 0.419719 5.34159 0 5.85938 0C6.37716 0 6.79688 0.419719 6.79688 0.9375V1.875H11.0156V0.9375C11.0156 0.419719 11.4353 0 11.9531 0C12.4709 0 12.8906 0.419719 12.8906 0.9375V1.875H17.1562V0.9375C17.1562 0.419719 17.576 0 18.0938 0C18.6115 0 19.0312 0.419719 19.0312 0.9375V1.875H20.25C22.3177 1.875 24 3.55725 24 5.625V15.5625ZM18.0938 10.7812C18.6115 10.7812 19.0312 10.3615 19.0312 9.84375C19.0312 9.32598 18.6115 8.90625 18.0938 8.90625C17.576 8.90625 17.1562 9.32598 17.1562 9.84375C17.1562 10.3615 17.576 10.7812 18.0938 10.7812ZM13.0781 17.0625C13.0781 18.0964 13.9193 18.9375 14.9531 18.9375H17.1562C18.1901 18.9375 19.0312 18.0964 19.0312 17.0625V14.8594C19.0312 13.8255 18.1901 12.9844 17.1562 12.9844H14.9531C13.9193 12.9844 13.0781 13.8255 13.0781 14.8594V17.0625ZM14.9531 14.8594H17.1562L17.1574 17.0625L17.1562 17.0625H14.9531V14.8594ZM14.9531 9.84375C14.9531 10.3615 14.5334 10.7812 14.0156 10.7812C13.4979 10.7812 13.0781 10.3615 13.0781 9.84375C13.0781 9.32598 13.4979 8.90625 14.0156 8.90625C14.5334 8.90625 14.9531 9.32598 14.9531 9.84375ZM6.79688 18C6.79688 18.5178 6.37714 18.9375 5.85938 18.9375C5.34161 18.9375 4.92188 18.5178 4.92188 18C4.92188 17.4822 5.34161 17.0625 5.85938 17.0625C6.37714 17.0625 6.79688 17.4822 6.79688 18ZM5.85938 10.7812C6.37714 10.7812 6.79688 10.3615 6.79688 9.84375C6.79688 9.32598 6.37714 8.90625 5.85938 8.90625C5.34161 8.90625 4.92188 9.32598 4.92188 9.84375C4.92188 10.3615 5.34161 10.7812 5.85938 10.7812ZM6.79688 13.9219C6.79688 14.4396 6.37714 14.8594 5.85938 14.8594C5.34161 14.8594 4.92188 14.4396 4.92188 13.9219C4.92188 13.4041 5.34161 12.9844 5.85938 12.9844C6.37714 12.9844 6.79688 13.4041 6.79688 13.9219ZM9.9375 14.8594C10.4553 14.8594 10.875 14.4396 10.875 13.9219C10.875 13.4041 10.4553 12.9844 9.9375 12.9844C9.41973 12.9844 9 13.4041 9 13.9219C9 14.4396 9.41973 14.8594 9.9375 14.8594ZM10.875 9.84375C10.875 10.3615 10.4553 10.7812 9.9375 10.7812C9.41973 10.7812 9 10.3615 9 9.84375C9 9.32598 9.41973 8.90625 9.9375 8.90625C10.4553 8.90625 10.875 9.32598 10.875 9.84375ZM9.9375 18.9375C10.4553 18.9375 10.875 18.5178 10.875 18C10.875 17.4822 10.4553 17.0625 9.9375 17.0625C9.41973 17.0625 9 17.4822 9 18C9 18.5178 9.41973 18.9375 9.9375 18.9375Z" fill="white"/>
</mask>
<g mask="url(#mask0_77_17712)">
<rect x="-4.97705" y="-26" width="100" height="100" fill="currentColor"/>
</g>
</svg>
