<svg width="24" height="24" viewBox="0 0 24 24" fill="none" xmlns="http://www.w3.org/2000/svg">
<g clip-path="url(#clip0_897_9830)">
<path d="M18.0862 5.4458H5.8565C5.33857 5.4458 4.9187 5.865 4.9187 6.38211C4.9187 6.89921 5.33857 7.31841 5.8565 7.31841H18.0862C18.6041 7.31841 19.024 6.89921 19.024 6.38211C19.024 5.865 18.6041 5.4458 18.0862 5.4458Z" fill="currentColor"/>
<path d="M18.0862 9.51587H5.8565C5.33857 9.51587 4.9187 9.93507 4.9187 10.4522C4.9187 10.9693 5.33857 11.3885 5.8565 11.3885H18.0862C18.6041 11.3885 19.024 10.9693 19.024 10.4522C19.024 9.93507 18.6041 9.51587 18.0862 9.51587Z" fill="currentColor"/>
<path d="M10.4307 13.4141H5.8565C5.33857 13.4141 4.9187 13.8333 4.9187 14.3504C4.9187 14.8675 5.33857 15.2867 5.8565 15.2867H10.4307C10.9486 15.2867 11.3685 14.8675 11.3685 14.3504C11.3685 13.8333 10.9486 13.4141 10.4307 13.4141Z" fill="currentColor"/>
<path d="M20.2488 1.86921e-07H3.75121C2.75239 -0.000311494 1.79302 0.389173 1.07786 1.08534C0.362708 1.7815 -0.0515677 2.72916 -0.0765381 3.72608V20.2357C-0.0765381 21.2492 0.326742 22.2213 1.04458 22.938C1.76243 23.6547 2.73603 24.0573 3.75121 24.0573H17.4928L23.9617 17.656V3.82166C23.9622 2.82765 23.5747 1.87254 22.8815 1.15905C22.1883 0.445553 21.244 0.0298204 20.2488 1.86921e-07ZM17.9522 21.4586V18.7452C17.9522 18.5476 18.0308 18.358 18.1708 18.2182C18.3108 18.0785 18.5006 18 18.6986 18H21.4354L17.9522 21.4586ZM18.6986 16.5095C18.1029 16.5095 17.5314 16.7444 17.1084 17.1632C16.6854 17.5819 16.4453 18.1505 16.4402 18.7452V22.1465H3.75121C3.24362 22.1465 2.75682 21.9451 2.3979 21.5868C2.03898 21.2284 1.83734 20.7424 1.83734 20.2357V3.72608C1.83734 3.2193 2.03898 2.7333 2.3979 2.37495C2.75682 2.0166 3.24362 1.81525 3.75121 1.81525H20.2488C20.7564 1.81525 21.2432 2.0166 21.6021 2.37495C21.9611 2.7333 22.1627 3.2193 22.1627 3.72608V16.5095H18.6986Z" fill="currentColor"/>
</g>
<defs>
<clipPath id="clip0_897_9830">
<rect width="24" height="24" fill="white"/>
</clipPath>
</defs>
</svg>
