<svg width="32" height="32" viewBox="0 0 32 32" fill="none" xmlns="http://www.w3.org/2000/svg">
<path d="M0 4C0 1.79086 1.79086 0 4 0H28C30.2091 0 32 1.79086 32 4V28C32 30.2091 30.2091 32 28 32H4C1.79086 32 0 30.2091 0 28V4Z" fill="#034EA2"/>
<g clip-path="url(#clip0_1330_353)">
<path d="M15.0874 7.86869L16.0066 7.19398L16.9242 7.86869L16.5744 6.77865L17.5073 6.10394H16.358L16.0066 5L15.6537 6.10548L14.5059 6.10394L15.4373 6.77865L15.0874 7.86869Z" fill="#FFF200"/>
<path d="M10.3348 9.15429L11.254 8.47958L12.1716 9.15429L11.8217 8.06425L12.7547 7.38954H11.6054L11.2524 6.28406L10.901 7.39108L9.75171 7.38954L10.6847 8.06425L10.3348 9.15429Z" fill="#FFF200"/>
<path d="M7.77832 9.78979L7.42539 10.8968L6.27759 10.8953L7.20902 11.57L6.85916 12.66L7.77832 11.9853L8.69595 12.66L8.34608 11.57L9.27905 10.8953H8.12972L7.77832 9.78979Z" fill="#FFF200"/>
<path d="M6.50227 16.7599L7.41989 17.4346L7.07003 16.3445L8.003 15.6698H6.85367L6.50227 14.5643L6.14933 15.6714L5 15.6698L5.93297 16.3445L5.58311 17.4346L6.50227 16.7599Z" fill="#FFF200"/>
<path d="M8.12899 20.4582L7.77759 19.3542L7.42465 20.4597L6.27686 20.4582L7.20829 21.1329L6.85843 22.2229L7.77759 21.5482L8.69521 22.2229L8.34535 21.1329L9.27832 20.4582H8.12899Z" fill="#FFF200"/>
<path d="M11.6114 23.9638L11.26 22.8599L10.9086 23.9638H9.75928L10.6907 24.637L10.3424 25.7286L11.26 25.0538L12.1792 25.7286L11.8293 24.637L12.7623 23.9638H11.6114Z" fill="#FFF200"/>
<path d="M16.3573 25.2377L16.0059 24.1338L15.6545 25.2393L14.5051 25.2377L15.4366 25.9124L15.0882 27.0025L16.0059 26.3278L16.9235 27.0025L16.5752 25.9124L17.5081 25.2377H16.3573Z" fill="#FFF200"/>
<path d="M21.1038 23.9638L20.7524 22.8599L20.401 23.9638H19.2517L20.1831 24.637L19.8348 25.7286L20.7524 25.0538L21.6716 25.7286L21.3217 24.637L22.2547 23.9638H21.1038Z" fill="#FFF200"/>
<path d="M24.5889 20.4581L24.2375 19.3541L23.8846 20.4596L22.7368 20.4581L23.6683 21.1328L23.3184 22.2228L24.2375 21.5481L25.1552 22.2228L24.8053 21.1328L25.7383 20.4581H24.5889Z" fill="#FFF200"/>
<path d="M26.9996 15.6581H25.8502L25.4988 14.5542L25.1475 15.6597L23.9966 15.6581L24.9296 16.3329L24.5812 17.4229L25.4988 16.7482L26.4165 17.4229L26.0681 16.3329L26.9996 15.6581Z" fill="#FFF200"/>
<path d="M23.3184 12.6458L24.2375 11.9711L25.1552 12.6458L24.8053 11.5542L25.7383 10.881H24.5889L24.2375 9.7771L23.8846 10.8826L22.7368 10.881L23.6683 11.5542L23.3184 12.6458Z" fill="#FFF200"/>
<path d="M20.7656 6.28406L20.4142 7.38954L19.2649 7.38799L20.1963 8.06271L19.848 9.15429L20.7672 8.47804L21.6833 9.15429L21.3349 8.06271L22.2679 7.38799H21.117L20.7656 6.28406Z" fill="#FFF200"/>
</g>
<path d="M11.9514 20V19H13.0814V14H11.9514V13H15.2914V14H14.1614V19H15.2914V20H11.9514ZM18.3168 20V14.04H16.3568V13H21.4168V14.04H19.3968V20H18.3168Z" fill="white"/>
<defs>
<clipPath id="clip0_1330_353">
<rect width="22" height="22" fill="white" transform="translate(5 5)"/>
</clipPath>
</defs>
</svg>
