<svg width="48" height="48" viewBox="0 0 48 48" fill="none" xmlns="http://www.w3.org/2000/svg">
<g clip-path="url(#clip0_19587_80182)">
<path d="M5.99951 8.47322C5.99951 5.45044 8.44996 3 11.4727 3H35.7602C38.7829 3 41.2334 5.45045 41.2334 8.47322V60.1268C41.2334 63.1496 38.7829 65.6 35.7602 65.6H11.4727C8.44996 65.6 5.99951 63.1496 5.99951 60.1268V8.47322Z" fill="#AAEEEF"/>
<path fill-rule="evenodd" clip-rule="evenodd" d="M7.36816 9.41457C7.36816 6.42419 9.79235 4 12.7827 4H34.5854C37.5758 4 40 6.42419 40 9.41457V58.4105C40 61.4008 37.5758 63.825 34.5854 63.825H12.7827C9.79235 63.825 7.36816 61.4008 7.36816 58.4105V9.41457ZM12.7827 4.67983C10.1678 4.67983 8.04799 6.79965 8.04799 9.41457V58.4105C8.04799 61.0254 10.1678 63.1452 12.7827 63.1452H34.5854C37.2004 63.1452 39.3202 61.0254 39.3202 58.4105V9.41457C39.3202 6.79965 37.2004 4.67983 34.5854 4.67983H12.7827Z" fill="#00C5CA"/>
<path d="M16.261 7.78892C16.261 7.22215 16.7204 6.7627 17.2872 6.7627H29.944C30.5108 6.7627 30.9703 7.22215 30.9703 7.78892C30.9703 8.3557 30.5108 8.81515 29.944 8.81515H17.2872C16.7204 8.81515 16.261 8.3557 16.261 7.78892Z" fill="#00C5CA"/>
<path fill-rule="evenodd" clip-rule="evenodd" d="M10.1704 20.7418C10.1704 18.9832 11.596 17.5576 13.3545 17.5576H34.5607C36.3193 17.5576 37.7449 18.9832 37.7449 20.7418V32.5473C37.7449 34.3058 36.3193 35.7314 34.5607 35.7314H13.3546C11.596 35.7314 10.1704 34.3058 10.1704 32.5473V20.7418ZM13.3545 18.2418C11.9738 18.2418 10.8546 19.3611 10.8546 20.7418V32.5473C10.8546 33.928 11.9738 35.0472 13.3546 35.0472H34.5607C35.9414 35.0472 37.0607 33.928 37.0607 32.5473V20.7418C37.0607 19.3611 35.9414 18.2418 34.5607 18.2418H13.3545Z" fill="#00C5CA"/>
<path fill-rule="evenodd" clip-rule="evenodd" d="M37.3605 31.6734H10.4702V30.9893H37.3605V31.6734Z" fill="#00C5CA"/>
<path fill-rule="evenodd" clip-rule="evenodd" d="M33.4241 19.773C32.2849 19.773 31.3614 20.6965 31.3614 21.8358C31.3614 22.975 32.2849 23.8985 33.4241 23.8985C34.5634 23.8985 35.4869 22.975 35.4869 21.8358C35.4869 20.6965 34.5634 19.773 33.4241 19.773ZM30.6772 21.8358C30.6772 20.3187 31.9071 19.0889 33.4241 19.0889C34.9412 19.0889 36.171 20.3187 36.171 21.8358C36.171 23.3528 34.9412 24.5827 33.4241 24.5827C31.9071 24.5827 30.6772 23.3528 30.6772 21.8358Z" fill="#00C5CA"/>
<path fill-rule="evenodd" clip-rule="evenodd" d="M19.9951 21.3025C19.9951 21.4914 19.842 21.6445 19.653 21.6445L12.8758 21.6445C12.6869 21.6445 12.5337 21.4914 12.5337 21.3025C12.5337 21.1135 12.6869 20.9604 12.8758 20.9604L19.653 20.9604C19.842 20.9604 19.9951 21.1135 19.9951 21.3025Z" fill="#00C5CA"/>
<path fill-rule="evenodd" clip-rule="evenodd" d="M19.9951 22.8327C19.9951 23.0217 19.842 23.1748 19.653 23.1748L12.8758 23.1748C12.6869 23.1748 12.5337 23.0217 12.5337 22.8327C12.5337 22.6438 12.6869 22.4907 12.8758 22.4907L19.653 22.4907C19.842 22.4907 19.9951 22.6438 19.9951 22.8327Z" fill="#00C5CA"/>
<path fill-rule="evenodd" clip-rule="evenodd" d="M20.7444 16.1517C20.5755 16.2362 20.37 16.1677 20.2855 15.9987L18.539 12.5057C18.4545 12.3368 18.523 12.1313 18.692 12.0468C18.861 11.9623 19.0664 12.0308 19.1509 12.1998L20.8974 15.6928C20.9819 15.8617 20.9134 16.0672 20.7444 16.1517Z" fill="#00C5CA"/>
<path fill-rule="evenodd" clip-rule="evenodd" d="M26.2256 15.8347C26.0597 15.7442 25.9986 15.5364 26.0891 15.3706L27.8139 12.2084C27.9044 12.0425 28.1122 11.9814 28.2781 12.0719C28.4439 12.1623 28.505 12.3701 28.4146 12.536L26.6897 15.6982C26.5992 15.8641 26.3915 15.9252 26.2256 15.8347Z" fill="#00C5CA"/>
<path fill-rule="evenodd" clip-rule="evenodd" d="M21.3722 37.6642C21.5501 37.7278 21.6428 37.9235 21.5793 38.1014L20.099 42.2462C20.0355 42.4241 19.8397 42.5169 19.6618 42.4533C19.4839 42.3898 19.3912 42.194 19.4547 42.0161L20.935 37.8713C20.9985 37.6934 21.1943 37.6007 21.3722 37.6642Z" fill="#00C5CA"/>
<path fill-rule="evenodd" clip-rule="evenodd" d="M26.8342 37.407C27.0057 37.3279 27.209 37.4027 27.2881 37.5743L29.0539 41.4001C29.1331 41.5716 29.0582 41.7748 28.8866 41.854C28.7151 41.9332 28.5119 41.8583 28.4327 41.6868L26.6669 37.861C26.5878 37.6894 26.6626 37.4862 26.8342 37.407Z" fill="#00C5CA"/>
</g>
<defs>
<clipPath id="clip0_19587_80182">
<rect width="48" height="48" fill="white"/>
</clipPath>
</defs>
</svg>
