<svg width="24" height="24" viewBox="0 0 24 24" fill="none" xmlns="http://www.w3.org/2000/svg">
<path d="M9.26175 0.388687L8.04984 2.8125H7.10062C5.92509 2.8125 4.96875 3.76884 4.96875 4.94438L4.96875 21.8681C4.9688 23.0437 5.92509 24 7.10062 24H16.8994C18.0749 24 19.0312 23.0437 19.0312 21.8681V4.94438C19.0312 3.76884 18.0749 2.8125 16.8994 2.8125H15.9502L14.7382 0.388687C14.6191 0.150469 14.3757 0 14.1094 0H9.89063C9.62428 0 9.38091 0.150469 9.26175 0.388687ZM16.8994 4.21875C17.2995 4.21875 17.625 4.54425 17.625 4.94438V21.8681C17.625 22.2682 17.2995 22.5938 16.8994 22.5938H7.10062C6.7005 22.5938 6.375 22.2682 6.375 21.8681L6.375 4.94438C6.375 4.54425 6.7005 4.21875 7.10062 4.21875H16.8994ZM13.6748 1.40625L14.3779 2.8125H9.62208L10.3252 1.40625H13.6748Z" fill="#0073E6"/>
<path d="M14.8281 13.2208C14.642 12.9461 14.3319 12.7815 14 12.7815H11.477L12.9285 9.15291C13.1336 8.64011 12.8841 8.05818 12.3714 7.85304C11.8587 7.64791 11.2767 7.89738 11.0715 8.41011L9.07154 13.4101C8.94827 13.7182 8.98594 14.0673 9.17194 14.3421C9.358 14.6168 9.66814 14.7814 10 14.7814H12.523L11.0715 18.4101C10.8664 18.9229 11.1159 19.5048 11.6286 19.7099C12.1415 19.9151 12.7235 19.6654 12.9285 19.1529L14.9285 14.1528C15.0517 13.8448 15.0141 13.4956 14.8281 13.2208Z" fill="#0073E6"/>
</svg>
