<svg width="24" height="18" viewBox="0 0 24 18" fill="none" xmlns="http://www.w3.org/2000/svg">
<path d="M21.375 0.75H2.625C1.17759 0.75 0 1.92759 0 3.375V14.625C0 16.0724 1.17759 17.25 2.625 17.25H21.375C22.8224 17.25 24 16.0724 24 14.625V3.375C24 1.92759 22.8224 0.75 21.375 0.75ZM2.625 2.25H21.375C21.9953 2.25 22.5 2.7547 22.5 3.375V4.875H1.5V3.375C1.5 2.7547 2.0047 2.25 2.625 2.25ZM21.375 15.75H2.625C2.0047 15.75 1.5 15.2453 1.5 14.625V6.375H22.5V14.625C22.5 15.2453 21.9953 15.75 21.375 15.75Z" fill="#0073E6"/>
<path d="M5.25 13.5H4.5C4.08581 13.5 3.75 13.1642 3.75 12.75V12C3.75 11.5858 4.08581 11.25 4.5 11.25H5.25C5.66419 11.25 6 11.5858 6 12V12.75C6 13.1642 5.66419 13.5 5.25 13.5Z" fill="#0073E6"/>
</svg>
