<svg width="22" height="17" viewBox="0 0 22 17" fill="none" xmlns="http://www.w3.org/2000/svg">
  <mask id="mask0_186_1675" style="mask-type:alpha" maskUnits="userSpaceOnUse" x="0" y="0" width="22" height="17">
    <path fill-rule="evenodd" clip-rule="evenodd" d="M19.03 0C20.6145 0 21.9048 1.23481 21.995 2.8025L22 2.97801V13.6739C22 15.259 20.7623 16.5562 19.2044 16.6469L19.03 16.6519H2.96996C1.38548 16.6519 0.0951745 15.4171 0.00503099 13.8494L0 13.6739V2.97801C0 1.39298 1.23768 0.0956999 2.79559 0.00505895L2.96996 0H19.03ZM19.03 1.49908H2.96996C2.91775 1.49908 2.86596 1.50182 2.81473 1.50724L2.6645 1.53048L10.9996 8.6744L19.3337 1.52947L19.1861 1.50717L19.03 1.49908ZM20.4397 2.55856L11.4851 10.2344L11.4517 10.2607L11.3683 10.3153L11.2836 10.3569L11.2112 10.3823L11.1203 10.4027L11.0407 10.4108L10.9402 10.4101L10.8453 10.3965L10.7806 10.3797L10.7167 10.357L10.6362 10.3181L10.5597 10.2689L10.5122 10.2321L1.56045 2.55856L1.53351 2.65868C1.52213 2.71054 1.51353 2.7632 1.50776 2.81648L1.49908 2.97801V13.6739C1.49908 14.4472 2.07938 15.075 2.82777 15.1461L2.96996 15.1529H19.03C19.793 15.1529 20.4227 14.5657 20.4942 13.8163L20.5009 13.6739V2.97801C20.5009 2.86863 20.4893 2.76129 20.4668 2.65732L20.4397 2.55856Z" fill="white"/>
  </mask>
  <g mask="url(#mask0_186_1675)">
    <rect x="-4" y="-6.91309" width="30" height="30" fill="#0073E6"/>
  </g>
</svg>
