<svg width="24" height="24" viewBox="0 0 24 24" fill="none" xmlns="http://www.w3.org/2000/svg">
<g clip-path="url(#clip0_182_3502)">
<path d="M18.0864 5.4458H5.85674C5.33881 5.4458 4.91895 5.865 4.91895 6.38211C4.91895 6.89921 5.33881 7.31841 5.85674 7.31841H18.0864C18.6043 7.31841 19.0242 6.89921 19.0242 6.38211C19.0242 5.865 18.6043 5.4458 18.0864 5.4458Z" fill="#0073E6"/>
<path d="M18.0864 9.51611H5.85674C5.33881 9.51611 4.91895 9.93531 4.91895 10.4524C4.91895 10.9695 5.33881 11.3887 5.85674 11.3887H18.0864C18.6043 11.3887 19.0242 10.9695 19.0242 10.4524C19.0242 9.93531 18.6043 9.51611 18.0864 9.51611Z" fill="#0073E6"/>
<path d="M10.4309 13.4141H5.85674C5.33881 13.4141 4.91895 13.8333 4.91895 14.3504C4.91895 14.8675 5.33881 15.2867 5.85674 15.2867H10.4309C10.9488 15.2867 11.3687 14.8675 11.3687 14.3504C11.3687 13.8333 10.9488 13.4141 10.4309 13.4141Z" fill="#0073E6"/>
<path d="M20.2492 1.86921e-07H3.75158C2.75276 -0.000311494 1.79338 0.389173 1.07823 1.08534C0.363074 1.7815 -0.0512015 2.72916 -0.0761719 3.72608V20.2357C-0.0761719 21.2492 0.327109 22.2213 1.04495 22.938C1.76279 23.6547 2.7364 24.0573 3.75158 24.0573H17.4932L23.9621 17.656V3.82166C23.9626 2.82765 23.5751 1.87254 22.8819 1.15905C22.1887 0.445553 21.2443 0.0298204 20.2492 1.86921e-07ZM17.9525 21.4586V18.7452C17.9525 18.5476 18.0312 18.358 18.1712 18.2182C18.3111 18.0785 18.501 18 18.6989 18H21.4358L17.9525 21.4586ZM18.6989 16.5095C18.1033 16.5095 17.5317 16.7444 17.1088 17.1632C16.6858 17.5819 16.4456 18.1505 16.4406 18.7452V22.1465H3.75158C3.24399 22.1465 2.75719 21.9451 2.39827 21.5868C2.03935 21.2284 1.8377 20.7424 1.8377 20.2357V3.72608C1.8377 3.2193 2.03935 2.7333 2.39827 2.37495C2.75719 2.0166 3.24399 1.81525 3.75158 1.81525H20.2492C20.7568 1.81525 21.2436 2.0166 21.6025 2.37495C21.9614 2.7333 22.1631 3.2193 22.1631 3.72608V16.5095H18.6989Z" fill="#0073E6"/>
</g>
<defs>
<clipPath id="clip0_182_3502">
<rect width="24" height="24" fill="white"/>
</clipPath>
</defs>
</svg>
