<svg width="24" height="24" viewBox="0 0 24 24" fill="none" xmlns="http://www.w3.org/2000/svg">
<path fill-rule="evenodd" clip-rule="evenodd" d="M5.55426 16.9698L5.55499 16.9692C5.76532 16.793 6.03703 16.7075 6.31032 16.7317C6.58362 16.7558 6.83613 16.8875 7.01229 17.0978C8.91433 19.3605 11.9168 20.3779 14.8028 19.7376C17.6889 19.0974 19.9798 16.9058 20.7472 14.051C21.8791 9.82735 19.3639 5.47062 15.1403 4.33918C10.9167 3.20774 6.55949 5.72339 5.42759 9.94706C5.2557 10.5853 5.16422 11.2425 5.1553 11.9034L7.38548 10.032C7.82316 9.66477 8.47565 9.72181 8.84285 10.1594C9.21006 10.5971 9.15294 11.2495 8.71526 11.6168L5.017 14.72C4.57932 15.0873 3.92683 15.0302 3.55962 14.5926L0.4568 10.8948C0.0895904 10.4572 0.146717 9.80468 0.584393 9.43743C1.02207 9.07017 1.67456 9.12722 2.04177 9.56484L3.14901 10.8844C3.20573 10.3872 3.29935 9.89492 3.42909 9.41161C4.3539 5.96102 7.04931 3.26569 10.5 2.34093C13.9506 1.41617 17.6323 2.40246 20.1582 4.92829C22.684 7.45411 23.6703 11.1357 22.7455 14.5863C22.2214 16.5638 21.0991 18.3312 19.5321 19.6466C19.0805 20.0251 18.5968 20.3635 18.0864 20.658C13.8834 23.0842 8.54548 22.1433 5.42612 18.4264C5.05953 17.9888 5.11689 17.3368 5.55426 16.9698Z" fill="#0073E6"/>
<path fill-rule="evenodd" clip-rule="evenodd" d="M11.5 12.9998V7.99976H13.5V12.5855L15.7071 14.7926L14.2929 16.2069L11.7929 13.7069C11.6054 13.5193 11.5 13.265 11.5 12.9998Z" fill="#0073E6"/>
</svg>
