<svg width="24" height="24" viewBox="0 0 24 24" fill="none" xmlns="http://www.w3.org/2000/svg">
<mask id="mask0_32_3523" style="mask-type:alpha" maskUnits="userSpaceOnUse" x="0" y="0" width="24" height="24">
<path fill-rule="evenodd" clip-rule="evenodd" d="M12 0C18.6274 0 24 5.37258 24 12C24 18.6274 18.6274 24 12 24C5.37258 24 0 18.6274 0 12C0 5.37258 5.37258 0 12 0ZM12 2C6.47715 2 2 6.47715 2 12C2 17.5228 6.47715 22 12 22C17.5228 22 22 17.5228 22 12C22 6.47715 17.5228 2 12 2ZM11 18C11 18.5523 11.4477 19 12 19C12.5523 19 13 18.5523 13 18V12C13 11.4477 12.5523 11 12 11C11.4477 11 11 11.4477 11 12V18ZM12 9.5C11.1713 9.5 10.5 8.82875 10.5 8C10.5 7.17125 11.1713 6.5 12 6.5C12.8288 6.5 13.5 7.17125 13.5 8C13.5 8.82875 12.8288 9.5 12 9.5Z" fill="white"/>
</mask>
<g mask="url(#mask0_32_3523)">
<rect x="-8" y="-10" width="40" height="40" fill="#0073E6"/>
</g>
</svg>
