<svg width="24" height="24" viewBox="0 0 24 24" fill="none" xmlns="http://www.w3.org/2000/svg">
<mask id="mask0_35_3125" style="mask-type:alpha" maskUnits="userSpaceOnUse" x="0" y="1" width="24" height="22">
<path fill-rule="evenodd" clip-rule="evenodd" d="M8.39066 5.22094C8.39766 4.71468 8.51066 4.23388 8.70829 3.79906L7.21796 2.32314C6.91562 2.02088 6.91562 1.53074 7.21796 1.2284C7.5203 0.926145 8.01028 0.926145 8.3127 1.2284L9.6426 2.55831C10.2668 2.02435 11.0761 1.70083 11.96 1.70083C12.8439 1.70083 13.6532 2.02435 14.2773 2.55831L15.6072 1.2284C15.9096 0.926145 16.3996 0.926145 16.702 1.2284C17.0043 1.53066 17.0043 2.0208 16.702 2.32314L15.2116 3.79906C15.4092 4.23388 15.5221 4.71476 15.5292 5.22102C16.6895 5.71358 17.7281 6.43874 18.5862 7.33761L19.8018 6.12206C20.1041 5.81981 20.5941 5.81981 20.8965 6.12206C21.1988 6.42432 21.1988 6.91447 20.8965 7.2168L19.5627 8.55066C20.4118 9.80993 20.9561 11.2907 21.0902 12.8864H23.1455C23.573 12.8864 23.9196 13.233 23.9196 13.6605C23.9196 14.088 23.573 14.4346 23.1455 14.4346H21.0902C20.956 16.0303 20.4118 17.511 19.5627 18.7703L20.8965 20.1042C21.1988 20.4064 21.1988 20.8966 20.8965 21.1989C20.7453 21.35 20.5472 21.4256 20.3491 21.4256C20.1509 21.4256 19.9529 21.35 19.8017 21.1989L18.5861 19.9834C16.9164 21.7325 14.5632 22.8238 11.9598 22.8238C9.35646 22.8238 7.00325 21.7325 5.33348 19.9834L4.11793 21.1989C3.96668 21.35 3.76864 21.4256 3.57052 21.4256C3.37232 21.4256 3.17428 21.35 3.02311 21.1989C2.72078 20.8966 2.72078 20.4065 3.02311 20.1042L4.35697 18.7703C3.50787 17.511 2.96352 16.0303 2.82942 14.4346H0.774121C0.346631 14.4346 0 14.088 0 13.6605C0 13.233 0.346631 12.8864 0.774121 12.8864H2.82942C2.9636 11.2907 3.50787 9.80993 4.35697 8.55066L3.02311 7.2168C2.72078 6.91455 2.72078 6.4244 3.02311 6.12206C3.32545 5.81981 3.81544 5.81981 4.11785 6.12206L5.33348 7.33761C6.1916 6.43866 7.23028 5.7135 8.39066 5.22094ZM13.9008 4.7047C13.6551 3.86462 12.8783 3.24891 11.9598 3.24891C11.0414 3.24891 10.2645 3.86462 10.0189 4.70462C10.6447 4.56915 11.2939 4.49707 11.9597 4.49707C12.6257 4.49707 13.2749 4.56915 13.9008 4.7047ZM4.34456 13.6605C4.34456 9.72279 7.34883 6.47353 11.1856 6.08445V21.2365C7.34883 20.8474 4.34456 17.5982 4.34456 13.6605ZM19.5749 13.6605C19.5749 9.72279 16.5706 6.47361 12.7339 6.08445V21.2365C16.5706 20.8474 19.5749 17.5982 19.5749 13.6605ZM13.982 13.6605C13.982 14.8583 14.9565 15.8328 16.1543 15.8328C17.3522 15.8328 18.3267 14.8583 18.3267 13.6605C18.3267 12.4627 17.3522 11.4882 16.1543 11.4882C14.9565 11.4882 13.982 12.4627 13.982 13.6605ZM16.1544 14.2846C16.4985 14.2846 16.7785 14.0046 16.7785 13.6605C16.7785 13.3163 16.4985 13.0364 16.1544 13.0364C15.8104 13.0364 15.5303 13.3163 15.5303 13.6605C15.5303 14.0045 15.8103 14.2846 16.1544 14.2846ZM16.1544 8.76674C16.1544 9.15286 15.8414 9.46588 15.4553 9.46588C15.0691 9.46588 14.7561 9.15286 14.7561 8.76674C14.7561 8.38061 15.0691 8.0676 15.4553 8.0676C15.8414 8.0676 16.1544 8.38061 16.1544 8.76674ZM15.4553 19.2534C15.8414 19.2534 16.1544 18.9404 16.1544 18.5542C16.1544 18.1681 15.8414 17.8551 15.4553 17.8551C15.0691 17.8551 14.7561 18.1681 14.7561 18.5542C14.7561 18.9404 15.0691 19.2534 15.4553 19.2534ZM7.76513 11.4882C6.5673 11.4882 5.59281 12.4627 5.59281 13.6605C5.59281 14.8583 6.5673 15.8328 7.76513 15.8328C8.96295 15.8328 9.93745 14.8583 9.93745 13.6605C9.93745 12.4627 8.96295 11.4882 7.76513 11.4882ZM7.14105 13.6605C7.14105 14.0045 7.42099 14.2846 7.76513 14.2846C8.10926 14.2846 8.38921 14.0046 8.38921 13.6605C8.38921 13.3164 8.10918 13.0364 7.76513 13.0364C7.42107 13.0364 7.14105 13.3163 7.14105 13.6605ZM9.16333 8.76674C9.16333 9.15286 8.85031 9.46588 8.46419 9.46588C8.07806 9.46588 7.76505 9.15286 7.76505 8.76674C7.76505 8.38061 8.07806 8.0676 8.46419 8.0676C8.85031 8.0676 9.16333 8.38061 9.16333 8.76674ZM8.46419 19.2534C8.85031 19.2534 9.16333 18.9404 9.16333 18.5542C9.16333 18.1681 8.85031 17.8551 8.46419 17.8551C8.07806 17.8551 7.76505 18.1681 7.76505 18.5542C7.76505 18.9404 8.07806 19.2534 8.46419 19.2534Z" fill="white"/>
</mask>
<g mask="url(#mask0_35_3125)">
<rect x="-5.09277" y="-11" width="32" height="39" fill="#0073E6"/>
</g>
</svg>
