<svg width="24" height="24" viewBox="0 0 24 24" fill="none" xmlns="http://www.w3.org/2000/svg">
<g clip-path="url(#clip0_32_3619)">
<path d="M15.913 12.7825H0.782609C0.350607 12.7825 0 12.4319 0 11.9999C0 11.5679 0.350607 11.2173 0.782609 11.2173H15.913C16.345 11.2173 16.6956 11.5679 16.6956 11.9999C16.6956 12.4319 16.345 12.7825 15.913 12.7825Z" fill="#0073E6"/>
<path d="M11.7394 16.9566C11.539 16.9566 11.3388 16.8805 11.1863 16.7271C10.8806 16.4214 10.8806 15.9258 11.1863 15.6199L14.8072 11.9992L11.1863 8.37826C10.8806 8.07255 10.8806 7.57674 11.1863 7.27103C11.4922 6.96532 11.9878 6.96532 12.2935 7.27103L16.4674 11.4451C16.7731 11.7508 16.7731 12.2464 16.4674 12.5521L12.2935 16.726C12.1401 16.8805 11.9399 16.9566 11.7394 16.9566Z" fill="#0073E6"/>
<path d="M12.522 23.4781C7.77301 23.4781 3.58044 20.6211 1.83887 16.1987C1.68028 15.798 1.87842 15.3431 2.28023 15.1845C2.6809 15.028 3.13697 15.2231 3.29556 15.627C4.79925 19.4451 8.4211 21.9129 12.522 21.9129C17.9876 21.9129 22.4351 17.4655 22.4351 11.9998C22.4351 6.53416 17.9876 2.0867 12.522 2.0867C8.4211 2.0867 4.79925 4.55452 3.29556 8.3726C3.13583 8.77652 2.6809 8.9716 2.28023 8.81511C1.87842 8.65653 1.68028 8.2016 1.83887 7.80093C3.58044 3.3785 7.77301 0.521484 12.522 0.521484C18.8507 0.521484 24.0003 5.67111 24.0003 11.9998C24.0003 18.3285 18.8507 23.4781 12.522 23.4781Z" fill="#0073E6"/>
</g>
<defs>
<clipPath id="clip0_32_3619">
<rect width="24" height="24" fill="white"/>
</clipPath>
</defs>
</svg>
