<svg width="24" height="24" viewBox="0 0 24 24" fill="none" xmlns="http://www.w3.org/2000/svg">
  <path d="M0.929688 22C0.929688 22.5522 1.37695 23 1.92969 23C2.48242 23 2.92969 22.5522 2.92969 22C2.92969 18.4712 4.96118 15.3471 8.12775 13.8698C9.22363 14.5819 10.5273 15 11.9287 15C13.3354 15 14.6441 14.5791 15.7426 13.8619C16.6879 14.3082 17.5639 14.9086 18.293 15.6372C19.9932 17.3379 20.9297 19.5977 20.9297 22C20.9297 22.5522 21.377 23 21.9297 23C22.4824 23 22.9297 22.5522 22.9297 22C22.9297 19.0635 21.7852 16.3018 19.707 14.2231C19.0117 13.5274 18.2035 12.9308 17.3364 12.439C18.3306 11.2301 18.9287 9.68372 18.9287 8C18.9287 4.14014 15.7881 1 11.9287 1C8.06934 1 4.92871 4.14014 4.92871 8C4.92871 9.67963 5.52435 11.2222 6.51416 12.4299C3.08136 14.3626 0.929688 17.9738 0.929688 22ZM11.9287 3C14.6855 3 16.9287 5.24316 16.9287 8C16.9287 10.7568 14.6855 13 11.9287 13C9.17188 13 6.92871 10.7568 6.92871 8C6.92871 5.24316 9.17188 3 11.9287 3Z" fill="#0073E6"/>
</svg>
