<svg width="24" height="24" viewBox="0 0 24 24" fill="none" xmlns="http://www.w3.org/2000/svg">
  <mask id="mask0_96_3465" style="mask-type:alpha" maskUnits="userSpaceOnUse" x="2" y="1" width="20" height="22">
    <path d="M12 11.0833C14.5104 11.0833 16.5455 9.03131 16.5455 6.5C16.5455 3.96869 14.5104 1.91667 12 1.91667C9.48961 1.91667 7.45455 3.96869 7.45455 6.5C7.45455 9.03131 9.48961 11.0833 12 11.0833ZM12 12C8.98754 12 6.54545 9.53757 6.54545 6.5C6.54545 3.46243 8.98754 1 12 1C15.0125 1 17.4545 3.46243 17.4545 6.5C17.4545 9.53757 15.0125 12 12 12ZM21.0909 23C21.0909 17.9374 17.0208 13.8333 12 13.8333C6.97923 13.8333 2.90909 17.9374 2.90909 23H2C2 17.4311 6.47715 12.9167 12 12.9167C17.5228 12.9167 22 17.4311 22 23H21.0909ZM22 23H21.0909C21.0909 17.9374 17.0208 13.8333 12 13.8333C6.97923 13.8333 2.90909 17.9374 2.90909 23H2C2 17.4311 6.47715 12.9167 12 12.9167C17.5228 12.9167 22 17.4311 22 23Z" fill="white"/>
  </mask>
  <g mask="url(#mask0_96_3465)">
    <path d="M62 -32.8076H-38V67.1924H62V-32.8076Z" fill="#0073E6"/>
  </g>
</svg>
