<svg width="19" height="20" viewBox="0 0 19 20" fill="none" xmlns="http://www.w3.org/2000/svg">
  <mask id="mask0_183_1835" style="mask-type:alpha" maskUnits="userSpaceOnUse" x="0" y="0" width="19" height="20">
    <path fill-rule="evenodd" clip-rule="evenodd" d="M0.5 17.5083C0.5 18.6074 1.38899 19.5 2.4815 19.5H2.62348H9.37652H9.5185C10.611 19.5 11.5 18.6074 11.5 17.5083V17.329V15.8495V3.09235V2.67101V2.49168C11.5 1.39356 10.611 0.5 9.5185 0.5H9.37652H2.62348H2.4815C1.38899 0.5 0.5 1.39356 0.5 2.49168V2.67101V17.329V17.5083ZM1.67626 3.03043H10.3229V2.67101C10.3229 2.13734 9.89851 1.7035 9.37652 1.7035H2.62348C2.10149 1.7035 1.67626 2.13734 1.67626 2.67101V3.03043ZM1.67626 14.7341H10.3229V4.23393H1.67626V14.7341ZM1.67626 15.9367V17.329C1.67626 17.8627 2.10149 18.2974 2.62348 18.2974H9.37652C9.89851 18.2974 10.3229 17.8627 10.3229 17.329V15.9367H1.67626ZM13.6901 13.3217C13.8215 13.4346 14.0079 13.5 14.2018 13.5C14.3809 13.5 14.5515 13.4465 14.6818 13.348C15.8547 12.4694 16.5 11.2801 16.5 9.99994C16.5 8.72063 15.8547 7.5313 14.6818 6.65183C14.401 6.4396 13.956 6.45149 13.6901 6.6773C13.5619 6.78765 13.4941 6.93112 13.5004 7.08138C13.5068 7.23164 13.5862 7.37086 13.7229 7.47188C14.6087 8.13827 15.0961 9.03557 15.0961 9.99994C15.0961 10.9643 14.6087 11.8616 13.724 12.5271C13.5862 12.629 13.5068 12.7682 13.5004 12.9185C13.4941 13.0688 13.5619 13.2122 13.6901 13.3217ZM6.25036 17.0968C6.33494 17.0968 6.40361 17.1655 6.40361 17.25C6.40361 17.3345 6.33494 17.4032 6.25036 17.4032C6.16506 17.4032 6.09639 17.3345 6.09639 17.25C6.09639 17.1655 6.16506 17.0968 6.25036 17.0968ZM6.25036 18C6.66458 18 7 17.6647 7 17.25C7 16.8367 6.66458 16.5 6.25036 16.5C5.83542 16.5 5.5 16.8367 5.5 17.25C5.5 17.6647 5.83542 18 6.25036 18ZM15.6555 15.3047C15.761 15.4289 15.9099 15.5 16.0639 15.5C16.2094 15.5 16.3481 15.4384 16.4536 15.3256C17.7734 13.9178 18.5 12.0266 18.5 10.0007C18.5 7.97578 17.7734 6.08453 16.4536 4.67676C16.3447 4.56016 16.2052 4.48906 16.052 4.50138C15.9023 4.50517 15.761 4.57438 15.6564 4.69572C15.442 4.94599 15.4488 5.34415 15.6734 5.58399C16.7693 6.75287 17.3726 8.32179 17.3726 10.0007C17.3726 11.6805 16.7693 13.2485 15.6734 14.4174C15.4488 14.6572 15.442 15.0563 15.6555 15.3047Z" fill="white"/>
  </mask>
  <g mask="url(#mask0_183_1835)">
    <rect x="-38" y="-43.1572" width="100" height="100" fill="#0073E6"/>
  </g>
</svg>
