<svg width="24" height="24" viewBox="0 0 24 24" fill="none" xmlns="http://www.w3.org/2000/svg">
<path fill-rule="evenodd" clip-rule="evenodd" d="M19.694 17.713C19.054 17.335 18.378 17.021 17.677 16.776C18.005 15.533 18.191 14.257 18.23 12.973H21.423C21.307 14.676 20.701 16.336 19.694 17.713ZM15.78 20.779C16.382 20.026 16.898 19.074 17.303 17.963C17.847 18.156 18.374 18.397 18.878 18.682C17.996 19.595 16.945 20.305 15.78 20.779ZM12.965 21.368V17.166C14.029 17.204 15.088 17.353 16.123 17.61C15.369 19.665 14.221 21.026 12.965 21.368ZM12.965 12.973H16.983C16.945 14.137 16.78 15.292 16.491 16.419C15.337 16.126 14.154 15.958 12.965 15.919V12.973ZM12.965 8.78C14.157 8.741 15.34 8.574 16.491 8.28C16.78 9.407 16.945 10.564 16.983 11.727H12.965V8.78ZM12.965 3.331C14.221 3.673 15.369 5.034 16.123 7.089C15.088 7.347 14.029 7.495 12.965 7.533V3.331ZM18.878 6.018C18.374 6.303 17.847 6.543 17.303 6.736C16.898 5.625 16.382 4.674 15.779 3.92C16.944 4.395 17.996 5.105 18.878 6.018ZM19.694 6.987C20.701 8.364 21.307 10.025 21.423 11.727H18.23C18.191 10.442 18.005 9.166 17.677 7.924C18.378 7.68 19.054 7.365 19.694 6.987ZM11.718 7.533C10.655 7.495 9.596 7.347 8.562 7.09C9.316 5.035 10.464 3.673 11.718 3.331V7.533ZM11.718 11.727H7.701C7.739 10.564 7.904 9.408 8.193 8.282C9.347 8.573 10.529 8.741 11.718 8.78V11.727ZM11.718 15.919C10.528 15.959 9.346 16.126 8.193 16.418C7.904 15.292 7.739 14.136 7.701 12.973H11.718V15.919ZM11.718 21.368C10.463 21.026 9.315 19.664 8.562 17.609C9.596 17.353 10.655 17.204 11.718 17.166V21.368ZM5.807 18.681C6.31 18.398 6.837 18.157 7.381 17.964C7.787 19.075 8.302 20.026 8.905 20.78C7.74 20.306 6.689 19.595 5.807 18.681ZM4.99 17.714C3.983 16.337 3.377 14.676 3.261 12.973H6.454C6.494 14.257 6.679 15.532 7.007 16.776C6.305 17.021 5.629 17.335 4.99 17.714ZM4.99 6.985C5.63 7.364 6.306 7.68 7.007 7.925C6.679 9.167 6.494 10.442 6.454 11.727H3.261C3.377 10.024 3.983 8.363 4.99 6.985ZM8.905 3.92C8.302 4.674 7.787 5.625 7.381 6.735C6.838 6.542 6.31 6.302 5.807 6.019C6.689 5.106 7.74 4.395 8.905 3.92ZM20.373 5.83L20.257 5.691C18.326 3.387 15.496 2.043 12.5 2.003L12.342 2L12.194 2.003C9.176 2.043 6.338 3.397 4.419 5.702C4.382 5.741 4.349 5.782 4.326 5.814C1.226 9.601 1.226 15.099 4.318 18.874C4.34 18.905 4.363 18.935 4.41 18.983L4.407 18.984C6.339 21.303 9.176 22.656 12.184 22.696C12.238 22.698 12.291 22.699 12.343 22.699C12.394 22.699 12.444 22.698 12.491 22.696C15.496 22.656 18.326 21.313 20.253 19.014L20.373 18.869C23.45 15.092 23.45 9.608 20.373 5.83Z" fill="#0073E6"/>
</svg>
