<svg width="21" height="21" viewBox="0 0 21 21" fill="none" xmlns="http://www.w3.org/2000/svg">
  <mask id="mask0_183_1795" style="mask-type:alpha" maskUnits="userSpaceOnUse" x="0" y="0" width="21" height="21">
    <path fill-rule="evenodd" clip-rule="evenodd" d="M17.694 15.713C17.054 15.335 16.378 15.021 15.677 14.776C16.005 13.533 16.191 12.257 16.23 10.973H19.423C19.307 12.676 18.701 14.336 17.694 15.713ZM13.78 18.779C14.382 18.026 14.898 17.074 15.303 15.963C15.847 16.156 16.374 16.397 16.878 16.682C15.996 17.595 14.945 18.305 13.78 18.779ZM10.965 19.368V15.166C12.029 15.204 13.088 15.353 14.123 15.61C13.369 17.665 12.221 19.026 10.965 19.368ZM10.965 10.973H14.983C14.945 12.137 14.78 13.292 14.491 14.419C13.337 14.126 12.154 13.958 10.965 13.919V10.973ZM10.965 6.78C12.157 6.741 13.34 6.574 14.491 6.28C14.78 7.407 14.945 8.564 14.983 9.727H10.965V6.78ZM10.965 1.331C12.221 1.673 13.369 3.034 14.123 5.089C13.088 5.347 12.029 5.495 10.965 5.533V1.331ZM16.878 4.018C16.374 4.303 15.847 4.543 15.303 4.736C14.898 3.625 14.382 2.674 13.779 1.92C14.944 2.395 15.996 3.105 16.878 4.018ZM17.694 4.987C18.701 6.364 19.307 8.025 19.423 9.727H16.23C16.191 8.442 16.005 7.166 15.677 5.924C16.378 5.68 17.054 5.365 17.694 4.987ZM9.718 5.533C8.655 5.495 7.596 5.347 6.562 5.09C7.316 3.035 8.464 1.673 9.718 1.331V5.533ZM9.718 9.727H5.701C5.739 8.564 5.904 7.408 6.193 6.282C7.347 6.573 8.529 6.741 9.718 6.78V9.727ZM9.718 13.919C8.528 13.959 7.346 14.126 6.193 14.418C5.904 13.292 5.739 12.136 5.701 10.973H9.718V13.919ZM9.718 19.368C8.463 19.026 7.315 17.664 6.562 15.609C7.596 15.353 8.655 15.204 9.718 15.166V19.368ZM3.807 16.681C4.31 16.398 4.837 16.157 5.381 15.964C5.787 17.075 6.302 18.026 6.905 18.78C5.74 18.306 4.689 17.595 3.807 16.681ZM2.99 15.714C1.983 14.337 1.377 12.676 1.261 10.973H4.454C4.494 12.257 4.679 13.532 5.007 14.776C4.305 15.021 3.629 15.335 2.99 15.714ZM2.99 4.985C3.63 5.364 4.306 5.68 5.007 5.925C4.679 7.167 4.494 8.442 4.454 9.727H1.261C1.377 8.024 1.983 6.363 2.99 4.985ZM6.905 1.92C6.302 2.674 5.787 3.625 5.381 4.735C4.838 4.542 4.31 4.302 3.807 4.019C4.689 3.106 5.74 2.395 6.905 1.92ZM18.373 3.83L18.257 3.691C16.326 1.387 13.496 0.043 10.5 0.003L10.342 0L10.194 0.003C7.176 0.043 4.338 1.397 2.419 3.702C2.382 3.741 2.349 3.782 2.326 3.814C-0.773999 7.601 -0.773999 13.099 2.318 16.874C2.34 16.905 2.363 16.935 2.41 16.983L2.407 16.984C4.339 19.303 7.176 20.656 10.184 20.696C10.238 20.698 10.291 20.699 10.343 20.699C10.394 20.699 10.444 20.698 10.491 20.696C13.496 20.656 16.326 19.313 18.253 17.014L18.373 16.869C21.45 13.092 21.45 7.608 18.373 3.83Z" fill="white"/>
  </mask>
  <g mask="url(#mask0_183_1795)">
    <rect x="-6.87695" y="-8.03613" width="33" height="35" fill="#0073E6"/>
  </g>
</svg>
