<svg width="26" height="32" viewBox="0 0 26 32" fill="none" xmlns="http://www.w3.org/2000/svg">
<path d="M17.0845 0H4.23205C2.35443 0 0.826172 1.52819 0.826172 3.40582V28.5941C0.826172 30.4717 2.35443 31.9999 4.23205 31.9999H21.7687C23.6452 31.9999 25.1736 30.4717 25.1736 28.5941V8.06066L17.0845 0ZM21.7687 29.9132H4.23205C3.50503 29.9132 2.913 29.3221 2.913 28.5941V3.40582C2.913 2.67886 3.50503 2.08782 4.23205 2.08782L16.3042 2.07528V6.53659C16.3042 7.84097 17.3617 8.89959 18.6662 8.89959L23.0375 8.88704L23.0867 28.5942C23.0866 29.3221 22.4956 29.9132 21.7687 29.9132Z" fill="@fillColor"/>
</svg>
