<svg width="43" height="48" viewBox="0 0 43 48" fill="none" xmlns="http://www.w3.org/2000/svg">
<g clip-path="url(#clip0_5554_34205)">
<path d="M25.0789 0.351401C24.7441 0.36231 24.5989 0.571416 24.646 0.978672C24.0444 1.01214 23.6306 1.1169 23.4051 1.29231C23.1795 1.4678 23.1192 1.71464 23.2278 2.03208C23.3364 2.3496 23.5832 2.60888 23.9676 2.80936C23.8673 2.92637 23.8247 3.11102 23.8414 3.36163C23.8581 3.61231 24.1279 3.81843 24.646 3.98548C25.0303 4.08578 25.4033 4.09635 25.771 4.01276C25.6874 4.39713 25.8223 4.63867 26.1732 4.7389C26.6578 5.24022 27.2581 5.36457 27.9766 5.1139L27.9016 5.59117L28.88 5.99344C28.9134 6.46134 29.1301 6.79523 29.5312 6.99571L29.4835 7.09457C29.4333 7.09461 29.3907 7.11233 29.3573 7.14571L28.5562 8.04571C28.4893 8.11258 28.4113 8.12314 28.3278 8.07298C27.8599 7.80566 27.4442 7.59613 27.0766 7.44571C26.9764 7.39561 26.9161 7.31044 26.8994 7.19344L27.0494 6.04117C27.0493 5.92423 26.9924 5.83191 26.8755 5.76502C26.3408 5.51442 25.7974 5.33317 25.246 5.21617C25.0788 5.16607 24.9616 5.21617 24.8948 5.36617L24.3698 6.44344C24.3197 6.54374 24.2345 6.58631 24.1176 6.56957C23.6831 6.48606 23.2143 6.42575 22.713 6.3923C22.6127 6.39234 22.5558 6.34259 22.5392 6.2423L22.3653 5.09003C22.3486 4.93968 22.2562 4.86507 22.0892 4.86503C21.5043 4.83165 20.9183 4.83165 20.3335 4.86503C20.1998 4.86507 20.1146 4.92912 20.0812 5.06275L19.9073 6.2423C19.8906 6.34259 19.8337 6.39234 19.7335 6.3923C19.2322 6.42575 18.7634 6.48606 18.3289 6.56957C18.2621 6.60303 18.1769 6.57819 18.0767 6.49457L17.5517 5.3389C17.4848 5.23867 17.3676 5.1995 17.2005 5.21617C17.0167 5.23291 16.7326 5.31468 16.3483 5.46503V5.36617C17.05 5.06543 17.7178 4.65352 18.3528 4.13548C19.0212 3.55069 19.3799 2.94323 19.4301 2.30822C19.3131 2.15788 18.972 2.0727 18.4039 2.05594C18.7047 1.7218 18.8645 1.3702 18.8812 1.00254C18.664 0.701811 18.0105 0.652066 16.9244 0.852542C15.7881 1.13665 14.7936 1.58058 13.9415 2.18208C13.0725 2.73354 12.2928 3.40659 11.5994 4.20026C10.9059 4.994 10.3501 5.81628 9.93237 6.66844L10.4335 5.51617C10.6841 4.96479 10.9506 4.32189 11.2346 3.58663C11.3182 3.23576 11.3235 2.98365 11.2483 2.83321C11.1731 2.68288 11.008 2.64029 10.7574 2.70708C10.49 2.77396 10.0069 3.12557 9.3051 3.76048C8.53644 4.54588 7.85624 5.5155 7.26306 6.66844C6.66986 7.82144 6.26323 8.73076 6.04602 9.39911C6.16298 8.64721 6.14526 8.00432 5.99488 7.46957C5.91132 7.25238 5.73007 7.19549 5.44602 7.29571C5.17866 7.47955 4.90882 7.75313 4.64148 8.12071C4.37411 8.48835 4.11825 8.84523 3.86761 9.18774C3.61696 9.53033 3.32038 10.0187 2.97784 10.6536C2.63529 11.2887 2.33343 12.0416 2.07444 12.9105C1.81543 13.7794 1.61834 14.9303 1.48467 16.3673C1.40111 17.2863 1.46857 18.2737 1.6858 19.3264C1.95315 20.3791 2.21958 21.1569 2.48694 21.6582C2.75428 22.1595 3.0064 22.4508 3.24034 22.5343C3.39072 22.9019 3.58969 23.5128 3.84034 24.365C3.97401 24.766 4.03432 25.0698 4.01761 25.2786C4.0009 25.4875 4.05251 25.6349 4.17784 25.7184C4.30315 25.802 4.40792 25.9689 4.49148 26.2195C4.70869 27.0216 5.0034 27.764 5.37102 28.4491C5.30417 28.8167 5.26874 29.186 5.26875 29.5536C4.46668 27.231 3.81662 25.4764 3.31534 24.29C2.34618 22.1345 1.58608 21.1471 1.03467 21.3309C0.767308 21.4312 0.600367 21.6727 0.533531 22.057C0.516818 22.2074 0.516818 22.5945 0.533531 23.2127C0.550238 23.831 0.607133 24.481 0.707395 25.1661C1.20868 27.3885 2.06826 29.2426 3.28807 30.7297L5.11875 32.8877C5.48635 33.2553 5.83795 33.5236 6.17215 33.6991C6.50634 33.8745 6.81535 33.9224 7.09942 33.8388C7.51715 34.5072 8.04285 35.207 8.67783 35.9422C9.07885 36.5605 9.49791 36.8552 9.93237 36.8218C10.1162 37.2228 10.3897 37.4218 10.7574 37.4218L11.1358 37.374C11.6538 37.8753 12.1192 38.2733 12.5369 38.574L12.063 39.9309C11.2275 40.0478 10.4569 40.1119 9.7551 40.1286C9.10341 39.6607 8.18693 39.0284 7.00056 38.2263L6.92556 36.7195C6.89213 36.2015 6.98105 35.7681 7.19829 35.4172C7.24841 35.1332 7.09203 34.8739 6.72442 34.64C6.173 34.3726 5.77881 34.266 5.54488 34.3161C5.44462 34.3495 5.38772 34.4384 5.37102 34.5888V35.4172L2.98807 35.4684C2.77084 35.4684 2.59146 35.5501 2.44944 35.7172C2.3074 35.8843 2.30212 36.2182 2.4358 36.7195C2.4525 36.9033 2.44534 37.0631 2.41194 37.1968C2.29496 37.7315 1.98595 38.3849 1.48467 39.1536C1.41782 39.2706 1.44797 39.4447 1.5733 39.6786C1.69862 39.9125 2.01291 40.2784 2.51421 40.7797C2.73143 40.9969 3.06003 41.2668 3.50284 41.5843C3.94564 41.9018 4.72533 42.3849 5.84488 43.0365C7.16493 43.8219 8.42926 44.4753 9.63237 44.9934C9.883 45.0101 11.5524 44.7828 14.6437 44.3149L14.6676 44.5911C13.782 45.2595 13.2137 45.5364 12.963 45.4195C12.6121 45.4529 12.5055 45.7122 12.6392 46.1968C12.7394 46.414 12.9241 46.5632 13.1915 46.6468L13.5153 47.0218L14.4426 47.574C14.7935 47.6743 15.1274 47.6743 15.4449 47.574C15.7456 47.4571 15.948 47.1978 16.0483 46.7967L16.8733 46.4217C17.057 46.3048 17.1494 46.0632 17.1494 45.6956L17.8755 45.1433C18.4436 45.0431 18.813 44.8407 18.9801 44.5399C19.0135 44.2726 19.0881 44.1056 19.2051 44.0388L20.0812 43.4388C20.1146 43.3553 20.4768 43.4973 21.1619 43.8649C21.4961 43.9485 21.7874 43.9308 22.038 43.8138L22.6892 43.4388C23.274 43.5725 24.3005 44.2971 25.771 45.6172C25.7542 45.7676 25.8466 45.9451 26.0471 46.1456C26.164 46.296 26.4836 46.4204 27.0016 46.5206L27.3528 47.1718L27.7039 47.2979C28.2219 47.3146 28.705 47.1299 29.1562 46.7456L29.7085 46.5718C29.9925 46.3545 30.1168 46.1378 30.0835 45.9206L29.8585 45.6956L29.3812 45.5695C28.7796 45.2854 28.1687 44.9018 27.5505 44.4172L27.1516 44.1138C28.973 44.4313 31.2355 44.6834 33.9425 44.8672C34.2767 44.934 34.7259 44.7618 35.2857 44.3524C35.8454 43.9431 37.5345 42.7372 40.3584 40.732C40.7761 40.2808 41.1134 39.7623 41.3641 39.1775C41.1134 38.9435 40.8915 38.6096 40.6993 38.1752C40.5071 37.7407 40.3846 37.3714 40.3346 37.0706C40.2677 36.7866 40.2605 36.5326 40.3107 36.307C40.3608 36.0814 40.2862 35.87 40.0857 35.6695C40.0021 35.5525 39.8069 35.4745 39.5062 35.4411C38.9714 35.391 38.3711 35.4015 37.7028 35.4684C37.3852 35.435 37.2006 35.3603 37.1505 35.2434L37.1778 34.64C37.2278 34.3726 37.1532 34.2554 36.9528 34.2888C36.2175 34.4726 35.7736 34.6573 35.6232 34.8411C35.4059 35.075 35.4131 35.3272 35.6471 35.5945C35.8308 35.7616 35.9232 35.9534 35.9232 36.1706C35.8229 37.2735 35.7306 38.0159 35.6471 38.4002C34.4272 39.3693 33.5997 39.9625 33.1653 40.1797C32.8143 40.2967 32.0294 40.247 30.8096 40.0297C30.5422 39.7958 30.3504 39.3944 30.2335 38.8263C30.6512 38.5757 31.0951 38.2738 31.563 37.9229C31.8804 37.8728 32.1469 37.8106 32.3641 37.7354C32.5813 37.6602 32.6914 37.456 32.6914 37.1218C32.9086 37.0382 33.065 36.8536 33.1653 36.5695L34.6209 34.8172C35.0888 34.4162 35.5968 34.1818 36.1482 34.115C36.8166 34.0648 37.6867 33.6884 38.7562 32.9866C38.9232 32.8028 38.9232 32.5435 38.7562 32.2093C39.0736 32.0255 39.5921 31.5069 40.3107 30.6547C40.5947 30.2537 40.6622 29.8098 40.5118 29.3252C41.1802 28.5231 41.5532 27.8908 41.6368 27.4229C41.7036 27.0052 41.6965 26.5541 41.613 26.0695C41.9304 25.869 42.1524 25.6968 42.2777 25.5548C42.403 25.4127 42.4652 25.2156 42.4652 24.965C42.4652 24.7144 42.3729 24.5048 42.1891 24.3377C42.6736 23.6526 42.7339 23.0346 42.3664 22.4832C42.5 21.5809 42.4077 21.0126 42.0902 20.7786C41.756 20.5447 41.3441 20.6227 40.8596 21.007C40.5755 20.8567 40.1918 20.9987 39.7073 21.4332C39.7908 21.216 39.8014 21.0208 39.7346 20.8536C40.169 20.6531 40.4478 20.4346 40.5732 20.1923C40.6985 19.95 40.7607 19.5682 40.7607 19.0502C40.8108 18.7328 41.1021 18.1645 41.6368 17.3457C42.0044 16.5269 41.7451 16.2428 40.8596 16.4934C41.3441 16.059 41.5891 15.6825 41.5891 15.365C41.6225 15.0643 41.4947 14.6806 41.2107 14.2127C41.0937 13.9454 40.9196 13.8957 40.6857 14.0627C40.7692 13.8957 40.8137 13.6967 40.8221 13.4627C40.8304 13.2288 40.6759 12.7352 40.3584 11.9832C40.3083 10.9974 40.0773 10.5855 39.6596 10.7525C39.5927 10.2345 39.4257 9.74429 39.1584 9.27638C38.7574 8.67488 38.4378 8.51508 38.2039 8.79911C37.5522 7.82999 36.9413 7.42865 36.3732 7.59571C36.3565 7.178 36.2144 6.80153 35.9471 6.4673C35.7966 5.83237 35.6154 5.39185 35.3982 5.14117C35.0974 5.02423 34.8879 5.19117 34.7709 5.6423C34.7208 5.27473 34.6036 4.8877 34.4198 4.48662C34.236 4.08563 33.9447 3.87951 33.5437 3.86276C33.3932 3.84609 33.2512 3.87094 33.1175 3.93776C32.8501 3.77071 32.6229 3.68553 32.4391 3.68548C31.871 3.08398 31.3524 3.03424 30.8846 3.53548L30.8096 3.01049C30.6425 2.39227 30.3086 2.25736 29.8073 2.60821C28.9885 1.75606 28.2887 1.19493 27.7039 0.927542C27.2193 0.760491 26.8997 0.803069 26.7494 1.05367C26.4987 0.803069 26.2323 0.643284 25.9482 0.576401C25.6641 0.509605 25.3977 0.434997 25.1471 0.351401C25.1231 0.350314 25.1012 0.350314 25.0789 0.351401ZM25.2085 0.780946C25.3994 0.775924 25.7885 0.916512 26.3744 1.20367L26.8755 1.50367C27.0092 1.25307 27.233 1.17846 27.5505 1.27867C27.9348 1.46252 28.297 1.68449 28.6312 1.94345C28.9653 2.20248 29.3384 2.57368 29.7562 3.05821C30.1071 2.82432 30.3592 2.87407 30.5096 3.20821L30.5846 3.81163C30.2169 3.46076 29.7659 3.43589 29.2312 3.73663L28.88 3.58663C28.3954 3.00182 28.1041 2.5579 28.0039 2.25708C27.9036 1.8728 27.8539 1.84077 27.8539 2.15821C27.8706 2.49246 28.0696 2.91866 28.4539 3.43663C27.7187 3.20273 27.1805 2.90087 26.838 2.53321C26.4954 2.16564 26.2309 1.85663 26.0471 1.60594C25.8633 1.30521 25.7887 1.30521 25.8221 1.60594C26.0226 1.9736 26.2996 2.31464 26.6505 2.63208C26.3831 2.51516 26.131 2.39795 25.8971 2.28094C25.3122 2.03034 24.8291 1.89883 24.4448 1.88208C24.261 1.88213 24.2504 1.91415 24.4176 1.98094C25.0692 2.14808 25.5433 2.30259 25.8357 2.44458C26.1281 2.58666 26.3252 2.71629 26.4255 2.83321C25.9576 3.03378 25.4711 3.1261 24.9698 3.10935C24.6523 3.09269 24.5103 3.09986 24.5437 3.13321C24.5771 3.16667 24.6766 3.20211 24.8437 3.23549C25.4452 3.30237 26.0561 3.23439 26.6744 3.03435C27.1255 3.26833 27.6512 3.49216 28.2528 3.70935C27.8851 3.79294 27.5264 3.96329 27.1755 4.2139C27.0418 4.38104 27.1093 4.38818 27.3766 4.23776C27.644 4.03728 28.0453 3.91293 28.5801 3.86276L29.0062 4.03663C28.9727 4.48782 29.0794 4.94606 29.33 5.41389L29.0573 5.51617L28.205 5.24003L28.2528 4.6639L27.7789 4.76275C27.3277 4.91318 26.8766 4.78167 26.4255 4.3639C26.1247 4.41407 25.9969 4.29686 26.0471 4.01276C26.164 3.76215 26.132 3.62724 25.9482 3.61048L25.2221 3.68548C24.7542 3.61869 24.4452 3.48378 24.2948 3.28321C24.1945 3.11616 24.2586 2.91003 24.4926 2.65936C24.0414 2.47559 23.7625 2.27322 23.6539 2.05594C23.5453 1.83877 23.6127 1.66467 23.8551 1.53094C24.0973 1.39731 24.5431 1.37245 25.1948 1.45594C25.0444 1.27218 25.0052 1.08037 25.0721 0.879814C25.0773 0.817164 25.1217 0.783226 25.2085 0.780946ZM18.0289 1.1014C18.0879 1.10031 18.1464 1.10271 18.2028 1.10478C18.42 1.15495 18.4769 1.2793 18.3767 1.47978L17.8278 2.20591C17.3432 2.27279 16.6773 2.54978 15.8335 3.03432C14.9896 3.51893 14.0856 4.16184 13.1165 4.96386L12.7653 5.18886C12.5815 5.05523 12.2442 5.11553 11.7596 5.36613C13.2969 4.07953 14.6359 3.10274 15.7721 2.43432C16.5073 2.06675 16.9335 1.80748 17.0505 1.65705C16.6829 1.75735 16.1644 1.98647 15.496 2.34569C14.8276 2.70499 13.723 3.45264 12.1858 4.58886L10.7096 5.91499C11.5451 4.77878 12.4171 3.83742 13.3278 3.08545C14.2385 2.33357 15.3272 1.74756 16.5971 1.32978C17.1381 1.18361 17.6159 1.10688 18.0289 1.10137V1.1014ZM18.3596 2.38321C18.5977 2.38321 18.8046 2.41527 18.9801 2.48208C18.9801 2.7996 18.7882 3.1512 18.4039 3.53548C17.8191 4.07024 17.0891 4.5639 16.2119 5.01503C15.3346 5.46623 14.1928 5.99908 12.7892 6.6173V6.4673C14.4936 5.1974 16.074 4.16373 17.5278 3.36163C17.9121 3.12773 17.8767 3.06028 17.4255 3.16049C16.9242 3.41118 16.3737 3.72019 15.7721 4.08776C14.7695 4.73947 13.7928 5.38237 12.8403 6.0173L12.8642 5.7173C14.7691 4.04638 16.3318 2.96671 17.5517 2.48208C17.8524 2.41527 18.1215 2.38321 18.3596 2.38321ZM10.7131 3.20821C10.7213 3.20815 10.7272 3.20614 10.7335 3.20821C10.817 3.2751 10.8419 3.38515 10.8085 3.53548L9.58123 6.6923C8.77916 8.24634 7.72436 9.86942 6.42102 11.5571C5.86959 12.1586 5.52855 12.5423 5.39488 12.7093C5.2612 12.8765 5.15115 13.0362 5.06761 13.1866L5.16988 12.7605L5.64715 12.0071C6.31553 10.921 7.11481 9.38305 8.05056 7.39457C8.33461 6.80976 8.75367 6.14916 9.3051 5.41389C9.47218 5.02961 9.37985 5.04017 9.02896 5.44117C8.21018 6.46049 7.25827 8.07301 6.17215 10.2787L6.64943 9.07525C6.73296 8.80792 6.99939 8.20234 7.45056 7.2582C7.90171 6.31414 8.34564 5.56649 8.7801 5.01503C9.21454 4.46365 9.51299 4.10489 9.6801 3.93776C10.244 3.45217 10.5897 3.20923 10.7131 3.20821ZM31.5085 3.57981C31.6364 3.57326 31.7731 3.60717 31.9141 3.68548C31.4295 3.68553 31.1454 3.89506 31.0619 4.31276C31.0117 4.58015 31.0117 4.90689 31.0619 5.29117C30.8947 5.05727 30.6924 4.85489 30.4585 4.68775C30.0073 4.45386 29.9255 4.47874 30.2096 4.76275C30.4936 5.04686 30.7423 5.34157 30.9596 5.6423C30.5919 5.94311 30.1906 6.07462 29.7562 6.04117C29.6058 6.10804 29.6306 6.15063 29.8312 6.1673C30.0317 6.21747 30.2661 6.19975 30.5335 6.11617C30.5 6.38356 30.5426 6.65339 30.6596 6.92071C30.4256 6.95417 30.1486 6.91875 29.8312 6.81844C29.4635 6.61796 29.2717 6.30179 29.255 5.8673L29.7085 5.69003C29.9089 5.45613 29.911 5.28204 29.7187 5.16503C29.5265 5.0481 29.4217 4.73909 29.405 4.23776C29.5888 3.83677 30.0433 3.83677 30.7619 4.23776C30.9801 3.81274 31.227 3.59418 31.5084 3.57981H31.5085ZM31.955 4.12185C32.348 4.10725 32.7374 4.24537 33.1175 4.53776C33.1342 4.30386 33.2887 4.23453 33.5812 4.32639C33.8736 4.41833 34.1453 5.03824 34.3959 6.19117L34.7948 6.34117C34.9284 6.02372 35.0385 5.86734 35.1221 5.8673C35.2557 5.86734 35.3872 6.14092 35.5209 6.6923C35.8551 6.99311 36.0149 7.48678 35.9982 8.17184C35.7809 8.45594 35.6637 8.80754 35.6471 9.22525L35.4459 8.77525C35.3289 8.27399 35.2792 7.74489 35.2959 7.19344C35.2792 6.95954 35.2543 6.95954 35.2209 7.19344C35.1708 7.67805 35.1636 8.08995 35.1971 8.42411C34.7459 7.83931 34.2594 7.31361 33.7414 6.84571C33.6411 6.47813 33.6091 6.05907 33.6425 5.59117C33.5924 5.19017 33.5498 5.09784 33.5164 5.31503C33.4829 5.81635 33.5007 6.28516 33.5675 6.71957C33.1832 6.33529 32.7321 5.77416 32.2141 5.0389C32.0804 4.805 32.0201 4.75526 32.0369 4.8889C32.3543 5.49048 32.6916 5.9913 33.0425 6.3923C33.3934 6.79337 33.6775 7.11295 33.8948 7.34684C33.4603 7.2132 33.0839 7.12275 32.7664 7.08093C32.4489 7.03919 32.1542 6.95215 31.8869 6.81844C31.6362 6.76834 31.6467 6.82869 31.9141 6.99571C32.0645 7.09601 32.3682 7.18493 32.8278 7.26844C33.2872 7.35202 33.7187 7.49409 34.1198 7.69457C34.337 7.82828 34.6283 8.17273 34.9959 8.72411L35.2959 9.39911C34.828 9.1485 34.3095 8.97441 33.7414 8.87411C33.1732 8.77389 32.8394 8.68156 32.7391 8.59798C32.3046 8.4142 32.2549 8.43192 32.5891 8.64911C32.6894 8.74941 33.0462 8.86132 33.6562 8.98661C34.266 9.11197 34.8539 9.35165 35.4221 9.70252L35.4732 9.85252C35.3562 9.98623 35.3136 10.1709 35.3471 10.4048L35.5209 10.9059C35.3705 10.7221 35.1644 10.8039 34.8971 11.1548C34.9973 10.9376 34.9724 10.7386 34.8221 10.5548C34.5881 10.2039 34.0198 9.82745 33.1175 9.42638L32.9675 9.70252C32.2323 9.46862 31.7706 9.03184 31.5869 8.39684C31.5701 8.19636 31.7476 8.08444 32.1153 8.05934C32.4828 8.03431 32.5397 7.92955 32.2891 7.74571C31.8045 7.57865 31.4032 7.2945 31.0857 6.89344C30.8685 6.60941 30.8685 6.41044 31.0857 6.29344L31.4607 6.19117L31.638 5.96617L31.413 5.09003C31.3461 4.6389 31.4705 4.31933 31.788 4.13548C31.8444 4.12708 31.8989 4.12393 31.955 4.12185ZM21.0528 5.04912C21.3393 5.04214 21.6249 5.06252 21.9323 5.09344C22.048 5.08406 22.0858 5.18052 22.1437 5.29457L22.2767 6.18093C22.3018 6.39145 22.3157 6.60106 22.6892 6.6173C23.0626 6.63354 23.656 6.70507 23.9744 6.77411C24.2928 6.84317 24.5085 6.71021 24.6153 6.48775C24.6153 6.48775 24.9204 5.8561 25.0721 5.54003C25.1082 5.46475 25.1748 5.43045 25.2323 5.44117C25.805 5.54773 26.1819 5.67113 26.6846 5.92866C26.7517 5.96306 26.799 6.04711 26.7766 6.19117L26.6301 7.16957C26.5965 7.39512 26.7139 7.54669 26.9471 7.64002C27.3751 7.81132 27.6429 7.95373 27.9255 8.12071C28.1906 8.27732 28.5364 8.43087 28.8323 8.11733L29.6335 7.26847H29.6812L29.5073 7.4696C29.4296 7.55948 29.3879 7.71476 29.3812 7.92301C29.3769 8.05665 29.633 8.21947 29.8482 8.25369C30.2686 8.32055 30.5445 8.29816 30.9323 8.28438L30.6221 9.20141L30.5335 9.45028C30.5034 9.59233 30.4322 9.73437 30.6835 9.87641L30.9869 10.1014L31.4369 10.5276L31.6891 10.7526C31.8442 10.9045 31.936 11.1422 32.6505 10.7458C32.5839 10.9633 32.5415 11.1824 32.5141 11.4072C32.4838 11.6563 32.5169 11.8393 32.6164 12.0583C32.4024 12.1627 32.274 12.2951 32.238 12.4844C32.1951 12.7102 32.2318 12.921 32.313 13.1356C32.4035 13.3746 32.5765 13.5725 32.7153 13.7867C32.5314 13.8369 32.4748 13.8924 32.388 14.0117C32.2826 14.1565 32.3062 14.4724 32.3709 14.6696C32.5128 15.1019 32.956 15.1138 33.2914 15.3174C33.729 15.5829 34.1476 15.8567 34.4334 16.2787C34.5905 16.5106 34.7087 16.7429 34.8664 16.9742C34.934 17.0733 35.1456 17.2633 35.2482 17.3253C35.3641 17.3954 35.5959 17.4992 35.5959 17.4992C35.5187 17.6537 35.4725 17.7942 35.4016 18.0378C35.3402 18.2489 35.3327 18.3104 35.3164 18.5287C35.3058 18.6708 35.3138 18.8052 35.3675 18.9378C35.4035 19.0265 35.5993 19.2174 35.5993 19.2174C35.6527 19.554 35.7192 19.941 35.7562 20.2605C35.7713 20.3916 35.9491 20.6179 36.1414 20.6424C36.4132 20.6769 36.5664 20.6927 37.0482 20.7753C37.1608 20.7946 37.2826 20.9108 37.3005 21.1605C37.3399 21.5201 37.3058 21.9527 37.3107 22.3128C37.3129 22.4738 37.3016 22.6018 37.1027 22.6367L36.2471 22.7867C35.9899 22.8177 35.8324 22.9537 35.8073 23.1071C35.7799 23.5865 35.7007 24.0555 35.6266 24.5287C35.5958 24.7252 35.6188 24.9475 35.8721 25.098C36.0884 25.2266 36.1347 25.2542 36.6357 25.456C36.6053 25.5651 36.6154 25.6826 36.6528 25.7969C36.4679 25.7285 36.36 25.8303 36.2778 25.9298C36.2138 25.6967 36.1775 25.5481 36.0357 25.4833C35.8693 25.4071 35.6905 25.4792 35.6232 25.5173C35.5145 25.579 35.3232 25.7423 35.3232 25.7423C35.2972 25.5293 35.2725 25.3153 35.255 25.1014C35.2491 24.9566 35.2225 24.8386 35.3573 24.5014C35.3872 24.4266 35.4776 24.3426 35.5209 24.2151C35.6802 23.7158 35.6119 23.3337 35.5857 22.8378C35.5751 22.6358 35.5494 22.4815 35.5175 22.2889C35.4933 22.1428 35.4644 22.0004 35.4016 21.8662C35.3634 21.7846 35.327 21.6786 35.2721 21.6071C35.1925 21.5038 35.107 21.3863 34.9823 21.348C34.7871 21.2881 34.5894 21.362 34.4471 21.5049C34.0054 21.1224 33.8981 21.1429 33.7414 21.1674C33.5408 21.1987 33.3828 21.3712 33.2266 21.5424C33.2538 21.2044 33.2363 20.905 33.2164 20.5299C33.1964 20.1547 33.1311 19.7709 33.0357 19.3128L26.1937 21.9651L32.6641 17.2708H24.6937L31.7914 15.3174C31.117 13.6821 29.7586 12.1525 28.5051 11.1787C27.2515 10.205 25.6186 9.31585 23.2414 9.22534L23.5994 16.3776L21.2096 9.22534L18.8096 16.4151L19.188 9.16738C17.1722 9.2193 14.9907 10.2529 13.6517 11.281C12.3127 12.3092 11.0763 14.0576 10.5631 15.3174L17.7767 17.2708H9.74146L16.2289 21.9718L9.44146 19.3025C9.31445 19.7854 9.25158 20.1022 9.20624 20.5298C8.48093 20.969 8.22143 21.9619 7.90056 23.0968C7.53045 23.5641 7.2297 23.9771 6.92556 24.44C6.8452 23.9863 6.79726 23.5323 6.76192 23.0729C6.74521 22.9393 6.67444 22.839 6.51306 22.8139L5.4392 22.6468C5.2091 22.6319 5.21426 22.4322 5.20738 22.2752C5.20186 21.849 5.1901 21.3613 5.19716 20.9252C5.1985 20.8422 5.27697 20.7635 5.37784 20.7377C5.66265 20.6648 6.14183 20.6322 6.44829 20.5536C6.67718 20.4949 6.71179 20.4218 6.76193 20.3048C6.78632 19.8639 6.85309 19.4294 6.94943 18.9991C6.94943 18.9991 7.10147 18.5597 6.93921 18.4298C6.72224 18.2561 6.40398 18.1366 6.40398 18.1366C6.75949 17.8876 7.03975 17.6703 7.45057 17.2707C7.86139 16.8711 8.27388 16.4147 8.70511 15.7434C9.13634 15.0721 9.73496 14.2348 10.1028 13.4252C10.4707 12.6156 10.9668 11.2529 10.8835 10.5275C11.1129 10.1466 11.1791 10.0669 11.4903 9.52865C11.8015 8.99038 12.3018 7.95123 12.6119 7.26844H12.8131L13.546 8.09684C13.8822 8.47824 14.0819 8.40456 14.4085 8.20934C14.759 7.99983 15.0968 7.83095 15.4551 7.68435C15.6034 7.62365 15.8087 7.4956 15.7585 7.11502L15.6426 6.23889C15.6257 6.11084 15.6765 6.04853 15.8165 5.9798C16.1808 5.80089 16.8276 5.54995 17.1085 5.4923C17.2347 5.46639 17.3423 5.53514 17.3812 5.61844L17.7971 6.5048C17.9089 6.75398 18.1095 6.86992 18.4585 6.79117C18.8077 6.71235 19.1829 6.64867 19.6551 6.6173C20.1272 6.58593 20.1123 6.42114 20.146 6.18094L20.2687 5.28435C20.2537 5.18651 20.3426 5.06911 20.5312 5.09344C20.709 5.06918 20.8809 5.05331 21.0528 5.04912L21.0528 5.04912ZM12.2471 5.68321C12.2826 5.68004 12.3141 5.68168 12.3392 5.68997C12.406 5.85711 12.4203 6.08623 12.3869 6.3786C12.3535 6.67106 12.1368 7.28722 11.7358 8.22292L10.8085 10.0263C10.1568 10.1099 9.53879 10.4118 8.95396 10.9297C9.25473 10.4118 9.61876 9.81861 10.0449 9.15019C10.471 8.48184 11.1334 7.48019 12.0358 6.14338C12.1861 5.89277 12.1914 5.8306 12.0494 5.95588C11.9074 6.08124 11.529 6.55907 10.9108 7.39451C10.2925 8.23004 9.46495 9.52639 8.42897 11.2809C8.14489 11.7153 7.44169 12.7916 6.32215 14.5127C6.2386 14.5963 5.98648 14.646 5.56875 14.6627L4.74375 17.0968C4.81058 17.197 5.02011 17.1616 5.37102 16.9945C5.20391 17.312 4.9518 17.4895 4.61761 17.5229L4.41648 17.3695L4.31761 16.9945L4.34148 16.7695L4.54261 16.7934L5.41875 14.5638L4.89375 13.9127L5.01988 13.5377C5.18697 13.8886 5.34335 14.0804 5.49375 14.1138C5.72767 13.6627 6.06684 13.0465 6.50965 12.2695C6.95245 11.4925 7.47627 10.7023 8.07783 9.90019L8.05056 9.70247C8.05055 9.58553 8.11085 9.57497 8.22783 9.67519L9.47896 7.87178L8.45283 9.65132C8.61991 9.83516 8.5453 9.95953 8.22783 10.0263C7.1584 11.4467 6.338 12.8602 5.76988 14.2638L6.02215 14.3388C6.17253 14.4057 6.3146 14.3388 6.44829 14.1377L7.97556 11.4309L9.43124 8.72406C10.1163 7.50429 10.9013 6.55238 11.7869 5.86724C11.9874 5.75449 12.1406 5.69257 12.2471 5.68315V5.68321ZM15.3699 5.9423V6.0173L15.5199 7.22071C15.5365 7.33771 15.4974 7.41947 15.3971 7.46957C14.9794 7.6367 14.5532 7.84623 14.1187 8.09684C14.0352 8.1303 13.9571 8.12314 13.8903 8.07298L13.1165 7.19344L12.888 6.99571L13.1403 6.89344C13.9758 6.55928 14.7182 6.24311 15.3699 5.9423ZM30.1585 7.37071L30.8369 7.44571L31.263 7.79684C31.146 7.8303 31.0608 7.90491 31.0107 8.02184C30.075 8.03858 29.6416 7.97113 29.7085 7.82071C29.6583 7.72049 29.8075 7.57126 30.1585 7.37071ZM5.42556 7.98775C5.48118 7.98229 5.51981 8.01033 5.54488 8.07298C5.61171 8.7414 5.60643 9.38957 5.53125 10.0162C5.45604 10.6428 5.29438 11.3373 5.04375 12.1059C4.39206 14.2782 4.00128 15.7415 3.86761 16.4934C3.61696 17.3791 3.33997 18.5333 3.03921 19.9536C2.90552 19.2686 2.98542 17.8249 3.27784 15.6275C3.57025 13.4302 3.94144 11.8656 4.39261 10.9298C4.60983 10.4452 4.60268 10.3706 4.36875 10.7048C3.34945 12.4426 2.7563 15.0071 2.58921 18.3991C2.55578 19.5855 2.61983 20.4432 2.78693 20.9695C2.95403 21.4959 3.14584 21.7996 3.36307 21.8832C3.48003 21.95 3.60779 21.9429 3.74148 21.8593C3.84173 21.2244 3.90919 20.7077 3.94261 20.315C3.97603 19.9223 4.02049 19.4641 4.07898 18.9377C4.13745 18.4114 4.24222 17.9727 4.39261 17.6218L4.49148 17.7207C4.32437 18.4893 4.23732 19.0256 4.22898 19.3264C4.22061 19.6272 4.20103 19.929 4.16761 20.2298C4.13419 20.5306 4.09875 21.106 4.06534 21.9582C4.26585 21.2731 4.48594 20.6196 4.71988 20.0014L5.49375 17.748L6.49943 15.365C7.05083 14.2956 7.81808 13.0773 8.80396 11.7071C9.38879 11.022 9.90733 10.6527 10.3585 10.6025C10.4755 10.7696 10.4755 11.1141 10.3585 11.6321C10.2415 12.1501 10.0392 12.6935 9.7551 13.2616C8.66896 15.2668 7.61757 16.7195 6.59829 17.6218L8.32669 14.8161L9.1551 13.3093C9.47257 12.7412 9.52947 12.5423 9.32896 12.7093C7.64128 15.2492 6.63247 16.844 6.29829 17.4957C5.96409 18.1474 5.63736 18.7583 5.31988 19.3264C5.00239 19.8945 4.79286 20.3384 4.69261 20.6559C4.59235 20.9734 4.38282 21.5417 4.06534 22.3604C4.06533 22.5109 4.16823 22.9442 4.36875 23.6627C4.56926 24.3812 4.73807 24.8022 4.88011 24.9275C5.02214 25.0528 5.03457 25.1896 4.91761 25.34C4.86747 25.4737 4.90291 25.7258 5.01988 26.0934C5.10342 26.4944 5.29524 27.045 5.59602 27.7468L5.52102 27.9991C5.20353 27.2973 4.91938 26.5266 4.66875 25.6911C4.66874 25.3569 4.63143 25.1508 4.55625 25.0673C4.48105 24.9837 4.40644 24.8292 4.33125 24.6036C4.25605 24.3781 4.14072 24.0408 3.99034 23.5979C3.83995 23.1552 3.73331 22.7591 3.66648 22.4082C3.21531 22.2077 2.88858 21.8719 2.68807 21.3957C2.48755 20.9195 2.30102 20.2962 2.12557 19.5275C1.95012 18.7589 1.87738 17.839 1.9108 16.7695C1.99434 15.4996 2.179 14.2636 2.46307 13.0605C2.88081 11.3895 3.73323 9.80188 5.01988 8.29798C5.19742 8.09958 5.33288 7.99689 5.42556 7.98775ZM36.5743 8.02184C36.6495 8.01344 36.749 8.03838 36.8743 8.09684C37.125 8.21385 37.5263 8.65777 38.0778 9.42638C38.3451 9.12564 38.6043 9.23229 38.855 9.75025C39.1558 10.2181 39.273 10.7793 39.2062 11.4309C39.8244 11.0968 40.0411 11.3206 39.8573 12.1059C40.1246 12.6574 40.2897 13.0889 40.3482 13.398C40.4066 13.7071 40.3569 13.9965 40.1982 14.2639C40.0394 14.5313 39.9614 14.7355 39.9698 14.8775C39.9781 15.0196 40.0384 15.0143 40.1471 14.8639C40.2556 14.7135 40.4776 14.5892 40.8118 14.4889C41.029 14.9568 41.1213 15.2658 41.088 15.4161C41.0879 15.6 40.9726 15.7989 40.7471 16.0161C40.5214 16.2334 40.3918 16.4927 40.3584 16.7934C40.3584 16.9438 40.4364 17.0218 40.5868 17.0218L41.0368 16.8957C41.2707 16.8623 41.2779 17.047 41.0607 17.448C40.8267 17.8824 40.6579 18.2483 40.5493 18.5491C40.4407 18.8499 40.3857 19.0914 40.3857 19.2752C40.3689 19.6596 40.3015 19.8868 40.1846 19.9536C40.2179 19.4691 40.2055 18.963 40.1471 18.4366C40.0885 17.9103 39.9838 17.3224 39.8334 16.6707C39.9671 16.5537 40.1517 16.1596 40.3857 15.4911C40.5026 15.157 40.4778 15.1144 40.3107 15.365C40.1269 15.8663 39.9422 16.1753 39.7584 16.2923C39.5746 15.674 39.3756 14.9245 39.1584 14.0389C39.409 13.6212 39.5654 13.0921 39.6323 12.4571C39.649 11.9224 39.6169 11.8832 39.5334 12.3343C39.4331 12.9693 39.2485 13.4596 38.9812 13.8105C38.7639 13.1087 38.5295 12.4515 38.2789 11.8332C38.3624 11.4823 38.3978 11.0704 38.3812 10.6025C38.3644 10.1347 38.3218 10.1204 38.255 10.5548C38.255 10.9057 38.2124 11.2042 38.1289 11.4548L37.5766 10.0537L37.2255 9.24911C37.1085 8.98179 37.0693 8.98179 37.1028 9.24911L37.4266 10.3025C37.1759 10.0185 36.9415 9.80896 36.7243 9.67525C36.5071 9.5416 36.4679 9.55216 36.6016 9.70252C36.9692 10.02 37.2854 10.3611 37.5528 10.7286C37.7699 11.2634 37.9866 11.814 38.2039 12.3821C37.5689 11.8474 37.125 11.5489 36.8743 11.4821C36.5568 11.3651 36.5568 11.422 36.8743 11.6559C37.3255 11.94 37.8617 12.4408 38.48 13.1593C38.6805 13.7442 38.8723 14.3125 39.0562 14.8639C38.7386 14.6801 38.355 14.3142 37.9039 13.7627C37.7033 13.5622 37.6962 13.5943 37.88 13.8616C38.2476 14.413 38.6738 14.8996 39.1584 15.3173L39.5334 16.8445C39.1491 16.4603 38.6482 16.0695 38.03 15.6684C37.7626 15.5013 37.7449 15.5334 37.9789 15.7673C38.5136 16.1516 39.0747 16.7199 39.6596 17.4718C39.8266 17.9397 39.9012 18.7993 39.8846 20.0525C39.8678 20.37 39.6334 20.6044 39.1823 20.7548L39.08 21.9582L38.4562 21.982C38.1219 21.5142 37.8645 21.1502 37.6891 20.8911C37.5136 20.6322 37.2649 20.2361 36.9391 19.7014C36.6132 19.1667 36.3736 18.7333 36.2232 18.3991C36.0728 18.0649 36.0479 17.7205 36.1482 17.3695C36.2484 17.0187 36.3336 16.7522 36.4005 16.5684C36.4673 16.3846 36.4567 16.3526 36.3732 16.4695C36.1727 16.8205 36.0306 17.1615 35.9471 17.4957L35.4459 16.0673C35.496 15.4992 35.7979 14.7711 36.3493 13.8855C36.5164 13.5847 36.4987 13.5598 36.2982 13.8105C35.7969 14.4789 35.4736 15.1572 35.3232 15.8423L34.5459 14.1139C34.5292 13.7964 34.7282 13.1927 35.1459 12.3071C35.3631 11.8392 35.3134 11.8569 34.9959 12.3582C34.7285 12.8595 34.5367 13.3283 34.4198 13.7627C34.1858 12.8103 33.9586 12.0005 33.7414 11.3321L33.5675 11.2809L33.6664 11.5571C33.8 12.3926 33.9847 13.1172 34.2187 13.7355C33.9012 13.4514 33.5424 13.2204 33.1414 13.0366C32.9241 12.9197 32.9241 12.9445 33.1414 13.1116C33.6259 13.3957 33.9919 13.6798 34.2425 13.9639C34.443 14.4318 34.6277 14.858 34.7948 15.2423C34.494 15.0251 33.986 14.773 33.2675 14.4889C33.0001 14.4388 33.0001 14.4708 33.2675 14.5877C34.1698 14.9554 34.7275 15.3175 34.9448 15.6684L35.4459 16.9945C35.2621 16.9946 35.0205 16.721 34.7198 16.1695C34.4691 15.7017 33.8439 15.2506 32.8414 14.8161C32.6409 14.7326 32.5485 14.5551 32.5653 14.2877C32.5987 14.104 32.7905 14.0293 33.1414 14.0627C33.0411 13.7787 32.9239 13.5515 32.7903 13.3843L32.5891 13.0843C32.3217 12.5329 32.4815 12.2594 33.0664 12.2593C32.8491 11.9252 32.7745 11.6659 32.8414 11.4821C32.8247 11.1646 32.8993 10.8556 33.0664 10.5548C33.1666 10.3543 33.2412 10.1519 33.2914 9.95138C33.6088 10.1352 33.8983 10.2897 34.1573 10.415C34.4163 10.5404 34.5531 10.7695 34.5698 11.1036L34.4437 11.8809C34.4938 12.0313 34.6287 11.9816 34.8459 11.7309C35.0631 11.4302 35.2372 11.2561 35.3709 11.2059C35.5547 11.2895 35.7322 11.4387 35.8993 11.6559C36.0664 11.9734 36.0061 12.5594 35.7221 13.4116L35.4459 14.1139C36.014 13.362 36.4757 13.0032 36.8266 13.0366C36.9435 13.1202 36.9809 13.289 36.9391 13.548C36.8973 13.807 36.8973 14.0787 36.9391 14.3627C36.9809 14.6468 36.8832 14.8884 36.6493 15.0889C36.4154 15.2894 36.259 15.6161 36.1755 16.0673C36.7102 15.6663 36.9268 15.7409 36.8266 16.2923L36.5266 17.3695C36.443 17.8876 36.5248 18.1325 36.7755 18.0991C37.0261 18.0657 37.1806 18.0977 37.2391 18.198C37.2976 18.2982 37.31 18.4723 37.2766 18.723C37.1262 19.0739 37.0587 19.3064 37.0755 19.415C37.0922 19.5236 37.14 19.616 37.2153 19.6911C37.2904 19.7664 37.4521 19.7486 37.7028 19.64C37.9534 19.5314 38.0777 19.606 38.0778 19.865C38.0777 20.124 38.083 20.3761 38.0914 20.6184C38.0997 20.8607 38.1796 21.097 38.33 21.3309C38.4469 21.498 38.5962 21.6081 38.78 21.6582L39.005 21.382C38.6708 21.3988 38.5163 21.1821 38.5414 20.7309C38.5664 20.2798 38.5643 19.9282 38.5312 19.6775C38.3974 19.36 38.2625 19.1825 38.1289 19.1491C37.9952 19.1157 37.6862 18.281 37.2016 16.6434L37.7266 16.6707C38.1109 18.0743 38.4199 18.8291 38.6539 18.9377C38.8878 19.0464 38.9978 19.1707 38.9812 19.3127C38.9644 19.4548 39.007 19.7619 39.1073 20.2298C39.408 20.1462 39.5821 19.8693 39.6323 19.4014C39.7158 18.9669 39.5914 18.6331 39.2573 18.3991C38.9064 18.1986 38.704 18.0139 38.6539 17.8468C38.5536 17.5628 38.6636 17.3887 38.9812 17.3218C39.1649 17.2216 38.721 16.8202 37.6516 16.1184C37.1002 15.7341 36.9332 15.3897 37.1505 15.0889C37.234 14.9385 37.3885 14.9438 37.6141 15.1025C37.8397 15.2613 37.987 15.2986 38.0539 15.215C38.1708 14.9811 38.0785 14.8194 37.7778 14.7275C37.4769 14.6356 37.3349 14.5309 37.3516 14.4139C37.3349 13.8959 37.3454 13.5443 37.3789 13.3605C37.4123 13.1767 37.3946 12.96 37.3278 12.7093C37.1439 12.442 36.7923 12.4597 36.2744 12.7605C36.3913 12.4764 36.4214 12.1994 36.363 11.9321C36.3045 11.6647 36.1748 11.4055 35.9744 11.1548L35.7221 10.3775C35.6552 10.1102 35.8078 9.92553 36.1755 9.82525C36.0585 9.30729 36.0585 8.94137 36.1755 8.72411C36.2924 8.49021 36.3742 8.29841 36.4244 8.14798C36.4494 8.0728 36.4992 8.03019 36.5744 8.02184H36.5743ZM31.1096 8.70025C31.1764 8.85068 31.3592 9.08166 31.6516 9.39911C31.944 9.71663 32.3224 9.96875 32.7903 10.1525L32.163 10.6775C32.0627 10.7277 31.9704 10.7134 31.8869 10.6298C31.5861 10.3123 31.2273 10.0033 30.8096 9.70252C30.726 9.66913 30.7117 9.60168 30.7619 9.50138L31.1096 8.70025ZM18.9289 9.42298L18.5198 17.2707L10.8903 15.2457C11.3763 14.1342 12.662 12.2938 13.7949 11.4684C14.9278 10.6431 17.2425 9.52883 18.9289 9.42298ZM23.4903 9.45025C25.5583 9.52554 27.2057 10.4392 28.4096 11.3593C29.7565 12.4863 30.8923 13.8364 31.5289 15.2355L23.9028 17.257L23.4903 9.45025ZM21.2096 10.9809L23.4903 17.823H30.9357L24.8198 22.2343L27.1005 29.3252L21.2096 24.8661L15.3221 29.3252L17.6028 22.2343L11.4869 17.823H18.9289L21.2096 10.9809ZM4.84261 14.3389L5.04375 14.5877L4.36875 16.3945C4.48571 15.6426 4.64209 14.9572 4.84261 14.3389ZM6.32215 14.8639C5.97124 15.5156 5.70482 16.1016 5.52102 16.6195L5.31988 16.5957L5.84488 14.9661L6.32215 14.8639ZM5.19375 17.598L4.69261 18.9514L4.34148 20.1275L4.46761 19.1252L4.64148 18.3991L4.79488 17.673L5.19375 17.598ZM35.8243 18.0718C35.8911 18.3893 36.0227 18.6912 36.2232 18.9752C36.1396 18.9752 36.0454 18.9557 35.9369 18.9139C35.8282 18.8721 35.7555 18.8047 35.7221 18.7127C35.6886 18.6208 35.7241 18.406 35.8243 18.0718ZM3.84034 18.2491C3.67324 19.5859 3.53117 20.6301 3.41421 21.382L3.31534 21.1809C3.21508 21.0305 3.38917 20.0537 3.84034 18.2491ZM6.17215 18.348L6.62215 18.5491C6.7224 18.5992 6.74727 18.6844 6.69715 18.8014C6.59688 19.2525 6.53999 19.7179 6.52329 20.2025C6.52328 20.3028 6.47354 20.3631 6.37329 20.3798L5.19375 20.5536C5.06006 20.5871 4.9926 20.6723 4.99261 20.8059C4.95918 21.3908 4.95918 21.9734 4.99261 22.5582C4.9926 22.7253 5.07062 22.8176 5.22102 22.8343L6.37329 23.0116C6.47354 23.0283 6.52328 23.0852 6.52329 23.1854C6.5567 23.6868 6.61359 24.1555 6.69715 24.59C6.71385 24.707 6.67467 24.7887 6.57442 24.8389L5.49375 25.3673C5.34335 25.4174 5.29361 25.5346 5.34375 25.7184C5.46071 26.2531 5.62049 26.7468 5.82102 27.1979L5.79715 27.2968C5.64676 27.0629 5.50469 26.7237 5.37102 26.2809C5.23733 25.8381 5.19475 25.5415 5.24488 25.3911C5.37855 25.1572 5.33596 24.9405 5.11875 24.74C4.95164 24.5729 4.73496 23.82 4.46761 22.4832C4.48431 22.1323 4.62639 21.6066 4.89375 20.9048C5.16109 20.203 5.58731 19.3506 6.17215 18.348ZM38.705 18.3752L39.1073 18.7741C38.8399 18.6906 38.705 18.5591 38.705 18.3752ZM35.8516 19.2514L36.3459 19.34C36.5962 19.7578 36.8074 20.0955 37.1028 20.5298L36.1243 20.3798C36.0354 20.3661 35.9913 20.2789 35.9743 20.1786C35.9376 19.9612 35.8739 19.3451 35.8516 19.2514ZM32.8312 19.6741C32.9221 20.2277 32.954 20.6634 32.9403 21.1809C32.9234 21.8166 32.8701 22.443 32.78 23.0695C32.5345 22.9487 32.3072 22.916 32.1153 23.1343C32.0446 23.2147 31.9963 23.3432 32.013 23.5604L32.0641 23.7889C32.1142 23.956 32.1711 24.098 32.238 24.215C32.2904 24.3058 32.3414 24.3972 32.388 24.4911C32.0795 25.4018 31.7525 26.2451 31.4369 26.8195C30.9416 27.7208 30.4773 28.3594 29.7835 29.1002L25.471 22.4832L32.8312 19.6741ZM9.60851 19.6843L16.9483 22.4832L12.6392 29.1002C11.5944 28.1486 10.8483 26.9112 10.379 25.6946C10.5527 24.9621 10.6655 24.5377 10.7574 23.39C10.7791 23.1189 10.7191 22.8633 10.6551 22.7457C10.5589 22.5688 10.4219 22.5694 10.3551 22.6196C10.4294 22.5068 10.472 22.4054 10.5324 22.2582C10.6207 22.0429 10.6159 21.8989 10.5324 21.8321C10.3798 21.7298 10.1079 21.7606 9.6426 22.0127C9.57432 21.6506 9.53156 21.3438 9.4176 20.9934C9.43759 20.5113 9.49093 20.1034 9.60851 19.6843ZM9.1551 21.0071C9.33889 21.4917 9.48812 22.3886 9.6051 23.7002C9.72205 25.012 9.72205 26.193 9.6051 27.2457C9.49445 28.5996 9.13898 29.5043 8.60283 30.6548C8.60282 29.6188 8.61525 28.7769 8.64033 28.1252C8.66538 27.4736 8.69025 26.6087 8.71533 25.5309C8.74038 24.4532 8.81312 23.2295 8.9301 21.8593C8.99693 21.5252 8.97921 21.4471 8.87896 21.6309C8.6116 23.018 8.45181 24.7973 8.40169 26.9696L8.37783 28.398L8.32669 30.3548L8.00283 29.9798C7.76888 28.8101 7.66599 27.5812 7.69942 26.2946C7.74954 25.3421 7.90217 24.3156 8.15283 23.2127C8.50372 21.8259 8.8376 21.0906 9.1551 21.0071V21.0071ZM41.2823 21.2662C41.429 21.2547 41.5637 21.2944 41.688 21.3821C41.8383 21.6327 41.9058 21.8796 41.8891 22.1218C41.8724 22.3641 41.7872 22.6359 41.6368 22.9366C41.9543 22.9366 42.1212 23.061 42.138 23.3116C42.0042 23.8798 41.7378 24.2882 41.3368 24.5389C41.7044 24.6057 41.9015 24.7229 41.9266 24.89C41.9516 25.0571 41.9143 25.1939 41.8141 25.3025C41.7138 25.4111 41.522 25.5088 41.238 25.5923L40.9618 25.0911C40.9785 24.6901 40.8436 24.3065 40.5596 23.9389C40.6765 23.8386 40.8611 23.7391 41.1118 23.6389C41.2956 23.5553 41.2636 23.5271 41.013 23.5605C40.7456 23.6106 40.536 23.6781 40.3857 23.7616H40.3346C40.4849 23.2269 40.7265 22.7189 41.0607 22.2343C41.1442 22.0171 41.0945 22.0243 40.9107 22.2582C40.6266 22.6593 40.3779 23.0855 40.1607 23.5366C40.0604 23.4364 39.9824 23.2517 39.9323 22.9843C39.8654 22.6669 39.8157 22.6597 39.7823 22.9605C39.8324 23.3448 39.907 23.6218 40.0073 23.7889C39.6396 24.357 39.3483 24.5809 39.1312 24.4639C39.2648 23.6618 39.4423 22.82 39.6596 21.9343C40.0438 21.55 40.3777 21.4223 40.6618 21.5559C40.8874 21.3774 41.0937 21.2808 41.2823 21.2662ZM33.8709 21.5389C33.8864 21.5372 33.9032 21.5375 33.9187 21.5389C33.9599 21.5426 34.003 21.5581 34.0448 21.5832C34.2119 21.6835 34.3185 21.7901 34.3687 21.9071C34.4188 22.024 34.4934 22.0045 34.5937 21.8457C34.6939 21.687 34.7791 21.632 34.8459 21.6821C34.9127 21.7322 34.9821 21.8317 35.0573 21.9821C35.1325 22.1325 35.1875 22.2922 35.2209 22.4593C35.2544 22.6264 35.2845 22.9302 35.3096 23.373C35.3346 23.8158 35.2796 24.1124 35.1459 24.2627C35.0122 24.4132 34.9381 24.5979 34.9448 24.815C34.9715 25.6842 35.0456 26.1154 35.1459 26.107C35.2462 26.0988 35.3686 26.0313 35.5107 25.9059C35.6527 25.7806 35.7771 25.7327 35.8857 25.7661C35.9943 25.7996 36.0565 26.0445 36.0732 26.4957C36.0899 26.9469 36.1325 26.9913 36.1993 26.632C36.2661 26.2728 36.3905 26.0934 36.5743 26.0934C36.7581 26.0934 36.7935 26.5765 36.6766 27.5457C36.0249 28.1305 35.5561 28.6171 35.2721 29.0014C35.1718 28.5836 35.1665 28.2923 35.2584 28.1252C35.3503 27.9582 35.4355 27.7682 35.5107 27.5593C35.5859 27.3505 35.648 27.1639 35.6982 26.9968C35.8319 26.5958 35.807 26.5604 35.6232 26.8946C35.5229 27.0951 35.4359 27.2726 35.3607 27.423C35.2855 27.5734 35.195 27.7226 35.0948 27.873C35.0613 27.6056 34.9547 27.1297 34.7709 26.4446C34.6205 25.9767 34.5779 25.9839 34.6448 26.4684C34.7784 27.2538 34.8708 28.0139 34.9209 28.7491C34.6368 28.4483 34.3474 28.1891 34.055 27.9718C33.7626 27.7546 33.5086 27.5236 33.2914 27.273C33.1076 27.156 33.0755 27.1703 33.1925 27.3207C33.393 27.5881 33.6896 27.9024 34.0823 28.2616C34.4749 28.6209 34.7112 28.8606 34.7948 28.9775C34.8783 29.0945 34.9281 29.194 34.9448 29.2775C34.7944 29.478 34.6203 29.6876 34.4198 29.9048C34.3028 29.838 34.2353 29.7226 34.2187 29.5639C34.2019 29.4051 34.1469 29.2879 34.055 29.2127C33.9631 29.1375 33.6842 28.9084 33.2164 28.5241C32.7986 28.1565 32.6637 27.8226 32.8141 27.5218C32.6971 27.3715 32.5924 27.1974 32.5005 26.9968C32.4086 26.7963 32.4316 26.5992 32.5653 26.4071C32.6989 26.2149 33.0079 26.302 33.4925 26.6696C33.576 26.3855 33.576 26.1191 33.4925 25.8684C33.409 25.6178 33.3095 25.3657 33.1925 25.115C32.9753 24.714 32.7657 24.373 32.5653 24.0889C32.3814 23.7046 32.3388 23.4879 32.4391 23.4377C32.5394 23.3876 32.6991 23.4551 32.9164 23.6389C33.3341 23.1877 33.6077 23.0581 33.7414 23.2502C33.875 23.4424 33.9851 23.7639 34.0687 24.215C34.1522 24.6662 34.1593 25.1316 34.0925 25.6161L33.9937 25.7184L34.0925 25.8173C34.1259 25.9176 34.0867 26.294 33.9698 26.9457C33.9698 27.0794 34.0089 27.2143 34.0925 27.348C34.0591 27.1475 34.0519 26.9948 34.0687 26.8946C34.0853 26.811 34.1404 26.6173 34.2323 26.3082C34.3242 25.9991 34.3686 25.8216 34.3687 25.7798C34.3686 25.738 34.3012 25.7079 34.1675 25.6911C34.3179 25.641 34.4155 25.5717 34.4573 25.4798C34.499 25.3879 34.5062 25.2956 34.4812 25.2036C34.4561 25.1118 34.4418 24.8472 34.4334 24.4127C34.4251 23.9783 34.3825 23.6497 34.3073 23.4241C34.2321 23.1985 34.1842 23.0245 34.1675 22.8991C34.1508 22.7738 34.0513 22.7011 33.8675 22.6843C33.6837 22.6677 33.4244 22.8523 33.0903 23.2366C33.2406 22.5181 33.3951 22.0369 33.5539 21.7946C33.6581 21.6356 33.7631 21.5503 33.8709 21.5389ZM1.25626 21.9275C1.27401 21.9275 1.292 21.9301 1.3108 21.9343C1.41106 21.9343 1.64017 22.1705 1.99944 22.6467C2.35869 23.123 2.84708 24.1921 3.46534 25.8547C4.08359 27.5173 4.46194 28.6094 4.60398 29.1274C4.746 29.6454 4.88807 30.0965 5.03011 30.4808C5.17213 30.8652 5.34436 31.2559 5.54488 31.657C5.84565 32.2585 6.14751 32.6704 6.44829 32.8876C6.84931 33.1717 7.14061 33.2215 7.32442 33.0376L6.64943 31.657C6.53245 31.4063 6.35494 31.314 6.12102 31.3808C5.73669 31.3975 5.58031 31.1737 5.64715 30.7058C5.68056 30.4051 5.7872 29.8865 5.97102 29.1513C6.33862 27.9148 6.86432 26.6859 7.54942 25.4661C7.46586 26.0008 7.42668 26.4519 7.42669 26.8195C6.80843 28.2064 6.35734 29.3252 6.07329 30.1774C5.92289 30.7957 5.93005 31.0975 6.09715 31.0808L6.29829 30.982L6.14829 30.6308L6.24715 30.3547L6.54715 30.8797L6.72442 30.757L6.87442 30.982L6.72442 31.207L7.85283 32.8365L8.12556 32.6115L8.32669 32.8365C7.99249 33.1707 7.86098 33.3874 7.92783 33.4876C8.22859 34.0391 8.50217 34.483 8.75283 34.8172C9.25411 35.5524 9.6626 35.7585 9.9801 35.441C10.0803 35.3575 10.2081 35.3752 10.3585 35.4922C10.5089 35.6091 10.6758 35.8613 10.8596 36.2456L10.8324 35.6694L9.9051 34.7899L9.3801 33.7365C8.94564 33.1182 8.63662 32.6423 8.45283 32.3081C8.26901 31.9739 8.03989 31.576 7.76419 31.1081C7.48847 30.6402 7.14931 30.1111 6.74829 29.5263L6.82329 29.2501L7.62442 30.2285C8.34293 31.1476 8.84903 31.8455 9.14146 32.3217C9.43387 32.798 9.60609 32.9099 9.65624 32.6592L9.80623 32.1854L10.0312 32.3081L9.88123 33.2865L9.8301 33.5865C9.81338 33.8204 9.86125 33.9606 9.96987 34.0024C10.0785 34.0442 10.1727 34.1987 10.2562 34.466C10.3063 34.6331 10.5709 34.9795 11.0471 35.5058C11.5234 36.0322 12.0242 36.4727 12.5505 36.8319C13.0769 37.1912 13.5103 37.4859 13.8528 37.7115C14.1953 37.9371 14.3604 38.159 14.3437 38.3763L14.8176 38.4751L14.6949 37.8751L14.9949 37.8001C15.1452 37.9004 15.2696 38.0816 15.3699 38.349C15.8043 38.6832 16.1808 38.953 16.4983 39.1535L15.3971 39.3513L13.5153 38.2263L11.7869 37.0706L11.4596 36.6444C11.3594 36.5275 11.2226 36.5026 11.0471 36.5694C10.8717 36.6363 10.7349 36.5368 10.6346 36.2694C10.1835 36.5368 9.72182 36.4373 9.25396 35.9694L8.42897 34.9672L7.65169 33.6376L7.37556 33.4365C6.95781 33.7039 6.42155 33.5226 5.76988 32.8876C5.53594 32.6704 5.03511 31.8074 4.26648 30.3035C3.24718 28.3652 2.55454 26.9054 2.18694 25.9195C1.91958 25.1007 1.74548 24.5822 1.66194 24.3649C1.57839 24.1477 1.54295 24.1424 1.55967 24.3513C1.57637 24.5602 1.70072 25.029 1.93466 25.7558C2.16859 26.4827 2.60537 27.5466 3.24034 28.9501C3.79175 30.0864 4.33517 31.1235 4.86988 32.0592C3.63336 30.7225 2.73835 29.4687 2.18694 28.299C1.63551 27.1461 1.2662 26.077 1.08239 25.0911C0.998841 24.7402 0.9491 24.2021 0.932394 23.4752C0.91568 22.7483 0.926242 22.3417 0.959667 22.2581C1.03277 22.0388 1.13198 21.9293 1.25626 21.9274V21.9275ZM10.2051 22.0229C10.3568 22.012 10.3732 22.1139 10.2562 22.3332L9.78237 23.0354C9.74894 22.7514 9.73022 22.503 9.6801 22.3025C9.84718 22.1855 9.98311 22.1 10.1335 22.0332C10.1607 22.0269 10.1834 22.0244 10.2051 22.0229V22.0229ZM37.5766 22.0332L38.0539 22.8105C37.9703 23.6794 37.8211 24.4715 37.6039 25.19C37.3866 25.0229 37.1025 25.0335 36.7516 25.2173L35.9743 24.8389C35.8741 24.7887 35.8271 24.7063 35.8482 24.59C35.9273 24.1547 35.9873 23.7601 36.0153 23.257C36.0209 23.1556 36.0754 23.0297 36.1755 23.0116L37.2766 22.8139C37.427 22.7805 37.5087 22.681 37.5255 22.5139L37.5766 22.0332ZM39.005 22.3843C38.771 23.6543 38.5472 24.7234 38.33 25.5923L37.9789 25.3911C38.2796 24.1881 38.4643 23.2041 38.5312 22.4355C38.6314 22.4021 38.7878 22.3844 39.005 22.3843ZM10.3756 22.8616C10.4868 22.8544 10.5315 23.0305 10.5085 23.3866C10.4584 24.1386 10.2447 25.5313 9.95282 26.373C9.9361 25.4539 9.91675 24.9292 9.88123 24.3377L10.1062 23.7139C10.1229 23.4967 10.0803 23.4861 9.9801 23.6866L9.85055 23.9184L9.80623 23.4616L10.1812 22.9843C10.2596 22.906 10.325 22.8649 10.3756 22.8616ZM7.82556 23.5877C7.66168 24.2841 7.5894 24.8623 7.54942 25.115C6.81419 26.385 6.2459 27.6493 5.84488 28.9025C5.74462 29.2868 5.66285 29.7451 5.59602 30.2798C5.54588 29.5947 5.6578 28.6375 5.93352 27.4093C6.20922 26.1812 6.83968 24.9078 7.82556 23.5877ZM40.1368 24.348C40.2809 24.3417 40.3968 24.5899 40.4846 25.0911C40.4344 25.9768 40.6511 26.3958 41.1357 26.3457C41.2192 26.3958 41.2316 26.6268 41.1732 27.0446C41.1147 27.4623 40.9779 27.8245 40.7607 28.1252C40.0756 28.9106 39.7914 29.376 39.9084 29.5264C40.0922 29.8439 40.0602 30.2026 39.8096 30.6036C39.4419 31.0548 38.9554 31.559 38.3539 32.1105C38.5209 32.4446 38.3966 32.7288 37.9789 32.9627C37.4943 33.2301 36.958 33.4611 36.3732 33.6616C37.4593 32.8428 38.1305 31.9655 38.3812 31.0298C38.732 30.7123 39.041 30.5062 39.3084 30.4059C39.5423 30.2555 39.5815 30.1881 39.4312 30.2048C39.1303 30.3218 38.8142 30.5064 38.48 30.757C38.7975 30.1221 39.0247 29.4366 39.1584 28.7014C39.8101 28.0664 40.2186 27.5656 40.3857 27.198C40.6196 26.8471 40.6267 26.7691 40.4096 26.9696C40.1589 27.3873 39.7752 27.8312 39.2573 28.2991C39.4912 27.5806 39.7007 26.7779 39.8846 25.8923C39.9681 25.3743 39.9432 25.282 39.8096 25.6161L39.5573 26.4957C39.4403 26.1448 39.3088 25.875 39.1584 25.6911L39.4823 26.7446C39.4154 27.1623 39.2556 27.7555 39.005 28.5241C38.771 27.8557 38.462 27.2554 38.0778 26.7207C37.7268 26.2863 37.6699 26.2791 37.9039 26.6968C38.2882 27.2483 38.6043 27.9729 38.855 28.8752C38.6545 29.6773 38.4201 30.3451 38.1528 30.8798C37.9522 30.579 37.7461 30.3729 37.5289 30.2559C37.3618 30.1724 37.3618 30.2221 37.5289 30.4059C37.7461 30.6231 37.9202 30.8398 38.0539 31.057C37.8533 31.5416 37.5888 31.9678 37.263 32.3355C36.9371 32.7031 36.6157 33.0121 36.2982 33.2627C36.6992 32.6445 36.8341 31.959 36.7005 31.207C36.7004 31.0734 36.8052 30.9633 37.0141 30.8798C37.2229 30.7962 37.2923 30.7039 37.2255 30.6036C37.0416 30.236 36.9527 29.9447 36.9528 29.7275C37.0864 29.6607 37.2854 29.6607 37.5528 29.7275C37.7699 29.5771 37.7504 29.3657 37.4914 29.09C37.2324 28.8143 37.0673 28.4148 37.0005 27.8968C37.0004 27.5961 37.2028 27.4894 37.6039 27.573C37.7877 27.5563 37.802 27.3396 37.6516 26.9218L37.2255 26.3457C36.9247 25.6773 37.0524 25.4324 37.6039 25.6161L38.255 26.0184C38.6894 26.1855 38.899 25.8942 38.8823 25.1423C38.8823 24.9752 39.0119 24.9379 39.2709 25.0298C39.5299 25.1217 39.7662 24.9246 39.9834 24.44C40.0377 24.3815 40.0888 24.35 40.1368 24.348ZM6.57442 25.0604C6.23822 25.6621 6.03193 26.1092 5.85852 26.7343C5.72879 26.4011 5.61953 26.0266 5.57215 25.732C5.55544 25.6485 5.5678 25.5528 5.64715 25.5173L6.57442 25.0604ZM21.2096 25.5957L26.1732 31.732C24.848 32.4859 22.823 32.8678 21.2573 32.84C19.6917 32.8122 17.7457 32.4695 16.2221 31.732L21.2096 25.5957ZM33.2056 26.1559C32.9764 26.0837 32.7694 26.0346 32.5869 26.0975C32.4373 26.149 32.2773 26.2994 32.238 26.3934C32.1823 26.5264 32.1458 26.6763 32.163 26.8195C32.1865 27.0151 32.2511 27.2475 32.3364 27.3728C32.3596 27.407 32.4391 27.5457 32.4391 27.5457C32.3776 27.838 32.4778 28.1347 32.6641 28.3502C32.9732 28.7078 33.3769 29.0301 33.7039 29.2945C33.6323 29.581 33.58 30.0476 33.5675 30.3036C33.555 30.5596 33.5924 30.7383 33.6187 30.9547C33.4735 31.2035 33.3667 31.3775 33.1925 31.6093L32.7016 31.5616C32.7016 31.5616 32.4516 31.3631 32.3198 31.3059C32.1708 31.2411 31.9757 31.23 31.8153 31.3638C31.4465 31.6713 31.0373 31.9943 30.7107 32.2604C30.5531 32.3698 30.4213 32.5243 30.496 32.7036C30.6199 33.0012 30.8473 33.4593 30.9766 33.7536C31.0119 33.8338 31.0479 33.9449 30.9255 34.0229C30.4721 34.312 30.1076 34.5743 29.6744 34.807C29.5486 34.8746 29.499 34.8654 29.3607 34.715C29.1487 34.4842 28.9744 34.2593 28.7573 34.0331C28.5224 33.7884 28.3352 33.8866 28.1403 33.9956C27.7416 34.2188 27.2812 34.4313 26.8755 34.64C26.6917 34.7068 26.6374 34.9154 26.6505 34.9979C26.7077 35.3588 26.7328 35.5797 26.7766 35.9422C26.8059 36.184 26.7224 36.2359 26.6198 36.2763C26.1394 36.4657 25.8612 36.5685 25.3448 36.6956C25.1904 36.7337 25.0975 36.7081 25.0448 36.5968C24.8701 36.2272 24.7103 35.879 24.5437 35.5195C24.457 35.3326 24.3369 35.3136 24.1551 35.3456C23.6537 35.4626 23.18 35.4676 22.7642 35.5195C22.5578 35.5453 22.3588 35.6098 22.3142 35.9422C22.2896 36.2406 22.2349 36.5388 22.188 36.8218C22.1416 37.1021 22.0714 37.0693 21.8403 37.0877C21.3821 37.1241 21.0056 37.1147 20.5926 37.0877C20.3392 37.0711 20.3263 37.0509 20.2823 36.7945C20.2223 36.4445 20.1983 36.2125 20.1528 35.8604C20.1072 35.6319 19.8997 35.5359 19.6551 35.5229C19.2876 35.5033 18.7508 35.427 18.1755 35.3286C18.058 35.3085 17.9003 35.4357 17.8755 35.5195C17.7078 35.8783 17.561 36.2474 17.3744 36.5968C17.324 36.6912 17.2042 36.7318 17.0744 36.6956C16.6223 36.5698 16.1996 36.4351 15.7653 36.2729C15.6474 36.2289 15.6398 36.1603 15.646 36.0956C15.686 35.6754 15.7504 35.2632 15.796 34.865C15.796 34.7647 15.7391 34.6901 15.6221 34.64C15.6221 34.64 14.9359 34.3404 14.8142 34.2684C14.6925 34.1964 14.3403 33.9931 14.0915 33.8627C13.932 33.7792 13.8134 33.9178 13.7403 33.9888L13.5426 34.2138L13.1403 34.64L13.0653 34.715C12.9985 34.7818 12.899 34.7924 12.7653 34.7422L12.588 34.64L11.8619 34.2138L11.538 33.982C11.3776 33.8676 11.4584 33.7987 11.5312 33.6616C11.6925 33.3578 11.9199 33.0016 12.0119 32.6866C12.01 32.5215 11.9931 32.4915 11.8858 32.3661C11.8092 32.2766 11.5782 32.1099 11.4869 32.0354C11.3116 31.8924 11.1978 31.8055 11.0301 31.6536C10.9509 31.5819 10.8208 31.4425 10.7335 31.3809C10.6065 31.2912 10.5377 31.2302 10.3824 31.2241C10.1945 31.2165 10.0291 31.3007 9.86419 31.3911C9.75317 31.4519 9.47896 31.6093 9.47896 31.6093H9.1551L9.01192 31.3707L8.77328 31.0195C9.16125 30.3719 9.48541 29.424 9.65624 28.7763C9.81855 28.1609 9.88479 27.6226 9.97328 26.8911C10.1146 26.5561 10.1912 26.3631 10.3006 26.0661C10.8093 27.3712 11.7393 28.5769 12.6665 29.3763L16.771 23.0525L14.2687 30.8559L20.4596 26.1684L15.8505 31.8036C17.5789 32.7371 19.4152 33.0859 21.2573 33.0888C23.0995 33.0918 24.9351 32.7662 26.5107 31.7934L21.963 26.1684L28.1539 30.8559L25.6619 23.0832L29.7664 29.3797C30.3043 28.8699 31.1231 27.8488 31.6107 26.9005C32.0984 25.9523 32.2475 25.5141 32.5042 24.7085C32.6173 24.823 32.7293 25.0037 32.8013 25.1465C32.9076 25.357 32.9748 25.525 33.0664 25.7423C33.1403 25.9175 33.2077 26.0486 33.2056 26.1559ZM7.42669 27.7979C7.40998 28.3494 7.45972 28.9177 7.5767 29.5025L7.02442 28.8002L7.42669 27.7979ZM36.5743 28.0502L36.5505 28.6741C35.5479 29.9106 34.9193 30.7559 34.6687 31.207C33.8164 32.4937 33.241 33.513 32.9403 34.265C32.7564 34.6827 32.49 35.0166 32.1391 35.2672C31.8717 35.4009 31.6694 35.543 31.5357 35.6934C31.4187 35.9106 31.4862 35.9675 31.7369 35.8672C31.9039 35.7001 32.0886 35.5758 32.2891 35.4922C32.6567 35.3084 33.4417 34.4417 34.6448 32.8877L34.6209 32.0081L34.8971 31.5309C34.8803 32.0155 34.9195 32.2853 35.0198 32.3354C35.12 32.3856 35.2602 32.2454 35.4357 31.9195C35.6111 31.5937 36.0392 30.6968 36.7243 29.2263C36.5739 29.6775 36.5668 30.0717 36.7005 30.4059C36.2994 30.69 36.1894 31.1731 36.3732 31.8581L35.5482 32.6116C35.214 32.9792 35.1039 33.3628 35.2209 33.7638C34.753 34.0145 34.302 34.3804 33.8675 34.865C33.433 35.3495 33.1044 35.7615 32.8789 36.0956C32.6533 36.4298 32.4136 36.6288 32.163 36.6956C31.8789 36.8293 31.5556 36.7619 31.188 36.4945L31.0857 37.1218L29.405 38.1479L29.0062 37.3979C30.1591 36.7964 30.8269 36.2458 31.0107 35.7445C31.2446 35.3268 31.4967 34.9805 31.7641 34.7047C32.0315 34.429 32.2233 34.0899 32.3403 33.6888L32.3641 33.0854L32.2891 32.4616C32.5564 32.7623 32.798 32.8264 33.0153 32.6593C33.3661 32.0076 33.7426 31.402 34.1437 30.8422C34.5447 30.2825 34.9709 29.7621 35.4221 29.2775C35.8732 28.7929 36.2568 28.3844 36.5743 28.0502ZM33.9425 29.5775C33.9592 29.8281 34.0089 30.0022 34.0925 30.1025L33.8437 30.5286L33.9425 29.5775ZM7.32442 31.057L8.02669 32.2331L7.95169 32.3831L7.17442 31.207L7.32442 31.057ZM10.3994 31.4661C10.464 31.4675 10.5159 31.5191 10.5596 31.5581C10.8676 31.9011 11.2359 32.2014 11.6369 32.4854C11.7204 32.5356 11.7453 32.6102 11.7119 32.7104L11.1835 33.7638C11.1501 33.8975 11.1855 34.0042 11.2858 34.0877C11.7536 34.4386 12.2545 34.7476 12.7892 35.015C12.9061 35.0985 13.0162 35.0985 13.1165 35.015L13.8903 34.1388C13.9571 34.0553 14.0352 34.0481 14.1187 34.115C14.5532 34.3656 14.9794 34.5751 15.3971 34.7422C15.4974 34.7924 15.5365 34.8741 15.5199 34.9911L15.3699 36.1945C15.3531 36.3449 15.4277 36.4444 15.5949 36.4945C16.0961 36.7117 16.6324 36.8787 17.2005 36.9956C17.3676 37.0124 17.4848 36.9732 17.5517 36.8729L18.0767 35.7172C18.1268 35.617 18.2059 35.6097 18.3289 35.6422C18.7757 35.7605 19.2489 35.8028 19.7335 35.8195C19.8337 35.8195 19.8906 35.8693 19.9073 35.9695L20.0812 37.1456C20.1146 37.2793 20.1998 37.3468 20.3335 37.3468C20.9183 37.3802 21.5043 37.3802 22.0892 37.3468C22.2562 37.3468 22.3486 37.2722 22.3653 37.1218L22.5392 35.9695C22.5558 35.8693 22.6127 35.8195 22.713 35.8195C23.2143 35.7861 23.6831 35.7258 24.1176 35.6422C24.2345 35.6255 24.3197 35.6681 24.3698 35.7684L24.8948 36.8456C24.9616 36.996 25.0788 37.0458 25.246 36.9956C25.7974 36.8787 26.332 36.6778 26.8755 36.4468C27.0023 36.3929 27.0688 36.3207 27.0494 36.1706L26.8994 35.015C26.9161 34.898 26.9764 34.8162 27.0766 34.7661C27.4442 34.6157 27.8608 34.4077 28.3278 34.1388C28.4122 34.0902 28.4935 34.0919 28.5562 34.1627L29.3573 35.0661C29.4575 35.1497 29.557 35.1602 29.6573 35.0934C30.1753 34.7759 30.669 34.4492 31.1369 34.115C31.2705 34.0314 31.3025 33.9214 31.2357 33.7877L30.7619 32.7104C30.7167 32.6078 30.7713 32.5049 30.8437 32.4513C31.2553 32.1464 31.5584 31.8801 31.8869 31.582C31.9704 31.4985 32.0646 31.4589 32.1732 31.4866C32.2281 31.5005 32.3083 31.5591 32.3744 31.6093C32.2191 31.6334 31.9174 31.7748 31.9141 32.1104L32.013 33.0377C32.0798 33.422 31.8756 33.8501 31.3994 34.3263C30.9231 34.8026 30.6088 35.2412 30.4585 35.6422C30.3749 35.943 30.0516 36.2697 29.4835 36.6206C29.45 36.5204 29.3151 36.3606 29.0812 36.1434C29.0477 36.0765 28.9803 36.0517 28.88 36.0684C28.3119 36.2188 27.1682 36.7196 25.4471 37.5718C25.1463 37.7222 24.7201 38.1661 24.1687 38.9013H23.1903C22.9229 38.7509 22.6388 38.5414 22.338 38.274C22.1208 38.107 21.7371 38.1672 21.1858 38.4513C20.6677 38.3344 20.1492 38.4409 19.6312 38.7752C19.3137 38.8921 19.0793 38.917 18.9289 38.8502L17.7017 37.524C15.1618 36.4546 13.7765 35.9787 13.5426 36.0956C13.2919 36.246 13.1073 36.4627 12.9903 36.7468C12.7397 36.6298 12.3632 36.3102 11.8619 35.7922L11.0846 34.9161C10.5165 34.2811 10.2821 33.6808 10.3824 33.1127L10.5085 32.3354C10.5252 32.2185 10.5075 32.1261 10.4574 32.0593C10.2735 31.8588 10.0995 31.7416 9.93237 31.7081L10.3312 31.4831C10.3561 31.4699 10.3779 31.4656 10.3994 31.4661ZM32.6096 31.8718C32.6403 31.8707 32.6756 31.8753 32.7119 31.8854C32.8305 31.9185 32.8796 31.9171 32.9982 31.9502C32.9273 32.0684 32.8826 32.158 32.8312 32.2331C32.7235 32.3905 32.652 32.4108 32.4766 32.2604C32.3231 32.1288 32.3948 31.8782 32.6096 31.8718ZM34.3209 32.3354V32.7616L33.7175 33.4638L34.3209 32.3354ZM36.0732 32.6866L35.9982 33.1366C35.7809 33.3538 35.6815 33.3361 35.6982 33.0854L36.0732 32.6866ZM8.62669 33.2116L9.28124 34.1388L9.65624 34.8172L9.78237 35.1922C9.54842 35.0753 9.34605 34.9012 9.17896 34.6672L8.7801 34.1388L8.35397 33.5627L8.62669 33.2116ZM5.70511 34.6025C5.72861 34.5985 5.75955 34.6036 5.79715 34.6161C6.49895 34.7999 6.82227 35.0343 6.77215 35.3184C6.55492 35.686 6.45543 36.1016 6.47215 36.5695L6.49943 37.8752C5.6138 37.2903 4.65849 36.7718 3.63921 36.3206C3.75617 36.3039 3.89108 36.2915 4.04148 36.2831C4.19186 36.2747 4.29134 36.2198 4.34148 36.1195C4.3916 36.0193 4.29927 35.959 4.06534 35.9422C3.54733 35.9422 3.21345 35.9848 3.06307 36.0684C2.9461 36.202 2.97097 36.3441 3.13807 36.4945C4.34116 37.0961 5.40311 37.6998 6.32215 38.3013C7.77588 39.2203 8.9053 39.9699 9.70737 40.5547C10.4927 40.538 11.5938 40.4314 13.0142 40.2309L15.1687 39.8286C16.0543 39.6615 16.9742 39.5194 17.9267 39.4025C18.2775 39.3523 18.7215 39.3203 19.2562 39.3036C19.7909 39.2869 20.2846 39.2443 20.7358 39.1775C21.1702 39.9962 21.4366 40.7137 21.5369 41.332C21.587 41.6495 21.5444 41.827 21.4108 41.8604C19.4223 42.5956 17.9944 43.0591 17.1255 43.2513C16.2566 43.4435 15.4716 43.6123 14.7699 43.7627C13.0153 44.0802 11.2856 44.3394 9.58123 44.5399C9.14677 44.423 7.893 43.7801 5.82102 42.6104C4.35056 41.7248 3.32404 41.0073 2.73921 40.4558C2.07082 39.7373 1.80098 39.304 1.93466 39.1536C2.36911 38.4351 2.66382 37.7993 2.81421 37.2479C2.88104 37.014 2.89535 36.8293 2.86193 36.6956C2.67812 36.1275 2.81304 35.8362 3.26421 35.8195C4.38375 35.7527 5.13669 35.735 5.52102 35.7684C5.68811 35.7851 5.79474 35.7353 5.84488 35.6184L6.22329 34.865L5.99488 34.7661L5.67102 35.2672L5.64715 34.6911C5.64715 34.6389 5.66594 34.609 5.70511 34.6025ZM36.8266 34.7422V35.2911L36.3493 35.1684L36.4005 35.4172C36.5007 35.601 36.6854 35.7254 36.9528 35.7922L38.3062 35.8672L38.9062 35.8434C39.6079 35.8601 39.949 36.0323 39.9323 36.3581C39.9155 36.684 39.9404 36.9877 40.0073 37.2718C40.1242 37.9903 40.4084 38.6758 40.8596 39.3274C40.7593 39.6282 40.5426 39.9798 40.2084 40.3809L38.9062 41.2331C37.7866 42.0352 36.2664 43.0794 34.3448 44.3661C32.9746 44.3995 31.3266 44.2895 29.405 44.0388C28.0181 43.855 26.4233 43.5034 24.6187 42.9854L24.2198 42.8865L24.3937 42.7127C24.6777 42.3451 24.8322 42.0982 24.8573 41.9729C24.8824 41.8476 24.8398 41.5634 24.7312 41.1206C24.6226 40.6778 24.3117 40.154 23.7937 39.5524V39.4025L24.1687 39.3513C25.2047 39.4182 26.1264 39.5531 26.9369 39.7536C27.7473 39.9541 28.7116 40.1388 29.8312 40.3059C30.9173 40.5064 31.7057 40.6254 32.1903 40.6672C32.6748 40.709 33.0407 40.6894 33.2914 40.6059C33.7425 40.4221 34.6696 39.7366 36.0732 38.5502C37.4267 37.5309 38.5704 36.8205 39.5062 36.4195C39.7902 36.2524 39.8026 36.1333 39.5437 36.0581C39.2846 35.9829 38.8991 35.9422 38.3812 35.9422C38.214 36.0759 38.2283 36.186 38.4289 36.2695C38.6628 36.2528 38.8297 36.2706 38.93 36.3206C37.8104 36.9055 36.8762 37.4881 36.1243 38.0729C36.1911 37.6886 36.248 37.0314 36.2982 36.0956C36.2815 35.7949 36.182 35.525 35.9982 35.2911C35.8812 35.124 36.041 34.9748 36.4755 34.8411L36.8266 34.7422ZM13.8801 36.4059C13.9865 36.4032 14.1057 36.4318 14.2415 36.4945L15.4449 37.0706L17.5005 37.8479C18.0018 38.3826 18.3108 38.7519 18.4278 38.9525C18.01 39.0026 17.559 39.0346 17.0744 39.0513L15.9971 38.3013C15.5627 37.7833 15.2465 37.4068 15.046 37.1729C14.8455 36.939 14.6536 36.772 14.4699 36.6718C14.2025 36.5214 13.9824 36.4717 13.8153 36.5218C13.6983 36.5552 13.574 36.7221 13.4403 37.0229L13.3892 36.9718C13.456 36.6877 13.5608 36.5136 13.7028 36.4468C13.7561 36.4217 13.8163 36.4074 13.8801 36.4059ZM28.7403 36.5047C28.7998 36.5016 28.8538 36.5341 28.9039 36.5968L29.105 36.8456L28.8289 37.0229C28.6618 37.1566 28.4557 37.2135 28.205 37.1968C27.9878 37.1801 27.6931 37.2528 27.3255 37.4115C26.9579 37.5703 26.7589 37.7888 26.7255 38.0729C26.6586 38.2734 26.5663 38.4012 26.4494 38.4513C26.0817 38.6518 25.7478 38.8259 25.4471 38.9763L24.6698 38.9252L25.0721 38.3763C25.2726 38.1424 25.5285 37.9329 25.846 37.749C27.2663 37.0472 28.211 36.6387 28.6789 36.5218C28.6998 36.5134 28.7204 36.5058 28.7403 36.5047ZM14.1392 36.8525C14.1883 36.8535 14.2383 36.8675 14.2926 36.8968L14.6949 37.2479L14.8687 37.524C14.6348 37.641 14.4004 37.641 14.1665 37.524L13.7676 37.2206C13.8678 36.97 13.9919 36.8493 14.1392 36.8525ZM3.61534 37.2718L3.48921 37.449C3.57275 37.4992 3.59762 37.5632 3.56421 37.6468L2.48694 39.3036C2.4368 39.337 2.36934 39.3264 2.2858 39.2763L2.16307 39.4536L2.86193 39.9036L2.98807 39.7297C2.92123 39.6963 2.90351 39.6466 2.93693 39.5797L3.31534 39.0002L3.33921 39.0275C3.30578 39.4786 3.31822 39.8445 3.37671 40.1286C3.43518 40.4127 3.62512 40.6648 3.94261 40.882L3.99034 40.7559C3.80653 40.6222 3.72476 40.3309 3.74148 39.8797C3.77489 39.6124 3.77489 39.41 3.74148 39.2763C3.97541 39.4434 4.21168 39.4664 4.45398 39.3411C4.69626 39.2158 4.85076 38.9938 4.91761 38.6763C4.98444 38.3588 4.86009 38.0818 4.54261 37.8479L3.61534 37.2718ZM28.1369 37.6161C28.1758 37.6172 28.2131 37.6187 28.2528 37.6229C28.3864 37.6396 28.397 37.8811 28.2801 38.349C28.1798 38.5829 27.6861 38.8671 26.8005 39.2013L25.9721 39.1024L26.8516 38.6013L27.0766 38.9524H27.1994L27.0766 38.5501C26.9931 38.2661 27.0925 38.0422 27.3766 37.8751C27.6106 37.6997 27.8645 37.6124 28.1369 37.616V37.6161ZM28.7062 37.6468L29.0573 38.3013L28.5801 38.499C28.6469 38.332 28.6894 38.0478 28.7062 37.6468ZM4.06534 37.8479C4.31598 37.9816 4.46333 38.1112 4.50511 38.2365C4.54688 38.3619 4.51673 38.5269 4.41648 38.7275C4.31621 38.928 4.17942 39.0399 4.00398 39.0649C3.82852 39.09 3.64914 38.9924 3.46534 38.7752L4.06534 37.8479ZM38.105 37.9979L38.48 40.4047C38.4967 40.4883 38.4541 40.5734 38.3539 40.657L38.405 40.807L39.1073 40.3297L39.0323 40.2309C38.8652 40.3311 38.78 40.3311 38.78 40.2309L38.6812 39.8286L39.3562 39.3786L39.7073 39.6036C39.7741 39.6537 39.7598 39.7106 39.6596 39.7775L39.7584 39.9547L40.5596 39.4263L40.4334 39.2763C40.3665 39.3097 40.2776 39.3097 40.1607 39.2763L38.105 37.9979ZM5.44602 38.424L5.37102 38.5502C5.48798 38.6003 5.51285 38.6855 5.44602 38.8025L4.36875 40.4558C4.31861 40.5561 4.24059 40.5738 4.14034 40.507L4.06534 40.657L5.31988 41.4581L5.79715 41.2059L5.72215 41.0831C5.52163 41.1667 5.21262 41.0638 4.79488 40.7797L5.29602 40.0059L5.52102 40.1559C5.60456 40.206 5.61171 40.2878 5.54488 40.4047L5.69488 40.507L6.04602 39.9309L5.91988 39.8525C5.83632 39.9694 5.75456 40.0048 5.67102 39.9547L5.44602 39.8047L5.94715 39.0002C6.26463 39.184 6.43157 39.3686 6.44829 39.5524L6.57442 39.6036L6.67329 39.2013L5.44602 38.424ZM21.963 38.6525L22.263 38.6763L22.5221 38.9184L21.963 38.6525ZM20.8142 38.7275C21.069 38.7191 21.3433 38.7583 21.6357 38.8502L22.2392 39.1025L22.5664 38.9627L22.7403 39.1263C23.5925 40.0453 24.0737 40.6739 24.1823 41.0081C24.2909 41.3423 24.3034 41.6656 24.2198 41.9831C23.9023 42.4009 23.6751 42.5535 23.5414 42.4365L23.4153 42.0343L22.7403 42.8865L22.188 43.2377C21.9374 43.4549 21.6781 43.5401 21.4108 43.4899L20.5346 43.0638L20.9846 42.8354L21.1108 42.9377C21.0272 43.1883 21.1267 43.1529 21.4108 42.8354L22.188 42.0854C22.2381 41.6342 22.1281 41.0535 21.8608 40.3434C21.5934 39.6332 21.3944 39.184 21.2607 39.0002C21.2273 38.8498 20.8437 38.8178 20.1085 38.9013C20.3257 38.7927 20.5593 38.7358 20.8142 38.7275ZM37.0755 38.7275L36.4482 39.1263L36.5505 39.3036C36.6507 39.2535 36.7573 39.2783 36.8743 39.3786L37.3278 40.1286L35.5721 39.7024L35.0948 40.0809L35.1732 40.2036C35.3069 40.1702 35.4384 40.1951 35.5721 40.2786L36.4755 41.7104C36.5089 41.8107 36.484 41.8924 36.4005 41.9593L36.4993 42.0854L37.1028 41.7104L37.0005 41.5843C36.9002 41.6344 36.8184 41.6238 36.7516 41.557L36.0732 40.4558L38.3062 40.9809L37.1266 39.2763C37.0597 39.1259 37.0846 38.9839 37.2016 38.8502L37.0755 38.7275ZM38.5039 38.8263L39.1312 39.2286L38.6539 39.5524L38.5039 38.8263ZM12.9903 38.8502L14.1426 39.6036L12.6392 39.8525L12.9903 38.8502ZM29.8823 39.0275C29.9491 39.3784 30.0912 39.7051 30.3085 40.0059C29.874 39.939 29.1742 39.8113 28.205 39.6274L29.0812 39.3274C29.549 39.4277 29.8154 39.3285 29.8823 39.0275ZM7.00056 39.4025L6.89829 39.5524C6.98183 39.6026 7.0067 39.67 6.97329 39.7536L5.87215 41.4343C5.80531 41.5011 5.73785 41.5083 5.67102 41.4581L5.56875 41.6081L6.29829 42.0581L6.37329 41.9081C6.28973 41.858 6.27202 41.7939 6.32215 41.7104L6.69715 41.1309L6.82329 41.257C7.14076 41.5243 7.43734 41.5865 7.71306 41.4445C7.98876 41.3025 8.16098 41.0786 8.22783 40.7695C8.29466 40.4604 8.17746 40.1887 7.87669 39.9547L7.00056 39.4025ZM19.6312 39.4263L18.9801 41.8331C18.9299 41.9501 18.8625 42.0176 18.7789 42.0343L18.8028 42.1843L19.5051 42.0343V41.8843C19.3881 41.901 19.3312 41.8832 19.3312 41.8331L19.4812 41.3081L20.2073 41.1309L20.4323 41.5093C20.4657 41.6262 20.4266 41.7008 20.3096 41.7343L20.3335 41.8843L21.1858 41.6831V41.5331C21.052 41.5331 20.9597 41.4905 20.9096 41.407L19.6312 39.4263ZM17.7596 39.849C17.7035 39.8472 17.6496 39.849 17.596 39.8524C17.2383 39.8733 16.9396 40.0011 16.6994 40.2308C16.3986 40.5984 16.356 41.117 16.5733 41.7854C16.7738 42.3702 17.2071 42.6118 17.8755 42.5115C18.2097 42.4447 18.469 42.3203 18.6528 42.1365L18.5778 41.5331L18.4278 41.6081C18.4278 41.9256 18.3283 42.1351 18.1278 42.2354C17.5597 42.4025 17.176 42.1255 16.9755 41.407C16.892 40.655 17.0838 40.1968 17.5517 40.0297C17.8858 39.9796 18.1274 40.1216 18.2778 40.4558L18.3767 40.432L18.3017 39.9308C18.109 39.8838 17.9281 39.8546 17.7596 39.849V39.849ZM7.45056 39.9786C7.68448 40.0956 7.8194 40.2305 7.85283 40.3809C7.88624 40.5312 7.84552 40.6929 7.73692 40.8684C7.6283 41.0438 7.49679 41.1433 7.33806 41.1684C7.17931 41.1934 7.00708 41.1241 6.82329 40.957L7.45056 39.9786ZM25.2971 40.1559L25.2698 40.3297C25.3533 40.3799 25.3888 40.465 25.3721 40.582L25.1198 42.2593C25.0864 42.3595 25.0046 42.4021 24.871 42.3854L24.8437 42.6104L25.7232 42.7365L25.7471 42.5115C25.6301 42.4948 25.5804 42.4345 25.5971 42.3343L25.846 40.657C25.8626 40.5233 25.9407 40.463 26.0744 40.4797L26.1221 40.3059L25.2971 40.1559ZM16.2971 40.1797L15.4721 40.3297L15.5199 40.5308C15.6201 40.5141 15.6876 40.5462 15.721 40.6297L15.9971 42.4093C15.9971 42.5095 15.9474 42.577 15.8471 42.6104L15.871 42.8115L16.6755 42.6615L16.6483 42.4604C16.5146 42.4938 16.4471 42.4512 16.4471 42.3343L16.171 40.5308C16.171 40.4306 16.2313 40.3809 16.3483 40.3809L16.2971 40.1797ZM8.32669 40.2309L8.27897 40.3297C8.34579 40.4133 8.37066 40.5128 8.35397 40.6297L7.97556 43.2138L9.9051 41.557C9.98863 41.4902 10.0738 41.483 10.1574 41.5331L10.2324 41.4343L9.6801 41.0831L9.63237 41.182C9.71591 41.2488 9.72306 41.3234 9.65624 41.407L8.57897 42.3615L8.82783 40.8581C8.84453 40.7746 8.91198 40.7569 9.02896 40.807L9.0801 40.7047L8.32669 40.2309ZM19.7062 40.2786L20.0573 40.9059L19.5051 41.032L19.7062 40.2786ZM26.4255 40.3536L26.2482 40.8581L26.3744 40.9331C26.4746 40.7493 26.6984 40.6962 27.0494 40.7797L26.7255 42.5354C26.6754 42.6524 26.583 42.7021 26.4494 42.6854L26.4255 42.8627L27.3016 43.0127L27.3255 42.8354C27.2085 42.802 27.1588 42.7274 27.1755 42.6104L27.4755 40.8581C27.8264 40.8916 28.0288 41.0159 28.0789 41.2331L28.2289 41.2059L28.2528 40.657C27.6345 40.5902 27.027 40.4873 26.4255 40.3536ZM14.7699 40.507L13.9415 40.657L13.9653 40.8309C14.0823 40.8142 14.1603 40.8496 14.1937 40.9331L14.4699 42.7127C14.4698 42.8296 14.4167 42.9043 14.3165 42.9377L14.3437 43.1115L15.646 42.8627L15.7721 42.2593L15.6221 42.2354C15.5386 42.486 15.3219 42.6458 14.971 42.7127L14.6437 40.8581C14.627 40.7579 14.6839 40.6976 14.8176 40.6809L14.7699 40.507ZM13.2528 40.7286C13.2092 40.7267 13.1645 40.7275 13.1165 40.732L12.1108 40.882L12.138 41.0558C12.2383 41.0558 12.2952 41.0984 12.3119 41.182L12.513 43.0638C12.513 43.1807 12.4561 43.2448 12.3392 43.2615V43.4388L13.1403 43.3126C13.8922 43.2291 14.2012 42.9024 14.0676 42.3342C14.0174 42.0502 13.8754 41.8832 13.6415 41.8331C13.8252 41.6994 13.8927 41.4899 13.8426 41.2058C13.7548 40.8988 13.558 40.7414 13.2528 40.7286V40.7286ZM29.255 40.732L27.9766 42.8626C27.9098 42.9462 27.828 42.9854 27.7278 42.9854L27.7039 43.1388L28.5051 43.2888V43.0876C28.3546 43.0542 28.2943 42.9868 28.3278 42.8865L28.4539 42.6854L29.33 42.8115L29.405 43.1115C29.3883 43.2118 29.3243 43.2544 29.2073 43.2376L29.18 43.3876L30.2096 43.4899V43.3365C30.1093 43.3365 30.0418 43.2796 30.0085 43.1626L29.255 40.732ZM34.0175 40.732L34.3959 43.1388C34.3959 43.2557 34.3533 43.3447 34.2698 43.4115L34.3209 43.5888L35.0198 43.0876L34.9209 42.9854C34.7872 43.0522 34.7126 43.0451 34.6959 42.9615L34.5937 42.5865L35.2721 42.1365L35.5721 42.3342C35.6389 42.3844 35.6317 42.4341 35.5482 42.4842L35.6744 42.6854L36.4243 42.1604L36.2982 42.0104C36.2313 42.0438 36.1567 42.0509 36.0732 42.0342L34.0175 40.732ZM13.1096 40.9536C13.2668 40.9609 13.3599 41.0961 13.3892 41.3592C13.4059 41.5932 13.3313 41.7352 13.1642 41.7854L12.813 41.8331L12.7142 41.0081L13.038 40.957C13.0631 40.9528 13.0872 40.9525 13.1096 40.9536V40.9536ZM11.3744 41.0047C11.3306 41.0029 11.2827 41.0036 11.2346 41.0081L10.2562 41.1308L10.2835 41.3081C10.3837 41.3081 10.4406 41.3507 10.4574 41.4342L10.6346 43.3126C10.6346 43.4296 10.5743 43.4971 10.4574 43.5138V43.6876L11.2858 43.5649C12.021 43.5148 12.3372 43.1881 12.2369 42.5865C12.1868 42.3024 12.0375 42.1427 11.7869 42.1092C11.9707 41.9756 12.0382 41.766 11.988 41.482C11.8857 41.1749 11.6814 41.0175 11.3744 41.0047V41.0047ZM30.6085 41.032V41.257C30.7254 41.257 30.7785 41.3245 30.7619 41.4581L30.6596 43.1627C30.6261 43.3131 30.5515 43.3877 30.4346 43.3877L30.4107 43.5377L32.163 43.7149L32.3403 43.1115H32.2141C32.0136 43.3455 31.6548 43.4378 31.1369 43.3877L31.263 41.5093C31.2797 41.3923 31.3366 41.332 31.4369 41.332L31.4607 41.107L30.6085 41.032ZM32.7664 41.2058V41.407C32.8666 41.4404 32.9164 41.515 32.9164 41.632L32.8414 43.3127C32.8079 43.4129 32.7228 43.4627 32.5891 43.4627L32.5653 43.6877L33.4414 43.7627L33.4687 43.5377C33.3684 43.521 33.3081 43.4641 33.2914 43.3638L33.3664 41.6831C33.3998 41.5662 33.4744 41.4987 33.5914 41.482L33.6187 41.2843L32.7664 41.2058ZM11.2824 41.2263C11.4395 41.2336 11.5327 41.3688 11.5619 41.632C11.5786 41.8659 11.4863 42.008 11.2858 42.0581L10.9858 42.1093L10.8835 41.2843L11.2108 41.2331C11.2358 41.229 11.2599 41.2253 11.2824 41.2264V41.2263ZM34.3959 41.557L35.0198 41.9831L34.5459 42.3104L34.3959 41.557ZM29.0573 41.6593L29.3062 42.5865L28.5801 42.4843L29.0573 41.6593ZM13.1915 41.9831C13.392 41.9664 13.5163 42.1085 13.5665 42.4093C13.6166 42.7769 13.5242 42.9864 13.2903 43.0365L12.963 43.0877L12.8403 42.0343L13.1915 41.9831ZM11.3369 42.2354C11.5374 42.2187 11.6618 42.3536 11.7119 42.6377C11.762 43.0053 11.6874 43.222 11.4869 43.2888L11.1358 43.3365L11.0096 42.2865L11.3369 42.2354ZM17.7528 43.7149C18.0034 43.882 17.9929 44.0738 17.7255 44.2911C17.0237 44.9762 16.2316 45.6262 15.346 46.2445L15.046 46.1456C15.564 45.8281 16.2992 45.3096 17.2517 44.5911L17.6778 44.1138L17.4494 44.0899C17.1319 44.374 16.7713 44.6634 16.3619 44.9558C15.9525 45.2483 15.4784 45.5271 14.9437 45.7945L14.2176 46.1456L14.3437 46.2956L14.896 46.3706C15.2135 46.5711 15.345 46.7701 15.2949 46.9706C15.1277 47.2213 14.8613 47.2567 14.4937 47.0729L13.8903 46.7456C13.6731 46.5284 13.4564 46.3792 13.2392 46.2956L12.9903 46.0945L13.0892 45.8456L13.8426 46.1456H14.0676L13.9415 45.6956L14.8449 45.1433C15.0788 45.0598 15.1783 44.9177 15.1449 44.7172L15.2199 44.2638C15.6042 44.3473 16.0232 44.2852 16.4744 44.0763C16.9255 43.8674 17.3518 43.7484 17.7528 43.7149ZM25.4198 44.0013C25.6731 44.0026 26.0241 44.0635 26.4732 44.1888L28.6039 45.7706C28.1527 45.7706 27.8686 45.8204 27.7516 45.9206H27.4005C26.9159 45.5864 26.5323 45.2774 26.2482 44.9934L25.0721 44.0661C25.1536 44.0222 25.2679 44.0005 25.4198 44.0013ZM26.1494 45.6445L26.6505 46.0706C26.5502 46.1375 26.4225 46.1126 26.2721 45.9956C26.1217 45.8787 26.0825 45.7614 26.1494 45.6445ZM16.6483 45.8456L16.6994 45.9683L16.4983 46.2445L16.2733 46.3706L16.0721 46.2445L16.096 46.1456L16.5221 45.8695L16.6483 45.8456ZM28.5289 46.0434L29.1323 46.1456L29.5312 46.0434L29.8073 46.0945L29.7085 46.2206L29.0573 46.4217C28.7732 46.6724 28.4359 46.8393 28.0516 46.9229L27.6255 46.8479L27.5266 46.5479C27.6269 46.3975 27.7565 46.2874 27.9153 46.2206C28.074 46.1538 28.2782 46.0935 28.5289 46.0434Z" fill="white"/>
</g>
<defs>
<clipPath id="clip0_5554_34205">
<rect width="42.7839" height="48" fill="white" transform="translate(0.168945)"/>
</clipPath>
</defs>
</svg>
