<?xml version="1.0" encoding="UTF-8"?>
<svg width="180px" height="180px" viewBox="0 0 180 180" version="1.1" xmlns="http://www.w3.org/2000/svg" xmlns:xlink="http://www.w3.org/1999/xlink">
    <!-- Generator: sketchtool 61.2 (101010) - https://sketch.com -->
    <title>659870A8-38C8-4CAD-A5C1-17066F0564FE</title>
    <desc>Created with sketchtool.</desc>
    <g id="19]-Flusso-cie" stroke="none" stroke-width="1" fill="none" fill-rule="evenodd">
        <g id="IO-home-with-CIE-+-SPID-Copy" transform="translate(-70.000000, -72.000000)">
            <g id="Icon_accessSPIDoCIE" transform="translate(70.000000, 72.000000)">
                <g id="Group-6">
                    <g id="Group" fill="#F6FAFC">
                        <ellipse id="Oval-3" cx="90.2293578" cy="90" rx="89.7706422" ry="90"></ellipse>
                    </g>
                    <g id="Group-5" transform="translate(92.000000, 107.000000)">
                        <g id="spid-ico-circle-bb">
                            <path d="M56.9612245,28.4806122 C56.9612245,44.2137755 44.2137755,56.9612245 28.4806122,56.9612245 C12.7571429,56.9612245 0,44.2137755 0,28.4806122 C0,12.747449 12.7571429,0 28.4806122,0 C44.2137755,0 56.9612245,12.747449 56.9612245,28.4806122" id="XMLID_3_" stroke="#F6FAFC" stroke-width="2" fill="#00C5CA"></path>
                            <path d="M28.5581633,30.9234694 C26.1928571,30.9234694 24.2443878,30.1285714 22.7127551,28.5193878 C21.1811224,26.919898 20.4153061,24.9326531 20.4153061,22.5673469 C20.4153061,20.1923469 21.1811224,18.2244898 22.7030612,16.6540816 C24.225,15.0836735 26.1637755,14.2984694 28.5387755,14.2984694 C30.9040816,14.2984694 32.8331633,15.0933673 34.3163265,16.7122449 C35.7994898,18.3214286 36.5459184,20.2989796 36.5459184,22.6739796 C36.5459184,25.0295918 35.7994898,26.997449 34.3163265,28.5678571 C32.8331633,30.1285714 30.9234694,30.9234694 28.5581633,30.9234694" id="XMLID_2_" fill="#FFFFFF"></path>
                            <path d="M20.4153061,42.5658163 C20.4153061,40.1908163 21.1811224,38.2229592 22.6933673,36.652551 C24.2153061,35.0821429 26.1540816,34.2969388 28.5484694,34.2969388 C30.9137755,34.2969388 32.8428571,35.0918367 34.3163265,36.7107143 C35.7994898,38.3295918 36.5459184,40.3071429 36.5459184,42.672449" id="XMLID_1_" fill="#FFFFFF"></path>
                        </g>
                    </g>
                </g>
                <g id="CIE" transform="translate(49.000000, 30.000000)" fill-rule="nonzero">
                    <g id="_x2D_-Entra-con-CIE-in-IO" transform="translate(43.000000, 15.000000)" fill="#00C5CA">
                        <g id="Touch-your-card-Copy">
                            <g id="Group-10" transform="translate(0.000000, 0.057034)">
                                <path d="M62.3448276,0.772413793 L5.95862069,0.772413793 C2.86896552,0.772413793 0.331034483,3.31034483 0.331034483,6.4 L0.331034483,42.3724138 C0.331034483,45.462069 2.86896552,48 5.95862069,48 L62.3448276,48 C65.4344828,48 67.9724138,45.462069 67.9724138,42.3724138 L67.9724138,6.4 C67.9724138,3.31034483 65.4344828,0.772413793 62.3448276,0.772413793 Z M62.3448276,3.08965517 C64.2206897,3.08965517 65.7655172,4.63448276 65.7655172,6.51034483 L65.7655172,13.1310345 L65.7655172,42.4827586 C65.7655172,44.3586207 64.2206897,45.9034483 62.3448276,45.9034483 L5.95862069,45.9034483 C4.08275862,45.9034483 2.53793103,44.3586207 2.53793103,42.4827586 L2.53793103,12.0275862 L2.53793103,6.4 C2.53793103,4.52413793 4.08275862,2.97931034 5.95862069,2.97931034 L62.3448276,2.97931034 L62.3448276,3.08965517 Z" id="Shape"></path>
                                <g id="Rectangle-path" transform="translate(28.689655, 15.448276)">
                                    <path d="M0.993103448,1.54482759 C0.993103448,0.993103448 1.54482759,0.44137931 2.09655172,0.44137931 L12.2482759,0.44137931 C12.8,0.44137931 13.3517241,0.993103448 13.3517241,1.54482759 L13.3517241,1.54482759 C13.3517241,2.09655172 12.8,2.64827586 12.2482759,2.64827586 L2.09655172,2.64827586 C1.43448276,2.75862069 0.993103448,2.20689655 0.993103448,1.54482759 L0.993103448,1.54482759 Z" id="Path"></path>
                                </g>
                                <g id="Rectangle-path-Copy-2" transform="translate(14.344828, 11.034483)">
                                    <path d="M0.44137931,1.65517241 C0.44137931,1.10344828 0.993103448,0.551724138 1.54482759,0.551724138 L34.3172414,0.551724138 C34.8689655,0.551724138 35.4206897,1.10344828 35.4206897,1.65517241 L35.4206897,1.65517241 C35.4206897,2.31724138 34.8689655,2.75862069 34.3172414,2.75862069 L1.54482759,2.75862069 C0.993103448,2.75862069 0.44137931,2.31724138 0.44137931,1.65517241 L0.44137931,1.65517241 Z" id="Path"></path>
                                </g>
                                <g id="Rectangle-path-Copy" transform="translate(52.965517, 5.517241)">
                                    <path d="M0.772413793,1.54482759 C0.772413793,0.993103448 1.32413793,0.44137931 1.87586207,0.44137931 L9.37931034,0.44137931 C9.93103448,0.44137931 10.4827586,0.993103448 10.4827586,1.54482759 L10.4827586,1.54482759 C10.4827586,2.09655172 9.93103448,2.64827586 9.37931034,2.64827586 L1.87586207,2.64827586 C1.32413793,2.64827586 0.772413793,2.20689655 0.772413793,1.54482759 L0.772413793,1.54482759 Z" id="Path"></path>
                                </g>
                                <g id="Rectangle-path_1_" transform="translate(28.689655, 22.068966)">
                                    <path d="M0.993103448,1.2137931 C0.993103448,0.551724138 1.54482759,0.110344828 2.09655172,0.110344828 L5.51724138,0.110344828 C6.06896552,0.110344828 6.62068966,0.551724138 6.62068966,1.2137931 L6.62068966,1.2137931 C6.62068966,1.76551724 6.06896552,2.31724138 5.51724138,2.31724138 L2.09655172,2.31724138 C1.43448276,2.31724138 0.993103448,1.87586207 0.993103448,1.2137931 L0.993103448,1.2137931 Z" id="Path"></path>
                                </g>
                                <g id="Rectangle-path_3_" transform="translate(28.689655, 27.586207)">
                                    <path d="M0.993103448,1.32413793 C0.993103448,0.772413793 1.54482759,0.220689655 2.09655172,0.220689655 L5.51724138,0.220689655 C6.06896552,0.220689655 6.62068966,0.772413793 6.62068966,1.32413793 L6.62068966,1.32413793 C6.62068966,1.87586207 6.06896552,2.42758621 5.51724138,2.42758621 L2.09655172,2.42758621 C1.43448276,2.42758621 0.993103448,1.9862069 0.993103448,1.32413793 L0.993103448,1.32413793 Z" id="Path"></path>
                                </g>
                                <g id="Rectangle-path_4_" transform="translate(28.689655, 33.103448)">
                                    <path d="M0.993103448,1.43448276 C0.993103448,0.882758621 1.54482759,0.331034483 2.09655172,0.331034483 L2.09655172,0.331034483 C2.75862069,0.331034483 3.2,0.882758621 3.2,1.43448276 L3.2,1.43448276 C3.2,1.9862069 2.75862069,2.53793103 2.09655172,2.53793103 L2.09655172,2.53793103 C1.43448276,2.53793103 0.993103448,2.09655172 0.993103448,1.43448276 L0.993103448,1.43448276 Z" id="Path"></path>
                                </g>
                                <g id="Rectangle-path_5_" transform="translate(33.103448, 33.103448)">
                                    <path d="M0.993103448,1.43448276 C0.993103448,0.882758621 1.54482759,0.331034483 2.09655172,0.331034483 L2.09655172,0.331034483 C2.64827586,0.331034483 3.2,0.882758621 3.2,1.43448276 L3.2,1.43448276 C3.2,1.9862069 2.64827586,2.53793103 2.09655172,2.53793103 L2.09655172,2.53793103 C1.54482759,2.53793103 0.993103448,2.09655172 0.993103448,1.43448276 L0.993103448,1.43448276 Z" id="Path"></path>
                                </g>
                                <g id="Rectangle-path_6_" transform="translate(38.620690, 33.103448)">
                                    <path d="M0,1.43448276 C0,0.882758621 0.551724138,0.331034483 1.10344828,0.331034483 L1.10344828,0.331034483 C1.65517241,0.331034483 2.20689655,0.882758621 2.20689655,1.43448276 L2.20689655,1.43448276 C2.20689655,1.9862069 1.65517241,2.53793103 1.10344828,2.53793103 L1.10344828,2.53793103 C0.551724138,2.53793103 0,2.09655172 0,1.43448276 L0,1.43448276 Z" id="Path"></path>
                                </g>
                                <g id="Rectangle-path_7_" transform="translate(43.034483, 33.103448)">
                                    <path d="M0.110344828,1.43448276 C0.110344828,0.882758621 0.662068966,0.331034483 1.2137931,0.331034483 L9.15862069,0.331034483 C9.71034483,0.331034483 10.262069,0.882758621 10.262069,1.43448276 L10.262069,1.43448276 C10.262069,1.9862069 9.71034483,2.53793103 9.15862069,2.53793103 L1.2137931,2.53793103 C0.662068966,2.53793103 0.110344828,2.09655172 0.110344828,1.43448276 L0.110344828,1.43448276 Z" id="Path"></path>
                                </g>
                                <g id="Rectangle-path_8_" transform="translate(55.172414, 33.103448)">
                                    <path d="M0.44137931,1.43448276 C0.44137931,0.882758621 0.993103448,0.331034483 1.54482759,0.331034483 L7.28275862,0.331034483 C7.83448276,0.331034483 8.3862069,0.882758621 8.3862069,1.43448276 L8.3862069,1.43448276 C8.3862069,1.9862069 7.83448276,2.53793103 7.28275862,2.53793103 L1.54482759,2.53793103 C0.882758621,2.53793103 0.44137931,2.09655172 0.44137931,1.43448276 L0.44137931,1.43448276 Z" id="Path"></path>
                                </g>
                                <path d="M26.262069,15.8896552 L5.95862069,15.8896552 C5.29655172,15.8896552 4.85517241,16.3310345 4.85517241,16.9931034 L4.85517241,38.0689655 C4.85517241,38.6206897 5.40689655,39.1724138 5.95862069,39.1724138 L26.262069,39.1724138 C26.9241379,39.1724138 27.3655172,38.7310345 27.3655172,38.0689655 L27.3655172,16.9931034 C27.3655172,16.3310345 26.9241379,15.8896552 26.262069,15.8896552 Z M20.6344828,36.9655172 L11.5862069,36.9655172 L11.5862069,34.8689655 C11.5862069,34.3172414 12.137931,33.7655172 12.6896552,33.7655172 L19.4206897,33.7655172 C20.0827586,33.7655172 20.5241379,34.2068966 20.5241379,34.8689655 L20.5241379,36.9655172 L20.6344828,36.9655172 Z M25.1586207,36.9655172 L22.9517241,36.9655172 L22.9517241,34.8689655 C22.9517241,33.1034483 21.4068966,31.6689655 19.5310345,31.6689655 L12.8,31.6689655 C10.9241379,31.6689655 9.37931034,33.1034483 9.37931034,34.8689655 L9.37931034,36.9655172 L7.17241379,36.9655172 L7.17241379,17.9862069 L25.1586207,17.9862069 L25.1586207,36.9655172 Z" id="Shape_1_"></path>
                                <g id="Rectangle-path_9_" transform="translate(4.413793, 40.827586)">
                                    <path d="M0.44137931,1.54482759 C0.44137931,0.993103448 0.882758621,0.44137931 1.54482759,0.44137931 L21.8482759,0.44137931 C22.5103448,0.44137931 22.9517241,0.993103448 22.9517241,1.54482759 L22.9517241,1.54482759 C22.9517241,2.20689655 22.5103448,2.64827586 21.8482759,2.64827586 L1.54482759,2.64827586 C0.882758621,2.75862069 0.44137931,2.20689655 0.44137931,1.54482759 L0.44137931,1.54482759 Z" id="Path"></path>
                                </g>
                                <g id="Rectangle-path_10_" transform="translate(14.344828, 5.517241)">
                                    <path d="M0.110344828,1.54482759 C0.110344828,0.993103448 0.551724138,0.44137931 1.2137931,0.44137931 L34.4275862,0.44137931 C34.9793103,0.44137931 35.5310345,0.993103448 35.5310345,1.54482759 L35.5310345,1.54482759 C35.5310345,2.09655172 34.9793103,2.64827586 34.4275862,2.64827586 L1.2137931,2.64827586 C0.662068966,2.64827586 0.110344828,2.20689655 0.110344828,1.54482759 L0.110344828,1.54482759 Z" id="Path"></path>
                                </g>
                                <g id="Rectangle-path_11_" transform="translate(4.413793, 5.517241)">
                                    <path d="M0.44137931,1.54482759 C0.44137931,0.993103448 0.882758621,0.44137931 1.54482759,0.44137931 L5.73793103,0.44137931 C6.4,0.44137931 6.84137931,0.993103448 6.84137931,1.54482759 L6.84137931,1.54482759 C6.84137931,2.09655172 6.4,2.64827586 5.73793103,2.64827586 L1.54482759,2.64827586 C0.882758621,2.64827586 0.44137931,2.20689655 0.44137931,1.54482759 L0.44137931,1.54482759 Z" id="Path"></path>
                                </g>
                                <path d="M16.1103448,19.9724138 C14.2344828,19.9724138 12.6896552,21.5172414 12.6896552,23.3931034 L12.6896552,25.6 C12.6896552,27.4758621 14.2344828,29.0206897 16.1103448,29.0206897 C17.9862069,29.0206897 19.5310345,27.4758621 19.5310345,25.6 L19.5310345,23.3931034 C19.5310345,21.4068966 17.9862069,19.9724138 16.1103448,19.9724138 Z M17.2137931,25.4896552 C17.2137931,26.1517241 16.662069,26.5931034 16.1103448,26.5931034 C15.5586207,26.5931034 15.0068966,26.0413793 15.0068966,25.4896552 L15.0068966,23.2827586 C15.0068966,22.6206897 15.5586207,22.1793103 16.1103448,22.1793103 C16.662069,22.1793103 17.2137931,22.7310345 17.2137931,23.2827586 L17.2137931,25.4896552 Z" id="Shape_2_"></path>
                                <g id="Rectangle-path_12_" transform="translate(28.689655, 40.827586)">
                                    <path d="M0.993103448,1.54482759 C0.993103448,0.993103448 1.54482759,0.44137931 2.09655172,0.44137931 L16.4413793,0.44137931 C16.9931034,0.44137931 17.5448276,0.993103448 17.5448276,1.54482759 L17.5448276,1.54482759 C17.5448276,2.20689655 16.9931034,2.64827586 16.4413793,2.64827586 L2.09655172,2.64827586 C1.43448276,2.75862069 0.993103448,2.20689655 0.993103448,1.54482759 L0.993103448,1.54482759 Z" id="Path"></path>
                                </g>
                                <g id="Rectangle-path_13_" transform="translate(47.448276, 40.827586)">
                                    <path d="M0.331034483,1.54482759 C0.331034483,0.993103448 0.882758621,0.44137931 1.43448276,0.44137931 L14.8965517,0.44137931 C15.4482759,0.44137931 16,0.993103448 16,1.54482759 L16,1.54482759 C16,2.20689655 15.4482759,2.64827586 14.8965517,2.64827586 L1.43448276,2.64827586 C0.882758621,2.75862069 0.331034483,2.20689655 0.331034483,1.54482759 L0.331034483,1.54482759 Z" id="Path"></path>
                                </g>
                                <path d="M53.737931,11.5862069 L55.8344828,11.5862069 C58.262069,11.5862069 60.137931,13.5724138 60.137931,15.8896552 L60.137931,19.6413793 L60.137931,19.6413793 L58.0413793,19.6413793 C55.6137931,19.6413793 53.737931,17.6551724 53.737931,15.337931 L53.737931,11.5862069 L53.737931,11.5862069 Z" id="Rectangle-15"></path>
                                <g id="Rectangle-path_14_" transform="translate(37.517241, 22.068966)">
                                    <path d="M0,1.2137931 C0,0.551724138 0.551724138,0.110344828 1.10344828,0.110344828 L4.52413793,0.110344828 C5.07586207,0.110344828 5.62758621,0.551724138 5.62758621,1.2137931 L5.62758621,1.2137931 C5.62758621,1.76551724 5.07586207,2.31724138 4.52413793,2.31724138 L1.10344828,2.31724138 C0.551724138,2.31724138 0,1.87586207 0,1.2137931 L0,1.2137931 Z" id="Path"></path>
                                </g>
                            </g>
                        </g>
                    </g>
                    <g id="Group" transform="translate(0.517241, 0.000000)">
                        <polygon id="Path" fill="#00C5CA" points="2.20689655 12.2482759 49.5448276 12.2482759 56.3862069 12.2482759 56.3862069 10.0413793 2.20689655 10.0413793"></polygon>
                        <g id="Rectangle-path-Copy_1_" transform="translate(26.482759, 4.413793)" fill="#00C5CA">
                            <path d="M0,1.76551724 C0,1.10344828 0.44137931,0.662068966 1.10344828,0.662068966 L8.60689655,0.662068966 C9.26896552,0.662068966 9.71034483,1.10344828 9.71034483,1.76551724 L9.71034483,1.76551724 C9.71034483,2.42758621 9.26896552,2.86896552 8.60689655,2.86896552 L1.10344828,2.86896552 C0.551724138,2.86896552 0,2.42758621 0,1.76551724 L0,1.76551724 Z" id="Path"></path>
                        </g>
                        <g id="Rectangle-path_2_" transform="translate(22.068966, 4.413793)" fill="#00C5CA">
                            <path d="M0.220689655,1.76551724 C0.220689655,1.2137931 0.662068966,0.662068966 1.32413793,0.662068966 L1.32413793,0.662068966 C1.87586207,0.662068966 2.42758621,1.2137931 2.42758621,1.76551724 L2.42758621,1.76551724 C2.42758621,2.31724138 1.87586207,2.86896552 1.32413793,2.86896552 L1.32413793,2.86896552 C0.772413793,2.86896552 0.220689655,2.42758621 0.220689655,1.76551724 L0.220689655,1.76551724 Z" id="Path"></path>
                        </g>
                        <rect id="Rectangle" fill="#FFFFFF" x="3.2" y="12.2482759" width="53" height="68.9655172"></rect>
                        <path d="M57.6,90.262069 L57.6,5.73793103 C57.6,2.64827586 55.062069,0.110344828 51.9724138,0.110344828 L6.62068966,0.110344828 C3.53103448,0.110344828 0.993103448,2.64827586 0.993103448,5.73793103 L0.993103448,90.262069 C0.993103448,93.3517241 3.53103448,95.8896552 6.62068966,95.8896552 L51.9724138,95.8896552 C55.062069,96 57.6,93.462069 57.6,90.262069 Z M55.3931034,90.262069 C55.3931034,92.137931 53.8482759,93.6827586 51.9724138,93.6827586 L45.3517241,93.6827586 L6.62068966,93.6827586 C4.74482759,93.6827586 3.2,92.137931 3.2,90.262069 L3.2,5.73793103 C3.2,3.86206897 4.74482759,2.31724138 6.62068966,2.31724138 L46.3448276,2.31724138 L51.9724138,2.31724138 C53.8482759,2.31724138 55.3931034,3.86206897 55.3931034,5.73793103 L55.3931034,90.262069 L55.3931034,90.262069 Z" id="Shape_6_" fill="#00C5CA"></path>
                        <polygon id="Path" fill="#00C5CA" points="2.20689655 83.5310345 49.5448276 83.5310345 56.3862069 83.5310345 56.3862069 81.2137931 2.20689655 81.2137931"></polygon>
                        <path d="M29.2413793,92.6896552 C27.0344828,92.6896552 25.2689655,90.9241379 25.2689655,88.7172414 C25.2689655,86.5103448 27.0344828,84.7448276 29.2413793,84.7448276 C31.4482759,84.7448276 33.2137931,86.5103448 33.2137931,88.7172414 C33.2137931,90.9241379 31.4482759,92.6896552 29.2413793,92.6896552 Z M29.2413793,86.4 C28.0275862,86.4 27.0344828,87.3931034 27.0344828,88.6068966 C27.0344828,89.8206897 28.0275862,90.8137931 29.2413793,90.8137931 C30.4551724,90.8137931 31.4482759,89.8206897 31.4482759,88.6068966 C31.4482759,87.3931034 30.5655172,86.4 29.2413793,86.4 Z" id="Shape" fill="#00C5CA"></path>
                        <path d="M37.8482759,30.6758621 L20.6344828,30.6758621 C19.4206897,30.6758621 18.4275862,31.6689655 18.4275862,32.8827586 L18.4275862,50.2068966 C18.4275862,51.4206897 19.4206897,52.4137931 20.6344828,52.4137931 L37.8482759,52.4137931 C39.062069,52.4137931 40.0551724,51.4206897 40.0551724,50.2068966 L40.0551724,32.7724138 C40.0551724,31.6689655 39.062069,30.6758621 37.8482759,30.6758621 Z M37.8482759,50.0965517 L20.6344828,50.0965517 L20.6344828,32.7724138 L37.8482759,32.7724138 L37.8482759,50.0965517 Z M35.7517241,34.9793103 L30.3448276,34.9793103 C29.1310345,34.9793103 28.137931,35.9724138 28.137931,37.1862069 L28.137931,39.7241379 C27.4758621,40.0551724 27.0344828,40.8275862 27.0344828,41.6 C27.0344828,42.8137931 28.0275862,43.8068966 29.2413793,43.8068966 C30.4551724,43.8068966 31.4482759,42.8137931 31.4482759,41.6 C31.4482759,40.8275862 31.0068966,40.0551724 30.3448276,39.7241379 L30.3448276,37.1862069 L33.5448276,37.1862069 L33.5448276,45.7931034 L24.937931,45.7931034 L24.937931,37.1862069 L27.1448276,37.1862069 L27.1448276,34.9793103 L24.937931,34.9793103 L22.7310345,34.9793103 L22.7310345,47.8896552 L35.6413793,47.8896552 L35.6413793,34.9793103 L35.7517241,34.9793103 Z" id="Shape_4_" fill="#00C5CA"></path>
                    </g>
                </g>
            </g>
        </g>
    </g>
</svg>