<svg width="131" height="30" viewBox="0 0 131 30" fill="none" xmlns="http://www.w3.org/2000/svg">
<path d="M31.1345 15.7135L30.2455 15.0653L29.3576 15.7135L29.6954 14.6673L28.7925 14.0203L29.9055 14.0215L30.2455 12.9602L30.5868 14.0203H31.6999L30.7968 14.6673L31.1345 15.7135ZM29.9135 20.3224L29.0247 19.6742L28.1356 20.3224L28.4746 19.2759L27.5716 18.6291L28.6834 18.6303L29.0247 17.5689L29.3659 18.6291H30.4776L29.5747 19.2759L29.9135 20.3224ZM28.6834 9.43927L29.0244 8.37794L29.3658 9.43794H30.4776L29.5747 10.0837L29.9135 11.1302L29.0244 10.4833L28.1355 11.1302L28.4745 10.0837L27.5714 9.43794L28.6834 9.43927ZM26.2161 6.73424L26.5537 7.78076L25.666 7.13261L24.7758 7.78076L25.1136 6.73424L24.2118 6.08609L25.3247 6.08861L25.6649 5.02728L26.005 6.08609H27.1191L26.2161 6.73424ZM26.5409 23.6858L25.6521 23.0388L24.7631 23.6858L25.1009 22.6393L24.199 21.9923L25.3109 21.9936L25.6521 20.9335L25.9922 21.9923H27.105L26.2022 22.6393L26.5409 23.6858ZM21.9456 24.9046L21.0573 24.2575L20.1685 24.9046L20.506 23.8582L19.6037 23.2113L20.7167 23.2124L21.0567 22.1512L21.3973 23.2113H22.5103L21.6074 23.8582L21.9456 24.9046ZM20.7155 4.85483L21.0561 3.79468L21.3967 4.85365H22.5098L21.6068 5.50061L21.9452 6.54698L21.0561 5.90002L20.1673 6.54698L20.5054 5.50061L19.6031 4.85365L20.7155 4.85483ZM17.3511 23.6858L16.4626 23.0388L15.5736 23.6858L15.9113 22.6393L15.009 21.9923L16.1219 21.9936L16.462 20.9335L16.8026 21.9923H17.9156L17.0133 22.6393L17.3511 23.6858ZM16.1145 6.08742L16.4551 5.02609L16.7956 6.08609H17.9089L17.0063 6.7332L17.3441 7.77957L16.4556 7.13261L15.5667 7.77957L15.9043 6.7332L15.002 6.08609L16.1145 6.08742ZM13.6401 10.0978L13.9785 11.1442L13.0894 10.4971L12.2005 11.1442L12.5387 10.0978L11.6364 9.45068L12.7488 9.45201L13.0894 8.39068L13.43 9.45068H14.5424L13.6401 10.0978ZM13.9785 20.3224L13.0894 19.6742L12.2005 20.3224L12.5387 19.2759L11.6364 18.6291L12.7488 18.6303L13.0894 17.5689L13.43 18.6291H14.5424L13.6401 19.2759L13.9785 20.3224ZM10.4012 14.0331L11.5142 14.0354L11.8548 12.9728L12.1954 14.0331H13.3076L12.4055 14.6802L12.7431 15.7262L11.8548 15.0794L10.9657 15.7262L11.3041 14.6802L10.4012 14.0331ZM0 0.443867V28.4542H42.1297V0.443867H0Z" fill="white"/>
<path d="M47.3452 6.69928V0.442537H51.6463V1.50091H48.6119V2.98195H51.2311V4.04032H48.6119V6.69928H47.3452Z" fill="white"/>
<path d="M52.6818 6.69928V2.16669H53.8843V6.69928H52.6818ZM52.6818 1.55202V0.442537H53.8843V1.55202H52.6818Z" fill="white"/>
<path d="M59.251 6.69928H58.0485V4.38595C58.0485 3.89661 58.023 3.58002 57.9716 3.43647C57.9202 3.29276 57.8367 3.18106 57.7213 3.10135C57.6057 3.02165 57.4665 2.98195 57.304 2.98195C57.0957 2.98195 56.9088 3.03883 56.7432 3.15261C56.5777 3.26639 56.4644 3.41721 56.403 3.60491C56.3415 3.79276 56.311 4.13987 56.311 4.64639V6.69928H55.1085V2.16669H56.2255V2.83246C56.6218 2.32032 57.1211 2.06432 57.7232 2.06432C57.9886 2.06432 58.2309 2.11187 58.4509 2.20728C58.6705 2.30254 58.8367 2.42417 58.9493 2.57217C59.0619 2.72017 59.1405 2.88802 59.1846 3.07572C59.2291 3.26358 59.251 3.53246 59.251 3.88239V6.69928Z" fill="white"/>
<path d="M62.9785 4.52252C62.8244 4.57378 62.5804 4.63497 62.2467 4.70608C61.9128 4.77734 61.6947 4.84697 61.5919 4.91526C61.435 5.02623 61.3566 5.16712 61.3566 5.33778C61.3566 5.50564 61.4193 5.65067 61.545 5.77304C61.6702 5.89541 61.8302 5.9566 62.0242 5.9566C62.2409 5.9566 62.4478 5.88549 62.6445 5.74326C62.7903 5.63512 62.8856 5.50282 62.9315 5.34623C62.9629 5.24386 62.9785 5.04904 62.9785 4.76163V4.52252ZM61.3694 3.54949L60.2781 3.35319C60.4007 2.91497 60.6118 2.59067 60.9115 2.38001C61.211 2.16963 61.6561 2.0643 62.2467 2.0643C62.783 2.0643 63.1824 2.12771 63.4451 2.25423C63.7073 2.38089 63.8922 2.54164 63.9992 2.73645C64.1063 2.93141 64.1596 3.28919 64.1596 3.80978L64.1468 5.20963C64.1468 5.60815 64.166 5.90178 64.2046 6.09097C64.2432 6.2803 64.3151 6.48297 64.4207 6.69926H63.2309C63.1995 6.61956 63.161 6.50149 63.1154 6.34504C63.0954 6.27393 63.0813 6.22697 63.0725 6.20415C62.8671 6.40341 62.6475 6.55275 62.4135 6.6523C62.1797 6.75186 61.93 6.80164 61.6647 6.80164C61.1968 6.80164 60.8281 6.67497 60.5584 6.42178C60.289 6.1686 60.1539 5.8486 60.1539 5.46149C60.1539 5.20549 60.2153 4.97719 60.338 4.77645C60.4607 4.57601 60.6324 4.42238 60.8538 4.31556C61.0749 4.20889 61.3934 4.11571 61.8101 4.03601C62.3721 3.93082 62.7617 3.8326 62.9785 3.74149V3.62208C62.9785 3.39156 62.9213 3.22727 62.8073 3.12904C62.6932 3.03097 62.4777 2.98193 62.1611 2.98193C61.9471 2.98193 61.7803 3.02386 61.6604 3.10786C61.5405 3.19171 61.4436 3.33897 61.3694 3.54949Z" fill="white"/>
<path d="M69.4795 6.69928H68.2768V4.38595C68.2768 3.89661 68.2509 3.58002 68.1997 3.43647C68.1483 3.29276 68.065 3.18106 67.9492 3.10135C67.8338 3.02165 67.6948 2.98195 67.5319 2.98195C67.3237 2.98195 67.1368 3.03883 66.9715 3.15261C66.8061 3.26639 66.6926 3.41721 66.6311 3.60491C66.5699 3.79276 66.5392 4.13987 66.5392 4.64639V6.69928H65.3368V2.16669H66.4536V2.83246C66.8502 2.32032 67.3495 2.06432 67.9516 2.06432C68.2168 2.06432 68.4594 2.11187 68.6789 2.20728C68.8986 2.30254 69.0649 2.42417 69.1778 2.57217C69.2902 2.72017 69.3686 2.88802 69.4131 3.07572C69.457 3.26358 69.4795 3.53246 69.4795 3.88239V6.69928Z" fill="white"/>
<path d="M70.2155 6.69928V5.76461L71.9186 3.81409C72.1983 3.49543 72.4051 3.26921 72.5393 3.13558C72.3993 3.14402 72.2154 3.1498 71.9871 3.15261L70.3823 3.16106V2.16669H74.1396V3.01602L72.4023 5.01335L71.7903 5.67498C72.1241 5.65498 72.3308 5.64506 72.4106 5.64506H74.2724V6.69928H70.2155Z" fill="white"/>
<path d="M75.0812 6.69928V2.16669H76.2839V6.69928H75.0812ZM75.0812 1.55202V0.442537H76.2839V1.55202H75.0812Z" fill="white"/>
<path d="M80.0243 4.52252C79.8702 4.57378 79.6263 4.63497 79.2922 4.70608C78.9586 4.77734 78.7405 4.84697 78.6377 4.91526C78.4808 5.02623 78.4021 5.16712 78.4021 5.33778C78.4021 5.50564 78.4648 5.65067 78.5904 5.77304C78.7161 5.89541 78.8757 5.9566 79.0697 5.9566C79.2864 5.9566 79.4936 5.88549 79.6903 5.74326C79.8361 5.63512 79.9314 5.50282 79.977 5.34623C80.0084 5.24386 80.0243 5.04904 80.0243 4.76163V4.52252ZM78.4151 3.54949L77.3237 3.35319C77.4464 2.91497 77.6577 2.59067 77.957 2.38001C78.2568 2.16963 78.7019 2.0643 79.2922 2.0643C79.8288 2.0643 80.2279 2.12771 80.4906 2.25423C80.7531 2.38089 80.938 2.54164 81.0447 2.73645C81.1518 2.93141 81.2054 3.28919 81.2054 3.80978L81.1925 5.20963C81.1925 5.60815 81.2118 5.90178 81.2501 6.09097C81.2888 6.2803 81.3607 6.48297 81.4663 6.69926H80.2767C80.2452 6.61956 80.2068 6.50149 80.1612 6.34504C80.1412 6.27393 80.1271 6.22697 80.1183 6.20415C79.9129 6.40341 79.6933 6.55275 79.4593 6.6523C79.2252 6.75186 78.9758 6.80164 78.7103 6.80164C78.2422 6.80164 77.8738 6.67497 77.6039 6.42178C77.3344 6.1686 77.1998 5.8486 77.1998 5.46149C77.1998 5.20549 77.261 4.97719 77.3837 4.77645C77.5061 4.57601 77.6782 4.42238 77.8994 4.31556C78.1204 4.20889 78.4392 4.11571 78.8559 4.03601C79.4179 3.93082 79.8072 3.8326 80.0243 3.74149V3.62208C80.0243 3.39156 79.9671 3.22727 79.8531 3.12904C79.7387 3.03097 79.5235 2.98193 79.2066 2.98193C78.9929 2.98193 78.826 3.02386 78.7062 3.10786C78.5864 3.19171 78.4891 3.33897 78.4151 3.54949Z" fill="white"/>
<path d="M84.475 2.16667V3.12267H83.6533V4.94934C83.6533 5.31927 83.6612 5.53482 83.6768 5.59601C83.6926 5.65719 83.7282 5.70771 83.7839 5.74756C83.8393 5.78727 83.9072 5.80727 83.987 5.80727C84.0984 5.80727 84.2594 5.76875 84.4707 5.69201L84.5733 6.62238C84.2936 6.74193 83.9772 6.80164 83.6232 6.80164C83.4064 6.80164 83.2108 6.76534 83.037 6.69289C82.863 6.6203 82.7353 6.52638 82.654 6.41126C82.5726 6.29586 82.5163 6.14015 82.485 5.94386C82.4591 5.80445 82.4463 5.52267 82.4463 5.09882V3.12267H81.8942V2.16667H82.4463V1.26608L83.6533 0.566228V2.16667H84.475Z" fill="white"/>
<path d="M86.2638 4.43304C86.2638 4.88252 86.3706 5.22682 86.5847 5.46578C86.7986 5.70475 87.0626 5.8243 87.3764 5.8243C87.6902 5.8243 87.9533 5.70475 88.166 5.46578C88.3787 5.22682 88.4848 4.87971 88.4848 4.42445C88.4848 3.9806 88.3787 3.63912 88.166 3.40015C87.9533 3.16104 87.6902 3.04164 87.3764 3.04164C87.0626 3.04164 86.7986 3.16104 86.5847 3.40015C86.3706 3.63912 86.2638 3.98341 86.2638 4.43304ZM85.0312 4.36889C85.0312 3.97067 85.1296 3.58504 85.3264 3.2123C85.5234 2.83956 85.8022 2.55512 86.1631 2.35867C86.5241 2.16238 86.9271 2.0643 87.3721 2.0643C88.0598 2.0643 88.6232 2.28697 89.0625 2.73215C89.5018 3.17749 89.7218 3.74015 89.7218 4.42015C89.7218 5.10593 89.4997 5.67423 89.0561 6.12519C88.6125 6.57615 88.054 6.80164 87.3806 6.80164C86.9642 6.80164 86.5667 6.70771 86.1889 6.52001C85.8108 6.33215 85.5234 6.05689 85.3264 5.69408C85.1296 5.33141 85.0312 4.88963 85.0312 4.36889Z" fill="white"/>
<path d="M48.2867 14.8237C48.2867 15.3074 48.3537 15.6574 48.488 15.8737C48.6819 16.1866 48.9528 16.343 49.301 16.343C49.5778 16.343 49.8131 16.2257 50.0072 15.991C50.2012 15.7563 50.2983 15.4055 50.2983 14.9389C50.2983 14.4183 50.2039 14.0434 50.0156 13.8143C49.8273 13.5854 49.5862 13.4707 49.2926 13.4707C49.007 13.4707 48.7683 13.5837 48.5756 13.8101C48.383 14.0362 48.2867 14.3741 48.2867 14.8237ZM51.4965 17.1882H50.3795V16.5222C50.1941 16.7812 49.975 16.974 49.7226 17.1007C49.4702 17.2272 49.2155 17.2905 48.9586 17.2905C48.4367 17.2905 47.9893 17.0808 47.617 16.6611C47.2448 16.2414 47.0585 15.6559 47.0585 14.9048C47.0585 14.1365 47.2399 13.5526 47.6019 13.1528C47.9643 12.7531 48.4222 12.5531 48.9757 12.5531C49.4834 12.5531 49.923 12.7637 50.2938 13.1848V10.9313H51.4965V17.1882Z" fill="white"/>
<path d="M55.1897 15.0114C55.0356 15.0627 54.7917 15.1239 54.4581 15.195C54.1241 15.2661 53.9059 15.3359 53.8032 15.4042C53.6462 15.5151 53.5679 15.6559 53.5679 15.8266C53.5679 15.9946 53.6305 16.1396 53.7561 16.262C53.8815 16.3843 54.0414 16.4455 54.2355 16.4455C54.4523 16.4455 54.659 16.3743 54.8557 16.232C55.0015 16.124 55.0968 15.9916 55.1427 15.8351C55.1741 15.7326 55.1897 15.5378 55.1897 15.2504V15.0114ZM53.5805 14.0384L52.4894 13.8421C52.6118 13.4039 52.8231 13.0796 53.1227 12.8689C53.4222 12.6584 53.8673 12.5531 54.4581 12.5531C54.9942 12.5531 55.3938 12.6165 55.6563 12.7431C55.9186 12.8697 56.1034 13.0306 56.2105 13.2254C56.3175 13.4202 56.371 13.7781 56.371 14.2987L56.3582 15.6986C56.3582 16.0969 56.3774 16.3907 56.4158 16.5799C56.4545 16.7691 56.5265 16.9719 56.632 17.1882H55.4422C55.4109 17.1085 55.3722 16.9904 55.3266 16.8338C55.3067 16.7627 55.2925 16.7158 55.2837 16.6931C55.0783 16.8923 54.8587 17.0415 54.6249 17.141C54.3911 17.2406 54.1412 17.2905 53.876 17.2905C53.4079 17.2905 53.0392 17.164 52.7696 16.9107C52.5001 16.6575 52.3652 16.3373 52.3652 15.9504C52.3652 15.6944 52.4264 15.4661 52.5491 15.2654C52.6718 15.0649 52.8437 14.9111 53.0651 14.8045C53.2861 14.6978 53.6048 14.6046 54.0213 14.5249C54.5833 14.4197 54.9731 14.3215 55.1897 14.2304V14.111C55.1897 13.8805 55.1326 13.7162 55.0185 13.618C54.9046 13.5199 54.6889 13.4707 54.3725 13.4707C54.1583 13.4707 53.9914 13.5128 53.8716 13.5966C53.7518 13.6806 53.6548 13.8279 53.5805 14.0384Z" fill="white"/>
<path d="M57.5564 17.1882V10.9313H58.7591V17.1882H57.5564Z" fill="white"/>
<path d="M59.9912 17.1882V10.9313H61.1937V17.1882H59.9912Z" fill="white"/>
<path d="M62.418 13.1548L62.191 11.9898V10.9313H63.5008V11.9898L63.3038 13.1548H62.418Z" fill="white"/>
<path d="M64.5105 10.9313H65.7772V14.32C65.7772 14.8578 65.7928 15.2064 65.8244 15.3657C65.8785 15.6217 66.0076 15.8273 66.2118 15.9824C66.4158 16.1375 66.6946 16.215 67.0483 16.215C67.4078 16.215 67.6788 16.1418 67.8615 15.9953C68.0441 15.8488 68.154 15.6688 68.1908 15.4553C68.228 15.242 68.2465 14.8877 68.2465 14.3926V10.9313H69.5132V14.2177C69.5132 14.9688 69.4791 15.4994 69.4106 15.8095C69.3421 16.1197 69.2158 16.3814 69.0319 16.5949C68.848 16.8082 68.6017 16.9784 68.2935 17.1049C67.9854 17.2314 67.5833 17.2947 67.0868 17.2947C66.4877 17.2947 66.0334 17.2256 65.7239 17.0878C65.4143 16.9498 65.1696 16.7705 64.9897 16.5501C64.8101 16.3296 64.6917 16.0984 64.6347 15.8565C64.5519 15.498 64.5105 14.9688 64.5105 14.2689V10.9313Z" fill="white"/>
<path d="M74.9743 17.1882H73.7716V14.8749C73.7716 14.3855 73.7459 14.0689 73.6945 13.9252C73.6431 13.7817 73.5599 13.67 73.4441 13.5903C73.3286 13.5106 73.1896 13.4707 73.0269 13.4707C72.8185 13.4707 72.6318 13.5278 72.4663 13.6415C72.301 13.7553 72.1875 13.9061 72.126 14.0938C72.0648 14.2817 72.034 14.6288 72.034 15.1353V17.1882H70.8317V12.6556H71.9485V13.3214C72.3451 12.8092 72.8444 12.5531 73.4464 12.5531C73.7116 12.5531 73.9542 12.6008 74.1738 12.6961C74.3935 12.7915 74.5597 12.9131 74.6726 13.0611C74.7852 13.2091 74.8635 13.3769 74.9079 13.5646C74.952 13.7525 74.9743 14.0214 74.9743 14.3713V17.1882Z" fill="white"/>
<path d="M76.1938 17.1882V12.6556H77.3965V17.1882H76.1938ZM76.1938 12.0409V10.9313H77.3965V12.0409H76.1938Z" fill="white"/>
<path d="M79.5832 14.9218C79.5832 15.3714 79.6903 15.7156 79.9045 15.9546C80.1183 16.1937 80.382 16.3131 80.696 16.3131C81.0099 16.3131 81.273 16.1937 81.4857 15.9546C81.6982 15.7156 81.8047 15.3686 81.8047 14.9134C81.8047 14.4695 81.6982 14.128 81.4857 13.8891C81.273 13.65 81.0099 13.5306 80.696 13.5306C80.382 13.5306 80.1183 13.65 79.9045 13.8891C79.6903 14.128 79.5832 14.4723 79.5832 14.9218ZM78.3508 14.8578C78.3508 14.4596 78.4495 14.074 78.6461 13.7012C78.8431 13.3285 79.122 13.0439 79.4829 12.8476C79.8435 12.6513 80.2468 12.5531 80.6919 12.5531C81.3792 12.5531 81.9427 12.7757 82.3822 13.2211C82.8215 13.6664 83.0412 14.2291 83.0412 14.9091C83.0412 15.5949 82.8196 16.1631 82.3758 16.6141C81.932 17.0651 81.3737 17.2905 80.7003 17.2905C80.2836 17.2905 79.8864 17.1966 79.5085 17.0089C79.1304 16.8211 78.8431 16.5458 78.6461 16.183C78.4495 15.8202 78.3508 15.3786 78.3508 14.8578Z" fill="white"/>
<path d="M88.117 17.1882H86.9143V14.8749C86.9143 14.3855 86.8887 14.0689 86.8375 13.9252C86.7861 13.7817 86.7024 13.67 86.587 13.5903C86.4716 13.5106 86.3322 13.4707 86.1697 13.4707C85.9614 13.4707 85.7746 13.5278 85.6089 13.6415C85.4436 13.7553 85.3301 13.9061 85.2689 14.0938C85.2074 14.2817 85.1769 14.6288 85.1769 15.1353V17.1882H83.9742V12.6556H85.0914V13.3214C85.4877 12.8092 85.987 12.5531 86.5891 12.5531C86.8546 12.5531 87.0968 12.6008 87.3167 12.6961C87.5364 12.7915 87.7026 12.9131 87.8152 13.0611C87.9277 13.2091 88.0064 13.3769 88.0506 13.5646C88.0948 13.7525 88.117 14.0214 88.117 14.3713V17.1882Z" fill="white"/>
<path d="M92.0369 14.5335C92.0283 14.1864 91.9383 13.9226 91.7671 13.7418C91.596 13.5611 91.3879 13.4707 91.1425 13.4707C90.8798 13.4707 90.6631 13.5661 90.492 13.7566C90.3208 13.9474 90.2366 14.2063 90.2396 14.5335H92.0369ZM91.9686 15.7455L93.1668 15.9461C93.0127 16.3843 92.7693 16.718 92.4371 16.947C92.1046 17.1761 91.6888 17.2905 91.1894 17.2905C90.3991 17.2905 89.8142 17.0331 89.435 16.518C89.1352 16.1055 88.9855 15.5848 88.9855 14.956C88.9855 14.2048 89.1823 13.6166 89.576 13.1911C89.9696 12.7658 90.4676 12.5531 91.0697 12.5531C91.7459 12.5531 92.2792 12.7757 92.6703 13.2211C93.0612 13.6664 93.2481 14.3486 93.231 15.2676H90.218C90.2265 15.6231 90.3236 15.8999 90.509 16.0977C90.6944 16.2954 90.9257 16.3943 91.2022 16.3943C91.3905 16.3943 91.5489 16.343 91.6775 16.2406C91.8057 16.1383 91.9026 15.9731 91.9686 15.7455Z" fill="white"/>
<path d="M99.3465 14.5335C99.3378 14.1864 99.2478 13.9226 99.0766 13.7418C98.9055 13.5611 98.6974 13.4707 98.452 13.4707C98.1893 13.4707 97.9726 13.5661 97.8015 13.7566C97.6303 13.9474 97.5461 14.2063 97.5491 14.5335H99.3465ZM99.2781 15.7455L100.476 15.9461C100.322 16.3843 100.079 16.718 99.7466 16.947C99.4141 17.1761 98.9983 17.2905 98.4989 17.2905C97.7086 17.2905 97.1238 17.0331 96.7445 16.518C96.4448 16.1055 96.2952 15.5848 96.2952 14.956C96.2952 14.2048 96.4918 13.6166 96.8855 13.1911C97.2793 12.7658 97.7771 12.5531 98.3792 12.5531C99.0555 12.5531 99.5887 12.7757 99.9798 13.2211C100.371 13.6664 100.558 14.3486 100.54 15.2676H97.5275C97.536 15.6231 97.6332 15.8999 97.8186 16.0977C98.0039 16.2954 98.2352 16.3943 98.5117 16.3943C98.7001 16.3943 98.8584 16.343 98.9871 16.2406C99.1153 16.1383 99.2121 15.9731 99.2781 15.7455Z" fill="white"/>
<path d="M104.512 17.1882V16.5095C104.346 16.7513 104.129 16.942 103.859 17.0814C103.59 17.2208 103.305 17.2905 103.005 17.2905C102.7 17.2905 102.426 17.2236 102.184 17.0899C101.941 16.9562 101.766 16.7685 101.657 16.5266C101.549 16.2848 101.495 15.9504 101.495 15.5236V12.6556H102.697V14.7383C102.697 15.3757 102.719 15.7663 102.763 15.91C102.808 16.0535 102.888 16.1674 103.005 16.2513C103.122 16.3353 103.271 16.3772 103.45 16.3772C103.656 16.3772 103.84 16.3211 104.002 16.2086C104.165 16.0962 104.276 15.9568 104.336 15.7904C104.396 15.6239 104.426 15.2163 104.426 14.5676V12.6556H105.629V17.1882H104.512Z" fill="white"/>
<path d="M108.025 17.1882H106.823V12.6556H107.94V13.3001C108.131 12.9956 108.303 12.795 108.455 12.6983C108.608 12.6015 108.781 12.5531 108.975 12.5531C109.249 12.5531 109.513 12.6286 109.767 12.7793L109.395 13.8249C109.192 13.6941 109.004 13.6286 108.83 13.6286C108.662 13.6286 108.519 13.675 108.402 13.7675C108.285 13.8599 108.193 14.027 108.126 14.2689C108.059 14.5107 108.025 15.0172 108.025 15.7882V17.1882Z" fill="white"/>
<path d="M111.239 14.9218C111.239 15.3714 111.346 15.7156 111.56 15.9546C111.774 16.1937 112.038 16.3131 112.352 16.3131C112.666 16.3131 112.929 16.1937 113.142 15.9546C113.354 15.7156 113.46 15.3686 113.46 14.9134C113.46 14.4695 113.354 14.128 113.142 13.8891C112.929 13.65 112.666 13.5306 112.352 13.5306C112.038 13.5306 111.774 13.65 111.56 13.8891C111.346 14.128 111.239 14.4723 111.239 14.9218ZM110.007 14.8578C110.007 14.4596 110.105 14.074 110.302 13.7012C110.499 13.3285 110.778 13.0439 111.139 12.8476C111.5 12.6513 111.903 12.5531 112.348 12.5531C113.035 12.5531 113.599 12.7757 114.038 13.2211C114.477 13.6664 114.697 14.2291 114.697 14.9091C114.697 15.5949 114.475 16.1631 114.032 16.6141C113.588 17.0651 113.03 17.2905 112.356 17.2905C111.94 17.2905 111.542 17.1966 111.164 17.0089C110.786 16.8211 110.499 16.5458 110.302 16.183C110.105 15.8202 110.007 15.3786 110.007 14.8578Z" fill="white"/>
<path d="M116.794 14.8451C116.794 15.3544 116.895 15.7307 117.098 15.9738C117.301 16.2172 117.548 16.3387 117.839 16.3387C118.118 16.3387 118.35 16.2272 118.536 16.0037C118.721 15.7805 118.814 15.4141 118.814 14.9048C118.814 14.4297 118.719 14.0768 118.527 13.8463C118.336 13.6159 118.099 13.5006 117.817 13.5006C117.523 13.5006 117.279 13.6138 117.085 13.8399C116.891 14.0661 116.794 14.4012 116.794 14.8451ZM115.604 12.6556H116.726V13.3214C116.871 13.0938 117.068 12.9088 117.316 12.7666C117.565 12.6243 117.84 12.5531 118.142 12.5531C118.67 12.5531 119.118 12.7594 119.486 13.172C119.854 13.5846 120.038 14.1593 120.038 14.8962C120.038 15.6531 119.853 16.2414 119.482 16.6611C119.111 17.0808 118.661 17.2905 118.134 17.2905C117.883 17.2905 117.655 17.2406 117.451 17.141C117.247 17.0415 117.032 16.8709 116.807 16.629V18.9124H115.604V12.6556Z" fill="white"/>
<path d="M123.693 14.5335C123.684 14.1864 123.594 13.9226 123.423 13.7418C123.252 13.5611 123.044 13.4707 122.799 13.4707C122.536 13.4707 122.319 13.5661 122.148 13.7566C121.977 13.9474 121.893 14.2063 121.896 14.5335H123.693ZM123.625 15.7455L124.823 15.9461C124.669 16.3843 124.425 16.718 124.093 16.947C123.761 17.1761 123.345 17.2905 122.846 17.2905C122.055 17.2905 121.47 17.0331 121.091 16.518C120.791 16.1055 120.642 15.5848 120.642 14.956C120.642 14.2048 120.838 13.6166 121.232 13.1911C121.626 12.7658 122.124 12.5531 122.726 12.5531C123.402 12.5531 123.935 12.7757 124.326 13.2211C124.717 13.6664 124.904 14.3486 124.887 15.2676H121.874C121.883 15.6231 121.98 15.8999 122.165 16.0977C122.351 16.2954 122.582 16.3943 122.858 16.3943C123.047 16.3943 123.205 16.343 123.334 16.2406C123.462 16.1383 123.559 15.9731 123.625 15.7455Z" fill="white"/>
<path d="M128.375 15.0114C128.221 15.0627 127.977 15.1239 127.643 15.195C127.309 15.2661 127.091 15.3359 126.988 15.4042C126.831 15.5151 126.753 15.6559 126.753 15.8266C126.753 15.9946 126.816 16.1396 126.941 16.262C127.066 16.3843 127.226 16.4455 127.42 16.4455C127.637 16.4455 127.844 16.3743 128.041 16.232C128.186 16.124 128.282 15.9916 128.328 15.8351C128.359 15.7326 128.375 15.5378 128.375 15.2504V15.0114ZM126.766 14.0384L125.674 13.8421C125.797 13.4039 126.008 13.0796 126.308 12.8689C126.607 12.6584 127.052 12.5531 127.643 12.5531C128.179 12.5531 128.579 12.6165 128.841 12.7431C129.104 12.8697 129.288 13.0306 129.395 13.2254C129.503 13.4202 129.556 13.7781 129.556 14.2987L129.543 15.6986C129.543 16.0969 129.562 16.3907 129.601 16.5799C129.639 16.7691 129.711 16.9719 129.817 17.1882H128.627C128.596 17.1085 128.557 16.9904 128.512 16.8338C128.492 16.7627 128.477 16.7158 128.469 16.6931C128.263 16.8923 128.044 17.0415 127.81 17.141C127.576 17.2406 127.326 17.2905 127.061 17.2905C126.593 17.2905 126.224 17.164 125.955 16.9107C125.685 16.6575 125.55 16.3373 125.55 15.9504C125.55 15.6944 125.611 15.4661 125.734 15.2654C125.857 15.0649 126.029 14.9111 126.25 14.8045C126.471 14.6978 126.79 14.6046 127.206 14.5249C127.768 14.4197 128.158 14.3215 128.375 14.2304V14.111C128.375 13.8805 128.318 13.7162 128.203 13.618C128.09 13.5199 127.874 13.4707 127.557 13.4707C127.343 13.4707 127.176 13.5128 127.057 13.5966C126.937 13.6806 126.84 13.8279 126.766 14.0384Z" fill="white"/>
<path d="M47.3383 27.8889V22.4805H48.0744L50.9229 26.7268V22.4805H51.6109V27.8889H50.8748L48.0263 23.6389V27.8889H47.3383Z" fill="white"/>
<path d="M55.4249 26.6272L56.113 26.712C56.0045 27.1129 55.8035 27.4241 55.51 27.6454C55.2165 27.8668 54.8417 27.9774 54.3854 27.9774C53.8108 27.9774 53.3545 27.8016 53.0167 27.4499C52.6813 27.0957 52.5136 26.6001 52.5136 25.9631C52.5136 25.304 52.6837 24.7924 53.0241 24.4284C53.3644 24.0644 53.8059 23.8824 54.3484 23.8824C54.8737 23.8824 55.3028 24.0607 55.6358 24.4173C55.9687 24.774 56.1352 25.2757 56.1352 25.9225C56.1352 25.9619 56.1339 26.0209 56.1315 26.0996H53.2016C53.2263 26.53 53.3484 26.8596 53.5679 27.0883C53.7874 27.3171 54.0611 27.4314 54.3891 27.4314C54.6333 27.4314 54.8417 27.3675 55.0143 27.2396C55.1869 27.1117 55.3238 26.9076 55.4249 26.6272ZM53.2386 25.5536H55.4323C55.4027 25.224 55.3189 24.9769 55.1808 24.8121C54.9687 24.5563 54.6937 24.4284 54.3558 24.4284C54.05 24.4284 53.7923 24.5305 53.5827 24.7346C53.3755 24.9387 53.2608 25.2117 53.2386 25.5536Z" fill="white"/>
<path d="M56.5088 27.8889L57.9441 25.8524L56.6161 23.9709H57.4484L58.0514 24.8895C58.1649 25.0642 58.2561 25.2105 58.3252 25.3286C58.4337 25.1662 58.5335 25.0224 58.6248 24.8969L59.287 23.9709H60.0823L58.7247 25.8155L60.1859 27.8889H59.3684L58.5619 26.6715L58.3473 26.3431L57.3152 27.8889H56.5088Z" fill="white"/>
<path d="M62.1946 27.2949L62.2908 27.8815C62.1034 27.9209 61.9357 27.9406 61.7877 27.9406C61.546 27.9406 61.3586 27.9024 61.2254 27.8262C61.0922 27.7499 60.9985 27.6503 60.9443 27.5274C60.89 27.4019 60.8629 27.14 60.8629 26.7415V24.4874H60.3746V23.9709H60.8629V23.0007L61.525 22.6022V23.9709H62.1946V24.4874H61.525V26.7784C61.525 26.9678 61.5361 27.0896 61.5583 27.1437C61.583 27.1978 61.6212 27.2408 61.673 27.2728C61.7273 27.3048 61.8037 27.3208 61.9024 27.3208C61.9764 27.3208 62.0738 27.3122 62.1946 27.2949Z" fill="white"/>
<path d="M65.4722 25.7676V25.133L67.7694 25.1294V27.1363C67.4168 27.4167 67.053 27.6282 66.6782 27.7708C66.3033 27.911 65.9186 27.9811 65.524 27.9811C64.9913 27.9811 64.5067 27.868 64.0702 27.6417C63.6361 27.413 63.3081 27.0834 63.0861 26.653C62.8642 26.2226 62.7532 25.7418 62.7532 25.2105C62.7532 24.6842 62.8629 24.1935 63.0824 23.7385C63.3044 23.281 63.6225 22.9416 64.0369 22.7203C64.4512 22.4989 64.9284 22.3882 65.4685 22.3882C65.8606 22.3882 66.2145 22.4522 66.5302 22.5801C66.8483 22.7055 67.0974 22.8814 67.2774 23.1076C67.4575 23.3339 67.5943 23.6291 67.6881 23.9931L67.0407 24.1701C66.9593 23.8947 66.8582 23.6782 66.7373 23.5208C66.6165 23.3634 66.4439 23.238 66.2194 23.1445C65.995 23.0486 65.7459 23.0007 65.4722 23.0007C65.1442 23.0007 64.8606 23.0511 64.6213 23.1519C64.3821 23.2503 64.1885 23.3807 64.0406 23.543C63.8951 23.7053 63.7816 23.8836 63.7002 24.0779C63.5621 24.4124 63.4931 24.7752 63.4931 25.1662C63.4931 25.6483 63.5757 26.0517 63.7409 26.3763C63.9086 26.701 64.1515 26.942 64.4697 27.0994C64.7878 27.2568 65.1257 27.3355 65.4833 27.3355C65.794 27.3355 66.0974 27.2765 66.3933 27.1584C66.6893 27.0379 66.9137 26.91 67.0666 26.7748V25.7676H65.4722Z" fill="white"/>
<path d="M71.4354 26.6272L72.1235 26.712C72.015 27.1129 71.814 27.4241 71.5205 27.6454C71.227 27.8668 70.8522 27.9774 70.3959 27.9774C69.8213 27.9774 69.3651 27.8016 69.0272 27.4499C68.6918 27.0957 68.5241 26.6001 68.5241 25.9631C68.5241 25.304 68.6943 24.7924 69.0346 24.4284C69.3749 24.0644 69.8164 23.8824 70.3589 23.8824C70.8842 23.8824 71.3134 24.0607 71.6463 24.4173C71.9792 24.774 72.1457 25.2757 72.1457 25.9225C72.1457 25.9619 72.1445 26.0209 72.142 26.0996H69.2122C69.2368 26.53 69.3589 26.8596 69.5784 27.0883C69.7979 27.3171 70.0716 27.4314 70.3996 27.4314C70.6438 27.4314 70.8522 27.3675 71.0248 27.2396C71.1975 27.1117 71.3343 26.9076 71.4354 26.6272ZM69.2492 25.5536H71.4428C71.4132 25.224 71.3294 24.9769 71.1913 24.8121C70.9792 24.5563 70.7042 24.4284 70.3663 24.4284C70.0605 24.4284 69.8028 24.5305 69.5932 24.7346C69.386 24.9387 69.2714 25.2117 69.2492 25.5536Z" fill="white"/>
<path d="M72.9632 27.8889V23.9709H73.5625V24.528C73.8511 24.0976 74.2679 23.8824 74.8129 23.8824C75.0496 23.8824 75.2667 23.9254 75.464 24.0115C75.6637 24.0951 75.8129 24.2058 75.9116 24.3435C76.0102 24.4813 76.0793 24.6448 76.1187 24.8342C76.1434 24.9572 76.1557 25.1724 76.1557 25.4798V27.8889H75.4899V25.5057C75.4899 25.2351 75.464 25.0334 75.4122 24.9006C75.3604 24.7653 75.2679 24.6584 75.1347 24.5797C75.004 24.4985 74.8499 24.4579 74.6723 24.4579C74.3887 24.4579 74.1433 24.5477 73.9362 24.7272C73.7315 24.9068 73.6291 25.2474 73.6291 25.7491V27.8889H72.9632Z" fill="white"/>
<path d="M79.8698 26.6272L80.5579 26.712C80.4494 27.1129 80.2484 27.4241 79.9549 27.6454C79.6614 27.8668 79.2866 27.9774 78.8303 27.9774C78.2557 27.9774 77.7995 27.8016 77.4616 27.4499C77.1262 27.0957 76.9585 26.6001 76.9585 25.9631C76.9585 25.304 77.1287 24.7924 77.469 24.4284C77.8093 24.0644 78.2508 23.8824 78.7933 23.8824C79.3186 23.8824 79.7477 24.0607 80.0807 24.4173C80.4136 24.774 80.5801 25.2757 80.5801 25.9225C80.5801 25.9619 80.5789 26.0209 80.5764 26.0996H77.6466C77.6712 26.53 77.7933 26.8596 78.0128 27.0883C78.2323 27.3171 78.506 27.4314 78.834 27.4314C79.0782 27.4314 79.2866 27.3675 79.4592 27.2396C79.6318 27.1117 79.7687 26.9076 79.8698 26.6272ZM77.6835 25.5536H79.8772C79.8476 25.224 79.7638 24.9769 79.6257 24.8121C79.4136 24.5563 79.1386 24.4284 78.8007 24.4284C78.4949 24.4284 78.2372 24.5305 78.0276 24.7346C77.8204 24.9387 77.7057 25.2117 77.6835 25.5536Z" fill="white"/>
<path d="M81.3902 27.8889V23.9709H81.9895V24.5649C82.1424 24.287 82.283 24.1037 82.4112 24.0152C82.5419 23.9267 82.685 23.8824 82.8404 23.8824C83.0648 23.8824 83.2929 23.9537 83.5247 24.0964L83.2954 24.7125C83.1326 24.6165 82.9698 24.5686 82.8071 24.5686C82.6616 24.5686 82.5308 24.6129 82.4149 24.7014C82.299 24.7875 82.2164 24.908 82.1671 25.0629C82.0931 25.2991 82.0561 25.5573 82.0561 25.8377V27.8889H81.3902Z" fill="white"/>
<path d="M86.4842 27.4056C86.2375 27.6147 85.9995 27.7622 85.7702 27.8483C85.5433 27.9344 85.2992 27.9774 85.0377 27.9774C84.6062 27.9774 84.2744 27.8729 84.0426 27.6639C83.8108 27.4523 83.6949 27.183 83.6949 26.8559C83.6949 26.6641 83.7381 26.4894 83.8244 26.332C83.9132 26.1722 84.0278 26.0443 84.1684 25.9484C84.3114 25.8524 84.4717 25.7799 84.6493 25.7307C84.78 25.6963 84.9773 25.6631 85.2412 25.6311C85.7788 25.5671 86.1747 25.4909 86.4287 25.4024C86.4311 25.3114 86.4324 25.2536 86.4324 25.229C86.4324 24.9584 86.3695 24.7678 86.2437 24.6571C86.0735 24.5071 85.8208 24.4321 85.4854 24.4321C85.1721 24.4321 84.9403 24.4874 84.7899 24.5981C84.6419 24.7063 84.5322 24.8994 84.4606 25.1773L83.8096 25.0888C83.8688 24.8108 83.9662 24.587 84.1018 24.4173C84.2375 24.2452 84.4335 24.1136 84.69 24.0226C84.9465 23.9291 85.2437 23.8824 85.5815 23.8824C85.9169 23.8824 86.1894 23.9217 86.3991 24.0004C86.6087 24.0791 86.7628 24.1788 86.8615 24.2993C86.9601 24.4173 87.0292 24.5674 87.0686 24.7494C87.0908 24.8625 87.1019 25.0666 87.1019 25.3618V26.2472C87.1019 26.8645 87.1155 27.2556 87.1426 27.4204C87.1722 27.5827 87.229 27.7389 87.3128 27.8889H86.6173C86.5483 27.7512 86.5039 27.5901 86.4842 27.4056ZM86.4287 25.9225C86.187 26.0209 85.8245 26.1045 85.3411 26.1734C85.0673 26.2128 84.8737 26.257 84.7603 26.3062C84.6468 26.3554 84.5593 26.428 84.4976 26.5239C84.436 26.6173 84.4052 26.7219 84.4052 26.8375C84.4052 27.0146 84.4717 27.1621 84.6049 27.2802C84.7406 27.3982 84.9379 27.4573 85.1968 27.4573C85.4533 27.4573 85.6814 27.4019 85.8812 27.2912C86.0809 27.1781 86.2277 27.0244 86.3214 26.8301C86.3929 26.6801 86.4287 26.4587 86.4287 26.166V25.9225Z" fill="white"/>
<path d="M89.5916 27.2949L89.6877 27.8815C89.5003 27.9209 89.3326 27.9406 89.1846 27.9406C88.943 27.9406 88.7555 27.9024 88.6223 27.8262C88.4892 27.7499 88.3955 27.6503 88.3412 27.5274C88.2869 27.4019 88.2598 27.14 88.2598 26.7415V24.4874H87.7715V23.9709H88.2598V23.0007L88.922 22.6022V23.9709H89.5916V24.4874H88.922V26.7784C88.922 26.9678 88.9331 27.0896 88.9553 27.1437C88.9799 27.1978 89.0182 27.2408 89.07 27.2728C89.1242 27.3048 89.2007 27.3208 89.2993 27.3208C89.3733 27.3208 89.4707 27.3122 89.5916 27.2949Z" fill="white"/>
<path d="M90.25 23.2441V22.4805H90.9159V23.2441H90.25ZM90.25 27.8889V23.9709H90.9159V27.8889H90.25Z" fill="white"/>
<path d="M91.6854 25.9299C91.6854 25.2044 91.8876 24.667 92.292 24.3177C92.6299 24.0275 93.0418 23.8824 93.5276 23.8824C94.0677 23.8824 94.5092 24.0595 94.852 24.4136C95.1948 24.7653 95.3662 25.2523 95.3662 25.8746C95.3662 26.3788 95.2897 26.776 95.1368 27.0662C94.9864 27.354 94.7656 27.5778 94.4746 27.7376C94.1861 27.8975 93.8704 27.9774 93.5276 27.9774C92.9776 27.9774 92.5325 27.8016 92.1922 27.4499C91.8543 27.0982 91.6854 26.5915 91.6854 25.9299ZM92.3697 25.9299C92.3697 26.4317 92.4795 26.808 92.699 27.0588C92.9185 27.3072 93.1947 27.4314 93.5276 27.4314C93.8581 27.4314 94.1331 27.306 94.3526 27.0551C94.572 26.8043 94.6818 26.4218 94.6818 25.9078C94.6818 25.4233 94.5708 25.0568 94.3489 24.8084C94.1294 24.5575 93.8556 24.4321 93.5276 24.4321C93.1947 24.4321 92.9185 24.5563 92.699 24.8047C92.4795 25.0531 92.3697 25.4282 92.3697 25.9299Z" fill="white"/>
<path d="M96.1504 27.8889V23.9709H96.7497V24.528C97.0382 24.0976 97.455 23.8824 98 23.8824C98.2368 23.8824 98.4538 23.9254 98.6511 24.0115C98.8509 24.0951 99.0001 24.2058 99.0987 24.3435C99.1974 24.4813 99.2664 24.6448 99.3059 24.8342C99.3306 24.9572 99.3429 25.1724 99.3429 25.4798V27.8889H98.677V25.5057C98.677 25.2351 98.6511 25.0334 98.5993 24.9006C98.5475 24.7653 98.4551 24.6584 98.3219 24.5797C98.1912 24.4985 98.037 24.4579 97.8595 24.4579C97.5759 24.4579 97.3305 24.5477 97.1233 24.7272C96.9186 24.9068 96.8163 25.2474 96.8163 25.7491V27.8889H96.1504Z" fill="white"/>
<path d="M100.467 27.8889V22.4805H104.389V23.1187H101.185V24.7752H104.185V25.4097H101.185V27.2507H104.515V27.8889H100.467Z" fill="white"/>
<path d="M109.065 22.4805H109.782V25.6053C109.782 26.1488 109.721 26.5805 109.597 26.9002C109.474 27.2199 109.251 27.4806 108.928 27.6823C108.607 27.8815 108.185 27.9811 107.663 27.9811C107.155 27.9811 106.739 27.8938 106.416 27.7192C106.093 27.5446 105.862 27.2925 105.724 26.9629C105.586 26.6309 105.517 26.1783 105.517 25.6053V22.4805H106.235V25.6016C106.235 26.0713 106.278 26.4181 106.364 26.6419C106.453 26.8633 106.603 27.0342 106.815 27.1547C107.03 27.2753 107.291 27.3355 107.6 27.3355C108.127 27.3355 108.504 27.2162 108.728 26.9777C108.952 26.7391 109.065 26.2804 109.065 25.6016V22.4805Z" fill="white"/>
</svg>
