<?xml version="1.0" encoding="UTF-8"?>
<svg width="44px" height="44px" viewBox="0 0 44 44" version="1.1" xmlns="http://www.w3.org/2000/svg" xmlns:xlink="http://www.w3.org/1999/xlink">
    <!-- Generator: sketchtool 49.3 (51167) - http://www.bohemiancoding.com/sketch -->
    <title>290EB1DC-9161-4576-BCBF-7583E214F319</title>
    <desc>Created with sketchtool.</desc>
    <defs></defs>
    <g id="v1.1-16092018" stroke="none" stroke-width="1" fill="none" fill-rule="evenodd">
        <g id="2.4.1---aggiunta-metodo-di-pagamento" transform="translate(-305.000000, -261.000000)">
            <g id="Group-2" transform="translate(24.000000, 237.000000)">
                <g id="Icon/Bank" transform="translate(279.000000, 24.000000)">
                    <rect id="Rectangle" x="0" y="0" width="48" height="48"></rect>
                    <path d="M6,38 L42,38 L42,36 L6,36 L6,38 Z M4,34 L44,34 L44,40 L4,40 L4,34 Z M4,14 L44,14 L44,11.8935204 L23.8593071,2.22144664 L4,11.8862485 L4,14 Z M2,10.6353082 L23.8535108,0 L46,10.6353082 L46,16 L2,16 L2,10.6353082 Z M4,42 L44,42 L44,40 L4,40 L4,42 Z M2,38 L46,38 L46,44 L2,44 L2,38 Z M6,16 L10,16 L10,36 L6,36 L6,16 Z M14,16 L18,16 L18,36 L14,36 L14,16 Z M22,16 L26,16 L26,36 L22,36 L22,16 Z M38,16 L42,16 L42,36 L38,36 L38,16 Z M30,16 L34,16 L34,36 L30,36 L30,16 Z" id="Combined-Shape" fill="#0073E6" fill-rule="nonzero"></path>
                </g>
            </g>
        </g>
    </g>
</svg>