<?xml version="1.0" encoding="UTF-8"?>
<svg width="48px" height="34px" viewBox="0 0 48 34" version="1.1" xmlns="http://www.w3.org/2000/svg" xmlns:xlink="http://www.w3.org/1999/xlink">
    <!-- Generator: sketchtool 49.3 (51167) - http://www.bohemiancoding.com/sketch -->
    <title>89F6062A-428F-48F2-B226-7D5234F202CC</title>
    <desc>Created with sketchtool.</desc>
    <defs></defs>
    <g id="v1.1-16092018" stroke="none" stroke-width="1" fill="none" fill-rule="evenodd">
        <g id="2.4.1---aggiunta-metodo-di-pagamento" transform="translate(-303.000000, -173.000000)">
            <g id="Group" transform="translate(24.000000, 141.000000)">
                <g id="Icon/Credit-card" transform="translate(279.000000, 24.000000)">
                    <rect id="Rectangle" x="0" y="0" width="48" height="48"></rect>
                    <path d="M0,14.0002525 C0,10.6864045 2.68354127,8 5.98218083,8 L42.0178192,8 C45.3216864,8 48,10.667923 48,14.0002525 L48,35.9997475 C48,39.3135955 45.3164587,42 42.0178192,42 L5.98218083,42 C2.67831359,42 0,39.332077 0,35.9997475 L0,14.0002525 Z M2,14.0002525 L2,35.9997475 C2,38.2215212 3.77690283,40 5.98218083,40 L42.0178192,40 C44.212613,40 46,38.208295 46,35.9997475 L46,14.0002525 C46,11.7784788 44.2230972,10 42.0178192,10 L5.98218083,10 C3.78738701,10 2,11.791705 2,14.0002525 Z M8,26 L18,26 L18,28 L8,28 L8,26 Z M2,16 L46,16 L46,22 L2,22 L2,16 Z" id="Combined-Shape" fill="#0073E6"></path>
                </g>
            </g>
        </g>
    </g>
</svg>