<?xml version="1.0" encoding="UTF-8"?>
<svg width="26px" height="46px" viewBox="0 0 26 46" version="1.1" xmlns="http://www.w3.org/2000/svg" xmlns:xlink="http://www.w3.org/1999/xlink">
    <!-- Generator: sketchtool 49.3 (51167) - http://www.bohemiancoding.com/sketch -->
    <title>375D7A1B-5EBE-4129-9B8D-6263C1C10E4A</title>
    <desc>Created with sketchtool.</desc>
    <defs></defs>
    <g id="v1.1-16092018" stroke="none" stroke-width="1" fill="none" fill-rule="evenodd">
        <g id="2.4.1---aggiunta-metodo-di-pagamento" transform="translate(-314.000000, -358.000000)">
            <g id="Group-3" transform="translate(24.000000, 333.000000)">
                <g id="Icon/smartphone" transform="translate(279.000000, 24.000000)">
                    <rect id="Rectangle" x="0" y="0" width="48" height="48"></rect>
                    <path d="M11,5.00172845 C11,2.79163485 12.7870853,1 15.0055203,1 L32.9944797,1 C35.2066675,1 37,2.78913646 37,5.00172845 L37,42.9982716 C37,45.2083651 35.2129147,47 32.9944797,47 L15.0055203,47 C12.7933325,47 11,45.2108635 11,42.9982716 L11,5.00172845 Z M13,8.00228533 L13,36.9977147 C13,38.1002151 13.8914705,39 14.991155,39 L33.008845,39 C34.1103261,39 35,38.1035463 35,36.9977147 L35,8.00228533 C35,6.89978493 34.1085295,6 33.008845,6 L14.991155,6 C13.8896739,6 13,6.89645368 13,8.00228533 Z M24,45 C25.1045695,45 26,44.1045695 26,43 C26,41.8954305 25.1045695,41 24,41 C22.8954305,41 22,41.8954305 22,43 C22,44.1045695 22.8954305,45 24,45 Z M20,3 L20,4 L28,4 L28,3 L20,3 Z" id="Combined-Shape" fill="#0073E6"></path>
                </g>
            </g>
        </g>
    </g>
</svg>