<svg width="328" height="205" viewBox="0 0 328 205" fill="none" xmlns="http://www.w3.org/2000/svg">
<path d="M14.5781 0.5H240.947C241.086 9.44966 247.74 16.7373 256.022 16.7373C264.305 16.7372 270.958 9.44957 271.097 0.5H313.422C321.153 0.5 327.5 7.40413 327.5 16.0225V188.978C327.5 197.596 321.153 204.5 313.422 204.5H271.097C271.098 204.405 271.1 204.309 271.1 204.213C271.099 195.134 264.393 187.691 256.022 187.69C247.652 187.69 240.945 195.133 240.944 204.213C240.944 204.309 240.947 204.405 240.948 204.5H14.5781C6.8466 204.5 0.5 197.596 0.5 188.978V16.0225C0.5 7.53864 6.64969 0.715786 14.2168 0.504883L14.5781 0.5Z" fill="#F1ECE6"/>
<path d="M14.5781 0.5H240.947C241.086 9.44966 247.74 16.7373 256.022 16.7373C264.305 16.7372 270.958 9.44957 271.097 0.5H313.422C321.153 0.5 327.5 7.40413 327.5 16.0225V188.978C327.5 197.596 321.153 204.5 313.422 204.5H271.097C271.098 204.405 271.1 204.309 271.1 204.213C271.099 195.134 264.393 187.691 256.022 187.69C247.652 187.69 240.945 195.133 240.944 204.213C240.944 204.309 240.947 204.405 240.948 204.5H14.5781C6.8466 204.5 0.5 197.596 0.5 188.978V16.0225C0.5 7.53864 6.64969 0.715786 14.2168 0.504883L14.5781 0.5Z" stroke="white" style="mix-blend-mode:multiply" stroke-width="2" />
</svg>
