<svg width="28" height="32" viewBox="0 0 28 32" fill="none" xmlns="http://www.w3.org/2000/svg">
<path d="M7.4263 20.5876C7.4263 20.0562 7.05755 19.7393 6.40691 19.7393C6.14123 19.7393 5.9613 19.7655 5.86719 19.7906V21.4956C5.97862 21.5207 6.11561 21.5291 6.30444 21.5291C6.99795 21.5291 7.4263 21.1787 7.4263 20.5876Z" fill="@fillColor"/>
<path d="M11.4533 19.7578C11.162 19.7578 10.9737 19.783 10.8623 19.8091V23.5853C10.9737 23.6114 11.1537 23.6114 11.3163 23.6114C12.4983 23.6198 13.2692 22.9692 13.2692 21.5905C13.2776 20.3917 12.5751 19.7578 11.4533 19.7578Z" fill="@fillColor"/>
<path d="M18.937 0H6.08451C4.20688 0 2.6787 1.52925 2.6787 3.40582V15.9999H2.34605C1.58823 15.9999 0.973633 16.6139 0.973633 17.3724V25.6956C0.973633 26.454 1.58816 27.0679 2.34605 27.0679H2.6787V28.5941C2.6787 30.4727 4.20688 31.9999 6.08451 31.9999H23.6212C25.4976 31.9999 27.026 30.4727 27.026 28.5941V8.06066L18.937 0ZM4.57405 18.8745C4.97625 18.8065 5.5416 18.7552 6.33812 18.7552C7.14306 18.7552 7.71677 18.9089 8.10225 19.2175C8.47048 19.5084 8.71897 19.9884 8.71897 20.5534C8.71897 21.1182 8.53067 21.5984 8.18807 21.9237C7.74246 22.3431 7.08346 22.5314 6.31256 22.5314C6.141 22.5314 5.98721 22.5229 5.86695 22.5063V24.5701H4.57405V18.8745ZM23.6212 29.9142H6.08451C5.35749 29.9142 4.76546 29.3221 4.76546 28.5941V27.0679H21.1132C21.8712 27.0679 22.4857 26.454 22.4857 25.6956V17.3724C22.4857 16.6139 21.8712 15.9999 21.1132 15.9999H4.76546V3.40582C4.76546 2.67985 5.35755 2.08783 6.08451 2.08783L18.1567 2.07521V6.53752C18.1567 7.84091 19.2142 8.89946 20.5186 8.89946L24.8899 8.88691L24.9391 28.5941C24.9391 29.3221 24.3482 29.9142 23.6212 29.9142ZM9.55265 24.544V18.8745C10.0322 18.7981 10.6572 18.7552 11.3168 18.7552C12.413 18.7552 13.1238 18.9519 13.6808 19.3713C14.2802 19.8169 14.6567 20.5272 14.6567 21.547C14.6567 22.6516 14.2545 23.4142 13.6974 23.8848C13.0897 24.3901 12.1645 24.6297 11.0343 24.6297C10.3575 24.6297 9.87793 24.5868 9.55265 24.544ZM18.8994 21.1873V22.2489H16.8267V24.5701H15.5165V18.7981H19.0448V19.8682H16.8267V21.1873H18.8994Z" fill="@fillColor"/>
</svg>
