<svg xmlns="http://www.w3.org/2000/svg" fill="none" viewBox="0 -20.94 81.02 97">
<g clip-path="url(#clip0_1948_36441)">
<path d="M77.1824 -4.94864C74.6904 -8.38773 71.1909 -10.9626 67.1612 -12.303L41.7814 -20.7332C41.3749 -20.8743 40.933 -20.9448 40.5088 -20.9448C40.0847 -20.9448 39.6428 -20.8743 39.2363 -20.7332L13.8388 -12.303C9.80908 -10.9626 6.29195 -8.38773 3.81759 -4.94864C1.32555 -1.50955 0 2.63499 0 6.86772V27.5552C0 58.119 37.2568 74.997 38.8652 75.7024C39.3777 75.9317 39.9433 76.0552 40.5088 76.0552C41.0744 76.0552 41.64 75.9317 42.1525 75.7024C43.7432 74.997 81.0177 58.119 81.0177 27.5552V6.86772C81.0177 2.61736 79.6921 -1.50955 77.2001 -4.94864H77.1824ZM80.7349 27.5552C80.7349 58.0661 43.6195 74.7677 42.0288 75.4555C41.5339 75.6672 41.0214 75.773 40.4912 75.773C39.9609 75.773 39.4484 75.6672 38.9535 75.4555C38.5294 75.2792 28.6496 70.8701 18.9996 62.6163C6.57473 51.9992 0.26511 40.2004 0.26511 27.5552V6.86772C0.26511 2.65263 1.55531 -1.3861 4.02968 -4.78992C6.50404 -8.21137 9.91512 -10.7157 13.9271 -12.0385L39.307 -20.4863C39.6958 -20.6097 40.1023 -20.6803 40.5088 -20.6803C40.9153 -20.6803 41.3218 -20.6097 41.7107 -20.4863L67.0906 -12.0385C71.1026 -10.7157 74.5136 -8.19373 76.988 -4.78992C79.4624 -1.36846 80.7526 2.65263 80.7526 6.86772V27.5552H80.7349Z" fill="url(#paint0_linear_1948_36441)"/>
<path d="M65.7827 -10.4865L41.7107 -18.4934C41.3218 -18.6168 40.9153 -18.6874 40.4912 -18.6874C40.067 -18.6874 39.6782 -18.6168 39.2717 -18.4934L15.1996 -10.4865C11.3644 -9.21664 8.04167 -6.78282 5.69103 -3.52009C3.34039 -0.25736 2.06786 3.67555 2.06786 7.69664V27.3259C2.06786 56.3201 37.4159 72.3339 38.9358 73.0041C39.4307 73.2157 39.9609 73.3392 40.4912 73.3392C41.0214 73.3392 41.5516 73.2334 42.0465 73.0041C43.5664 72.3339 78.9145 56.3201 78.9145 27.3259V7.69664C78.9145 3.67555 77.6419 -0.25736 75.2913 -3.52009C72.9407 -6.78282 69.6003 -9.21664 65.7827 -10.4865ZM78.561 7.74955V27.3083C78.561 56.179 43.4074 71.9988 41.9051 72.669C41.7637 72.7219 41.64 72.7748 41.4986 72.8277C41.1628 72.9335 40.827 72.9688 40.4735 72.9688C39.9786 72.9688 39.5014 72.863 39.0242 72.6514C38.5293 72.4221 29.2151 68.2599 20.1484 60.4999C8.5012 50.5354 2.43901 39.3716 2.43901 27.3259V7.76719C2.43901 7.30864 2.43901 6.79719 2.49203 6.33864C2.73947 2.88191 3.92363 -0.416088 5.97381 -3.25554C6.1152 -3.44954 6.2566 -3.64354 6.41566 -3.83754C8.71328 -6.76518 11.7709 -8.93445 15.3234 -10.1161L39.3777 -18.1406C39.6075 -18.2112 39.8726 -18.2817 40.12 -18.2994C40.2437 -18.2994 40.3674 -18.317 40.5088 -18.317C40.88 -18.317 41.2511 -18.2641 41.6046 -18.1406L65.6766 -10.1337C69.2114 -8.96972 72.2514 -6.81809 74.549 -3.90809C74.7081 -3.69645 74.8848 -3.48482 75.0439 -3.25554C77.0587 -0.468998 78.2429 2.75846 78.508 6.14464C78.5433 6.65609 78.5787 7.23809 78.5787 7.76719L78.561 7.74955Z" fill="url(#paint1_linear_1948_36441)"/>
<path d="M64.4218 -8.68756L41.64 -16.2712C41.2688 -16.3946 40.88 -16.4652 40.4912 -16.4652C40.1023 -16.4652 39.7135 -16.3946 39.3424 -16.2712L16.5606 -8.68756C12.9374 -7.48829 9.7914 -5.17792 7.56448 -2.09156C5.33755 0.994802 4.13572 4.71608 4.13572 8.5079V27.0613C4.13572 54.5035 37.575 69.6532 39.0065 70.2704C39.4661 70.4821 39.9786 70.5879 40.4912 70.5879C41.0037 70.5879 41.4986 70.4821 41.9758 70.2704C43.4074 69.6355 76.8466 54.4859 76.8466 27.0613V8.5079C76.8466 4.69844 75.6448 0.994802 73.4179 -2.09156C71.1909 -5.17792 68.045 -7.48829 64.4218 -8.68756ZM76.3871 8.63135V27.079C76.3871 54.3095 43.1953 69.2475 41.7814 69.8824C41.6576 69.9353 41.5339 69.9883 41.3925 70.0235C41.0921 70.1117 40.7739 70.147 40.4558 70.147C40.014 70.147 39.5544 70.0412 39.1126 69.8295C38.5293 69.565 29.8161 65.6321 21.3149 58.3659C10.4453 49.0715 4.59524 38.5426 4.59524 27.079V8.63135C4.59524 8.20808 4.59524 7.69662 4.64827 7.27335C4.87803 4.01062 5.99149 0.906622 7.91796 -1.77411C8.05935 -1.96811 8.18307 -2.14447 8.32446 -2.32083C10.4807 -5.08974 13.3616 -7.13556 16.7196 -8.24665L39.4484 -15.8126C39.6605 -15.8832 39.9256 -15.9537 40.1377 -15.9714C40.2614 -15.9714 40.3674 -15.989 40.4912 -15.989C40.827 -15.989 41.1628 -15.9361 41.4986 -15.8303L64.2804 -8.24665C67.6031 -7.13556 70.484 -5.12501 72.6225 -2.37374C72.7816 -2.17974 72.9407 -1.9681 73.082 -1.75647C74.9732 0.871349 76.0866 3.92244 76.3341 7.11462C76.3694 7.57317 76.3871 8.15517 76.3871 8.63135Z" fill="url(#paint2_linear_1948_36441)"/>
<path d="M63.0609 -6.871L41.5869 -14.0137C41.2335 -14.1372 40.8623 -14.1901 40.5088 -14.1901C40.1553 -14.1901 39.7842 -14.1372 39.4307 -14.0137L17.9568 -6.871C14.5457 -5.74228 11.5765 -3.55537 9.47327 -0.645366C7.37006 2.26464 6.23892 5.77427 6.23892 9.35445V26.8497C6.23892 52.7223 37.7694 67.0077 39.1303 67.6074C39.5721 67.8014 40.0493 67.9072 40.5265 67.9072C41.0037 67.9072 41.4809 67.8014 41.9227 67.6074C43.266 67.0077 74.8141 52.7223 74.8141 26.8497V9.35445C74.8141 5.75664 73.683 2.26464 71.5798 -0.645366C69.4765 -3.55537 66.5073 -5.74228 63.0962 -6.871H63.0609ZM74.2309 9.51318V26.8497C74.2309 52.4577 43.0009 66.5139 41.6753 67.0959C41.5516 67.1488 41.4279 67.1841 41.3042 67.2194C41.0214 67.3076 40.7386 67.3428 40.4558 67.3252C40.0493 67.3252 39.6251 67.2194 39.201 67.0254C38.547 66.7256 30.417 63.0396 22.4813 56.2495C12.3895 47.6077 6.78682 37.7137 6.78682 26.8497V9.51318C6.78682 9.14282 6.78682 8.61372 6.82216 8.24336C7.01658 5.17463 8.05935 2.26463 9.86209 -0.257366C9.98581 -0.43373 10.1095 -0.610094 10.2509 -0.768821C12.2658 -3.379 14.9876 -5.30137 18.1335 -6.34191L39.5368 -13.467C39.7312 -13.5375 39.9963 -13.5905 40.1907 -13.6081C40.2967 -13.6081 40.4028 -13.6257 40.5265 -13.6257C40.827 -13.6257 41.1451 -13.5728 41.4279 -13.4846L62.9018 -6.34191C66.0301 -5.30137 68.7166 -3.39664 70.7314 -0.82173C70.8728 -0.627729 71.0142 -0.43373 71.1556 -0.23973C72.923 2.22936 73.9481 5.10409 74.1778 8.10227C74.2132 8.52554 74.2309 9.10755 74.2309 9.53082V9.51318Z" fill="url(#paint3_linear_1948_36441)"/>
<path d="M61.7 -5.07211L41.5339 -11.7916C41.1981 -11.8974 40.8623 -11.9503 40.5088 -11.9503C40.1554 -11.9503 39.8195 -11.8974 39.4837 -11.7916L19.3177 -5.07211C16.1187 -4.01392 13.3262 -1.9681 11.3467 0.765532C9.36723 3.49917 8.30679 6.79716 8.30679 10.1657V26.6028C8.30679 50.9057 37.9284 64.327 39.201 64.8913C39.6075 65.0677 40.0493 65.1735 40.5088 65.1735C40.9684 65.1735 41.4102 65.0853 41.8167 64.8913C43.0892 64.327 72.7109 50.9057 72.7109 26.6028V10.1657C72.7109 6.79716 71.6504 3.49917 69.6709 0.765532C67.6915 -1.9681 64.899 -4.01392 61.7 -5.07211ZM72.0569 10.395V26.6204C72.0569 50.5883 42.7888 63.7626 41.5516 64.3093C41.4456 64.3623 41.3218 64.3975 41.2158 64.4328C40.9684 64.5033 40.7032 64.5386 40.4381 64.521C40.0847 64.521 39.6782 64.4152 39.2717 64.2212C38.5293 63.8861 31.0002 60.4293 23.6478 54.1332C14.3336 46.1615 8.96072 36.9024 8.96072 26.6204V10.395C8.96072 10.0775 8.96072 9.5308 8.99607 9.21335C9.17281 6.33862 10.1272 3.62262 11.8062 1.25935C11.93 1.10062 12.036 0.924258 12.1597 0.765532C14.0332 -1.66829 16.5782 -3.4672 19.5121 -4.45483L39.5898 -11.139C39.7488 -11.1919 40.014 -11.2625 40.1907 -11.2801C40.2967 -11.2801 40.4028 -11.2977 40.4912 -11.2977C40.7739 -11.2977 41.0391 -11.2448 41.3042 -11.1743L61.4702 -4.45483C64.3864 -3.48483 66.9138 -1.70356 68.7872 0.712621C68.9286 0.888985 69.0524 1.06535 69.1938 1.25935C70.8374 3.58735 71.7918 6.25044 71.9862 9.07226C72.0216 9.44262 72.0393 10.0246 72.0393 10.395H72.0569Z" fill="url(#paint4_linear_1948_36441)"/>
<path d="M60.3214 -3.25555L41.4456 -9.5341C41.1451 -9.63992 40.8093 -9.69283 40.4912 -9.69283C40.173 -9.69283 39.8549 -9.63992 39.5368 -9.5341L20.6609 -3.25555C17.6563 -2.26792 15.0583 -0.345552 13.2025 2.21172C11.3467 4.76899 10.357 7.85536 10.357 10.9946V26.3735C10.357 49.1068 38.0698 61.6639 39.254 62.193C39.6428 62.3694 40.0493 62.4575 40.4735 62.4575C40.8977 62.4575 41.3042 62.3694 41.693 62.193C42.8772 61.6639 70.59 49.1068 70.59 26.3735V10.9946C70.59 7.83772 69.6003 4.76899 67.7445 2.21172C65.8887 -0.345552 63.2906 -2.26792 60.2861 -3.25555H60.3214ZM69.8654 11.2768V26.3735C69.8654 48.7012 42.5767 60.9937 41.4102 61.5052C41.3042 61.5581 41.1981 61.5934 41.0921 61.611C40.8623 61.6639 40.6326 61.6992 40.4028 61.6815C40.0847 61.6815 39.7135 61.5757 39.3247 61.3994C38.5117 61.0114 31.5481 57.8015 24.779 51.9992C16.2424 44.6801 11.0993 36.0559 11.0993 26.3735V11.2592C11.0993 10.977 11.0993 10.4303 11.1346 10.1657C11.276 7.50263 12.1774 4.94536 13.715 2.75845C13.8211 2.59972 13.9271 2.45863 14.0508 2.2999C15.8006 0.0248117 18.1512 -1.65064 20.8907 -2.5501L39.6428 -8.79337C39.7842 -8.84628 40.0493 -8.91683 40.1907 -8.93446C40.2791 -8.93446 40.3851 -8.9521 40.4735 -8.9521C40.7209 -8.9521 40.9507 -8.91683 41.1804 -8.82864L60.0563 -2.5501C62.7781 -1.65064 65.1287 0.00717449 66.8608 2.26463C66.9845 2.42336 67.1082 2.59972 67.2319 2.77608C68.7519 4.94536 69.6356 7.43209 69.7947 10.0599C69.8124 10.3774 69.83 10.9594 69.83 11.2768H69.8654Z" fill="url(#paint5_linear_1948_36441)"/>
<path d="M58.9605 -1.45664L41.3925 -7.31191C41.1098 -7.40009 40.8093 -7.453 40.5088 -7.453C40.2084 -7.453 39.9079 -7.40009 39.6251 -7.31191L22.0572 -1.45664C19.2647 -0.521912 16.8257 1.25936 15.1113 3.64027C13.3969 6.02118 12.4602 8.89591 12.4602 11.8235V26.1443C12.4602 47.3079 38.2642 59.0008 39.3777 59.4946C39.7312 59.6534 40.12 59.7415 40.5088 59.7415C40.8977 59.7415 41.2865 59.6534 41.64 59.4946C42.7534 59.0008 68.5575 47.3079 68.5575 26.1443V11.8235C68.5575 8.87827 67.6385 6.02118 65.9064 3.64027C64.192 1.25936 61.753 -0.521912 58.9605 -1.45664ZM67.7091 12.1586V26.1443C67.7091 46.8494 42.3823 58.2424 41.3042 58.7186C41.2158 58.7539 41.1098 58.7892 41.0037 58.8068C40.8093 58.8597 40.6149 58.8774 40.4028 58.8597C40.12 58.8597 39.8019 58.7539 39.413 58.5775C38.5117 58.1543 32.149 55.1737 25.9455 49.8652C18.1866 43.2163 13.2732 35.227 13.2732 26.1266V12.1234C13.2732 11.8941 13.2732 11.3297 13.2909 11.1005C13.4146 8.63136 14.2276 6.26809 15.6592 4.23991C15.7652 4.09881 15.8536 3.95772 15.9596 3.81663C17.568 1.70027 19.7419 0.148269 22.2693 -0.68064L39.6958 -6.483C39.8196 -6.51828 40.0847 -6.58882 40.2084 -6.60646C40.2968 -6.60646 40.3851 -6.62409 40.4735 -6.62409C40.6856 -6.62409 40.8977 -6.58882 41.0921 -6.51828L58.66 -0.663003C61.1698 0.165906 63.3437 1.71791 64.952 3.81663C65.0757 3.97536 65.1818 4.13409 65.2878 4.29282C66.6841 6.30336 67.4971 8.61372 67.6385 11.0475C67.6561 11.3121 67.6738 11.9117 67.6738 12.1586H67.7091Z" fill="url(#paint6_linear_1948_36441)"/>
<path d="M57.5996 0.359898L41.3218 -5.05447C41.0567 -5.14265 40.7739 -5.19556 40.5088 -5.19556C40.2437 -5.19556 39.9609 -5.14265 39.6958 -5.05447L23.4181 0.359898C20.8377 1.22408 18.5754 2.86426 16.9847 5.06881C15.3941 7.27335 14.528 9.93644 14.528 12.6524V25.915C14.528 45.509 38.4233 56.3377 39.4484 56.7963C39.7842 56.9374 40.1377 57.0255 40.5088 57.0255C40.88 57.0255 41.2335 56.955 41.5693 56.7963C42.5944 56.3377 66.4896 45.5266 66.4896 25.915V12.6524C66.4896 9.93644 65.6413 7.27335 64.0329 5.06881C62.4423 2.86426 60.18 1.20644 57.5996 0.359898ZM65.5352 13.0404V25.915C65.5352 44.9799 42.1702 55.4912 41.1804 55.9321C41.0921 55.9674 41.0037 56.0026 40.9153 56.0203C40.7386 56.0555 40.5795 56.0732 40.4028 56.0555C40.173 56.0555 39.8726 55.9497 39.5191 55.791C38.547 55.3324 32.7676 52.5988 27.1473 47.7664C20.166 41.7701 15.5001 34.4334 15.5001 25.915V13.0404C15.5001 12.8641 15.5001 12.2821 15.5178 12.1057C15.6238 9.83063 16.3485 7.66135 17.6563 5.7919C17.7447 5.66844 17.8331 5.52735 17.9391 5.4039C19.4061 3.4639 21.4032 2.03535 23.7362 1.25935L39.8372 -4.1021C39.9256 -4.13737 40.1907 -4.20792 40.2967 -4.22556C40.3674 -4.22556 40.4558 -4.24319 40.5265 -4.24319C40.7033 -4.24319 40.88 -4.20792 41.0567 -4.15501L57.3345 1.25935C59.6498 2.03535 61.647 3.44626 63.1139 5.38626C63.2199 5.52735 63.326 5.66844 63.432 5.82717C64.7222 7.67899 65.4469 9.81299 65.5529 12.0528C65.5529 12.2644 65.5706 12.8641 65.5706 13.0757L65.5352 13.0404Z" fill="url(#paint7_linear_1948_36441)"/>
<path d="M56.221 2.15881L41.2511 -2.81464C41.0037 -2.90282 40.7563 -2.9381 40.4912 -2.9381C40.2261 -2.9381 39.9786 -2.90282 39.7312 -2.81464L24.7613 2.15881C22.3753 2.95245 20.3074 4.46918 18.8405 6.49736C17.3736 8.52554 16.5782 10.977 16.5959 13.4637V25.6681C16.5959 43.7101 38.5824 53.6746 39.5191 54.0803C39.8196 54.2214 40.1554 54.2919 40.4912 54.2919C40.827 54.2919 41.1628 54.2214 41.4632 54.0803C42.4 53.657 64.3864 43.7101 64.3864 25.6681V13.4637C64.3864 10.9594 63.6088 8.52554 62.1418 6.49736C60.6749 4.46918 58.607 2.95245 56.221 2.15881ZM63.3613 13.9223V25.6857C63.3613 43.1281 41.9581 52.7575 41.0391 53.1455C40.9507 53.1808 40.88 53.1985 40.7916 53.2161C40.6502 53.2514 40.5088 53.2514 40.3498 53.2161C40.1554 53.1985 39.8902 53.1103 39.5544 52.9515C38.494 52.4401 33.2978 49.9534 28.2607 45.6148C22.0572 40.2886 17.621 33.5692 17.621 25.6504V13.887C17.621 13.7459 17.621 13.1639 17.621 13.0405C17.6917 10.9594 18.3456 8.98409 19.5298 7.27336C19.6182 7.14991 19.6889 7.04409 19.7772 6.92063C21.1204 5.13936 22.9409 3.83427 25.0618 3.12881L39.8372 -1.79173C39.8372 -1.79173 40.173 -1.89755 40.2437 -1.89755C40.3144 -1.89755 40.3851 -1.91519 40.4558 -1.91519C40.5972 -1.91519 40.7386 -1.89755 40.88 -1.84464L55.8499 3.14645C57.9708 3.8519 59.7735 5.157 61.1167 6.92063C61.2228 7.04409 61.3112 7.18518 61.3995 7.32627C62.566 9.01936 63.2023 10.977 63.2906 13.0228C63.2906 13.1815 63.3083 13.7812 63.3083 13.9399L63.3613 13.9223Z" fill="url(#paint8_linear_1948_36441)"/>
<path d="M54.8601 3.97537L41.1805 -0.574815C40.9507 -0.64536 40.7209 -0.680634 40.4912 -0.680634C40.2614 -0.680634 40.0316 -0.64536 39.8019 -0.574815L26.1222 3.97537C23.9483 4.69846 22.0572 6.07409 20.7139 7.94355C19.3707 9.79536 18.6461 12.0175 18.6638 14.3103V25.4565C18.6638 41.9288 38.7414 51.0292 39.6075 51.3995C39.8902 51.523 40.1907 51.5935 40.4912 51.5935C40.7916 51.5935 41.0921 51.523 41.3749 51.3995C42.2409 51.0292 62.3186 41.9288 62.3186 25.4565V14.3103C62.3186 12.0175 61.5939 9.79536 60.2684 7.94355C58.9252 6.09173 57.034 4.69846 54.8601 3.97537ZM61.1874 14.8041V25.4388C61.1874 41.241 41.746 49.9886 40.9153 50.359C40.8446 50.3943 40.774 50.4119 40.6856 50.4119C40.5619 50.4295 40.4558 50.4295 40.3321 50.4119C40.1907 50.3943 39.9433 50.3061 39.6251 50.1474C38.494 49.6006 33.8811 47.3432 29.4096 43.4985C23.9836 38.8425 19.7772 32.7579 19.7772 25.4212V14.7688C19.7772 14.6806 19.7772 14.0986 19.7772 13.9928C19.8302 12.1234 20.4135 10.3245 21.4739 8.77246C21.5446 8.66664 21.6153 8.56082 21.7037 8.455C22.9055 6.83246 24.5492 5.65082 26.458 5.01591L39.9079 0.536276C39.9079 0.536276 40.2261 0.430457 40.2791 0.430457C40.3321 0.430457 40.4028 0.412821 40.4735 0.412821C40.5795 0.412821 40.7033 0.430458 40.8093 0.465731L54.489 5.01591C56.3978 5.65082 58.0415 6.83246 59.2433 8.43737C59.3317 8.56082 59.42 8.68428 59.5084 8.79009C60.5512 10.3245 61.1167 12.0881 61.1698 13.9399C61.1698 14.0457 61.1698 14.6454 61.1698 14.7512L61.1874 14.8041Z" fill="url(#paint9_linear_1948_36441)"/>
<path d="M53.4992 5.77426L41.1274 1.66499C40.933 1.59445 40.7209 1.55917 40.5088 1.55917C40.2968 1.55917 40.0847 1.59445 39.8902 1.66499L27.5184 5.77426C25.5566 6.42681 23.8422 7.67899 22.6227 9.35445C21.4032 11.0299 20.767 13.0404 20.767 15.1215V25.2095C20.767 40.1123 38.9359 48.3484 39.7135 48.6835C39.9609 48.7894 40.2437 48.8599 40.5088 48.8599C40.774 48.8599 41.0567 48.807 41.3042 48.6835C42.0818 48.3484 60.2507 40.1123 60.2507 25.2095V15.1215C60.2507 13.0581 59.5968 11.0299 58.3949 9.35445C57.1754 7.67899 55.4787 6.42681 53.4992 5.77426ZM59.0135 15.6859V25.2095C59.0135 39.3715 41.5339 47.2374 40.7916 47.5724C40.7209 47.6077 40.6679 47.6254 40.5972 47.6254C40.5088 47.6254 40.4205 47.6254 40.3321 47.6077C40.2261 47.5901 40.014 47.5019 39.7135 47.3608C38.494 46.7788 34.482 44.7506 30.5937 41.3997C25.9455 37.3963 21.9688 31.9466 21.9688 25.2095V15.6683C21.9688 15.6683 21.9688 15.0334 21.9688 14.9804C21.9865 13.305 22.499 11.7001 23.4357 10.3068C23.5064 10.2186 23.5595 10.1128 23.6302 10.0246C24.6906 8.57844 26.1575 7.50263 27.8719 6.93826L39.9963 2.89954C39.9963 2.89954 40.2968 2.81135 40.3144 2.79372C40.3674 2.79372 40.4205 2.77608 40.4735 2.77608C40.5619 2.77608 40.6326 2.77608 40.7033 2.81136L53.0751 6.92063C54.7894 7.48499 56.2387 8.54317 57.3168 9.98936C57.3875 10.0952 57.4759 10.201 57.5466 10.3068C58.4656 11.6824 58.9605 13.2697 58.9959 14.9275C58.9959 14.9804 58.9959 15.5977 58.9959 15.6506L59.0135 15.6859Z" fill="url(#paint10_linear_1948_36441)"/>
<path d="M52.1383 7.57318L41.0567 3.88718C40.88 3.83427 40.6856 3.799 40.4912 3.799C40.2967 3.799 40.12 3.83427 39.9256 3.88718L28.844 7.57318C27.0766 8.15518 25.5566 9.28391 24.4608 10.783C23.365 12.2821 22.7995 14.081 22.7995 15.9328V24.9626C22.7995 38.2957 39.0596 45.6677 39.7489 45.9675C39.9786 46.0734 40.2261 46.1263 40.4735 46.1263C40.7209 46.1263 40.9684 46.0734 41.1981 45.9675C41.8874 45.6677 58.1475 38.2957 58.1475 24.9626V15.9328C58.1475 14.081 57.5643 12.2821 56.4861 10.783C55.408 9.28391 53.8704 8.15518 52.103 7.57318H52.1383ZM56.8573 24.9626C56.8573 37.5021 41.3572 44.4685 40.6856 44.7683C40.6326 44.7859 40.5619 44.8035 40.5088 44.8035C40.4558 44.8035 40.3851 44.8035 40.3321 44.7683C39.6782 44.4861 24.1604 37.5021 24.1604 24.9626V15.9328C24.1604 14.3455 24.6552 12.8288 25.5743 11.5414C26.4933 10.2539 27.7835 9.31918 29.3035 8.80773L40.3674 5.12172C40.3674 5.12172 40.4558 5.10409 40.5088 5.10409C40.5619 5.10409 40.5972 5.10409 40.6502 5.12172L51.7318 8.80773C53.2341 9.30154 54.5243 10.2539 55.4434 11.5414C56.3624 12.8288 56.8573 14.3455 56.8573 15.9328V24.9626Z" fill="url(#paint11_linear_1948_36441)"/>
<path d="M47.4901 19.2132L38.8475 27.661L33.5099 22.4583C33.2448 22.2114 32.8206 22.2114 32.5732 22.4583C32.3081 22.7228 32.3258 23.1461 32.5732 23.393L38.3703 29.0543C38.494 29.1777 38.6707 29.2483 38.8298 29.2483C38.9889 29.2483 39.1656 29.1777 39.2893 29.0543L48.3914 20.1479C48.6566 19.8834 48.6566 19.4777 48.3914 19.2132C48.1263 18.9486 47.7198 18.9486 47.4547 19.2132H47.4901Z" fill="url(#paint12_linear_1948_36441)"/>
</g>
<defs>
<linearGradient id="paint0_linear_1948_36441" x1="40.5088" y1="-20.9448" x2="40.5088" y2="76.0552" gradientUnits="userSpaceOnUse">
<stop stop-color="#C3CFEF"/>
<stop offset="0.165" stop-color="#BCC3D8"/>
<stop offset="0.37" stop-color="#BBCAF5"/>
<stop offset="0.705" stop-color="#5A6585"/>
<stop offset="1" stop-color="#9DAEE0"/>
</linearGradient>
<linearGradient id="paint1_linear_1948_36441" x1="40.4912" y1="-18.6874" x2="40.4912" y2="73.3392" gradientUnits="userSpaceOnUse">
<stop stop-color="#C3CFEF"/>
<stop offset="0.165" stop-color="#BCC3D8"/>
<stop offset="0.37" stop-color="#BBCAF5"/>
<stop offset="0.705" stop-color="#5A6585"/>
<stop offset="1" stop-color="#9DAEE0"/>
</linearGradient>
<linearGradient id="paint2_linear_1948_36441" x1="40.4912" y1="-16.4652" x2="40.4912" y2="70.5879" gradientUnits="userSpaceOnUse">
<stop stop-color="#C3CFEF"/>
<stop offset="0.165" stop-color="#BCC3D8"/>
<stop offset="0.37" stop-color="#BBCAF5"/>
<stop offset="0.705" stop-color="#5A6585"/>
<stop offset="1" stop-color="#9DAEE0"/>
</linearGradient>
<linearGradient id="paint3_linear_1948_36441" x1="40.5265" y1="-14.1901" x2="40.5265" y2="67.9072" gradientUnits="userSpaceOnUse">
<stop stop-color="#C3CFEF"/>
<stop offset="0.165" stop-color="#BCC3D8"/>
<stop offset="0.37" stop-color="#BBCAF5"/>
<stop offset="0.705" stop-color="#5A6585"/>
<stop offset="1" stop-color="#9DAEE0"/>
</linearGradient>
<linearGradient id="paint4_linear_1948_36441" x1="40.5088" y1="-11.9503" x2="40.5088" y2="65.1735" gradientUnits="userSpaceOnUse">
<stop stop-color="#C3CFEF"/>
<stop offset="0.165" stop-color="#BCC3D8"/>
<stop offset="0.37" stop-color="#BBCAF5"/>
<stop offset="0.705" stop-color="#5A6585"/>
<stop offset="1" stop-color="#9DAEE0"/>
</linearGradient>
<linearGradient id="paint5_linear_1948_36441" x1="40.4735" y1="-9.69283" x2="40.4735" y2="62.4575" gradientUnits="userSpaceOnUse">
<stop stop-color="#C3CFEF"/>
<stop offset="0.165" stop-color="#BCC3D8"/>
<stop offset="0.37" stop-color="#BBCAF5"/>
<stop offset="0.705" stop-color="#5A6585"/>
<stop offset="1" stop-color="#9DAEE0"/>
</linearGradient>
<linearGradient id="paint6_linear_1948_36441" x1="40.5088" y1="-7.453" x2="40.5088" y2="59.7415" gradientUnits="userSpaceOnUse">
<stop stop-color="#C3CFEF"/>
<stop offset="0.165" stop-color="#BCC3D8"/>
<stop offset="0.37" stop-color="#BBCAF5"/>
<stop offset="0.705" stop-color="#5A6585"/>
<stop offset="1" stop-color="#9DAEE0"/>
</linearGradient>
<linearGradient id="paint7_linear_1948_36441" x1="40.5088" y1="-5.19556" x2="40.5088" y2="57.0255" gradientUnits="userSpaceOnUse">
<stop stop-color="#C3CFEF"/>
<stop offset="0.165" stop-color="#BCC3D8"/>
<stop offset="0.37" stop-color="#BBCAF5"/>
<stop offset="0.705" stop-color="#5A6585"/>
<stop offset="1" stop-color="#9DAEE0"/>
</linearGradient>
<linearGradient id="paint8_linear_1948_36441" x1="40.491" y1="-2.9381" x2="40.491" y2="54.2919" gradientUnits="userSpaceOnUse">
<stop stop-color="#C3CFEF"/>
<stop offset="0.165" stop-color="#BCC3D8"/>
<stop offset="0.37" stop-color="#BBCAF5"/>
<stop offset="0.705" stop-color="#5A6585"/>
<stop offset="1" stop-color="#9DAEE0"/>
</linearGradient>
<linearGradient id="paint9_linear_1948_36441" x1="40.491" y1="-0.680634" x2="40.491" y2="51.5935" gradientUnits="userSpaceOnUse">
<stop stop-color="#C3CFEF"/>
<stop offset="0.165" stop-color="#BCC3D8"/>
<stop offset="0.37" stop-color="#BBCAF5"/>
<stop offset="0.705" stop-color="#5A6585"/>
<stop offset="1" stop-color="#9DAEE0"/>
</linearGradient>
<linearGradient id="paint10_linear_1948_36441" x1="40.5088" y1="1.55917" x2="40.5088" y2="48.8599" gradientUnits="userSpaceOnUse">
<stop stop-color="#C3CFEF"/>
<stop offset="0.165" stop-color="#BCC3D8"/>
<stop offset="0.37" stop-color="#BBCAF5"/>
<stop offset="0.705" stop-color="#5A6585"/>
<stop offset="1" stop-color="#9DAEE0"/>
</linearGradient>
<linearGradient id="paint11_linear_1948_36441" x1="40.4735" y1="3.799" x2="40.4735" y2="46.1263" gradientUnits="userSpaceOnUse">
<stop stop-color="#C3CFEF"/>
<stop offset="0.165" stop-color="#BCC3D8"/>
<stop offset="0.37" stop-color="#BBCAF5"/>
<stop offset="0.705" stop-color="#5A6585"/>
<stop offset="1" stop-color="#9DAEE0"/>
</linearGradient>
<linearGradient id="paint12_linear_1948_36441" x1="40.4856" y1="19.0148" x2="40.4856" y2="29.2483" gradientUnits="userSpaceOnUse">
<stop stop-color="#C3CFEF"/>
<stop offset="0.165" stop-color="#BCC3D8"/>
<stop offset="0.37" stop-color="#BBCAF5"/>
<stop offset="0.705" stop-color="#5A6585"/>
<stop offset="1" stop-color="#9DAEE0"/>
</linearGradient>
<clipPath id="clip0_1948_36441">
<rect width="81" height="97" fill="white" transform="translate(0 -20.9448)"/>
</clipPath>
</defs>
</svg>