<svg width="60" height="60" viewBox="0 0 60 60" fill="none" xmlns="http://www.w3.org/2000/svg">
<rect width="60" height="60" rx="13" fill="#0B3EE3"/>
<mask id="mask0_1344_407" style="mask-type:luminance" maskUnits="userSpaceOnUse" x="17" y="17" width="28" height="24">
<path fill-rule="evenodd" clip-rule="evenodd" d="M19.9043 17C21.5082 17 22.8085 18.3003 22.8085 19.9043C22.8085 21.5082 21.5082 22.8085 19.9043 22.8085C18.3003 22.8085 17 21.5082 17 19.9043C17 18.3003 18.3003 17 19.9043 17ZM44.3001 30.9404C44.3001 36.0731 40.1392 40.234 35.449 40.234C29.8738 40.234 25.7129 36.0731 25.7129 30.9404C25.7129 25.8077 29.8738 21.6468 35.449 21.6468C40.1392 21.6468 44.3001 25.8077 44.3001 30.9404ZM22.2275 28.0363C22.2275 26.7531 21.1873 25.7129 19.9041 25.7129C18.6209 25.7129 17.5807 26.7531 17.5807 28.0363V37.9107C17.5807 39.1939 18.6209 40.2341 19.9041 40.2341C21.1873 40.2341 22.2275 39.1939 22.2275 37.9107V28.0363ZM37.2897 29.9652H38.527V28.7477H37.2986V27.2754H35.9545V32.1736C35.9545 32.9475 36.0614 33.476 36.2839 33.7591C36.4975 34.0517 36.907 34.1933 37.5123 34.1933C37.7437 34.1933 38.0908 34.1366 38.5359 34.0328L38.4736 32.9003L37.7081 32.9192C37.5746 32.9192 37.4766 32.8908 37.4143 32.8248C37.352 32.7587 37.3164 32.6832 37.3075 32.5983C37.2986 32.5039 37.2897 32.3623 37.2897 32.1453V29.9652ZM33.2394 28.7571V34.0706H34.5835V28.7571H33.2394ZM31.2216 28.6247C31.4565 28.6247 31.6553 28.7038 31.8089 28.862C31.9625 29.0203 32.0348 29.2137 32.0348 29.451C32.0348 29.6884 31.9625 29.873 31.8089 30.0313C31.6643 30.1719 31.4746 30.251 31.2306 30.251C30.9957 30.251 30.7969 30.1719 30.6433 30.0137C30.4897 29.8554 30.4084 29.662 30.4084 29.4335C30.4084 29.2049 30.4897 29.0115 30.6343 28.8532C30.7879 28.695 30.9867 28.6247 31.2216 28.6247Z" fill="white"/>
</mask>
<g mask="url(#mask0_1344_407)">
<rect x="-28.145" y="-28.4683" width="116.17" height="116.17" fill="white"/>
</g>
</svg>
