<svg width="48" height="48" viewBox="0 0 48 48" fill="none" xmlns="http://www.w3.org/2000/svg">
<path d="M0 4C0 1.79086 1.79086 0 4 0H44C46.2091 0 48 1.79086 48 4V44C48 46.2091 46.2091 48 44 48H4C1.79086 48 0 46.2091 0 44V4Z" fill="url(#paint0_linear)"/>
<mask id="mask0" style="mask-type:alpha" maskUnits="userSpaceOnUse" x="12" y="14" width="24" height="20">
<path fill-rule="evenodd" clip-rule="evenodd" d="M14.5 14C15.8807 14 17 15.1193 17 16.5C17 17.8807 15.8807 19 14.5 19C13.1193 19 12 17.8807 12 16.5C12 15.1193 13.1193 14 14.5 14ZM35.5 26C35.5 30.4183 31.9183 34 27.881 34C23.0817 34 19.5 30.4183 19.5 26C19.5 21.5817 23.0817 18 27.881 18C31.9183 18 35.5 21.5817 35.5 26ZM16.5 23.5C16.5 22.3954 15.6046 21.5 14.5 21.5C13.3954 21.5 12.5 22.3954 12.5 23.5V32C12.5 33.1046 13.3954 34 14.5 34C15.6046 34 16.5 33.1046 16.5 32V23.5ZM29.4653 25.1604H30.5303V24.1124H29.4729V22.845H28.3159V27.0614C28.3159 27.7276 28.4079 28.1825 28.5994 28.4262C28.7833 28.6781 29.1358 28.7999 29.6568 28.7999C29.8561 28.7999 30.1549 28.7512 30.538 28.6618L30.4844 27.6869L29.8254 27.7032C29.7105 27.7032 29.6262 27.6788 29.5725 27.6219C29.5189 27.5651 29.4883 27.5001 29.4806 27.427C29.4729 27.3457 29.4653 27.2239 29.4653 27.037V25.1604ZM25.979 24.1205V28.6943H27.136V24.1205H25.979ZM24.2424 24.0067C24.4446 24.0067 24.6157 24.0749 24.7479 24.2111C24.8801 24.3473 24.9424 24.5138 24.9424 24.7181C24.9424 24.9224 24.8801 25.0813 24.7479 25.2176C24.6235 25.3386 24.4601 25.4067 24.2501 25.4067C24.0479 25.4067 23.8768 25.3386 23.7446 25.2024C23.6124 25.0662 23.5424 24.8997 23.5424 24.703C23.5424 24.5062 23.6124 24.3397 23.7368 24.2035C23.869 24.0673 24.0401 24.0067 24.2424 24.0067Z" fill="white"/>
</mask>
<g mask="url(#mask0)">
<rect x="-26" y="-26" width="100" height="100" fill="white"/>
</g>
<defs>
<linearGradient id="paint0_linear" x1="24" y1="0" x2="24" y2="48" gradientUnits="userSpaceOnUse">
<stop stop-color="#1D51DF"/>
<stop offset="1" stop-color="#1723D5"/>
</linearGradient>
</defs>
</svg>
