<svg width="232" height="235" viewBox="0 0 232 235" fill="none" xmlns="http://www.w3.org/2000/svg">
<path fill-rule="evenodd" clip-rule="evenodd" d="M204 231C217.255 231 228 220.255 228 207L228 193C228 191.895 228.895 191 230 191C231.105 191 232 191.895 232 193L232 207C232 222.464 219.464 235 204 235L190 235C188.895 235 188 234.105 188 233C188 231.895 188.895 231 190 231L204 231Z" fill="white"/>
<path fill-rule="evenodd" clip-rule="evenodd" d="M28 231C14.7452 231 4 220.255 4 207L4 193C4 191.895 3.10457 191 2 191C0.895427 191 -3.76832e-06 191.895 -3.67176e-06 193L-2.44784e-06 207C-1.09593e-06 222.464 12.536 235 28 235L42 235C43.1046 235 44 234.105 44 233C44 231.895 43.1046 231 42 231L28 231Z" fill="white"/>
<path fill-rule="evenodd" clip-rule="evenodd" d="M204 4C217.255 4 228 14.7452 228 28L228 42C228 43.1046 228.895 44 230 44C231.105 44 232 43.1046 232 42L232 28C232 12.536 219.464 1.09593e-06 204 2.44784e-06L190 3.67176e-06C188.895 3.76832e-06 188 0.895434 188 2C188 3.10457 188.895 4 190 4L204 4Z" fill="white"/>
<path fill-rule="evenodd" clip-rule="evenodd" d="M28 4C14.7452 4 4 14.7452 4 28L4 42C4 43.1046 3.10457 44 2 44C0.895427 44 -3.76832e-06 43.1046 -3.67176e-06 42L-2.44784e-06 28C-1.09593e-06 12.536 12.536 1.09593e-06 28 2.44784e-06L42 3.67176e-06C43.1046 3.76832e-06 44 0.895434 44 2C44 3.10457 43.1046 4 42 4L28 4Z" fill="white"/>
<line x1="10" y1="119" x2="222" y2="119" stroke="white" stroke-width="4" stroke-linecap="round"/>
</svg>
