<?xml version="1.0" encoding="UTF-8"?>
<svg width="120px" height="84px" viewBox="0 0 120 84" version="1.1" xmlns="http://www.w3.org/2000/svg" xmlns:xlink="http://www.w3.org/1999/xlink">
    <!-- Generator: sketchtool 54.1 (76490) - https://sketchapp.com -->
    <title>094A167D-0E63-4B7C-994C-A50C8BE438D0</title>
    <desc>Created with sketchtool.</desc>
    <g id="--IO-onboarding-e-validazione-email" stroke="none" stroke-width="1" fill="none" fill-rule="evenodd">
        <g id="13.2-valid-email-needed---modal" transform="translate(-110.000000, -74.000000)">
            <g id="email-checked-icon" transform="translate(90.000000, 65.000000)">
                <rect id="Rectangle" x="0" y="0" width="140" height="102"></rect>
                <path d="M56.5625,79 C57.8561401,79 58.90625,80.0454428 58.90625,81.3333333 C58.90625,82.6212239 57.8561401,83.6666667 56.5625,83.6666667 C55.2688599,83.6666667 54.21875,82.6212239 54.21875,81.3333333 C54.21875,80.0454428 55.2688599,79 56.5625,79 Z M118.90625,9 C130.537109,9 140,18.4208333 140,30 C140,40.7907553 131.782227,49.7048178 121.25,50.8696614 L121.25,86 C121.25,89.8572917 118.100586,93 114.21875,93 L27.03125,93 C23.1201172,93 20,89.8290364 20,86 L20,34.6666667 C20,30.7802083 23.1759643,27.6666667 27.03125,27.6666667 L97.9434205,27.6666667 C99.1134643,17.18125 108.067322,9 118.90625,9 Z M24.6875,34.7960939 L24.6875,85.6053386 L56.2796021,59.1502605 L24.6875,34.7960939 Z M60.0708008,62.0733072 L28.7112427,88.3333333 L113.693237,88.3333333 L81.9729615,61.5382811 L74.9938965,66.8402344 C73.7057495,67.8592447 72.1649169,68.36875 70.625,68.36875 C69.0814208,68.36875 67.5387573,67.8574219 66.2487793,66.8338542 L60.0708008,62.0733072 Z M85.7870483,58.6398439 L116.5625,84.6364583 L116.5625,50.8705728 C111.788025,50.3446614 107.368775,48.2200522 103.972168,44.8184895 L85.7870483,58.6398439 Z M72.1310424,63.1451822 C72.1539308,63.1269531 100.656128,41.4679689 101.054382,41.1653645 C99.3688965,38.4966145 98.3050536,35.46875 97.9489135,32.3333333 L29.1488647,32.3333333 C29.173584,32.3515625 69.100647,63.1305989 69.1317748,63.1552083 C69.1427612,63.1625 69.152832,63.1707031 69.1629029,63.1789061 C70.0234986,63.8652344 71.2255859,63.8652344 72.0861816,63.1789061 C72.1017455,63.1679689 72.1154785,63.1561197 72.1310424,63.1451822 Z M118.90625,46.3333333 C127.952576,46.3333333 135.3125,39.0061197 135.3125,30 C135.3125,20.9938803 127.952576,13.6666667 118.90625,13.6666667 C109.859924,13.6666667 102.5,20.9938803 102.5,30 C102.5,33.7488281 103.745117,37.2734375 106.099854,40.1946614 C109.240112,44.0966145 113.907471,46.3333333 118.90625,46.3333333 Z M86.09375,79 C87.3883058,79 88.4375,80.0445311 88.4375,81.3333333 C88.4375,82.6221355 87.3883058,83.6666667 86.09375,83.6666667 L65.9375,83.6666667 C64.6429442,83.6666667 63.59375,82.6221355 63.59375,81.3333333 C63.59375,80.0445311 64.6429442,79 65.9375,79 L86.09375,79 Z" id="Combined-Shape" fill="#00C5CA" fill-rule="nonzero"></path>
                <path d="M120.472924,41.3650498 C119.993639,41.787624 119.438185,42 118.80895,42 C118.157926,42 117.590047,41.7914114 117.105315,41.3734767 C116.619818,40.9562994 116.376592,40.3721945 116.376592,39.62173 C116.376592,38.9560075 116.611981,38.3956682 117.081231,37.9415643 C117.550481,37.4874603 118.126101,37.2604083 118.80895,37.2604083 C119.480905,37.2604083 120.04649,37.4874603 120.505609,37.9415643 C120.963964,38.3956682 121.193906,38.9559128 121.193906,39.62173 C121.193046,40.3614005 120.952974,40.9425703 120.472924,41.3650498 Z M126.449219,26.6863951 C126.080987,27.3629115 125.643657,27.946259 125.13637,28.4381418 C124.630613,28.92993 123.720975,29.7565204 122.408031,30.9186705 C122.046011,31.2465608 121.754712,31.5343998 121.53643,31.7821876 C121.318147,32.0308275 121.155009,32.2577848 121.048544,32.464101 C120.941314,32.6703225 120.859028,32.8766387 120.80073,33.0828602 C120.742432,33.2883243 120.654699,33.6508689 120.535809,34.1687898 C120.333869,35.2678805 119.699187,35.8173311 118.632528,35.8173311 C118.077838,35.8173311 117.611742,35.6379998 117.23185,35.2785797 C116.853487,34.9191597 116.664736,34.3858053 116.664736,33.6777591 C116.664736,32.7903817 116.803791,32.0214538 117.081136,31.3711648 C117.356951,30.7207811 117.725948,30.1505 118.184303,29.6587119 C118.643423,29.1669238 119.261762,28.5834816 120.040947,27.9069652 C120.723796,27.3150962 121.21713,26.8687563 121.520852,26.5677562 C121.825339,26.2660933 122.080989,25.9305336 122.288377,25.561077 C122.497389,25.190863 122.599936,24.7898767 122.599936,24.3566032 C122.599936,23.510792 122.283789,22.7981063 121.648343,22.2170313 C121.013661,21.6359562 120.194815,21.3449926 119.1919,21.3449926 C118.018106,21.3449926 117.154247,21.6382286 116.599557,22.2247007 C116.044867,22.8111727 115.576477,23.6746898 115.191903,24.8161042 C114.828353,26.0106362 114.140056,26.6078075 113.127776,26.6078075 C112.530367,26.6078075 112.026233,26.3992189 111.615281,25.9820416 C111.205094,25.5648644 111,25.1131275 111,24.6267364 C111,23.6230871 111.325512,22.605614 111.975772,21.5750745 C112.626797,20.544535 113.576096,19.6909597 114.824435,19.0152007 C116.072009,18.3386843 117.528691,18 119.1919,18 C120.738609,18 122.103544,18.2831995 123.287468,18.8489358 C124.471393,19.4138199 125.386478,20.1827478 126.032055,21.1555301 C126.676868,22.127555 126.999991,23.1843219 126.999991,24.3257363 C127.00152,25.2224874 126.817451,26.0098787 126.449219,26.6863951 Z" id="Shape" fill="#00C5CA" fill-rule="nonzero"></path>
            </g>
        </g>
    </g>
</svg>