<svg fill="none" xmlns="http://www.w3.org/2000/svg" viewBox="0 0 24 24">
  <path
    fill-rule="evenodd"
    clip-rule="evenodd"
    d="M0 5c0-2.76142 2.23858-5 5-5h14c2.7614 0 5 2.23858 5 5v14c0 2.7614-2.2386 5-5 5H5c-2.76142 0-5-2.2386-5-5V5Zm5-3C3.34315 2 2 3.34315 2 5v11.0946c.89644-.8798 2.02544-1.9597 3.40549-3.1956l.00994-.0089.01017-.0087c.92105-.7816 2.23173-.7595 3.12858.0453l1.96092 1.7594c.0991.0888.1985.1123.2812.1054.0837-.0069.1885-.0483.2839-.1636l2.3434-2.8309 1.5795-1.90804c1.0003-1.20862 2.7777-1.17865 3.7438.05221l.0159.02027L22 14.5545V5c0-1.65685-1.3431-3-3-3H5ZM2 19v-.0857l.20726-.2072c.99534-.9953 2.47537-2.4753 4.51996-4.307.15381-.1255.33797-.1224.4913.0152l1.96115 1.7596c1.03693.9301 2.56513.7869 3.44133-.2719l3.9228-4.7388c.0507-.0613.1037-.1017.1552-.1271.0567-.028.1116-.0378.1596-.0371.0883.0013.2005.0388.3026.1607L22 18.0262V19c0 1.6569-1.3431 3-3 3H5c-1.65685 0-3-1.3431-3-3ZM9 7c0 1.10457-.89543 2-2 2s-2-.89543-2-2 .89543-2 2-2 2 .89543 2 2Z"
    fill="#0E0F13"
  />
</svg>
