<svg fill="none" xmlns="http://www.w3.org/2000/svg" viewBox="0 0 24 24">
  <path
    fill-rule="evenodd"
    clip-rule="evenodd"
    d="M.9995 12.9945C.44722 12.9943-.00027 12.5463 0 11.994a12.00002 12.00002 0 0 1 20.5-8.46455v-1.0295c0-.55228.4477-1 1-1s1 .44772 1 1v3.5a.99997.99997 0 0 1-1 1H18c-.5523 0-1-.44772-1-1s.4477-1 1-1h1.1414A10 10 0 0 0 2 11.995c-.00027.5523-.44821.9998-1.0005.9995ZM24 12.006c.0003-.5523-.4472-1.0003-.9995-1.0005-.5523-.0003-1.0002.4472-1.0005.9995a10.00034 10.00034 0 0 1-1.9878 5.9787 10.0006 10.0006 0 0 1-5.1683 3.6034 9.99992 9.99992 0 0 1-6.29728-.2023A10.00062 10.00062 0 0 1 4.85861 19H6c.55228 0 1-.4477 1-1 0-.5522-.44772-1-1-1H2.5c-.26522 0-.51957.1054-.70711.2929A1.0001 1.0001 0 0 0 1.5 18v3.5c0 .5523.44771 1 1 1 .55228 0 1-.4477 1-1v-1.0295a11.99855 11.99855 0 0 0 4.35595 2.7912 11.9998 11.9998 0 0 0 7.55665.2428c2.4793-.7354 4.6546-2.2521 6.2021-4.3241A12.00001 12.00001 0 0 0 24 12.006ZM12.8057 8.411a3.74994 3.74994 0 0 0-4.13036 1.39806 3.7515 3.7515 0 0 0-.39353.69094h3.43689c.4143 0 .75.3358.75.75s-.3357.75-.75.75H7.96875c0 .2532.02563.5044.07576.75h3.67419c.4143 0 .75.3358.75.75s-.3357.75-.75.75H8.71875a3.75036 3.75036 0 0 0 1.77295 1.2936 3.75037 3.75037 0 0 0 2.289.0529 3.75045 3.75045 0 0 0 1.8931-1.2878c.255-.3264.7263-.3842 1.0527-.1292s.3843.7263.1293 1.0527a5.25005 5.25005 0 0 1-2.6504 1.8029 5.24931 5.24931 0 0 1-3.2045-.0741 5.2501 5.2501 0 0 1-3.02557-2.711h-.50658c-.41422 0-.75-.3358-.75-.75s.33578-.75.75-.75h.05384a5.25096 5.25096 0 0 1-.05384-.75c-.41422 0-.75-.3358-.75-.75s.33578-.75.75-.75h.21884a5.25011 5.25011 0 0 1 3.34791-3.47286 5.24998 5.24998 0 0 1 3.205-.05174 5.24994 5.24994 0 0 1 2.6378 1.82134c.2527.32817.1915.79909-.1366 1.05182-.3282.25274-.7991.19154-1.0519-.13661A3.74976 3.74976 0 0 0 12.8057 8.411Z"
    fill="#0E0F13"
  />
</svg>
