<svg fill="none" xmlns="http://www.w3.org/2000/svg" viewBox="0 0 24 24">
  <path
    d="M21.715 18.3628a10.0001 10.0001 0 0 1-4.339 3.0503 10.00083 10.00083 0 0 1-5.2887.4022 9.99993 9.99993 0 0 1-4.75041-2.359A9.99956 9.99956 0 0 1 4.461 14.9998H15c.2652 0 .5196-.1053.7071-.2929a.99993.99993 0 0 0 0-1.4142A1.0001 1.0001 0 0 0 15 12.9998H4.051a9.82942 9.82942 0 0 1 0-2H15c.2652 0 .5196-.1053.7071-.2929a.99991.99991 0 0 0 0-1.41416A.99993.99993 0 0 0 15 8.99985H4.461a9.99997 9.99997 0 0 1 7.6263-6.81546 9.99989 9.99989 0 0 1 9.6277 3.45246 1 1 0 0 0 .3025.24656.99988.99988 0 0 0 .762.07252 1.00005 1.00005 0 0 0 .3435-.18508 1.002 1.002 0 0 0 .2466-.30246.99976.99976 0 0 0 .112-.37379 1.00162 1.00162 0 0 0-.0395-.38821 1.00035 1.00035 0 0 0-.1851-.34354A11.98896 11.98896 0 0 0 11.4075.28965 11.98893 11.98893 0 0 0 2.4 8.99985H1a.99998.99998 0 1 0 0 1.99995h1.051c-.028.331-.051.662-.051 1 0 .338.023.669.051 1H1c-.26522 0-.51957.1054-.7071.2929A1.00013 1.00013 0 0 0 0 13.9998c0 .2653.10536.5196.2929.7071A.99974.99974 0 0 0 1 14.9998h1.4a11.9888 11.9888 0 0 0 3.27498 5.6287A11.98909 11.98909 0 0 0 17.911 23.3482a11.98926 11.98926 0 0 0 5.351-3.7114c.1689-.2045.2497-.4677.2246-.7317a1.00004 1.00004 0 0 0-.3586-.6763 1.0005 1.0005 0 0 0-.7318-.2246c-.264.0252-.5073.1542-.6762.3586h-.005Z"
    fill="#0E0F13"
  />
</svg>
