<svg fill="none" xmlns="http://www.w3.org/2000/svg" viewBox="0 0 25 24">
  <path
    fill-rule="evenodd"
    clip-rule="evenodd"
    d="M22.002 5c0-1.65685-1.3432-3-3-3H5.00195c-1.65685 0-3 1.34315-3 3v14c0 1.6569 1.34315 3 3 3H14.002v-5c0-1.6569 1.3431-3 3-3h5V5Zm-5.5356 16.1213a2.99926 2.99926 0 0 1-.4644.3797V17c0-.5523.4477-1 1-1h4.5009a3.00406 3.00406 0 0 1-.3796.4645l-4.6569 4.6568ZM19.002 0c2.7614 0 5 2.23858 5 5v9.3431c0 1.3261-.5268 2.5979-1.4645 3.5356l-4.6569 4.6568A4.99988 4.99988 0 0 1 14.3451 24H5.00195c-2.76142 0-5-2.2386-5-5V5c0-2.76142 2.23858-5 5-5H19.002ZM4.60938 11.0001v-4.9h2.121c.30799 0 .58333.07.826.21.24266.14.434.33133.57399.574.14001.238.21.511.21.819 0 .31266-.06999.595-.21.847-.13999.252-.33133.45033-.57399.595-.24267.14466-.51801.217-.826.217h-.924v1.638h-1.197Zm1.183-2.695h.777c.10266 0 .19366-.02334.27299-.07.08401-.05134.15167-.12134.20301-.21.05133-.08867.077-.189.077-.301 0-.11667-.02567-.217-.077-.301-.05134-.084-.119-.14934-.20301-.196-.07933-.04667-.17033-.07-.27299-.07h-.777v1.148Zm3.45176 2.695v-4.9h2.06496c.3594 0 .6884.06066.987.182.2987.11666.5554.28466.77.504.2147.21466.3804.47366.497.777.1167.29866.175.62766.175.987 0 .364-.0583.69533-.175.994-.1166.29866-.2823.5577-.497.777-.2146.2147-.4713.3827-.77.504-.294.1167-.623.175-.987.175H9.24414Zm2.02996-1.057h-.833v-2.786h.833c.1914 0 .364.03266.518.098.154.06533.2847.161.392.287.112.12133.196.26833.252.441.0607.168.091.357.091.567 0 .21-.0303.40133-.091.574-.056.168-.14.315-.252.441-.1073.12133-.238.21466-.392.28-.154.06533-.3266.098-.518.098Zm3.3773-3.843v4.9h1.197v-1.876h1.911v-1.001h-1.911v-.966h2.191v-1.057h-3.388Z"
    fill="#000"
  />
</svg>
