<svg fill="none" xmlns="http://www.w3.org/2000/svg" viewBox="0 0 24 24">
  <path
    d="M11.975 4.219a2.11 2.11 0 1 0 0-4.219 2.11 2.11 0 0 0 0 4.219ZM2.111 2.861c.367 0 .719-.323.702-.702-.017-.38-.308-.702-.702-.702-.367 0-.719.323-.702.702.017.38.309.702.702.702ZM21.18 4.993a.702.702 0 0 1 0 .992L19.454 7.71l-3.212-3.213 1.724-1.724a.702.702 0 0 1 .992 0l2.22 2.22ZM.206 20.535 15.25 5.49l3.213 3.213L3.418 23.748a.702.702 0 0 1-.992 0l-2.22-2.22a.702.702 0 0 1 0-.993ZM22.003 13.625h-.869v-.868a.702.702 0 0 0-1.403 0v.868h-.868a.702.702 0 0 0 0 1.404h.868v.868a.702.702 0 0 0 1.403 0v-.868h.869a.702.702 0 0 0 0-1.404ZM1.57 9.252H.702a.702.702 0 0 1 0-1.404h.868V6.98a.702.702 0 0 1 1.403 0v.868h.869a.702.702 0 0 1 0 1.404h-.869v.868a.702.702 0 1 1-1.403 0v-.868ZM9.158 8.45c.367 0 .719-.324.702-.703-.017-.38-.309-.701-.702-.701-.367 0-.719.322-.702.701.017.38.308.702.702.702ZM15.699 17.614c-.017-.38.335-.702.702-.702.393 0 .684.322.701.702.017.379-.334.701-.701.701-.394 0-.685-.321-.702-.701ZM23.252 19.731c-.368 0-.72.323-.702.702.017.38.308.701.701.701.367 0 .72-.322.702-.701-.017-.38-.308-.702-.701-.702ZM23.953 9.157c.017.379-.334.702-.701.702-.394 0-.685-.322-.702-.702-.017-.38.334-.702.701-.702.394 0 .685.322.702.702Z"
    fill="#000"
  />
  <path
    d="M11.975 4.219a2.11 2.11 0 1 0 0-4.219 2.11 2.11 0 0 0 0 4.219ZM2.111 2.861c.367 0 .719-.323.702-.702-.017-.38-.308-.702-.702-.702-.367 0-.719.323-.702.702.017.38.309.702.702.702ZM21.18 4.993a.702.702 0 0 1 0 .992L19.454 7.71l-3.212-3.213 1.724-1.724a.702.702 0 0 1 .992 0l2.22 2.22ZM.206 20.535 15.25 5.49l3.213 3.213L3.418 23.748a.702.702 0 0 1-.992 0l-2.22-2.22a.702.702 0 0 1 0-.993ZM22.003 13.625h-.869v-.868a.702.702 0 0 0-1.403 0v.868h-.868a.702.702 0 0 0 0 1.404h.868v.868a.702.702 0 0 0 1.403 0v-.868h.869a.702.702 0 0 0 0-1.404ZM1.57 9.252H.702a.702.702 0 0 1 0-1.404h.868V6.98a.702.702 0 0 1 1.403 0v.868h.869a.702.702 0 0 1 0 1.404h-.869v.868a.702.702 0 1 1-1.403 0v-.868ZM9.158 8.45c.367 0 .719-.324.702-.703-.017-.38-.309-.701-.702-.701-.367 0-.719.322-.702.701.017.38.308.702.702.702ZM15.699 17.614c-.017-.38.335-.702.702-.702.393 0 .684.322.701.702.017.379-.334.701-.701.701-.394 0-.685-.321-.702-.701ZM23.252 19.731c-.368 0-.72.323-.702.702.017.38.308.701.701.701.367 0 .72-.322.702-.701-.017-.38-.308-.702-.701-.702ZM23.953 9.157c.017.379-.334.702-.701.702-.394 0-.685-.322-.702-.702-.017-.38.334-.702.701-.702.394 0 .685.322.702.702Z"
    fill="#000"
  />
</svg>
