<svg fill="none" xmlns="http://www.w3.org/2000/svg" viewBox="0 0 24 25">
  <path
    d="M22.95 9.5997a.9999.9999 0 0 0-.707-.29279c-.2651 0-.5195.10532-.707.29279l-10.892 10.939a4.99896 4.99896 0 0 1-1.62212 1.084 4.99813 4.99813 0 0 1-1.9135.3808 5.00017 5.00017 0 0 1-3.53586-1.4643 5.00042 5.00042 0 0 1-1.4648-3.5357 5.00026 5.00026 0 0 1 1.4643-3.5358L14.121 2.8757a3.00005 3.00005 0 0 1 4.2253.0167 2.99985 2.99985 0 0 1 .8789 2.109 2.99996 2.99996 0 0 1-.8612 2.1163L7.81502 17.7097a1.0218 1.0218 0 0 1-.707.284 1.02182 1.02182 0 0 1-.707-.284.99989.99989 0 0 1-.29278-.707c0-.2652.10531-.5195.29278-.707l9.39198-9.435a.99975.99975 0 0 0 .2807-.7034 1.00018 1.00018 0 0 0-.2929-.69842.99994.99994 0 0 0-1.4018-.01218l-9.39198 9.435a3.00022 3.00022 0 0 0-.65045.9733 3.00027 3.00027 0 0 0 0 2.2964c.1508.364.37182.6947.65045.9733a3.07287 3.07287 0 0 0 2.1215.8498 3.07287 3.07287 0 0 0 2.1215-.8498L19.778 8.5317a5.0001 5.0001 0 0 0 1.4196-3.52223 4.99983 4.99983 0 0 0-1.4646-3.50375A5.0001 5.0001 0 0 0 16.229.0416a5.00012 5.00012 0 0 0-3.522 1.4201L2.15802 12.0537C.8452 13.3665.10767 15.1471.10767 17.0037c0 1.8566.73753 3.6372 2.05035 4.95 1.31282 1.3128 3.09339 2.0504 4.95 2.0504 1.85661 0 3.63718-.7376 4.94998-2.0504l10.892-10.936a.99968.99968 0 0 0 .2948-.709c0-.1318-.026-.2623-.0766-.38392a.999.999 0 0 0-.2182-.32508Z"
    fill="#0E0F13"
  />
</svg>
