<svg fill="none" xmlns="http://www.w3.org/2000/svg" viewBox="0 0 24 24">
  <path
    fill-rule="evenodd"
    clip-rule="evenodd"
    d="M17.67 12.445c.08.083.184.137.307.158l.077.006a.533.533 0 0 0 .384-.162l2.13-2.174a.552.552 0 0 0 .16-.391.554.554 0 0 0-.16-.39.548.548 0 0 0-.764 0l-1.747 1.782-.768-.792a.532.532 0 0 0-.38-.164h-.005a.53.53 0 0 0-.38.16.556.556 0 0 0-.005.78l1.152 1.187Z"
    fill="#000"
  />
  <path
    fill-rule="evenodd"
    clip-rule="evenodd"
    d="m21.114 19.473-1.826-1.54a.818.818 0 0 0-1.104-.001l-1.83 1.54.157-3.61a5.453 5.453 0 0 0 4.447 0l.156 3.61ZM18.735 7.316c2.19 0 3.969 1.74 3.969 3.88 0 2.14-1.78 3.882-3.969 3.882-2.19 0-3.97-1.741-3.97-3.881 0-2.14 1.78-3.881 3.97-3.881Zm-7.49 6.131.006.005.004.003c.017.015.036.027.054.038.01.004.019.012.027.017a.34.34 0 0 0 .042.02c.014.01.03.015.052.024l.04.013a.696.696 0 0 0 .251.022l.04-.006a.985.985 0 0 0 .1-.026l.096-.044a.6.6 0 0 0 .098-.067l1.517-1.27a5.115 5.115 0 0 0 1.677 2.875l-.167 3.885H3.012c-.974 0-1.766-.777-1.766-1.734V5.952c0-.257.059-.511.17-.742l9.829 8.237Zm7.715-7.392c-.059-.006-.133-.006-.225-.006-2.668 0-4.894 1.954-5.204 4.554l-1.882 1.578-9.333-7.823c.218-.092.455-.138.696-.138h17.275c.241 0 .478.046.697.138L18.96 6.055Zm1.551.304 1.372-1.15c.111.23.169.485.169.744v1.275a6.764 6.764 0 0 0-1.541-.87ZM24 11.197c0-.873-.236-1.72-.702-2.521V5.953c0-1.628-1.35-2.953-3.011-2.953H3.012C1.35 3 0 4.325 0 5.953v11.249c0 1.628 1.35 2.953 3.012 2.953H15.03l-.016.366c0 .316.188.605.479.733a.818.818 0 0 0 .877-.122l2.365-1.992 2.365 1.992a.84.84 0 0 0 .875.123.81.81 0 0 0 .477-.76l-.233-5.443A5.096 5.096 0 0 0 24 11.197Z"
    fill="#000"
  />
</svg>
