<svg fill="none" xmlns="http://www.w3.org/2000/svg" viewBox="0 0 24 24">
  <path
    fill-rule="evenodd"
    clip-rule="evenodd"
    d="M22.9859 1.99711C22.9843 1.44483 22.5353.99841 21.983 1c-.5523.0016-.9987.4506-.9971 1.00289l.0106 3.68583c-1.9886-2.83385-5.2822-4.68869-9.0103-4.68869C5.9111 1.00003.98624 5.92489.98624 12c0 6.0752 4.92486 11 10.99996 11 5.5353 0 10.1141-4.0875 10.8857-9.409.0792-.5465-.2996-1.0539-.8462-1.1331-.5465-.0793-1.0539.2996-1.1331.8461C20.2615 17.6563 16.5135 21 11.9862 21c-4.97053 0-8.99996-4.0294-8.99996-9 0-4.97054 4.02943-8.99997 8.99996-8.99997 3.1121 0 5.8566 1.57929 7.4737 3.98368l-3.474.00005c-.5523.00001-1 .44773-1 1.00001 0 .55229.4477 1 1 .99999l5.0144-.00007c1.1068-.00001 2.0031-.89896 1.9999-2.00577l-.0143-4.98081Z"
    fill="#0E0F13"
  />
</svg>
