<svg fill="none" xmlns="http://www.w3.org/2000/svg" viewBox="0 0 24 24">
  <path
    d="M12 17.546c.602 0 1.09-.448 1.09-1V13.09h3.455c.553 0 1-.489 1-1.091s-.447-1.09-1-1.09h-3.454V7.544c0-.552-.489-1-1.091-1s-1.09.448-1.09 1v3.364H7.544c-.552 0-1 .489-1 1.091s.448 1.09 1 1.09h3.364v3.455c0 .553.489 1 1.091 1Z"
    fill="#000"
  />
  <path
    fill-rule="evenodd"
    clip-rule="evenodd"
    d="M0 12C0 5.373 5.373 0 12 0s12 5.373 12 12-5.373 12-12 12S0 18.627 0 12Zm21.818 0c0-5.422-4.396-9.818-9.818-9.818S2.182 6.578 2.182 12 6.578 21.818 12 21.818s9.818-4.396 9.818-9.818Z"
    fill="#000"
  />
  <path
    d="M12 17.546c.602 0 1.09-.448 1.09-1V13.09h3.455c.553 0 1-.489 1-1.091s-.447-1.09-1-1.09h-3.454V7.544c0-.552-.489-1-1.091-1s-1.09.448-1.09 1v3.364H7.544c-.552 0-1 .489-1 1.091s.448 1.09 1 1.09h3.364v3.455c0 .553.489 1 1.091 1Z"
    fill="#000"
  />
  <path
    fill-rule="evenodd"
    clip-rule="evenodd"
    d="M0 12C0 5.373 5.373 0 12 0s12 5.373 12 12-5.373 12-12 12S0 18.627 0 12Zm21.818 0c0-5.422-4.396-9.818-9.818-9.818S2.182 6.578 2.182 12 6.578 21.818 12 21.818s9.818-4.396 9.818-9.818Z"
    fill="#000"
  />
</svg>
