<svg fill="none" xmlns="http://www.w3.org/2000/svg" viewBox="0 0 24 24">
  <path
    fill-rule="evenodd"
    clip-rule="evenodd"
    d="M10.4023 2.68517c.9818-.62476 2.2365-.62476 3.2182 0l7.9187 5.03918a.999.999 0 0 1 .4627.84286l-.0229 1.42337H1.99809l.02288-1.42337a.99903.99903 0 0 1 .46269-.84286l7.91864-5.03918Zm4.291-1.68572c-1.6363-1.04126-3.7274-1.04126-5.36368 0L1.41093 6.03864C.54641 6.58878.02288 7.54248.02288 8.56721L0 10.9896c0 .5518.44729.9991.99905.9991h.99904v9.9905H.99905c-.55176 0-.99905.4473-.99905.999 0 .5518.44729.9991.99905.9991H22.9781c.5517 0 .999-.4473.999-.9991 0-.5517-.4473-.999-.999-.999h-.9991v-9.9905h.9991c.5517 0 .999-.4473.999-.9991L24 8.56721c0-1.02473-.5235-1.97843-1.388-2.52858L14.6933.99945ZM5.99428 21.9792H3.99619v-9.9905h1.99809v9.9905Zm9.99042-9.9905v9.9905H7.99237v-9.9905h7.99233Zm3.9962 9.9905h-1.9981v-9.9905h1.9981v9.9905ZM13.51 6.47125c0 .82764-.6709 1.49857-1.4986 1.49857-.8276 0-1.4985-.67093-1.4985-1.49857 0-.82764.6709-1.49858 1.4985-1.49858.8277 0 1.4986.67094 1.4986 1.49858Z"
    fill="#0E0F13"
  />
</svg>
