<svg fill="none" xmlns="http://www.w3.org/2000/svg" viewBox="0 0 24 24">
  <path
    d="M8.204 5.205a1.125 1.125 0 0 1 1.679 1.492l-.087.098-1.831 1.83H18.75c.58 0 1.057.439 1.118 1.002l.007.123c0 .58-.439 1.057-1.002 1.118l-.123.007H5.25c-.962 0-1.463-1.117-.875-1.833l.08-.088 3.75-3.75ZM14.202 19.546c.44.439 1.152.439 1.591 0l3.75-3.75.08-.088c.588-.716.087-1.833-.875-1.833h-13.5l-.123.007A1.125 1.125 0 0 0 4.123 15l.006.123a1.125 1.125 0 0 0 1.119 1.002h10.785l-1.83 1.83-.088.098c-.35.441-.32 1.084.087 1.492Z"
    fill="#000"
  />
  <path
    fill-rule="evenodd"
    clip-rule="evenodd"
    d="M24 4.5A4.5 4.5 0 0 0 19.5 0h-15A4.5 4.5 0 0 0 0 4.5v15A4.5 4.5 0 0 0 4.5 24h15a4.5 4.5 0 0 0 4.5-4.5v-15ZM4.5 2h15l.164.005A2.5 2.5 0 0 1 22 4.5v15l-.005.164A2.5 2.5 0 0 1 19.5 22h-15l-.164-.005A2.5 2.5 0 0 1 2 19.5v-15l.005-.164A2.5 2.5 0 0 1 4.5 2Z"
    fill="#000"
  />
  <path
    d="M8.204 5.205a1.125 1.125 0 0 1 1.679 1.492l-.087.098-1.831 1.83H18.75c.58 0 1.057.439 1.118 1.002l.007.123c0 .58-.439 1.057-1.002 1.118l-.123.007H5.25c-.962 0-1.463-1.117-.875-1.833l.08-.088 3.75-3.75ZM14.202 19.546c.44.439 1.152.439 1.591 0l3.75-3.75.08-.088c.588-.716.087-1.833-.875-1.833h-13.5l-.123.007A1.125 1.125 0 0 0 4.123 15l.006.123a1.125 1.125 0 0 0 1.119 1.002h10.785l-1.83 1.83-.088.098c-.35.441-.32 1.084.087 1.492Z"
    fill="#000"
  />
  <path
    fill-rule="evenodd"
    clip-rule="evenodd"
    d="M24 4.5A4.5 4.5 0 0 0 19.5 0h-15A4.5 4.5 0 0 0 0 4.5v15A4.5 4.5 0 0 0 4.5 24h15a4.5 4.5 0 0 0 4.5-4.5v-15ZM4.5 2h15l.164.005A2.5 2.5 0 0 1 22 4.5v15l-.005.164A2.5 2.5 0 0 1 19.5 22h-15l-.164-.005A2.5 2.5 0 0 1 2 19.5v-15l.005-.164A2.5 2.5 0 0 1 4.5 2Z"
    fill="#000"
  />
</svg>
