<svg fill="none" xmlns="http://www.w3.org/2000/svg" viewBox="0 0 24 24">
  <path
    fill-rule="evenodd"
    clip-rule="evenodd"
    d="M19 7c1.1046 0 2-.89543 2-2s-.8954-2-2-2-2 .89543-2 2 .8954 2 2 2Zm0 2c2.2091 0 4-1.79086 4-4s-1.7909-4-4-4c-2.2091 0-4 1.79086-4 4 0 .30391.0339.5999.0981.8844L8.43194 9.94413C7.73273 8.7794 6.45738 8 5 8c-2.20914 0-4 1.79086-4 4 0 2.2091 1.79086 4 4 4 .88281 0 1.69883-.286 2.36046-.7704l7.64344 3.9493C15.0975 21.305 16.8508 23 19 23c2.2091 0 4-1.7909 4-4 0-2.2091-1.7909-4-4-4-1.5447 0-2.8848.8756-3.5513 2.1575l-6.80089-3.5139C8.87407 13.1422 9 12.5858 9 12c0-.02-.00015-.0399-.00044-.0599l7.01834-4.27415C16.7503 8.4847 17.815 9 19 9ZM5 14c1.10457 0 2-.8954 2-2s-.89543-2-2-2-2 .8954-2 2 .89543 2 2 2Zm16 5c0 1.1046-.8954 2-2 2s-2-.8954-2-2 .8954-2 2-2 2 .8954 2 2Z"
    fill="#0E0F13"
  />
</svg>
