<svg fill="none" xmlns="http://www.w3.org/2000/svg" viewBox="0 0 24 24">
  <path
    fill-rule="evenodd"
    clip-rule="evenodd"
    d="M11.552.398c.11.644.615 1.149 1.259 1.26a.398.398 0 1 1 0 .796 1.541 1.541 0 0 0-1.26 1.259.398.398 0 0 1-.796 0 1.542 1.542 0 0 0-1.259-1.26.398.398 0 0 1 0-.796 1.542 1.542 0 0 0 1.26-1.259.398.398 0 1 1 .796 0Zm-.968 1.657c.222.155.415.348.57.57.154-.222.347-.415.57-.57a2.278 2.278 0 0 1-.57-.57 2.278 2.278 0 0 1-.57.57ZM21.06.064a2.753 2.753 0 0 1 2.809 2.788v6.374c0 .22-.179.398-.399.398h-2.318c.295.493.399 1.077.29 1.641a2.39 2.39 0 0 1-3.546 1.628 2.39 2.39 0 0 1-.875-3.265h-2.286a.398.398 0 0 1-.395-.402l.024-2.303a.797.797 0 0 1 1.195-.7c.242.14.517.214.797.214a1.593 1.593 0 0 0 .275-3.159c-.378-.07-.767 0-1.096.2a.797.797 0 0 1-1.195-.698V.462a.398.398 0 0 1 .398-.398h6.322Zm.096 8.763h1.924V2.852c0-1.1-.892-1.992-1.992-1.992h-5.951l.008 1.916a2.338 2.338 0 0 1 1.633-.29 2.39 2.39 0 0 1-.446 4.748 2.339 2.339 0 0 1-1.175-.339l-.02 1.932 1.852.008a.817.817 0 0 1 .705.399.769.769 0 0 1 0 .796 1.593 1.593 0 0 0 .399 2.032v.008a1.594 1.594 0 0 0 2.565-.952 1.561 1.561 0 0 0-.195-1.096.769.769 0 0 1 0-.796.797.797 0 0 1 .693-.399ZM18.22 14.52a.398.398 0 0 0-.295-.116h-2.318a.797.797 0 0 0-.697 1.195c.199.328.27.718.199 1.095a1.593 1.593 0 0 1-3.159-.274c0-.28.075-.555.215-.797a.769.769 0 0 0 0-.797.797.797 0 0 0-.7-.398l-1.905-.024v-1.916a2.35 2.35 0 0 0 1.195.323 2.39 2.39 0 0 0 .446-4.74 2.338 2.338 0 0 0-1.633.29L9.56 6.04a.398.398 0 0 0-.398-.398H2.788A2.788 2.788 0 0 0 0 8.428v6.35c0 .053.012.106.036.155v6.27a2.788 2.788 0 0 0 2.788 2.788h6.338a.375.375 0 0 0 .183-.052h6.202a2.788 2.788 0 0 0 2.789-2.788v-6.35a.399.399 0 0 0-.116-.282ZM.797 8.428c0-1.1.891-1.992 1.991-1.992h5.975v1.92a.797.797 0 0 0 1.196.697c.328-.198.718-.27 1.095-.199a1.593 1.593 0 0 1-.275 3.159c-.28 0-.555-.075-.797-.215a.797.797 0 0 0-.796 0 .817.817 0 0 0-.399.705v1.864H6.911a2.39 2.39 0 0 0-.235-2.653 2.442 2.442 0 0 0-.398-.398 2.39 2.39 0 0 0-3.852 1.426 2.338 2.338 0 0 0 .29 1.633H.797V8.43Zm.032 12.747c0 1.1.891 1.992 1.991 1.992h5.943l-.007-1.885a2.342 2.342 0 0 1-1.634.291 2.39 2.39 0 0 1-1.888-1.864 2.678 2.678 0 0 1-.056-.558 2.39 2.39 0 0 1 2.39-2.39 2.54 2.54 0 0 1 1.195.319V15.2l-1.868.004c-.23 0-.45-.1-.601-.275a.797.797 0 0 1-.135-.972 1.593 1.593 0 0 0-.112-1.769 1.593 1.593 0 0 0-2.601 1.817.76.76 0 0 1 0 .796.797.797 0 0 1-.693.399H.829v5.975Zm16.698-.032c0 1.1-.892 1.992-1.992 1.992H9.56v-1.924a.797.797 0 0 0-.398-.694.761.761 0 0 0-.797 0 1.562 1.562 0 0 1-1.095.196 1.593 1.593 0 0 1-1.267-1.195 1.593 1.593 0 0 1 2.362-1.677c.244.15.552.15.797 0a.797.797 0 0 0 .398-.701V15.2l1.924.02a2.39 2.39 0 1 0 4.422 1.617 2.338 2.338 0 0 0-.291-1.633l1.912-.004v5.943Z"
    fill="#000"
  />
  <path
    d="M21.112 14.404c0 1.1-.892 1.992-1.992 1.992v.796a2.788 2.788 0 0 0 2.789-2.788h-.797Z"
    fill="#000"
  />
  <path
    d="M19.12 18.387c2.2 0 3.984-1.783 3.984-3.983h.796a4.78 4.78 0 0 1-4.78 4.78v-.797Z"
    fill="#000"
  />
  <path
    fill-rule="evenodd"
    clip-rule="evenodd"
    d="M11.552.398c.11.644.615 1.149 1.259 1.26a.398.398 0 1 1 0 .796 1.541 1.541 0 0 0-1.26 1.259.398.398 0 0 1-.796 0 1.542 1.542 0 0 0-1.259-1.26.398.398 0 0 1 0-.796 1.542 1.542 0 0 0 1.26-1.259.398.398 0 1 1 .796 0Zm-.968 1.657c.222.155.415.348.57.57.154-.222.347-.415.57-.57a2.278 2.278 0 0 1-.57-.57 2.278 2.278 0 0 1-.57.57ZM21.06.064a2.753 2.753 0 0 1 2.809 2.788v6.374c0 .22-.179.398-.399.398h-2.318c.295.493.399 1.077.29 1.641a2.39 2.39 0 0 1-3.546 1.628 2.39 2.39 0 0 1-.875-3.265h-2.286a.398.398 0 0 1-.395-.402l.024-2.303a.797.797 0 0 1 1.195-.7c.242.14.517.214.797.214a1.593 1.593 0 0 0 .275-3.159c-.378-.07-.767 0-1.096.2a.797.797 0 0 1-1.195-.698V.462a.398.398 0 0 1 .398-.398h6.322Zm.096 8.763h1.924V2.852c0-1.1-.892-1.992-1.992-1.992h-5.951l.008 1.916a2.338 2.338 0 0 1 1.633-.29 2.39 2.39 0 0 1-.446 4.748 2.339 2.339 0 0 1-1.175-.339l-.02 1.932 1.852.008a.817.817 0 0 1 .705.399.769.769 0 0 1 0 .796 1.593 1.593 0 0 0 .399 2.032v.008a1.594 1.594 0 0 0 2.565-.952 1.561 1.561 0 0 0-.195-1.096.769.769 0 0 1 0-.796.797.797 0 0 1 .693-.399ZM18.22 14.52a.398.398 0 0 0-.295-.116h-2.318a.797.797 0 0 0-.697 1.195c.199.328.27.718.199 1.095a1.593 1.593 0 0 1-3.159-.274c0-.28.075-.555.215-.797a.769.769 0 0 0 0-.797.797.797 0 0 0-.7-.398l-1.905-.024v-1.916a2.35 2.35 0 0 0 1.195.323 2.39 2.39 0 0 0 .446-4.74 2.338 2.338 0 0 0-1.633.29L9.56 6.04a.398.398 0 0 0-.398-.398H2.788A2.788 2.788 0 0 0 0 8.428v6.35c0 .053.012.106.036.155v6.27a2.788 2.788 0 0 0 2.788 2.788h6.338a.375.375 0 0 0 .183-.052h6.202a2.788 2.788 0 0 0 2.789-2.788v-6.35a.399.399 0 0 0-.116-.282ZM.797 8.428c0-1.1.891-1.992 1.991-1.992h5.975v1.92a.797.797 0 0 0 1.196.697c.328-.198.718-.27 1.095-.199a1.593 1.593 0 0 1-.275 3.159c-.28 0-.555-.075-.797-.215a.797.797 0 0 0-.796 0 .817.817 0 0 0-.399.705v1.864H6.911a2.39 2.39 0 0 0-.235-2.653 2.442 2.442 0 0 0-.398-.398 2.39 2.39 0 0 0-3.852 1.426 2.338 2.338 0 0 0 .29 1.633H.797V8.43Zm.032 12.747c0 1.1.891 1.992 1.991 1.992h5.943l-.007-1.885a2.342 2.342 0 0 1-1.634.291 2.39 2.39 0 0 1-1.888-1.864 2.678 2.678 0 0 1-.056-.558 2.39 2.39 0 0 1 2.39-2.39 2.54 2.54 0 0 1 1.195.319V15.2l-1.868.004c-.23 0-.45-.1-.601-.275a.797.797 0 0 1-.135-.972 1.593 1.593 0 0 0-.112-1.769 1.593 1.593 0 0 0-2.601 1.817.76.76 0 0 1 0 .796.797.797 0 0 1-.693.399H.829v5.975Zm16.698-.032c0 1.1-.892 1.992-1.992 1.992H9.56v-1.924a.797.797 0 0 0-.398-.694.761.761 0 0 0-.797 0 1.562 1.562 0 0 1-1.095.196 1.593 1.593 0 0 1-1.267-1.195 1.593 1.593 0 0 1 2.362-1.677c.244.15.552.15.797 0a.797.797 0 0 0 .398-.701V15.2l1.924.02a2.39 2.39 0 1 0 4.422 1.617 2.338 2.338 0 0 0-.291-1.633l1.912-.004v5.943Z"
    fill="#000"
  />
  <path
    d="M21.112 14.404c0 1.1-.892 1.992-1.992 1.992v.796a2.788 2.788 0 0 0 2.789-2.788h-.797Z"
    fill="#000"
  />
  <path
    d="M19.12 18.387c2.2 0 3.984-1.783 3.984-3.983h.796a4.78 4.78 0 0 1-4.78 4.78v-.797Z"
    fill="#000"
  />
</svg>
