<svg fill="none" xmlns="http://www.w3.org/2000/svg" viewBox="0 0 24 24">
  <path
    d="m15.995 9.295.818.818-2.122 2.12 2.122 2.123-.818.817-2.122-2.121-2.12 2.121-.818-.817 2.12-2.123-2.12-2.12.817-.818 2.121 2.121 2.122-2.12Z"
    fill="#000"
  />
  <path
    fill-rule="evenodd"
    clip-rule="evenodd"
    d="m8.249 5.25-.08.005a.609.609 0 0 0-.391.218l-.025.034-4.897 5.195-.11.127-.092.123a2.237 2.237 0 0 0 .202 2.815l4.896 5.193.026.036a.609.609 0 0 0 .47.223h11.146c1.234 0 2.234-1 2.234-2.235v-9.5c0-1.234-1-2.234-2.234-2.234H8.249ZM3.76 11.518l4.76-5.05h10.874c.56 0 1.015.455 1.015 1.016v9.5l-.005.104a1.016 1.016 0 0 1-1.01.912H8.52L3.743 12.93a1.016 1.016 0 0 1-.059-1.326l.076-.087Z"
    fill="#000"
  />
  <path
    d="m15.995 9.295.818.818-2.122 2.12 2.122 2.123-.818.817-2.122-2.121-2.12 2.121-.818-.817 2.12-2.123-2.12-2.12.817-.818 2.121 2.121 2.122-2.12Z"
    fill="#000"
  />
  <path
    fill-rule="evenodd"
    clip-rule="evenodd"
    d="m8.249 5.25-.08.005a.609.609 0 0 0-.391.218l-.025.034-4.897 5.195-.11.127-.092.123a2.237 2.237 0 0 0 .202 2.815l4.896 5.193.026.036a.609.609 0 0 0 .47.223h11.146c1.234 0 2.234-1 2.234-2.235v-9.5c0-1.234-1-2.234-2.234-2.234H8.249ZM3.76 11.518l4.76-5.05h10.874c.56 0 1.015.455 1.015 1.016v9.5l-.005.104a1.016 1.016 0 0 1-1.01.912H8.52L3.743 12.93a1.016 1.016 0 0 1-.059-1.326l.076-.087Z"
    fill="#000"
  />
</svg>
