<svg fill="none" xmlns="http://www.w3.org/2000/svg" viewBox="0 0 24 24">
  <path
    fill-rule="evenodd"
    clip-rule="evenodd"
    d="M8.82813 4a2.99998 2.99998 0 0 0-2.12132.87868l-5 5C.53523 11.0503.53523 12.9497 1.7068 14.1213l5.00001 5A3.00004 3.00004 0 0 0 8.82813 20H18.9997c2.7614 0 5-2.2386 5-5V9c0-2.76142-2.2386-5-5-5H8.82813Zm-.70711 2.29289A1.00003 1.00003 0 0 1 8.82813 6H18.9997c1.6569 0 3 1.34315 3 3v6c0 1.6569-1.3431 3-3 3H8.82813a1.00017 1.00017 0 0 1-.70711-.2929l-5-5c-.39053-.3905-.39053-1.0237 0-1.4142l5-5.00001Zm9.17188 2c.3905-.39052 1.0237-.39052 1.4142 0 .3905.39053.3905 1.02369 0 1.41422L16.4142 12l2.2929 2.2929c.3905.3905.3905 1.0237 0 1.4142-.3905.3905-1.0237.3905-1.4142 0L15 13.4142l-2.2929 2.2929c-.3905.3905-1.0237.3905-1.4142 0-.3905-.3905-.3905-1.0237 0-1.4142L13.5858 12l-2.2929-2.29289c-.3905-.39053-.3905-1.02369 0-1.41422.3905-.39052 1.0237-.39052 1.4142 0L15 10.5858l2.2929-2.29291Z"
    fill="#0E0F13"
  />
</svg>
