<svg fill="none" xmlns="http://www.w3.org/2000/svg" viewBox="0 0 24 24">
  <path
    fill-rule="evenodd"
    clip-rule="evenodd"
    d="M12.0009 0c.5523 0 1 .44771 1 1v1.04947c4.724.46946 8.4807 4.2264 8.9497 8.95053h1.0502c.5523 0 1 .4477 1 1s-.4477 1-1 1h-1.0502c-.469 4.7241-4.2257 8.4811-8.9497 8.9505v1.0503c0 .5522-.4477 1-1 1s-1-.4478-1-1v-1.0501C6.27606 21.482 2.51846 17.7247 2.04937 13H1.00195c-.55228 0-1-.4477-1-1s.44772-1 1-1h1.04743c.46911-4.72474 4.2267-8.48204 8.95152-8.95072V1c0-.55229.4477-1 1-1ZM12 4c.339 0 .673.02108 1.0009.06201 3.6183.45162 6.486 3.31956 6.9372 6.93799.0409.3276.0619.6613.0619 1s-.021.6724-.0619 1c-.4512 3.6184-3.3189 6.4864-6.9372 6.938C12.673 19.9789 12.339 20 12 20c-.3383 0-.6718-.021-.9991-.0618C7.38176 19.4873 4.51316 16.619 4.06189 13A8.07978 8.07978 0 0 1 4 12c0-.3387.02104-.6724.0619-1 .4513-3.61904 3.31988-6.48734 6.939-6.93822A8.07888 8.07888 0 0 1 12 4Zm0 13c2.7614 0 5-2.2386 5-5 0-2.76142-2.2386-5-5-5-2.76142 0-5 2.23858-5 5 0 2.7614 2.23858 5 5 5Z"
    fill="#0E0F13"
  />
</svg>
