<svg fill="none" xmlns="http://www.w3.org/2000/svg" viewBox="0 0 24 24">
  <path
    d="M6.84 15.44c0-.398-.277-.635-.765-.635-.2 0-.334.02-.405.038v1.279c.084.018.186.025.328.025.52 0 .841-.263.841-.706ZM9.86 14.818c-.219 0-.36.02-.444.039v2.832c.084.02.219.02.341.02.886.006 1.465-.482 1.465-1.516.006-.9-.52-1.375-1.362-1.375Z"
    fill="#000"
  />
  <path
    d="M15.473 0h-9.64A2.558 2.558 0 0 0 3.28 2.554V12h-.25C2.461 12 2 12.46 2 13.03v6.242c0 .569.46 1.029 1.03 1.029h.249v1.145A2.557 2.557 0 0 0 5.833 24h13.153a2.557 2.557 0 0 0 2.553-2.554v-15.4L15.472 0ZM4.7 14.156c.302-.051.726-.09 1.323-.09.604 0 1.034.116 1.323.347.277.218.463.578.463 1.002 0 .424-.141.784-.398 1.028-.334.314-.829.456-1.407.456-.128 0-.244-.007-.334-.02v1.549H4.7v-4.272Zm14.286 8.28H5.833a.99.99 0 0 1-.99-.99V20.3h12.262c.568 0 1.03-.46 1.03-1.03V13.03c0-.569-.462-1.03-1.03-1.03H4.844V2.555a.99.99 0 0 1 .99-.988l9.053-.01v3.347c0 .978.793 1.772 1.772 1.772l3.278-.01.037 14.78a.99.99 0 0 1-.988.99ZM8.434 18.408v-4.252c.36-.057.829-.09 1.323-.09.822 0 1.356.148 1.773.462.45.335.732.867.732 1.632 0 .829-.301 1.4-.72 1.754-.455.379-1.149.558-1.996.558-.508 0-.868-.032-1.112-.064Zm7.01-2.518v.797H13.89v1.74h-.983V14.1h2.646v.802H13.89v.99h1.554Z"
    fill="#000"
  />
</svg>
