<svg fill="none" xmlns="http://www.w3.org/2000/svg" viewBox="0 0 24 24">
  <path
    fill-rule="evenodd"
    clip-rule="evenodd"
    d="M23.3953 14.8922c.4031-.7125.6047-1.4906.6047-2.3297 0-.8906-.225-1.7109-.6703-2.4562-.4453-.74067-1.0453-1.28911-1.7953-1.64536.1781-.48281.2672-1.01719.2672-1.60782 0-1.26562-.4219-2.34374-1.2704-3.23906-.8484-.89531-1.8703-1.34062-3.0656-1.34062-.539 0-1.0453.09844-1.5281.29531-.375-.76875-.9188-1.3875-1.6219-1.86094C13.6125.23906 12.8391 0 12 0s-1.6125.23906-2.31562.7125c-.70782.47344-1.24688 1.09219-1.62188 1.86094-.48281-.19688-.99375-.29532-1.52813-.29532-1.19531 0-2.22187.45-3.07968 1.34063-.85782.89062-1.28438 1.97344-1.28438 3.23906 0 .53438.09844 1.07344.29531 1.60782-.75.35625-1.34999.90468-1.7953 1.64527C.225 10.8516 0 11.6719 0 12.5625c0 .8391.20156 1.6172.6 2.3297.40313.7125.94219 1.2656 1.62188 1.6594-.03282.2531-.05157.45-.05157.5906 0 1.2656.42656 2.3484 1.28438 3.239.85781.8954 1.88437 1.3407 3.07968 1.3407.53907 0 1.04532-.0985 1.52813-.2953.375.7875.90938 1.4109 1.60781 1.875C10.3641 23.7703 11.1422 24 12 24c.8391 0 1.6125-.2344 2.3156-.7125.7078-.4734 1.2469-1.0922 1.6219-1.8609.4828.1968.9937.2953 1.5281.2953 1.1953 0 2.2172-.4453 3.0656-1.3407.8438-.8906 1.2704-1.9687 1.2704-3.239 0-.2672-.0094-.4641-.0282-.5906.6797-.3891 1.2188-.9469 1.6219-1.6594Zm-5.6882-4.1851c.3905-.3905.3905-1.02368 0-1.41421-.3905-.39052-1.0237-.39052-1.4142 0L10 15.5858l-3.29289-3.2929c-.39053-.3905-1.02369-.3905-1.41422 0-.39052.3905-.39052 1.0237 0 1.4142L8.58579 17c.78105.7811 2.04741.781 2.82841 0l6.2929-6.2929Z"
    fill="#000000"
  />
</svg>
