<svg fill="none" xmlns="http://www.w3.org/2000/svg" viewBox="0 0 24 24">
  <path
    d="m23.36 13.855-3.071 3.074a.938.938 0 0 1-1.327-1.325l3.07-3.074a.29.29 0 0 0 .068-.337.297.297 0 0 0-.29-.192h-2.919a.938.938 0 0 1-.938-.938V1.875H6.281v9.188c0 .518-.42.938-.938.938H2.19c-.182 0-.259.12-.289.192a.29.29 0 0 0 .068.337l9.42 9.318c.37.37.968.37 1.335.003l3.008-3.012a.938.938 0 0 1 1.327 1.325l-3.01 3.013a2.81 2.81 0 0 1-1.991.823c-.72 0-1.441-.274-1.99-.822L.646 13.86a2.18 2.18 0 0 1-.478-2.384 2.18 2.18 0 0 1 2.021-1.35h2.217V.938c0-.518.42-.938.937-.938h13.548c.518 0 .938.42.938.938v9.188h1.982c.888 0 1.68.53 2.02 1.349.34.818.155 1.752-.472 2.38ZM12.942 6.563c.769 0 1.263.627 1.49 1.001a.938.938 0 1 0 1.604-.97c-.733-1.212-1.86-1.906-3.094-1.906-1.098 0-2.151.594-2.889 1.63-.263.369-.48.784-.648 1.23h-.734a.938.938 0 1 0 0 1.874h.341a6.92 6.92 0 0 0 .003.891h-.391a.938.938 0 1 0 0 1.875h.798c.165.428.377.827.631 1.184.738 1.035 1.79 1.629 2.889 1.629 1.217 0 2.333-.674 3.063-1.85a.938.938 0 0 0-1.593-.989c-.223.36-.711.964-1.47.964-.549 0-1.056-.361-1.43-.938h1.143a.938.938 0 0 0 0-1.875h-1.759a4.953 4.953 0 0 1-.004-.89h1.763a.938.938 0 1 0 0-1.876h-1.174c.378-.604.897-.984 1.461-.984Z"
    fill="#000"
  />
</svg>
