<svg fill="none" xmlns="http://www.w3.org/2000/svg" viewBox="0 0 24 24">
  <path
    d="M18.907 10.419a.767.767 0 0 1-.767.767H5.86l-.104-.007a.768.768 0 0 1 .104-1.528h12.28l.104.007c.374.051.663.372.663.76ZM18.14 8.628a.767.767 0 0 0 .104-1.528l-.104-.007H5.86a.767.767 0 0 0-.104 1.528l.104.007h12.28ZM13.79 12.977a.767.767 0 0 1-.767.767H5.86l-.104-.007a.768.768 0 0 1 .104-1.528h7.163l.104.007c.375.051.664.372.664.76Z"
    fill="#000"
  />
  <path
    fill-rule="evenodd"
    clip-rule="evenodd"
    d="m6.248 21.158 4.536-2.909a.302.302 0 0 1 .132-.03h10.3c.978 0 1.784-.776 1.784-1.745V4.744C23 3.776 22.194 3 21.216 3H2.784C1.806 3 1 3.775 1 4.745v11.729c0 .97.806 1.744 1.784 1.744h2.033c.144 0 .249.101.249.21v2.084c0 .606.67.973 1.182.646ZM2.784 4.535h18.432c.143 0 .25.102.25.21v11.729c0 .108-.107.21-.25.21h-10.3l-.173.008c-.229.022-.455.088-.66.194l-.15.086L6.6 19.108v-.68c0-.97-.804-1.745-1.783-1.745H2.784c-.143 0-.25-.101-.25-.21V4.746c0-.108.107-.21.25-.21Z"
    fill="#000"
  />
  <path
    d="M18.907 10.419a.767.767 0 0 1-.767.767H5.86l-.104-.007a.768.768 0 0 1 .104-1.528h12.28l.104.007c.374.051.663.372.663.76ZM18.14 8.628a.767.767 0 0 0 .104-1.528l-.104-.007H5.86a.767.767 0 0 0-.104 1.528l.104.007h12.28ZM13.79 12.977a.767.767 0 0 1-.767.767H5.86l-.104-.007a.768.768 0 0 1 .104-1.528h7.163l.104.007c.375.051.664.372.664.76Z"
    fill="#000"
  />
  <path
    fill-rule="evenodd"
    clip-rule="evenodd"
    d="m6.248 21.158 4.536-2.909a.302.302 0 0 1 .132-.03h10.3c.978 0 1.784-.776 1.784-1.745V4.744C23 3.776 22.194 3 21.216 3H2.784C1.806 3 1 3.775 1 4.745v11.729c0 .97.806 1.744 1.784 1.744h2.033c.144 0 .249.101.249.21v2.084c0 .606.67.973 1.182.646ZM2.784 4.535h18.432c.143 0 .25.102.25.21v11.729c0 .108-.107.21-.25.21h-10.3l-.173.008c-.229.022-.455.088-.66.194l-.15.086L6.6 19.108v-.68c0-.97-.804-1.745-1.783-1.745H2.784c-.143 0-.25-.101-.25-.21V4.746c0-.108.107-.21.25-.21Z"
    fill="#000"
  />
</svg>
