<svg fill="none" xmlns="http://www.w3.org/2000/svg" viewBox="0 0 24 24">
  <path
    fill-rule="evenodd"
    clip-rule="evenodd"
    d="M20.744 1H3.233C1.45 1 0 2.437 0 4.203v11.708c0 1.766 1.45 3.204 3.233 3.204h.375l-.035 4.828 7.051-4.828h10.12c1.781 0 3.232-1.438 3.232-3.204V4.203c0-1.766-1.45-3.203-3.232-3.203Zm2.309 14.911c0 1.262-1.036 2.288-2.31 2.288H10.338l-5.828 3.99.03-3.99H3.232c-1.274 0-2.31-1.027-2.31-2.288V4.203c0-1.261 1.036-2.288 2.31-2.288h17.51c1.273 0 2.31 1.027 2.31 2.288v11.708Zm-15.76-4.756a1.38 1.38 0 0 0 1.385-1.373 1.38 1.38 0 0 0-1.385-1.373 1.38 1.38 0 0 0-1.386 1.373c0 .758.62 1.373 1.386 1.373Zm6.08-1.373c0 .758-.62 1.373-1.385 1.373a1.38 1.38 0 0 1-1.385-1.373c0-.759.62-1.373 1.385-1.373.766 0 1.386.614 1.386 1.373Zm3.31 1.525c.765 0 1.385-.615 1.385-1.373s-.62-1.373-1.385-1.373a1.38 1.38 0 0 0-1.386 1.373c0 .758.621 1.373 1.386 1.373Z"
    fill="#000"
  />
</svg>
