<svg fill="none" xmlns="http://www.w3.org/2000/svg" viewBox="0 0 24 24">
  <path
    d="M17.81 18.707a.89.89 0 0 1-1.32 0l-4.94-5.293-4.94 5.293a.89.89 0 0 1-1.32 0 1.051 1.051 0 0 1 0-1.414L10.23 12 5.29 6.707a1.051 1.051 0 0 1 0-1.414.89.89 0 0 1 1.32 0l4.94 5.293 4.94-5.293a.89.89 0 0 1 1.32 0c.365.39.365 1.024 0 1.414L12.87 12l4.94 5.293c.365.39.365 1.024 0 1.414Z"
    fill="#000"
  />
  <path
    d="M17.81 18.707a.89.89 0 0 1-1.32 0l-4.94-5.293-4.94 5.293a.89.89 0 0 1-1.32 0 1.051 1.051 0 0 1 0-1.414L10.23 12 5.29 6.707a1.051 1.051 0 0 1 0-1.414.89.89 0 0 1 1.32 0l4.94 5.293 4.94-5.293a.89.89 0 0 1 1.32 0c.365.39.365 1.024 0 1.414L12.87 12l4.94 5.293c.365.39.365 1.024 0 1.414Z"
    fill="#000"
  />
</svg>
