<svg viewBox="0 0 24 24" fill="none" xmlns="http://www.w3.org/2000/svg">
  <path
    d="M17.4283 9.23529C17.4283 6.32991 14.9527 4 11.9283 4C10.4573 4 9.07327 4.55344 8.04858 5.52394C7.25881 6.27195 6.72081 7.23307 6.51813 8.28848C6.41397 8.83085 6.76922 9.35497 7.31159 9.45912C7.85397 9.56328 8.37808 9.20803 8.48224 8.66566C8.60473 8.02782 8.93351 7.44047 9.42388 6.97603C10.0778 6.35673 10.9699 6 11.9283 6C13.8744 6 15.4283 7.4625 15.4283 9.23529C15.4283 10.5872 14.5182 11.7939 13.1558 12.2661L12.9841 12.329C11.8495 12.7686 10.9283 13.6047 10.9283 14.8824V17L10.935 17.1166C10.9928 17.614 11.4154 18 11.9283 18C12.4806 18 12.9283 17.5523 12.9283 17V14.8824L12.9378 14.8182C13.0004 14.597 13.3649 14.3103 13.8107 14.1558L14.0304 14.0745C16.0579 13.2767 17.4283 11.3855 17.4283 9.23529Z"
    fill="black"
  />
  <path
    d="M12.0002 21C12.5525 21 13.0002 20.5523 13.0002 20C13.0002 19.4477 12.5525 19 12.0002 19C11.4479 19 11.0002 19.4477 11.0002 20C11.0002 20.5523 11.4479 21 12.0002 21Z"
    fill="black"
  />
  <path
    d="M17.4283 9.23529C17.4283 6.32991 14.9527 4 11.9283 4C10.4573 4 9.07327 4.55344 8.04858 5.52394C7.25881 6.27195 6.72081 7.23307 6.51813 8.28848C6.41397 8.83085 6.76922 9.35497 7.31159 9.45912C7.85397 9.56328 8.37808 9.20803 8.48224 8.66566C8.60473 8.02782 8.93351 7.44047 9.42388 6.97603C10.0778 6.35673 10.9699 6 11.9283 6C13.8744 6 15.4283 7.4625 15.4283 9.23529C15.4283 10.5872 14.5182 11.7939 13.1558 12.2661L12.9841 12.329C11.8495 12.7686 10.9283 13.6047 10.9283 14.8824V17L10.935 17.1166C10.9928 17.614 11.4154 18 11.9283 18C12.4806 18 12.9283 17.5523 12.9283 17V14.8824L12.9378 14.8182C13.0004 14.597 13.3649 14.3103 13.8107 14.1558L14.0304 14.0745C16.0579 13.2767 17.4283 11.3855 17.4283 9.23529Z"
    fill="black"
  />
  <path
    d="M12.0002 21C12.5525 21 13.0002 20.5523 13.0002 20C13.0002 19.4477 12.5525 19 12.0002 19C11.4479 19 11.0002 19.4477 11.0002 20C11.0002 20.5523 11.4479 21 12.0002 21Z"
    fill="black"
  />
</svg>
